<svg xmlns="http://www.w3.org/2000/svg" width="33" height="33" fill="none" viewBox="0 0 33 33">
  <path fill="light-dark(rgb(249 243 241), rgb(171 213 200))" d="m18 22-7-7C14.9 11.1 27-.8 30.4 2.6 33.8 6 21.9 18.1 18 22Z"/>
  <path fill="light-dark(rgb(232 220 217), rgb(118 176 159))" d="M30.4 2.6c.7.7.7 1.9.4 2.8-.3 1-.7 1.9-1.2 2.7-1 1.7-2.2 3.4-3.5 4.9-2.5 3.1-5.3 6-8.1 8.9-.6.6-1.5.6-2.1 0-.6-.6-.6-1.5 0-2.1 2.8-2.8 5.5-5.7 7.9-8.6 1.2-1.5 2.3-3 3.2-4.5.4-.7.8-1.5.9-2 .1-.3.1-.5.1-.4 0 0 .1.3.3.5-.6-.6-.6-1.5 0-2.1.5-.7 1.5-.7 2.1-.1Z"/>
  <path fill="light-dark(rgb(249 243 241), rgb(171 213 200))" d="m11.082 14.982-4.03 4.03 7 7 4.03-4.03-7-7Z"/>
  <path fill="light-dark(rgb(232 220 217), rgb(118 176 159))" d="m15.87 19.825-4.03 4.03 2.121 2.122 4.03-4.03-2.12-2.122Z"/>
  <path fill="light-dark(#fff, #1a1a1a)" d="M11 15c2.5-2.5 5.1-5 7.9-7.3 1.4-1.1 2.8-2.3 4.3-3.3s3.1-1.9 4.8-2.3c.8-.2 1.6.3 1.8 1.1.2.8-.3 1.5-1 1.8l-.2.1c-.4.1-1 .3-1.7.7-.3.2-.7.3-1 .6-.3.2-.7.4-1 .6-1.4.9-2.7 2-4 3.1-2.6 2.2-5.2 4.6-7.7 7.1-.6.6-1.5.6-2.1 0-.6-.6-.7-1.6-.1-2.2Z"/>
  <path fill="light-dark(#fff, #1a1a1a)" d="m11.032 15.017-4.03 4.03 2.121 2.122 4.03-4.03-2.12-2.122Z"/>
  <path fill="light-dark(rgb(249 243 241), rgb(171 213 200))" d="M8 20c-2 0-4.1 1.1-5 2-2 2-2 8-2 10 2 0 8 0 10-2 .9-.9 2-3 2-5l-5-5Z"/>
  <path fill="light-dark(rgb(232 220 217), rgb(118 176 159))" d="M2 29c1.1 0 2.2-.1 3.2-.2s2-.3 2.8-.5c.4-.1.7-.3.8-.4l.1-.1c.1-.1.2-.2.2-.3.4-.6.7-1.4.8-2 .1-.8.9-1.4 1.7-1.3.8.1 1.4.9 1.3 1.7-.2 1.1-.6 2.2-1.3 3.2-.6 1-1.7 1.6-2.8 2-1.1.4-2.3.5-3.4.7-1.1.1-2.2.2-3.4.2-.8 0-1.5-.7-1.5-1.5S1.1 29 2 29Z"/>
  <path fill="light-dark(#fff, #1a1a1a)" d="M7.5 23c-.6.1-1.4.4-2 .8-.1.1-.3.2-.3.2l-.1.1c-.1.1-.2.5-.4.8-.3.8-.4 1.8-.5 2.8-.1 1-.2 2.1-.2 3.2 0 .8-.7 1.5-1.5 1.5S1 31.7 1 30.9c0-1.2.1-2.3.2-3.5.1-1.1.3-2.3.7-3.4.3-1.1.9-2.2 2-2.8 1-.6 2.1-1.1 3.2-1.3.8-.1 1.6.4 1.7 1.2.1 1-.5 1.8-1.3 1.9Z"/>
  <path stroke="light-dark(rgb(162 143 140), rgb(56 120 103))" stroke-linecap="round" stroke-linejoin="round" stroke-miterlimit="10" stroke-width="2" d="m11.031 15.033-3.998 3.998 7 7 3.998-3.998-7-7ZM8 20c-2 0-4.1 1.1-5 2-2 2-2 8-2 10 2 0 8 0 10-2 .9-.9 2-3 2-5l-5-5Zm10 2-7-7C14.9 11.1 27-.8 30.4 2.6 33.8 6 21.9 18.1 18 22Z"/>
</svg>
