<svg xmlns="http://www.w3.org/2000/svg" width="96" height="96" fill="none" viewBox="0 0 96 96">
  <path stroke="light-dark(var(--color-neutral-01-500), var(--color-fern-800))" stroke-linejoin="round" stroke-width="2" d="M16 8a4 4 0 0 1 4-4h56a4 4 0 0 1 4 4v15.432c0 .377-.051.744-.15 1.107C79.11 27.23 75.917 39.494 76 50c.082 10.403 3.453 22.467 4.306 25.355.126.429.187.873.173 1.32l-.358 11.45A4 4 0 0 1 76.123 92H20a4 4 0 0 1-4-4V76.553c0-.367.048-.724.143-1.078C16.858 72.806 20 60.475 20 50c0-10.476-3.142-22.806-3.857-25.474a4.142 4.142 0 0 1-.143-1.08V8Z"/>
  <path fill="light-dark(#fff, #1a1a1a)" stroke="light-dark(rgb(162 143 140), rgb(56 120 103))" stroke-linejoin="round" stroke-width="2" d="M16 8a4 4 0 0 1 4-4h56a4 4 0 0 1 4 4v15.432c0 .377-.051.744-.15 1.107C79.11 27.23 75.917 39.494 76 50c.082 10.403 3.453 22.467 4.306 25.355.126.429.187.873.173 1.32l-.358 11.45A4 4 0 0 1 76.123 92H20a4 4 0 0 1-4-4V76.553c0-.367.048-.724.143-1.078C16.858 72.806 20 60.475 20 50c0-10.476-3.142-22.806-3.857-25.474a4.142 4.142 0 0 1-.143-1.08V8Z"/>
  <path fill="light-dark(rgb(249 243 241), rgb(171 213 200))" d="M32 4h32v60c0 8.837-7.163 16-16 16s-16-7.163-16-16V4Z"/>
  <path fill="light-dark(#fff, #1a1a1a)" d="M46 4h-6v74l6 2V4Z"/>
  <path fill="light-dark(rgb(217 203 200), rgb(95 157 139))" d="M32 61h32v2c0 8.837-7.163 16-16 16s-16-7.163-16-16v-2Z" opacity=".1"/>
  <path fill="light-dark(#fff, #1a1a1a)" d="M54 44a5 5 0 1 0 0-10 5 5 0 0 0 0 10Z"/>
  <path stroke="light-dark(rgb(232 220 217), rgb(118 176 159))" stroke-width="2" d="M49 39h10m-5-5v10m0 0a5 5 0 1 0 0-10 5 5 0 0 0 0 10Z"/>
  <path fill="light-dark(#fff, #1a1a1a)" d="M64 9.571 40 17V4h24v5.571Z"/>
  <path stroke="light-dark(rgb(162 143 140), rgb(56 120 103))" stroke-linejoin="round" stroke-width="2" d="M32 4h32v60c0 8.837-7.163 16-16 16s-16-7.163-16-16V4Z"/>
  <path fill="light-dark(rgb(162 143 140), rgb(56 120 103))" fill-rule="evenodd" d="M40 4h-8v60c0 5.922 3.218 11.093 8 13.86V4Z" clip-rule="evenodd"/>
</svg>
