<svg xmlns="http://www.w3.org/2000/svg" width="96" height="96" fill="none" viewBox="0 0 96 96">
  <rect width="90" height="82" x="3" y="7" class="fill-surface" rx="8"/>
  <path class="stroke-surface" stroke-miterlimit="10" stroke-width="4" d="M5 80v1a6 6 0 0 0 6 6h74a6 6 0 0 0 6-6v-1"/>
  <path class="stroke-foreground" stroke-miterlimit="10" stroke-width="4" d="M91 18v-3a6 6 0 0 0-6-6H11a6 6 0 0 0-6 6v3"/>
  <rect width="80" height="72" x="8" y="12" class="fill-foreground" rx="3"/>
  <rect width="80" height="72" x="8" y="12" class="stroke-border" stroke-width="2" rx="3"/>
  <rect width="90" height="82" x="3" y="7" class="stroke-border" stroke-width="2" rx="8"/>
  <path class="stroke-accent" stroke-linecap="round" stroke-linejoin="round" stroke-miterlimit="10" stroke-width="2" d="m18 66 4 4-4 4m9 0h8"/>
  <rect width="16" height="2" x="26" y="24" class="fill-lowlight" rx="1"/>
  <rect width="4" height="2" x="18" y="24" class="fill-muted" rx="1"/>
  <rect width="8" height="2" x="18" y="30" class="fill-border" rx="1"/>
  <rect width="16" height="2" x="30" y="30" class="fill-muted" rx="1"/>
  <rect width="2" height="2" x="46" y="24" class="fill-lowlight" rx="1"/>
  <rect width="4" height="2" x="18" y="36" class="fill-lowlight" rx="1"/>
  <rect width="2" height="2" x="50" y="30" class="fill-border" rx="1"/>
</svg>
