<svg xmlns="http://www.w3.org/2000/svg" width="96" height="96" fill="none" viewBox="0 0 96 96">
  <rect width="90" height="82" x="3" y="7" fill="light-dark(rgb(252 249 248), rgb(202 231 222))" rx="8"/>
  <path stroke="light-dark(rgb(241 232 228), rgb(143 194 179))" stroke-miterlimit="10" stroke-width="4" d="M5 80v1a6 6 0 0 0 6 6h74a6 6 0 0 0 6-6v-1"/>
  <path stroke="light-dark(#fff, #1a1a1a)" stroke-miterlimit="10" stroke-width="4" d="M91 18v-3a6 6 0 0 0-6-6H11a6 6 0 0 0-6 6v3"/>
  <rect width="80" height="72" x="8" y="12" fill="light-dark(#fff, #1a1a1a)" rx="3"/>
  <rect width="80" height="72" x="8" y="12" stroke="light-dark(rgb(162 143 140), rgb(56 120 103))" stroke-width="2" rx="3"/>
  <rect width="90" height="82" x="3" y="7" stroke="light-dark(rgb(162 143 140), rgb(56 120 103))" stroke-width="2" rx="8"/>
  <path stroke="light-dark(rgb(117 99 98), oklch(45.9% 0.09 174.2))" stroke-linecap="round" stroke-linejoin="round" stroke-miterlimit="10" stroke-width="2" d="m18 66 4 4-4 4m9 0h8"/>
  <rect width="16" height="2" x="26" y="24" fill="light-dark(rgb(232 220 217), rgb(118 176 159))" rx="1"/>
  <rect width="4" height="2" x="18" y="24" fill="light-dark(rgb(203 186 183), rgb(74 139 121))" rx="1"/>
  <rect width="8" height="2" x="18" y="30" fill="light-dark(rgb(162 143 140), rgb(56 120 103))" rx="1"/>
  <rect width="16" height="2" x="30" y="30" fill="light-dark(rgb(203 186 183), rgb(74 139 121))" rx="1"/>
  <rect width="2" height="2" x="46" y="24" fill="light-dark(rgb(232 220 217), rgb(118 176 159))" rx="1"/>
  <rect width="4" height="2" x="18" y="36" fill="light-dark(rgb(232 220 217), rgb(118 176 159))" rx="1"/>
  <rect width="2" height="2" x="50" y="30" fill="light-dark(rgb(162 143 140), rgb(56 120 103))" rx="1"/>
</svg>
