<svg xmlns="http://www.w3.org/2000/svg" width="24.00009" height="24.00029" viewBox="0 0 24.00009 24.00029">
  <title>mask-icon</title>
  <path d="M23.19928,5.81279l-4.28369-.87207L17.74127,2.00419a.99978.99978,0,0,0-.72754-.6084.98923.98923,0,0,0-.7168.12256L15.58209.4456a.99938.99938,0,0,0-1.2832-.33789l-.99023.5a7.625,7.625,0,0,0-5.75537.60547,7.68391,7.68391,0,0,0-3.5,7.45361c-.00049.03125-.01367.05957-.01123.09131.2793,3.584-2.1748,6.09375-3.66211,7.27051A.99974.99974,0,1,0,1.62018,17.597a11.92739,11.92739,0,0,0,4.00049-5.48535,5.18434,5.18434,0,0,0,3.644,1.57617c3.00879,0,5.11035-3.521,5.11035-8.5625a1,1,0,1,0-2,0c0,3.74121-1.33691,6.5625-3.11035,6.5625A3.324,3.324,0,0,1,6.108,9.02421,5.7438,5.7438,0,0,1,8.55621,2.94316a5.66607,5.66607,0,0,1,4.45361-.33008,1.001,1.001,0,0,0,.83057-.03271l.56934-.28809.8833,1.3252a1.00068,1.00068,0,0,0,1.10254.4082l.86328,2.1582a1.00061,1.00061,0,0,0,.72949.60889l3.95605.80566a5.2978,5.2978,0,0,1-1.459,3.29053,8.48537,8.48537,0,0,1-5.55859,2.2373,1.0001,1.0001,0,0,0-.77734.416,14.06134,14.06134,0,0,0-1.75684,9.645,1.00072,1.00072,0,0,0,.98145.813,1.03253,1.03253,0,0,0,.188-.01758,1.00013,1.00013,0,0,0,.79541-1.16943A12.38829,12.38829,0,0,1,15.52741,15.095a10.57483,10.57483,0,0,0,6.33594-2.75781,7.73355,7.73355,0,0,0,2.13623-5.5127A.9999.9999,0,0,0,23.19928,5.81279Z"/>
</svg>
