<svg xmlns="http://www.w3.org/2000/svg" width="48" height="48" viewBox="0 0 48 48" class="fill-currentcolor">
  <title>iamsteve logo</title>
  <g>
    <path class="a" d="M656.31,550a1,1,0,0,1-.94-0.66c-2.12-5.89-1.93-15,2.53-21.06a1,1,0,0,1,.77-0.41c3.9-.13,8-0.72,11.87-4.08,2.52-2.52,3.19-5.88,3.4-8.47l-9.67-1.76a1,1,0,0,1-.78-0.71L662,507.78l-0.71.71a1,1,0,0,1-1.6-.26l-1.3-2.59-0.94.94a1,1,0,0,1-.81.29,1,1,0,0,1-.73-0.44l-1.24-1.86-0.1.1a1,1,0,0,1-1,.24,11.29,11.29,0,0,0-8.71,1.18c-4.47,2.57-6.46,7.43-5.32,13,0.87,4.54,4.08,7.83,7.65,7.83,2.76,0,4.53-1.85,5.75-6,0.78-2.64.92-5.85,0.92-11.22a1,1,0,0,1,2,0c0,5.56-.15,8.91-1,11.78-0.54,1.84-2.18,7.43-7.67,7.43-4.59,0-8.54-3.88-9.61-9.44-1.32-6.45,1-12.11,6.27-15.13a13.29,13.29,0,0,1,9.75-1.51l0.54-.54a1,1,0,0,1,1.54.15l1.24,1.86,1.05-1.05a1,1,0,0,1,.87-0.28,1,1,0,0,1,.73.54l1.3,2.59,0.94-.94a1,1,0,0,1,1.67.43l1.75,6.11,9.93,1.81a1,1,0,0,1,.82,1c-0.15,3-.73,7.35-4.08,10.7-4.18,3.68-8.55,4.42-12.68,4.61-3.73,5.43-3.83,13.67-2,18.81A1,1,0,0,1,656.31,550Z" transform="translate(-628 -502)"/>
    <path class="a" d="M629,534.67a1,1,0,0,1-.46-1.89c4.13-2.13,9.53-6,8.82-14.76a1,1,0,0,1,2-.16c0.9,11.14-7.23,15.32-9.9,16.7A1,1,0,0,1,629,534.67Z" transform="translate(-628 -502)"/>
  </g>
</svg>