<svg xmlns="http://www.w3.org/2000/svg" xmlns:xlink="http://www.w3.org/1999/xlink" width="278" height="288" viewBox="0 0 278 288">
  <defs>
    <style>
      .oa, .oaa, .oae, .oaj, .oaq, .oax, .obk, .obr, .od, .oe, .oo, .oq, .or, .oy, .oz {
        fill: none;
      }

      .ob {
        isolation: isolate;
      }

      .oc {
        fill: #30bf96;
      }

      .oab, .oae, .oaj, .od, .oe {
        stroke: #367a43;
      }

      .oaa, .oaj, .oaq, .oax, .obr, .occ, .ocd, .oce, .ocf, .od, .oe, .oo, .oq, .or, .oy, .oz {
        stroke-linecap: round;
      }

      .oaa, .oaj, .oaq, .oax, .obr, .occ, .ocd, .oce, .ocf, .od, .oe, .oo, .oq {
        stroke-linejoin: round;
      }

      .oaa, .oab, .oae, .oaq, .oax, .occ, .ocd, .oce, .ocf, .od, .oe, .oo, .or {
        stroke-width: 2px;
      }

      .od {
        stroke-dasharray: 12 6 4 8 8 12;
      }

      .of {
        clip-path: url(#oa);
      }

      .og {
        clip-path: url(#ob);
      }

      .oh {
        fill: #f9f2ed;
      }

      .oi {
        fill: #f2eae3;
      }

      .oj {
        opacity: 0.5;
      }

      .oao, .ok {
        fill: #d1c8c3;
      }

      .ol {
        fill: #dbd2cc;
      }

      .om {
        fill: #ede3dc;
      }

      .on {
        fill: #846664;
      }

      .obj, .obo, .on, .oo, .os {
        opacity: 0.1;
      }

      .oo {
        stroke: #846664;
      }

      .op {
        fill: #877870;
      }

      .oq {
        stroke: #f2eae3;
        stroke-width: 12px;
      }

      .or {
        stroke: #877870;
      }

      .oab, .oae, .oag, .obk, .obn, .obq, .or, .oy, .oz {
        stroke-miterlimit: 10;
      }

      .obu, .obv, .obw, .obx, .occ, .ot {
        fill: #563934;
      }

      .ou {
        fill: #9e3e3e;
      }

      .ov {
        fill: #e29898;
      }

      .ow {
        fill: #c46565;
      }

      .ox {
        fill: #ede4e4;
      }

      .oy {
        stroke: #fff;
      }

      .oz {
        stroke: #c46565;
      }

      .oaa {
        stroke: #2f3f32;
      }

      .oab {
        fill: #529962;
      }

      .oac {
        clip-path: url(#oc);
      }

      .oad {
        fill: #ccd3cb;
      }

      .oae {
        stroke-linecap: square;
        stroke-opacity: 0.2;
      }

      .oaf, .oag, .oai, .oak {
        fill: #367a43;
      }

      .ag {
        stroke: #286331;
      }

      .oah {
        clip-path: url(#od);
      }

      .oai, .oal, .oao, .obh, .obx, .ocb {
        opacity: 0.2;
      }

      .oak, .obw {
        opacity: 0.4;
      }

      .oal {
        mix-blend-mode: multiply;
      }

      .oam {
        fill: #b29c8b;
      }

      .oan {
        clip-path: url(#oe);
      }

      .oap {
        fill: url(#f);
      }

      .oaq {
        stroke: #d1c8c3;
      }

      .oar {
        clip-path: url(#og);
      }

      .oas, .ocd {
        fill: #492e2a;
      }

      .oat, .ocf {
        fill: #60413e;
      }

      .oau {
        fill: #876c6b;
      }

      .oav {
        clip-path: url(#oh);
      }

      .oaw, .oce {
        fill: #3d2623;
      }

      .oax, .occ, .ocd, .oce, .ocf {
        stroke: #2d1614;
      }

      .oay {
        fill: #704b49;
      }

      .oaz {
        fill: #d6cac4;
      }

      .oba {
        fill: #422926;
      }

      .obb {
        fill: #604545;
      }

      .obc {
        clip-path: url(#oi);
      }

      .obd, .obh, .obj {
        fill: #fff;
      }

      .obe {
        clip-path: url(#oj);
      }

      .obf {
        fill: #56351e;
      }

      .obg {
        fill: #161313;
      }

      .obi {
        fill: #0f0d0c;
      }

      .obi, .obs {
        opacity: 0.3;
      }

      .obk {
        stroke: #161313;
      }

      .obl {
        clip-path: url(#ok);
      }

      .obm {
        fill: #231f1d;
      }

      .obn {
        fill: #302c2b;
        stroke: #3a3635;
      }

      .obo, .obp {
        fill: #595656;
      }

      .obq {
        fill: #141110;
        stroke: #3f3a38;
      }

      .obr {
        stroke: #141110;
      }

      .obt {
        fill: #726f6e;
      }

      .obu {
        opacity: 0.8;
      }

      .obv {
        opacity: 0.6;
      }

      .oby {
        clip-path: url(#ol);
      }

      .obz {
        clip-path: url(#om);
      }

      .oca {
        fill: #2d1614;
      }

      .ocg {
        fill: #84605f;
      }
    </style>
    <clipPath id="oa">
      <path class="oa" d="M266.00715,279.47589a949.5607,949.5607,0,0,1-246,0v-268h246Z"/>
    </clipPath>
    <clipPath id="ob">
      <path class="oa" d="M248.00764,73.99634c-3.88,3.99966-9.25,6.49945-13,3.99966-2.24-1.49987-5.87-2.64974-8-.99992-7.77,6.01951,3,19.99831,3,35.997,0,7.61935-12,17.49852-12,25.9978,0,13.32889,5.75,34.36709,5.75,48.99586,0,.27,0,.54994-.01.81994,2.02,4.12966,2.97,9.87917,2.83,15.26873a22.4463,22.4463,0,0,0,9.55,6.10947,15.59361,15.59361,0,0,1-9.85,7.41936,26.8812,26.8812,0,0,1-3.65,6.15951c5.36,8.2493,9.51,20.16828,9.44,37.27682-.1,25.43785-6.92,43.38635-14.01,46.3861-.57,19.54834-17.72,35.437-28.07,35.437,0,13.10888-17.12,17.76852-20.98,18.85839,0,5.34958-12.43,12.279-24.85,12.36895-12.43.09-24.86-6.66942-24.86-12.67892-8.29,0-21.54-8.68927-21.54-18.43844-14.99,0-29.2-16.20859-30.25-36.56692-9.59-2.61977-15.66-25.28784-15.66-45.27614,0-19.86832,6.04-32.75724,13.06-41.02656-.52-.81994-1-1.67985-1.45-2.55978a15.71861,15.71861,0,0,1-10.5-7.55936,22.27361,22.27361,0,0,0,9.59-6.14944,35.18962,35.18962,0,0,1,2.62-14.84878c-2.44-16.49861-5.16-34.13713-5.16-39.93663,0-4.99958,6-16.25864,6-22.02811,0-8.74926-7.58-22.39813-9.75-30.27747-.87-3.1497-9.99-6.47943-11.67-13.29886-1.3-5.27958-3.53-16.87858-3.53-16.87858-6.15,1.80984-13.07,3.25973-16.01,1.81985-1.87-.91991-3.01-3.40969-1.29-8.73925,1.42-4.39965,5.63-29.8975,5.63-29.8975,1.25-6.49945,7.89-10.51907,14.31-9.21919,0,0,17.68,2.61977,27.12,2.61977,13.73,0,24.52-2.00984,29.13,1.15988,4.15,2.85974,6.27,13.08892,11.06,14.68876,7,2.32982,58,1.3299,68-1.99983,7.47-2.48978,10.5-19.99831,20-19.99831,10.06,0,26.25,16.99856,36,16.99856,5.77,0,19.72-1.74985,23,2.99975C263.76765,45.32878,255.05763,66.717,248.00764,73.99634Z"/>
    </clipPath>
    <clipPath id="oc">
      <path class="oa" d="M174.7198,217.55437a120.89428,120.89428,0,0,1-29.71265,3.37362V241.4785a111.21711,111.21711,0,0,0,30.0097-3.49861Zm-26.71265,21.6369V222.57378a97.84135,97.84135,0,0,0,23.97757-2.72792l.26445,16.51637A90.16425,90.16425,0,0,1,148.00715,239.19128Z"/>
    </clipPath>
    <clipPath id="od">
      <path class="oa" d="M175.70322,227.01445a48.50892,48.50892,0,0,1-13.97.91679l.19647,2.99328a50.44359,50.44359,0,0,0,13.97-.91673Z"/>
    </clipPath>
    <clipPath id="oe">
      <path class="oa" d="M193.14688,140.203c-1.46276-.02214-2.536.07045-2.536.07045-8.42829.7905-13.44891,20.20948-15.46714,30.97248-3,15.99865-13.90087,22.99806-31,22.99806-19.78637,0-28-6.99941-31-22.99806-1.971-10.511-6.80541-29.27746-14.8808-30.8865L70.32127,197.9488c.05426.1818-5.38122,5.40329-10.5707,10.47626,3.75815,11.88575,10.48663,22.66738,22.55984,22.66738,0-5.03394,1.66492-11.27969,7.31909-11.27969,0,0,.05029,4.10805,3.68726,4.10805,0-3.23123,3.30786-4.07607,3.30786-4.07607s1.56152,3.08153,4.57719,3.08153c0-2.325,3.50588-2.17322,3.50588-2.17322s2.372,8.40847,8.84985,8.40847c0-6.52579,6.73411-5.81675,6.73411-5.81675s1.86065,6.03951,4.85207,6.03951c0-3.666,4.875-3.74968,4.875-3.74968a8.67722,8.67722,0,0,0,8,5.24956c0-2.63241,2.754-4.45922,4.42413-4.45922,0,3.2621,4.48561,4.07761,4.48561,4.07761s1.51065,3.59526,7.63006,3.59526c0-6.5311,8.22394-8.3212,8.22394-8.3212a11.30957,11.30957,0,0,0,9.864,5.65077c0-3.143,3.28642-4.97547,7.2662-4.97547,0-3.61768,5.9001-4.23361,5.9001-4.23361s2.75279,5.82411,8.656,5.82411c0,0-.12894-8.31753,6.66772-8.31753,7.0072,3.70157,5.40259,10.38444,5.40259,11.43812,16.31882,0,21.06564-14.64091,22.4461-23.03369.55464-3.372-5.5851-4.534-5.5851-4.534l-30.25639-63.32848Z"/>
    </clipPath>
    <linearGradient id="f" x1="144.00715" y1="198.98319" x2="144.00715" y2="139.98817" gradientUnits="userSpaceOnUse">
      <stop offset="0" stop-color="#846664" stop-opacity="0.02"/>
      <stop offset="1" stop-color="#846664" stop-opacity="0.1"/>
    </linearGradient>
    <clipPath id="og">
      <path class="oa" d="M57.00715,199.9831c20.55722,0,28.46-11.49254,36.7604-25.22885,1.43316-2.37172.87817-5.81025,2.40222-8.26815,1.362-2.19654,4.78711-3.40857,6.3233-5.60193a72.66531,72.66531,0,0,1,13.51408-14.89651c25.66667-20.99823,31.33333-60.99485,9-133.98868l-85-.99992L1.17576,41.51251Z"/>
    </clipPath>
    <clipPath id="oh">
      <path class="oa" d="M166.00715,37.99679c-3.5,9.99916,1,15.99865,18,35.997,0,0,24.0738,31.33871,8.58058,49.42806a8.01285,8.01285,0,0,0-1.9065,6.54412s4.61625,27.983,7.32591,37.02c2.668,8.89792,8.65546,27.74111,14.728,28.76485,8.08916,1.36372,17.67862,12.11045,23.39663,14.43735L269.00715,25.9978,195.00715,0Z"/>
    </clipPath>
    <clipPath id="oi">
      <ellipse class="oa" cx="110.7841" cy="102.96617" rx="14" ry="11.99899"/>
    </clipPath>
    <clipPath id="oj">
      <path class="oa" d="M129.1591,102.96617c0,8.05157-6.268,13.53732-14,13.53732s-14-5.48575-14-13.53732,6.268-13.53732,14-13.53732S129.1591,94.91461,129.1591,102.96617Z"/>
    </clipPath>
    <clipPath id="ok">
      <path class="oa" d="M144.00715,142.96279c-12.98706,0-17,5.26233-17,10.0859s2.6369,17.91173,16.56818,17.91173h.86364c14.15747,0,16.56818-13.08816,16.56818-17.91173S156.99422,142.96279,144.00715,142.96279Z"/>
    </clipPath>
    <clipPath id="ol">
      <ellipse class="oa" cx="172.89648" cy="102.96617" rx="14" ry="11.99899"/>
    </clipPath>
    <clipPath id="om">
      <path class="oa" d="M154.52148,102.96617c0,8.05157,6.268,13.53732,14,13.53732s14-5.48575,14-13.53732-6.268-13.53732-14-13.53732S154.52148,94.91461,154.52148,102.96617Z"/>
    </clipPath>
  </defs>
  <title>osc</title>
  <g class="ob">
    <g>
      <g>
        <path class="oc" d="M242.07014,275.47589a136,136,0,1,0-202.126,0Z"/>
        <path class="od" d="M242.07014,263.47589a136,136,0,1,0-202.126,0"/>
        <line class="oe" x1="30.50715" y1="274.47589" x2="43.50715" y2="274.47589"/>
        <line class="oe" x1="18.00715" y1="274.47589" x2="24.00715" y2="274.47589"/>
        <line class="oe" x1="253.50715" y1="274.47589" x2="240.50715" y2="274.47589"/>
        <line class="oe" x1="266.00715" y1="274.47589" x2="260.00715" y2="274.47589"/>
      </g>
      <g class="of">
        <g>
          <g class="og">
            <path class="oh" d="M111.00715,38.99671c7,2.33314,58,1.33322,68-1.99983,7.47464-2.49134,39,93.4921,39,101.99138,0,13.32662,5.75,34.3721,5.75,48.99586,0,15.62368-8.25,31.62233-8.25,41.99645,0,13.87543-146.5,17.87349-146.5-9.87417,0-10.74909-9-60.50691-9-71.05648,0-4.99958,6-16.25819,6-22.0294C66.00715,118.27126,106.21924,37.40087,111.00715,38.99671Z"/>
            <path class="oh" d="M232.06764,261.04443c.18945-47.8125-32.467-55.06177-32.467-55.06177H86.35475s-34.51111,7.666-34.51111,55.144c0,19.99561,6.06995,42.65894,15.67139,45.28149,1.04822,20.35474,15.24548,36.56274,30.24207,36.56274,0,9.74927,13.25,18.44531,21.54248,18.44531,0,6.00781,12.42688,12.76147,24.85376,12.67432s24.85376-7.01489,24.85376-12.37109c3.86157-1.08887,20.98462-5.74951,20.98462-18.85889,10.34021,0,27.47571-15.84937,28.04431-35.427C225.12721,304.45166,231.96669,286.501,232.06764,261.04443Z"/>
            <path class="oi" d="M64.4839,216c.09082.89746-.41309,5.47363-.19531,5.501a4.06082,4.06082,0,0,0,1.68164,2.10645,3.8901,3.8901,0,0,0-.3125,1.94434,3.49442,3.49442,0,0,0,.667,1.73535,3.65813,3.65813,0,0,0-1.44141,3.6875A4.83471,4.83471,0,0,0,66.99758,233.75l.08008.05859c.17188.44434.3623.85742.53613,1.23535.10156.2207.2041.43945.29395.65332a6.923,6.923,0,0,0,1.2793,1.90527,4.01173,4.01173,0,0,1,.2959.34766,3.69966,3.69966,0,0,0,1.64746,1.53906,3.73718,3.73718,0,0,0,.81445,3.752,4.39815,4.39815,0,0,0,3.66406,1.0791c.02344-.001.0459-.00293.06836-.00488a3.00066,3.00066,0,0,0,3.84375-1.93262,6.0651,6.0651,0,0,0,.2334-2.06055l-.002-.05176c.02539-.05859.04883-.11621.07129-.1748a3.77979,3.77979,0,0,0,3.32227-.44336,3.45792,3.45792,0,0,0,.80664-.80273,3.20106,3.20106,0,0,0,1.27246.27148,3.23081,3.23081,0,0,0,.60254,1.61719,3.73135,3.73135,0,0,0,2.54,1.52051,3.72888,3.72888,0,0,0,.85645,2.3916,4.07209,4.07209,0,0,0,3.97363,1.1748,4.60614,4.60614,0,0,0,.92285,1.28906c.48047.46875.94727.86035,1.39746,1.23828.17285.14453.34668.29.51563.43652a4.6698,4.6698,0,0,0,2.62109,1.05176,5.16578,5.16578,0,0,0,1.6084,1.79395,4.66236,4.66236,0,0,0,1.293.582c.00879,1.41309.2041,3.35742,2.08594,4.22949a5.95782,5.95782,0,0,0,2.582.458h.03418c.11133,0,.22363-.00488.33008.00488a5.40015,5.40015,0,0,0,2.7793.04395c.07715-.01465.1543-.03125.22949-.04395a4.52528,4.52528,0,0,0,3.21289-.78711c.02246.00781.04492.01563.06641.02246a5.03565,5.03565,0,0,0,.499,1.80762,4.885,4.885,0,0,0,1.76367,1.874c.06055.042.124.082.18457.127.40918.63281.82031,1.1543,1.292,1.751l.06738.08691a5.25945,5.25945,0,0,0,1.22852,1.11426,4.42831,4.42831,0,0,0,.79395,2.90137c.00879.043.01758.08594.02734.12891a4.67353,4.67353,0,0,0,1.959,3.29,5.08637,5.08637,0,0,0,2.98242.61328c.08691-.00293.17383-.00781.25879-.00879a6.39353,6.39353,0,0,0,2.05566.334c.12109.00488.24219.00391.30078.001.19043.09863.542.30566.78613.44922a9.55669,9.55669,0,0,0,2.78613,1.28027,3.0013,3.0013,0,0,0,3.56934-2.58105,8.99437,8.99437,0,0,0-.19336-2.54687c-.02539-.14844-.05566-.33105-.082-.50293a5.10057,5.10057,0,0,0,1.19043-1.83594,3.82377,3.82377,0,0,0-.46289-3.30469,3.92139,3.92139,0,0,0,3.57813-1.08984,6.67144,6.67144,0,0,0,1.02246-1.58105c.02734-.05566.05371-.1123.082-.167a8.17171,8.17171,0,0,0,1.002-1.13965c.043-.05664.084-.11328.126-.168.082-.02051.16406-.03516.24414-.05273a6.82989,6.82989,0,0,0,1.59473-.51953,4.66,4.66,0,0,0,.875-.56152,4.37366,4.37366,0,0,0,1.18066.96289,4.01073,4.01073,0,0,0,.24023,3.01855,12.45863,12.45863,0,0,0,1.11523,1.68359c.16309.21777.32813.43652.47754.66016a21.52391,21.52391,0,0,0,1.53906,2.00293c.0166.07031.03125.14355.04785.21582a5.27824,5.27824,0,0,0,1.50879,2.93848c.15332.13574.31348.28809.47852.44434a13.31094,13.31094,0,0,0,1.9375,1.6084,4.4861,4.4861,0,0,0,3.84473.2793c.042.03711.08105.07227.11719.10449a7.16225,7.16225,0,0,0,3.01758,1.89355,3.00146,3.00146,0,0,0,3.67969-2.72852,7.097,7.097,0,0,0-.72168-3.07422c-.03223-.082-.07031-.17676-.10742-.27246a5.24441,5.24441,0,0,0,.93945-2.07617,8.3249,8.3249,0,0,0,.0918-1.8418c-.00488-.16113-.02051-.31934-.02344-.377a4.91418,4.91418,0,0,0-.04395-2.43945,6.38167,6.38167,0,0,0,.65918-.63574,7.30177,7.30177,0,0,0,1.48047-.38184A5.79108,5.79108,0,0,0,164.939,259.582a3.83638,3.83638,0,0,0,4.09277.84668,3.91263,3.91263,0,0,0,1.15625,1.30273c.03809.05566.0752.11426.11328.17188a5.045,5.045,0,0,0,2.57227,2.23926c.17871.06055.376.14453.584.22949a10.17449,10.17449,0,0,0,2.33594.73047,3.892,3.892,0,0,0,3.85547-2.13086,3.95461,3.95461,0,0,0,3.06152-.36426,3.47414,3.47414,0,0,0,1.38672-1.55078,3.41185,3.41185,0,0,0,2.94727-.06055A4.96851,4.96851,0,0,0,189.231,258.46c.00586-.0127.01172-.02441.0166-.03711a4.49443,4.49443,0,0,0,1.36426-1.87793,4.3317,4.3317,0,0,0,1.78027-.11035,5.29939,5.29939,0,0,1,.63477-.02734,8.67905,8.67905,0,0,0,1.63379-.13086,4.35285,4.35285,0,0,0,1.53711-.6377,3.81717,3.81717,0,0,0,2.91016,1.26563,7.7696,7.7696,0,0,0,1.7207-.2793,4.62941,4.62941,0,0,0,2.85254,1.24023,4.74216,4.74216,0,0,0,3.13477-1.24316c.02637-.02148.05371-.043.08105-.06445a4.15894,4.15894,0,0,0,1.8916-.83984,3.0008,3.0008,0,0,0,2.24316-2.90332,3.99205,3.99205,0,0,0-.13867-1.04883,3.94224,3.94224,0,0,0,1.68945-2.58008,9.1149,9.1149,0,0,0,.07617-1.63965c0-.01074,0-.02051-.001-.03125a4.65066,4.65066,0,0,0,1.73145-2.335,4.78736,4.78736,0,0,0-.46582-3.44922l-.01074-.02246a5.34018,5.34018,0,0,0-.44727-2.45312c.03418-.05469.06836-.10937.10156-.16309.02246-.03516.04492-.07129.06738-.10742,1.10352-.12109,2.90234-.33984,3.82813-2.00293a3.57081,3.57081,0,0,0,.37109-2.458,3.4474,3.4474,0,0,0,1.93262-1.36621,12.16772,12.16772,0,0,0,.833-1.44434l.00391-.00684a3.603,3.603,0,0,0,.75293.77344,4.30474,4.30474,0,0,0,3.07129.752c.13281.10938.26172.20215.37891.28223a2.99925,2.99925,0,0,0,4.9707.60938,3.53988,3.53988,0,0,0,.85742-1.86523,5.98619,5.98619,0,0,0,1.31152-1.85547c.25488-.60254.44727-1.18164.61816-1.69238.07324-.2207.14355-.43262.21582-.63281a9.13712,9.13712,0,0,0,.37012-1.29492,6.58622,6.58622,0,0,0,1.64258-3.68066L142.4839,198Z"/>
            <g class="oj">
              <path class="ok" d="M58.47407,203.51861s.16113.59485.44324,1.6358c.13611.52216.31226,1.15247.53894,1.86652.22412.71515.45093,1.52985.76648,2.39752.30115.87213.61841,1.82013,1.02112,2.79749.3689.99091.81775,2.01013,1.29749,3.0575.46741,1.05237,1.035,2.1004,1.60559,3.16357a35.89815,35.89815,0,0,0,1.95337,3.09131l.51477.76093.56995.7168c.39063.46722.738.9707,1.15857,1.40173q.62549.65167,1.2395,1.29132c.42139.41241.88623.76691,1.317,1.1449a9.621,9.621,0,0,0,1.35229,1.00653,14.46158,14.46158,0,0,0,1.36255.86682,16.55027,16.55027,0,0,0,2.6969,1.20978q.65057.22412,1.24475.42877.61469.12552,1.16406.23761c.36548.07477.70764.14478,1.024.20947.319.04614.61731.04919.884.073,1.07019.0741,1.68164.11646,1.68164.11646a.1.1,0,0,1,.00989.19836l-.00989.00165s-.61255.10358-1.72974.22632c-.27869.02295-.59167.07141-.93066.08057-.33765-.00482-.70215-.03485-1.09656-.05652-.39746-.02545-.82043-.05249-1.26636-.08105-.4386-.07294-.8916-.1944-1.37427-.29993a14.381,14.381,0,0,1-3.03162-1.02411,15.93433,15.93433,0,0,1-1.55139-.81982,8.99932,8.99932,0,0,1-1.532-1.00671c-.48657-.38318-1.012-.749-1.48938-1.17084-.46594-.4317-.93433-.876-1.38782-1.3421-.46252-.45837-.84351-.98181-1.27185-1.47571l-.62451-.75586-.56323-.79486a36.65432,36.65432,0,0,1-1.99536-3.30115,18.50872,18.50872,0,0,1-.81384-1.68872c-.25513-.5625-.5083-1.11646-.71179-1.677-.20984-.55853-.43884-1.09729-.62024-1.64154-.18262-.543-.33032-1.08282-.49-1.60205a28.58873,28.58873,0,0,1-.75244-2.96082c-.22742-.91272-.33911-1.78339-.45667-2.54083-.13245-.75732-.18811-1.41986-.23193-1.96484-.08838-1.09241-.10791-1.72485-.10791-1.72485l-.00073-.02252a.09872.09872,0,0,1,.194-.02887Z"/>
            </g>
            <g class="oj">
              <path class="ok" d="M206.53511,231.06311s.6427-.02869,1.76758-.07886c.56323-.02026,1.23047-.1441,2.00415-.23157.38708-.04114.78809-.15985,1.21655-.24353a10.85639,10.85639,0,0,0,1.33276-.33783c.4541-.15283.94141-.27179,1.41907-.468.47437-.2038.975-.39209,1.4707-.62585.48169-.262.99182-.50446,1.48511-.80017.47632-.32306.99414-.60785,1.4635-.97906a18.85215,18.85215,0,0,0,2.73828-2.45935,22.82878,22.82878,0,0,0,2.34106-2.99664,35.73087,35.73087,0,0,0,4.96692-13.08,40.46443,40.46443,0,0,0,.71033-6.36884.09887.09887,0,0,1,.19556-.02008l.00439.021a17.492,17.492,0,0,1,.24731,1.79913,29.03952,29.03952,0,0,1,.02637,4.78088,27.708,27.708,0,0,1-.38721,3.19031,28.19237,28.19237,0,0,1-.80994,3.52173,27.04349,27.04349,0,0,1-1.34265,3.66638,29.70861,29.70861,0,0,1-1.94324,3.59076,24.37531,24.37531,0,0,1-2.6051,3.20978l-.71875.73022-.78333.65155a18.96974,18.96974,0,0,1-1.60315,1.18591,17.65078,17.65078,0,0,1-1.6571.9809c-.56213.281-1.13708.50482-1.6792.74512-.55652.209-1.10852.38141-1.63831.54572-.53345.15472-1.06836.22974-1.566.33887a17.018,17.018,0,0,1-2.75366.2804,19.0152,19.0152,0,0,1-2.1123-.0813c-1.13293-.15-1.78162-.2677-1.78162-.2677l-.02136-.00391a.0988.0988,0,0,1,.01331-.19592Z"/>
            </g>
            <path class="ol" d="M207.9488,227.96722s-.48633.15948-1.39819.45844c-.91443.3158-2.19568.79816-3.894,1.47363-.84912.32074-1.77087.71375-2.77039,1.14886-1.00574.41254-2.0946.85461-3.23206,1.38556-2.311.98425-4.87683,2.201-7.719,3.46375-1.40149.6778-2.88586,1.3457-4.4137,2.059a8.83442,8.83442,0,0,0-2.29822,1.21161,15.97617,15.97617,0,0,0-1.97021,2.50665,4.8261,4.8261,0,0,1-2.33313,1.81409c-.8739.3504-1.78589.65314-2.69482.98755-1.81384.67841-3.71948,1.26947-5.65015,1.8988a73.81184,73.81184,0,0,1-12.37476,2.468,82.95411,82.95411,0,0,1-13.197.13361l-.05176-.00244c-.36157-.00885-.12744-.00659-.22046-.0105l-.09473-.01447c-.06323-.00781-.1261-.02783-.18921-.04114-.12573-.03784-.2511-.08759-.37671-.13263a3.40369,3.40369,0,0,1-.74695-.47583c-.49573-.38855-.98657-.93115-1.47925-1.40332a4.24543,4.24543,0,0,0-1.54187-1.01093,9.376,9.376,0,0,0-1.62488-.24451c-1.08972-.11212-2.16272-.2403-3.1908-.41577-1.0387-.16907-2.08093-.30389-3.10352-.50122-2.04687-.38922-4.0697-.78845-6.0387-1.278-1.98474-.43121-3.91064-.95-5.81091-1.4389-3.7793-1.04163-7.36792-2.20233-10.7561-3.3056-3.37939-1.13147-6.52686-2.30261-9.43555-3.35632-2.8866-1.09857-5.53259-2.10553-7.87793-2.99811-2.3335-.9054-4.36792-1.6947-6.04333-2.34473-3.35791-1.27185-5.27673-1.9986-5.27673-1.9986l3.72681-8.19177s1.83594.82166,5.04883,2.25952c1.60718.714,3.56287,1.56122,5.81128,2.50861,2.24927.9433,4.79224,1.98395,7.57959,3.05981,2.78723,1.07568,5.82043,2.17938,9.048,3.24841,3.22791,1.06647,6.65283,2.08148,10.21594,2.98944,3.5675.86865,7.26965,1.66388,11.04968,2.2002a92.06189,92.06189,0,0,0,11.46472.8963,91.85467,91.85467,0,0,0,11.47107-.73315,110.25738,110.25738,0,0,0,11.04761-2.07733c3.55847-.88556,6.97864-1.87384,10.19458-2.94177,1.61047-.52136,3.16309-1.093,4.671-1.618,1.49646-.57251,2.95032-1.09515,4.33215-1.6507,2.76831-1.09406,5.28931-2.15979,7.51611-3.13135,2.22974-.97888,4.1554-1.85358,5.72632-2.59137,1.568-.71411,2.85034-1.35217,3.70178-1.75226.8584-.41077,1.31628-.62982,1.31628-.62982Z"/>
            <path class="om" d="M150.00715,37.99679c4.59192,14.96706,17.09491,27.47632,36,37.99679l-8-44.9962Z"/>
            <path class="oi" d="M112.00715,144.98775l10,37.99679a11.88439,11.88439,0,0,1-7-5.99949l-6.68158-23.99828C108.06776,149.99489,109.45707,147.36407,112.00715,144.98775Z"/>
            <path class="oi" d="M173.00715,177.985l-5,3.99966s3.5151-27.36583,13.3558-44.713c2.714-4.78416,8.26119-10.58448,11.22478-13.8498,2.55008-3.23936.41942,16.56637.41942,16.56637C179.49534,137.66476,176.12423,171.14478,173.00715,177.985Z"/>
            <path class="oi" d="M175.00715,170.98555c-1.86983,9.97157-8.88692,14.01943-16.75354,14.262a29.17962,29.17962,0,0,1-9.24985-1.30051,33.36112,33.36112,0,0,1-4.15772-1.56645,2.01578,2.01578,0,0,0-1.67784,0,33.35074,33.35074,0,0,1-4.28354,1.60422,29.1588,29.1588,0,0,1-9.05865,1.26469c-7.89307-.22215-14.94385-4.26477-16.81885-14.26393l1,13.99882s8.17478,11.3577,11,11.736a57.67148,57.67148,0,0,0,11,0c2.04611-.25187,5.94009-1.91757,8-1.99983,3.039-.12135,8.96073,1.88659,12,1.99983,2.75943.10281,8.49936.17122,11-.99992,2.88157-1.34954,7.99377-14.71707,9-17.73551C176.56617,176.30805,175.00715,170.98555,175.00715,170.98555Z"/>
            <path class="on" d="M156.53347,148.98741H131.48083a4.75861,4.75861,0,0,0-4.47368,4.99957v15.99867c0,15.707,7.61115,18.99838,17,18.99838h0c9.38883,0,17-3.37471,17-18.99838V153.987A4.75861,4.75861,0,0,0,156.53347,148.98741Z"/>
            <line class="oo" x1="144.00715" y1="181.8153" x2="144.00715" y2="171.75265"/>
            <path class="op" d="M138.88465,183.98479a19.27445,19.27445,0,0,0,9.97229-.00034l-4.84979-1.49987Z"/>
            <path class="oq" d="M226.27766,217.6042a26.8812,26.8812,0,0,1-3.65,6.15951c5.36,8.2493,9.51,20.16828,9.44,37.27682-.1,25.43785-6.92,43.38635-14.01,46.3861-.57,19.54834-17.72,35.437-28.07,35.437,0,13.10888-17.12,17.76852-20.98,18.85839,0,5.34958-12.43,12.279-24.85,12.36895-12.43.09-24.86-6.66942-24.86-12.67892"/>
            <path class="ok" d="M139.16145,184.94574s-.47864.1759-1.40027.44128a30.44381,30.44381,0,0,1-3.82324.80188c-.80432.10535-1.68225.1875-2.616.2204-.46667.01605-.94751.01276-1.439.00208q-.72272-.042-1.47473-.08582c-.50488-.04449-1.04712-.13348-1.57874-.20251q-.78-.15912-1.57678-.32172c-.52087-.15369-1.052-.28552-1.57153-.46417-.5116-.20667-1.03784-.375-1.53662-.61731a15.488,15.488,0,0,1-2.85388-1.65729,10.97641,10.97641,0,0,1-1.25232-1.02484l-.58521-.53632-.52148-.58319a9.8302,9.8302,0,0,1-.94165-1.18744,8.39636,8.39636,0,0,1-.7832-1.21088,14.966,14.966,0,0,1-1.74194-4.45691c-.1239-.63733-.2677-1.17761-.30457-1.64105-.11572-.9162-.1532-1.4364-.1532-1.4364s.19348.49445.48218,1.35376c.126.43494.37585.93256.6167,1.50922.228.58276.59094,1.19147.92615,1.87061a19.3743,19.3743,0,0,0,1.34558,2.02563q.19226.25607.3894.519l.44275.4939a8.45119,8.45119,0,0,0,.952.96973l.507.47394.55408.43347a9.28273,9.28273,0,0,0,1.16772.81683,15.44706,15.44706,0,0,0,2.58337,1.31769c.44666.19263.92419.31586,1.38062.478q.70715.18484,1.407.3678.7132.126,1.41309.24963.69507.07553,1.37122.149.71008.03909,1.39429.07672c.44714.00763.88538.00934,1.31238-.00726.854-.02,1.66321-.07721,2.40784-.16248a30.8262,30.8262,0,0,0,3.5874-.58447c.84424-.18005,1.36-.31238,1.36-.31238a1,1,0,0,1,.59778,1.9057Z"/>
            <path class="ok" d="M175.00715,170.98553s-.03906.52692-.15344,1.43842c-.03516.4574-.182,1.00427-.30652,1.64716a14.91966,14.91966,0,0,1-1.757,4.47565,8.83322,8.83322,0,0,1-.78943,1.21362q-.21881.30212-.442.61047-.251.28693-.50671.579a9.35,9.35,0,0,1-1.1145,1.12067,11.81924,11.81924,0,0,1-1.2605,1.025,16.04994,16.04994,0,0,1-2.87061,1.6546c-.50647.22711-1.03015.40979-1.5448.6145-.52686.1582-1.054.31842-1.58105.45117a23.01552,23.01552,0,0,1-3.13843.512,25.69319,25.69319,0,0,1-2.95532.0788c-.93726-.035-1.81763-.125-2.62476-.2326a30.38809,30.38809,0,0,1-3.835-.81873c-.90686-.26508-1.4126-.45093-1.4126-.45093l-.01807-.00659a1.0007,1.0007,0,0,1,.59656-1.9079s.49133.1275,1.35547.31665a30.73047,30.73047,0,0,0,3.59973.6004c.74731.08734,1.55957.152,2.41711.17383a23.4003,23.4003,0,0,0,2.68726-.0611,22.79956,22.79956,0,0,0,2.82727-.392c.47327-.10278.939-.24506,1.41711-.35565.45923-.16058.9325-.29755,1.38794-.47577a16.16548,16.16548,0,0,0,2.598-1.31555,10.071,10.071,0,0,0,1.17456-.81689l.55652-.43481.51111-.47339.507-.46655.451-.50458a9.79353,9.79353,0,0,0,.83765-1.015,19.94307,19.94307,0,0,0,1.35425-2.03149c.33374-.68134.70288-1.296.92871-1.87421.2395-.57648.49133-1.07068.61926-1.51526C174.81428,171.47729,175.00715,170.98553,175.00715,170.98553Z"/>
            <path class="or" d="M149.00376,183.947a33.36112,33.36112,0,0,1-4.15772-1.56645,2.01578,2.01578,0,0,0-1.67784,0,33.35074,33.35074,0,0,1-4.28354,1.60422"/>
            <g>
              <g class="os">
                <path class="ot" d="M176.67085,260.07867s-.01953.29376-.05627.84473c-.01331.14618-.01038.27258-.03992.47974q-.04852.31393-.10571.68463c-.04248.24329-.07849.51843-.1405.78473-.066.259-.15417.52985-.23914.81683a12.16333,12.16333,0,0,1-1.95435,3.79645,13.59843,13.59843,0,0,1-4.07214,3.54852,15.3957,15.3957,0,0,1-5.91614,1.87567c-.56238.043-1.06738.0625-1.70032.0592a12.43627,12.43627,0,0,1-1.63757-.11243,14.58684,14.58684,0,0,1-3.46362-.86017,14.77875,14.77875,0,0,1-3.283-1.74609,14.23582,14.23582,0,0,1-2.80188-2.696,13.06647,13.06647,0,0,1-1.90454-3.54327,10.92882,10.92882,0,0,1-.48975-1.9884,7.53154,7.53154,0,0,1-.12854-1.0188l-.03333-.513-.01575-.25671-.00757-.12842-.00378-.06421-.00183-.0321c.00049-.05585-.00378.07959.00073-.1333a16.13078,16.13078,0,0,1,.18274-1.88934,10.83122,10.83122,0,0,1,.49707-2.04321,13.06647,13.06647,0,0,1,1.90454-3.54327,14.2379,14.2379,0,0,1,2.80188-2.696,14.7838,14.7838,0,0,1,3.283-1.74609,14.959,14.959,0,0,1,12.71765.96234,13.59758,13.59758,0,0,1,4.07214,3.54852,12.16309,12.16309,0,0,1,1.95435,3.79639,12.86033,12.86033,0,0,1,.52295,2.728c.03992.64166.06116.98389.06116.98389Zm-3.99744-.1012-.02417-.707a5.25144,5.25144,0,0,0-.08008-.84479,10.62187,10.62187,0,0,0-.20032-1.13245A11.4773,11.4773,0,0,0,171.28,254.343a10.67167,10.67167,0,0,0-2.66406-3.26086,9.69335,9.69335,0,0,0-4.65247-2.00189,13.33683,13.33683,0,0,0-1.45178-.09009,10.70962,10.70962,0,0,0-1.43494.14691,9.23107,9.23107,0,0,0-2.79565.92993,10.36169,10.36169,0,0,0-2.40723,1.797,11.57833,11.57833,0,0,0-1.77893,2.42188,13.18785,13.18785,0,0,0-1.07092,2.76788,13.39178,13.39178,0,0,0-.35315,3.025c.00549-.19452.00208-.04071.00354-.07819l.00085.023.00183.04608.00354.09216.00659.18433.01123.36908a4.58254,4.58254,0,0,0,.0686.73358c.047.49115.17029.96539.257,1.45251a13.18785,13.18785,0,0,0,1.07092,2.76788,11.5815,11.5815,0,0,0,1.77893,2.42188,10.36169,10.36169,0,0,0,2.40723,1.797,9.30328,9.30328,0,0,0,2.76648.92609,10.5591,10.5591,0,0,0,1.50024.15192,13.54256,13.54256,0,0,0,1.36975-.0871,9.62982,9.62982,0,0,0,4.69836-2.006A10.67167,10.67167,0,0,0,171.28,265.612a11.4773,11.4773,0,0,0,1.08887-2.95032,10.343,10.343,0,0,0,.1936-1.08575q.03333-.22311.06165-.41254c.01965-.12848.015-.31219.02283-.441.01892-.55182.02905-.84613.02905-.84613Z"/>
              </g>
              <circle class="ou" cx="162.67342" cy="259.97747" r="11.99949"/>
              <g>
                <path class="ov" d="M162.67336,270.47656a11.01488,11.01488,0,0,1-1.77539-.14648,10.5019,10.5019,0,0,1,1.77539-20.85254,11.01489,11.01489,0,0,1,1.77539.14648,10.50183,10.50183,0,0,1-1.77539,20.85254Z"/>
                <path class="ow" d="M162.67336,249.97827a10.461,10.461,0,0,1,1.69434.1394,10.00156,10.00156,0,0,1-1.69421,19.85913,10.461,10.461,0,0,1-1.69434-.1394,10.00156,10.00156,0,0,1,1.69421-19.85913m.00037-1h0a11.00155,11.00155,0,0,0-1.85645,21.84595,11.51064,11.51064,0,0,0,1.8562.15259,11.00155,11.00155,0,0,0,1.85608-21.84595,11.50842,11.50842,0,0,0-1.85583-.15259Z"/>
              </g>
              <path class="ox" d="M171.17342,257.86918a2.66511,2.66511,0,0,0-2.83333-2.56867c-1.31054,0-2.40244.33229-2.72623,2.13053H159.733c-.32379-1.79824-1.41569-2.13053-2.72623-2.13053a2.71576,2.71576,0,0,0-2.83333,2.633,2.5307,2.5307,0,0,0,.73531,1.76607,2.56908,2.56908,0,0,0-.73531,1.78215,2.86939,2.86939,0,0,0,2.83333,2.818,2.80956,2.80956,0,0,0,2.58056-1.474h6.17221a2.89751,2.89751,0,0,0,5.4139-1.29575,2.68647,2.68647,0,0,0-.73531-1.83041A2.68647,2.68647,0,0,0,171.17342,257.86918Z"/>
              <path class="oy" d="M170.43811,259.6996a2.59841,2.59841,0,0,0-2.098-4.39908c-1.31054,0-2.40244.33229-2.72623,2.13053H159.733c-.32379-1.79824-1.41569-2.13053-2.72623-2.13053a2.71576,2.71576,0,0,0-2.83333,2.633,2.5307,2.5307,0,0,0,.73531,1.76607"/>
              <path class="oz" d="M154.90873,259.6996a2.56908,2.56908,0,0,0-.73531,1.78215,2.86939,2.86939,0,0,0,2.83333,2.818,2.80956,2.80956,0,0,0,2.58056-1.474h6.17221a2.89751,2.89751,0,0,0,5.4139-1.29575,2.68647,2.68647,0,0,0-.73531-1.83041"/>
              <line class="oaa" x1="162.50715" y1="238.97964" x2="162.50715" y2="247.97888"/>
            </g>
            <g>
              <path class="oab" d="M205.50715,223.90788c-20,9.95809-41.16778,17.72736-61.99966,17.56692-20.51266-.158-41.00034-8.09575-62.00034-17.56692V205.48176c43,20.20706,84,20.69192,124,.857Z"/>
              <g class="oac">
                <path class="oad" d="M174.81318,217.55437a119.25458,119.25458,0,0,1-29.61926,3.37362V241.4785a111.96467,111.96467,0,0,0,29.963-3.49861Zm-26.752,21.6369V222.57378a96.431,96.431,0,0,0,23.95056-2.72792l.278,16.51637A90.5373,90.5373,0,0,1,148.06117,239.19128Z"/>
                <path class="oae" d="M145.00715,241.4785a111.21711,111.21711,0,0,0,30.0097-3.49861"/>
              </g>
              <path class="oaf" d="M174.75136,217.55444l.34375,20.42554a111.61968,111.61968,0,0,1-27.87671,3.52051q-1.05322,0-2.0863-.022V220.928a119.247,119.247,0,0,0,29.61926-3.37354M149.68678,239.209a90.26678,90.26678,0,0,0,22.54114-2.84668l-.278-16.51636a96.43808,96.43808,0,0,1-23.95056,2.72778v16.61743q.83478.01794,1.68738.01782m25.06445-23.65454a2.00075,2.00075,0,0,0-.49792.063,117.23956,117.23956,0,0,1-29.12524,3.31055,2,2,0,0,0-1.996,2v20.55054a1.99987,1.99987,0,0,0,1.95715,1.99951q1.05267.02271,2.12915.02246a113.85167,113.85167,0,0,0,28.40637-3.5918,2.00021,2.00021,0,0,0,1.47009-1.9624l-.34375-20.42554a2,2,0,0,0-1.99988-1.96631Zm-24.75183,9.001a99.24253,99.24253,0,0,0,19.9928-2.18408l.20947,12.45166a90.04227,90.04227,0,0,1-20.20227,2.3855V224.55542Z"/>
              <rect class="oag" x="159.50715" y="226.48086" width="6" height="5.99949" rx="2.99974" ry="2.99974"/>
              <g class="oah">
                <path class="oad" d="M175.70322,227.01445a48.50892,48.50892,0,0,1-13.97.91679l.19647,2.99328a50.44359,50.44359,0,0,0,13.97-.91673Z"/>
                <polygon class="oai" points="176.603 230.665 173.153 230.957 173.022 226.774 175.98 226.483 176.603 230.665"/>
                <polygon class="oai" points="166.374 231.582 162.07 231.873 161.939 227.691 166.382 227.397 166.374 231.582"/>
              </g>
              <path class="oaj" d="M175.70322,227.01445a48.50892,48.50892,0,0,1-13.97.91679l.19647,2.99328a50.44359,50.44359,0,0,0,13.97-.91673Z"/>
              <path class="oaf" d="M198.61433,215.88282c2.28455,3.2374,4.348,6.38636,5.2345,9.065l3.35448-1.59259Z"/>
              <path class="oaf" d="M84.59545,225.07741s2.48706-6.11165,8.20766-6.61554l-4.402-2.57742L79.597,221.58671Z"/>
              <path class="oak" d="M212.67382,213.7256s-25.66667,19.742-68.66667,19.742c-40.67259,0-68.66667-19.742-68.66667-19.742L145.00715,215.5Z"/>
            </g>
            <g class="oal">
              <path class="oam" d="M232.4839,324c-4.64172,0-89.9759-22.39878-89.93045-27.01221.04544-4.61265,10.29916-4.51163,10.34461-9.12428.04544-4.61205-10.73012-4.71822-10.68468-9.33027s15.30884-4.46167,15.35428-9.07371,1.99-4.593,2.03542-9.20509c.04545-4.61332,11.93428-4.49619,11.97973-9.1095.04547-4.61492-27.80621-4.88932-27.76074-9.50424.04545-4.61346,8.61638-15.02723,8.66183-19.64069.04548-4.61663,50.42987-3.4823,55-4s20.38049,15.05127,24.95068,14.53369C244.13588,260.00537,242.189,291.00122,232.4839,324Z"/>
            </g>
            <g class="oan">
              <path class="oi" d="M193.14688,140.203c-1.46276-.02214-2.536.07045-2.536.07045-8.42829.7905-13.44891,20.20948-15.46714,30.97248-3,15.99865-13.90087,22.99806-31,22.99806-19.78637,0-28-6.99941-31-22.99806-1.971-10.511-6.80541-29.27746-14.8808-30.8865L54.94713,177.56535c.09869.33066.54555,53.52709,27.36328,53.52709,0-5.03394,1.66492-11.27969,7.31909-11.27969,0,0,.05029,4.10805,3.68726,4.10805,0-3.23123,3.30786-4.07607,3.30786-4.07607s1.56152,3.08153,4.57719,3.08153c0-2.325,3.50588-2.17322,3.50588-2.17322s2.372,8.40847,8.84985,8.40847c0-6.52579,6.73411-5.81675,6.73411-5.81675s1.86065,6.03951,4.85207,6.03951c0-3.666,4.875-3.74968,4.875-3.74968a8.67722,8.67722,0,0,0,8,5.24956c0-2.63241,2.754-4.45922,4.42413-4.45922,0,3.2621,4.48561,4.07761,4.48561,4.07761s1.51065,3.59526,7.63006,3.59526c0-6.5311,8.22394-8.3212,8.22394-8.3212a11.30957,11.30957,0,0,0,9.864,5.65077c0-3.143,3.28642-4.97547,7.2662-4.97547,0-3.61768,5.9001-4.23361,5.9001-4.23361s2.75279,5.82411,8.656,5.82411c0,0-.12894-8.31753,6.66772-8.31753,7.0072,3.70157,5.40259,10.38444,5.40259,11.43812,22.968,0,23.012-28.76918,23.012-28.76918l-36.40735-62.127Z"/>
              <path class="oao" d="M98.4839,139c-.17322.21069.34668,19.75049.55029,19.95947q1.06421,1.09058,2.12817,2.18164a9.36915,9.36915,0,0,0,1.2356,1.26685,2.4439,2.4439,0,0,1,.32153.31763c-.50464,1.42871-1.89514,3.12891-1.7229,4.59717.10327.87866,1.0802,2.12744,1.47327,2.90161a3.165,3.165,0,0,1,.48767,2.37354c-.08862,2.22412-.63977,4.38257-.73657,6.58057-.07642,1.73413,1.33521,3.02905,2.04077,4.59888a1.62258,1.62258,0,0,0,.10339.2,7.68812,7.68812,0,0,1-.64,1.13965,20.29031,20.29031,0,0,0-1.66638,3.03149,12.0396,12.0396,0,0,0,1.30347,9.64575,14.26612,14.26612,0,0,0,2.61694,3.08789,4.3888,4.3888,0,0,0,2.09912.61621,18.48412,18.48412,0,0,1,3.19958.58228,26.19418,26.19418,0,0,1,3.27393,1.81006.449.449,0,0,0,.06689.021.428.428,0,0,0,.05261.02954,34.4311,34.4311,0,0,1,4.26782,1.39526c1.34363.78,2.27673,2.33521,3.6759,3.01758a15.65043,15.65043,0,0,0,4.47144.98389c1.53076.167,3.51953-.51318,4.98291-.07227-.45728-.1377,1.03223.99048,1.333,1.249a11.09064,11.09064,0,0,0,1.98413,1.70654c1.1958.5647,2.95215.26367,4.27344.40625,1.36121.14673,2.31775,1.60693,3.88806,2.25586a19.3576,19.3576,0,0,0,4.45215.698.52764.52764,0,0,0,.56458-.22974q.68188-1.05652,1.36353-2.11279a12.28982,12.28982,0,0,0,.9375-1.45239,2.07971,2.07971,0,0,1,.17725-.32446c1.77075.50635,3.50806,1.31055,5.23291,1.94946a.50987.50987,0,0,0,.5647-.22974q1.00415-1.3385,2.00854-2.67725c.13025-.17358.57764-.69336.70605-.92432a9.24054,9.24054,0,0,0,.96118.02808,17.66038,17.66038,0,0,0,3.47131.09814,10.6121,10.6121,0,0,0,2.55774-1.26733c1.96191-1.02026,2.6991-2.48193,3.77856-4.46289.17334-.31836.47388-.5813.44019-.64722.399-.02466.90186.06934,1.22937.07568q1.71094.03333,3.422.06665a.51583.51583,0,0,0,.48218-.36694c.73645-1.85645,1.213-3.94141,2.50317-4.95166a18.07844,18.07844,0,0,0,4.329-4.54321c1.26978-1.84766.68787-2.82129.25745-5.0686-.25708-1.34155-.33252-.741.4519-1.83813q1.0459-1.463,2.092-2.92578a.501.501,0,0,0,0-.50488,32.11843,32.11843,0,0,1-2.29761-4.52344c-.02686-.08594-.04224-.91919-.04639-1.4502a12.28121,12.28121,0,0,1-.03687-2.6167,1.30987,1.30987,0,0,0,.202-.21753,8.38859,8.38859,0,0,1,.82312-.76514c.77295-.71875,1.57764-1.41431,2.3241-2.16064.94934-.949.6377-1.39209.42676-2.77515q-.32355-2.12256-.64124-4.24561a14.15168,14.15168,0,0,1-.39868-2.6709.69786.69786,0,0,0,.09778-.18872,10.45878,10.45878,0,0,1,.78967-1.30176c.71924-1.18579,1.43579-2.36353,2.10083-3.58008.50732-.928,1.72705-2.33691,1.53735-3.41748-.27673-1.57568-2.06665-2.88745-2.68286-4.40356a1.649,1.649,0,0,1,.29211-.35205c.41565-.397.77332-.89746,1.14783-1.332q.83478-.96863,1.66968-1.93726a.52808.52808,0,0,0,.07813-.606c-.56543-1.259-1.10876-2.531-1.697-3.7793a3.74213,3.74213,0,0,1-.30078-.644,1.0697,1.0697,0,0,0,.02124-.11133,12.44439,12.44439,0,0,1,.70752-2.07153Zm4.09106,15.10254c.10864.15918-.00134.14722,0,0Zm48.50793,57.3c.11267-.1416.123-.04224,0,0Z"/>
            </g>
            <path class="oap" d="M191.00715,139.98817c-8.75,0-13.93959,20.00946-16,30.99738-3,15.99865-13.90087,22.99806-31,22.99806-19.78637,0-28-6.99941-31-22.99806-2.06041-10.98792-7.25-30.99738-16-30.99738,0,0,9.872,14.99873,12.606,33.25419,1.6256,10.85445,10.99221,25.74083,34.394,25.74083,22,0,32.46213-15.15737,34.60286-24.71035C183.43108,152.75893,191.00715,139.98817,191.00715,139.98817Z"/>
            <path class="oaq" d="M98.12635,140.08079c8.07539,1.609,12.90982,20.37549,14.8808,30.8865,3,15.99865,11.21363,22.99806,31,22.99806,17.09913,0,28-6.99941,31-22.99806,2.01823-10.763,7.03885-30.182,15.46714-30.97248,0,0,1.07325-.09259,2.536-.07045"/>
            <g class="oar">
              <path class="ot" d="M60.00715,209.98226c13.98348,0,48.31177-38.305,48.31177-56.55383,1.36153-3.08507,1.93067-7.18461,4.68823-9.4406,2.93164-2.39841,8.60235-3.04485,11.00023-5.95983,18.59564-22.60586,20.7822-61.37252.99977-126.029l-85-.99992L0,39.749Z"/>
              <path class="oas" d="M58.00715,204.98268s13.33333-57.9951,3-73.99375c0,0,39,4.83293,39,34.997,0,30.44592-43,55.99527-43,55.99527Z"/>
              <path class="oat" d="M146.00715,94.992c0,7.1791-2.68629,19.99831-6,19.99831s-6-12.81922-6-19.99831,2.68629-24.99789,6-24.99789S146.00715,87.81288,146.00715,94.992Z"/>
              <polygon class="oau" points="137.797 104.692 136.007 89.039 139.25 85.993 138.919 104.412 137.797 104.692"/>
            </g>
            <g class="oav">
              <path class="ot" d="M165.11236,37.99679c-3.5,9.99916,1,15.99865,18,35.997,0,0,24.0738,31.33871,8.58058,49.42806a8.01285,8.01285,0,0,0-1.9065,6.54412l9.32591,55.01845s11,56.99518,37,65.99442l32-224.981L194.11236,0Z"/>
              <path class="oas" d="M212.00715,34.997c-14,0-21.75,18.74842-18,29.99747,5,12.249,31.14575,16.24954,46,13.99882C218.88215,57.87011,223.75715,34.997,212.00715,34.997Z"/>
              <path class="oat" d="M167.00715,162.98623l33,19.99831s13.75-19.74833,6.90883-34.997c-5.292-11.79558-23.38557-10.56722-34.90883.99992Z"/>
              <path class="oaw" d="M214.00715,36.99687s-7.85142,14.80653-1,28.99755c4.66667,9.66585,23,13.99882,23,13.99882C223.17382,68.66087,215.505,54.69069,214.00715,36.99687Z"/>
            </g>
            <path class="oax" d="M235.00715,77.99341c-11.18751-7.34313-21-28.49759-21-40.99654"/>
            <path class="oat" d="M155.89841,14.85955c-5.70767,4.45919,6.53538.21872,14.57488,1.08653,4.54881.491,9.53429,1.85483,14.29,2.55086,5.67988.83129,11.05282,1.12064,14.35094,2.16206,2.351.74235,7.4605,4.82614,13.6539,8.7996,4.41365,2.83164,9.17065,6.31642,14.16265,7.95617,5.51989.28065,11.86331.61492,17.57417,1.11916,9.54943.84316,13.963,9.50071,17.58047,1.49809,2.91235-6.44282,2.514-8.652-1.87675-14.19389-3.89425-4.91522-6.3326-1.23473-12.32985-3.06707-6.00137-1.8336-5.73447-2.70718-11.73584-4.54078s-6.34052-.82373-12.162-3.16669c-7.46831-3.00578-7.2595-3.4908-14.5095-6.9905S202.988,2.1617,194.96634,1.48036c-6.87812-.58421-6.38086,2.06155-12.87789,4.39362-6.50149,2.33367-6.33465,2.95738-13.05289,4.5638C162.19251,12.07406,161.34176,10.60687,155.89841,14.85955Z"/>
            <path class="oas" d="M226.00715,89.9924l-12.37306,16.23827a11.99818,11.99818,0,0,0-2.00663,10.52058l6.71408,28.55008,18.66561-25.31146Z"/>
            <path class="oas" d="M101.427,78.58746a.99586.99586,0,0,1-.59486-1.828c2.93062-1.88517,7.70252-4.31663,12.1615-3.75008,4.15465.52788,8.11553,3.98571,10.553,6.57473a.99785.99785,0,0,1-1.02346,1.639A60.20282,60.20282,0,0,0,101.427,78.58746Z"/>
            <path class="oat" d="M116.587,28.15552c-12.19214-2.45511-27.47025-.41159-38.92826,2.13147l41.89368,9.06474Z"/>
            <path class="oas" d="M36.00169,70.23921C49.82582,56.1396,52.02571,36.00987,62.51584,31.03c11.1153-5.27663,52.49131,7.96668,52.49131,7.96668-32.68979,18.73377-49,51.49565-51,91.55794C64.00715,130.55464,24.36226,82.11059,36.00169,70.23921Z"/>
            <path class="oaw" d="M62.29719,35.97436S77.27743,50.50025,73.8596,68.528c-2.94224,15.5192-21.78034,33.226-21.78034,33.226C44.57942,90.47819,40.63032,78.78131,41.0561,66.5656,53.00715,60.99485,60.46482,48.15713,62.29719,35.97436Z"/>
            <path class="oat" d="M11.00715,75.11858,23.466,61.13241a64.39213,64.39213,0,0,0,12.6373-3.15135L28.06971,82.75524Z"/>
            <path class="oax" d="M41.0561,66.5656S58.171,59.53931,62.29719,35.97436"/>
            <path class="oat" d="M36.65152,17.99848s7.52883,8.60247,26.1798,8.60247,23.61315-8.60247,23.61315-8.60247Z"/>
            <path class="oay" d="M46.38557,23.785s1.99683.19342,4.99207.48352c.73157.05963,1.52417.12421,2.36243.1925.83337.05084,1.7124.10443,2.62158.15991.905.07227,1.84717.04987,2.79529.11932.95166.03748,1.91882.0603,2.8877.05316.9519.038,1.96851.03943,2.89307.0271.94495-.03113,1.88953.0083,2.79395-.03571l2.61975-.09082c.83691-.04962,1.62805-.0965,2.35852-.13977,1.46521-.10852,2.70313-.22559,3.582-.3158.43457-.05737.7915-.07037,1.02759-.10266l.36731-.03815.02454-.00256a.09849.09849,0,0,1,.04724.18921s-.46448.18872-1.29492.47125a33.55521,33.55521,0,0,1-3.49829.97406,48.82515,48.82515,0,0,1-10.948,1.06232,50.47075,50.47075,0,0,1-10.91687-1.34814c-1.46094-.35364-2.657-.72644-3.48755-1.00775-.83264-.27991-1.29529-.46283-1.29529-.46283a.09885.09885,0,0,1,.04578-.19031Z"/>
            <path class="oay" d="M23.4521,61.03338s.18152-.16931.50134-.41681A10.61117,10.61117,0,0,1,25.29,59.746a8.55546,8.55546,0,0,1,.90259-.465c.32251-.14673.6582-.31641,1.01392-.44446a18.71431,18.71431,0,0,1,2.24133-.69635,19.47914,19.47914,0,0,1,2.30176-.39948c.37073-.05078.74622-.04871,1.09375-.07367a9.55887,9.55887,0,0,1,1.00452-.01233,12.74483,12.74483,0,0,1,1.57678.11536c.39819.05768.64185.11792.64185.11792l.061.01514a.09013.09013,0,0,1,.01257.17084s-.18921.0777-.52051.21362c-.33069.13824-.80505.33105-1.386.53027-1.16125.39923-2.73047.868-4.31763,1.26605-1.59363.3714-3.20178.66913-4.41052.873-1.21021.19458-2.02563.27448-2.02563.27448a.0912.0912,0,0,1-.07141-.15723Z"/>
            <polygon class="oat" points="112.537 38.848 125.037 46.482 133.457 38.885 112.537 38.848"/>
            <g class="oj">
              <path class="ok" d="M209.45,212.52746l.89966,1.00317a7.7824,7.7824,0,0,0,1.1272,1.01868,10.99026,10.99026,0,0,0,1.61,1.12219l.46655.29645.52051.24414,1.09326.51129c.38818.1438.79724.26617,1.20923.40546q.31.102.62634.20605l.65894.13635c.44434.08417.89026.20258,1.3512.26318q.69507.06665,1.40515.13483a11.74187,11.74187,0,0,0,1.432.02106,9.08128,9.08128,0,0,0,1.44006-.07892c.47839-.05524.96033-.09125,1.43469-.16125q.70386-.15344,1.40015-.3053a9.67888,9.67888,0,0,0,1.34851-.40717,9.31587,9.31587,0,0,0,1.28625-.48633q.61157-.29279,1.20129-.575a11.36249,11.36249,0,0,0,1.08752-.66272,12.06824,12.06824,0,0,0,1.858-1.40857,12.3666,12.3666,0,0,0,1.39111-1.39886c.19446-.2207.39819-.411.54846-.61658q.217-.31522.39771-.57745c.48193-.69873.75732-1.098.75732-1.098a.14754.14754,0,0,1,.26746.10492l-.00623.04279a12.137,12.137,0,0,1-.33521,1.42047l-.22644.75549a6.309,6.309,0,0,1-.39355.826,8.88392,8.88392,0,0,1-1.16943,1.906l-.81531,1.01434a8.41554,8.41554,0,0,1-1.01685.94623,13.76267,13.76267,0,0,1-1.14978.93823c-.4126.2923-.86841.5365-1.32239.808a11.57037,11.57037,0,0,1-1.444.69556,8.37036,8.37036,0,0,1-1.54016.58154c-.53406.14026-1.07166.29919-1.61963.42-.5509.094-1.11023.151-1.6676.22418a10.93212,10.93212,0,0,1-1.67932.0611,11.103,11.103,0,0,1-1.66309-.09143c-.54834-.07147-1.08972-.15784-1.61926-.25671-.5282-.11127-1.04248-.27667-1.54211-.43384q-.37335-.11966-.74011-.2373c-.2395-.1-.47327-.20844-.70056-.32324-.45569-.22681-.8999-.43518-1.31885-.66376a11.77213,11.77213,0,0,1-2.17249-1.60608c-.30273-.29083-.5968-.55371-.85364-.827a8.85713,8.85713,0,0,1-.681-.87787,5.822,5.822,0,0,1-.87244-1.46753c-.34485-.83472-.49634-1.35089-.49634-1.35089l-.01746-.05957a.14358.14358,0,0,1,.24463-.13635Z"/>
            </g>
            <g class="oj">
              <path class="ok" d="M79.8708,212.51751s-.15161.51624-.49634,1.351A5.82674,5.82674,0,0,1,78.502,215.336a8.84752,8.84752,0,0,1-.68115.87787c-.25671.27332-.55078.53619-.85352.827a11.77509,11.77509,0,0,1-2.17249,1.60614c-.41907.22858-.86328.43689-1.31885.66376-.22742.11475-.46118.22321-.70056.32318l-.74023.23737c-.49951.1571-1.01392.32257-1.542.43384-.52954.09888-1.07092.18524-1.61926.25665a11.08756,11.08756,0,0,1-1.66321.09143,10.93214,10.93214,0,0,1-1.67932-.0611c-.55737-.07312-1.11658-.13013-1.6676-.22412-.548-.12079-1.08545-.27972-1.61963-.42a8.37338,8.37338,0,0,1-1.54-.58148,11.58059,11.58059,0,0,1-1.44409-.69556c-.454-.27155-.90967-.51569-1.32227-.808a13.77193,13.77193,0,0,1-1.1499-.93817,8.43872,8.43872,0,0,1-1.01685-.94623l-.81531-1.01434a8.89179,8.89179,0,0,1-1.16943-1.906,6.34426,6.34426,0,0,1-.39355-.826l-.22644-.75549a12.15025,12.15025,0,0,1-.33508-1.42053l-.00623-.04254a.1475.1475,0,0,1,.26733-.10516s.27539.39929.75745,1.098q.18.26147.39771.57739c.15027.20563.35388.39587.54846.61658a12.36,12.36,0,0,0,1.391,1.39893,12.0693,12.0693,0,0,0,1.85815,1.40851,11.34842,11.34842,0,0,0,1.0874.66278q.58887.2818,1.20142.57489a9.31425,9.31425,0,0,0,1.28613.48633,9.6758,9.6758,0,0,0,1.34851.40723q.69543.15161,1.40015.3053c.47449.07.95642.106,1.43481.16125a9.08051,9.08051,0,0,0,1.44006.07892,11.74225,11.74225,0,0,0,1.432-.02106q.709-.068,1.405-.13489c.46094-.06055.907-.179,1.3512-.26312l.65894-.13635.62634-.20605c.412-.13928.821-.26166,1.20923-.40546q.56287-.26321,1.09338-.51129.26477-.12424.52039-.2442l.46667-.29639a10.99525,10.99525,0,0,0,1.60986-1.12219,7.77945,7.77945,0,0,0,1.1272-1.01868l.89966-1.00317a.14367.14367,0,0,1,.24487.13617Z"/>
            </g>
          </g>
          <path class="oay" d="M203.06355,22.89038a7.81659,7.81659,0,0,1,.7821.1283,13.12252,13.12252,0,0,1,1.9187.59259,12.27549,12.27549,0,0,1,1.19373.50427,14.19693,14.19693,0,0,1,1.27087.637c.41968.24957.88586.45563,1.30017.75085.42615.27429.859.55292,1.29187.8316.4126.30383.82507.60767,1.23108.90674.41333.28821.7749.63287,1.15234.92792.37817.29547.7146.614,1.0426.9162.33508.27917.63147.5849.90955.86023.28589.25128.53235.53412.75842.75885.23108.21246.422.44409.589.611.33154.33228.53381.56116.53381.56116l.0387.0437a.0916.0916,0,0,1-.1.14667l-.68164-.24835c-.42529-.17615-1.02258-.44971-1.71692-.81842-1.38965-.73608-3.15784-1.85571-4.892-3.02057-1.7074-1.20428-3.37476-2.45929-4.63062-3.39136-1.25061-.93921-2.10461-1.5332-2.10461-1.5332a.09347.09347,0,0,1,.06177-.16986Z"/>
          <path class="oay" d="M242.02937,37.87414s.30261-.0777.8197-.15894a10.18393,10.18393,0,0,1,2.16626-.044,11.0692,11.0692,0,0,1,1.40015.15985,14.07309,14.07309,0,0,1,1.51367.30261c.50708.14246,1.054.23767,1.56458.42987.51685.17328,1.04175.34937,1.56665.52539.507.2052,1.01379.4104,1.5127.61237.5011.18335.96558.44635,1.43018.63953.46667.20129.89612.42743,1.31409.63879.4187.18707.80664.4054,1.16931.59534.364.15961.69885.37543.99841.51538.30164.13336.56934.30988.79358.408.44885.21631.72852.37286.72852.37286l.04858.02728a.09225.09225,0,0,1-.04858.17273l-.77161-.02966c-.24634-.00568-.53943-.05908-.87927-.09528-.34106-.03265-.71448-.12567-1.12842-.19672a46.51552,46.51552,0,0,1-5.86279-1.78687c-2.07629-.79926-4.13757-1.62494-5.71729-2.14136a24.48383,24.48383,0,0,0-2.66284-.7522.0936.0936,0,0,1-.00476-.18237Z"/>
          <path class="oi" d="M139.00715,48.97073l-8,3.99966A59.59719,59.59719,0,0,1,138.57047,77.96C139.50491,65.36705,142.81422,57.657,139.00715,48.97073Z"/>
          <path class="oay" d="M77.67134,30.16266s.40625-.093,1.11011-.20007a22.10062,22.10062,0,0,1,2.91858-.226c.60229-.01862,1.25305-.02246,1.93506.01825.68469.02631,1.40613.05859,2.14368.14795.73511.09637,1.50818.1355,2.27039.28986.76563.13721,1.54333.27667,2.32117.41614.76685.187,1.53381.37408,2.28882.55823.75659.1748,1.47986.43842,2.189.64935.71033.20612,1.37952.47607,2.01758.71393.63953.23181,1.23364.49182,1.77917.73914a22.94472,22.94472,0,0,1,3.55652,1.91559l.02881.02008a.09692.09692,0,0,1-.07983.17328s-6.0603-1.577-12.19324-2.81415c-3.05469-.67145-6.127-1.26147-8.44275-1.63452-2.31323-.37927-3.86816-.5686-3.86816-.5686a.09677.09677,0,0,1-.01-.19037Z"/>
          <path class="oaz" d="M160.17643,106.96583s-4.60171,3.46852-3,5.75172c1.458,2.07839,10,.3311,10,.3311Z"/>
          <path class="oaz" d="M161.00715,152.29876s-.04883-.1709-.1405-.49127a9.79392,9.79392,0,0,0-.46008-1.31024,8.81681,8.81681,0,0,0-2.89038-3.54382,12.13916,12.13916,0,0,0-2.63733-1.40833,19.71457,19.71457,0,0,0-3.25818-.95172c-.60022-.08185-1.18945-.21625-1.80811-.29236-.626-.05341-1.24414-.1521-1.88647-.19452l-1.94226-.10822q-.958-.0184-1.92078-.0368-1.03931.01978-2.07568.03955l-1.90723.10931c-.62561.04016-1.25525.14386-1.87769.195-.6189.07452-1.20715.212-1.8075.29315a19.6451,19.6451,0,0,0-3.25671.952,12.1181,12.1181,0,0,0-2.63635,1.40692,8.81753,8.81753,0,0,0-2.892,3.54028,10.68091,10.68091,0,0,0-.46167,1.31036l-.14111.49066-.0885-.504a7.12205,7.12205,0,0,1-.08447-1.47437,7.7694,7.7694,0,0,1,.48364-2.30945,9.20344,9.20344,0,0,1,1.58-2.72748,12.173,12.173,0,0,1,2.85632-2.4079,17.35481,17.35481,0,0,1,3.72986-1.70575,25.53305,25.53305,0,0,1,4.19385-.91888c.724-.07233,1.49438-.18439,2.19873-.21393q1.03473-.03635,2.07471-.07275,1.11639.03781,2.22961.0755c.724.03192,1.44849.14545,2.1637.215a25.63926,25.63926,0,0,1,4.18433.92023,17.30743,17.30743,0,0,1,3.72852,1.706,12.15138,12.15138,0,0,1,2.85522,2.40649,9.21691,9.21691,0,0,1,1.58044,2.72528,7.78621,7.78621,0,0,1,.48486,2.30811,6.82464,6.82464,0,0,1-.083,1.47449Z"/>
          <path class="oba" d="M124.00715,106.96583s4.60171,3.46852,3,5.75172c-1.458,2.07839-10,.3311-10,.3311Z"/>
          <path class="oba" d="M126.00715,102.96617c0,7.1791-4.50659,12.9989-15,12.9989s-17-5.81981-17-12.9989,6.50659-12.9989,17-12.9989S126.00715,95.78708,126.00715,102.96617Z"/>
          <path class="obb" d="M95.26826,105.821s.08777.12091.2522.34772c.1593.20581.41711.60687.70093.93329q.21368.26752.472.5907.29041.31979.62671.69006c.45532.48553,1.01.9903,1.62329,1.52826a19.75422,19.75422,0,0,0,4.703,2.9632,18.97943,18.97943,0,0,0,6.17151,1.58923,20.10273,20.10273,0,0,0,3.25244-.063,18.23844,18.23844,0,0,0,3.08923-.68219,17.07562,17.07562,0,0,0,2.736-1.21277,16.44909,16.44909,0,0,0,2.24133-1.56073,10.47737,10.47737,0,0,0,.91748-.82648c.2804-.277.56238-.53156.78772-.80542.4856-.52173.86475-1.01923,1.18542-1.42987.3208-.41028.53467-.76086.70337-.98859l.24817-.35681s-.04565.14349-.1311.41254c-.09485.2652-.1908.6792-.40466,1.166a13.58349,13.58349,0,0,1-.83545,1.74554,13.26092,13.26092,0,0,1-1.42969,2.10583,14.43222,14.43222,0,0,1-2.16675,2.16217,15.48719,15.48719,0,0,1-2.9342,1.83978A16.87566,16.87566,0,0,1,109.7,117.5628a20.4271,20.4271,0,0,1-3.84265-.41632,22.06578,22.06578,0,0,1-3.57422-1.11908,21.50467,21.50467,0,0,1-3.09668-1.6413,19.46808,19.46808,0,0,1-2.49329-1.91089,18.50583,18.50583,0,0,1-1.83459-1.91718q-.36951-.46289-.68982-.86444-.30469-.43579-.55823-.7984a11.21672,11.21672,0,0,1-.65234-1.07648l-.21216-.37347a1.50226,1.50226,0,0,1,2.52222-1.62421Z"/>
          <path class="oba" d="M94.45588,91.481l.344-.22473c.244-.14417.50891-.36694,1.01636-.6297.4895-.27161,1.08533-.58423,1.75964-.88306a19.06926,19.06926,0,0,1,2.33484-.9007,23.11259,23.11259,0,0,1,2.86267-.7226,25.89847,25.89847,0,0,1,3.26123-.394,29.39777,29.39777,0,0,1,3.50549.03979,26.41,26.41,0,0,1,3.57544.554,20.61109,20.61109,0,0,1,3.45911,1.081,17.35975,17.35975,0,0,1,3.13306,1.61255,14.18018,14.18018,0,0,1,2.57849,2.0708,11.43177,11.43177,0,0,1,1.82532,2.32953,9.591,9.591,0,0,1,1.0094,2.26117,8.20487,8.20487,0,0,1,.36609,1.83954,6.623,6.623,0,0,1,.03247,1.18726l-.01233.41443s-.04053-.13885-.11633-.39929a9.26486,9.26486,0,0,0-.3678-1.0932,5.29846,5.29846,0,0,0-.32422-.74164,7.07847,7.07847,0,0,0-.44141-.83044,11.65569,11.65569,0,0,0-1.32214-1.77386,12.09824,12.09824,0,0,0-1.93628-1.7016,15.42436,15.42436,0,0,0-2.47888-1.44159,20.57532,20.57532,0,0,0-2.87915-1.08228,25.70214,25.70214,0,0,0-3.11206-.68677,26.56834,26.56834,0,0,0-3.1792-.2879,26.003,26.003,0,0,0-3.08826.07629,25.20113,25.20113,0,0,0-2.85718.36926c-.89661.17755-1.74426.35193-2.50488.58484-.76416.22089-1.46057.43787-2.06274.66895-.615.22577-1.10779.44684-1.507.63184-.3949.16675-.78442.3833-1.01245.49036l-.36755.18353A1.50251,1.50251,0,0,1,94.45588,91.481Z"/>
          <g class="obc">
            <ellipse class="obd" cx="110.7841" cy="102.96617" rx="14.875" ry="12.92199"/>
            <g class="obe">
              <path class="obf" d="M129.1591,102.96617c0,8.05157-6.268,13.53732-14,13.53732s-14-5.48575-14-13.53732,6.268-13.53732,14-13.53732S129.1591,94.91461,129.1591,102.96617Z"/>
              <path class="obg" d="M129.1591,98.73576c0,8.05157-6.268,13.53732-14,13.53732s-14-5.48575-14-13.53732,6.268-13.53732,14-13.53732S129.1591,90.68419,129.1591,98.73576Z"/>
            </g>
            <ellipse class="obh" cx="109.70321" cy="98.61489" rx="2.625" ry="2.11521"/>
            <path class="obi" d="M124.7841,101.11926a20.25013,20.25013,0,0,0-28,0c0-5.60734,6.268-10.153,14-10.153S124.7841,95.51192,124.7841,101.11926Z"/>
            <path class="obj" d="M125.6591,105.92746c0,3.03731-4.81827,8.03778-14,8.03778s-14.875-5.00047-14.875-8.03778c3.0625,2.11521,8.60417,2.96129,14.875,2.96129C117.857,108.88875,121.21118,108.25419,125.6591,105.92746Z"/>
          </g>
          <ellipse class="obk" cx="110.7841" cy="102.96617" rx="14" ry="11.99899"/>
          <g class="obl">
            <path class="obm" d="M144.00715,142.96279c-12.98706,0-17,5.26233-17,10.0859s2.6369,17.91173,16.56818,17.91173h.86364c14.15747,0,16.56818-13.08816,16.56818-17.91173S156.99422,142.96279,144.00715,142.96279Z"/>
            <path class="obn" d="M120.00715,152.96195a110.728,110.728,0,0,1,50,0l-9.5-8.99924c-9.62335-5.27812-20.43158-5.38767-32.5,0C128.00715,143.96271,119.75715,152.712,120.00715,152.96195Z"/>
            <circle class="obo" cx="144.00715" cy="149.9622" r="7.99966"/>
            <path class="obp" d="M131.00715,150.96209s.41138-.10809,1.13733-.26361c.73132-.1319,1.77686-.35162,3.04224-.49658,1.265-.15491,2.74377-.31775,4.33325-.4234.795-.03754,1.61621-.1048,2.45227-.11847.83569-.02728,1.68494-.042,2.53442-.05011,1.69885.00391,3.39844.0387,4.989.14563,1.59106.09113,3.07068.26782,4.33533.42731,1.26563.15363,2.3092.37329,3.03735.51923l1.13879.26L156.842,150.895c-.73706-.06573-1.79675-.08734-3.05994-.15143-1.26343-.07129-2.74109-.07678-4.32068-.108-1.5802-.02142-3.26575-.04285-4.95166-.02618-1.686-.01123-3.3717.03143-4.95337.04675-1.58008.0423-3.05957.038-4.32373.10455-1.26562.054-2.322.07813-3.06006.12946Z"/>
            <path class="obq" d="M131.73564,165.46089h-3.52549l-2.203-4.43372s3.113.69458,4.93263-1.12491c1.19465-1.19455,2.09547-3.87806,5.06737-3.87806,3.0016,0,4,2.88672,4,5.53308C140.00715,164.82655,136.58493,165.46089,131.73564,165.46089Z"/>
            <line class="obr" x1="144.00715" y1="173.96017" x2="144.00715" y2="160.96127"/>
            <path class="obs" d="M122.48443,153.21417s3.83817,14.43127,21,14.43127c17.81782,0,21-14.30976,21-14.30976l1.90909,19.62457H119.62079Z"/>
            <path class="obq" d="M156.27866,165.46089h3.52549l2.203-4.43372s-3.113.69458-4.93263-1.12491c-1.19465-1.19455-2.09547-3.87807-5.06737-3.87807-3.0016,0-4,2.88673-4,5.5331C148.00715,164.82655,151.42938,165.46089,156.27866,165.46089Z"/>
            <path class="obt" d="M139.00691,150.21112a12.95867,12.95867,0,0,1,1.56079-.29553,27.8128,27.8128,0,0,1,6.87512-.04431,12.85816,12.85816,0,0,1,1.56433.27728,12.85983,12.85983,0,0,1-1.56067.29688,27.80975,27.80975,0,0,1-6.87524.04169A12.96436,12.96436,0,0,1,139.00691,150.21112Z"/>
          </g>
          <path class="obu" d="M141.00715,118.96482c0,1.65671-1.11929,1.99983-2.5,1.99983a2.78429,2.78429,0,0,1-2.5-2.99975c0-1.65671.24467-2.99975,2.5-2.99975,1.04312,0,1.08186,1.62227,1.5,1.99983A2.3995,2.3995,0,0,1,141.00715,118.96482Z"/>
          <circle class="obv" cx="138.00715" cy="128.96398" r="0.99996"/>
          <circle class="obw" cx="161.50715" cy="86.46757" r="0.49998"/>
          <circle class="obv" cx="145.50715" cy="133.4636" r="0.49998"/>
          <circle class="obw" cx="169.50715" cy="157.46157" r="0.49998"/>
          <circle class="obw" cx="170.50715" cy="154.46182" r="0.49998"/>
          <path class="obu" d="M139.90981,134.32073c0,1.30174-1.08319,1.34466-2.3572,2.357-.68151.54153-1.22665,1.8845-2.35932,1.8845-.834,0-1.444-2.23362-1.17648-4.2415a2.82741,2.82741,0,0,1,2.9465-2.357A2.70167,2.70167,0,0,1,139.90981,134.32073Z"/>
          <circle class="obv" cx="153.50715" cy="133.4636" r="1.49994"/>
          <path class="oaq" d="M205.9779,224.7957a13.11957,13.11957,0,0,1,.56121,6.34217c7.59994,0,12.68994-3.14993,16.09891-7.36521"/>
          <path class="oe" d="M204.93684,222.90038a9.00552,9.00552,0,0,1,1.04106,1.89533"/>
          <ellipse class="obw" cx="167.00715" cy="149.9622" rx="1" ry="1.99983"/>
          <ellipse class="obx" cx="166.50715" cy="136.46334" rx="0.49999" ry="1.49989" transform="translate(-39.6758 74.53221) rotate(-22.61815)"/>
          <ellipse class="obw" cx="156.50715" cy="90.46723" rx="1.49988" ry="0.5" transform="translate(24.91093 214.40771) rotate(-73.31355)"/>
          <ellipse class="obx" cx="168.50715" cy="141.46292" rx="0.5" ry="1.49988" transform="translate(-19.22486 26.73232) rotate(-8.58291)"/>
          <path class="oaq" d="M64.91347,220.09722c3.98184,6.43271,9.56474,10.9701,17.39694,10.9701a20.06733,20.06733,0,0,1,.61591-5.06837"/>
          <path class="oe" d="M82.92633,225.999c.11582-.43527.24981-.86134.40348-1.27337"/>
          <path class="oe" d="M222.638,223.77266a26.6379,26.6379,0,0,0,3.67018-6.17959"/>
          <path class="oe" d="M83.32981,224.72558c1.04089-2.791,2.98464-4.93795,6.2997-4.93795,0,0,.05029,4.10805,3.68726,4.10805,0-3.23123,3.30786-4.07607,3.30786-4.07607s1.56152,3.08153,4.57719,3.08153c0-2.325,3.50588-2.17322,3.50588-2.17322s2.372,8.40847,8.84985,8.40847c0-6.52579,6.73411-5.81675,6.73411-5.81675s1.86065,6.03951,4.85207,6.03951c0-3.666,4.875-3.74968,4.875-3.74968a8.67722,8.67722,0,0,0,8,5.24956c0-2.63241,2.754-4.45922,4.42413-4.45922,0,3.2621,4.48561,4.07761,4.48561,4.07761s1.51065,3.59526,7.63006,3.59526c0-6.5311,8.22394-8.3212,8.22394-8.3212a11.30957,11.30957,0,0,0,9.864,5.65077c0-3.143,3.28642-4.97547,7.2662-4.97547,0-3.61768,5.9001-4.23361,5.9001-4.23361s2.75279,5.82411,8.656,5.82411c0,0-.12894-8.31753,6.66772-8.31753a10.72282,10.72282,0,0,1,3.80031,3.20063"/>
          <path class="oe" d="M64.10048,218.71918q.39495.702.813,1.378"/>
          <path class="oaz" d="M157.67342,102.96617c0,7.1791,4.50659,12.9989,15,12.9989s17-5.81981,17-12.9989-6.50659-12.9989-17-12.9989S157.67342,95.78708,157.67342,102.96617Z"/>
          <path class="obd" d="M190.51423,107.17456l-.219.36914a12.20312,12.20312,0,0,1-.6604,1.05261l-.54382.76379q-.31476.38718-.6792.83539a18.16818,18.16818,0,0,1-1.80176,1.84979,20.56745,20.56745,0,0,1-2.43506,1.84534,20.96192,20.96192,0,0,1-3.00476,1.61127,21.504,21.504,0,0,1-3.47314,1.10632,20.14874,20.14874,0,0,1-3.73621.438,16.79213,16.79213,0,0,1-7.20459-1.452,15.18726,15.18726,0,0,1-2.89795-1.73993,15.813,15.813,0,0,1-2.1759-2.06366,12.60116,12.60116,0,0,1-1.47864-2.02295,16.49363,16.49363,0,0,1-.89441-1.692c-.2356-.47186-.34985-.8761-.45728-1.13489l-.15063-.40326s.07959.12732.22864.36609c.15625.23413.35168.59448.65088,1.01971a15.99688,15.99688,0,0,0,1.12634,1.48346c.21692.28418.49219.54938.76367.84052a10.7,10.7,0,0,0,.89258.87421,14.68746,14.68746,0,0,0,2.2323,1.65924,17.37258,17.37258,0,0,0,2.77209,1.31262,17.73631,17.73631,0,0,0,3.16333.7688,19.50559,19.50559,0,0,0,3.351.1178,19.06438,19.06438,0,0,0,6.379-1.58026,20.25519,20.25519,0,0,0,2.678-1.4278,18.29177,18.29177,0,0,0,2.17517-1.631c.6283-.561,1.19263-1.08984,1.65625-1.59564q.34113-.38507.63721-.71912l.48645-.62531c.29675-.35468.5332-.74359.69275-.95721l.24561-.352a1.00068,1.00068,0,0,1,1.68152,1.08282Z"/>
          <path class="oaz" d="M187.73091,94.08264l-.36755-.18353c-.228-.10706-.61755-.32361-1.01245-.49036-.399-.185-.892-.40607-1.507-.63184-.60217-.23108-1.29858-.44806-2.06262-.66895-.76062-.23291-1.6084-.40729-2.505-.58484a25.19752,25.19752,0,0,0-2.85718-.36926,26.003,26.003,0,0,0-3.08826-.07629,26.56834,26.56834,0,0,0-3.1792.2879,25.70727,25.70727,0,0,0-3.11206.68677,20.57532,20.57532,0,0,0-2.87915,1.08228,15.42437,15.42437,0,0,0-2.47888,1.44159,12.09186,12.09186,0,0,0-1.93616,1.7016,11.64612,11.64612,0,0,0-1.32227,1.77386,7.07849,7.07849,0,0,0-.44141.83044,5.29846,5.29846,0,0,0-.32422.74164,9.237,9.237,0,0,0-.36768,1.0932l-.11646.39929-.01233-.41443a6.623,6.623,0,0,1,.03247-1.18726,8.20487,8.20487,0,0,1,.36609-1.83954,9.591,9.591,0,0,1,1.0094-2.26117,11.436,11.436,0,0,1,1.82532-2.32953,14.18018,14.18018,0,0,1,2.57849-2.0708,17.35975,17.35975,0,0,1,3.13306-1.61255,20.61109,20.61109,0,0,1,3.45911-1.081,26.40874,26.40874,0,0,1,3.57556-.554,29.39546,29.39546,0,0,1,3.50537-.03979,25.89847,25.89847,0,0,1,3.26123.394,23.11259,23.11259,0,0,1,2.86267.7226,19.06926,19.06926,0,0,1,2.33484.9007c.67432.29883,1.27014.61145,1.75977.88306.50732.26276.77222.48553,1.01624.6297l.344.22473a1.50251,1.50251,0,0,1-1.49377,2.60168Z"/>
          <g class="oby">
            <ellipse class="obd" cx="172.89648" cy="102.96617" rx="14.875" ry="12.92199"/>
            <g class="obz">
              <path class="obf" d="M154.52148,102.96617c0,8.05157,6.268,13.53732,14,13.53732s14-5.48575,14-13.53732-6.268-13.53732-14-13.53732S154.52148,94.91461,154.52148,102.96617Z"/>
              <path class="obg" d="M154.52148,98.73576c0,8.05157,6.268,13.53732,14,13.53732s14-5.48575,14-13.53732-6.268-13.53732-14-13.53732S154.52148,90.68419,154.52148,98.73576Z"/>
            </g>
            <ellipse class="obh" cx="173.97736" cy="98.61489" rx="2.625" ry="2.11521"/>
            <path class="obi" d="M158.89648,101.11926a20.25013,20.25013,0,0,1,28,0c0-5.60734-6.268-10.153-14-10.153S158.89648,95.51192,158.89648,101.11926Z"/>
            <path class="obj" d="M158.02148,105.92746c0,3.03731,4.81827,8.03778,14,8.03778s14.875-5.00047,14.875-8.03778c-3.0625,2.11521-8.60417,2.96129-14.875,2.96129C165.82356,108.88875,162.4694,108.25419,158.02148,105.92746Z"/>
          </g>
          <ellipse class="obk" cx="172.89648" cy="102.96617" rx="14" ry="11.99899"/>
          <path class="oi" d="M79.75715,212.39446c-5.75,7.80858-21,7.80858-26.79535-2.43733,13.39767-4.7496,14.58172-15.32473,13.87914-20.716"/>
          <path class="oas" d="M63.60359,199.518c15.77963-2.227,22.816-12.62876,30.164-24.78888l-24.08724,8.79782A56.4797,56.4797,0,0,0,63.60359,199.518Z"/>
          <path class="oas" d="M84.23816,188.38444c-10.60261,11.43148-15.13958,7.65425-21.69136,15.42826-.21245-8.38477,2.1691-17.59885,7.13351-20.28575"/>
          <path class="ok" d="M79.75715,212.39447s-.17139.22382-.47119.61548a7.12516,7.12516,0,0,1-.58289.67365,8.6038,8.6038,0,0,1-.82739.81256,12.879,12.879,0,0,1-1.0675.86591,15.2786,15.2786,0,0,1-1.29517.82825,13.58875,13.58875,0,0,1-1.47375.73724,15.99392,15.99392,0,0,1-1.59583.599,15.83021,15.83021,0,0,1-1.65173.43536c-.5498.12811-1.10229.19849-1.635.27466a18.60855,18.60855,0,0,1-2.94348.11334,16.3787,16.3787,0,0,1-2.08289-.19586l-.78613-.1272a.50039.50039,0,1,1,.15991-.98792l.02527.00476.03284.0072.73657.16107a15.49009,15.49009,0,0,0,1.96948.296,17.84261,17.84261,0,0,0,2.82581.04785c.51538-.04517,1.05286-.08289,1.58972-.17731a15.286,15.286,0,0,0,1.62122-.33246,15.57234,15.57234,0,0,0,1.582-.49567,13.22815,13.22815,0,0,0,1.47681-.63916,14.97263,14.97263,0,0,0,1.3136-.74084,12.704,12.704,0,0,0,1.09729-.79352,8.47627,8.47627,0,0,0,.86108-.75653,7.04508,7.04508,0,0,0,.6167-.63745C79.57368,212.60846,79.75715,212.39447,79.75715,212.39447Z"/>
          <path class="oi" d="M209.33644,212.6003c5.75,7.80858,21,7.80858,26.79535-2.43733-13.39767-4.7496-14.58172-15.32473-13.87914-20.716"/>
          <path class="ok" d="M209.3365,212.60028l.52332.60962a7.10014,7.10014,0,0,0,.64111.65881,8.53723,8.53723,0,0,0,.89673.77924,12.86371,12.86371,0,0,0,1.14417.81281,15.13766,15.13766,0,0,0,1.37073.75159q.36877.17.7489.34515.39148.146.79138.29517a15.7309,15.7309,0,0,0,1.64844.48541,15.38469,15.38469,0,0,0,1.687.3114c.55847.08624,1.11646.11261,1.65161.147a17.86475,17.86475,0,0,0,2.92639-.12689,15.40247,15.40247,0,0,0,2.03027-.37085l.757-.19305.03247-.0083a.50035.50035,0,0,1,.24731.96967l-.02588.0058s-.29443.05878-.80969.1615a16.281,16.281,0,0,1-2.151.27515,18.62341,18.62341,0,0,1-3.05261-.031c-.55383-.06494-1.12817-.12366-1.70068-.24335a15.92078,15.92078,0,0,1-1.72107-.414,16.17805,16.17805,0,0,1-1.66541-.58875q-.40027-.17432-.79309-.34534l-.74658-.39355a15.42769,15.42769,0,0,1-1.354-.83966,13.02719,13.02719,0,0,1-1.1156-.8858,8.65173,8.65173,0,0,1-.86377-.83575,7.16113,7.16113,0,0,1-.60742-.69525C209.5146,212.83184,209.3365,212.60028,209.3365,212.60028Z"/>
          <path class="ot" d="M213.07686,195.78887c4.15075,0,8.78322,5.47615,13.496,8.26148.21245-8.38477-2.19514-17.63066-7.15955-20.31757"/>
          <path class="oca" d="M84.23811,188.38446s-.28162.31183-.77466.85761c-.24646.27289-.54578.60425-.88916.98431-.342.381-.76746.77606-1.21155,1.22748-.44067.45667-.93958.92847-1.49158,1.40094q-.40814.36227-.83728.74335l-.92029.72375c-.6134.50958-1.307.95514-1.99438,1.43738-.71143.44135-1.434.90125-2.18884,1.29529-.74377.41858-1.51245.78278-2.25525,1.15088-.74719.36377-1.47473.71289-2.15784,1.07324-.68787.35187-1.31323.73773-1.90173,1.10339a17.31819,17.31819,0,0,0-1.54321,1.17456,12.17267,12.17267,0,0,0-1.1947,1.11816,9.45491,9.45491,0,0,0-.854.93524c-.45325.53906-.71216.84711-.71216.84711l-.04565.05432a1.00138,1.00138,0,0,1-1.53308-1.2887c.01538-.01825.03308-.0376.04944-.0545,0,0,.30566-.31372.8407-.86273a10.80782,10.80782,0,0,1,1.00708-.94946,13.7862,13.7862,0,0,1,1.40344-1.12927,18.972,18.972,0,0,1,1.78589-1.15833c.66565-.34967,1.36682-.71094,2.10828-1.02319.73645-.32092,1.50208-.62024,2.26721-.92474.76465-.31049,1.54089-.60986,2.29041-.96136.7627-.32825,1.49036-.71973,2.21472-1.09692.69946-.41772,1.4093-.80127,2.04468-1.25446l.95459-.64166q.44879-.34259.87683-.66931c.57959-.42554,1.106-.85382,1.57361-1.27155.47192-.41321.92285-.77295,1.2926-1.12775.37061-.35352.6936-.66168.95972-.91547Z"/>
          <path class="oca" d="M213.07686,195.78888l.6897.0116a7.84906,7.84906,0,0,1,1.799.38892c.3512.14392.75183.27185,1.13989.47247.40088.18036.80652.39923,1.22327.63263.82751.47321,1.68677,1.02,2.51819,1.59167,1.67053,1.14093,3.28979,2.3114,4.53882,3.09241,1.24487.79022,2.09595,1.21088,2.09595,1.21088a1.00267,1.00267,0,1,1-.9939,1.73761l-.02368-.01581s-.88428-.58673-2.06909-1.56665c-1.1925-.97223-2.668-2.34937-4.15991-3.66742-.74573-.66339-1.50891-1.29443-2.251-1.85193-.373-.2749-.738-.53546-1.09985-.75562-.35193-.24213-.71411-.408-1.03845-.59161a7.66307,7.66307,0,0,0-1.68579-.59186Z"/>
          <g class="ocb">
            <path class="ok" d="M79.90864,212.52508s-.31091.37878-.8551,1.04163a8.29353,8.29353,0,0,1-1.11975,1.10724,9.28647,9.28647,0,0,1-1.64673,1.22638l-.48132.31476-.53516.262q-.5462.265-1.12732.54706c-.39978.1554-.82092.28906-1.24634.43964l-.647.22266q-.33673.07535-.67957.15216c-.45837.09454-.91992.22308-1.39636.29315q-.71906.08-1.45361.1618a12.33721,12.33721,0,0,1-1.48437.04449,9.3235,9.3235,0,0,1-1.496-.06122c-.49634-.06421-.99548-.10992-1.48657-.19019q-.728-.16983-1.44861-.338a10.21969,10.21969,0,0,1-1.39307-.44305,9.81382,9.81382,0,0,1-1.32617-.5246q-.6297-.31311-1.23682-.61493a11.91652,11.91652,0,0,1-1.11829-.7038,12.61071,12.61071,0,0,1-1.90393-1.48865,10.18453,10.18453,0,0,1-1.39319-1.49042c-.19067-.23627-.39014-.44073-.536-.659l-.38416-.61139c-.46167-.73645-.72559-1.15723-.72559-1.15723a.18062.18062,0,0,1,.2373-.25568l.111.05872.359.19012c.21619.13177.56482.298.92957.53711a12.14423,12.14423,0,0,0,1.355.75378,17.01989,17.01989,0,0,0,1.70068.801,16.39582,16.39582,0,0,0,1.93811.74823c.35278.095.65466.27393,1.0271.3476.36938.07648.72046.19092,1.0802.2923.72913.1795,1.48462.33655,2.24512.47461.38574.05963.77563.09644,1.156.185.389.04828.785.066,1.176.10632a6.89847,6.89847,0,0,0,1.177.085c.3916-.015.78906.09076,1.17627.04938.38818-.01971.77686-.01855,1.168.00061.38684-.00244.75732-.06836,1.14185-.06555l.57129-.01758c.18042-.03156.36206-.05615.54614-.07245q.55975-.056,1.09375-.10944c.34619-.06183.6853-.1333,1.03125-.18262l.51685-.07245c.1582-.0423.311-.09131.47168-.12524.63513-.15808,1.27856-.26453,1.75659-.43378a7.97477,7.97477,0,0,0,1.45947-.50873c.41174-.21106.78223-.3363,1.01465-.43915.24011-.09613.37817-.13885.37817-.13885l.10547-.03259a.18483.18483,0,0,1,.19751.29382Z"/>
          </g>
          <g class="ocb">
            <path class="ok" d="M209.57063,212.51385s.13794.04266.37817.13885c.2323.10284.60291.22809,1.01465.43909a7.97483,7.97483,0,0,0,1.45947.50879c.478.16925,1.12146.27563,1.75659.43372.16052.03394.31348.083.47168.12531l.51685.07245c.34583.04932.68506.12079,1.03125.18256l1.09375.10944c.184.01636.36572.04089.54614.07251l.57129.01758c.38452-.00281.75488.063,1.14185.06555.391-.01917.77979-.02032,1.168-.00067.38721.04144.78467-.06433,1.17627-.04932a6.91091,6.91091,0,0,0,1.177-.085c.391-.04034.787-.058,1.176-.10632.38037-.08856.77014-.12537,1.15588-.185.76062-.13806,1.51611-.29511,2.24524-.47467.35974-.10138.71082-.21582,1.08008-.29224.37256-.07367.67444-.25262,1.02722-.3476a16.375,16.375,0,0,0,1.938-.74829,17.02267,17.02267,0,0,0,1.70081-.801,12.156,12.156,0,0,0,1.355-.75385c.36475-.23907.71326-.40533.92957-.537l.359-.19012.11072-.05859a.18057.18057,0,0,1,.23743.25555l-.72546,1.15717q-.174.27686-.38428.61139c-.14575.21826-.34521.42279-.53589.65906a10.18581,10.18581,0,0,1-1.39331,1.49042,12.60309,12.60309,0,0,1-1.90381,1.48859,11.91981,11.91981,0,0,1-1.11829.7038q-.60626.30139-1.23694.615a9.81549,9.81549,0,0,1-1.32617.5246,10.20888,10.20888,0,0,1-1.39307.44305q-.71942.16782-1.44849.338c-.49109.08026-.99023.126-1.48657.19019a9.32441,9.32441,0,0,1-1.49609.06116,12.3234,12.3234,0,0,1-1.48425-.04443q-.7337-.08167-1.45361-.1618c-.47656-.07007-.938-.19867-1.39636-.29315q-.34277-.07681-.67957-.15222l-.64709-.22266c-.42529-.15051-.84644-.28418-1.24622-.43958q-.58044-.28162-1.12732-.54712l-.53516-.2619q-.24536-.16049-.48145-.31482a9.28948,9.28948,0,0,1-1.64673-1.22638,8.29894,8.29894,0,0,1-1.11963-1.10724c-.54419-.66284-.8551-1.04163-.8551-1.04163a.18485.18485,0,0,1,.19629-.29419Z"/>
          </g>
          <path class="oe" d="M226.57765,204.05025a22.4463,22.4463,0,0,0,9.55,6.10947,15.59361,15.59361,0,0,1-9.85,7.41936,26.88121,26.88121,0,0,1-3.65,6.15951c5.36,8.2493,9.51,20.16828,9.44,37.27682-.1,25.43785-6.92,43.38635-14.01,46.3861-.57,19.54834-17.72,35.437-28.07,35.437,0,13.10888-17.12,17.76852-20.98,18.85839,0,5.34958-12.43,12.279-24.85,12.36895-12.43.09-24.86-6.66942-24.86-12.67892-8.29,0-21.54-8.68927-21.54-18.43844-14.99,0-29.2-16.20859-30.25-36.56692-9.59-2.61977-15.66-25.28784-15.66-45.27614,0-19.86832,6.04-32.75724,13.06-41.02656-.52-.81994-1-1.67985-1.45-2.55978a15.71861,15.71861,0,0,1-10.5-7.55936,22.27361,22.27361,0,0,0,9.59-6.14944"/>
          <path class="oax" d="M62.54762,203.81028a35.18962,35.18962,0,0,1,2.62-14.84878c-2.44-16.49861-5.16-34.13713-5.16-39.93663,0-4.99958,6-16.25864,6-22.02811,0-8.74926-7.58-22.39813-9.75-30.27747-.87-3.1497-9.99-6.47943-11.67-13.29886-1.3-5.27958-3.53-16.87858-3.53-16.87858-6.15,1.80984-13.07,3.25973-16.01,1.81985-1.87-.91991-3.01-3.40969-1.29-8.73925,1.42-4.39965,5.63-29.8975,5.63-29.8975,1.25-6.49945,7.89-10.51907,14.31-9.21919,0,0,17.68,2.61977,27.12,2.61977,13.73,0,24.52-2.00984,29.13,1.15988,4.15,2.85974,6.27,13.08892,11.06,14.68876,7,2.32982,58,1.3299,68-1.99983,7.47-2.48978,10.5-19.99831,20-19.99831,10.06,0,26.25,16.99856,36,16.99856,5.77,0,19.72-1.74985,23,2.99975,5.76,8.32931-2.95,29.71752-10,36.99687-3.88,3.99966-9.25,6.49945-13,3.99966-2.24-1.49987-5.87-2.64974-8-.99992-7.77,6.01951,3,19.99831,3,35.997,0,7.61935-12,17.49852-12,25.9978,0,13.32889,5.75,34.36709,5.75,48.99586,0,.27,0,.54994-.01.81994,2.02,4.12966,2.97,9.87917,2.83,15.26873"/>
          <path class="occ" d="M220.32646,167.47324c4.60625,2.21751,7.03271,8.09235,6.59117,13.9351,0,0-3.6075-5.01284-7.08632-5.01284"/>
          <path class="occ" d="M60.43957,150.55s-5.70985,7.4115-1.58046,15.82291c0,0,1.56143-5.832,4.41136-6.66294"/>
          <path class="ocd" d="M65.384,180.459a12.511,12.511,0,0,1-8.3345-5.78674s6.20373,1.70317,8.3345-.711"/>
          <path class="occ" d="M65.90138,117.15791a23.2114,23.2114,0,0,0-2.63091,16.80564s1.31293-6.22959,5.792-7.48031"/>
          <path class="ocd" d="M59.43957,100.126s-4.76575,6.0899.41954,14.823c0,0-.5628-5.42861,2.41136-6.66294"/>
          <path class="oce" d="M44.71888,73.0463s-2.89232,12.92638,3.24805,20.96264c0,0-.5628-5.42861,2.41136-6.66294"/>
          <path class="oce" d="M52.30384,90.91949s-1.78563,3.2717,2.22189,9.40734c0,0-.24113-4.92076,2.306-6.58412"/>
          <path class="occ" d="M41.26781,23.80012a32.165,32.165,0,0,0-12.92865-2.40631s4.04184,2.58022,3.50475,5.755"/>
          <path class="oay" d="M31.81257,22.7287s2.19275.21735,4.35071.6687c1.07434.2442,2.13611.5412,2.92126.79883.78613.25482,1.29639.46393,1.29639.46393a.04711.04711,0,0,1-.01184.09033l-.02393.00305s-.15479.01953-.41162.02985c-.25476.00439-.61523.01337-1.02954-.01343-.41846-.01556-.89246-.06177-1.39478-.12915-.24768-.04547-.51257-.05829-.76978-.11743l-.7876-.14929-.78027-.19122c-.2605-.04913-.50732-.14893-.75305-.21405a12.29984,12.29984,0,0,1-1.32776-.48035,8.27519,8.27519,0,0,1-1.2887-.66028l-.02014-.01337a.04711.04711,0,0,1,.03064-.08612Z"/>
          <path class="ocf" d="M58.34587,23.53233s-2.43167-3.41682-8.72962-3.88463c0,0,1.8354,1.7461,3.38366,3.39051"/>
          <path class="ocf" d="M250.56959,34.91834a32.16532,32.16532,0,0,1,13.14327.44254s-5.50377,1.64645-5.66509,4.8623"/>
          <path class="ocg" d="M260.0218,36.01355a8.27448,8.27448,0,0,1-1.40088.36639,12.289,12.289,0,0,1-1.40015.18225c-.25391.01056-.51648.05469-.78149.04639l-.8031.01819-.80139-.02429c-.26379.0022-.52527-.04248-.77686-.05157-.505-.04266-.97791-.1-1.38977-.17511-.4104-.06335-.76038-.15-1.00818-.20923-.24854-.06555-.39551-.1181-.39551-.1181l-.02258-.00806a.04716.04716,0,0,1,.00781-.09082s.54346-.094,1.36609-.173c.82214-.082,1.9231-.1427,3.02478-.14917,2.20459.02539,4.39246.28674,4.39246.28674a.0471.0471,0,0,1,.01147.09064Z"/>
          <path class="occ" d="M252.2261,65.4463c1.65971,6.15923-2.45517,13.35026-7.21607,16.45021,0,0,2.01016-7.281-.82311-9.29945"/>
          <path class="occ" d="M258.25421,49.16279c1.77325,4.58817,1.12395,12.38831-1.94036,17.26045,0,0,.69977-6.63451-2.962-8.8307"/>
          <path class="ocd" d="M225.38383,101.43369a7.91894,7.91894,0,0,0,8.3345-3.78691s-6.61491.36055-8.47369-4.13282"/>
          <path class="ocd" d="M228.56365,107.95452c4.89595,3.36774,4.54734,13.31456,2.46882,18.60157,0,0-.927-8.6794-4.40587-8.6794"/>
          <path class="occ" d="M216.30966,144.93044c2.003,7.42167,6.42446,12.98369,11.25371,15.17241,0,0-7.85387,1.45961-10.717-3.007"/>
        </g>
      </g>
      <path class="oe" d="M61.00715,275.47577c54.66876,6.58258,108.6858,6.75055,162,0"/>
    </g>
  </g>
</svg>