<svg xmlns="http://www.w3.org/2000/svg" xmlns:xlink="http://www.w3.org/1999/xlink" width="960" height="404" viewBox="0 0 960 404">
  <defs>
    <style>
      .a, .an, .as {
        fill: #f7f2f5;
      }

      .a, .aq, .au, .aw, .bc, .be, .bi, .bo {
        stroke: #7f6371;
      }

      .a, .ab, .ah, .ai, .aj, .al, .ap, .aq, .as, .at, .au, .av, .aw, .ay, .az, .bb, .bc, .bd, .be, .bf, .bg, .bh, .bi, .bj, .bk, .bl, .bm, .bo, .bt, .bw, .by, .bz, .ca, .cd, .cf, .h, .i, .j, .o, .s, .u, .x {
        stroke-linecap: round;
      }

      .a, .ab, .ac, .ah, .ai, .aj, .al, .ap, .aq, .as, .at, .au, .av, .aw, .ay, .az, .bb, .bc, .bd, .be, .bf, .bg, .bh, .bi, .bj, .bk, .bl, .bm, .bo, .bt, .bw, .by, .bz, .ca, .cd, .cf, .h, .i, .j, .o, .s, .u, .x {
        stroke-linejoin: round;
      }

      .a, .ab, .ac, .ah, .ai, .aj, .al, .aq, .aw, .az, .ba, .bb, .bc, .bd, .bf, .bg, .bh, .bi, .bj, .bl, .bm, .bo, .br, .bs, .bt, .bw, .by, .bz, .c, .ca, .cc, .cd, .cf, .e, .h, .i, .j, .o, .p, .s, .u, .x, .y {
        stroke-width: 2px;
      }

      .b {
        fill: #f6f5f6;
      }

      .c {
        fill: #fff6db;
      }

      .ah, .ai, .ba, .bd, .bt, .bw, .by, .c, .s, .u {
        stroke: #8e7c69;
      }

      .ba, .br, .bs, .c, .cc, .e, .p, .y {
        stroke-miterlimit: 10;
      }

      .af, .ah, .al, .bq, .d, .i, .u {
        opacity: 0.2;
      }

      .ah, .ai, .aj, .al, .ap, .aq, .at, .au, .av, .ay, .be, .bg, .bh, .bl, .bs, .cd, .cf, .e, .i, .j, .k, .o, .s, .x, .y {
        fill: none;
      }

      .ab, .bm, .e, .i, .o, .p {
        stroke: #dba758;
      }

      .f, .m, .p {
        fill: #dba758;
      }

      .ak, .bu, .f {
        opacity: 0.1;
      }

      .az, .cc, .g {
        fill: #ff7e6d;
      }

      .af, .bu, .h {
        fill: #bf4e45;
      }

      .az, .ca, .cc, .h, .x, .y {
        stroke: #bf4e45;
      }

      .ap, .at, .j {
        stroke: #fff;
      }

      .aw, .ba, .bd, .bm, .l {
        fill: #ffdb6d;
      }

      .n {
        fill: #ffe9a6;
      }

      .ai, .aj, .bp, .bv, .q, .w {
        opacity: 0.4;
      }

      .ak, .bp, .bq, .br, .r, .u {
        fill: #8e7c69;
      }

      .t {
        fill: #fff8e2;
      }

      .v {
        fill: #ffa69a;
      }

      .w, .z {
        fill: #d85750;
      }

      .aa, .ab, .bt, .ca {
        fill: #fff7e0;
      }

      .ac {
        fill: #553143;
        stroke: #553143;
      }

      .ad {
        fill: #ffe698;
      }

      .ae, .by {
        fill: #fffbee;
      }

      .ag {
        fill: #ceb797;
      }

      .aj, .al {
        stroke: #e5ccae;
      }

      .am {
        fill: #e5ccae;
      }

      .ao {
        clip-path: url(#a);
      }

      .ap {
        stroke-width: 8px;
      }

      .ar {
        clip-path: url(#b);
      }

      .as, .av, .ay {
        stroke: #e5e0e3;
      }

      .as, .av {
        stroke-width: 12px;
      }

      .at {
        stroke-width: 22px;
      }

      .au {
        stroke-width: 16px;
      }

      .ax {
        clip-path: url(#c);
      }

      .ay {
        stroke-width: 6px;
      }

      .bb {
        fill: #27cba4;
      }

      .bb, .bh, .bz {
        stroke: #189675;
      }

      .bc, .bj, .bx {
        fill: #fff;
      }

      .be {
        stroke-width: 3px;
      }

      .bf {
        fill: #56959e;
      }

      .bf, .bg {
        stroke: #1a626e;
      }

      .bi, .bk {
        fill: #d2c7cc;
      }

      .bj, .bk, .bl {
        stroke: #d2c7cc;
      }

      .bn {
        fill: #fff3ce;
      }

      .bo {
        fill: #fefdfd;
      }

      .br, .bs {
        stroke: #726051;
      }

      .bv {
        fill: #ffb2a7;
      }

      .bw {
        fill: #fff6e5;
      }

      .bz {
        fill: #eafaf6;
      }

      .cb {
        fill: #ff988b;
      }

      .cd {
        stroke: #ffa69a;
      }

      .ce {
        fill: #fff0c3;
      }

      .cf {
        stroke: #d85750;
      }
    </style>
    <clipPath id="a">
      <rect class="a" x="255" y="4" width="504" height="336" rx="6" ry="6"/>
    </clipPath>
    <clipPath id="b">
      <path class="a" d="M240.33333,324H769.66667A5.33333,5.33333,0,0,1,775,329.33333v0A10.66666,10.66666,0,0,1,764.33334,340H245.66666A10.66666,10.66666,0,0,1,235,329.33334v0A5.33333,5.33333,0,0,1,240.33333,324Z"/>
    </clipPath>
    <clipPath id="c">
      <path class="a" d="M315,60H687a6,6,0,0,1,6,6V84a0,0,0,0,1,0,0H309a0,0,0,0,1,0,0V66A6,6,0,0,1,315,60Z"/>
    </clipPath>
  </defs>
  <title>introduction-960</title>
  <g>
    <path class="b" d="M952,392V380H8v12a12,12,0,0,0,12,12H940A12,12,0,0,0,952,392Z"/>
    <g>
      <path class="c" d="M876,26h64a0,0,0,0,1,0,0V338a2,2,0,0,1-2,2H878a2,2,0,0,1-2-2V26A0,0,0,0,1,876,26Z"/>
      <g class="d">
        <line class="e" x1="887" y1="38" x2="887" y2="46"/>
        <line class="e" x1="891.2" y1="38" x2="891.2" y2="46"/>
        <line class="e" x1="895.4" y1="38" x2="895.4" y2="46"/>
        <line class="e" x1="899.6" y1="38" x2="899.6" y2="46"/>
        <line class="e" x1="903.8" y1="38" x2="903.8" y2="46"/>
        <line class="e" x1="908" y1="38" x2="908" y2="46"/>
        <line class="e" x1="912.2" y1="38" x2="912.2" y2="46"/>
        <line class="e" x1="916.4" y1="38" x2="916.4" y2="46"/>
        <line class="e" x1="920.6" y1="38" x2="920.6" y2="46"/>
        <line class="e" x1="924.8" y1="38" x2="924.8" y2="46"/>
        <line class="e" x1="929" y1="38" x2="929" y2="46"/>
      </g>
      <rect class="f" x="877" y="27" width="62" height="2"/>
      <path class="g" d="M878,6h60a2,2,0,0,1,2,2V26a0,0,0,0,1,0,0H876a0,0,0,0,1,0,0V8A2,2,0,0,1,878,6Z"/>
      <polygon class="h" points="896.308 16 892.385 14 892.385 18 896.308 16"/>
      <polygon class="h" points="888.462 16 884.538 14 884.538 18 888.462 16"/>
      <g>
        <line class="i" x1="890.34615" y1="114" x2="925.65385" y2="114"/>
        <line class="j" x1="890.34615" y1="116" x2="925.65385" y2="116"/>
      </g>
      <g>
        <line class="i" x1="890.34615" y1="188" x2="925.65385" y2="188"/>
        <line class="j" x1="890.34615" y1="190" x2="925.65385" y2="190"/>
      </g>
      <g>
        <line class="i" x1="890.34615" y1="262" x2="925.65385" y2="262"/>
        <line class="j" x1="890.34615" y1="264" x2="925.65385" y2="264"/>
      </g>
      <g>
        <rect class="k" x="892" y="62" width="32" height="32"/>
        <polygon class="l" points="893 93 913 91 920 74 912 66 895 73 893 93"/>
        <g class="d">
          <polygon class="m" points="894.702 89.815 912.701 88.015 910.226 89.858 917.226 72.858 920 74 913 91 913 91 895 92.8 894.702 89.815"/>
        </g>
        <polygon class="n" points="913.142 68.774 896.142 75.774 897.985 73.299 896.285 90.299 893.3 90 895 73 895 73 912 66 913.142 68.774"/>
        <line class="o" x1="904" y1="82" x2="893" y2="93"/>
        <circle class="p" cx="904" cy="82" r="2"/>
        <polygon class="o" points="893 93 913 91 920 74 912 66 895 73 893 93"/>
        <rect class="m" x="905.77817" y="69.22183" width="18" height="4" transform="translate(318.29376 -625.98546) rotate(45)"/>
        <g class="q">
          <rect class="n" x="907.47487" y="64.41852" width="3.99996" height="3.00001" transform="translate(219.77402 662.41037) rotate(-45.00062)"/>
        </g>
        <g class="d">
          <rect class="r" x="918.08146" y="75.02512" width="4.00005" height="3.00001" transform="translate(215.36776 673.00194) rotate(-44.99938)"/>
        </g>
        <rect class="s" x="905.77817" y="69.22183" width="18" height="4" transform="translate(318.29376 -625.98546) rotate(45)"/>
      </g>
      <g>
        <rect class="t" x="892" y="284" width="32" height="32"/>
        <g>
          <path class="l" d="M920,293H904a3,3,0,0,0-3,3v16a3,3,0,0,0,3,3h16a3,3,0,0,0,3-3V296A3,3,0,0,0,920,293Zm-1,18H905V297h14Z"/>
          <path class="o" d="M920,293H904a3,3,0,0,0-3,3v16a3,3,0,0,0,3,3h16a3,3,0,0,0,3-3V296A3,3,0,0,0,920,293Zm-1,18H905V297h14Z"/>
        </g>
        <rect class="u" x="893" y="287" width="22" height="22" rx="3" ry="3"/>
        <rect class="g" x="893" y="285" width="22" height="22" rx="3" ry="3"/>
        <path class="v" d="M912,285H896a3,3,0,0,0-3,3v3a3,3,0,0,1,3-3h16a3,3,0,0,1,3,3v-3A3,3,0,0,0,912,285Z"/>
        <path class="w" d="M912,304H896a3,3,0,0,1-3-3v3a3,3,0,0,0,3,3h16a3,3,0,0,0,3-3v-3A3,3,0,0,1,912,304Z"/>
        <rect class="x" x="893" y="285" width="22" height="22" rx="3" ry="3"/>
      </g>
      <path class="v" d="M938,6H878a2,2,0,0,0-2,2v3a2,2,0,0,1,2-2h60a2,2,0,0,1,2,2V8A2,2,0,0,0,938,6Z"/>
      <path class="y" d="M878,6h60a2,2,0,0,1,2,2V26a0,0,0,0,1,0,0H876a0,0,0,0,1,0,0V8A2,2,0,0,1,878,6Z"/>
      <g>
        <rect class="t" x="892" y="136" width="32" height="32"/>
        <polygon class="g" points="893 137 904.021 167 909 153 923 146.607 893 137"/>
        <rect class="v" x="905.59637" y="128.85526" width="3.00001" height="28.46743" transform="translate(494.18987 963.33681) rotate(-72.24386)"/>
        <polygon class="x" points="893 137 904.021 167 909 153 923 146.607 893 137"/>
        <g class="d">
          <path class="z" d="M902.17346,163.24146l4-11.24665A3.00767,3.00767,0,0,1,909.00012,150H910a1.5,1.5,0,0,1,0,3h-.99988L909,153.0001l-4,11.24665a1.5,1.5,0,1,1-2.82654-1.00528Z"/>
        </g>
      </g>
      <g>
        <rect class="t" x="892" y="210" width="32" height="32"/>
        <polygon class="aa" points="923 241 914 238 920 232 923 241"/>
        <rect class="aa" x="898.75732" y="218.1716" width="8.48526" height="5.65678" transform="translate(108.21197 703.24679) rotate(-45)"/>
        <rect class="l" x="906.75732" y="220.51467" width="8.48526" height="16.97063" transform="translate(104.89826 711.24679) rotate(-45)"/>
        <polygon class="ab" points="923 241 914 238 920 232 923 241"/>
        <rect class="g" x="894.25735" y="212.9645" width="8.48526" height="7.07104" transform="translate(110.07592 698.74682) rotate(-45)"/>
        <polygon class="ac" points="921.999 237.997 923 241 919.997 239.999 921.999 237.997"/>
        <rect class="v" x="898.93932" y="211.02517" width="3.00001" height="7.07106" transform="translate(112.01607 699.55146) rotate(-45.0001)"/>
        <g class="d">
          <rect class="z" x="895.06066" y="214.90383" width="3.00001" height="7.07106" transform="translate(108.13741 697.94489) rotate(-45.0001)"/>
        </g>
        <rect class="ad" x="911.44" y="218.57704" width="3.00001" height="16.96866" transform="translate(106.8375 712.05112) rotate(-45.00002)"/>
        <rect class="ae" x="903.44" y="216.23198" width="3.00001" height="5.65876" transform="translate(110.15023 704.04952) rotate(-44.99991)"/>
        <rect class="o" x="898.75732" y="218.1716" width="8.48526" height="5.65678" transform="translate(108.21197 703.24679) rotate(-45)"/>
        <g class="d">
          <rect class="m" x="905.31066" y="217.72919" width="3.00001" height="21.92031" transform="translate(103.89083 708.19341) rotate(-44.99999)"/>
        </g>
        <rect class="x" x="894.25735" y="212.9645" width="8.48526" height="7.07104" transform="translate(110.07592 698.74682) rotate(-45)"/>
        <rect class="o" x="906.75732" y="220.51467" width="8.48526" height="16.97063" transform="translate(104.89826 711.24679) rotate(-45)"/>
      </g>
      <rect class="af" x="877" y="23" width="62" height="2"/>
    </g>
    <rect class="ag" x="1" y="340" width="958" height="40" rx="4" ry="4"/>
    <line class="ah" x1="3.09679" y1="349.36275" x2="221.01901" y2="342.42855"/>
    <line class="ah" x1="2.72644" y1="369.341" x2="168.04864" y2="365.38096"/>
    <line class="ah" x1="3.64375" y1="377.29908" x2="223.01901" y2="366.42855"/>
    <line class="ah" x1="731.01901" y1="357.35444" x2="958" y2="346.35444"/>
    <line class="ai" x1="244.00249" y1="345.02631" x2="577.00223" y2="352.4263"/>
    <line class="ai" x1="641.51901" y1="350.25444" x2="864.01901" y2="344.74243"/>
    <line class="aj" x1="169.54346" y1="374.68277" x2="249.54346" y2="378.68277"/>
    <line class="ah" x1="774.01901" y1="366.35444" x2="959" y2="370.35444"/>
    <line class="ah" x1="195.5479" y1="371.26299" x2="275.5479" y2="375.26299"/>
    <line class="ah" x1="304.01901" y1="376.68277" x2="484.01901" y2="369.68277"/>
    <line class="ah" x1="433.04159" y1="360.89986" x2="613.04159" y2="364.89986"/>
    <line class="ah" x1="80.98907" y1="352.98861" x2="184.06521" y2="357.60399"/>
    <path class="ak" d="M937.89155,379.791c-9.29707-4.40356-5.2138-6.203-6.53265-12.845-1.34906-6.794-4.954-6.30047-7.90192-12.93261-2.94752-6.63122-13.774-8.13623-7.56887-14.0134h39.17618A3.96825,3.96825,0,0,1,959,344v31.86771a3.96425,3.96425,0,0,1-3.8596,3.99931C948.99841,379.97728,938.61429,380.1333,937.89155,379.791Z"/>
    <path class="ak" d="M22.46953,379.791c9.44891-4.40356,5.29895-6.203,6.63935-12.845,1.37109-6.794,5.0349-6.30047,8.031-12.93261,2.99566-6.63122,10.76527-8.13623,4.45878-14.0134H5a4,4,0,0,0-4,4v31.86771A3.99445,3.99445,0,0,0,4.92263,379.867C11.16493,379.97728,21.735,380.1333,22.46953,379.791Z"/>
    <line class="al" x1="78.50862" y1="376.59591" x2="168.50862" y2="374.59591"/>
    <line class="aj" x1="2.02224" y1="351.37482" x2="223.49152" y2="347.667"/>
    <line class="aj" x1="156.0078" y1="353.30946" x2="378.47708" y2="349.60164"/>
    <line class="aj" x1="397.00008" y1="358.05265" x2="619.46936" y2="354.34483"/>
    <line class="aj" x1="383.00661" y1="376.1882" x2="605.47589" y2="370.48038"/>
    <line class="aj" x1="615.98718" y1="347.00169" x2="801.42509" y2="342.24397"/>
    <line class="aj" x1="731.28437" y1="378.06226" x2="959" y2="372.35444"/>
    <line class="aj" x1="720.2654" y1="360.00703" x2="958" y2="354.29921"/>
    <line class="al" x1="1.97863" y1="364.80999" x2="158.05457" y2="363.66846"/>
    <path class="am" d="M1,344H1a3.99581,3.99581,0,0,1,4-3.99581L955.00514,341A3.99743,3.99743,0,0,1,959,345Z"/>
    <path class="am" d="M78.35234,342.22727c.92058.285,2.0689.61069,3.46268.98075,32.1801,8.54418,38.21161,4.63083,76.04114,5.88887,29.92079.995,30.46026-1.41125,60.46677-1.16123s-69.99265.23171-39.98614.48173c30.00238.25,30.165-3.27368,60.16735-3.02369,28.96449.24134,29.21033,3.46148,55.18153.56831l-9.41331-3.5973Z"/>
    <path class="s" d="M5.0032,340H954.9968A4.0032,4.0032,0,0,1,959,344.0032V376a4,4,0,0,1-4,4H5a4,4,0,0,1-4-4V344.0032A4.0032,4.0032,0,0,1,5.0032,340Z"/>
    <line class="ai" x1="81.99758" y1="379.67503" x2="161.66424" y2="377.3417"/>
    <line class="ah" x1="138.06981" y1="369.23554" x2="306.06981" y2="365.23554"/>
    <line class="ah" x1="138.04018" y1="377.28314" x2="361.04018" y2="366.28314"/>
    <line class="aj" x1="307.56463" y1="374.68277" x2="488" y2="377"/>
    <line class="ah" x1="333.56907" y1="370.33429" x2="513.56907" y2="374.33429"/>
    <line class="ah" x1="219.01023" y1="352.98861" x2="422.08637" y2="357.60399"/>
    <line class="al" x1="216.52979" y1="376.59591" x2="306.52979" y2="374.59591"/>
    <line class="aj" x1="139.0434" y1="351.2294" x2="361.51268" y2="347.52158"/>
    <line class="al" x1="138.9998" y1="364.66457" x2="296.07574" y2="363.52304"/>
    <line class="ai" x1="220.01874" y1="379.67503" x2="299.68541" y2="377.3417"/>
    <line class="ah" x1="408.05908" y1="348.35444" x2="729.05908" y2="341.35444"/>
    <line class="ah" x1="408.08871" y1="368.30685" x2="576.08871" y2="364.30685"/>
    <line class="ah" x1="408.05908" y1="376.35444" x2="631.05908" y2="365.35444"/>
    <line class="aj" x1="577.58353" y1="373.75408" x2="757.58353" y2="377.75408"/>
    <line class="ah" x1="603.58797" y1="370.33429" x2="783.58797" y2="374.33429"/>
    <line class="ah" x1="489.02914" y1="352.05992" x2="692.10528" y2="356.67529"/>
    <line class="al" x1="486.54869" y1="375.66721" x2="576.54869" y2="373.66721"/>
    <line class="aj" x1="409.06231" y1="350.30071" x2="631.53159" y2="346.59288"/>
    <line class="al" x1="409.0187" y1="363.73588" x2="566.09464" y2="362.59435"/>
    <line class="ai" x1="490.03765" y1="378.74634" x2="569.70431" y2="376.41301"/>
    <line class="ah" x1="671.14639" y1="348.35444" x2="914.65391" y2="341.35444"/>
    <line class="aj" x1="799.74601" y1="373.75408" x2="939.526" y2="377.75408"/>
    <path class="ah" d="M819.47274,370.33429"/>
    <line class="al" x1="730.68786" y1="375.66721" x2="798.961" y2="373.66721"/>
    <g>
      <g>
        <rect class="an" x="255" y="4" width="504" height="336" rx="6" ry="6"/>
        <g class="ao">
          <path class="ap" d="M255,10a5.95368,5.95368,0,0,1,5.90625-6h492.1875A5.95368,5.95368,0,0,1,759,10"/>
        </g>
        <rect class="aq" x="255" y="4" width="504" height="336" rx="6" ry="6"/>
      </g>
      <g>
        <path class="an" d="M240.33333,324H769.66667A5.33333,5.33333,0,0,1,775,329.33333v0A10.66666,10.66666,0,0,1,764.33334,340H245.66666A10.66666,10.66666,0,0,1,235,329.33334v0A5.33333,5.33333,0,0,1,240.33333,324Z"/>
        <g class="ar">
          <path class="as" d="M783,332c0,4.41828-13.27706,8-19.85714,8H246.85714C240.27706,340,227,336.41828,227,332"/>
          <path class="ap" d="M235,328c0-2.20914,2.66654-4,5.95588-4H769.04412C772.33346,324,775,325.79086,775,328"/>
          <line class="at" x1="473" y1="324" x2="537" y2="324"/>
          <line class="au" x1="473" y1="324" x2="537" y2="324"/>
          <line class="av" x1="473" y1="324" x2="537" y2="324"/>
        </g>
        <path class="aq" d="M240.33333,324H769.66667A5.33333,5.33333,0,0,1,775,329.33333v0A10.66666,10.66666,0,0,1,764.33334,340H245.66666A10.66666,10.66666,0,0,1,235,329.33334v0A5.33333,5.33333,0,0,1,240.33333,324Z"/>
      </g>
      <g>
        <rect class="aw" x="271" y="20" width="472" height="304"/>
        <g>
          <g>
            <path class="an" d="M315,60H687a6,6,0,0,1,6,6V84a0,0,0,0,1,0,0H309a0,0,0,0,1,0,0V66A6,6,0,0,1,315,60Z"/>
            <g class="ax">
              <path class="ap" d="M309,66a5.93972,5.93972,0,0,1,5.87755-6h372.2449A5.93972,5.93972,0,0,1,693,66"/>
              <line class="ay" x1="693" y1="84" x2="309" y2="84"/>
            </g>
            <path class="aq" d="M315,60H687a6,6,0,0,1,6,6V84a0,0,0,0,1,0,0H309a0,0,0,0,1,0,0V66A6,6,0,0,1,315,60Z"/>
          </g>
          <circle class="az" cx="322" cy="72" r="4"/>
          <circle class="ba" cx="336" cy="72" r="4"/>
          <circle class="bb" cx="350" cy="72" r="4"/>
          <rect class="bc" x="333.23077" y="84" width="312" height="208"/>
          <path class="a" d="M309,84h24a0,0,0,0,1,0,0V292a0,0,0,0,1,0,0H315a6,6,0,0,1-6-6V84A0,0,0,0,1,309,84Z"/>
          <path class="a" d="M645,84h48a0,0,0,0,1,0,0V286a6,6,0,0,1-6,6H645a0,0,0,0,1,0,0V84A0,0,0,0,1,645,84Z"/>
          <g>
            <rect class="bd" x="320" y="271" width="6" height="6"/>
            <rect class="az" x="316" y="267" width="6" height="6"/>
          </g>
          <g>
            <line class="be" x1="324.46154" y1="251.19239" x2="318.57692" y2="245.19239"/>
            <circle class="bc" cx="319" cy="246" r="4"/>
          </g>
          <g>
            <rect class="bf" x="317" y="219" width="8" height="7"/>
            <path class="bg" d="M317,217.99994c0-5.33325,8-5.33325,8,0"/>
          </g>
          <polygon class="az" points="326 96.333 316 93 319.333 103 322.667 99.667 326 96.333"/>
          <rect class="bb" x="317" y="191" width="8" height="7"/>
          <rect class="bd" x="316" y="142" width="10" height="8"/>
          <circle class="az" cx="321" cy="171" r="4"/>
          <line class="aq" x1="309.75" y1="110" x2="332.30769" y2="110"/>
          <line class="aq" x1="309.75" y1="134" x2="332.30769" y2="134"/>
          <line class="aq" x1="309.75" y1="159" x2="332.30769" y2="159"/>
          <line class="aq" x1="309.75" y1="183" x2="332.30769" y2="183"/>
          <line class="aq" x1="309.75" y1="206" x2="332.30769" y2="206"/>
          <line class="aq" x1="309.75" y1="235" x2="332.30769" y2="235"/>
          <line class="aq" x1="309.5" y1="259" x2="332.5" y2="259"/>
          <g>
            <g>
              <polygon class="bb" points="319 118 323 118 325 122 321 128 317 122 319 118"/>
              <rect class="bb" x="317" y="116" width="8" height="2"/>
            </g>
            <line class="bh" x1="321" y1="128" x2="321" y2="122"/>
          </g>
          <g>
            <rect class="bi" x="645" y="84" width="48" height="8"/>
            <line class="aq" x1="650" y1="88" x2="666" y2="88"/>
          </g>
          <g>
            <rect class="bi" x="645" y="132" width="48" height="8"/>
            <line class="aq" x1="650" y1="136" x2="666" y2="136"/>
          </g>
          <g>
            <rect class="bi" x="645" y="196" width="48" height="8"/>
            <line class="aq" x1="650" y1="200" x2="666" y2="200"/>
          </g>
          <rect class="bj" x="653" y="148" width="16" height="8"/>
          <rect class="bj" x="669" y="148" width="16" height="8"/>
          <rect class="bj" x="653" y="164" width="16" height="8"/>
          <rect class="bj" x="669" y="164" width="16" height="8"/>
          <g>
            <rect class="bj" x="653" y="228" width="16" height="8"/>
            <rect class="bj" x="669" y="228" width="16" height="8"/>
          </g>
          <g>
            <rect class="bj" x="653" y="244" width="16" height="8"/>
            <rect class="bj" x="669" y="244" width="16" height="8"/>
          </g>
          <rect class="bj" x="653" y="180" width="16" height="8"/>
          <rect class="bj" x="669" y="180" width="16" height="8"/>
          <g>
            <rect class="bj" x="653" y="100" width="32" height="8"/>
            <line class="bj" x1="677" y1="100" x2="677" y2="108"/>
            <polygon class="bk" points="682.195 103.293 680.808 104.707 679.421 103.293 682.195 103.293"/>
          </g>
          <g>
            <rect class="bj" x="653" y="116" width="32" height="8"/>
            <line class="bj" x1="677" y1="116" x2="677" y2="124"/>
            <polygon class="bk" points="682.195 119.293 680.808 120.707 679.421 119.293 682.195 119.293"/>
          </g>
          <g>
            <rect class="bj" x="653" y="212" width="32" height="8"/>
            <line class="bj" x1="677" y1="212" x2="677" y2="220"/>
            <polygon class="bk" points="682.195 215.293 680.808 216.707 679.421 215.293 682.195 215.293"/>
          </g>
          <rect class="bj" x="419" y="224" width="156" height="36"/>
          <g>
            <rect class="bj" x="419" y="152" width="156" height="72"/>
            <rect class="bj" x="510" y="152" width="65" height="72"/>
            <rect class="bj" x="510" y="196" width="65" height="28"/>
            <rect class="bj" x="551" y="196" width="24" height="28"/>
            <rect class="bj" x="551" y="212" width="24" height="12"/>
            <rect class="bj" x="563" y="212" width="12" height="12"/>
          </g>
          <line class="bl" x1="431" y1="207" x2="455" y2="207"/>
          <line class="bl" x1="431" y1="212" x2="445" y2="212"/>
          <rect class="bm" x="419" y="104" width="156" height="48"/>
          <g>
            <path class="bn" d="M453.73783,130.81482c-2.59128-.87659-3.778-2.54321-3.778-7.25928,0-2.279-1.59806-2.22223-1.59806-2.22223l-.00431.00128a1.11488,1.11488,0,0,0-.53109-.86176A14.26664,14.26664,0,0,0,444.34677,120c-.41185,0-.40035.35132-.22077.94574.09482.31348.4061,1.27649,1.1843,1.27649.5943.41858,0,1.09839,0,1.09839l-2.32454.53119-.72648,1.18524-4.21376,1.4895a3.03422,3.03422,0,0,0,1.40746,2.30212c1.35478.82526,4.84015.801,4.84015.801a7.667,7.667,0,0,1,.727,6.37036A14.19874,14.19874,0,0,1,453.73783,130.81482Z"/>
            <g>
              <path class="s" d="M453.73783,130.81481c-2.59117-.87654-3.77778-2.54321-3.77778-7.25926,0-2.279-1.59829-2.22222-1.59829-2.22222"/>
              <path class="s" d="M446.20138,121.98667a1.77435,1.77435,0,0,0,.5225-.48652"/>
              <path class="s" d="M448.39446,121.50032c-.08414-.49815-.24545-.89266-.568-1.02743A14.26615,14.26615,0,0,0,444.347,120c-.412,0-.40047.35136-.221.94577.09468.31349.40613,1.27645,1.18442,1.27645a1.701,1.701,0,0,0,.8909-.23555"/>
              <path class="s" d="M445.01988,136a7.66764,7.66764,0,0,0-.7265-6.37037s-3.48548.0243-4.84028-.80093a3.03458,3.03458,0,0,1-1.40759-2.30213l4.21368-1.48953.7265-1.18519,2.32466-.53122s.59425-.67981.00013-1.09841"/>
            </g>
          </g>
          <line class="s" x1="459" y1="125" x2="483" y2="125"/>
          <line class="s" x1="459" y1="130" x2="473" y2="130"/>
          <line class="s" x1="459" y1="130" x2="473" y2="130"/>
        </g>
        <rect class="bo" x="271" y="20" width="472" height="16"/>
        <g>
          <g>
            <line class="aq" x1="279" y1="28" x2="307" y2="28"/>
            <line class="aq" x1="325" y1="28" x2="332" y2="28"/>
            <line class="aq" x1="340" y1="28" x2="347" y2="28"/>
            <line class="aq" x1="355" y1="28" x2="364" y2="28"/>
            <line class="aq" x1="371" y1="28" x2="379" y2="28"/>
            <line class="aq" x1="387" y1="28" x2="396" y2="28"/>
            <line class="aq" x1="404" y1="28" x2="414" y2="28"/>
          </g>
          <g>
            <line class="aq" x1="723" y1="25" x2="734" y2="25"/>
            <line class="aq" x1="723" y1="28" x2="731" y2="28"/>
            <line class="aq" x1="723" y1="31" x2="734" y2="31"/>
          </g>
          <g>
            <circle class="aq" cx="706" cy="27" r="2" transform="translate(187.69073 507.1255) rotate(-45)"/>
            <line class="aq" x1="707.41421" y1="28.41421" x2="710.24264" y2="31.24264"/>
          </g>
          <line class="aq" x1="692" y1="28" x2="663" y2="28"/>
        </g>
      </g>
    </g>
    <path class="am" d="M366.62219,342.26383c1.72068.285,3.867.61069,6.47218.98075,60.14856,8.54418,71.42221,4.63083,142.13025,5.88887,55.92564.995,56.934-1.41125,113.01984-1.16123s56.08744.23171,112.17329.48173c56.07814.25,56.382-3.27368,112.46019-3.02369,53.00027.23627,52.49435,3.15438,98.12207.56974.97964-.05549,2.97967-.93919,4-1l1-1.99966L955,342Z"/>
    <line class="aj" x1="671.90743" y1="350.30071" x2="840.67049" y2="346.59288"/>
    <line class="al" x1="671.87435" y1="363.73588" x2="791.03065" y2="362.59435"/>
    <g class="d">
      <path class="r" d="M165.02295,341.28314l34.18349,5.568c24.99265,2.06387,35.20564,1.15742,72.90226,1.45019"/>
    </g>
    <path class="bp" d="M111.64835,374.18431c56.14849-2.0251-21.02288-1.13568,63.66635-1.423,86.62829-.29385,80.33539-1.07908,164.89967-1.72121,84.55264-.642,208.532,6.60823,283.47,7.95985h-576S105.65168,374.40059,111.64835,374.18431Z"/>
    <path class="bq" d="M139.16413,357.80786c80.30262-2.06387,13.11747-1.15742,134.23859-1.45019,123.89432-.29948,114.89433-1.09974,235.83673-1.75416,120.92577-.65433,367.15912-9.30508,405.414,8.11224,33.22,15.125-102.932,1.977-149.86814,0-204.09439-8.5966-716.38673,14.58268-717.10143,0C46.56274,339.84025,130.5878,358.02829,139.16413,357.80786Z"/>
    <g>
      <g class="q">
        <path class="r" d="M27.31675,363.91648c-5.53419.754-8.22711,2.62592-10.34122-2.54383-1.63742-4.00407,1.33589-5.33255,5.62223-5.91654,5.53419-.754,6.22567-1.08925,10.05066,2.98079C35.14666,361.0952,31.60309,363.33249,27.31675,363.91648Z"/>
      </g>
      <circle class="br" cx="24.98686" cy="360.31699" r="4"/>
      <line class="bs" x1="20.98686" y1="360.31699" x2="28.98686" y2="360.31699"/>
    </g>
    <path class="ak" d="M778,180V340H904V188a8,8,0,0,0-8-8Z"/>
    <path class="bt" d="M880,340H756a16,16,0,0,1-16-16V192.00015L896,192V324A16,16,0,0,1,880,340Z"/>
    <path class="f" d="M756,192H740V324a15.84839,15.84839,0,0,0,15.69231,16H884l6.49023-3.24512a5.06391,5.06391,0,0,0,2.26465-2.26465L896,328H764a8,8,0,0,1-8-8Z"/>
    <rect class="g" x="733.38462" y="180" width="168.69231" height="12" rx="5.99999" ry="5.99999"/>
    <path class="bu" d="M758.88462,192H739.26922a5.94314,5.94314,0,0,1-5.88461-6h0a5.94314,5.94314,0,0,1,5.88461-6h19.61539Z"/>
    <rect class="bv" x="855" y="180" width="11.76923" height="12"/>
    <path class="s" d="M816,223v43a41,41,0,0,1-41,41H775a41,41,0,0,1-41-41V219"/>
    <rect class="bd" x="763" y="300" width="24" height="8"/>
    <path class="bu" d="M896.19231,192H880.5V180h15.69231a5.94314,5.94314,0,0,1,5.88461,6h0A5.94314,5.94314,0,0,1,896.19231,192Z"/>
    <circle class="bw" cx="815" cy="219" r="7"/>
    <path class="f" d="M768.69231,192h5.88461a0,0,0,0,1,0,0v97.0577A2.9423,2.9423,0,0,1,771.63462,292h0a2.9423,2.9423,0,0,1-2.9423-2.9423V192a0,0,0,0,1,0,0Z"/>
    <path class="bx" d="M860.88462,192h5.88462a0,0,0,0,1,0,0v97.0577A2.9423,2.9423,0,0,1,863.82693,292h0a2.94231,2.94231,0,0,1-2.94231-2.94231V192a0,0,0,0,1,0,0Z"/>
    <rect class="y" x="733.38462" y="180" width="168.69231" height="12" rx="5.99999" ry="5.99999"/>
    <path class="bw" d="M739,226a7,7,0,0,1-.00071-14L740,211.99954V226Z"/>
    <g>
      <rect class="bd" x="12" y="320" width="160" height="20" rx="2" ry="2"/>
      <rect class="by" x="76" y="320" width="60" height="20"/>
      <rect class="by" x="60" y="320" width="8" height="20"/>
    </g>
    <g>
      <rect class="bb" x="42" y="304" width="112" height="16" rx="2" ry="2"/>
      <rect class="bz" x="88" y="304" width="48" height="16"/>
    </g>
    <path class="az" d="M105,224H213a4,4,0,0,1,4,4V332a8,8,0,0,1-8,8H109a8,8,0,0,1-8-8V228A4,4,0,0,1,105,224Z"/>
    <rect class="ca" x="101" y="248" width="116" height="72"/>
    <rect class="f" x="102" y="249" width="11" height="70"/>
    <path class="ak" d="M98,268v71h46V276a8,8,0,0,0-8-8Z"/>
    <path class="af" d="M101,320v12a7.9242,7.9242,0,0,0,7.84615,8h98.53847C211.71793,340,217,336.41828,217,332H118.65385a5.94315,5.94315,0,0,1-5.88462-6v-6Z"/>
    <rect class="cb" x="201" y="225" width="4" height="22"/>
    <rect class="af" x="125" y="224" width="3.92308" height="24"/>
    <path class="af" d="M113,224h-8a4,4,0,0,0-4,4v20h12Z"/>
    <path class="f" d="M125.07692,248H129a0,0,0,0,1,0,0v52.03846A1.96154,1.96154,0,0,1,127.03846,302h0a1.96154,1.96154,0,0,1-1.96154-1.96154V248A0,0,0,0,1,125.07692,248Z"/>
    <path class="bx" d="M201,249h4a0,0,0,0,1,0,0v52.03846A1.96154,1.96154,0,0,1,203.03846,303h-.07693A1.96154,1.96154,0,0,1,201,301.03846V249A0,0,0,0,1,201,249Z"/>
    <g>
      <path class="cc" d="M217,324a44,44,0,0,0,0-88v19.47284a24.52713,24.52713,0,0,1,0,49.05426Z"/>
      <path class="cd" d="M221.00018,240.19824a40.05815,40.05815,0,0,1,36,39.80176"/>
      <path class="af" d="M234.8627,296.80792A24.45882,24.45882,0,0,1,217,304.5271V324a43.86809,43.86809,0,0,0,31.47288-13.25169Z"/>
    </g>
    <g>
      <g class="q">
        <path class="r" d="M940.22523,362.13036c-2.46821,5.07829-2.3409,4.65611-7.87509,3.53638-4.28634-.86725-7.06261-1.96237-5.15094-5.8956,2.46821-5.07829,5.11407-5.39668,10.70673-6.17335C941.82414,353.05366,942.1369,358.19713,940.22523,362.13036Z"/>
      </g>
      <circle class="br" cx="934.98686" cy="360.53759" r="4"/>
      <line class="bs" x1="932" y1="360.53759" x2="938" y2="360.53759"/>
    </g>
    <g>
      <rect class="g" x="66" y="268" width="72" height="72" rx="4" ry="4"/>
      <path class="cb" d="M134,268H70a4.01174,4.01174,0,0,0-4,4v4a4.01174,4.01174,0,0,1,4-4h64a4.01174,4.01174,0,0,1,4,4v-4A4.01174,4.01174,0,0,0,134,268Z"/>
      <path class="af" d="M134,340H70a4.01174,4.01174,0,0,1-4-4v-4a4.01174,4.01174,0,0,0,4,4h64a4.01174,4.01174,0,0,0,4-4v4A4.01174,4.01174,0,0,1,134,340Z"/>
      <path class="ce" d="M100.809,314.84555H91.0544l-1.5401,4.92014H81l11.03834-30.37643H99.825l10.99526,30.37643h-8.47121Zm-2.09626-6.80273-2.73815-8.77062h-.08573l-2.73815,8.77062Z"/>
      <path class="ce" d="M112.22938,292.29845a4.14994,4.14994,0,0,1,4.40663-4.06415,4.11479,4.11479,0,1,1,0,8.21446A4.16552,4.16552,0,0,1,112.22938,292.29845Zm.55616,6.50333h7.6583V319.7657h-7.6583Z"/>
      <rect class="ae" x="92.03833" y="289.38928" width="7.78674" height="3"/>
      <path class="ae" d="M112.22937,292.29846a3.91794,3.91794,0,0,1,1.32581-2.95459,4.83135,4.83135,0,0,1,6.14526-.01233A3.92449,3.92449,0,0,1,121,292.29846h-3a.90811.90811,0,0,0-.30042-.73157,1.60613,1.60613,0,0,0-1.06775-.33215,1.64218,1.64218,0,0,0-1.08447.35217.9008.9008,0,0,0-.318.71155Z"/>
      <rect class="ae" x="112.78552" y="298.80176" width="7.65833" height="3"/>
      <path class="ae" d="M93.15063,308.04285h5.562a1.5,1.5,0,1,1,0,3h-5.562a1.5,1.5,0,0,1,0-3Z"/>
      <path class="cf" d="M100.809,314.84555H91.0544l-1.5401,4.92014H81l11.03834-30.37643H99.825l10.99526,30.37643h-8.47121Zm-2.09626-6.80273-2.73815-8.77062h-.08573l-2.73815,8.77062Z"/>
      <path class="cf" d="M112.22938,292.29845a4.14994,4.14994,0,0,1,4.40663-4.06415,4.11479,4.11479,0,1,1,0,8.21446A4.16552,4.16552,0,0,1,112.22938,292.29845Zm.55616,6.50333h7.6583V319.7657h-7.6583Z"/>
      <rect class="cf" x="66" y="268" width="72" height="72" rx="4" ry="4"/>
    </g>
  </g>
</svg>
