<svg xmlns="http://www.w3.org/2000/svg" width="144" height="35">
  <g class="fill-currentcolor">
    <path d="M46.72852,9.43457a1.79289,1.79289,0,0,1,1.7998-1.77637,1.78812,1.78812,0,1,1-1.7998,1.77637Zm.45605,3.52832H49.873V24.67578H47.18457Z"/>
    <path d="M64.585,12.96289V24.67578H62.0166V23.11572h-.04785a4.42909,4.42909,0,0,1-3.71973,1.752c-3.24023,0-5.665-2.376-5.665-6.00049,0-3.52832,2.4248-6.07227,5.64063-6.07227a4.58126,4.58126,0,0,1,3.624,1.584h.04785v-1.416ZM62.0166,18.89111a3.43111,3.43111,0,0,0-3.33594-3.67236,3.38164,3.38164,0,0,0-3.36035,3.67236,3.29766,3.29766,0,0,0,3.36035,3.52832A3.34731,3.34731,0,0,0,62.0166,18.89111Z"/>
    <path d="M85.70605,17.90723v6.76855H83.01758V18.5791c0-2.11182-.69629-3.36035-2.28027-3.36035-1.51172,0-2.73633,1.32031-2.73633,3.62451v5.83252H75.3125V18.5791c0-2.11182-.74316-3.36035-2.32812-3.36035-1.60742,0-2.80762,1.32031-2.80762,3.62451v5.83252H67.48828V12.96289h2.68848v1.63184h.02344a4.73154,4.73154,0,0,1,3.64844-1.7998,3.67393,3.67393,0,0,1,3.50488,1.94385h.04785a5.139,5.139,0,0,1,4.2002-1.94385C84.16992,12.79492,85.70605,14.40283,85.70605,17.90723Z"/>
    <path d="M87.91211,23.16357l1.34375-2.01611a4.48612,4.48612,0,0,0,3.38477,1.36816c1.03223,0,1.63184-.45605,1.63184-1.15234,0-.59961-.76855-.8877-2.30469-1.416-1.91992-.67187-3.57617-1.53613-3.57617-3.84033,0-1.91992,1.72852-3.312,4.12891-3.312a6.22774,6.22774,0,0,1,4.12793,1.46387l-1.34375,2.1123A4.30536,4.30536,0,0,0,92.376,15.123c-.52734,0-1.27148.28809-1.27148,1.00781,0,.57617.71973.98438,1.84766,1.4165,2.49609.98389,4.05664,1.43994,4.05664,3.76807,0,1.96826-1.39258,3.55225-4.36816,3.55225A6.99127,6.99127,0,0,1,87.91211,23.16357Z"/>
    <path d="M99.8877,20.97949V15.24316H98.44727V12.96289H99.8877V9.07422l2.6875-.2876v4.17627h3.43262v2.28027H102.5752v5.47217c0,1.2002.36035,1.63232,1.12891,1.63232a3.92707,3.92707,0,0,0,1.72754-.50391l.69629,2.32813a5.44958,5.44958,0,0,1-2.97656.6958C101.13574,24.86768,99.8877,23.5957,99.8877,20.97949Z"/>
    <path d="M119.06445,19.75537h-8.54492a3.23033,3.23033,0,0,0,3.33594,2.66406,3.64924,3.64924,0,0,0,2.92871-1.36816l1.87207,1.6084a6.02361,6.02361,0,0,1-4.94434,2.208,5.76541,5.76541,0,0,1-5.97656-6.04834c0-3.60059,2.44824-6.02441,5.71191-6.02441a5.50652,5.50652,0,0,1,5.68848,5.88037A10.1565,10.1565,0,0,1,119.06445,19.75537Zm-8.49707-2.16016h5.85645a2.8025,2.8025,0,0,0-2.832-2.37646A2.96286,2.96286,0,0,0,110.56738,17.59521Z"/>
    <path d="M131.78418,12.96289l-4.63281,11.71289H124.583l-4.65625-11.71289h2.85645l3.07227,8.35254h.02441l3.02441-8.35254Z"/>
    <path d="M143.92871,19.75537h-8.54492a3.23033,3.23033,0,0,0,3.33594,2.66406,3.64924,3.64924,0,0,0,2.92871-1.36816l1.87207,1.6084a6.02361,6.02361,0,0,1-4.94434,2.208,5.76541,5.76541,0,0,1-5.97656-6.04834c0-3.60059,2.44824-6.02441,5.71191-6.02441A5.50652,5.50652,0,0,1,144,18.67529,10.1565,10.1565,0,0,1,143.92871,19.75537Zm-8.49707-2.16016h5.85645a2.8025,2.8025,0,0,0-2.832-2.37646A2.96286,2.96286,0,0,0,135.43164,17.59521Z"/>
  </g>
  <g class="stroke-currentcolor fill-none sl-r sw-3">
    <path class="b" d="M19.5,33.5c-.94-4.94043.5552-10.47139,2.3075-12.90787a13.82889,13.82889,0,0,0,9.00293-3.62263A9.83045,9.83045,0,0,0,33.5,9.92551L26.5,8.5l-2-5-1,1-2-3-1.97917,1a9.62436,9.62436,0,0,0-7.73546.554A9.76754,9.76754,0,0,0,7.50382,13.45833,6.2934,6.2934,0,0,0,13.52083,18.5C17.27739,18.5,19.5,13.47879,19.5,7.5"/>
    <path class="b" d="M1.5,24.5c3.21412-2.54271,6.28125-6.60937,5.875-11.82853"/>
  </g>
</svg>