<svg xmlns="http://www.w3.org/2000/svg" xmlns:xlink="http://www.w3.org/1999/xlink" width="488" height="336" viewBox="0 0 488 336" class="subscribe-svg">
  <g>
    <path d="M350,300c-42,0-107.98148-6-216-6-70,0-72-108-54-156,23.24851-61.996,116-56,116-56l138,2s58,12,58,90S392,300,350,300Z" style="fill: #eaf5f5"/>
    <g>
      <g>
        <path d="M88,110H376a0,0,0,0,1,0,0V280a6,6,0,0,1-6,6H94a6,6,0,0,1-6-6V110A0,0,0,0,1,88,110Z" style="fill: #fff"/>
        <path d="M88,110H376a0,0,0,0,1,0,0V280a6,6,0,0,1-6,6H94a6,6,0,0,1-6-6V110A0,0,0,0,1,88,110Z" style="fill: none;stroke: #c5c0c3;stroke-miterlimit: 10;stroke-width: 2px"/>
      </g>
      <rect x="235.20833" y="226" width="131" height="48" rx="4" ry="4" style="fill: #f6f5f5"/>
      <rect x="97.20833" y="226" width="131" height="48" rx="4" ry="4" style="fill: #f6f5f5"/>
      <path d="M94,78H370a6,6,0,0,1,6,6v26a0,0,0,0,1,0,0H88a0,0,0,0,1,0,0V84A6,6,0,0,1,94,78Z" style="fill: #fff3ce"/>
      <circle cx="106.5" cy="94" r="6" style="fill: #ff7e6d;stroke: #bf4e45;stroke-miterlimit: 10;stroke-width: 2px"/>
      <circle cx="124.5" cy="94" r="6" style="fill: #ffdb6d;stroke: #dba758;stroke-miterlimit: 10;stroke-width: 2px"/>
      <circle cx="142.5" cy="94" r="6" style="fill: #27cba4;stroke: #138466;stroke-miterlimit: 10;stroke-width: 2px"/>
      <rect x="172.5" y="88" width="192" height="12" rx="5.99999" ry="5.99999" style="fill: #fff;stroke: #dba758;stroke-miterlimit: 10;stroke-width: 2px"/>
      <path d="M90.5,79h283a2,2,0,0,1,2,2v0a0,0,0,0,1,0,0H88.5a0,0,0,0,1,0,0v0A2,2,0,0,1,90.5,79Z" style="fill: #fffbee"/>
      <path d="M94,78H370a6,6,0,0,1,6,6v26a0,0,0,0,1,0,0H88a0,0,0,0,1,0,0V84A6,6,0,0,1,94,78Z" style="fill: none;stroke: #dba758;stroke-miterlimit: 10;stroke-width: 2px"/>
      <rect x="97.20833" y="119" width="270" height="28" rx="4" ry="4" style="fill: #f6f5f5"/>
      <line x1="111.20833" y1="133" x2="141.20833" y2="133" style="fill: none;stroke: #c5c0c3;stroke-linecap: round;stroke-miterlimit: 10;stroke-width: 2px"/>
      <line x1="97.20833" y1="208" x2="137.20833" y2="208" style="fill: none;stroke: #c5c0c3;stroke-linecap: round;stroke-miterlimit: 10;stroke-width: 2px"/>
      <line x1="97.20833" y1="212" x2="123.20833" y2="212" style="fill: none;stroke: #c5c0c3;stroke-linecap: round;stroke-miterlimit: 10;stroke-width: 2px"/>
      <line x1="149.20833" y1="208" x2="159.20833" y2="208" style="fill: none;stroke: #c5c0c3;stroke-linecap: round;stroke-miterlimit: 10;stroke-width: 2px"/>
      <line x1="167.20833" y1="208" x2="197.20833" y2="208" style="fill: none;stroke: #c5c0c3;stroke-linecap: round;stroke-miterlimit: 10;stroke-width: 2px"/>
      <line x1="167.20833" y1="212" x2="183.20833" y2="212" style="fill: none;stroke: #c5c0c3;stroke-linecap: round;stroke-miterlimit: 10;stroke-width: 2px"/>
      <line x1="218.20833" y1="208" x2="228.20833" y2="208" style="fill: none;stroke: #c5c0c3;stroke-linecap: round;stroke-miterlimit: 10;stroke-width: 2px"/>
      <line x1="236.70833" y1="208" x2="266.70833" y2="208" style="fill: none;stroke: #c5c0c3;stroke-linecap: round;stroke-miterlimit: 10;stroke-width: 2px"/>
      <line x1="236.70833" y1="212" x2="252.70833" y2="212" style="fill: none;stroke: #c5c0c3;stroke-linecap: round;stroke-miterlimit: 10;stroke-width: 2px"/>
      <line x1="287.70833" y1="208" x2="297.70833" y2="208" style="fill: none;stroke: #c5c0c3;stroke-linecap: round;stroke-miterlimit: 10;stroke-width: 2px"/>
      <line x1="305.20833" y1="208" x2="335.20833" y2="208" style="fill: none;stroke: #c5c0c3;stroke-linecap: round;stroke-miterlimit: 10;stroke-width: 2px"/>
      <line x1="305.20833" y1="212" x2="321.20833" y2="212" style="fill: none;stroke: #c5c0c3;stroke-linecap: round;stroke-miterlimit: 10;stroke-width: 2px"/>
      <line x1="355.70833" y1="208" x2="365.70833" y2="208" style="fill: none;stroke: #c5c0c3;stroke-linecap: round;stroke-miterlimit: 10;stroke-width: 2px"/>
      <line x1="337.20795" y1="133" x2="355.20833" y2="133" style="fill: none;stroke: #c5c0c3;stroke-linecap: round;stroke-miterlimit: 10;stroke-width: 2px"/>
      <line x1="313.20833" y1="133" x2="325.20795" y2="133" style="fill: none;stroke: #c5c0c3;stroke-linecap: round;stroke-miterlimit: 10;stroke-width: 2px"/>
      <line x1="287.20786" y1="133" x2="303.20833" y2="133" style="fill: none;stroke: #c5c0c3;stroke-linecap: round;stroke-miterlimit: 10;stroke-width: 2px"/>
      <line x1="261.20833" y1="133" x2="275.20786" y2="133" style="fill: none;stroke: #c5c0c3;stroke-linecap: round;stroke-miterlimit: 10;stroke-width: 2px"/>
      <rect x="97.20833" y="154" width="63" height="48" rx="4" ry="4" style="fill: #f6f5f5"/>
      <rect x="166.20833" y="154" width="63" height="48" rx="4" ry="4" style="fill: #f6f5f5"/>
      <rect x="235.20833" y="154" width="63" height="48" rx="4" ry="4" style="fill: #f6f5f5"/>
      <rect x="304.20833" y="154" width="63" height="48" rx="4" ry="4" style="fill: #f6f5f5"/>
    </g>
    <path d="M481.18913,304.52139c-1.63389,10.38508-9.93857,27.37365-17.88943,12.634s-7.778-88.43859-6.87056-147.39721,3.37729-125.42537,8.85828-138.97325c5.96314-14.73966,13.914-2.10567,15.90172,6.317C483.23448,45.76876,488,115.01274,488,171.86509S483.17685,291.8874,481.18913,304.52139Z" style="fill: #eaf5f5"/>
    <g>
      <path d="M467,25h6a3,3,0,0,1,3,3V49a0,0,0,0,1,0,0H464a0,0,0,0,1,0,0V28A3,3,0,0,1,467,25Z" style="fill: #7f6371;stroke: #553143;stroke-miterlimit: 10;stroke-width: 2px"/>
      <rect x="461" y="99" width="18" height="126" rx="1" ry="1" style="fill: #7f6371;stroke: #553143;stroke-miterlimit: 10;stroke-width: 2px"/>
      <rect x="461" y="225" width="18" height="54" rx="1" ry="1" style="fill: #7f6371;stroke: #553143;stroke-miterlimit: 10;stroke-width: 2px"/>
      <path d="M463,49h14a1,1,0,0,1,1,1v3a0,0,0,0,1,0,0H462a0,0,0,0,1,0,0V50A1,1,0,0,1,463,49Z" style="fill: #ff7e6d;stroke: #553143;stroke-miterlimit: 10;stroke-width: 2px"/>
      <rect x="462" y="53" width="16" height="46" style="fill: #7f6371;stroke: #553143;stroke-miterlimit: 10;stroke-width: 2px"/>
      <g>
        <rect x="470" y="305" height="20" transform="translate(940 630) rotate(180)" style="fill: #e8e6e7"/>
        <g>
          <rect x="469.5" y="305.5" width="1" height="19" style="fill: #938a8f"/>
          <path d="M470,306v0m1-1h-2v20h2V305Z" style="fill: #938a8f"/>
        </g>
      </g>
      <polygon points="473 288 467 288 463 279 477 279 473 288" style="fill: #7f6371;stroke: #553143;stroke-miterlimit: 10;stroke-width: 2px"/>
      <path d="M467,306V288h6v18a1,1,0,0,1-1,1h-4A1,1,0,0,1,467,306Z" style="fill: #7f6371;stroke: #553143;stroke-miterlimit: 10;stroke-width: 2px"/>
      <line x1="476" y1="101" x2="476" y2="223" style="fill: none;stroke: #72586b;stroke-miterlimit: 10;stroke-width: 4px"/>
      <line x1="476" y1="227" x2="476" y2="277" style="fill: none;stroke: #72586b;stroke-miterlimit: 10;stroke-width: 4px"/>
      <line x1="464" y1="100" x2="464" y2="224" style="fill: none;stroke: #8c7381;stroke-miterlimit: 10;stroke-width: 4px"/>
      <line x1="465" y1="54" x2="465" y2="97" style="fill: none;stroke: #8c7381;stroke-miterlimit: 10;stroke-width: 4px"/>
      <path d="M467,48h-2V28a2,2,0,0,1,2-2h0Z" style="fill: #8c7381"/>
      <path d="M475,48h-2V26h0a2,2,0,0,1,2,2Z" style="fill: #72586b"/>
      <line x1="464" y1="227" x2="464" y2="277" style="fill: none;stroke: #8c7381;stroke-miterlimit: 10;stroke-width: 4px"/>
      <line x1="475" y1="54" x2="475" y2="96" style="fill: none;stroke: #72586b;stroke-miterlimit: 10;stroke-width: 4px"/>
      <line x1="462" y1="223" x2="478" y2="223" style="fill: none;stroke: #8c7381;stroke-miterlimit: 10;stroke-width: 2px"/>
      <line x1="463" y1="97" x2="477" y2="97" style="fill: none;stroke: #8c7381;stroke-miterlimit: 10;stroke-width: 2px"/>
      <line x1="462" y1="277" x2="478" y2="277" style="fill: none;stroke: #8c7381;stroke-miterlimit: 10;stroke-width: 2px"/>
      <rect x="468" y="289" width="2" height="17" style="fill: #8c7381"/>
      <line x1="462" y1="101" x2="478" y2="101" style="fill: none;stroke: #72586b;stroke-miterlimit: 10;stroke-width: 2px"/>
      <line x1="462" y1="227" x2="478" y2="227" style="fill: none;stroke: #72586b;stroke-miterlimit: 10;stroke-width: 2px"/>
      <path d="M485,131l-2,8a2,2,0,0,0,2,2h0a2,2,0,0,0,2-2V67a4,4,0,0,0-4-4h0a4,4,0,0,0-4,4V93" style="fill: none;stroke: #553143;stroke-linecap: round;stroke-linejoin: round;stroke-width: 2px"/>
    </g>
    <path d="M441.19516,315.46162c-1.39788,11.59558-8.503,30.56438-15.30538,14.10664s-10.56559-98.74718-9.78925-164.57815,1.788-143.57545,6.47728-158.7025c11.73331-10.11388,22.48885-8.0911,22.52845,6.538C446.85616,22.50268,448,104.63045,448,168.10964S442.89576,301.355,441.19516,315.46162Z" style="fill: #eaf5f5"/>
    <g>
      <rect x="425" y="18" width="16" height="24" style="fill: #e8e6e7"/>
      <line x1="426" y1="22" x2="440" y2="22" style="fill: none;stroke: #c5c0c3;stroke-linecap: round;stroke-linejoin: round;stroke-width: 2px;opacity: 0.6000000000000001"/>
      <line x1="426" y1="28" x2="440" y2="28" style="fill: none;stroke: #c5c0c3;stroke-linecap: round;stroke-linejoin: round;stroke-width: 2px;opacity: 0.6000000000000001"/>
      <line x1="426" y1="24" x2="440" y2="24" style="fill: none;stroke: #fafafa;stroke-linecap: round;stroke-linejoin: round;stroke-width: 2px;opacity: 0.6000000000000001"/>
      <line x1="426" y1="34" x2="440" y2="34" style="fill: none;stroke: #fafafa;stroke-linecap: round;stroke-linejoin: round;stroke-width: 2px;opacity: 0.6000000000000001"/>
      <line x1="426" y1="40" x2="440" y2="40" style="fill: none;stroke: #fafafa;stroke-linecap: round;stroke-linejoin: round;stroke-width: 2px;opacity: 0.6000000000000001"/>
      <line x1="426" y1="30" x2="440" y2="30" style="fill: none;stroke: #fafafa;stroke-linecap: round;stroke-linejoin: round;stroke-width: 2px;opacity: 0.6000000000000001"/>
      <line x1="426" y1="32" x2="440" y2="32" style="fill: none;stroke: #c5c0c3;stroke-linecap: round;stroke-linejoin: round;stroke-width: 2px;opacity: 0.6000000000000001"/>
      <line x1="426" y1="38" x2="440" y2="38" style="fill: none;stroke: #c5c0c3;stroke-linecap: round;stroke-linejoin: round;stroke-width: 2px;opacity: 0.6000000000000001"/>
      <rect x="425" y="18" width="16" height="24" style="fill: none;stroke: #938a8f;stroke-linecap: round;stroke-linejoin: round;stroke-width: 2px"/>
      <rect x="425" y="42" width="16" height="262" style="fill: #ffdb6d;stroke: #dba758;stroke-linecap: round;stroke-linejoin: round;stroke-width: 2px"/>
      <polygon points="433 327 425 304 427 302 429 304 431 302 433 304 435 302 437 304 439 302 441 304 433 327" style="fill: #fff3ce"/>
      <path d="M427,4h12a2,2,0,0,1,2,2V18a0,0,0,0,1,0,0H425a0,0,0,0,1,0,0V6A2,2,0,0,1,427,4Z" style="fill: #ff7e6d;stroke: #bf4e45;stroke-linecap: round;stroke-linejoin: round;stroke-width: 2px"/>
      <rect x="436" y="43" width="4" height="261" style="fill: #dba758;opacity: 0.30000000000000004"/>
      <rect x="426" y="43" width="4" height="261" style="fill: #fff3ce;opacity: 0.4"/>
      <polygon points="433 327 425 304 427.833 303.015 434.756 322.916 433 327" style="fill: #fffdf5"/>
      <polygon points="433 327 431.412 322.434 438.167 303.015 441 304 433 327" style="fill: #ffe38d"/>
      <polygon points="433 327 425 304 427 302 429 304 431 302 433 304 435 302 437 304 439 302 441 304 433 327" style="fill: none;stroke: #dba758;stroke-linecap: round;stroke-linejoin: round;stroke-width: 2px"/>
      <polygon points="435 321.25 433 327 430.999 321.248 435 321.25" style="fill: #62535c;stroke: #62535c;stroke-linecap: round;stroke-linejoin: round;stroke-width: 2px"/>
      <rect x="426" y="19" width="4" height="22" style="fill: #fff;opacity: 0.4"/>
      <path d="M427,5h3a0,0,0,0,1,0,0V17a0,0,0,0,1,0,0h-4a0,0,0,0,1,0,0V6A1,1,0,0,1,427,5Z" style="fill: #fd9387"/>
      <rect x="436" y="19" width="4" height="22" style="fill: #938a8f;opacity: 0.4"/>
      <rect x="436" y="5" width="4" height="12" style="fill: #bf4e45;opacity: 0.4"/>
    </g>
    <path d="M236.79169,279H86.32117a7.99567,7.99567,0,0,0-7.73779-6H8a8.00008,8.00008,0,0,0-8,8v32a8.00008,8.00008,0,0,0,8,8H78.58337a8,8,0,0,0,8-8v-2H236.79169a2.00006,2.00006,0,0,0,2-2V281A2.00006,2.00006,0,0,0,236.79169,279Z" style="fill: #eaf5f5"/>
    <g>
      <path d="M228,269h10a2,2,0,0,1,2,2v28a2,2,0,0,1-2,2H228" style="fill: none;stroke: #301d28;stroke-linejoin: round;stroke-width: 2px"/>
      <rect x="64" y="269" width="176" height="32" rx="2" ry="2" transform="translate(304 570) rotate(180)" style="fill: #ffdb6d;stroke: #dba758;stroke-miterlimit: 10;stroke-width: 2px"/>
      <g>
        <g>
          <line x1="198.08333" y1="301" x2="198.08333" y2="295" style="fill: none;stroke: #dba758;stroke-linecap: round;stroke-linejoin: round;stroke-width: 2px"/>
          <line x1="230.08333" y1="301" x2="230.08333" y2="297" style="fill: none;stroke: #dba758;stroke-linecap: round;stroke-linejoin: round;stroke-width: 2px"/>
          <line x1="222.08333" y1="301" x2="222.08333" y2="297" style="fill: none;stroke: #dba758;stroke-linecap: round;stroke-linejoin: round;stroke-width: 2px"/>
          <line x1="206.08333" y1="301" x2="206.08333" y2="297" style="fill: none;stroke: #dba758;stroke-linecap: round;stroke-linejoin: round;stroke-width: 2px"/>
          <line x1="214.08333" y1="301" x2="214.08333" y2="297" style="fill: none;stroke: #dba758;stroke-linecap: round;stroke-linejoin: round;stroke-width: 2px"/>
          <line x1="158.08333" y1="301" x2="158.08333" y2="293" style="fill: none;stroke: #dba758;stroke-linecap: round;stroke-linejoin: round;stroke-width: 2px"/>
          <line x1="190.08333" y1="301" x2="190.08333" y2="297" style="fill: none;stroke: #dba758;stroke-linecap: round;stroke-linejoin: round;stroke-width: 2px"/>
          <line x1="182.08333" y1="301" x2="182.08333" y2="297" style="fill: none;stroke: #dba758;stroke-linecap: round;stroke-linejoin: round;stroke-width: 2px"/>
          <line x1="166.08333" y1="301" x2="166.08333" y2="297" style="fill: none;stroke: #dba758;stroke-linecap: round;stroke-linejoin: round;stroke-width: 2px"/>
          <line x1="174.08333" y1="301" x2="174.08333" y2="297" style="fill: none;stroke: #dba758;stroke-linecap: round;stroke-linejoin: round;stroke-width: 2px"/>
        </g>
        <g>
          <line x1="118.08333" y1="301" x2="118.08333" y2="295" style="fill: none;stroke: #dba758;stroke-linecap: round;stroke-linejoin: round;stroke-width: 2px"/>
          <line x1="150.08333" y1="301" x2="150.08333" y2="297" style="fill: none;stroke: #dba758;stroke-linecap: round;stroke-linejoin: round;stroke-width: 2px"/>
          <line x1="142.08333" y1="301" x2="142.08333" y2="297" style="fill: none;stroke: #dba758;stroke-linecap: round;stroke-linejoin: round;stroke-width: 2px"/>
          <line x1="126.08333" y1="301" x2="126.08333" y2="297" style="fill: none;stroke: #dba758;stroke-linecap: round;stroke-linejoin: round;stroke-width: 2px"/>
          <line x1="134.08333" y1="301" x2="134.08333" y2="297" style="fill: none;stroke: #dba758;stroke-linecap: round;stroke-linejoin: round;stroke-width: 2px"/>
          <line x1="78.08333" y1="301" x2="78.08333" y2="292" style="fill: none;stroke: #dba758;stroke-linecap: round;stroke-linejoin: round;stroke-width: 2px"/>
          <line x1="110.08333" y1="301" x2="110.08333" y2="297" style="fill: none;stroke: #dba758;stroke-linecap: round;stroke-linejoin: round;stroke-width: 2px"/>
          <line x1="102.08333" y1="301" x2="102.08333" y2="297" style="fill: none;stroke: #dba758;stroke-linecap: round;stroke-linejoin: round;stroke-width: 2px"/>
          <line x1="86.08333" y1="301" x2="86.08333" y2="297" style="fill: none;stroke: #dba758;stroke-linecap: round;stroke-linejoin: round;stroke-width: 2px"/>
          <line x1="94.08333" y1="301" x2="94.08333" y2="297" style="fill: none;stroke: #dba758;stroke-linecap: round;stroke-linejoin: round;stroke-width: 2px"/>
        </g>
      </g>
      <rect x="218" y="279" width="32" height="12" transform="translate(519 51) rotate(90)" style="fill: #553143"/>
      <g>
        <g>
          <line x1="198.08333" y1="269" x2="198.08333" y2="275" style="fill: none;stroke: #dba758;stroke-linecap: round;stroke-linejoin: round;stroke-width: 2px"/>
          <line x1="222.08333" y1="269" x2="222.08333" y2="273" style="fill: none;stroke: #dba758;stroke-linecap: round;stroke-linejoin: round;stroke-width: 2px"/>
          <line x1="206.08333" y1="269" x2="206.08333" y2="273" style="fill: none;stroke: #dba758;stroke-linecap: round;stroke-linejoin: round;stroke-width: 2px"/>
          <line x1="214.08333" y1="269" x2="214.08333" y2="273" style="fill: none;stroke: #dba758;stroke-linecap: round;stroke-linejoin: round;stroke-width: 2px"/>
          <line x1="158.08333" y1="269" x2="158.08333" y2="277" style="fill: none;stroke: #dba758;stroke-linecap: round;stroke-linejoin: round;stroke-width: 2px"/>
          <line x1="190.08333" y1="269" x2="190.08333" y2="273" style="fill: none;stroke: #dba758;stroke-linecap: round;stroke-linejoin: round;stroke-width: 2px"/>
          <line x1="182.08333" y1="269" x2="182.08333" y2="273" style="fill: none;stroke: #dba758;stroke-linecap: round;stroke-linejoin: round;stroke-width: 2px"/>
          <line x1="166.08333" y1="269" x2="166.08333" y2="273" style="fill: none;stroke: #dba758;stroke-linecap: round;stroke-linejoin: round;stroke-width: 2px"/>
          <line x1="174.08333" y1="269" x2="174.08333" y2="273" style="fill: none;stroke: #dba758;stroke-linecap: round;stroke-linejoin: round;stroke-width: 2px"/>
        </g>
        <g>
          <line x1="118.08333" y1="269" x2="118.08333" y2="275" style="fill: none;stroke: #dba758;stroke-linecap: round;stroke-linejoin: round;stroke-width: 2px"/>
          <line x1="150.08333" y1="269" x2="150.08333" y2="273" style="fill: none;stroke: #dba758;stroke-linecap: round;stroke-linejoin: round;stroke-width: 2px"/>
          <line x1="142.08333" y1="269" x2="142.08333" y2="273" style="fill: none;stroke: #dba758;stroke-linecap: round;stroke-linejoin: round;stroke-width: 2px"/>
          <line x1="126.08333" y1="269" x2="126.08333" y2="273" style="fill: none;stroke: #dba758;stroke-linecap: round;stroke-linejoin: round;stroke-width: 2px"/>
          <line x1="134.08333" y1="269" x2="134.08333" y2="273" style="fill: none;stroke: #dba758;stroke-linecap: round;stroke-linejoin: round;stroke-width: 2px"/>
          <line x1="78.08333" y1="269" x2="78.08333" y2="278" style="fill: none;stroke: #dba758;stroke-linecap: round;stroke-linejoin: round;stroke-width: 2px"/>
          <line x1="110.08333" y1="269" x2="110.08333" y2="273" style="fill: none;stroke: #dba758;stroke-linecap: round;stroke-linejoin: round;stroke-width: 2px"/>
          <line x1="102.08333" y1="269" x2="102.08333" y2="273" style="fill: none;stroke: #dba758;stroke-linecap: round;stroke-linejoin: round;stroke-width: 2px"/>
          <line x1="86.08333" y1="269" x2="86.08333" y2="273" style="fill: none;stroke: #dba758;stroke-linecap: round;stroke-linejoin: round;stroke-width: 2px"/>
          <line x1="94.08333" y1="269" x2="94.08333" y2="273" style="fill: none;stroke: #dba758;stroke-linecap: round;stroke-linejoin: round;stroke-width: 2px"/>
        </g>
      </g>
      <rect x="68" y="270" width="160" height="2" style="fill: #fff3ce;opacity: 0.4"/>
      <rect x="60" y="298" width="168" height="2" style="fill: #dba758;opacity: 0.2"/>
      <rect x="228" y="270" width="12" height="2" style="fill: #7f6371;opacity: 0.4"/>
      <rect x="228" y="298" width="12" height="2" style="fill: #301d28;opacity: 0.4"/>
      <rect x="25.29167" y="248" width="40" height="80" rx="8" ry="8" transform="translate(333.29167 242.70833) rotate(90)" style="fill: #62535c;opacity: 0.1"/>
      <rect x="16.29167" y="245" width="48" height="80" rx="8" ry="8" transform="translate(325.29167 244.70833) rotate(90)" style="fill: #fafafa"/>
      <path d="M79.29167,301h-61a2,2,0,0,1-2-2V271a2,2,0,0,1,2-2h61a7,7,0,0,0-7-7h-63a8,8,0,0,0-8,8v30a8,8,0,0,0,8,8h63a7,7,0,0,0,7-7Z" style="fill: #ecebec"/>
      <path d="M3,305H77a0,0,0,0,1,0,0v0a2,2,0,0,1-2,2H5a2,2,0,0,1-2-2v0a0,0,0,0,1,0,0Z" style="fill: #938a8f;opacity: 0.2"/>
      <path d="M4.29166,263h71a2,2,0,0,1,2,2v0a0,0,0,0,1,0,0h-75a0,0,0,0,1,0,0v0A2,2,0,0,1,4.29166,263Z" style="fill: #fff;opacity: 0.4"/>
      <g>
        <path d="M57.2915,292a1.0013,1.0013,0,0,1-1-1V279a1.0013,1.0013,0,0,1,1-1h21v14Z" style="fill: #f1f0f1"/>
        <path d="M77.29175,279v12h-20V279h20m2-2h-22a1.99988,1.99988,0,0,0-2,2v12a1.99988,1.99988,0,0,0,2,2h22V277Z" style="fill: #e8e6e7"/>
      </g>
      <g>
        <path d="M73.2915,292a1.0013,1.0013,0,0,1-1-1V279a1.0013,1.0013,0,0,1,1-1h6v14Z" style="fill: #c5c0c3"/>
        <path d="M78.29175,279v12h-5V279h5m2-2h-7a1.99988,1.99988,0,0,0-2,2v12a1.99988,1.99988,0,0,0,2,2h7V277Z" style="fill: #938a8f"/>
      </g>
      <path d="M228,269h10a2,2,0,0,1,2,2v28a2,2,0,0,1-2,2H228" style="fill: none;stroke: #301d28;stroke-miterlimit: 10;stroke-width: 2px"/>
      <path d="M72.29175,263a6.00684,6.00684,0,0,1,6,6v32a6.00684,6.00684,0,0,1-6,6h-64a6.00684,6.00684,0,0,1-6-6V269a6.00684,6.00684,0,0,1,6-6h64m0-2h-64a7.99989,7.99989,0,0,0-8,8v32a7.99989,7.99989,0,0,0,8,8h64a8,8,0,0,0,8-8V269a8,8,0,0,0-8-8Z" style="fill: #938a8f"/>
    </g>
  </g>
</svg>
