<svg xmlns="http://www.w3.org/2000/svg" width="32" height="32" fill="none" viewBox="0 0 32 32">
  <path fill="#F4D340" stroke="#B15A00" d="M27 27.5h.5v-15h-15v15H27Zm-15-18h16c1.424 0 2.5 1.076 2.5 2.5v16c0 1.424-1.076 2.5-2.5 2.5H12c-1.424 0-2.5-1.076-2.5-2.5V12c0-1.424 1.076-2.5 2.5-2.5Z"/>
  <path fill="#fff" stroke="#A28F8C" stroke-linecap="round" stroke-linejoin="round" stroke-miterlimit="10" stroke-width="2" d="M28 9H12c-1.7 0-3 1.3-3 3v16c0 1.7 1.3 3 3 3h16c1.7 0 3-1.3 3-3V12c0-1.7-1.3-3-3-3Zm-1 18H13V13h14v14Z"/>
  <path fill="#F9F3F1" d="M20 23H4c-1.7 0-3-1.3-3-3V4c0-1.7 1.3-3 3-3h16c1.7 0 3 1.3 3 3v16c0 1.7-1.3 3-3 3Z"/>
  <path fill="#fff" d="M20 1H4C2.3 1 1 2.3 1 4v3c0-1.7 1.3-3 3-3h16c1.7 0 3 1.3 3 3V4c0-1.7-1.3-3-3-3Z"/>
  <path fill="#E8DCD9" d="M20 20H4c-1.7 0-3-1.3-3-3v3c0 1.7 1.3 3 3 3h16c1.7 0 3-1.3 3-3v-3c0 1.7-1.3 3-3 3Z"/>
  <path stroke="#A28F8C" stroke-linecap="round" stroke-linejoin="round" stroke-miterlimit="10" stroke-width="2" d="M20 23H4c-1.7 0-3-1.3-3-3V4c0-1.7 1.3-3 3-3h16c1.7 0 3 1.3 3 3v16c0 1.7-1.3 3-3 3Z"/>
</svg>
