<svg xmlns="http://www.w3.org/2000/svg" width="96" height="96" fill="none" viewBox="0 0 96 96">
  <path fill="#F9F3F1" d="m48 6 12.237 29.53L92 38.084 67.8 58.891 75.194 90 48 73.33 20.806 90 28.2 58.891 4 38.085l31.763-2.556L48 6Z"/>
  <path fill="#E8DCD9" d="M92 38.085 67.8 58.891 75.194 90 48 73.33 20.806 90 28.2 58.89 4 38.085 48 56.5l44-18.415Z"/>
  <path stroke="#fff" stroke-width="2" d="M48 6v50"/>
  <path stroke="#FCF9F8" stroke-width="2" d="M48 56 22 88m26-32 26 32"/>
  <path stroke="#fff" stroke-width="2" d="M92 38.085 67.8 58.891l7.394 31.11L48 73.328 20.806 90 28.2 58.891 4 38.085 48 56.5l44-18.415Z"/>
  <path stroke="#A28F8C" stroke-width="2" d="m48 6 12.237 29.53L92 38.084 67.8 58.891 75.194 90 48 73.33 20.806 90 28.2 58.891 4 38.085l31.763-2.556L48 6Z"/>
</svg>
