<svg xmlns="http://www.w3.org/2000/svg" width="16" height="16.66667" viewBox="0 0 16 16.66667" class="fill-none stroke-currentcolor sw-2 sl-r">
  <path d="M9.84106,9.66667h0a4.25031,4.25031,0,0,0,1.49227-3.33333v-2c0-1.20734,0-2-.66667-2.66667a2.44911,2.44911,0,0,0-2-.66667c-.58639,0-.657.51578-1.57285.64A2.72411,2.72411,0,0,0,4.66667,4.30558V6.33333A4.25031,4.25031,0,0,0,6.15894,9.66667h0a2.94056,2.94056,0,0,1-2.06884,2.5918c-.42431.13031-.80622.27065-1.141.40827a2.64138,2.64138,0,0,0-1.61573,2.45107V15.12a.54667.54667,0,0,0,.54667.54667H14.12a.54667.54667,0,0,0,.54667-.54667v-.00223a2.64138,2.64138,0,0,0-1.6157-2.45106c-.33483-.13763-.71676-.278-1.14111-.4083A2.94049,2.94049,0,0,1,9.84106,9.66667Z"/>
</svg>
