<svg width="24" height="24" viewBox="0 0 24 24" fill="none" xmlns="http://www.w3.org/2000/svg">
<path fill-rule="evenodd" clip-rule="evenodd" d="M12.2197 5.89352L7.18994 5.86298L9.65992 21.5888H10.1988H15.1388H15.6777L18.1476 5.86298L12.2197 5.89352Z" fill="#FF9100"/>
<path fill-rule="evenodd" clip-rule="evenodd" d="M12.2197 5.89352L7.18994 5.86298L9.65992 21.5888H10.1988H13.8814H14.4203L16.8902 5.86298L12.2197 5.89352Z" fill="#FFDD00"/>
<path fill-rule="evenodd" clip-rule="evenodd" d="M5.75 5.86323H18.7286V4.41302H5.75V5.86323Z" fill="white"/>
<path d="M5.74985 5.86321H5.30957V6.3035H5.74985V5.86321ZM18.7285 5.86321V6.3035H19.1688V5.86321H18.7285ZM18.7285 4.413H19.1688V3.97272H18.7285V4.413ZM5.74985 4.413V3.97272H5.30957V4.413H5.74985ZM5.74985 6.3035H18.7285V5.42293H5.74985V6.3035ZM19.1688 5.86321V4.413H18.2883V5.86321H19.1688ZM18.7285 3.97272H5.74985V4.85328H18.7285V3.97272ZM5.30957 4.413V5.86321H6.19013V4.413H5.30957Z" fill="black"/>
<path fill-rule="evenodd" clip-rule="evenodd" d="M16.222 2.05603H13.1233H11.282H8.18332L7.24023 4.23135H11.282H13.1233H17.1651L16.222 2.05603Z" fill="white"/>
<path d="M16.2219 2.056L16.6258 1.88088L16.5109 1.61572H16.2219V2.056ZM8.18318 2.056V1.61572H7.89418L7.77922 1.88088L8.18318 2.056ZM7.24009 4.23132L6.83614 4.05619L6.56934 4.6716H7.24009V4.23132ZM17.1649 4.23132V4.6716H17.8357L17.5689 4.05619L17.1649 4.23132ZM16.2219 1.61572H13.1231V2.49629H16.2219V1.61572ZM13.1231 1.61572H11.2819V2.49629H13.1231V1.61572ZM11.2819 1.61572H8.18318V2.49629H11.2819V1.61572ZM7.77922 1.88088L6.83614 4.05619L7.64405 4.40645L8.58713 2.23113L7.77922 1.88088ZM7.24009 4.6716H11.2819V3.79104H7.24009V4.6716ZM11.2819 4.6716H13.1231V3.79104H11.2819V4.6716ZM13.1231 4.6716H17.1649V3.79104H13.1231V4.6716ZM17.5689 4.05619L16.6258 1.88088L15.8179 2.23113L16.761 4.40645L17.5689 4.05619Z" fill="#050505"/>
<path d="M12.2181 5.89353L12.2158 6.33383L12.2204 6.33381L12.2181 5.89353ZM6.29015 5.86299L6.29242 5.42271L5.7749 5.42004L5.8552 5.9313L6.29015 5.86299ZM8.76013 21.5888L8.32518 21.6571L8.38361 22.029H8.76013V21.5888ZM15.6761 21.5888V22.029H16.0526L16.111 21.6571L15.6761 21.5888ZM18.1461 5.86299L18.5811 5.9313L18.6614 5.42004L18.1439 5.42271L18.1461 5.86299ZM12.2204 5.45326L6.29242 5.42271L6.28788 6.30326L12.2158 6.33381L12.2204 5.45326ZM5.8552 5.9313L8.32518 21.6571L9.19508 21.5204L6.7251 5.79467L5.8552 5.9313ZM8.76013 22.029H9.29904V21.1485H8.76013V22.029ZM9.29904 22.029H15.1372V21.1485H9.29904V22.029ZM15.1372 22.029H15.6761V21.1485H15.1372V22.029ZM16.111 21.6571L18.5811 5.9313L17.7112 5.79467L15.2411 21.5204L16.111 21.6571ZM18.1439 5.42271L12.2158 5.45326L12.2204 6.33381L18.1484 6.30326L18.1439 5.42271Z" fill="black"/>
<path fill-rule="evenodd" clip-rule="evenodd" d="M18.3299 10.304H12.4127H11.9871H6.06982L7.17664 16.5581L12.1999 16.5035L17.2231 16.5581L18.3299 10.304Z" fill="white"/>
<path d="M18.3301 10.304L18.7636 10.3807L18.8551 9.86371H18.3301V10.304ZM6.06997 10.304V9.86371H5.54492L5.63642 10.3807L6.06997 10.304ZM7.17679 16.558L6.74324 16.6348L6.8083 17.0023L7.18157 16.9983L7.17679 16.558ZM12.2 16.5035L12.2048 16.0632L12.1952 16.0633L12.2 16.5035ZM17.2233 16.558L17.2185 16.9983L17.5918 17.0023L17.6568 16.6348L17.2233 16.558ZM18.3301 9.86371H12.4128V10.7443H18.3301V9.86371ZM12.4128 9.86371H11.9872V10.7443H12.4128V9.86371ZM11.9872 9.86371H6.06997V10.7443H11.9872V9.86371ZM5.63642 10.3807L6.74324 16.6348L7.61034 16.4813L6.50351 10.2273L5.63642 10.3807ZM7.18157 16.9983L12.2048 16.9438L12.1952 16.0633L7.17201 16.1178L7.18157 16.9983ZM12.1952 16.9438L17.2185 16.9983L17.2281 16.1178L12.2048 16.0633L12.1952 16.9438ZM17.6568 16.6348L18.7636 10.3807L17.8966 10.2273L16.7897 16.4813L17.6568 16.6348Z" fill="black"/>
</svg>
