<svg xmlns="http://www.w3.org/2000/svg" xmlns:xlink="http://www.w3.org/1999/xlink" viewBox="0 0 377.9997 252">
  <defs>
    <style>
      .a, .n {
        fill: none;
      }

      .b {
        fill: #e9f5f5;
      }

      .c {
        clip-path: url(#a);
      }

      .d {
        fill: #1a626e;
      }

      .e {
        fill: #f7fbfb;
      }

      .f {
        fill: #eb6e5e;
      }

      .g {
        fill: #6ad4b6;
      }

      .h {
        fill: #f5c676;
      }

      .i {
        fill: #c0d8d8;
      }

      .j {
        fill: #fff;
      }

      .k {
        fill: #dba758;
      }

      .l {
        fill: #ffe0a1;
      }

      .m {
        fill: #919aa5;
      }

      .n {
        stroke: #829494;
        stroke-miterlimit: 10;
        stroke-width: 2px;
      }
    </style>
    <clipPath id="a">
      <path class="a" d="M99,78H225a0,0,0,0,1,0,0V198a0,0,0,0,1,0,0H103a4,4,0,0,1-4-4V78A0,0,0,0,1,99,78Z"/>
    </clipPath>
  </defs>
  <title>code-default-1</title>
  <g>
    <rect class="b" width="377.9997" height="252"/>
    <g>
      <g class="c">
        <path class="d" d="M99,78H225a0,0,0,0,1,0,0V198a0,0,0,0,1,0,0H103a4,4,0,0,1-4-4V78A0,0,0,0,1,99,78Z"/>
        <g>
          <rect class="e" x="113.9998" y="91.5" width="45" height="3"/>
          <rect class="e" x="142.4998" y="115.5" width="45" height="3"/>
          <rect class="e" x="202.4998" y="157.5" width="45" height="3"/>
          <rect class="e" x="217.4998" y="163.5" width="45" height="3"/>
          <rect class="e" x="223.4998" y="169.5" width="27" height="3"/>
          <rect class="f" x="113.9998" y="97.5" width="15" height="3"/>
          <rect class="f" x="113.9998" y="103.5" width="18" height="3"/>
          <rect class="f" x="113.9998" y="133.5" width="21" height="3"/>
          <rect class="f" x="113.9998" y="139.5" width="19.5" height="3"/>
          <rect class="f" x="113.9998" y="205.5" width="21" height="3"/>
          <rect class="f" x="113.9998" y="211.5" width="21" height="3"/>
          <rect class="f" x="119.9998" y="109.5" width="15" height="3" transform="translate(254.9997 222) rotate(180)"/>
          <rect class="d" x="119.9998" y="145.5" width="12" height="3" transform="translate(251.9997 294) rotate(180)"/>
          <rect class="f" x="125.9998" y="151.5" width="12" height="3" transform="translate(263.9997 306) rotate(180)"/>
          <rect class="f" x="125.9998" y="181.5" width="12" height="3" transform="translate(263.9997 366) rotate(180)"/>
          <rect class="f" x="125.9998" y="175.5" width="18" height="3" transform="translate(269.9997 354) rotate(180)"/>
          <rect class="f" x="125.9998" y="193.5" width="18" height="3" transform="translate(269.9997 390) rotate(180)"/>
          <rect class="f" x="119.9998" y="199.5" width="18" height="3" transform="translate(257.9997 402) rotate(180)"/>
          <rect class="f" x="131.9998" y="157.5" width="9" height="3" transform="translate(272.9997 318) rotate(180)"/>
          <rect class="f" x="131.9998" y="187.5" width="9" height="3" transform="translate(272.9997 378) rotate(180)"/>
          <rect class="f" x="131.9998" y="163.5" width="9" height="3" transform="translate(272.9997 330) rotate(180)"/>
          <rect class="f" x="131.9998" y="169.5" width="15" height="3" transform="translate(278.9997 342) rotate(180)"/>
          <rect class="g" x="133.4998" y="97.5" width="10.5" height="3"/>
          <rect class="g" x="139.4998" y="121.5" width="10.5" height="3" transform="translate(289.4997 246) rotate(180)"/>
          <rect class="g" x="139.4998" y="127.5" width="10.5" height="3" transform="translate(289.4997 258) rotate(180)"/>
          <rect class="g" x="136.4998" y="145.5" width="13.5" height="3" transform="translate(286.4997 294) rotate(180)"/>
          <rect class="g" x="142.4998" y="151.5" width="13.5" height="3" transform="translate(298.4997 306) rotate(180)"/>
          <rect class="g" x="145.4998" y="157.5" width="13.5" height="3" transform="translate(304.4997 318) rotate(180)"/>
          <rect class="g" x="145.4998" y="163.5" width="13.5" height="3" transform="translate(304.4997 330) rotate(180)"/>
          <rect class="g" x="149.9998" y="169.5" width="12" height="3" transform="translate(311.9997 342) rotate(180)"/>
          <rect class="g" x="137.9998" y="109.5" width="21" height="3"/>
          <rect class="h" x="148.4998" y="97.5" width="10.5" height="3"/>
          <rect class="h" x="155.9998" y="121.5" width="27" height="3"/>
          <rect class="f" x="119.9998" y="115.5" width="19.5" height="3" transform="translate(259.4997 234) rotate(180)"/>
          <rect class="f" x="191.9998" y="115.5" width="22.5" height="3" transform="translate(406.4997 234) rotate(180)"/>
          <rect class="f" x="119.9998" y="121.5" width="15" height="3" transform="translate(254.9997 246) rotate(180)"/>
          <rect class="f" x="119.9998" y="127.5" width="15" height="3" transform="translate(254.9997 258) rotate(180)"/>
          <rect class="h" x="154.4998" y="127.5" width="30" height="3"/>
          <rect class="h" x="163.4998" y="151.5" width="36" height="3"/>
          <rect class="h" x="163.4998" y="157.5" width="34.5" height="3"/>
          <rect class="h" x="163.4998" y="163.5" width="48" height="3"/>
          <rect class="h" x="212.9998" y="121.5" width="58.5" height="3"/>
          <rect class="g" x="188.9998" y="121.5" width="18" height="3" transform="translate(395.9997 246) rotate(180)"/>
          <rect class="g" x="188.9998" y="127.5" width="10.5" height="3" transform="translate(388.4997 258) rotate(180)"/>
          <rect class="i" x="166.4998" y="169.5" width="7.5" height="3" transform="translate(340.4997 342) rotate(180)"/>
          <rect class="i" x="161.9998" y="187.5" width="63" height="3" transform="translate(386.9997 378) rotate(180)"/>
          <rect class="g" x="178.4998" y="169.5" width="12" height="3" transform="translate(368.9997 342) rotate(180)"/>
          <rect class="h" x="157.4998" y="145.5" width="10.5" height="3"/>
          <rect class="h" x="199.4998" y="169.5" width="19.5" height="3"/>
          <rect class="h" x="161.9998" y="181.5" width="31.5" height="3"/>
          <rect class="g" x="142.4998" y="181.5" width="13.5" height="3" transform="translate(298.4997 366) rotate(180)"/>
          <rect class="g" x="145.4998" y="187.5" width="10.5" height="3" transform="translate(301.4997 378) rotate(180)"/>
        </g>
      </g>
      <path class="e" d="M225,78h54a0,0,0,0,1,0,0V194a4,4,0,0,1-4,4H225a0,0,0,0,1,0,0V78A0,0,0,0,1,225,78Z"/>
      <g>
        <path class="j" d="M279,78H99V58a4,4,0,0,1,4-4H275a4,4,0,0,1,4,4Z"/>
        <g>
          <circle class="f" cx="110.9998" cy="66" r="4.5"/>
          <circle class="h" cx="124.4998" cy="66" r="4.5"/>
          <circle class="g" cx="137.9998" cy="66" r="4.5"/>
        </g>
      </g>
      <g>
        <path class="k" d="M238.3123,88.5h-5.625a.1875.1875,0,0,1-.1875-.1875v-4.125A.1875.1875,0,0,1,232.6873,84h1.875a.1875.1875,0,0,1,.1875.1875V84.75h3.4735a.2765.2765,0,0,1,.2765.2765v3.286A.1875.1875,0,0,1,238.3123,88.5Z"/>
        <path class="l" d="M238.3123,88.5h-5.625a.1875.1875,0,0,1-.1875-.1875V85.5h6v2.8125A.1875.1875,0,0,1,238.3123,88.5Z"/>
      </g>
      <g>
        <path class="k" d="M242.8123,99h-5.625A.1875.1875,0,0,1,237,98.8125v-4.125a.1875.1875,0,0,1,.1875-.1875h1.875a.1875.1875,0,0,1,.1875.1875V95.25h3.4735a.2765.2765,0,0,1,.2765.2765v3.286A.1875.1875,0,0,1,242.8123,99Z"/>
        <path class="l" d="M242.8123,99h-5.625A.1875.1875,0,0,1,237,98.8125V96h6v2.8125A.1875.1875,0,0,1,242.8123,99Z"/>
      </g>
      <polygon class="m" points="228 85.5 229.5 87 228 88.5 228 85.5"/>
      <polygon class="m" points="232 96 233.5 97.5 232 99 232 96"/>
      <line class="n" x1="241.4998" y1="87" x2="259.4998" y2="87"/>
      <line class="n" x1="245.9998" y1="97.5" x2="257.9998" y2="97.5"/>
      <g>
        <path class="k" d="M242.8123,109.5h-5.625a.1875.1875,0,0,1-.1875-.1875v-4.125a.1875.1875,0,0,1,.1875-.1875h1.875a.1875.1875,0,0,1,.1875.1875v.5625h3.4735a.2765.2765,0,0,1,.2765.2765v3.286A.1875.1875,0,0,1,242.8123,109.5Z"/>
        <path class="l" d="M242.8123,109.5h-5.625a.1875.1875,0,0,1-.1875-.1875V106.5h6v2.8125A.1875.1875,0,0,1,242.8123,109.5Z"/>
      </g>
      <polygon class="m" points="232 106.5 233.5 108 232 109.5 232 106.5"/>
      <line class="n" x1="245.9998" y1="108" x2="262.4998" y2="108"/>
      <g>
        <path class="k" d="M242.8123,120h-5.625a.1875.1875,0,0,1-.1875-.1875v-4.125a.1875.1875,0,0,1,.1875-.1875h1.875a.1875.1875,0,0,1,.1875.1875v.5625h3.4735a.2765.2765,0,0,1,.2765.2765v3.286A.1875.1875,0,0,1,242.8123,120Z"/>
        <path class="l" d="M242.8123,120h-5.625a.1875.1875,0,0,1-.1875-.1875V117h6v2.8125A.1875.1875,0,0,1,242.8123,120Z"/>
      </g>
      <polygon class="m" points="232 117 233.5 118.5 232 120 232 117"/>
      <line class="n" x1="245.9998" y1="118.5" x2="254.9998" y2="118.5"/>
    </g>
  </g>
</svg>
