<svg xmlns="http://www.w3.org/2000/svg" xmlns:xlink="http://www.w3.org/1999/xlink" width="377.99968" height="252" viewBox="0 0 377.99968 252">
  <defs>
    <style>
      .a, .n {
        fill: none;
      }

      .b {
        fill: #e9f5f5;
      }

      .c {
        clip-path: url(#a);
      }

      .d {
        fill: #1a626e;
      }

      .e {
        fill: #f7fbfb;
      }

      .f {
        fill: #ff7e6d;
      }

      .g {
        fill: #27cba4;
      }

      .h {
        fill: #ffdb6d;
      }

      .i {
        fill: #c0d8d8;
      }

      .j {
        fill: #fff;
      }

      .k {
        fill: #dba758;
      }

      .l {
        fill: #ffe38d;
      }

      .m {
        fill: #919aa5;
      }

      .n {
        stroke: #6fa6ad;
        stroke-miterlimit: 10;
        stroke-width: 2px;
      }
    </style>
    <clipPath id="a">
      <path class="a" d="M98.99984,78h126a0,0,0,0,1,0,0V198a0,0,0,0,1,0,0h-122a4,4,0,0,1-4-4V78A0,0,0,0,1,98.99984,78Z"/>
    </clipPath>
  </defs>
  <title>code-default-1</title>
  <g>
    <rect class="b" width="377.99968" height="252"/>
    <g>
      <g class="c">
        <path class="d" d="M98.99984,78h126a0,0,0,0,1,0,0V198a0,0,0,0,1,0,0h-122a4,4,0,0,1-4-4V78A0,0,0,0,1,98.99984,78Z"/>
        <g>
          <rect class="e" x="113.99984" y="91.5" width="45" height="3"/>
          <rect class="e" x="142.49984" y="115.5" width="45" height="3"/>
          <rect class="e" x="202.49984" y="157.5" width="45" height="3"/>
          <rect class="e" x="217.49984" y="163.5" width="45" height="3"/>
          <rect class="e" x="223.49984" y="169.5" width="27" height="3"/>
          <rect class="f" x="113.99984" y="97.5" width="15" height="3"/>
          <rect class="f" x="113.99984" y="103.5" width="18" height="3"/>
          <rect class="f" x="113.99984" y="133.5" width="21" height="3"/>
          <rect class="f" x="113.99984" y="139.5" width="19.5" height="3"/>
          <rect class="f" x="113.99984" y="205.5" width="21" height="3"/>
          <rect class="f" x="113.99984" y="211.5" width="21" height="3"/>
          <rect class="f" x="119.99984" y="109.5" width="15" height="3" transform="translate(254.99968 222) rotate(180)"/>
          <rect class="d" x="119.99984" y="145.5" width="12" height="3" transform="translate(251.99968 294) rotate(180)"/>
          <rect class="f" x="125.99984" y="151.5" width="12" height="3" transform="translate(263.99968 306) rotate(180)"/>
          <rect class="f" x="125.99984" y="181.5" width="12" height="3" transform="translate(263.99968 366) rotate(180)"/>
          <rect class="f" x="125.99984" y="175.5" width="18" height="3" transform="translate(269.99968 354) rotate(180)"/>
          <rect class="f" x="125.99984" y="193.5" width="18" height="3" transform="translate(269.99968 390) rotate(180)"/>
          <rect class="f" x="119.99984" y="199.5" width="18" height="3" transform="translate(257.99968 402) rotate(180)"/>
          <rect class="f" x="131.99984" y="157.5" width="9" height="3" transform="translate(272.99968 318) rotate(180)"/>
          <rect class="f" x="131.99984" y="187.5" width="9" height="3" transform="translate(272.99968 378) rotate(180)"/>
          <rect class="f" x="131.99984" y="163.5" width="9" height="3" transform="translate(272.99968 330) rotate(180)"/>
          <rect class="f" x="131.99984" y="169.5" width="15" height="3" transform="translate(278.99968 342) rotate(180)"/>
          <rect class="g" x="133.49984" y="97.5" width="10.5" height="3"/>
          <rect class="g" x="139.49985" y="121.50001" width="10.5" height="3" transform="translate(289.49969 246.00002) rotate(180)"/>
          <rect class="g" x="139.49984" y="127.5" width="10.5" height="3" transform="translate(289.49968 258) rotate(180)"/>
          <rect class="g" x="136.49984" y="145.5" width="13.5" height="3" transform="translate(286.49968 294) rotate(180)"/>
          <rect class="g" x="142.49984" y="151.5" width="13.5" height="3" transform="translate(298.49968 306) rotate(180)"/>
          <rect class="g" x="145.49984" y="157.5" width="13.5" height="3" transform="translate(304.49968 318) rotate(180)"/>
          <rect class="g" x="145.49984" y="163.5" width="13.5" height="3" transform="translate(304.49968 330) rotate(180)"/>
          <rect class="g" x="149.99984" y="169.5" width="12" height="3" transform="translate(311.99968 342) rotate(180)"/>
          <rect class="g" x="137.99984" y="109.5" width="21" height="3"/>
          <rect class="h" x="148.49984" y="97.5" width="10.5" height="3"/>
          <rect class="h" x="155.99984" y="121.5" width="27" height="3"/>
          <rect class="f" x="119.99984" y="115.5" width="19.5" height="3" transform="translate(259.49968 234) rotate(180)"/>
          <rect class="f" x="191.99984" y="115.5" width="22.5" height="3" transform="translate(406.49968 234) rotate(180)"/>
          <rect class="f" x="119.99984" y="121.5" width="15" height="3" transform="translate(254.99968 246) rotate(180)"/>
          <rect class="f" x="119.99984" y="127.5" width="15" height="3" transform="translate(254.99968 258) rotate(180)"/>
          <rect class="h" x="154.49984" y="127.5" width="30" height="3"/>
          <rect class="h" x="163.49984" y="151.5" width="36" height="3"/>
          <rect class="h" x="163.49984" y="157.5" width="34.5" height="3"/>
          <rect class="h" x="163.49984" y="163.5" width="48" height="3"/>
          <rect class="h" x="212.99984" y="121.5" width="58.5" height="3"/>
          <rect class="g" x="188.99984" y="121.50001" width="18" height="3" transform="translate(395.99968 246.00002) rotate(180)"/>
          <rect class="g" x="188.99984" y="127.5" width="10.5" height="3" transform="translate(388.49968 258) rotate(180)"/>
          <rect class="i" x="166.49984" y="169.5" width="7.5" height="3" transform="translate(340.49968 342) rotate(180)"/>
          <rect class="i" x="161.99984" y="187.5" width="63" height="3" transform="translate(386.99968 378) rotate(180)"/>
          <rect class="g" x="178.49984" y="169.5" width="12" height="3" transform="translate(368.99968 342) rotate(180)"/>
          <rect class="h" x="157.49984" y="145.5" width="10.5" height="3"/>
          <rect class="h" x="199.49984" y="169.5" width="19.5" height="3"/>
          <rect class="h" x="161.99984" y="181.5" width="31.5" height="3"/>
          <rect class="g" x="142.49984" y="181.5" width="13.5" height="3" transform="translate(298.49968 366) rotate(180)"/>
          <rect class="g" x="145.49984" y="187.5" width="10.5" height="3" transform="translate(301.49968 378) rotate(180)"/>
        </g>
      </g>
      <path class="e" d="M224.99984,78h54a0,0,0,0,1,0,0V194a4,4,0,0,1-4,4h-50a0,0,0,0,1,0,0V78A0,0,0,0,1,224.99984,78Z"/>
      <g>
        <path class="j" d="M278.99984,78h-180V58a4,4,0,0,1,4-4h172a4,4,0,0,1,4,4Z"/>
        <g>
          <circle class="f" cx="110.99984" cy="66" r="4.5"/>
          <circle class="h" cx="124.49984" cy="66" r="4.5"/>
          <circle class="g" cx="137.99984" cy="66" r="4.5"/>
        </g>
      </g>
      <g>
        <path class="k" d="M238.31234,88.5h-5.625a.1875.1875,0,0,1-.1875-.1875v-4.125a.1875.1875,0,0,1,.1875-.1875h1.875a.1875.1875,0,0,1,.1875.1875V84.75h3.4735a.2765.2765,0,0,1,.2765.2765v3.286A.1875.1875,0,0,1,238.31234,88.5Z"/>
        <path class="l" d="M238.31234,88.5h-5.625a.1875.1875,0,0,1-.1875-.1875V85.5h6v2.8125A.1875.1875,0,0,1,238.31234,88.5Z"/>
      </g>
      <g>
        <path class="k" d="M242.81234,99h-5.625a.1875.1875,0,0,1-.1875-.1875v-4.125a.1875.1875,0,0,1,.1875-.1875h1.875a.1875.1875,0,0,1,.1875.1875V95.25h3.4735a.2765.2765,0,0,1,.2765.2765v3.286A.1875.1875,0,0,1,242.81234,99Z"/>
        <path class="l" d="M242.81234,99h-5.625a.1875.1875,0,0,1-.1875-.1875V96h6v2.8125A.1875.1875,0,0,1,242.81234,99Z"/>
      </g>
      <polygon class="m" points="228 85.5 229.5 87 228 88.5 228 85.5"/>
      <polygon class="m" points="232 96 233.5 97.5 232 99 232 96"/>
      <line class="n" x1="241.49984" y1="87" x2="259.49984" y2="87"/>
      <line class="n" x1="245.99984" y1="97.5" x2="257.99984" y2="97.5"/>
      <g>
        <path class="k" d="M242.81234,109.5h-5.625a.1875.1875,0,0,1-.1875-.1875v-4.125a.1875.1875,0,0,1,.1875-.1875h1.875a.1875.1875,0,0,1,.1875.1875v.5625h3.4735a.2765.2765,0,0,1,.2765.2765v3.286A.1875.1875,0,0,1,242.81234,109.5Z"/>
        <path class="l" d="M242.81234,109.5h-5.625a.1875.1875,0,0,1-.1875-.1875V106.5h6v2.8125A.1875.1875,0,0,1,242.81234,109.5Z"/>
      </g>
      <polygon class="m" points="232 106.5 233.5 108 232 109.5 232 106.5"/>
      <line class="n" x1="245.99984" y1="108" x2="262.49984" y2="108"/>
      <g>
        <path class="k" d="M242.81234,120h-5.625a.1875.1875,0,0,1-.1875-.1875v-4.125a.1875.1875,0,0,1,.1875-.1875h1.875a.1875.1875,0,0,1,.1875.1875v.5625h3.4735a.2765.2765,0,0,1,.2765.2765v3.286A.1875.1875,0,0,1,242.81234,120Z"/>
        <path class="l" d="M242.81234,120h-5.625a.1875.1875,0,0,1-.1875-.1875V117h6v2.8125A.1875.1875,0,0,1,242.81234,120Z"/>
      </g>
      <polygon class="m" points="232 117 233.5 118.5 232 120 232 117"/>
      <line class="n" x1="245.99984" y1="118.5" x2="254.99984" y2="118.5"/>
    </g>
  </g>
</svg>
