<svg xmlns="http://www.w3.org/2000/svg" width="378" height="252" viewBox="0 0 378 252">
  <defs>
    <style>
      .a {
        fill: #e9f5f5;
      }

      .b, .e {
        fill: none;
      }

      .b, .c, .e {
        stroke: #1a626e;
        stroke-miterlimit: 10;
      }

      .b, .c {
        stroke-width: 2px;
      }

      .c {
        fill: #bad9d9;
      }

      .d {
        fill: #1a626e;
      }

      .f {
        fill: #ffe38d;
      }

      .g {
        fill: #dba758;
      }

      .h {
        fill: #384242;
      }
    </style>
  </defs>
  <title>design-default-1</title>
  <g>
    <rect class="a" width="378" height="252"/>
    <g>
      <polyline class="b" points="252 76 225 76 225 133"/>
      <path class="c" d="M154.5,76H127V184h27.5c30,0,51-23.87512,51-54C205.5,100.375,184.5,76,154.5,76Zm3,83H148V102h9.5c15,0,25.5,13.6875,25.5,28.5C183,145.56226,172.5,159,157.5,159Z"/>
      <rect class="d" x="124.5" y="73" width="6" height="6"/>
      <rect class="d" x="154.5" y="181" width="6" height="6"/>
      <rect class="d" x="155.49936" y="73" width="6" height="6"/>
      <rect class="d" x="124.5" y="181" width="6" height="6"/>
      <g>
        <line class="e" x1="205.5" y1="154" x2="205.5" y2="106"/>
        <circle class="d" cx="205.5" cy="106" r="3"/>
        <circle class="d" cx="205.5" cy="154" r="3"/>
        <rect class="d" x="202.5" y="127" width="6" height="6"/>
      </g>
      <g>
        <g>
          <path class="f" d="M217.47754,182l-5.44971-15.25928L219.74072,142.5H223.375v19.62109a3.875,3.875,0,1,0,3.25,0V142.5h3.63428l7.71289,24.24072L232.52246,182Z"/>
          <path class="g" d="M229.89377,143l7.551,23.73155L232.17029,181.5H217.82971l-5.27444-14.76845L220.10623,143H222.875v18.81494a4.375,4.375,0,1,0,4.25,0V143h2.76877m.73123-1h-4.5v20.45654a3.375,3.375,0,1,1-2.25,0V142h-4.5L211.5,166.75l5.625,15.75h15.75l5.625-15.75L230.625,142Z"/>
        </g>
        <rect class="h" x="216" y="182.5" width="18" height="4.5"/>
      </g>
      <rect class="d" x="145.5" y="98.5" width="6" height="6"/>
      <rect class="d" x="180" y="127" width="6" height="6"/>
      <rect class="d" x="145.5" y="155.5" width="6" height="6"/>
      <g>
        <line class="e" x1="225" y1="100" x2="225" y2="52"/>
        <circle class="d" cx="225" cy="52" r="3"/>
        <circle class="d" cx="225" cy="100" r="3"/>
        <rect class="d" x="222" y="73" width="6" height="6"/>
      </g>
      <rect class="d" x="247.5" y="73" width="6" height="6"/>
      <rect class="d" x="222" y="130" width="6" height="6"/>
    </g>
  </g>
</svg>
