<svg xmlns="http://www.w3.org/2000/svg" viewBox="0 0 378 252">
  <defs>
    <style>
      .a {
        fill: #e9f5f5;
      }

      .b, .e {
        fill: none;
      }

      .b, .c, .e {
        stroke: #1a626e;
        stroke-miterlimit: 10;
      }

      .b, .c {
        stroke-width: 2px;
      }

      .c {
        fill: #c0d8d8;
      }

      .d {
        fill: #1a626e;
      }

      .f {
        fill: #ffe0a1;
      }

      .g {
        fill: #dba758;
      }

      .h {
        fill: #384242;
      }
    </style>
  </defs>
  <title>design-default-1</title>
  <g>
    <rect class="a" width="378" height="252"/>
    <g>
      <polyline class="b" points="252 76 225 76 225 133"/>
      <path class="c" d="M154.5,76H127V184h27.5c30,0,51-23.8751,51-54C205.5,100.375,184.5,76,154.5,76Zm3,83H148V102h9.5c15,0,25.5,13.6875,25.5,28.5C183,145.5623,172.5,159,157.5,159Z"/>
      <rect class="d" x="124.5" y="73" width="6" height="6"/>
      <rect class="d" x="154.5" y="181" width="6" height="6"/>
      <rect class="d" x="155.4994" y="73" width="6" height="6"/>
      <rect class="d" x="124.5" y="181" width="6" height="6"/>
      <g>
        <line class="e" x1="205.5" y1="154" x2="205.5" y2="106"/>
        <circle class="d" cx="205.5" cy="106" r="3"/>
        <circle class="d" cx="205.5" cy="154" r="3"/>
        <rect class="d" x="202.5" y="127" width="6" height="6"/>
      </g>
      <g>
        <g>
          <path class="f" d="M217.4775,182l-5.45-15.2593L219.7407,142.5h3.6343v19.6211a3.875,3.875,0,1,0,3.25,0V142.5h3.6343l7.7129,24.2407L232.5225,182Z"/>
          <path class="g" d="M229.8938,143l7.551,23.7316L232.17,181.5H217.83l-5.2744-14.7684L220.1062,143h2.7688v18.8149a4.375,4.375,0,1,0,4.25,0V143h2.7688m.7312-1h-4.5v20.4565a3.375,3.375,0,1,1-2.25,0V142h-4.5L211.5,166.75l5.625,15.75h15.75l5.625-15.75L230.625,142Z"/>
        </g>
        <rect class="h" x="216" y="182.5" width="18" height="4.5"/>
      </g>
      <rect class="d" x="145.5" y="98.5" width="6" height="6"/>
      <rect class="d" x="180" y="127" width="6" height="6"/>
      <rect class="d" x="145.5" y="155.5" width="6" height="6"/>
      <g>
        <line class="e" x1="225" y1="100" x2="225" y2="52"/>
        <circle class="d" cx="225" cy="52" r="3"/>
        <circle class="d" cx="225" cy="100" r="3"/>
        <rect class="d" x="222" y="73" width="6" height="6"/>
      </g>
      <rect class="d" x="247.5" y="73" width="6" height="6"/>
      <rect class="d" x="222" y="130" width="6" height="6"/>
    </g>
  </g>
</svg>
