<?xml version="1.0" encoding="utf-8"?>
<!-- Generator: Adobe Illustrator 17.1.0, SVG Export Plug-In . SVG Version: 6.00 Build 0)  -->
<!DOCTYPE svg PUBLIC "-//W3C//DTD SVG 1.1//EN" "http://www.w3.org/Graphics/SVG/1.1/DTD/svg11.dtd">
<svg version="1.1" xmlns="http://www.w3.org/2000/svg" xmlns:xlink="http://www.w3.org/1999/xlink" x="0px" y="0px" width="112px"
	 height="112px" viewBox="0 0 112 112" enable-background="new 0 0 112 112" xml:space="preserve">
<g id="Layer_1">
	<path fill="#ffffff" d="M15,12.3c0,0.1,0,0.2-0.1,0.2l-2.3,2.3C12.5,15,12.4,15,12.3,15c-0.1,0-0.2,0-0.2-0.1L8,10.8l-4.1,4.1
		C3.8,15,3.8,15,3.7,15c-0.1,0-0.2,0-0.2-0.1l-2.3-2.3C1,12.5,1,12.4,1,12.3c0-0.1,0-0.2,0.1-0.2L5.2,8L1.1,3.9C1,3.8,1,3.8,1,3.7
		c0-0.1,0-0.2,0.1-0.2l2.3-2.3C3.5,1,3.6,1,3.7,1c0.1,0,0.2,0,0.2,0.1L8,5.2l4.1-4.1C12.1,1,12.2,1,12.3,1c0.1,0,0.2,0,0.2,0.1
		l2.3,2.3C15,3.5,15,3.6,15,3.7c0,0.1,0,0.2-0.1,0.2L10.8,8l4.1,4.1C15,12.2,15,12.2,15,12.3z"/>
	<path fill="#ffffff" d="M38.2,13.6c-0.1,0.1-0.1,0.1-0.2,0.1c-0.1,0-0.2,0-0.2-0.1l-5.7-5.7c-0.1-0.1-0.1-0.4,0-0.5l2.3-2.3
		c0.1-0.1,0.4-0.1,0.5,0L38,8.2l7.1-7.1c0.1-0.1,0.4-0.1,0.5,0l2.3,2.3c0.1,0.1,0.1,0.4,0,0.5L38.2,13.6z"/>
	<path fill="#ffffff" d="M64.3,10C64.1,10,64,9.9,64,9.7V6.3C64,6.1,64.1,6,64.3,6h15.3C79.9,6,80,6.1,80,6.3v3.3
		c0,0.2-0.1,0.3-0.3,0.3H64.3z"/>
	<path fill="#ffffff" d="M102.3,16c-0.2,0-0.3-0.1-0.3-0.3V10h-5.7C96.1,10,96,9.9,96,9.7V6.3C96,6.1,96.1,6,96.3,6h5.7V0.3
		c0-0.2,0.1-0.3,0.3-0.3h3.3c0.2,0,0.3,0.1,0.3,0.3V6h5.7c0.2,0,0.3,0.1,0.3,0.3v3.3c0,0.2-0.1,0.3-0.3,0.3H106v5.7
		c0,0.2-0.1,0.3-0.3,0.3H102.3z"/>
	<path fill="#ffffff" d="M9.8,47.9l-7.7-7.7c-0.1-0.1-0.1-0.4,0-0.5l7.7-7.7c0.1-0.1,0.4-0.1,0.5,0l2.3,2.3c0.1,0.1,0.1,0.4,0,0.5
		L7.5,40l5.1,5.1c0.1,0.1,0.1,0.4,0,0.5l-2.3,2.3C10.2,48,10.1,48,10,48C9.9,48,9.8,48,9.8,47.9z"/>
	<path fill="#ffffff" d="M37.9,32.1l7.7,7.7c0.1,0.1,0.1,0.4,0,0.5l-7.7,7.7c-0.1,0.1-0.4,0.1-0.5,0l-2.3-2.3
		c-0.1-0.1-0.1-0.4,0-0.5l5.1-5.1l-5.1-5.1c-0.1-0.1-0.1-0.4,0-0.5l2.3-2.3c0.1-0.1,0.1-0.1,0.2-0.1S37.8,32,37.9,32.1z"/>
	<path fill="#ffffff" d="M64.1,42.8l7.7-7.7c0.1-0.1,0.4-0.1,0.5,0l7.7,7.7c0.1,0.1,0.1,0.4,0,0.5l-2.3,2.3c-0.1,0.1-0.4,0.1-0.5,0
		L72,40.5l-5.1,5.1c-0.1,0.1-0.4,0.1-0.5,0l-2.3-2.3C64,43.2,64,43.1,64,43S64,42.8,64.1,42.8z"/>
	<path fill="#ffffff" d="M111.9,37.9l-7.7,7.7c-0.1,0.1-0.4,0.1-0.5,0l-7.7-7.7c-0.1-0.1-0.1-0.4,0-0.5l2.3-2.3
		c0.1-0.1,0.4-0.1,0.5,0l5.1,5.1l5.1-5.1c0.1-0.1,0.4-0.1,0.5,0l2.3,2.3c0.1,0.1,0.1,0.1,0.1,0.2S112,37.8,111.9,37.9z"/>
	<path fill="#ffffff" d="M15,74.3c0.1,0.1,0.1,0.2,0.1,0.4c-0.3,1-0.9,1.9-1.5,2.6c-0.1,0.1-0.2,0.1-0.4,0.1l-1.9-0.7
		c-0.5,0.4-1,0.7-1.6,0.9l-0.4,2c0,0.1-0.1,0.2-0.3,0.3c-0.5,0.1-1,0.1-1.5,0.1s-1-0.1-1.5-0.1c-0.1,0-0.2-0.1-0.3-0.3l-0.4-2
		c-0.6-0.2-1.1-0.5-1.6-0.9l-1.9,0.7c-0.1,0.1-0.3,0-0.4-0.1c-0.7-0.8-1.2-1.7-1.5-2.6c-0.1-0.1,0-0.3,0.1-0.4l1.5-1.3
		c-0.1-0.3-0.1-0.6-0.1-0.9s0-0.6,0.1-0.9l-1.5-1.3C0,69.7,0,69.5,0,69.4c0.3-1,0.9-1.9,1.5-2.6c0.1-0.1,0.2-0.1,0.4-0.1l1.9,0.7
		c0.5-0.4,1-0.7,1.6-0.9l0.4-2c0-0.1,0.1-0.2,0.3-0.3c1-0.2,2-0.2,3,0c0.1,0,0.2,0.1,0.3,0.3l0.4,2c0.6,0.2,1.1,0.5,1.6,0.9l1.9-0.7
		c0.1-0.1,0.3,0,0.4,0.1c0.7,0.8,1.2,1.7,1.5,2.6c0.1,0.1,0,0.3-0.1,0.4l-1.5,1.3c0.1,0.3,0.1,0.6,0.1,0.9s0,0.6-0.1,0.9L15,74.3z
		 M10.6,72c0-1.6-1.4-3-3-3c-1.7,0-3,1.4-3,3c0,1.7,1.3,3,3,3C9.2,75,10.6,73.7,10.6,72z"/>
	<path fill="#ffffff" d="M47.7,72.3H46v7.3c0,0.2-0.1,0.3-0.3,0.3h-3.3c-0.2,0-0.3-0.1-0.3-0.3V74h-4v5.7c0,0.2-0.1,0.3-0.3,0.3
		h-3.3c-0.2,0-0.3-0.1-0.3-0.3v-7.3h-1.7c-0.1,0-0.3-0.1-0.3-0.2c0-0.1,0-0.3,0.1-0.4l7.7-7.7c0.1-0.1,0.4-0.1,0.5,0l7.7,7.7
		C48,71.9,48,72,48,72.1C47.9,72.3,47.8,72.3,47.7,72.3z"/>
	<path fill="#ffffff" d="M80,79.7c0,0.2-0.1,0.3-0.3,0.3H64.3c-0.2,0-0.3-0.1-0.3-0.3V79c0-3.3,6-2.7,6-5.3c0,0-2-2-2-5.7
		c0-2.2,1.8-4,4-4s4,1.8,4,4c0,3.7-2,5.7-2,5.7c0,2.7,6,2,6,5.3V79.7z"/>
	<path fill="#ffffff" d="M112,79.7c0,0.2-0.1,0.3-0.3,0.3H96.3c-0.2,0-0.3-0.1-0.3-0.3V79c0-3.3,6-2.7,6-5.3c-2,0-3-1.3-3-1.3
		s1-0.7,1-4.3c0-2.2,1.8-4,4-4s4,1.8,4,4c0,3.7,1,4.3,1,4.3s-1,1.3-3,1.3c0,2.7,6,2,6,5.3V79.7z"/>
	<path fill="#ffffff" d="M10,111.7c0,0.2-0.1,0.3-0.3,0.3H0.3c-0.2,0-0.3-0.1-0.3-0.3V111c0-2.3,3.3-1.7,3.3-3.7
		c0,0-1.3-1.5-1.3-4.3c0-1.6,1.3-3,3-3c1.6,0,3,1.4,3,3c0,2.8-1.3,4.3-1.3,4.3c0,2.1,3.3,1.4,3.3,3.7V111.7z M16,107.7
		c0,0.2-0.1,0.3-0.3,0.3H9.3c-0.8-0.3-1.1-0.6-1.1-0.6s1.2-1.8,1.2-4.4c0-1.9-1.3-3.1-1.3-3.1v0C8,99.6,8,99.3,8,99c0-1.6,1.3-3,3-3
		c1.6,0,3,1.4,3,3c0,2.8-1.3,4.3-1.3,4.3c0,2.1,3.3,1.4,3.3,3.7V107.7z"/>
	<path fill="#ffffff" d="M45.9,106.2c-0.1,0.4-0.5,0.8-1,0.8h-8c-0.5,0-0.9-0.3-1-0.8L34,98h-1c-0.6,0-1-0.4-1-1c0-0.6,0.4-1,1-1
		h1.8c0.5,0,0.9,0.3,1,0.8l0.6,2.2h11.4c0.1,0,0.2,0.1,0.3,0.1c0.1,0.1,0.1,0.2,0.1,0.3L45.9,106.2z M38.3,108.7
		c0.9,0,1.7,0.7,1.7,1.7c0,0.9-0.7,1.7-1.7,1.7s-1.7-0.7-1.7-1.7C36.7,109.4,37.4,108.7,38.3,108.7z M43.7,108.7
		c0.9,0,1.7,0.7,1.7,1.7c0,0.9-0.7,1.7-1.7,1.7s-1.7-0.7-1.7-1.7C42,109.4,42.7,108.7,43.7,108.7z"/>
	<path fill="#ffffff" d="M77.7,101.3c0,0.9-0.3,1.9-0.7,2.6l-4.4,7.9c-0.1,0.1-0.2,0.2-0.3,0.2c-0.1,0-0.2-0.1-0.3-0.2l-4.4-7.9
		c-0.4-0.8-0.7-1.7-0.7-2.6c0-2.9,2.4-5.3,5.3-5.3S77.7,98.4,77.7,101.3z M74.3,101.3c0-1.1-0.9-2-2-2s-2,0.9-2,2s0.9,2,2,2
		S74.3,102.4,74.3,101.3z"/>
	<path fill="#ffffff" d="M112,99.7c0,0.2-0.1,0.3-0.3,0.3H96.3c-0.2,0-0.3-0.1-0.3-0.3v-3.3c0-0.2,0.1-0.3,0.3-0.3h15.3
		c0.2,0,0.3,0.1,0.3,0.3V99.7z M112,105.7c0,0.2-0.1,0.3-0.3,0.3H96.3c-0.2,0-0.3-0.1-0.3-0.3v-3.3c0-0.2,0.1-0.3,0.3-0.3h15.3
		c0.2,0,0.3,0.1,0.3,0.3V105.7z M112,111.7c0,0.2-0.1,0.3-0.3,0.3H96.3c-0.2,0-0.3-0.1-0.3-0.3v-3.3c0-0.2,0.1-0.3,0.3-0.3h15.3
		c0.2,0,0.3,0.1,0.3,0.3V111.7z"/>
</g>
</svg>
