<svg xmlns="http://www.w3.org/2000/svg" xmlns:xlink="http://www.w3.org/1999/xlink" width="3962.32721" height="1257.89918" viewBox="0 0 3962.32721 1257.89918">
  <defs>
    <style>
      .a, .e, .j {
        fill: #f7f2f5;
      }

      .a, .af, .h, .l, .n, .s, .x {
        stroke: #7f6371;
      }

      .a, .aa, .ac, .ad, .ae, .af, .ah, .ai, .aj, .al, .ba, .bb, .bc, .be, .bj, .bl, .bm, .bo, .c, .g, .h, .j, .k, .l, .m, .n, .p, .r, .s, .t, .u, .v, .w, .x, .y, .z {
        stroke-linecap: round;
        stroke-linejoin: round;
      }

      .a, .aa, .ac, .ad, .ae, .af, .ah, .ai, .aj, .al, .au, .av, .az, .b, .ba, .bb, .bc, .be, .bj, .bl, .bm, .bo, .c, .h, .n, .q, .r, .s, .t, .u, .v, .w, .x, .y {
        stroke-width: 2px;
      }

      .aw, .b, .c {
        fill: #ff7e6d;
      }

      .az, .b, .ba, .bj, .bm, .c {
        stroke: #bf4e45;
      }

      .as, .at, .au, .av, .az, .b, .q {
        stroke-miterlimit: 10;
      }

      .d {
        fill: #ecebec;
      }

      .f {
        clip-path: url(#a);
      }

      .ac, .ah, .ai, .aj, .al, .at, .av, .az, .bb, .bj, .bo, .g, .h, .k, .l, .m, .p, .v, .w {
        fill: none;
      }

      .bb, .g, .k {
        stroke: #fff;
      }

      .g {
        stroke-width: 8px;
      }

      .i {
        clip-path: url(#b);
      }

      .j, .m, .p {
        stroke: #e5e0e3;
      }

      .j, .m {
        stroke-width: 12px;
      }

      .k {
        stroke-width: 22px;
      }

      .l {
        stroke-width: 16px;
      }

      .bk, .n, .q, .t {
        fill: #ffdb6d;
      }

      .o {
        clip-path: url(#c);
      }

      .p {
        stroke-width: 6px;
      }

      .aa, .ac, .ad, .ae, .ah, .ai, .au, .av, .bc, .be, .q, .t {
        stroke: #8e7c69;
      }

      .r {
        fill: #27cba4;
      }

      .bl, .r, .w {
        stroke: #189675;
      }

      .bg, .s, .y {
        fill: #fff;
      }

      .u {
        fill: #56959e;
      }

      .u, .v {
        stroke: #1a626e;
      }

      .x, .z {
        fill: #d2c7cc;
      }

      .y, .z {
        stroke: #d2c7cc;
      }

      .aa {
        fill: #fffbee;
      }

      .ab, .ad {
        fill: #fff3ce;
      }

      .ae {
        fill: #d5f5ee;
      }

      .af {
        fill: #fefdfd;
      }

      .ag {
        fill: #ceb797;
      }

      .ah, .al, .an, .aq, .bi {
        opacity: 0.2;
      }

      .ai, .aj, .ap, .ar, .ay, .bo {
        opacity: 0.4;
      }

      .aj, .al {
        stroke: #e5ccae;
      }

      .ak, .ao, .ap, .aq, .as, .bc {
        fill: #8e7c69;
      }

      .ak, .bd, .bf {
        opacity: 0.1;
      }

      .am {
        fill: #e5ccae;
      }

      .as, .at {
        stroke: #726051;
      }

      .au {
        fill: #fff8e2;
      }

      .ax {
        clip-path: url(#d);
      }

      .ay {
        fill: #ffb2a7;
      }

      .ba, .bf, .bi, .bn {
        fill: #bf4e45;
      }

      .bd {
        fill: #553143;
      }

      .be, .bm {
        fill: #fff6e5;
      }

      .bh {
        clip-path: url(#e);
      }

      .bk {
        font-size: 32px;
        font-family: ProximaNovaSoft-Bold, Proxima Nova Soft;
        font-weight: 700;
      }

      .bl {
        fill: #eafaf6;
      }

      .bn {
        opacity: 0.3;
      }

      .bo {
        stroke: #ffb2a7;
      }
    </style>
    <clipPath id="a">
      <rect class="a" x="3225.32721" y="4" width="504" height="336" rx="6" ry="6"/>
    </clipPath>
    <clipPath id="b">
      <path class="a" d="M3210.66054,324h529.33334a5.33333,5.33333,0,0,1,5.33333,5.33333v0A10.66666,10.66666,0,0,1,3734.66055,340H3215.99386a10.66666,10.66666,0,0,1-10.66666-10.66666v0A5.33333,5.33333,0,0,1,3210.66054,324Z"/>
    </clipPath>
    <clipPath id="c">
      <path class="a" d="M3285.32721,60h372a6,6,0,0,1,6,6V84a0,0,0,0,1,0,0h-384a0,0,0,0,1,0,0V66A6,6,0,0,1,3285.32721,60Z"/>
    </clipPath>
    <clipPath id="d">
      <path class="b" d="M3873.32721,6h60a2,2,0,0,1,2,2V26a0,0,0,0,1,0,0h-64a0,0,0,0,1,0,0V8A2,2,0,0,1,3873.32721,6Z"/>
    </clipPath>
    <clipPath id="e">
      <rect class="c" x="3706.32721" y="276" width="64" height="64" rx="4" ry="4"/>
    </clipPath>
  </defs>
  <title>card-introduction-960</title>
  <g>
    <g>
      <path class="d" d="M3008.32721,353.99986h948a0,0,0,0,1,0,0V394a8,8,0,0,1-8,8h-932a8,8,0,0,1-8-8V353.99986A0,0,0,0,1,3008.32721,353.99986Z"/>
      <g>
        <g>
          <rect class="e" x="3225.32721" y="4" width="504" height="336" rx="6" ry="6"/>
          <g class="f">
            <path class="g" d="M3225.32721,10a5.95368,5.95368,0,0,1,5.90625-6H3723.421a5.95368,5.95368,0,0,1,5.90625,6"/>
          </g>
          <rect class="h" x="3225.32721" y="4" width="504" height="336" rx="6" ry="6"/>
        </g>
        <g>
          <path class="e" d="M3210.66054,324h529.33334a5.33333,5.33333,0,0,1,5.33333,5.33333v0A10.66666,10.66666,0,0,1,3734.66055,340H3215.99386a10.66666,10.66666,0,0,1-10.66666-10.66666v0A5.33333,5.33333,0,0,1,3210.66054,324Z"/>
          <g class="i">
            <path class="j" d="M3753.32721,332c0,4.41828-13.27706,8-19.85714,8H3217.18435c-6.58008,0-19.85714-3.58172-19.85714-8"/>
            <path class="g" d="M3205.32721,328c0-2.20914,2.66654-4,5.95588-4h528.08824c3.28934,0,5.95588,1.79086,5.95588,4"/>
            <line class="k" x1="3443.32721" y1="324" x2="3507.32721" y2="324"/>
            <line class="l" x1="3443.32721" y1="324" x2="3507.32721" y2="324"/>
            <line class="m" x1="3443.32721" y1="324" x2="3507.32721" y2="324"/>
          </g>
          <path class="h" d="M3210.66054,324h529.33334a5.33333,5.33333,0,0,1,5.33333,5.33333v0A10.66666,10.66666,0,0,1,3734.66055,340H3215.99386a10.66666,10.66666,0,0,1-10.66666-10.66666v0A5.33333,5.33333,0,0,1,3210.66054,324Z"/>
        </g>
        <g>
          <rect class="n" x="3241.32721" y="20" width="472" height="304"/>
          <g>
            <g>
              <path class="e" d="M3285.32721,60h372a6,6,0,0,1,6,6V84a0,0,0,0,1,0,0h-384a0,0,0,0,1,0,0V66A6,6,0,0,1,3285.32721,60Z"/>
              <g class="o">
                <path class="g" d="M3279.32721,66a5.93972,5.93972,0,0,1,5.87755-6h372.2449a5.93972,5.93972,0,0,1,5.87755,6"/>
                <line class="p" x1="3663.32721" y1="84" x2="3279.32721" y2="84"/>
              </g>
              <path class="h" d="M3285.32721,60h372a6,6,0,0,1,6,6V84a0,0,0,0,1,0,0h-384a0,0,0,0,1,0,0V66A6,6,0,0,1,3285.32721,60Z"/>
            </g>
            <ellipse class="c" cx="3290.86567" cy="72" rx="3.92308" ry="4"/>
            <ellipse class="q" cx="3302.6349" cy="72" rx="3.92308" ry="4"/>
            <ellipse class="r" cx="3314.40413" cy="72" rx="3.92308" ry="4"/>
            <rect class="s" x="3303.55798" y="84" width="312" height="208"/>
            <path class="a" d="M3279.32721,84h24a0,0,0,0,1,0,0V292a0,0,0,0,1,0,0h-18a6,6,0,0,1-6-6V84a0,0,0,0,1,0,0Z"/>
            <path class="a" d="M3615.32721,84h48a0,0,0,0,1,0,0V286a6,6,0,0,1-6,6h-42a0,0,0,0,1,0,0V84A0,0,0,0,1,3615.32721,84Z"/>
            <g>
              <g>
                <rect class="t" x="3285.96182" y="267.19239" width="5.88462" height="6"/>
                <rect class="c" x="3289.8849" y="271.19239" width="5.88462" height="6"/>
              </g>
              <g>
                <line class="h" x1="3294.78875" y1="251.19239" x2="3288.90413" y2="245.19239"/>
                <ellipse class="s" cx="3288.90413" cy="245.19239" rx="2.94231" ry="3"/>
              </g>
              <g>
                <path class="u" d="M3286.94259,219.19239h7.84615a0,0,0,0,1,0,0v6a1,1,0,0,1-1,1h-5.84615a1,1,0,0,1-1-1v-6A0,0,0,0,1,3286.94259,219.19239Z"/>
                <path class="v" d="M3286.94259,218.19233c0-5.33325,7.84615-5.33325,7.84615,0"/>
              </g>
              <polygon class="c" points="3295.77 96.333 3285.962 93 3289.231 103 3292.5 99.667 3295.77 96.333"/>
              <rect class="r" x="3286.94259" y="191.19239" width="7.84615" height="7"/>
              <rect class="t" x="3285.96182" y="143.19239" width="9.80769" height="8"/>
              <ellipse class="c" cx="3290.86567" cy="171.19239" rx="3.92308" ry="4"/>
              <line class="h" x1="3280.07721" y1="110" x2="3302.6349" y2="110"/>
              <line class="h" x1="3280.07721" y1="134" x2="3302.6349" y2="134"/>
              <line class="h" x1="3280.07721" y1="159" x2="3302.6349" y2="159"/>
              <line class="h" x1="3280.07721" y1="183" x2="3302.6349" y2="183"/>
              <line class="h" x1="3280.07721" y1="206" x2="3302.6349" y2="206"/>
              <line class="h" x1="3280.07721" y1="235" x2="3302.6349" y2="235"/>
              <line class="h" x1="3280.07721" y1="259" x2="3302.6349" y2="259"/>
              <g>
                <g>
                  <polygon class="r" points="3288.904 118 3292.827 118 3294.789 122 3290.866 128 3286.943 122 3288.904 118"/>
                  <rect class="r" x="3286.94259" y="116" width="7.84615" height="2"/>
                </g>
                <line class="w" x1="3290.86567" y1="128" x2="3290.86567" y2="122"/>
              </g>
            </g>
            <g>
              <rect class="x" x="3615.32721" y="84" width="48" height="8"/>
              <line class="h" x1="3620.32721" y1="88" x2="3636.32721" y2="88"/>
            </g>
            <g>
              <rect class="x" x="3615.32721" y="132" width="48" height="8"/>
              <line class="h" x1="3620.32721" y1="136" x2="3636.32721" y2="136"/>
            </g>
            <g>
              <rect class="x" x="3615.32721" y="196" width="48" height="8"/>
              <line class="h" x1="3620.32721" y1="200" x2="3636.32721" y2="200"/>
            </g>
            <rect class="y" x="3623.32721" y="148" width="16" height="8"/>
            <rect class="y" x="3639.32721" y="148" width="16" height="8"/>
            <rect class="y" x="3623.32721" y="164" width="16" height="8"/>
            <rect class="y" x="3639.32721" y="164" width="16" height="8"/>
            <g>
              <rect class="y" x="3623.32721" y="228" width="16" height="8"/>
              <rect class="y" x="3639.32721" y="228" width="16" height="8"/>
            </g>
            <g>
              <rect class="y" x="3623.32721" y="244" width="16" height="8"/>
              <rect class="y" x="3639.32721" y="244" width="16" height="8"/>
            </g>
            <rect class="y" x="3623.32721" y="180" width="16" height="8"/>
            <rect class="y" x="3639.32721" y="180" width="16" height="8"/>
            <g>
              <rect class="y" x="3623.32721" y="100" width="32" height="8"/>
              <line class="y" x1="3647.32721" y1="100" x2="3647.32721" y2="108"/>
              <polygon class="z" points="3652.522 103.293 3651.135 104.707 3649.748 103.293 3652.522 103.293"/>
            </g>
            <g>
              <rect class="y" x="3623.32721" y="116" width="32" height="8"/>
              <line class="y" x1="3647.32721" y1="116" x2="3647.32721" y2="124"/>
              <polygon class="z" points="3652.522 119.293 3651.135 120.707 3649.748 119.293 3652.522 119.293"/>
            </g>
            <g>
              <rect class="y" x="3623.32721" y="212" width="32" height="8"/>
              <line class="y" x1="3647.32721" y1="212" x2="3647.32721" y2="220"/>
              <polygon class="z" points="3652.522 215.293 3651.135 216.707 3649.748 215.293 3652.522 215.293"/>
            </g>
            <rect class="aa" x="3389.32721" y="104" width="156" height="156"/>
            <g>
              <path class="ab" d="M3424.065,130.81482c-2.59128-.87659-3.778-2.54321-3.778-7.25928,0-2.279-1.59806-2.22223-1.59806-2.22223l-.00431.00128a1.11488,1.11488,0,0,0-.53109-.86176A14.26665,14.26665,0,0,0,3414.674,120c-.41185,0-.40035.35132-.22077.94574.09482.31348.4061,1.27649,1.1843,1.27649.5943.41858,0,1.09839,0,1.09839l-2.32454.53119-.72648,1.18524-4.21376,1.4895a3.03422,3.03422,0,0,0,1.40746,2.30212c1.35478.82526,4.84015.801,4.84015.801a7.667,7.667,0,0,1,.727,6.37036A14.19874,14.19874,0,0,1,3424.065,130.81482Z"/>
              <g>
                <path class="aa" d="M3424.065,130.81481c-2.59117-.87654-3.77778-2.54321-3.77778-7.25926,0-2.279-1.59829-2.22222-1.59829-2.22222"/>
                <path class="ac" d="M3416.52858,121.98667a1.77434,1.77434,0,0,0,.5225-.48652"/>
                <path class="ac" d="M3418.72167,121.50032c-.08414-.49815-.24545-.89266-.568-1.02743A14.26614,14.26614,0,0,0,3414.67422,120c-.412,0-.40047.35136-.221.94577.09468.31349.40613,1.27645,1.18442,1.27645a1.701,1.701,0,0,0,.8909-.23555"/>
                <path class="ac" d="M3415.34709,136a7.66764,7.66764,0,0,0-.7265-6.37037s-3.48548.0243-4.84028-.80093a3.03458,3.03458,0,0,1-1.40759-2.30213l4.21367-1.48953.7265-1.18519,2.32466-.53122s.59425-.67981.00013-1.09841"/>
              </g>
            </g>
            <line class="ac" x1="3429.32721" y1="125" x2="3453.32721" y2="125"/>
            <line class="ac" x1="3429.32721" y1="130" x2="3443.32721" y2="130"/>
            <g>
              <rect class="ad" x="3389.32721" y="152" width="156" height="72"/>
              <rect class="aa" x="3480.32721" y="152" width="65" height="72"/>
              <rect class="aa" x="3480.32721" y="196" width="65" height="28"/>
              <rect class="aa" x="3521.32721" y="196" width="24" height="28"/>
              <rect class="aa" x="3521.32721" y="212" width="24" height="12"/>
              <rect class="aa" x="3533.32721" y="212" width="12" height="12"/>
            </g>
            <rect class="ae" x="3389.32721" y="224" width="156" height="36"/>
            <g>
              <line class="ac" x1="3401.32721" y1="207" x2="3425.32721" y2="207"/>
              <line class="ac" x1="3401.32721" y1="212" x2="3415.32721" y2="212"/>
            </g>
            <line class="ac" x1="3429.32721" y1="130" x2="3443.32721" y2="130"/>
          </g>
          <rect class="af" x="3241.32721" y="20" width="472" height="16"/>
          <g>
            <g>
              <line class="h" x1="3249.32721" y1="28" x2="3277.32721" y2="28"/>
              <line class="h" x1="3295.32721" y1="28" x2="3302.32721" y2="28"/>
              <line class="h" x1="3310.32721" y1="28" x2="3317.32721" y2="28"/>
              <line class="h" x1="3325.32721" y1="28" x2="3334.32721" y2="28"/>
              <line class="h" x1="3341.32721" y1="28" x2="3349.32721" y2="28"/>
              <line class="h" x1="3357.32721" y1="28" x2="3366.32721" y2="28"/>
              <line class="h" x1="3374.32721" y1="28" x2="3384.32721" y2="28"/>
            </g>
            <g>
              <line class="h" x1="3693.32721" y1="25" x2="3704.32721" y2="25"/>
              <line class="h" x1="3693.32721" y1="28" x2="3701.32721" y2="28"/>
              <line class="h" x1="3693.32721" y1="31" x2="3704.32721" y2="31"/>
            </g>
            <g>
              <circle class="h" cx="3676.32721" cy="27" r="2" transform="translate(1057.67943 2607.46402) rotate(-45)"/>
              <line class="h" x1="3677.74142" y1="28.41421" x2="3680.56985" y2="31.24264"/>
            </g>
            <line class="h" x1="3662.32721" y1="28" x2="3633.32721" y2="28"/>
          </g>
        </g>
      </g>
      <g>
        <rect class="ag" x="3001.32721" y="340" width="960" height="40" rx="4" ry="4"/>
        <line class="ah" x1="3003.424" y1="349.36275" x2="3222.34622" y2="342.42855"/>
        <line class="ah" x1="3003.05365" y1="369.341" x2="3169.37585" y2="365.38096"/>
        <line class="ah" x1="3003.97095" y1="377.29908" x2="3224.34622" y2="366.42855"/>
        <line class="ah" x1="3732.34622" y1="357.35444" x2="3958.57993" y2="346.35444"/>
        <line class="ai" x1="3245.3297" y1="345.02631" x2="3578.32944" y2="352.4263"/>
        <line class="ai" x1="3642.84622" y1="350.25444" x2="3865.34622" y2="344.74243"/>
        <line class="aj" x1="3170.87067" y1="374.68277" x2="3250.87067" y2="378.68277"/>
        <line class="ah" x1="3775.34622" y1="366.35444" x2="3958.57993" y2="370.35444"/>
        <line class="ah" x1="3196.87511" y1="371.26299" x2="3276.87511" y2="375.26299"/>
        <line class="ah" x1="3305.34622" y1="376.68277" x2="3485.34622" y2="369.68277"/>
        <line class="ah" x1="3434.3688" y1="360.89986" x2="3614.3688" y2="364.89986"/>
        <line class="ah" x1="3082.31627" y1="352.98861" x2="3185.39241" y2="357.60399"/>
        <path class="ak" d="M3939.21876,379.791c-9.29707-4.40356-5.21379-6.203-6.53265-12.845-1.34906-6.794-4.954-6.30047-7.90192-12.93261-2.94752-6.63122-13.774-8.13623-7.56887-14.0134h40.17618a3.96825,3.96825,0,0,1,3.93572,4v31.86771a3.96425,3.96425,0,0,1-3.85959,3.99931C3951.32562,379.97728,3939.9415,380.1333,3939.21876,379.791Z"/>
        <path class="ak" d="M3023.79674,379.791c9.44891-4.40356,5.29895-6.203,6.63935-12.845,1.37109-6.794,5.0349-6.30047,8.031-12.93261,2.99566-6.63122,10.76527-8.13623,4.45878-14.0134h-37.59863a4,4,0,0,0-4,4v31.86771a3.99445,3.99445,0,0,0,3.92263,3.99931C3011.49214,379.97728,3023.06219,380.1333,3023.79674,379.791Z"/>
        <line class="al" x1="3079.83583" y1="376.59591" x2="3169.83583" y2="374.59591"/>
        <line class="aj" x1="3002.34944" y1="351.37482" x2="3224.81872" y2="347.667"/>
        <line class="aj" x1="3157.335" y1="353.30946" x2="3379.80428" y2="349.60164"/>
        <line class="aj" x1="3398.32729" y1="358.05265" x2="3620.79657" y2="354.34483"/>
        <line class="aj" x1="3384.33381" y1="376.1882" x2="3606.80309" y2="370.48038"/>
        <line class="aj" x1="3617.31438" y1="347.00169" x2="3802.7523" y2="342.24397"/>
        <line class="aj" x1="3732.61158" y1="378.06226" x2="3958.31457" y2="372.35444"/>
        <line class="aj" x1="3721.5926" y1="360.00703" x2="3947.29559" y2="354.29921"/>
        <line class="al" x1="3002.30584" y1="364.80999" x2="3159.38178" y2="363.66846"/>
        <path class="am" d="M3001.32721,344h0a3.99581,3.99581,0,0,1,4-3.99581L3956.33235,341a3.99743,3.99743,0,0,1,3.99485,4Z"/>
        <path class="am" d="M3079.67955,342.22727c.92058.285,2.0689.61069,3.46268.98075,32.1801,8.54418,38.21162,4.63083,76.04114,5.88887,29.92079.995,30.46026-1.41125,60.46677-1.16123s-69.99265.23171-39.98614.48173c30.00238.25,30.165-3.27368,60.16735-3.02369,28.96449.24134,29.21033,3.46148,55.18153.56831l-9.41332-3.5973Z"/>
        <path class="ac" d="M3005.3304,340H3957.324a4.0032,4.0032,0,0,1,4.0032,4.0032V376a4,4,0,0,1-4,4H3005.3304a4.0032,4.0032,0,0,1-4.0032-4.0032V344.0032A4.0032,4.0032,0,0,1,3005.3304,340Z"/>
        <line class="ai" x1="3083.32478" y1="379.67503" x2="3162.99145" y2="377.3417"/>
        <line class="ah" x1="3139.39701" y1="369.23554" x2="3307.39701" y2="365.23554"/>
        <line class="ah" x1="3139.36738" y1="377.28314" x2="3362.36738" y2="366.28314"/>
        <line class="aj" x1="3308.89184" y1="374.68277" x2="3488.89184" y2="378.68277"/>
        <line class="ah" x1="3334.89628" y1="370.33429" x2="3514.89628" y2="374.33429"/>
        <line class="ah" x1="3220.33744" y1="352.98861" x2="3423.41358" y2="357.60399"/>
        <line class="al" x1="3217.857" y1="376.59591" x2="3307.857" y2="374.59591"/>
        <line class="aj" x1="3140.37061" y1="351.2294" x2="3362.83989" y2="347.52158"/>
        <line class="al" x1="3140.327" y1="364.66457" x2="3297.40294" y2="363.52304"/>
        <line class="ai" x1="3221.34595" y1="379.67503" x2="3301.01262" y2="377.3417"/>
        <line class="ah" x1="3409.38629" y1="348.35444" x2="3730.38629" y2="341.35444"/>
        <line class="ah" x1="3409.41592" y1="368.30685" x2="3577.41592" y2="364.30685"/>
        <line class="ah" x1="3409.38629" y1="376.35444" x2="3632.38629" y2="365.35444"/>
        <line class="aj" x1="3578.91074" y1="373.75408" x2="3758.91074" y2="377.75408"/>
        <line class="ah" x1="3604.91518" y1="370.33429" x2="3784.91518" y2="374.33429"/>
        <line class="ah" x1="3490.35634" y1="352.05992" x2="3693.43248" y2="356.67529"/>
        <line class="al" x1="3487.8759" y1="375.66721" x2="3577.8759" y2="373.66721"/>
        <line class="aj" x1="3410.38951" y1="350.30071" x2="3632.85879" y2="346.59288"/>
        <line class="al" x1="3410.34591" y1="363.73588" x2="3567.42185" y2="362.59435"/>
        <line class="ai" x1="3491.36485" y1="378.74634" x2="3571.03152" y2="376.41301"/>
        <line class="ah" x1="3672.4736" y1="348.35444" x2="3915.98112" y2="341.35444"/>
        <line class="aj" x1="3801.07322" y1="373.75408" x2="3940.8532" y2="377.75408"/>
        <path class="ah" d="M3960.57993,374.33429"/>
        <path class="ah" d="M3820.79994,370.33429"/>
        <line class="al" x1="3732.01507" y1="375.66721" x2="3800.2882" y2="373.66721"/>
        <path class="am" d="M3367.9494,342.26383c1.72068.285,3.867.61069,6.47218.98075,60.14856,8.54418,71.42221,4.63083,142.13025,5.88887,55.92564.995,56.934-1.41125,113.01984-1.16123s56.08743.23171,112.17329.48173c56.07814.25,56.382-3.27368,112.46019-3.02369,54.1382.24134,57.83141,3.46148,106.37478.56831l-17.59464-3.5973Z"/>
        <line class="aj" x1="3673.23463" y1="350.30071" x2="3841.9977" y2="346.59288"/>
        <line class="al" x1="3673.20156" y1="363.73588" x2="3792.35786" y2="362.59435"/>
        <g class="an">
          <path class="ao" d="M3166.35016,341.28314l34.18349,5.568c24.99265,2.06387,35.20564,1.15742,72.90226,1.45019"/>
        </g>
        <path class="ap" d="M3112.97556,374.18431c56.14849-2.0251-21.02288-1.13568,63.66635-1.423,86.62829-.29385,80.33539-1.07908,164.89967-1.72121,84.55264-.642,208.532,6.60823,283.47,7.95985h-576S3106.97889,374.40059,3112.97556,374.18431Z"/>
        <path class="aq" d="M3140.49134,357.80786c80.30262-2.06387,13.11747-1.15742,134.23859-1.45019,123.89432-.29948,114.89433-1.09974,235.83673-1.75416,120.92577-.65433,367.15912-9.30508,405.414,8.11224,33.22,15.125-102.932,1.977-149.86814,0-204.09439-8.5966-716.38673,14.58268-717.10143,0C3047.88995,339.84025,3131.915,358.02829,3140.49134,357.80786Z"/>
        <g>
          <g class="ar">
            <path class="ao" d="M3019.20393,368.02653c-5.53419.754-6.25325-2.5203-8.36736-7.69005-1.63742-4.00407-1.17754-4.14669,3.10879-4.73068,5.53419-.754,4.90208-.23688,8.116,4.3311C3025.13221,364.3015,3023.49027,367.44254,3019.20393,368.02653Z"/>
          </g>
          <circle class="as" cx="3016.31407" cy="360.31699" r="4"/>
          <line class="at" x1="3012.31407" y1="360.31699" x2="3020.31407" y2="360.31699"/>
        </g>
        <g class="ar">
          <path class="ao" d="M3949.85514,360.06938c-2.46821,5.07829-2.51751,9.31425-8.0517,8.19452-4.28634-.86725-3.75361-5.09807-1.84193-9.0313,2.46821-5.07829,3.347-2.369,8.9123-3.32234C3952.48255,355.2921,3951.76682,356.13615,3949.85514,360.06938Z"/>
        </g>
        <circle class="as" cx="3945.31407" cy="360.53759" r="4"/>
        <line class="at" x1="3941.94634" y1="361" x2="3949.94634" y2="361"/>
      </g>
      <g>
        <path class="au" d="M3871.32721,26h64a0,0,0,0,1,0,0V338a2,2,0,0,1-2,2h-60a2,2,0,0,1-2-2V26A0,0,0,0,1,3871.32721,26Z"/>
        <g class="an">
          <line class="av" x1="3883.78875" y1="38" x2="3883.78875" y2="46"/>
          <line class="av" x1="3887.71182" y1="38" x2="3887.71182" y2="46"/>
          <line class="av" x1="3891.6349" y1="38" x2="3891.6349" y2="46"/>
          <line class="av" x1="3895.55798" y1="38" x2="3895.55798" y2="46"/>
          <line class="av" x1="3899.48105" y1="38" x2="3899.48105" y2="46"/>
          <line class="av" x1="3903.40413" y1="38" x2="3903.40413" y2="46"/>
          <line class="av" x1="3907.32721" y1="38" x2="3907.32721" y2="46"/>
          <line class="av" x1="3911.25028" y1="38" x2="3911.25028" y2="46"/>
          <line class="av" x1="3915.17336" y1="38" x2="3915.17336" y2="46"/>
          <line class="av" x1="3919.09644" y1="38" x2="3919.09644" y2="46"/>
          <line class="av" x1="3923.01951" y1="38" x2="3923.01951" y2="46"/>
        </g>
        <rect class="ak" x="3872.32721" y="27" width="62" height="4"/>
        <g>
          <g>
            <path class="aw" d="M3873.32721,6h60a2,2,0,0,1,2,2V26a0,0,0,0,1,0,0h-64a0,0,0,0,1,0,0V8A2,2,0,0,1,3873.32721,6Z"/>
            <g class="ax">
              <path class="ay" d="M3874.01951,6h58.76923a2,2,0,0,1,2,2v2a0,0,0,0,1,0,0h-62.76923a0,0,0,0,1,0,0V8A2,2,0,0,1,3874.01951,6Z"/>
            </g>
            <path class="az" d="M3873.32721,6h60a2,2,0,0,1,2,2V26a0,0,0,0,1,0,0h-64a0,0,0,0,1,0,0V8A2,2,0,0,1,3873.32721,6Z"/>
          </g>
          <polygon class="ba" points="3879.866 16 3883.789 14 3883.789 18 3879.866 16"/>
          <polygon class="ba" points="3887.712 16 3891.635 14 3891.635 18 3887.712 16"/>
        </g>
        <g>
          <line class="ah" x1="3885.75028" y1="114.71114" x2="3921.05798" y2="114.71114"/>
          <line class="bb" x1="3885.75028" y1="116.71114" x2="3921.05798" y2="116.71114"/>
        </g>
        <g>
          <line class="ah" x1="3885.75028" y1="184.71114" x2="3921.05798" y2="184.71114"/>
          <line class="bb" x1="3885.75028" y1="186.71114" x2="3921.05798" y2="186.71114"/>
        </g>
        <g>
          <line class="ah" x1="3885.75028" y1="255.71114" x2="3921.05798" y2="255.71114"/>
          <line class="bb" x1="3885.75028" y1="257.71114" x2="3921.05798" y2="257.71114"/>
        </g>
        <g>
          <path class="t" d="M3895.32721,287v24h24V287Z"/>
          <rect class="c" x="3887.32721" y="278" width="24" height="24"/>
        </g>
        <path class="c" d="M3918.20794,159.89637l-12.51405-12.51405,5.77571-5.77571-24.06548-6.73833,6.73833,24.06548,5.77571-5.77571,12.51405,12.51405a4.084,4.084,0,0,0,5.77571,0h0A4.084,4.084,0,0,0,3918.20794,159.89637Z"/>
        <g>
          <path class="t" d="M3895.32721,212v14h16V212Z"/>
          <line class="ac" x1="3891.32721" y1="212" x2="3887.32721" y2="212"/>
          <line class="ac" x1="3919.32721" y1="212" x2="3915.32721" y2="212"/>
          <g>
            <line class="ac" x1="3891.32721" y1="226" x2="3887.32721" y2="226"/>
            <line class="ac" x1="3919.32721" y1="226" x2="3915.32721" y2="226"/>
          </g>
          <line class="ac" x1="3895.32721" y1="230" x2="3895.32721" y2="234"/>
          <line class="ac" x1="3895.32721" y1="204" x2="3895.32721" y2="208"/>
          <g>
            <line class="ac" x1="3911.32721" y1="230" x2="3911.32721" y2="234"/>
            <line class="ac" x1="3911.32721" y1="204" x2="3911.32721" y2="208"/>
          </g>
        </g>
        <g>
          <polygon class="t" points="3887.095 88.211 3894.206 95.322 3909.139 87.5 3916.962 73.989 3908.428 65.456 3894.917 73.278 3887.095 88.211"/>
          <path class="ao" d="M3899.90885,79.66415a1.96473,1.96473,0,0,1,2.81669,0,2.059,2.059,0,0,1,0,2.87192,1.96473,1.96473,0,0,1-2.81669,0A2.059,2.059,0,0,1,3899.90885,79.66415Z"/>
          <line class="av" x1="3889.93942" y1="92.47789" x2="3901.3172" y2="81.10011"/>
          <rect class="bc" x="3902.22179" y="69.13323" width="18.10193" height="4.02265" transform="translate(1195.89206 -2744.84973) rotate(45)"/>
        </g>
      </g>
      <path class="bd" d="M3783.32721,180V340h126V188a8,8,0,0,0-8-8Z"/>
      <g>
        <path class="be" d="M3881.32721,340h-124a16,16,0,0,1-16-16V192.00015l156-.00015V324A16,16,0,0,1,3881.32721,340Z"/>
        <path class="ak" d="M3757.32721,192h-16V324a15.84839,15.84839,0,0,0,15.69231,16h128.30769l6.49024-3.24512a5.0639,5.0639,0,0,0,2.26465-2.26465L3897.32721,328h-132a8,8,0,0,1-8-8Z"/>
        <rect class="aw" x="3734.71182" y="180" width="168.69231" height="12" rx="5.99999" ry="5.99999"/>
        <path class="bf" d="M3760.21182,192h-19.61539a5.94314,5.94314,0,0,1-5.88461-6h0a5.94314,5.94314,0,0,1,5.88461-6h19.61539Z"/>
        <rect class="ay" x="3856.32721" y="180" width="11.76923" height="12"/>
        <path class="ac" d="M3817.32721,223v43a41,41,0,0,1-41,41h-.00008a41,41,0,0,1-41-41V219"/>
        <rect class="t" x="3764.32721" y="300" width="24" height="8"/>
        <path class="bf" d="M3897.51952,192h-15.69231V180h15.69231a5.94314,5.94314,0,0,1,5.88461,6h0A5.94314,5.94314,0,0,1,3897.51952,192Z"/>
        <circle class="be" cx="3816.32721" cy="219" r="7"/>
        <path class="ak" d="M3770.01952,192h5.88461a0,0,0,0,1,0,0v97.0577a2.9423,2.9423,0,0,1-2.9423,2.9423h0a2.9423,2.9423,0,0,1-2.9423-2.9423V192a0,0,0,0,1,0,0Z"/>
        <path class="bg" d="M3862.21182,192h5.88462a0,0,0,0,1,0,0v97.0577a2.9423,2.9423,0,0,1-2.9423,2.9423h0a2.94231,2.94231,0,0,1-2.94231-2.94231V192a0,0,0,0,1,0,0Z"/>
        <rect class="az" x="3734.71182" y="180" width="168.69231" height="12" rx="5.99999" ry="5.99999"/>
        <path class="be" d="M3740.32721,226a7,7,0,0,1-.00071-14l1.00071-.00046V226Z"/>
      </g>
      <path class="bd" d="M3734.82721,283v56h46V285.8a2.86223,2.86223,0,0,0-2.92063-2.8Z"/>
      <g>
        <g>
          <rect class="aw" x="3706.32721" y="276" width="64" height="64" rx="4" ry="4"/>
          <g class="bh">
            <rect class="ay" x="3706.32721" y="276" width="64" height="4"/>
            <rect class="bi" x="3706.32721" y="337" width="64" height="2"/>
          </g>
          <rect class="bj" x="3706.32721" y="276" width="64" height="64" rx="4" ry="4"/>
        </g>
        <text class="bk" transform="translate(3723.00701 318.76772) scale(0.98077 1)">Ai</text>
      </g>
      <g>
        <g>
          <rect class="t" x="3013.32721" y="320" width="160" height="20" rx="2" ry="2"/>
          <rect class="aa" x="3077.32721" y="320" width="60" height="20"/>
          <rect class="aa" x="3061.3849" y="320" width="7.94231" height="20"/>
        </g>
        <g>
          <rect class="r" x="3043.32721" y="304" width="112" height="16" rx="2" ry="2"/>
          <rect class="bl" x="3089.32721" y="304" width="48" height="16"/>
        </g>
      </g>
      <g>
        <path class="c" d="M3106.32721,224h108a4,4,0,0,1,4,4V332a8,8,0,0,1-8,8h-100a8,8,0,0,1-8-8V228A4,4,0,0,1,3106.32721,224Z"/>
        <rect class="bm" x="3102.32721" y="248" width="116" height="72"/>
        <rect class="ak" x="3103.32721" y="249" width="11" height="70"/>
        <path class="bn" d="M3102.32721,320v12a7.9242,7.9242,0,0,0,7.84615,8h98.53847c4.33331,0,9.61538-3.58172,9.61538-8h-98.34615a5.94315,5.94315,0,0,1-5.88461-6v-6Z"/>
        <rect class="ay" x="3202.32721" y="225" width="4" height="22"/>
        <rect class="bi" x="3126.32721" y="224" width="3.92308" height="24"/>
        <path class="bi" d="M3114.32721,224h-8a4,4,0,0,0-4,4v20h12Z"/>
        <path class="ak" d="M3126.40413,248h3.92308a0,0,0,0,1,0,0v52.03846A1.96154,1.96154,0,0,1,3128.36567,302h0a1.96154,1.96154,0,0,1-1.96154-1.96154V248a0,0,0,0,1,0,0Z"/>
        <path class="bg" d="M3202.32721,249h4a0,0,0,0,1,0,0v52.03846A1.96154,1.96154,0,0,1,3204.36567,303h-.07693a1.96154,1.96154,0,0,1-1.96154-1.96154V249a0,0,0,0,1,0,0Z"/>
        <g>
          <path class="b" d="M3218.32721,324a44,44,0,0,0,0-88v19.47284a24.52713,24.52713,0,0,1,0,49.05426Z"/>
          <path class="bo" d="M3222.32739,240.19824a40.05815,40.05815,0,0,1,36,39.80176"/>
          <path class="bn" d="M3236.18991,296.80792a24.45882,24.45882,0,0,1-17.8627,7.71917V324a43.86809,43.86809,0,0,0,31.47288-13.25169Z"/>
        </g>
      </g>
    </g>
    <g>
      <path class="ah" d="M701.57993,1261.33429"/>
      <path class="aq" d="M84.29307,1245.8078c73.98462-2.06387,12.08542-1.15742,123.677-1.45019,114.14663-.29948,417.35528-11.05924,452.60035,6.35808,30.60633,15.125-94.83356,1.977-138.07689,0-188.03676-8.5966-521.82485,14.58268-522.48332,0C-1.02268,1227.84019,76.3915,1246.02822,84.29307,1245.8078Z"/>
    </g>
  </g>
</svg>
