<svg xmlns="http://www.w3.org/2000/svg" xmlns:xlink="http://www.w3.org/1999/xlink" width="320.57845" height="254" viewBox="0 0 320.57845 254">
  <defs>
    <style>
      .a, .ak, .q {
        fill: #f7f2f5;
      }

      .a, .ac, .ad, .am, .aq, .t, .u {
        stroke: #7f6371;
      }

      .a, .ac, .ad, .ae, .af, .ag, .ah, .ak, .al, .am, .an, .ao, .ap, .aq, .ar, .as, .d, .e, .f, .h, .p, .s, .t, .u, .w {
        stroke-linecap: round;
        stroke-linejoin: round;
      }

      .a, .ac, .ad, .ae, .ag, .ah, .ao, .ap, .ar, .as, .d, .e, .f, .h, .n, .o, .p, .t, .u {
        stroke-width: 2px;
      }

      .b {
        fill: #ecebec;
      }

      .c {
        fill: #ceb797;
      }

      .ag, .al, .am, .an, .aq, .as, .d, .e, .f, .h, .o, .p, .s, .t, .w {
        fill: none;
      }

      .ao, .d, .e, .p {
        stroke: #8e7c69;
      }

      .d, .h, .l {
        opacity: 0.2;
      }

      .e, .f, .k, .m {
        opacity: 0.4;
      }

      .f, .h {
        stroke: #e5ccae;
      }

      .g, .j, .k, .l, .n {
        fill: #8e7c69;
      }

      .g {
        opacity: 0.1;
      }

      .i {
        fill: #e5ccae;
      }

      .n, .o {
        stroke: #726051;
        stroke-miterlimit: 10;
      }

      .r {
        clip-path: url(#a);
      }

      .al, .s {
        stroke: #fff;
      }

      .s {
        stroke-width: 8px;
      }

      .ah, .ao, .u, .z {
        fill: #ffdb6d;
      }

      .v {
        clip-path: url(#b);
      }

      .ak, .an, .w {
        stroke: #e5e0e3;
      }

      .w {
        stroke-width: 6px;
      }

      .ap, .x {
        fill: #ff7e6d;
      }

      .y {
        fill: #bf4e45;
      }

      .aa, .ar {
        fill: #27cba4;
      }

      .ab {
        fill: #189675;
      }

      .ac, .ae {
        fill: #fff;
      }

      .ad, .af {
        fill: #d2c7cc;
      }

      .ae, .af, .ag {
        stroke: #d2c7cc;
      }

      .ah {
        stroke: #dba758;
      }

      .ai {
        fill: #fff3ce;
      }

      .aj {
        clip-path: url(#c);
      }

      .ak, .an {
        stroke-width: 12px;
      }

      .al {
        stroke-width: 22px;
      }

      .am {
        stroke-width: 16px;
      }

      .ap {
        stroke: #bf4e45;
      }

      .aq {
        stroke-width: 3px;
      }

      .ar, .as {
        stroke: #189675;
      }
    </style>
    <clipPath id="a">
      <rect class="a" x="14.30003" y="4" width="292" height="200" rx="6" ry="6"/>
    </clipPath>
    <clipPath id="b">
      <path class="a" d="M48.3,26h224a6,6,0,0,1,6,6V50a0,0,0,0,1,0,0H42.3a0,0,0,0,1,0,0V32A6,6,0,0,1,48.3,26Z"/>
    </clipPath>
    <clipPath id="c">
      <path class="a" d="M9.63336,194H310.9667A5.33333,5.33333,0,0,1,316.3,199.33333v0A10.66666,10.66666,0,0,1,305.63337,210H14.96669A10.66666,10.66666,0,0,1,4.3,199.33334v0A5.33333,5.33333,0,0,1,9.63336,194Z"/>
    </clipPath>
  </defs>
  <title>introduction-320</title>
  <g>
    <rect class="b" x="10.30003" y="226" width="302" height="28" rx="8" ry="8"/>
    <rect class="c" x="1.30003" y="210" width="318" height="32"/>
    <line class="d" x1="2.40216" y1="217.4902" x2="171.88143" y2="211.94284"/>
    <line class="d" x1="3.03086" y1="233.4728" x2="118.77627" y2="230.30477"/>
    <line class="d" x1="2.9505" y1="239.83926" x2="173.88652" y2="231.14284"/>
    <path class="e" d="M194.9234,214.021c50.12473.779,73.192,1.27839,123.37663,2.379"/>
    <line class="f" x1="120.2749" y1="237.74622" x2="200.47846" y2="240.94622"/>
    <line class="d" x1="146.34551" y1="235.01039" x2="226.54907" y2="238.21039"/>
    <path class="d" d="M255.09262,239.34622C285.1499,238,287.88164,237.16931,318.3,236.4"/>
    <line class="d" x1="81.49517" y1="220.39089" x2="134.8336" y2="224.08319"/>
    <path class="g" d="M22.82673,241.83278c9.47295-3.52285,5.31243-4.96243,6.65624-10.276,1.37458-5.43521,5.04771-5.04038,8.05141-10.34609,3.00329-5.305,10.79266-6.509,4.47012-11.21072H4.31021C2.09545,210,1.3,211.43269,1.3,213.2v25.49417c0,1.74512.746,3.16863,2.93261,3.19945C10.49083,241.98182,22.09032,242.10664,22.82673,241.83278Z"/>
    <path class="g" d="M296.8305,241.83278c-9.44891-3.52285-5.29895-4.96243-6.63935-10.276-1.37109-5.43521-5.0349-5.04038-8.031-10.34609-2.99566-5.305-10.76527-6.509-4.45878-11.21072H315.3c2.20914,0,4,1.43269,4,3.2v25.49417c0,1.74512-1.74157,3.16863-3.92263,3.19945C309.1351,241.98182,297.565,242.10664,296.8305,241.83278Z"/>
    <line class="h" x1="79.00842" y1="239.27673" x2="119.23743" y2="237.67673"/>
    <line class="f" x1="2.32487" y1="219.09985" x2="174.36023" y2="216.1336"/>
    <line class="f" x1="106.70479" y1="220.64757" x2="305.74015" y2="217.68131"/>
    <line class="h" x1="2.28115" y1="229.84799" x2="108.75677" y2="228.93477"/>
    <path class="i" d="M318.2999,211.77314a1.41614,1.41614,0,0,0-1.40977-1.43967L5.31678,210.00332a2.76607,2.76607,0,0,0-2.40926,1.051,1.36475,1.36475,0,0,0,1.11194,2.14748l314.25689.33181Z"/>
    <path class="i" d="M78.85174,211.78181c.92293.228,2.07416.48855,3.47149.7846,32.262,6.83534-11.69115,3.70467,26.23463,4.7111,29.99693.796,30.53777-1.129,60.62063-.929s-70.17075.18537-40.08789.38539c30.07872.2,30.24173-2.61894,60.32045-2.419,29.03819.19307,29.28466,2.76918,55.32194.45465l-9.43727-2.87784Z"/>
    <line class="e" x1="82.50625" y1="241.74003" x2="112.37563" y2="239.87336"/>
    <line class="d" x1="88.72116" y1="233.38843" x2="257.14864" y2="230.18843"/>
    <line class="d" x1="88.69145" y1="239.82651" x2="288.25888" y2="231.02651"/>
    <path class="f" d="M258.64727,237.74622c29.21533.17027,30.44262.41459,59.64767,1.05378"/>
    <path class="d" d="M260.71788,234.26743c20.66141.79636,36.90238.3557,57.58215.53257"/>
    <path class="d" d="M169.86754,220.39089C229.00741,221.2,258.77421,222.80248,318.3,223.6"/>
    <line class="h" x1="167.38079" y1="239.27673" x2="257.60979" y2="237.67673"/>
    <line class="f" x1="89.69723" y1="218.98352" x2="288.73259" y2="216.01726"/>
    <line class="h" x1="89.65352" y1="229.73166" x2="247.12914" y2="228.81843"/>
    <line class="e" x1="170.87862" y1="241.74003" x2="250.748" y2="239.87336"/>
    <path class="j" d="M115.74288,211.02651l34.27047,4.45436c25.05624,1.6511,35.29522.92593,73.08776,1.16015"/>
    <path class="k" d="M318.3,235.2772s-32.54385-.5564-50.92-.44507c-84.77939.51367-54.47053,1.14185-141.31925,1.377-84.9047.22983,42.463-.48174-13.82826,1.13833-6.01209.173-64.12687,3.85259-64.12687,3.85259H318.3Z"/>
    <path class="l" d="M295.3,225.67641c-.00111-1.792-1.85037-3.23543-4.09586-3.21442-28.61209.26773-23.13579.49985-87.57206.62414-121.42929.23423-4.07315-.491-84.58022,1.16016-8.598.17632-92.83695-14.37412-91.713,3.92632.40845,6.65077,82.63746,3.48333,263.988.80494,2.20843-.03262,3.97457-1.47362,3.97322-3.23618Z"/>
    <g class="m">
      <path class="j" d="M19.80987,231.33367c-5.53419.754-8.95114,1.41987-11.04806-3.75688-1.45945-3.603,2.69258-6.00692,6.54437-6.53171,4.88871-.66606,4.78042,1.15745,8.08546,4.82076C26.20534,228.98455,24.09621,230.74968,19.80987,231.33367Z"/>
    </g>
    <circle class="n" cx="17.30003" cy="226" r="4"/>
    <line class="o" x1="13.30003" y1="226" x2="21.30003" y2="226"/>
    <g class="m">
      <path class="j" d="M310.48852,227.02188c-2.46821,5.07829-4.26039,8.914-9.79459,7.7943-4.28634-.86725-6.53507-6.89683-4.62339-10.83006,2.46821-5.07829,5.67-4.48518,11.28886-5.0415C311.71571,218.51332,312.4002,223.08865,310.48852,227.02188Z"/>
    </g>
    <circle class="n" cx="304.30003" cy="226" r="4"/>
    <line class="o" x1="300.30003" y1="226" x2="308.30003" y2="226"/>
    <rect class="p" x="1.30003" y="210" width="318" height="32"/>
    <g>
      <rect class="q" x="14.30003" y="4" width="292" height="200" rx="6" ry="6"/>
      <g class="r">
        <path class="s" d="M14.3,10a5.95368,5.95368,0,0,1,5.90625-6h280.1875A5.95368,5.95368,0,0,1,306.3,10"/>
      </g>
      <rect class="t" x="14.30003" y="4" width="292" height="200" rx="6" ry="6"/>
    </g>
    <rect class="u" x="26.30003" y="16" width="268" height="168"/>
    <g>
      <path class="q" d="M48.3,26h224a6,6,0,0,1,6,6V50a0,0,0,0,1,0,0H42.3a0,0,0,0,1,0,0V32A6,6,0,0,1,48.3,26Z"/>
      <g class="v">
        <path class="s" d="M42.3,32a5.93972,5.93972,0,0,1,5.87755-6h224.2449A5.93972,5.93972,0,0,1,278.3,32"/>
        <line class="w" x1="278.30003" y1="50" x2="42.30003" y2="50"/>
      </g>
      <path class="t" d="M48.3,26h224a6,6,0,0,1,6,6V50a0,0,0,0,1,0,0H42.3a0,0,0,0,1,0,0V32A6,6,0,0,1,48.3,26Z"/>
    </g>
    <circle class="x" cx="54.30003" cy="38" r="4"/>
    <path class="y" d="M54.3,43a5,5,0,1,1,5-5A5.00589,5.00589,0,0,1,54.3,43Zm0-8a3,3,0,1,0,3,3A3.00328,3.00328,0,0,0,54.3,35Z"/>
    <circle class="z" cx="67.30003" cy="38" r="4"/>
    <path class="j" d="M67.3,43a5,5,0,1,1,5-5A5.00589,5.00589,0,0,1,67.3,43Zm0-8a3,3,0,1,0,3,3A3.00328,3.00328,0,0,0,67.3,35Z"/>
    <circle class="aa" cx="80.30003" cy="38" r="4"/>
    <path class="ab" d="M80.3,43a5,5,0,1,1,5-5A5.00589,5.00589,0,0,1,80.3,43Zm0-8a3,3,0,1,0,3,3A3.00328,3.00328,0,0,0,80.3,35Z"/>
    <rect class="ac" x="66.30003" y="50" width="164" height="122"/>
    <path class="a" d="M42.3,50h24a0,0,0,0,1,0,0V172a0,0,0,0,1,0,0h-18a6,6,0,0,1-6-6V50A0,0,0,0,1,42.3,50Z"/>
    <path class="a" d="M230.3,50h48a0,0,0,0,1,0,0V166a6,6,0,0,1-6,6h-42a0,0,0,0,1,0,0V50A0,0,0,0,1,230.3,50Z"/>
    <circle class="q" cx="52.30003" cy="135" r="3"/>
    <line class="t" x1="43.05003" y1="76" x2="65.60772" y2="76"/>
    <line class="t" x1="43.05003" y1="100" x2="65.60772" y2="100"/>
    <line class="t" x1="42.30003" y1="124" x2="65.30003" y2="124"/>
    <line class="t" x1="42.30003" y1="148" x2="65.30003" y2="148"/>
    <rect class="ad" x="230.30003" y="50" width="48" height="8"/>
    <line class="t" x1="235.30003" y1="54" x2="251.30003" y2="54"/>
    <rect class="ad" x="230.30003" y="98" width="48" height="8"/>
    <line class="t" x1="235.30003" y1="102" x2="251.30003" y2="102"/>
    <rect class="ae" x="238.30003" y="114" width="16" height="8"/>
    <rect class="ae" x="254.30003" y="114" width="16" height="8"/>
    <rect class="ae" x="238.30003" y="130" width="16" height="8"/>
    <rect class="ae" x="254.30003" y="130" width="16" height="8"/>
    <rect class="ae" x="238.30003" y="66" width="32" height="8"/>
    <line class="ae" x1="262.30003" y1="66" x2="262.30003" y2="74"/>
    <polygon class="af" points="267.495 69.293 266.108 70.707 264.721 69.293 267.495 69.293"/>
    <rect class="ae" x="238.30003" y="82" width="32" height="8"/>
    <line class="ae" x1="262.30003" y1="82" x2="262.30003" y2="90"/>
    <polygon class="af" points="267.495 85.293 266.108 86.707 264.721 85.293 267.495 85.293"/>
    <rect class="ae" x="238.30003" y="146" width="32" height="8"/>
    <line class="ae" x1="262.30003" y1="146" x2="262.30003" y2="154"/>
    <polygon class="af" points="267.495 149.293 266.108 150.707 264.721 149.293 267.495 149.293"/>
    <path class="p" d="M133.5014,72.98667a1.77435,1.77435,0,0,0,.5225-.48652"/>
    <rect class="ae" x="114.30003" y="98" width="68" height="60"/>
    <line class="ag" x1="126.30003" y1="140" x2="150.30003" y2="140"/>
    <rect class="ah" x="122.30003" y="61" width="68" height="38"/>
    <path class="ai" d="M141.03786,81.81482c-2.59128-.87659-3.778-2.54321-3.778-7.25928,0-2.279-1.59806-2.22223-1.59806-2.22223l-.00431.00128a1.11488,1.11488,0,0,0-.53109-.86176A14.26664,14.26664,0,0,0,131.6468,71c-.41185,0-.40035.35132-.22077.94574.09482.31348.4061,1.27649,1.1843,1.27649.5943.41858,0,1.09839,0,1.09839l-2.32454.53119-.72648,1.18524-4.21376,1.4895a3.03422,3.03422,0,0,0,1.40746,2.30212c1.35478.82526,4.84015.801,4.84015.801A7.667,7.667,0,0,1,132.32012,87,14.19874,14.19874,0,0,1,141.03786,81.81482Z"/>
    <path class="p" d="M141.03786,81.81481c-2.59117-.87654-3.77778-2.54321-3.77778-7.25926,0-2.279-1.59829-2.22222-1.59829-2.22222"/>
    <line class="ag" x1="126.30003" y1="145" x2="140.30003" y2="145"/>
    <path class="p" d="M135.69449,72.50032c-.08414-.49815-.24545-.89266-.568-1.02743A14.26614,14.26614,0,0,0,131.647,71c-.412,0-.40047.35136-.221.94577.09468.31349.40613,1.27645,1.18442,1.27645a1.701,1.701,0,0,0,.8909-.23555"/>
    <path class="p" d="M132.31991,87a7.66764,7.66764,0,0,0-.7265-6.37037s-3.48548.0243-4.84028-.80093a3.03458,3.03458,0,0,1-1.40759-2.30213l4.21368-1.48953.7265-1.18519,2.32466-.53122s.59425-.67981.00013-1.09841"/>
    <line class="p" x1="146.30003" y1="76" x2="170.30003" y2="76"/>
    <line class="p" x1="146.30003" y1="81" x2="160.30003" y2="81"/>
    <g>
      <path class="q" d="M9.63336,194H310.9667A5.33333,5.33333,0,0,1,316.3,199.33333v0A10.66666,10.66666,0,0,1,305.63337,210H14.96669A10.66666,10.66666,0,0,1,4.3,199.33334v0A5.33333,5.33333,0,0,1,9.63336,194Z"/>
      <g class="aj">
        <path class="ak" d="M314.57845,208.37115A40.30918,40.30918,0,0,1,304.44289,210H16.15717A90.5889,90.5889,0,0,1,6,209.08587"/>
        <path class="s" d="M4.3,198c0-2.20914,2.66654-4,5.95588-4H310.34415c3.28934,0,5.95588,1.79086,5.95588,4"/>
        <line class="al" x1="128.30003" y1="194" x2="192.30003" y2="194"/>
        <line class="am" x1="128.30003" y1="194" x2="192.30003" y2="194"/>
        <line class="an" x1="128.30003" y1="194" x2="192.30003" y2="194"/>
      </g>
      <path class="t" d="M9.63336,194H310.9667A5.33333,5.33333,0,0,1,316.3,199.33333v0A10.66666,10.66666,0,0,1,305.63337,210H14.96669A10.66666,10.66666,0,0,1,4.3,199.33334v0A5.33333,5.33333,0,0,1,9.63336,194Z"/>
    </g>
    <rect class="ao" x="53.30003" y="159" width="6" height="6"/>
    <rect class="ap" x="49.30003" y="155" width="6" height="6"/>
    <line class="aq" x1="58.76157" y1="140.19239" x2="52.87695" y2="134.19239"/>
    <circle class="ac" cx="53.30003" cy="135" r="4"/>
    <rect class="ao" x="49.30003" y="108" width="10" height="8"/>
    <polygon class="ap" points="59.3 61.333 49.3 58 52.633 68 55.967 64.667 59.3 61.333"/>
    <g>
      <polygon class="ar" points="52.3 84 56.3 84 58.3 88 54.3 94 50.3 88 52.3 84"/>
      <rect class="ar" x="50.30003" y="82" width="8" height="2"/>
    </g>
    <line class="as" x1="54.30003" y1="94" x2="54.30003" y2="88"/>
  </g>
</svg>
