<svg xmlns="http://www.w3.org/2000/svg" xmlns:xlink="http://www.w3.org/1999/xlink" width="962" height="402" viewBox="0 0 962 402">
  <defs>
    <style>
      .a, .e, .j {
        fill: #f7f2f5;
      }

      .a, .af, .h, .l, .n, .s, .x {
        stroke: #7f6371;
      }

      .a, .aa, .ac, .ad, .ae, .af, .ah, .ai, .aj, .al, .ba, .bb, .bc, .be, .bj, .bl, .bm, .bo, .c, .g, .h, .j, .k, .l, .m, .n, .p, .r, .s, .t, .u, .v, .w, .x, .y, .z {
        stroke-linecap: round;
        stroke-linejoin: round;
      }

      .a, .aa, .ac, .ad, .ae, .af, .ah, .ai, .aj, .al, .au, .av, .az, .b, .ba, .bb, .bc, .be, .bj, .bl, .bm, .bo, .c, .h, .n, .q, .r, .s, .t, .u, .v, .w, .x, .y {
        stroke-width: 2px;
      }

      .aw, .b, .c {
        fill: #ff7e6d;
      }

      .az, .b, .ba, .bj, .bm, .c {
        stroke: #bf4e45;
      }

      .as, .at, .au, .av, .az, .b, .q {
        stroke-miterlimit: 10;
      }

      .d {
        fill: #ecebec;
      }

      .f {
        clip-path: url(#a);
      }

      .ac, .ah, .ai, .aj, .al, .at, .av, .az, .bb, .bj, .bo, .g, .h, .k, .l, .m, .p, .v, .w {
        fill: none;
      }

      .bb, .g, .k {
        stroke: #fff;
      }

      .g {
        stroke-width: 8px;
      }

      .i {
        clip-path: url(#b);
      }

      .j, .m, .p {
        stroke: #e5e0e3;
      }

      .j, .m {
        stroke-width: 12px;
      }

      .k {
        stroke-width: 22px;
      }

      .l {
        stroke-width: 16px;
      }

      .bk, .n, .q, .t {
        fill: #ffdb6d;
      }

      .o {
        clip-path: url(#c);
      }

      .p {
        stroke-width: 6px;
      }

      .aa, .ac, .ad, .ae, .ah, .ai, .au, .av, .bc, .be, .q, .t {
        stroke: #8e7c69;
      }

      .r {
        fill: #27cba4;
      }

      .bl, .r, .w {
        stroke: #189675;
      }

      .bg, .s, .y {
        fill: #fff;
      }

      .u {
        fill: #56959e;
      }

      .u, .v {
        stroke: #1a626e;
      }

      .x, .z {
        fill: #d2c7cc;
      }

      .y, .z {
        stroke: #d2c7cc;
      }

      .aa {
        fill: #fffbee;
      }

      .ab, .ad {
        fill: #fff3ce;
      }

      .ae {
        fill: #d5f5ee;
      }

      .af {
        fill: #fefdfd;
      }

      .ag {
        fill: #ceb797;
      }

      .ah, .al, .an, .aq, .bi {
        opacity: 0.2;
      }

      .ai, .aj, .ap, .ar, .ay, .bo {
        opacity: 0.4;
      }

      .aj, .al {
        stroke: #e5ccae;
      }

      .ak, .ao, .ap, .aq, .as, .bc {
        fill: #8e7c69;
      }

      .ak, .bd, .bf {
        opacity: 0.1;
      }

      .am {
        fill: #e5ccae;
      }

      .as, .at {
        stroke: #726051;
      }

      .au {
        fill: #fff8e2;
      }

      .ax {
        clip-path: url(#d);
      }

      .ay {
        fill: #ffb2a7;
      }

      .ba, .bf, .bi, .bn {
        fill: #bf4e45;
      }

      .bd {
        fill: #553143;
      }

      .be, .bm {
        fill: #fff6e5;
      }

      .bh {
        clip-path: url(#e);
      }

      .bk {
        font-size: 32px;
        font-family: ProximaNovaSoft-Bold, Proxima Nova Soft;
        font-weight: 700;
      }

      .bl {
        fill: #eafaf6;
      }

      .bn {
        opacity: 0.3;
      }

      .bo {
        stroke: #ffb2a7;
      }
    </style>
    <clipPath id="a">
      <rect class="a" x="225" y="4" width="504" height="336" rx="6" ry="6"/>
    </clipPath>
    <clipPath id="b">
      <path class="a" d="M210.33333,324H739.66667A5.33333,5.33333,0,0,1,745,329.33333v0A10.66666,10.66666,0,0,1,734.33334,340H215.66666A10.66666,10.66666,0,0,1,205,329.33334v0A5.33333,5.33333,0,0,1,210.33333,324Z"/>
    </clipPath>
    <clipPath id="c">
      <path class="a" d="M285,60H657a6,6,0,0,1,6,6V84a0,0,0,0,1,0,0H279a0,0,0,0,1,0,0V66A6,6,0,0,1,285,60Z"/>
    </clipPath>
    <clipPath id="d">
      <path class="b" d="M873,6h60a2,2,0,0,1,2,2V26a0,0,0,0,1,0,0H871a0,0,0,0,1,0,0V8A2,2,0,0,1,873,6Z"/>
    </clipPath>
    <clipPath id="e">
      <rect class="c" x="706" y="276" width="64" height="64" rx="4" ry="4"/>
    </clipPath>
  </defs>
  <title>introduction-960</title>
  <g>
    <path class="d" d="M8,353.99986H956a0,0,0,0,1,0,0V394a8,8,0,0,1-8,8H16a8,8,0,0,1-8-8V353.99986a0,0,0,0,1,0,0Z"/>
    <g>
      <rect class="e" x="225" y="4" width="504" height="336" rx="6" ry="6"/>
      <g class="f">
        <path class="g" d="M225,10a5.95368,5.95368,0,0,1,5.90625-6h492.1875A5.95368,5.95368,0,0,1,729,10"/>
      </g>
      <rect class="h" x="225" y="4" width="504" height="336" rx="6" ry="6"/>
    </g>
    <g>
      <path class="e" d="M210.33333,324H739.66667A5.33333,5.33333,0,0,1,745,329.33333v0A10.66666,10.66666,0,0,1,734.33334,340H215.66666A10.66666,10.66666,0,0,1,205,329.33334v0A5.33333,5.33333,0,0,1,210.33333,324Z"/>
      <g class="i">
        <path class="j" d="M753,332c0,4.41828-13.27706,8-19.85714,8H216.85714C210.27706,340,197,336.41828,197,332"/>
        <path class="g" d="M205,328c0-2.20914,2.66654-4,5.95588-4H739.04412C742.33346,324,745,325.79086,745,328"/>
        <line class="k" x1="443" y1="324" x2="507" y2="324"/>
        <line class="l" x1="443" y1="324" x2="507" y2="324"/>
        <line class="m" x1="443" y1="324" x2="507" y2="324"/>
      </g>
      <path class="h" d="M210.33333,324H739.66667A5.33333,5.33333,0,0,1,745,329.33333v0A10.66666,10.66666,0,0,1,734.33334,340H215.66666A10.66666,10.66666,0,0,1,205,329.33334v0A5.33333,5.33333,0,0,1,210.33333,324Z"/>
    </g>
    <g>
      <rect class="n" x="241" y="20" width="472" height="304"/>
      <g>
        <g>
          <path class="e" d="M285,60H657a6,6,0,0,1,6,6V84a0,0,0,0,1,0,0H279a0,0,0,0,1,0,0V66A6,6,0,0,1,285,60Z"/>
          <g class="o">
            <path class="g" d="M279,66a5.93972,5.93972,0,0,1,5.87755-6h372.2449A5.93972,5.93972,0,0,1,663,66"/>
            <line class="p" x1="663" y1="84" x2="279" y2="84"/>
          </g>
          <path class="h" d="M285,60H657a6,6,0,0,1,6,6V84a0,0,0,0,1,0,0H279a0,0,0,0,1,0,0V66A6,6,0,0,1,285,60Z"/>
        </g>
        <ellipse class="c" cx="290.53846" cy="72" rx="3.92308" ry="4"/>
        <ellipse class="q" cx="302.30769" cy="72" rx="3.92308" ry="4"/>
        <ellipse class="r" cx="314.07692" cy="72" rx="3.92308" ry="4"/>
        <rect class="s" x="303.23077" y="84" width="312" height="208"/>
        <path class="a" d="M279,84h24a0,0,0,0,1,0,0V292a0,0,0,0,1,0,0H285a6,6,0,0,1-6-6V84A0,0,0,0,1,279,84Z"/>
        <path class="a" d="M615,84h48a0,0,0,0,1,0,0V286a6,6,0,0,1-6,6H615a0,0,0,0,1,0,0V84A0,0,0,0,1,615,84Z"/>
        <g>
          <g>
            <rect class="t" x="285.63462" y="267.19239" width="5.88462" height="6"/>
            <rect class="c" x="289.55769" y="271.19239" width="5.88462" height="6"/>
          </g>
          <g>
            <line class="h" x1="294.46154" y1="251.19239" x2="288.57692" y2="245.19239"/>
            <ellipse class="s" cx="288.57692" cy="245.19239" rx="2.94231" ry="3"/>
          </g>
          <g>
            <path class="u" d="M286.61538,219.19239h7.84615a0,0,0,0,1,0,0v6a1,1,0,0,1-1,1h-5.84615a1,1,0,0,1-1-1v-6A0,0,0,0,1,286.61538,219.19239Z"/>
            <path class="v" d="M286.61538,218.19233c0-5.33325,7.84615-5.33325,7.84615,0"/>
          </g>
          <polygon class="c" points="295.442 96.333 285.635 93 288.904 103 292.173 99.667 295.442 96.333"/>
          <rect class="r" x="286.61538" y="191.19239" width="7.84615" height="7"/>
          <rect class="t" x="285.63462" y="143.19239" width="9.80769" height="8"/>
          <ellipse class="c" cx="290.53846" cy="171.19239" rx="3.92308" ry="4"/>
          <line class="h" x1="279.75" y1="110" x2="302.30769" y2="110"/>
          <line class="h" x1="279.75" y1="134" x2="302.30769" y2="134"/>
          <line class="h" x1="279.75" y1="159" x2="302.30769" y2="159"/>
          <line class="h" x1="279.75" y1="183" x2="302.30769" y2="183"/>
          <line class="h" x1="279.75" y1="206" x2="302.30769" y2="206"/>
          <line class="h" x1="279.75" y1="235" x2="302.30769" y2="235"/>
          <line class="h" x1="279.75" y1="259" x2="302.30769" y2="259"/>
          <g>
            <g>
              <polygon class="r" points="288.577 118 292.5 118 294.462 122 290.538 128 286.615 122 288.577 118"/>
              <rect class="r" x="286.61538" y="116" width="7.84615" height="2"/>
            </g>
            <line class="w" x1="290.53846" y1="128" x2="290.53846" y2="122"/>
          </g>
        </g>
        <g>
          <rect class="x" x="615" y="84" width="48" height="8"/>
          <line class="h" x1="620" y1="88" x2="636" y2="88"/>
        </g>
        <g>
          <rect class="x" x="615" y="132" width="48" height="8"/>
          <line class="h" x1="620" y1="136" x2="636" y2="136"/>
        </g>
        <g>
          <rect class="x" x="615" y="196" width="48" height="8"/>
          <line class="h" x1="620" y1="200" x2="636" y2="200"/>
        </g>
        <rect class="y" x="623" y="148" width="16" height="8"/>
        <rect class="y" x="639" y="148" width="16" height="8"/>
        <rect class="y" x="623" y="164" width="16" height="8"/>
        <rect class="y" x="639" y="164" width="16" height="8"/>
        <g>
          <rect class="y" x="623" y="228" width="16" height="8"/>
          <rect class="y" x="639" y="228" width="16" height="8"/>
        </g>
        <g>
          <rect class="y" x="623" y="244" width="16" height="8"/>
          <rect class="y" x="639" y="244" width="16" height="8"/>
        </g>
        <rect class="y" x="623" y="180" width="16" height="8"/>
        <rect class="y" x="639" y="180" width="16" height="8"/>
        <g>
          <rect class="y" x="623" y="100" width="32" height="8"/>
          <line class="y" x1="647" y1="100" x2="647" y2="108"/>
          <polygon class="z" points="652.195 103.293 650.808 104.707 649.421 103.293 652.195 103.293"/>
        </g>
        <g>
          <rect class="y" x="623" y="116" width="32" height="8"/>
          <line class="y" x1="647" y1="116" x2="647" y2="124"/>
          <polygon class="z" points="652.195 119.293 650.808 120.707 649.421 119.293 652.195 119.293"/>
        </g>
        <g>
          <rect class="y" x="623" y="212" width="32" height="8"/>
          <line class="y" x1="647" y1="212" x2="647" y2="220"/>
          <polygon class="z" points="652.195 215.293 650.808 216.707 649.421 215.293 652.195 215.293"/>
        </g>
        <rect class="aa" x="389" y="104" width="156" height="156"/>
        <g>
          <path class="ab" d="M423.73783,130.81482c-2.59128-.87659-3.778-2.54321-3.778-7.25928,0-2.279-1.59806-2.22223-1.59806-2.22223l-.00431.00128a1.11488,1.11488,0,0,0-.53109-.86176A14.26664,14.26664,0,0,0,414.34677,120c-.41185,0-.40035.35132-.22077.94574.09482.31348.4061,1.27649,1.1843,1.27649.5943.41858,0,1.09839,0,1.09839l-2.32454.53119-.72648,1.18524-4.21376,1.4895a3.03422,3.03422,0,0,0,1.40746,2.30212c1.35478.82526,4.84015.801,4.84015.801a7.667,7.667,0,0,1,.727,6.37036A14.19874,14.19874,0,0,1,423.73783,130.81482Z"/>
          <g>
            <path class="aa" d="M423.73783,130.81481c-2.59117-.87654-3.77778-2.54321-3.77778-7.25926,0-2.279-1.59829-2.22222-1.59829-2.22222"/>
            <path class="ac" d="M416.20138,121.98667a1.77435,1.77435,0,0,0,.5225-.48652"/>
            <path class="ac" d="M418.39446,121.50032c-.08414-.49815-.24545-.89266-.568-1.02743A14.26615,14.26615,0,0,0,414.347,120c-.412,0-.40047.35136-.221.94577.09468.31349.40613,1.27645,1.18442,1.27645a1.701,1.701,0,0,0,.8909-.23555"/>
            <path class="ac" d="M415.01988,136a7.66764,7.66764,0,0,0-.7265-6.37037s-3.48548.0243-4.84028-.80093a3.03458,3.03458,0,0,1-1.40759-2.30213l4.21368-1.48953.7265-1.18519,2.32466-.53122s.59425-.67981.00013-1.09841"/>
          </g>
        </g>
        <line class="ac" x1="429" y1="125" x2="453" y2="125"/>
        <line class="ac" x1="429" y1="130" x2="443" y2="130"/>
        <g>
          <rect class="ad" x="389" y="152" width="156" height="72"/>
          <rect class="aa" x="480" y="152" width="65" height="72"/>
          <rect class="aa" x="480" y="196" width="65" height="28"/>
          <rect class="aa" x="521" y="196" width="24" height="28"/>
          <rect class="aa" x="521" y="212" width="24" height="12"/>
          <rect class="aa" x="533" y="212" width="12" height="12"/>
        </g>
        <rect class="ae" x="389" y="224" width="156" height="36"/>
        <g>
          <line class="ac" x1="401" y1="207" x2="425" y2="207"/>
          <line class="ac" x1="401" y1="212" x2="415" y2="212"/>
        </g>
        <line class="ac" x1="429" y1="130" x2="443" y2="130"/>
      </g>
      <rect class="af" x="241" y="20" width="472" height="16"/>
      <g>
        <g>
          <line class="h" x1="249" y1="28" x2="277" y2="28"/>
          <line class="h" x1="295" y1="28" x2="302" y2="28"/>
          <line class="h" x1="310" y1="28" x2="317" y2="28"/>
          <line class="h" x1="325" y1="28" x2="334" y2="28"/>
          <line class="h" x1="341" y1="28" x2="349" y2="28"/>
          <line class="h" x1="357" y1="28" x2="366" y2="28"/>
          <line class="h" x1="374" y1="28" x2="384" y2="28"/>
        </g>
        <g>
          <line class="h" x1="693" y1="25" x2="704" y2="25"/>
          <line class="h" x1="693" y1="28" x2="701" y2="28"/>
          <line class="h" x1="693" y1="31" x2="704" y2="31"/>
        </g>
        <g>
          <circle class="h" cx="676" cy="27" r="2" transform="translate(178.90393 485.9123) rotate(-45)"/>
          <line class="h" x1="677.41421" y1="28.41421" x2="680.24264" y2="31.24264"/>
        </g>
        <line class="h" x1="662" y1="28" x2="633" y2="28"/>
      </g>
    </g>
    <rect class="ag" x="1" y="340" width="960" height="40" rx="4" ry="4"/>
    <line class="ah" x1="3.09679" y1="349.36275" x2="222.01901" y2="342.42855"/>
    <line class="ah" x1="2.72644" y1="369.341" x2="169.04864" y2="365.38096"/>
    <line class="ah" x1="3.64375" y1="377.29908" x2="224.01901" y2="366.42855"/>
    <line class="ah" x1="732.01901" y1="357.35444" x2="958.25272" y2="346.35444"/>
    <line class="ai" x1="245.00249" y1="345.02631" x2="578.00223" y2="352.4263"/>
    <line class="ai" x1="642.51901" y1="350.25444" x2="865.01901" y2="344.74243"/>
    <line class="aj" x1="170.54346" y1="374.68277" x2="250.54346" y2="378.68277"/>
    <line class="ah" x1="775.01901" y1="366.35444" x2="958.25272" y2="370.35444"/>
    <line class="ah" x1="196.5479" y1="371.26299" x2="276.5479" y2="375.26299"/>
    <line class="ah" x1="305.01901" y1="376.68277" x2="485.01901" y2="369.68277"/>
    <line class="ah" x1="434.04159" y1="360.89986" x2="614.04159" y2="364.89986"/>
    <line class="ah" x1="81.98907" y1="352.98861" x2="185.06521" y2="357.60399"/>
    <path class="ak" d="M938.89155,379.791c-9.29707-4.40356-5.2138-6.203-6.53265-12.845-1.34906-6.794-4.954-6.30047-7.90192-12.93261-2.94752-6.63122-13.774-8.13623-7.56887-14.0134h40.17618A3.96825,3.96825,0,0,1,961,344v31.86771a3.96425,3.96425,0,0,1-3.8596,3.99931C950.99841,379.97728,939.61429,380.1333,938.89155,379.791Z"/>
    <path class="ak" d="M23.46953,379.791c9.44891-4.40356,5.29895-6.203,6.63935-12.845,1.37109-6.794,5.0349-6.30047,8.031-12.93261,2.99566-6.63122,10.76527-8.13623,4.45878-14.0134H5a4,4,0,0,0-4,4v31.86771A3.99445,3.99445,0,0,0,4.92263,379.867C11.16493,379.97728,22.735,380.1333,23.46953,379.791Z"/>
    <line class="al" x1="79.50862" y1="376.59591" x2="169.50862" y2="374.59591"/>
    <line class="aj" x1="2.02224" y1="351.37482" x2="224.49152" y2="347.667"/>
    <line class="aj" x1="157.0078" y1="353.30946" x2="379.47708" y2="349.60164"/>
    <line class="aj" x1="398.00008" y1="358.05265" x2="620.46936" y2="354.34483"/>
    <line class="aj" x1="384.00661" y1="376.1882" x2="606.47589" y2="370.48038"/>
    <line class="aj" x1="616.98718" y1="347.00169" x2="802.42509" y2="342.24397"/>
    <line class="aj" x1="732.28437" y1="378.06226" x2="957.98736" y2="372.35444"/>
    <line class="aj" x1="721.2654" y1="360.00703" x2="946.96838" y2="354.29921"/>
    <line class="al" x1="1.97863" y1="364.80999" x2="159.05457" y2="363.66846"/>
    <path class="am" d="M1,344H1a3.99581,3.99581,0,0,1,4-3.99581L956.00514,341A3.99743,3.99743,0,0,1,960,345Z"/>
    <path class="am" d="M79.35234,342.22727c.92058.285,2.0689.61069,3.46268.98075,32.1801,8.54418,38.21161,4.63083,76.04114,5.88887,29.92079.995,30.46026-1.41125,60.46677-1.16123s-69.99265.23171-39.98614.48173c30.00238.25,30.165-3.27368,60.16735-3.02369,28.96449.24134,29.21033,3.46148,55.18153.56831l-9.41331-3.5973Z"/>
    <path class="ac" d="M5.0032,340H956.9968A4.0032,4.0032,0,0,1,961,344.0032V375.9968A4.0032,4.0032,0,0,1,956.9968,380H5a4,4,0,0,1-4-4V344.0032A4.0032,4.0032,0,0,1,5.0032,340Z"/>
    <line class="ai" x1="82.99758" y1="379.67503" x2="162.66424" y2="377.3417"/>
    <line class="ah" x1="139.06981" y1="369.23554" x2="307.06981" y2="365.23554"/>
    <line class="ah" x1="139.04018" y1="377.28314" x2="362.04018" y2="366.28314"/>
    <line class="aj" x1="308.56463" y1="374.68277" x2="488.56463" y2="378.68277"/>
    <line class="ah" x1="334.56907" y1="370.33429" x2="514.56907" y2="374.33429"/>
    <line class="ah" x1="220.01023" y1="352.98861" x2="423.08637" y2="357.60399"/>
    <line class="al" x1="217.52979" y1="376.59591" x2="307.52979" y2="374.59591"/>
    <line class="aj" x1="140.0434" y1="351.2294" x2="362.51268" y2="347.52158"/>
    <line class="al" x1="139.9998" y1="364.66457" x2="297.07574" y2="363.52304"/>
    <line class="ai" x1="221.01874" y1="379.67503" x2="300.68541" y2="377.3417"/>
    <line class="ah" x1="409.05908" y1="348.35444" x2="730.05908" y2="341.35444"/>
    <line class="ah" x1="409.08871" y1="368.30685" x2="577.08871" y2="364.30685"/>
    <line class="ah" x1="409.05908" y1="376.35444" x2="632.05908" y2="365.35444"/>
    <line class="aj" x1="578.58353" y1="373.75408" x2="758.58353" y2="377.75408"/>
    <line class="ah" x1="604.58797" y1="370.33429" x2="784.58797" y2="374.33429"/>
    <line class="ah" x1="490.02914" y1="352.05992" x2="693.10528" y2="356.67529"/>
    <line class="al" x1="487.54869" y1="375.66721" x2="577.54869" y2="373.66721"/>
    <line class="aj" x1="410.06231" y1="350.30071" x2="632.53159" y2="346.59288"/>
    <line class="al" x1="410.0187" y1="363.73588" x2="567.09464" y2="362.59435"/>
    <line class="ai" x1="491.03765" y1="378.74634" x2="570.70431" y2="376.41301"/>
    <line class="ah" x1="672.14639" y1="348.35444" x2="915.65391" y2="341.35444"/>
    <line class="aj" x1="800.74601" y1="373.75408" x2="940.526" y2="377.75408"/>
    <path class="ah" d="M960.25272,374.33429"/>
    <path class="ah" d="M820.47274,370.33429"/>
    <line class="al" x1="731.68786" y1="375.66721" x2="799.961" y2="373.66721"/>
    <path class="am" d="M367.62219,342.26383c1.72068.285,3.867.61069,6.47218.98075,60.14856,8.54418,71.42221,4.63083,142.13025,5.88887,55.92564.995,56.934-1.41125,113.01984-1.16123s56.08744.23171,112.17329.48173c56.07814.25,56.382-3.27368,112.46019-3.02369,54.1382.24134,57.83141,3.46148,106.37478.56831l-17.59464-3.5973Z"/>
    <line class="aj" x1="672.90743" y1="350.30071" x2="841.67049" y2="346.59288"/>
    <line class="al" x1="672.87435" y1="363.73588" x2="792.03065" y2="362.59435"/>
    <g class="an">
      <path class="ao" d="M166.02295,341.28314l34.18349,5.568c24.99265,2.06387,35.20564,1.15742,72.90226,1.45019"/>
    </g>
    <path class="ap" d="M112.64835,374.18431c56.14849-2.0251-21.02288-1.13568,63.66635-1.423,86.62829-.29385,80.33539-1.07908,164.89967-1.72121,84.55264-.642,208.532,6.60823,283.47,7.95985h-576S106.65168,374.40059,112.64835,374.18431Z"/>
    <path class="aq" d="M140.16413,357.80786c80.30262-2.06387,13.11747-1.15742,134.23859-1.45019,123.89432-.29948,114.89433-1.09974,235.83673-1.75416,120.92577-.65433,367.15912-9.30508,405.414,8.11224,33.22,15.125-102.932,1.977-149.86814,0-204.09439-8.5966-716.38673,14.58268-717.10143,0C47.56274,339.84025,131.5878,358.02829,140.16413,357.80786Z"/>
    <g>
      <g class="ar">
        <path class="ao" d="M18.87672,368.02653c-5.53419.754-6.25325-2.5203-8.36736-7.69005-1.63742-4.00407-1.17754-4.14669,3.10879-4.73068,5.53419-.754,4.90208-.23688,8.116,4.3311C24.805,364.3015,23.16306,367.44254,18.87672,368.02653Z"/>
      </g>
      <circle class="as" cx="15.98686" cy="360.31699" r="4"/>
      <line class="at" x1="11.98686" y1="360.31699" x2="19.98686" y2="360.31699"/>
    </g>
    <g class="ar">
      <path class="ao" d="M949.52793,360.06938c-2.46821,5.07829-2.51751,9.31425-8.0517,8.19452-4.28634-.86725-3.75361-5.09807-1.84193-9.0313,2.46821-5.07829,3.347-2.369,8.9123-3.32234C952.15534,355.2921,951.43961,356.13615,949.52793,360.06938Z"/>
    </g>
    <circle class="as" cx="944.98686" cy="360.53759" r="4"/>
    <line class="at" x1="941.61914" y1="361" x2="949.61914" y2="361"/>
    <path class="au" d="M871,26h64a0,0,0,0,1,0,0V338a2,2,0,0,1-2,2H873a2,2,0,0,1-2-2V26A0,0,0,0,1,871,26Z"/>
    <g class="an">
      <line class="av" x1="883.46154" y1="38" x2="883.46154" y2="46"/>
      <line class="av" x1="887.38462" y1="38" x2="887.38462" y2="46"/>
      <line class="av" x1="891.30769" y1="38" x2="891.30769" y2="46"/>
      <line class="av" x1="895.23077" y1="38" x2="895.23077" y2="46"/>
      <line class="av" x1="899.15385" y1="38" x2="899.15385" y2="46"/>
      <line class="av" x1="903.07692" y1="38" x2="903.07692" y2="46"/>
      <line class="av" x1="907" y1="38" x2="907" y2="46"/>
      <line class="av" x1="910.92308" y1="38" x2="910.92308" y2="46"/>
      <line class="av" x1="914.84615" y1="38" x2="914.84615" y2="46"/>
      <line class="av" x1="918.76923" y1="38" x2="918.76923" y2="46"/>
      <line class="av" x1="922.69231" y1="38" x2="922.69231" y2="46"/>
    </g>
    <rect class="ak" x="872" y="27" width="62" height="4"/>
    <g>
      <g>
        <path class="aw" d="M873,6h60a2,2,0,0,1,2,2V26a0,0,0,0,1,0,0H871a0,0,0,0,1,0,0V8A2,2,0,0,1,873,6Z"/>
        <g class="ax">
          <path class="ay" d="M873.69231,6h58.76923a2,2,0,0,1,2,2v2a0,0,0,0,1,0,0H871.69231a0,0,0,0,1,0,0V8A2,2,0,0,1,873.69231,6Z"/>
        </g>
        <path class="az" d="M873,6h60a2,2,0,0,1,2,2V26a0,0,0,0,1,0,0H871a0,0,0,0,1,0,0V8A2,2,0,0,1,873,6Z"/>
      </g>
      <polygon class="ba" points="879.538 16 883.462 14 883.462 18 879.538 16"/>
      <polygon class="ba" points="887.385 16 891.308 14 891.308 18 887.385 16"/>
    </g>
    <g>
      <line class="ah" x1="885.42308" y1="114.71114" x2="920.73077" y2="114.71114"/>
      <line class="bb" x1="885.42308" y1="116.71114" x2="920.73077" y2="116.71114"/>
    </g>
    <g>
      <line class="ah" x1="885.42308" y1="184.71114" x2="920.73077" y2="184.71114"/>
      <line class="bb" x1="885.42308" y1="186.71114" x2="920.73077" y2="186.71114"/>
    </g>
    <g>
      <line class="ah" x1="885.42308" y1="255.71114" x2="920.73077" y2="255.71114"/>
      <line class="bb" x1="885.42308" y1="257.71114" x2="920.73077" y2="257.71114"/>
    </g>
    <g>
      <path class="t" d="M895,287v24h24V287Z"/>
      <rect class="c" x="887" y="278" width="24" height="24"/>
    </g>
    <path class="c" d="M917.88073,159.89637l-12.51405-12.51405,5.77571-5.77571-24.06548-6.73833,6.73833,24.06548L899.591,153.158,912.105,165.67208a4.084,4.084,0,0,0,5.77571,0h0A4.084,4.084,0,0,0,917.88073,159.89637Z"/>
    <g>
      <path class="t" d="M895,212v14h16V212Z"/>
      <line class="ac" x1="891" y1="212" x2="887" y2="212"/>
      <line class="ac" x1="919" y1="212" x2="915" y2="212"/>
      <g>
        <line class="ac" x1="891" y1="226" x2="887" y2="226"/>
        <line class="ac" x1="919" y1="226" x2="915" y2="226"/>
      </g>
      <line class="ac" x1="895" y1="230" x2="895" y2="234"/>
      <line class="ac" x1="895" y1="204" x2="895" y2="208"/>
      <g>
        <line class="ac" x1="911" y1="230" x2="911" y2="234"/>
        <line class="ac" x1="911" y1="204" x2="911" y2="208"/>
      </g>
    </g>
    <g>
      <polygon class="t" points="886.768 88.211 893.879 95.322 908.812 87.5 916.634 73.989 908.101 65.456 894.59 73.278 886.768 88.211"/>
      <path class="ao" d="M899.58164,79.66415a1.96473,1.96473,0,0,1,2.81669,0,2.059,2.059,0,0,1,0,2.87192,1.96473,1.96473,0,0,1-2.81669,0A2.059,2.059,0,0,1,899.58164,79.66415Z"/>
      <line class="av" x1="889.61221" y1="92.47789" x2="900.98999" y2="81.10011"/>
      <rect class="bc" x="901.89458" y="69.13323" width="18.10193" height="4.02265" transform="translate(317.11657 -623.29801) rotate(45)"/>
    </g>
    <path class="bd" d="M783,180V340H909V188a8,8,0,0,0-8-8Z"/>
    <path class="be" d="M881,340H757a16,16,0,0,1-16-16V192.00015L897,192V324A16,16,0,0,1,881,340Z"/>
    <path class="ak" d="M757,192H741V324a15.84839,15.84839,0,0,0,15.69231,16H885l6.49023-3.24512a5.06391,5.06391,0,0,0,2.26465-2.26465L897,328H765a8,8,0,0,1-8-8Z"/>
    <rect class="aw" x="734.38462" y="180" width="168.69231" height="12" rx="5.99999" ry="5.99999"/>
    <path class="bf" d="M759.88462,192H740.26922a5.94314,5.94314,0,0,1-5.88461-6h0a5.94314,5.94314,0,0,1,5.88461-6h19.61539Z"/>
    <rect class="ay" x="856" y="180" width="11.76923" height="12"/>
    <path class="ac" d="M817,223v43a41,41,0,0,1-41,41H776a41,41,0,0,1-41-41V219"/>
    <rect class="t" x="764" y="300" width="24" height="8"/>
    <path class="bf" d="M897.19231,192H881.5V180h15.69231a5.94314,5.94314,0,0,1,5.88461,6h0A5.94314,5.94314,0,0,1,897.19231,192Z"/>
    <circle class="be" cx="816" cy="219" r="7"/>
    <path class="ak" d="M769.69231,192h5.88461a0,0,0,0,1,0,0v97.0577A2.9423,2.9423,0,0,1,772.63462,292h0a2.9423,2.9423,0,0,1-2.9423-2.9423V192a0,0,0,0,1,0,0Z"/>
    <path class="bg" d="M861.88462,192h5.88462a0,0,0,0,1,0,0v97.0577A2.9423,2.9423,0,0,1,864.82693,292h0a2.94231,2.94231,0,0,1-2.94231-2.94231V192A0,0,0,0,1,861.88462,192Z"/>
    <rect class="az" x="734.38462" y="180" width="168.69231" height="12" rx="5.99999" ry="5.99999"/>
    <path class="be" d="M740,226a7,7,0,0,1-.00071-14L741,211.99954V226Z"/>
    <path class="bd" d="M734.5,283v56h46V285.8a2.86223,2.86223,0,0,0-2.92063-2.8Z"/>
    <g>
      <rect class="aw" x="706" y="276" width="64" height="64" rx="4" ry="4"/>
      <g class="bh">
        <rect class="ay" x="706" y="276" width="64" height="4"/>
        <rect class="bi" x="706" y="337" width="64" height="2"/>
      </g>
      <rect class="bj" x="706" y="276" width="64" height="64" rx="4" ry="4"/>
    </g>
    <text class="bk" transform="translate(722.67981 318.76782) scale(0.98077 1)">Ai</text>
    <g>
      <rect class="t" x="13" y="320" width="160" height="20" rx="2" ry="2"/>
      <rect class="aa" x="77" y="320" width="60" height="20"/>
      <rect class="aa" x="61.05769" y="320" width="7.94231" height="20"/>
    </g>
    <g>
      <rect class="r" x="43" y="304" width="112" height="16" rx="2" ry="2"/>
      <rect class="bl" x="89" y="304" width="48" height="16"/>
    </g>
    <path class="c" d="M106,224H214a4,4,0,0,1,4,4V332a8,8,0,0,1-8,8H110a8,8,0,0,1-8-8V228A4,4,0,0,1,106,224Z"/>
    <rect class="bm" x="102" y="248" width="116" height="72"/>
    <rect class="ak" x="103" y="249" width="11" height="70"/>
    <path class="bn" d="M102,320v12a7.9242,7.9242,0,0,0,7.84615,8h98.53847C212.71793,340,218,336.41828,218,332H119.65385a5.94315,5.94315,0,0,1-5.88462-6v-6Z"/>
    <rect class="ay" x="202" y="225" width="4" height="22"/>
    <rect class="bi" x="126" y="224" width="3.92308" height="24"/>
    <path class="bi" d="M114,224h-8a4,4,0,0,0-4,4v20h12Z"/>
    <path class="ak" d="M126.07692,248H130a0,0,0,0,1,0,0v52.03846A1.96154,1.96154,0,0,1,128.03846,302h0a1.96154,1.96154,0,0,1-1.96154-1.96154V248A0,0,0,0,1,126.07692,248Z"/>
    <path class="bg" d="M202,249h4a0,0,0,0,1,0,0v52.03846A1.96154,1.96154,0,0,1,204.03846,303h-.07693A1.96154,1.96154,0,0,1,202,301.03846V249a0,0,0,0,1,0,0Z"/>
    <g>
      <path class="b" d="M218,324a44,44,0,0,0,0-88v19.47284a24.52713,24.52713,0,0,1,0,49.05426Z"/>
      <path class="bo" d="M222.00018,240.19824a40.05815,40.05815,0,0,1,36,39.80176"/>
      <path class="bn" d="M235.8627,296.80792A24.45882,24.45882,0,0,1,218,304.5271V324a43.86809,43.86809,0,0,0,31.47288-13.25169Z"/>
    </g>
  </g>
</svg>
