<svg xmlns="http://www.w3.org/2000/svg" xmlns:xlink="http://www.w3.org/1999/xlink" width="736" height="313.00014" viewBox="0 0 736 313.00014">
  <defs>
    <style>
      .a, .f, .y {
        fill: #f7f2f5;
      }

      .a, .aa, .i, .j, .o, .r {
        stroke: #7f6371;
      }

      .a, .aa, .ab, .ad, .ae, .af, .ah, .b, .c, .d, .e, .h, .i, .j, .l, .m, .o, .q, .r, .s, .t, .v, .w, .y, .z {
        stroke-linecap: round;
        stroke-linejoin: round;
      }

      .a, .ad, .ae, .af, .ah, .b, .c, .d, .e, .i, .j, .m, .n, .o, .q, .r, .s, .v, .w {
        stroke-width: 2px;
      }

      .b, .j, .n {
        fill: #ffdb6d;
      }

      .ad, .ae, .b, .c, .n, .v, .w {
        stroke: #8e7c69;
      }

      .c {
        fill: #fffbee;
      }

      .d {
        fill: #27cba4;
      }

      .d, .e, .q {
        stroke: #189675;
      }

      .e {
        fill: #eafaf6;
      }

      .g {
        clip-path: url(#a);
      }

      .aa, .ab, .ad, .ae, .af, .ah, .an, .h, .i, .l, .q, .v, .z {
        fill: none;
      }

      .h, .z {
        stroke: #fff;
      }

      .h {
        stroke-width: 8px;
      }

      .k {
        clip-path: url(#b);
      }

      .ab, .l, .y {
        stroke: #e5e0e3;
      }

      .l {
        stroke-width: 6px;
      }

      .m {
        fill: #ff7e6d;
        stroke: #bf4e45;
      }

      .am, .an, .n {
        stroke-miterlimit: 10;
      }

      .o, .s {
        fill: #fff;
      }

      .p {
        fill: #ecebec;
      }

      .r, .t {
        fill: #d2c7cc;
      }

      .s, .t {
        stroke: #d2c7cc;
      }

      .u, .w {
        fill: #fff3ce;
      }

      .x {
        clip-path: url(#c);
      }

      .ab, .y {
        stroke-width: 12px;
      }

      .z {
        stroke-width: 22px;
      }

      .aa {
        stroke-width: 16px;
      }

      .ac {
        fill: #ceb797;
      }

      .ad, .ah, .ao {
        opacity: 0.2;
      }

      .ae, .af, .aj, .ak {
        opacity: 0.4;
      }

      .af, .ah {
        stroke: #e5ccae;
      }

      .ag, .aj, .al, .am, .ao {
        fill: #8e7c69;
      }

      .ag {
        opacity: 0.1;
      }

      .ai {
        fill: #e5ccae;
      }

      .am, .an {
        stroke: #726051;
      }
    </style>
    <clipPath id="a">
      <rect class="a" x="204" y="4" width="332" height="240" rx="6" ry="6"/>
    </clipPath>
    <clipPath id="b">
      <path class="a" d="M248,32H492a6,6,0,0,1,6,6V56a0,0,0,0,1,0,0H242a0,0,0,0,1,0,0V38A6,6,0,0,1,248,32Z"/>
    </clipPath>
    <clipPath id="c">
      <path class="a" d="M191.33333,236H548.66667A5.33333,5.33333,0,0,1,554,241.33333v0A10.66666,10.66666,0,0,1,543.33334,252H196.66666A10.66666,10.66666,0,0,1,186,241.33334v0A5.33333,5.33333,0,0,1,191.33333,236Z"/>
    </clipPath>
  </defs>
  <title>card-introduction-734</title>
  <g>
    <g>
      <g>
        <rect class="b" x="15" y="234" width="160" height="20" rx="2" ry="2"/>
        <rect class="c" x="79" y="234" width="60" height="20"/>
        <rect class="c" x="63.05769" y="234" width="7.94231" height="20"/>
      </g>
      <g>
        <rect class="d" x="45" y="218" width="112" height="16" rx="2" ry="2"/>
        <rect class="e" x="91" y="218" width="48" height="16"/>
      </g>
    </g>
    <g>
      <g>
        <g>
          <rect class="f" x="204" y="4" width="332" height="240" rx="6" ry="6"/>
          <g class="g">
            <path class="h" d="M204,10a5.95368,5.95368,0,0,1,5.90625-6h320.1875A5.95368,5.95368,0,0,1,536,10"/>
          </g>
          <rect class="i" x="204" y="4" width="332" height="240" rx="6" ry="6"/>
        </g>
        <g>
          <rect class="j" x="216" y="16" width="308" height="208"/>
          <g>
            <g>
              <path class="f" d="M248,32H492a6,6,0,0,1,6,6V56a0,0,0,0,1,0,0H242a0,0,0,0,1,0,0V38A6,6,0,0,1,248,32Z"/>
              <g class="k">
                <path class="h" d="M242,38a5.93972,5.93972,0,0,1,5.87755-6h244.2449A5.93972,5.93972,0,0,1,498,38"/>
                <line class="l" x1="498" y1="56" x2="242" y2="56"/>
              </g>
              <path class="i" d="M248,32H492a6,6,0,0,1,6,6V56a0,0,0,0,1,0,0H242a0,0,0,0,1,0,0V38A6,6,0,0,1,248,32Z"/>
            </g>
            <ellipse class="m" cx="253.53846" cy="44" rx="3.92308" ry="4"/>
            <ellipse class="n" cx="265.30769" cy="44" rx="3.92308" ry="4"/>
            <ellipse class="d" cx="277.07692" cy="44" rx="3.92308" ry="4"/>
            <rect class="o" x="266.23077" y="56" width="184" height="148"/>
            <path class="a" d="M242,56h24a0,0,0,0,1,0,0V204a0,0,0,0,1,0,0H248a6,6,0,0,1-6-6V56A0,0,0,0,1,242,56Z"/>
            <path class="a" d="M450,56h48a0,0,0,0,1,0,0V198a6,6,0,0,1-6,6H450a0,0,0,0,1,0,0V56A0,0,0,0,1,450,56Z"/>
            <g>
              <g>
                <rect class="b" x="249" y="185.5" width="6" height="6"/>
                <rect class="m" x="253" y="189" width="6" height="6"/>
              </g>
              <g>
                <line class="i" x1="257.63462" y1="170.5" x2="251.63462" y2="164.5"/>
                <circle class="a" cx="251.63462" cy="164.5" r="3"/>
              </g>
              <polygon class="m" points="259 67.833 249 64.5 252.333 74.5 255.667 71.167 259 67.833"/>
              <rect class="b" x="249" y="114.5" width="10" height="8"/>
              <path class="p" d="M12,265H724a0,0,0,0,1,0,0v40.00014a8,8,0,0,1-8,8H20a8,8,0,0,1-8-8V265A0,0,0,0,1,12,265Z"/>
              <circle class="m" cx="254" cy="142.5" r="4"/>
              <line class="i" x1="242.75" y1="82" x2="265.30769" y2="82"/>
              <line class="i" x1="242.75" y1="106" x2="265.30769" y2="106"/>
              <line class="i" x1="242.75" y1="131" x2="265.30769" y2="131"/>
              <line class="i" x1="242.75" y1="155" x2="265.30769" y2="155"/>
              <line class="i" x1="242.75" y1="178.30761" x2="265.30769" y2="178.30761"/>
              <g>
                <g>
                  <polygon class="d" points="252 89.5 256 89.5 258 93.5 254 99.5 250 93.5 252 89.5"/>
                  <rect class="d" x="250" y="87.5" width="8" height="2"/>
                </g>
                <line class="q" x1="254" y1="99.5" x2="254" y2="93.5"/>
              </g>
            </g>
            <g>
              <rect class="r" x="450" y="56" width="48" height="8"/>
              <line class="i" x1="455" y1="60" x2="471" y2="60"/>
            </g>
            <g>
              <rect class="r" x="450" y="104" width="48" height="8"/>
              <line class="i" x1="455" y1="108" x2="471" y2="108"/>
            </g>
            <g>
              <rect class="r" x="450" y="168" width="48" height="8"/>
              <line class="i" x1="455" y1="172" x2="471" y2="172"/>
            </g>
            <rect class="s" x="458" y="120" width="16" height="8"/>
            <rect class="s" x="474" y="120" width="16" height="8"/>
            <rect class="s" x="458" y="136" width="16" height="8"/>
            <rect class="s" x="474" y="136" width="16" height="8"/>
            <rect class="s" x="458" y="152" width="16" height="8"/>
            <rect class="s" x="474" y="152" width="16" height="8"/>
            <g>
              <rect class="s" x="458" y="72" width="32" height="8"/>
              <line class="s" x1="482" y1="72" x2="482" y2="80"/>
              <polygon class="t" points="487.195 75.293 485.808 76.707 484.421 75.293 487.195 75.293"/>
            </g>
            <g>
              <rect class="s" x="458" y="88" width="32" height="8"/>
              <line class="s" x1="482" y1="88" x2="482" y2="96"/>
              <polygon class="t" points="487.195 91.293 485.808 92.707 484.421 91.293 487.195 91.293"/>
            </g>
            <g>
              <rect class="s" x="458" y="184" width="32" height="8"/>
              <line class="s" x1="482" y1="184" x2="482" y2="192"/>
              <polygon class="t" points="487.195 187.293 485.808 188.707 484.421 187.293 487.195 187.293"/>
            </g>
            <g>
              <rect class="c" x="313.23077" y="68" width="88" height="123.5"/>
              <g>
                <path class="u" d="M347.9686,94.81482c-2.59128-.87659-3.778-2.54321-3.778-7.25928,0-2.279-1.59806-2.22223-1.59806-2.22223l-.00431.00128a1.11488,1.11488,0,0,0-.53109-.86176A14.26664,14.26664,0,0,0,338.57754,84c-.41185,0-.40035.35132-.22077.94574.09482.31348.4061,1.27649,1.1843,1.27649.5943.41858,0,1.09839,0,1.09839l-2.32454.53119-.72648,1.18524-4.21376,1.4895a3.03422,3.03422,0,0,0,1.40746,2.30212c1.35478.82526,4.84015.801,4.84015.801a7.667,7.667,0,0,1,.727,6.37036A14.19874,14.19874,0,0,1,347.9686,94.81482Z"/>
                <g>
                  <path class="c" d="M347.9686,94.81481c-2.59117-.87654-3.77778-2.54321-3.77778-7.25926,0-2.279-1.59829-2.22222-1.59829-2.22222"/>
                  <path class="v" d="M340.43215,85.98667a1.77434,1.77434,0,0,0,.5225-.48652"/>
                  <path class="v" d="M342.62523,85.50032c-.08414-.49815-.24545-.89266-.568-1.02743A14.26614,14.26614,0,0,0,338.57778,84c-.412,0-.40047.35136-.221.94577.09468.31349.40613,1.27645,1.18442,1.27645a1.701,1.701,0,0,0,.8909-.23555"/>
                  <path class="v" d="M339.25065,100a7.66764,7.66764,0,0,0-.7265-6.37037s-3.48548.0243-4.84028-.80093a3.03458,3.03458,0,0,1-1.40759-2.30213L336.49,89.037l.7265-1.18519,2.32466-.53122s.59424-.67981.00013-1.09841"/>
                </g>
              </g>
              <line class="v" x1="353.23077" y1="89" x2="377.23077" y2="89"/>
              <line class="v" x1="353.23077" y1="94" x2="367.23077" y2="94"/>
              <rect class="w" x="313.23077" y="116" width="88" height="75.5"/>
              <g>
                <line class="v" x1="325.23077" y1="173.5" x2="349.23077" y2="173.5"/>
                <line class="v" x1="325.23077" y1="178.5" x2="339.23077" y2="178.5"/>
              </g>
              <line class="v" x1="353.23077" y1="94" x2="367.23077" y2="94"/>
            </g>
          </g>
        </g>
      </g>
      <g>
        <path class="f" d="M191.33333,236H548.66667A5.33333,5.33333,0,0,1,554,241.33333v0A10.66666,10.66666,0,0,1,543.33334,252H196.66666A10.66666,10.66666,0,0,1,186,241.33334v0A5.33333,5.33333,0,0,1,191.33333,236Z"/>
        <g class="x">
          <path class="y" d="M552.27842,250.37115A40.30918,40.30918,0,0,1,542.14286,252H197.85714A90.5889,90.5889,0,0,1,187.7,251.08587"/>
          <path class="h" d="M186,240c0-2.20914,2.66654-4,5.95588-4H548.04412C551.33346,236,554,237.79086,554,240"/>
          <line class="z" x1="340" y1="236" x2="404" y2="236"/>
          <line class="aa" x1="340" y1="236" x2="404" y2="236"/>
          <line class="ab" x1="340" y1="236" x2="404" y2="236"/>
        </g>
        <path class="i" d="M191.33333,236H548.66667A5.33333,5.33333,0,0,1,554,241.33333v0A10.66666,10.66666,0,0,1,543.33334,252H196.66666A10.66666,10.66666,0,0,1,186,241.33334v0A5.33333,5.33333,0,0,1,191.33333,236Z"/>
      </g>
    </g>
    <g>
      <rect class="ac" x="1" y="253" width="734" height="40" rx="4" ry="4"/>
      <line class="ad" x1="3.09679" y1="262.36275" x2="222.01901" y2="255.42855"/>
      <line class="ad" x1="2.72644" y1="282.341" x2="169.04864" y2="278.38096"/>
      <line class="ad" x1="3.64375" y1="290.29908" x2="224.01901" y2="279.42855"/>
      <line class="ad" x1="506.01901" y1="270.35444" x2="732.25272" y2="259.35444"/>
      <line class="ae" x1="245.00249" y1="258.02631" x2="448.00223" y2="265.4263"/>
      <line class="af" x1="170.54346" y1="287.68277" x2="250.54346" y2="291.68277"/>
      <line class="ad" x1="549.01901" y1="279.35444" x2="732.25272" y2="283.35444"/>
      <line class="ad" x1="196.5479" y1="284.26299" x2="276.5479" y2="288.26299"/>
      <line class="ad" x1="305.01901" y1="289.68277" x2="355.01901" y2="282.68277"/>
      <line class="ad" x1="81.98907" y1="265.98861" x2="185.06521" y2="270.60399"/>
      <path class="ag" d="M712.89155,292.791c-9.29707-4.40356-5.2138-6.203-6.53265-12.845-1.34906-6.794-4.954-6.30047-7.90192-12.93261-2.94752-6.63122-13.774-8.13623-7.56887-14.0134h40.17618A3.96825,3.96825,0,0,1,735,257v31.86771a3.96425,3.96425,0,0,1-3.8596,3.99931C724.99841,292.97728,713.61429,293.1333,712.89155,292.791Z"/>
      <path class="ag" d="M23.46953,292.791c9.44891-4.40356,5.29895-6.203,6.63935-12.845,1.37109-6.794,5.0349-6.30047,8.031-12.93261,2.99566-6.63122,10.76527-8.13623,4.45878-14.0134H5a4,4,0,0,0-4,4v31.86771A3.99445,3.99445,0,0,0,4.92263,292.867C11.16493,292.97728,22.735,293.1333,23.46953,292.791Z"/>
      <line class="ah" x1="79.50862" y1="289.59591" x2="169.50862" y2="287.59591"/>
      <line class="af" x1="2.02224" y1="264.37482" x2="224.49152" y2="260.667"/>
      <line class="af" x1="157.0078" y1="266.30946" x2="379.47708" y2="262.60164"/>
      <line class="af" x1="398.00008" y1="271.05265" x2="394.46936" y2="267.34483"/>
      <line class="af" x1="384.00661" y1="289.1882" x2="380.47589" y2="283.48038"/>
      <path class="af" d="M576.42509,255.244"/>
      <path class="af" d="M390.98718,260.00169"/>
      <line class="af" x1="506.28437" y1="291.06226" x2="731.98736" y2="285.35444"/>
      <line class="af" x1="495.2654" y1="273.00703" x2="720.96838" y2="267.29921"/>
      <line class="ah" x1="1.97863" y1="277.80999" x2="159.05457" y2="276.66846"/>
      <path class="ai" d="M1,257H1a3.99581,3.99581,0,0,1,4-3.99581L730.00514,254A3.99743,3.99743,0,0,1,734,258Z"/>
      <path class="ai" d="M79.35234,255.22727c.92058.285,2.0689.61069,3.46268.98075,32.1801,8.54418,38.21161,4.63083,76.04114,5.88887,29.92079.995,30.46026-1.41125,60.46677-1.16123s-69.99265.23171-39.98614.48173c30.00238.25,30.165-3.27368,60.16735-3.02369,28.96449.24134,29.21033,3.46148,55.18153.56831l-9.41331-3.5973Z"/>
      <path class="v" d="M5,253H730.9968A4.0032,4.0032,0,0,1,735,257.0032V289a4,4,0,0,1-4,4H5.0032A4.0032,4.0032,0,0,1,1,288.9968V257A4,4,0,0,1,5,253Z"/>
      <line class="ae" x1="82.99758" y1="292.67503" x2="162.66424" y2="290.3417"/>
      <line class="ad" x1="139.06981" y1="282.23554" x2="307.06981" y2="278.23554"/>
      <line class="af" x1="308.56463" y1="287.68277" x2="358.56463" y2="291.68277"/>
      <line class="ad" x1="334.56907" y1="283.33429" x2="384.56907" y2="287.33429"/>
      <line class="ah" x1="217.52979" y1="289.59591" x2="307.52979" y2="287.59591"/>
      <line class="af" x1="140.0434" y1="264.2294" x2="362.51268" y2="260.52158"/>
      <line class="ah" x1="139.9998" y1="277.66457" x2="297.07574" y2="276.52304"/>
      <line class="ae" x1="221.01874" y1="292.67503" x2="300.68541" y2="290.3417"/>
      <line class="af" x1="448.58353" y1="286.75408" x2="532.58353" y2="290.75408"/>
      <line class="ah" x1="357.54869" y1="288.66721" x2="447.54869" y2="286.66721"/>
      <line class="af" x1="410.06231" y1="263.30071" x2="406.53159" y2="259.59288"/>
      <line class="ad" x1="446.14639" y1="261.35444" x2="689.65391" y2="254.35444"/>
      <line class="af" x1="574.74601" y1="286.75408" x2="714.526" y2="290.75408"/>
      <line class="af" x1="394.74601" y1="272.75408" x2="534.526" y2="276.75408"/>
      <path class="ad" d="M734.25272,287.33429"/>
      <path class="ad" d="M594.47273,283.33429"/>
      <line class="ah" x1="505.68786" y1="288.66721" x2="573.961" y2="286.66721"/>
      <line class="af" x1="446.90743" y1="263.30071" x2="615.67049" y2="259.59288"/>
      <line class="ah" x1="446.87435" y1="276.73588" x2="566.03065" y2="275.59435"/>
      <path class="ag" d="M166.02295,254.28314l34.18349,5.568c24.99265,2.06387,35.20564,1.15742,72.90226,1.45019"/>
      <path class="aj" d="M165.70436,287.185c102.72216-2.0251-38.4608-1.13568,116.47589-1.423,158.48414-.29385,146.97146-1.07908,301.67954-1.72121,154.68681-.642-31.95726,6.60823,105.13978,7.95985H48.6839S154.73362,287.40129,165.70436,287.185Z"/>
      <g class="ak">
        <path class="al" d="M18.61507,279.106c-5.53419.754-8.93829.60521-11.0524-4.56455-1.63742-4.00407,1.39048-8.1311,5.67682-8.71509,5.53419-.754,5.778,2.25012,9.25091,6.62448C25.29835,275.98772,22.90141,278.522,18.61507,279.106Z"/>
      </g>
      <circle class="am" cx="15.98686" cy="273.31699" r="4"/>
      <line class="an" x1="11.98686" y1="273.31699" x2="19.98686" y2="273.31699"/>
      <g class="ak">
        <path class="al" d="M726.44968,274.48944c-2.46821,5.07829-4.72027,4.34059-10.25446,3.22086-4.28634-.86725-6.54407-2.55127-4.63239-6.4845,2.46821-5.07829,4.80164-6.704,10.43979-7.008C726.95393,263.95087,728.36136,270.55621,726.44968,274.48944Z"/>
      </g>
      <circle class="am" cx="718.98686" cy="273.53759" r="4"/>
      <line class="an" x1="715.61914" y1="274" x2="723.61914" y2="274"/>
      <line class="ad" x1="288.05908" y1="280.35444" x2="511.05908" y2="269.35444"/>
      <line class="ad" x1="420.58797" y1="281.33429" x2="600.58797" y2="285.33429"/>
      <path class="ao" d="M116.96586,271.8078c73.98462-2.06387,12.08542-1.15742,123.677-1.45019,114.14663-.29948,417.35528-11.05924,452.60035,6.35808,30.60633,15.125-94.83356,1.977-138.07689,0-188.03676-8.5966-521.82485,14.58268-522.48332,0C31.65012,253.84019,109.06429,272.02822,116.96586,271.8078Z"/>
    </g>
  </g>
</svg>
