<svg xmlns="http://www.w3.org/2000/svg" xmlns:xlink="http://www.w3.org/1999/xlink" width="322" height="254" viewBox="0 0 322 254">
  <defs>
    <style>
      .a, .al, .r {
        fill: #f7f2f5;
      }

      .a, .ab, .ae, .an, .u, .v {
        stroke: #7f6371;
      }

      .a, .aa, .ab, .ac, .ad, .ae, .af, .ag, .ah, .aj, .al, .am, .an, .ao, .d, .e, .f, .h, .q, .t, .u, .v, .x, .y {
        stroke-linecap: round;
        stroke-linejoin: round;
      }

      .a, .aa, .ab, .ac, .ad, .ae, .af, .ah, .aj, .d, .e, .f, .h, .q, .u, .v, .y, .z {
        stroke-width: 2px;
      }

      .b {
        fill: #ecebec;
      }

      .c {
        fill: #ceb797;
      }

      .ad, .am, .an, .ao, .d, .e, .f, .h, .p, .q, .t, .u, .x {
        fill: none;
      }

      .ac, .ah, .aj, .d, .e, .q, .z {
        stroke: #8e7c69;
      }

      .d, .h, .j, .m {
        opacity: 0.2;
      }

      .e, .f, .l, .n {
        opacity: 0.4;
      }

      .f, .h {
        stroke: #e5ccae;
      }

      .g, .k, .l, .m, .o {
        fill: #8e7c69;
      }

      .g {
        opacity: 0.1;
      }

      .i {
        fill: #e5ccae;
      }

      .o, .p {
        stroke: #726051;
      }

      .o, .p, .z {
        stroke-miterlimit: 10;
      }

      .s {
        clip-path: url(#a);
      }

      .am, .t {
        stroke: #fff;
      }

      .t {
        stroke-width: 8px;
      }

      .ac, .v, .z {
        fill: #ffdb6d;
      }

      .w {
        clip-path: url(#b);
      }

      .al, .ao, .x {
        stroke: #e5e0e3;
      }

      .x {
        stroke-width: 6px;
      }

      .y {
        fill: #ff7e6d;
        stroke: #bf4e45;
      }

      .aa {
        fill: #27cba4;
      }

      .aa, .ad {
        stroke: #189675;
      }

      .ab, .af {
        fill: #fff;
      }

      .ae, .ag {
        fill: #d2c7cc;
      }

      .af, .ag {
        stroke: #d2c7cc;
      }

      .ah {
        fill: #fffbee;
      }

      .ai, .aj {
        fill: #fff3ce;
      }

      .ak {
        clip-path: url(#c);
      }

      .al, .ao {
        stroke-width: 12px;
      }

      .am {
        stroke-width: 22px;
      }

      .an {
        stroke-width: 16px;
      }
    </style>
    <clipPath id="a">
      <rect class="a" x="15" y="4" width="292" height="200" rx="6" ry="6"/>
    </clipPath>
    <clipPath id="b">
      <path class="a" d="M49,26H273a6,6,0,0,1,6,6V50a0,0,0,0,1,0,0H43a0,0,0,0,1,0,0V32A6,6,0,0,1,49,26Z"/>
    </clipPath>
    <clipPath id="c">
      <path class="a" d="M10.33333,194H311.66667A5.33333,5.33333,0,0,1,317,199.33333v0A10.66666,10.66666,0,0,1,306.33334,210H15.66666A10.66666,10.66666,0,0,1,5,199.33334v0A5.33333,5.33333,0,0,1,10.33333,194Z"/>
    </clipPath>
  </defs>
  <title>introduction-320</title>
  <g>
    <rect class="b" x="11" y="226" width="302" height="28" rx="12" ry="12"/>
    <g>
      <path class="c" d="M320.89782,238.0252q.00686-.11968.00514-.23962c-.0971-6.37752-.19713-12.755-.07356-19.13245.02909-1.49977.0441-3.0357.064-4.59425A4.00309,4.00309,0,0,0,316.8944,210H5a4,4,0,0,0-4,4v24a4,4,0,0,0,4,4H316.89646a4.01234,4.01234,0,0,0,3.99266-3.81994Z"/>
      <line class="d" x1="3.10213" y1="217.4902" x2="172.5814" y2="211.94284"/>
      <line class="d" x1="2.73083" y1="233.4728" x2="119.47624" y2="230.30477"/>
      <line class="d" x1="3.65047" y1="239.83926" x2="174.58649" y2="231.14284"/>
      <path class="e" d="M195.62337,214.021c50.12473.779,74.18943,1.27839,124.37409,2.379"/>
      <line class="f" x1="120.97487" y1="237.74622" x2="201.17843" y2="240.94622"/>
      <line class="d" x1="147.04548" y1="235.01039" x2="227.24904" y2="238.21039"/>
      <path class="d" d="M255.7926,239.34622C285.84987,238,289.57907,237.16931,319.99746,236.4"/>
      <line class="d" x1="82.19515" y1="220.39089" x2="135.53357" y2="224.08319"/>
      <path class="g" d="M23.5267,241.83278c9.47295-3.52285,5.31243-4.96243,6.65624-10.276,1.37458-5.43521,5.04771-5.04038,8.05141-10.34609,3.00329-5.305,10.79266-6.509,4.47012-11.21072H5.01018C2.79542,210,1,211.43269,1,213.2v25.49417c0,1.74512,1.746,3.16863,3.93261,3.19945C11.1908,241.98182,22.79029,242.10664,23.5267,241.83278Z"/>
      <path class="g" d="M298.53047,241.83278c-9.44891-3.52285-5.29895-4.96243-6.63935-10.276-1.37109-5.43521-5.0349-5.04038-8.031-10.34609-2.99566-5.305-10.76527-6.509-4.45878-11.21072H317c2.20914,0,4,1.43269,4,3.2v25.49417c0,1.74512-1.74157,3.16863-3.92263,3.19945C310.83507,241.98182,299.265,242.10664,298.53047,241.83278Z"/>
      <line class="h" x1="79.70839" y1="239.27673" x2="119.9374" y2="237.67673"/>
      <line class="f" x1="2.02484" y1="219.09985" x2="175.0602" y2="216.1336"/>
      <line class="f" x1="107.40476" y1="220.64757" x2="306.44012" y2="217.68131"/>
      <line class="h" x1="1.98112" y1="229.84799" x2="109.45674" y2="228.93477"/>
      <path class="i" d="M320.89983,213.50186a3.11723,3.11723,0,0,0-3.10749-3.17017L5.01018,210.00332C2.79606,210.00146,1,211.4332,1,213.2l319.8994.33359Z"/>
      <path class="i" d="M79.55171,211.78181c.92293.228,2.07416.48855,3.47149.7846,32.262,6.83534-11.69115,3.70467,26.23463,4.7111,29.99693.796,30.53777-1.129,60.62063-.929s-70.17075.18537-40.08789.38539c30.07872.2,30.24173-2.61894,60.32045-2.419,29.03819.19307,29.28466,2.76918,55.32194.45465l-9.43727-2.87784Z"/>
      <line class="e" x1="83.20622" y1="241.74003" x2="113.0756" y2="239.87336"/>
      <line class="d" x1="89.42113" y1="233.38843" x2="257.84861" y2="230.18843"/>
      <line class="d" x1="89.39142" y1="239.82651" x2="288.95885" y2="231.02651"/>
      <path class="f" d="M259.34724,237.74622c29.21533.17027,30.44262.41459,59.64767,1.05378"/>
      <path class="d" d="M261.41785,234.26743c20.66141.79636,37.89984.3557,58.57961.53257"/>
      <path class="d" d="M170.56751,220.39089c59.13987.80911,89.90413,2.41159,149.42994,3.20911"/>
      <line class="h" x1="168.08076" y1="239.27673" x2="258.30977" y2="237.67673"/>
      <line class="f" x1="90.3972" y1="218.98352" x2="289.43256" y2="216.01726"/>
      <line class="h" x1="90.35349" y1="229.73166" x2="247.82911" y2="228.81843"/>
      <line class="e" x1="171.57859" y1="241.74003" x2="251.44797" y2="239.87336"/>
      <g class="j">
        <path class="k" d="M116.44285,211.02651l34.27047,4.45436c25.05624,1.6511,35.29522.92593,73.08776,1.16015"/>
      </g>
      <path class="l" d="M321,235.2772s-34.54385-.5564-52.92-.44507c-84.77939.51367-54.47053,1.14185-141.31925,1.377-84.9047.22983,42.463-.48174-13.82826,1.13833-6.01209.173-64.12687,3.85259-64.12687,3.85259H321Z"/>
      <path class="m" d="M296,225.67641c-.00111-1.792-1.85037-3.23543-4.09586-3.21442-28.61209.26773-23.13579.49985-87.57206.62414-121.42929.23423-4.07315-.491-84.58022,1.16016-8.598.17632-92.83695-14.37412-91.713,3.92632.40845,6.65077,82.63746,3.48333,263.988.80494,2.20843-.03262,3.97457-1.47362,3.97322-3.23618Z"/>
      <g>
        <g>
          <g class="n">
            <path class="k" d="M20.618,232.12745c-5.53419.754-6.93109-.23822-9.0452-5.408-1.63742-4.00407-.9244-9.546,3.36193-10.13,5.53419-.754,5.59046,4.87674,9.0602,9.25358C26.80586,229.38889,24.90432,231.54346,20.618,232.12745Z"/>
          </g>
          <circle class="o" cx="17.98686" cy="226.31699" r="4"/>
          <line class="p" x1="13.98686" y1="226.31699" x2="21.98686" y2="226.31699"/>
        </g>
        <g>
          <g class="n">
            <path class="k" d="M314.44868,228.60644c-2.46821,5.07829-7.34447,6.459-12.87866,5.33929-4.28634-.86725-5.6109-5.4916-3.69922-9.42483,2.46821-5.07829,4.61637-7.327,10.26263-7.29948C314.0572,217.2503,316.36036,224.67321,314.44868,228.60644Z"/>
          </g>
          <circle class="o" cx="304.98686" cy="226.68301" r="4"/>
          <line class="p" x1="301" y1="226.64542" x2="309" y2="226.64542"/>
        </g>
      </g>
      <rect class="q" x="1" y="210" width="320" height="32"/>
    </g>
    <g>
      <g>
        <rect class="r" x="15" y="4" width="292" height="200" rx="6" ry="6"/>
        <g class="s">
          <path class="t" d="M15,10a5.95368,5.95368,0,0,1,5.90625-6h280.1875A5.95368,5.95368,0,0,1,307,10"/>
        </g>
        <rect class="u" x="15" y="4" width="292" height="200" rx="6" ry="6"/>
      </g>
      <g>
        <rect class="v" x="27" y="16" width="268" height="168"/>
        <g>
          <g>
            <path class="r" d="M49,26H273a6,6,0,0,1,6,6V50a0,0,0,0,1,0,0H43a0,0,0,0,1,0,0V32A6,6,0,0,1,49,26Z"/>
            <g class="w">
              <path class="t" d="M43,32a5.93972,5.93972,0,0,1,5.87755-6h224.2449A5.93972,5.93972,0,0,1,279,32"/>
              <line class="x" x1="279" y1="50" x2="43" y2="50"/>
            </g>
            <path class="u" d="M49,26H273a6,6,0,0,1,6,6V50a0,0,0,0,1,0,0H43a0,0,0,0,1,0,0V32A6,6,0,0,1,49,26Z"/>
          </g>
          <ellipse class="y" cx="54.53846" cy="38" rx="3.92308" ry="4"/>
          <ellipse class="z" cx="66.30769" cy="38" rx="3.92308" ry="4"/>
          <ellipse class="aa" cx="78.07692" cy="38" rx="3.92308" ry="4"/>
          <rect class="ab" x="67" y="50" width="164" height="122"/>
          <path class="a" d="M43,50H67a0,0,0,0,1,0,0V172a0,0,0,0,1,0,0H49a6,6,0,0,1-6-6V50A0,0,0,0,1,43,50Z"/>
          <path class="a" d="M231,50h48a0,0,0,0,1,0,0V166a6,6,0,0,1-6,6H231a0,0,0,0,1,0,0V50A0,0,0,0,1,231,50Z"/>
          <g>
            <g>
              <rect class="ac" x="50" y="156" width="6" height="6"/>
              <rect class="y" x="54" y="159.5" width="6" height="6"/>
            </g>
            <g>
              <line class="u" x1="58.63462" y1="141" x2="52.63462" y2="135"/>
              <circle class="a" cx="52.63462" cy="135" r="3"/>
            </g>
            <polygon class="y" points="60 61.833 50 58.5 53.333 68.5 56.667 65.167 60 61.833"/>
            <rect class="ac" x="50" y="108.5" width="10" height="8"/>
            <line class="u" x1="43.75" y1="76" x2="66.30769" y2="76"/>
            <line class="u" x1="43.75" y1="100" x2="66.30769" y2="100"/>
            <line class="u" x1="43.75" y1="125" x2="66.30769" y2="125"/>
            <line class="u" x1="43.75" y1="148.80761" x2="66.30769" y2="148.80761"/>
            <g>
              <g>
                <polygon class="aa" points="53 83.5 57 83.5 59 87.5 55 93.5 51 87.5 53 83.5"/>
                <rect class="aa" x="51" y="81.5" width="8" height="2"/>
              </g>
              <line class="ad" x1="55" y1="93.5" x2="55" y2="87.5"/>
            </g>
          </g>
          <g>
            <rect class="ae" x="231" y="50" width="48" height="8"/>
            <line class="u" x1="236" y1="54" x2="252" y2="54"/>
          </g>
          <g>
            <rect class="ae" x="231" y="98" width="48" height="8"/>
            <line class="u" x1="236" y1="102" x2="252" y2="102"/>
          </g>
          <rect class="af" x="239" y="114" width="16" height="8"/>
          <rect class="af" x="255" y="114" width="16" height="8"/>
          <rect class="af" x="239" y="130" width="16" height="8"/>
          <rect class="af" x="255" y="130" width="16" height="8"/>
          <g>
            <rect class="af" x="239" y="66" width="32" height="8"/>
            <line class="af" x1="263" y1="66" x2="263" y2="74"/>
            <polygon class="ag" points="268.195 69.293 266.808 70.707 265.421 69.293 268.195 69.293"/>
          </g>
          <g>
            <rect class="af" x="239" y="82" width="32" height="8"/>
            <line class="af" x1="263" y1="82" x2="263" y2="90"/>
            <polygon class="ag" points="268.195 85.293 266.808 86.707 265.421 85.293 268.195 85.293"/>
          </g>
          <g>
            <rect class="af" x="239" y="146" width="32" height="8"/>
            <line class="af" x1="263" y1="146" x2="263" y2="154"/>
            <polygon class="ag" points="268.195 149.293 266.808 150.707 265.421 149.293 268.195 149.293"/>
          </g>
          <g>
            <rect class="ah" x="114.23077" y="60" width="68" height="98.5"/>
            <g>
              <g>
                <path class="ai" d="M140.9686,81.81482c-2.59128-.87659-3.778-2.54321-3.778-7.25928,0-2.279-1.59806-2.22223-1.59806-2.22223l-.00431.00128a1.11488,1.11488,0,0,0-.53109-.86176A14.26664,14.26664,0,0,0,131.57754,71c-.41185,0-.40035.35132-.22077.94574.09482.31348.4061,1.27649,1.1843,1.27649.5943.41858,0,1.09839,0,1.09839l-2.32454.53119-.72648,1.18524-4.21376,1.4895a3.03422,3.03422,0,0,0,1.40746,2.30212c1.35478.82526,4.84015.801,4.84015.801A7.667,7.667,0,0,1,132.25086,87,14.19874,14.19874,0,0,1,140.9686,81.81482Z"/>
                <g>
                  <path class="ah" d="M140.9686,81.81481c-2.59117-.87654-3.77778-2.54321-3.77778-7.25926,0-2.279-1.59829-2.22222-1.59829-2.22222"/>
                  <path class="q" d="M133.43215,72.98667a1.77434,1.77434,0,0,0,.5225-.48652"/>
                  <path class="q" d="M135.62523,72.50032c-.08414-.49815-.24545-.89266-.568-1.02743A14.26614,14.26614,0,0,0,131.57778,71c-.412,0-.40047.35136-.221.94577.09468.31349.40613,1.27645,1.18442,1.27645a1.701,1.701,0,0,0,.8909-.23555"/>
                  <path class="q" d="M132.25065,87a7.66764,7.66764,0,0,0-.7265-6.37037s-3.48548.0243-4.84028-.80093a3.03458,3.03458,0,0,1-1.40759-2.30213L129.49,76.037l.7265-1.18519,2.32466-.53122s.59424-.67981.00013-1.09841"/>
                </g>
              </g>
              <line class="q" x1="146.23077" y1="76" x2="170.23077" y2="76"/>
              <line class="q" x1="146.23077" y1="81" x2="160.23077" y2="81"/>
            </g>
            <rect class="aj" x="114.23077" y="98" width="68" height="60.5"/>
            <g>
              <line class="q" x1="126.23077" y1="140.5" x2="150.23077" y2="140.5"/>
              <line class="q" x1="126.23077" y1="145.5" x2="140.23077" y2="145.5"/>
            </g>
          </g>
        </g>
      </g>
    </g>
    <g>
      <path class="r" d="M10.33333,194H311.66667A5.33333,5.33333,0,0,1,317,199.33333v0A10.66666,10.66666,0,0,1,306.33334,210H15.66666A10.66666,10.66666,0,0,1,5,199.33334v0A5.33333,5.33333,0,0,1,10.33333,194Z"/>
      <g class="ak">
        <path class="al" d="M315.27842,208.37115A40.30918,40.30918,0,0,1,305.14286,210H16.85714A90.5889,90.5889,0,0,1,6.7,209.08587"/>
        <path class="t" d="M5,198c0-2.20914,2.66654-4,5.95588-4H311.04412C314.33346,194,317,195.79086,317,198"/>
        <line class="am" x1="129" y1="194" x2="193" y2="194"/>
        <line class="an" x1="129" y1="194" x2="193" y2="194"/>
        <line class="ao" x1="129" y1="194" x2="193" y2="194"/>
      </g>
      <path class="u" d="M10.33333,194H311.66667A5.33333,5.33333,0,0,1,317,199.33333v0A10.66666,10.66666,0,0,1,306.33334,210H15.66666A10.66666,10.66666,0,0,1,5,199.33334v0A5.33333,5.33333,0,0,1,10.33333,194Z"/>
    </g>
  </g>
</svg>
