<svg xmlns="http://www.w3.org/2000/svg" xmlns:xlink="http://www.w3.org/1999/xlink" width="734" height="312.00014" viewBox="0 0 734 312.00014">
  <defs>
    <style>
      .a, .at, .bk {
        fill: #f7f2f5;
      }

      .a, .aw, .ax, .ba, .bb, .bm {
        stroke: #7f6371;
      }

      .a, .ac, .ai, .aj, .ak, .al, .an, .ao, .ap, .av, .aw, .ax, .az, .ba, .bb, .bc, .bd, .be, .bk, .bl, .bm, .bn, .bt, .c, .j, .k, .q, .t, .u, .v, .x, .z {
        stroke-linecap: round;
      }

      .a, .ab, .ac, .ai, .aj, .ak, .al, .an, .ao, .ap, .av, .aw, .ax, .az, .ba, .bb, .bc, .bd, .be, .bk, .bl, .bm, .bn, .bt, .c, .j, .k, .q, .t, .u, .v, .x, .z {
        stroke-linejoin: round;
      }

      .a, .ab, .ac, .ai, .aj, .ak, .al, .an, .ao, .ap, .aw, .ax, .ba, .bb, .bc, .be, .bo, .bp, .bt, .c, .e, .g, .j, .k, .m, .q, .r, .t, .u, .v, .x, .z {
        stroke-width: 2px;
      }

      .ae, .af, .ar, .as, .b, .bo, .v {
        fill: #8e7c69;
      }

      .b, .h {
        opacity: 0.1;
      }

      .ag, .an, .ao, .ap, .av, .aw, .az, .be, .bl, .bm, .bn, .bp, .bt, .c, .g, .j, .k, .m, .n, .q, .t, .x {
        fill: none;
      }

      .ai, .aj, .an, .c, .e, .t, .v {
        stroke: #8e7c69;
      }

      .ap, .as, .c, .f, .i, .j, .v {
        opacity: 0.2;
      }

      .d {
        fill: #ff7e6d;
      }

      .e {
        fill: #fff6db;
      }

      .af, .ag, .bo, .bp, .e, .g, .m, .r {
        stroke-miterlimit: 10;
      }

      .g, .j, .q, .r, .u, .z {
        stroke: #dba758;
      }

      .h, .r, .s {
        fill: #dba758;
      }

      .ac, .bg, .i {
        fill: #bf4e45;
      }

      .av, .bl, .k {
        stroke: #fff;
      }

      .l {
        fill: #ffa69a;
      }

      .ac, .m, .x {
        stroke: #bf4e45;
      }

      .ai, .ax, .o, .u {
        fill: #ffdb6d;
      }

      .p {
        fill: #ffe9a6;
      }

      .w, .y {
        fill: #d85750;
      }

      .ad, .an, .ao, .ar, .w {
        opacity: 0.4;
      }

      .z {
        fill: #fff7e0;
      }

      .aa {
        fill: #ffe698;
      }

      .ab {
        fill: #553143;
        stroke: #553143;
      }

      .af, .ag, .bo, .bp {
        stroke: #726051;
      }

      .ah {
        fill: #ecebec;
      }

      .aj, .bs {
        fill: #fffbee;
      }

      .ak, .bh {
        fill: #27cba4;
      }

      .ak, .al {
        stroke: #189675;
      }

      .al {
        fill: #eafaf6;
      }

      .am {
        fill: #ceb797;
      }

      .ao, .ap {
        stroke: #e5ccae;
      }

      .aq {
        fill: #e5ccae;
      }

      .au {
        clip-path: url(#a);
      }

      .av {
        stroke-width: 8px;
      }

      .ay {
        clip-path: url(#b);
      }

      .az, .bk, .bn {
        stroke: #e5e0e3;
      }

      .az {
        stroke-width: 6px;
      }

      .ba, .bc {
        fill: #fff;
      }

      .bb, .bd {
        fill: #d2c7cc;
      }

      .bc, .bd, .be {
        stroke: #d2c7cc;
      }

      .bf {
        fill: #fff3ce;
      }

      .bi {
        fill: #189675;
      }

      .bj {
        clip-path: url(#c);
      }

      .bk, .bn {
        stroke-width: 12px;
      }

      .bl {
        stroke-width: 22px;
      }

      .bm {
        stroke-width: 16px;
      }

      .bq {
        fill: #ff988b;
      }

      .br {
        fill: #fff0c3;
      }

      .bt {
        stroke: #d85750;
      }
    </style>
    <clipPath id="a">
      <rect class="a" x="203" y="4" width="332" height="240" rx="6" ry="6"/>
    </clipPath>
    <clipPath id="b">
      <path class="a" d="M247,32H491a6,6,0,0,1,6,6V56a0,0,0,0,1,0,0H241a0,0,0,0,1,0,0V38A6,6,0,0,1,247,32Z"/>
    </clipPath>
    <clipPath id="c">
      <path class="a" d="M190.33333,236H547.66667A5.33333,5.33333,0,0,1,553,241.33333v0A10.66666,10.66666,0,0,1,542.33334,252H195.66666A10.66666,10.66666,0,0,1,185,241.33334v0A5.33333,5.33333,0,0,1,190.33333,236Z"/>
    </clipPath>
  </defs>
  <title>introduction-734</title>
  <g>
    <path class="b" d="M711.89155,291.791c-9.29707-4.40356-5.2138-6.203-6.53265-12.845-1.34906-6.794-4.954-6.30047-7.90192-12.93261-2.94752-6.63122-13.774-8.13623-7.56887-14.0134h39.17618A3.96825,3.96825,0,0,1,733,256v31.86771a3.96425,3.96425,0,0,1-3.8596,3.99931C722.99841,291.97728,712.61429,292.1333,711.89155,291.791Z"/>
    <path class="c" d="M732.25272,286.33429"/>
    <g>
      <path class="d" d="M660,12.00014h40a2,2,0,0,1,2,2v14a0,0,0,0,1,0,0H658a0,0,0,0,1,0,0v-14A2,2,0,0,1,660,12.00014Z"/>
      <path class="e" d="M700,252.00014H660a2,2,0,0,1-2-2v-222h44v222A2,2,0,0,1,700,252.00014Z"/>
      <g class="f">
        <line class="g" x1="668" y1="36.00014" x2="668" y2="42.00014"/>
        <line class="g" x1="672.66667" y1="36.00014" x2="672.66667" y2="42.00014"/>
        <line class="g" x1="677.33333" y1="36.00014" x2="677.33333" y2="42.00014"/>
        <line class="g" x1="682" y1="36.00014" x2="682" y2="42.00014"/>
        <line class="g" x1="686.66667" y1="36.00014" x2="686.66667" y2="42.00014"/>
        <line class="g" x1="691.33333" y1="36.00014" x2="691.33333" y2="42.00014"/>
        <line class="g" x1="696" y1="36.00014" x2="696" y2="42.00014"/>
      </g>
      <rect class="h" x="659" y="29.00014" width="42" height="2"/>
      <rect class="i" x="659" y="25.00014" width="42" height="2"/>
      <g>
        <line class="j" x1="666" y1="91.00014" x2="694" y2="91.00014"/>
        <line class="k" x1="666" y1="93.00014" x2="694" y2="93.00014"/>
      </g>
      <g>
        <line class="j" x1="666" y1="141.00014" x2="694" y2="141.00014"/>
        <line class="k" x1="666" y1="143.00014" x2="694" y2="143.00014"/>
      </g>
      <g>
        <line class="j" x1="666" y1="191.00014" x2="694" y2="191.00014"/>
        <line class="k" x1="666" y1="193.00014" x2="694" y2="193.00014"/>
      </g>
      <path class="l" d="M700,12.00014H660a2,2,0,0,0-2,2v3a2,2,0,0,1,2-2h40a2,2,0,0,1,2,2v-3A2,2,0,0,0,700,12.00014Z"/>
      <path class="m" d="M660,12.00014h40a2,2,0,0,1,2,2v14a0,0,0,0,1,0,0H658a0,0,0,0,1,0,0v-14A2,2,0,0,1,660,12.00014Z"/>
      <g>
        <rect class="n" x="668" y="55.00014" width="24" height="24"/>
        <polygon class="o" points="669 78 684 76 689 64 683 58 671 63 669 78"/>
        <polygon class="p" points="684.154 60.769 672.154 65.769 673.974 63.397 672.24 76.397 669.267 76 671 63 671 63 683 58 684.154 60.769"/>
        <line class="q" x1="677" y1="70.00014" x2="669" y2="78.00014"/>
        <circle class="r" cx="677" cy="70.00014" r="1"/>
        <g class="f">
          <polygon class="s" points="668.604 75.027 683.604 73.027 681.231 74.846 686.231 62.846 689 64 684 76 684 76 669 78 668.604 75.027"/>
        </g>
        <polygon class="q" points="669 78 684 76 689 64 683 58 671 63 669 78"/>
        <rect class="s" x="678.33363" y="60.41651" width="13.5" height="3" transform="translate(244.43793 -466.29236) rotate(45)"/>
        <rect class="t" x="678.33363" y="60.41651" width="13.5" height="3" transform="translate(244.43793 -466.29236) rotate(45)"/>
      </g>
      <g>
        <rect class="n" x="668" y="205.00014" width="24" height="24"/>
        <path class="u" d="M689,212.00014H677a2,2,0,0,0-2,2v12a2,2,0,0,0,2,2h12a2,2,0,0,0,2-2v-12A2,2,0,0,0,689,212.00014Zm-2,12h-8v-8h8Z"/>
        <rect class="v" x="669" y="208.00014" width="16" height="16" rx="2" ry="2"/>
        <rect class="d" x="669" y="206.00014" width="16" height="16" rx="2.18182" ry="2.18182"/>
        <path class="l" d="M682.81818,206.00014H671.18182A2.18179,2.18179,0,0,0,669,208.182v3a2.18179,2.18179,0,0,1,2.18182-2.18182h11.63635A2.18179,2.18179,0,0,1,685,211.182v-3A2.18179,2.18179,0,0,0,682.81818,206.00014Z"/>
        <path class="w" d="M682.81818,219.00014H671.18182A2.18183,2.18183,0,0,1,669,216.81831v3a2.18183,2.18183,0,0,0,2.18182,2.18182h11.63635A2.18183,2.18183,0,0,0,685,219.81831v-3A2.18183,2.18183,0,0,1,682.81818,219.00014Z"/>
        <rect class="x" x="669" y="206.00014" width="16" height="16" rx="2" ry="2"/>
      </g>
      <g>
        <rect class="n" x="668" y="105.00014" width="24" height="24"/>
        <polygon class="d" points="668.75 105.75 677.016 128.25 680.75 117.75 691.25 112.955 668.75 105.75"/>
        <rect class="l" x="677.70792" y="99.99874" width="2.99994" height="21.35058" transform="translate(366.66979 723.77437) rotate(-72.2438)"/>
        <polygon class="x" points="668.75 105.75 677.016 128.25 680.75 117.75 691.25 112.955 668.75 105.75"/>
        <g class="f">
          <path class="y" d="M674.92358,125.17995l2.99976-8.43494a3.00788,3.00788,0,0,1,2.82666-1.99487h.75a1.5,1.5,0,0,1,0,3h-.75v.00012l-3,8.43494a1.49993,1.49993,0,1,1-2.82642-1.00525Z"/>
        </g>
      </g>
      <g>
        <rect class="n" x="668" y="155.00014" width="24" height="24"/>
        <polygon class="z" points="688.5 170.5 691 178 683.5 175.5 688.5 170.5"/>
        <rect class="o" x="677.21446" y="160.32554" width="7.07104" height="14.84924" transform="translate(80.7697 530.49568) rotate(-44.99999)"/>
        <rect class="aa" x="680.68932" y="158.88619" width="3.00002" height="14.84924" transform="translate(82.20913 531.09201) rotate(-45)"/>
        <rect class="q" x="677.21446" y="160.32554" width="7.07104" height="14.84924" transform="translate(80.7697 530.49568) rotate(-44.99999)"/>
        <rect class="x" x="669.96446" y="157.67173" width="7.07104" height="5.65685" transform="translate(83.77281 523.24579) rotate(-45)"/>
        <g class="f">
          <rect class="s" x="677.81066" y="161.76485" width="3.00002" height="14.84924" transform="translate(79.33047 529.89963) rotate(-45)"/>
        </g>
        <rect class="d" x="669.96446" y="157.67173" width="7.07104" height="5.65685" transform="translate(83.77281 523.24579) rotate(-45)"/>
        <rect class="l" x="673.43932" y="156.23238" width="3.00002" height="5.65685" transform="translate(85.21218 523.84201) rotate(-45)"/>
        <rect class="x" x="669.96446" y="157.67173" width="7.07104" height="5.65685" transform="translate(83.77281 523.24579) rotate(-45)"/>
        <g class="f">
          <rect class="y" x="670.56066" y="159.11104" width="3.00002" height="5.65685" transform="translate(82.33352 522.64963) rotate(-45)"/>
        </g>
        <polygon class="ab" points="690.334 176.001 691 178 689.001 177.334 690.334 176.001"/>
      </g>
    </g>
    <polygon class="ac" points="673.231 20 670.288 18.5 670.288 21.5 673.231 20"/>
    <polygon class="ac" points="667.346 20 664.404 18.5 664.404 21.5 667.346 20"/>
    <path class="b" d="M624,185.00014v66h46v-60a6,6,0,0,0-6-6Z"/>
    <g class="ad">
      <path class="ae" d="M17.58622,277.94035c-5.10373.74884-6.5194-.25882-8.4719-5.03339-1.55147-3.7939-.918-7.3567,3.13741-7.95174,5.52615-.81082,7.85433.44549,11.35671,4.79626C26.394,273.2118,21.86633,277.31235,17.58622,277.94035Z"/>
    </g>
    <circle class="af" cx="14.98686" cy="272.31699" r="4"/>
    <line class="ag" x1="10.98686" y1="272.31699" x2="18.98686" y2="272.31699"/>
    <g class="ad">
      <path class="ae" d="M725.38,273.45559c-2.46821,5.07829-5.52687,8.70534-11.06106,7.58561-4.28634-.86725-4.97973-6.54774-3.06805-10.481,2.46821-5.07829,4.15572-6.19757,9.79315-6.51451C725.962,263.76923,727.2917,269.52235,725.38,273.45559Z"/>
    </g>
    <circle class="af" cx="717.98686" cy="272.53759" r="4"/>
    <line class="ag" x1="714.61914" y1="273" x2="722.61914" y2="273"/>
    <g>
      <path class="ah" d="M11,264H723a0,0,0,0,1,0,0v40.00014a8,8,0,0,1-8,8H19a8,8,0,0,1-8-8V264A0,0,0,0,1,11,264Z"/>
      <g>
        <rect class="ai" x="14" y="233" width="160" height="20" rx="2" ry="2"/>
        <rect class="aj" x="78" y="233" width="60" height="20"/>
        <rect class="aj" x="63" y="233" width="7.94231" height="20"/>
      </g>
      <g>
        <rect class="ak" x="44" y="217" width="112" height="16" rx="2" ry="2"/>
        <rect class="al" x="90" y="217" width="48" height="16"/>
      </g>
      <rect class="am" x="1" y="252" width="732" height="40" rx="4" ry="4"/>
      <line class="c" x1="2" y1="261.00014" x2="221.01901" y2="254.42855"/>
      <line class="c" x1="2" y1="281.00014" x2="168.04864" y2="277.38096"/>
      <line class="c" x1="2" y1="290.00014" x2="223.01901" y2="278.42855"/>
      <line class="c" x1="505.01901" y1="269.35444" x2="732" y2="258.00014"/>
      <line class="an" x1="244.00249" y1="257.02631" x2="447.00223" y2="264.4263"/>
      <line class="ao" x1="169.54346" y1="286.68277" x2="249.54346" y2="290.68277"/>
      <line class="c" x1="548.01901" y1="278.35444" x2="732" y2="282.35444"/>
      <line class="c" x1="195.5479" y1="283.26299" x2="275.5479" y2="287.26299"/>
      <line class="c" x1="304.01901" y1="288.68277" x2="354.01901" y2="281.68277"/>
      <line class="c" x1="80.98907" y1="264.98861" x2="184.06521" y2="269.60399"/>
      <path class="b" d="M22.46953,291.791c9.44891-4.40356,5.29895-6.203,6.63935-12.845,1.37109-6.794,5.0349-6.30047,8.031-12.93261,2.99566-6.63122,10.76527-8.13623,4.45878-14.0134H5a4,4,0,0,0-4,4v31.86771A3.99445,3.99445,0,0,0,4.92263,291.867C11.16493,291.97728,21.735,292.1333,22.46953,291.791Z"/>
      <line class="ap" x1="78.50862" y1="288.59591" x2="168.50862" y2="286.59591"/>
      <line class="ao" x1="1" y1="264.00014" x2="223.49152" y2="259.667"/>
      <line class="ao" x1="156.0078" y1="265.30946" x2="378.47708" y2="261.60164"/>
      <line class="ao" x1="397.00008" y1="270.05265" x2="393.46936" y2="266.34483"/>
      <line class="ao" x1="383.00661" y1="288.1882" x2="379.47589" y2="282.48038"/>
      <path class="ao" d="M575.42509,254.244"/>
      <path class="ao" d="M389.98718,259.00169"/>
      <line class="ao" x1="505.28437" y1="290.06226" x2="732" y2="284.35444"/>
      <line class="ao" x1="494.2654" y1="272.00703" x2="732" y2="266.00014"/>
      <line class="ap" x1="2" y1="277.00014" x2="158.05457" y2="275.66846"/>
      <path class="aq" d="M1,256H1a3.99581,3.99581,0,0,1,4-3.99581L729.00514,253A3.99743,3.99743,0,0,1,733,257Z"/>
      <path class="aq" d="M78.35234,254.22727c.92058.285,2.0689.61069,3.46268.98075,32.1801,8.54418,38.21161,4.63083,76.04114,5.88887,29.92079.995,30.46026-1.41125,60.46677-1.16123s-69.99265.23171-39.98614.48173c30.00238.25,30.165-3.27368,60.16735-3.02369,28.96449.24134,29.21033,3.46148,55.18153.56831l-9.41331-3.5973Z"/>
      <path class="t" d="M5,252H729a4,4,0,0,1,4,4v32a4,4,0,0,1-4,4H5.0032A4.0032,4.0032,0,0,1,1,287.9968V256A4,4,0,0,1,5,252Z"/>
      <line class="an" x1="81.99758" y1="291.67503" x2="161.66424" y2="289.3417"/>
      <line class="c" x1="138.06981" y1="281.23554" x2="306.06981" y2="277.23554"/>
      <line class="ao" x1="307.56463" y1="286.68277" x2="357.56463" y2="290.68277"/>
      <line class="c" x1="333.56907" y1="282.33429" x2="383.56907" y2="286.33429"/>
      <line class="ap" x1="216.52979" y1="288.59591" x2="306.52979" y2="286.59591"/>
      <line class="ao" x1="139.0434" y1="263.2294" x2="361.51268" y2="259.52158"/>
      <line class="ap" x1="138.9998" y1="276.66457" x2="296.07574" y2="275.52304"/>
      <line class="an" x1="220.01874" y1="291.67503" x2="299.68541" y2="289.3417"/>
      <line class="ao" x1="447.58353" y1="285.75408" x2="531.58353" y2="289.75408"/>
      <line class="ap" x1="356.54869" y1="287.66721" x2="446.54869" y2="285.66721"/>
      <line class="ao" x1="409.06231" y1="262.30071" x2="405.53159" y2="258.59288"/>
      <line class="c" x1="445.14639" y1="260.35444" x2="688.65391" y2="253.35444"/>
      <line class="ao" x1="573.74601" y1="285.75408" x2="713.526" y2="289.75408"/>
      <line class="ao" x1="393.74601" y1="271.75408" x2="533.526" y2="275.75408"/>
      <path class="c" d="M593.47273,282.33429"/>
      <line class="ap" x1="504.68786" y1="287.66721" x2="572.961" y2="285.66721"/>
      <line class="ao" x1="445.90743" y1="262.30071" x2="614.67049" y2="258.59288"/>
      <line class="ap" x1="445.87435" y1="275.73588" x2="565.03065" y2="274.59435"/>
      <path class="b" d="M165.02295,253.28314l34.18349,5.568c24.99265,2.06387,35.20564,1.15742,72.90226,1.45019"/>
      <path class="ar" d="M164.70436,286.185c102.72216-2.0251-38.4608-1.13568,116.47589-1.423,158.48414-.29385,146.97146-1.07908,301.67954-1.72121,154.68681-.642-31.95726,6.60823,105.13978,7.95985H47.6839S153.73362,286.40129,164.70436,286.185Z"/>
      <line class="c" x1="287.05908" y1="279.35444" x2="510.05908" y2="268.35444"/>
      <line class="c" x1="419.58797" y1="280.33429" x2="599.58797" y2="284.33429"/>
      <path class="as" d="M115.96586,270.8078c73.98462-2.06387,12.08542-1.15742,123.677-1.45019,114.14663-.29948,417.35528-11.05924,452.60035,6.35808,30.60633,15.125-94.83356,1.977-138.07689,0-188.03676-8.5966-521.82485,14.58268-522.48332,0C30.65012,252.84019,108.06429,271.02822,115.96586,270.8078Z"/>
      <g>
        <rect class="at" x="203" y="4" width="332" height="240" rx="6" ry="6"/>
        <g class="au">
          <path class="av" d="M203,10a5.95368,5.95368,0,0,1,5.90625-6h320.1875A5.95368,5.95368,0,0,1,535,10"/>
        </g>
        <rect class="aw" x="203" y="4" width="332" height="240" rx="6" ry="6"/>
      </g>
      <rect class="ax" x="215" y="16" width="308" height="208"/>
      <g>
        <path class="at" d="M247,32H491a6,6,0,0,1,6,6V56a0,0,0,0,1,0,0H241a0,0,0,0,1,0,0V38A6,6,0,0,1,247,32Z"/>
        <g class="ay">
          <path class="av" d="M241,38a5.93972,5.93972,0,0,1,5.87755-6h244.2449A5.93972,5.93972,0,0,1,497,38"/>
          <line class="az" x1="497" y1="56" x2="241" y2="56"/>
        </g>
        <path class="aw" d="M247,32H491a6,6,0,0,1,6,6V56a0,0,0,0,1,0,0H241a0,0,0,0,1,0,0V38A6,6,0,0,1,247,32Z"/>
      </g>
      <rect class="ba" x="265.23077" y="56" width="184" height="148"/>
      <path class="a" d="M241,56h24a0,0,0,0,1,0,0V204a0,0,0,0,1,0,0H247a6,6,0,0,1-6-6V56A0,0,0,0,1,241,56Z"/>
      <path class="a" d="M449,56h48a0,0,0,0,1,0,0V198a6,6,0,0,1-6,6H449a0,0,0,0,1,0,0V56A0,0,0,0,1,449,56Z"/>
      <line class="aw" x1="241.75" y1="80" x2="264.30769" y2="80"/>
      <line class="aw" x1="241.75" y1="106" x2="264.30769" y2="106"/>
      <line class="aw" x1="241.75" y1="131" x2="264.30769" y2="131"/>
      <line class="aw" x1="241.75" y1="155" x2="264.30769" y2="155"/>
      <line class="aw" x1="242" y1="178.00014" x2="264" y2="178.00014"/>
      <g>
        <rect class="bb" x="449" y="56" width="48" height="8"/>
        <line class="aw" x1="454" y1="60" x2="470" y2="60"/>
      </g>
      <g>
        <rect class="bb" x="449" y="104" width="48" height="8"/>
        <line class="aw" x1="454" y1="108" x2="470" y2="108"/>
      </g>
      <g>
        <rect class="bb" x="449" y="168" width="48" height="8"/>
        <line class="aw" x1="454" y1="172" x2="470" y2="172"/>
      </g>
      <rect class="bc" x="457" y="120" width="16" height="8"/>
      <rect class="bc" x="473" y="120" width="16" height="8"/>
      <rect class="bc" x="457" y="136" width="16" height="8"/>
      <rect class="bc" x="473" y="136" width="16" height="8"/>
      <rect class="bc" x="457" y="152" width="16" height="8"/>
      <rect class="bc" x="473" y="152" width="16" height="8"/>
      <g>
        <rect class="bc" x="457" y="72" width="32" height="8"/>
        <line class="bc" x1="481" y1="72" x2="481" y2="80"/>
        <polygon class="bd" points="486.195 75.293 484.808 76.707 483.421 75.293 486.195 75.293"/>
      </g>
      <g>
        <rect class="bc" x="457" y="88" width="32" height="8"/>
        <line class="bc" x1="481" y1="88" x2="481" y2="96"/>
        <polygon class="bd" points="486.195 91.293 484.808 92.707 483.421 91.293 486.195 91.293"/>
      </g>
      <g>
        <rect class="bc" x="457" y="184" width="32" height="8"/>
        <line class="bc" x1="481" y1="184" x2="481" y2="192"/>
        <polygon class="bd" points="486.195 187.293 484.808 188.707 483.421 187.293 486.195 187.293"/>
      </g>
      <g>
        <line class="t" x1="352.23077" y1="94" x2="366.23077" y2="94"/>
        <rect class="bc" x="313" y="114" width="88" height="76"/>
        <g>
          <line class="be" x1="325" y1="173" x2="349" y2="173"/>
          <line class="be" x1="325" y1="178" x2="339" y2="178"/>
        </g>
        <rect class="u" x="313" y="68" width="88" height="46.00014"/>
        <g>
          <path class="bf" d="M346.9686,94.81482c-2.59128-.87659-3.778-2.54321-3.778-7.25928,0-2.279-1.59806-2.22223-1.59806-2.22223l-.00431.00128a1.11488,1.11488,0,0,0-.53109-.86176A14.26664,14.26664,0,0,0,337.57754,84c-.41185,0-.40035.35132-.22077.94574.09482.31348.4061,1.27649,1.1843,1.27649.5943.41858,0,1.09839,0,1.09839l-2.32454.53119-.72648,1.18524-4.21376,1.4895a3.03422,3.03422,0,0,0,1.40746,2.30212c1.35478.82526,4.84015.801,4.84015.801a7.667,7.667,0,0,1,.727,6.37036A14.19874,14.19874,0,0,1,346.9686,94.81482Z"/>
          <g>
            <path class="t" d="M346.9686,94.81481c-2.59117-.87654-3.77778-2.54321-3.77778-7.25926,0-2.279-1.59829-2.22222-1.59829-2.22222"/>
            <path class="t" d="M339.43215,85.98667a1.77434,1.77434,0,0,0,.5225-.48652"/>
            <path class="t" d="M341.62523,85.50032c-.08414-.49815-.24545-.89266-.568-1.02743A14.26614,14.26614,0,0,0,337.57778,84c-.412,0-.40047.35136-.221.94577.09468.31349.40613,1.27645,1.18442,1.27645a1.701,1.701,0,0,0,.8909-.23555"/>
            <path class="t" d="M338.25065,100a7.66764,7.66764,0,0,0-.7265-6.37037s-3.48548.0243-4.84028-.80093a3.03458,3.03458,0,0,1-1.40759-2.30213L335.49,89.037l.7265-1.18519,2.32466-.53122s.59424-.67981.00013-1.09841"/>
          </g>
        </g>
        <line class="t" x1="352" y1="89" x2="376" y2="89"/>
        <line class="t" x1="352" y1="94" x2="366" y2="94"/>
      </g>
      <g>
        <g>
          <circle class="d" cx="253" cy="44" r="4"/>
          <path class="bg" d="M253,49.00014a5,5,0,1,1,5-5A5.00589,5.00589,0,0,1,253,49.00014Zm0-8a3,3,0,1,0,3,3A3.00328,3.00328,0,0,0,253,41.00014Z"/>
        </g>
        <g>
          <circle class="o" cx="266" cy="44" r="4"/>
          <path class="ae" d="M266,49.00014a5,5,0,1,1,5-5A5.00589,5.00589,0,0,1,266,49.00014Zm0-8a3,3,0,1,0,3,3A3.00328,3.00328,0,0,0,266,41.00014Z"/>
        </g>
        <g>
          <circle class="bh" cx="279" cy="44" r="4"/>
          <path class="bi" d="M279,49.00014a5,5,0,1,1,5-5A5.00589,5.00589,0,0,1,279,49.00014Zm0-8a3,3,0,1,0,3,3A3.00328,3.00328,0,0,0,279,41.00014Z"/>
        </g>
      </g>
      <g>
        <path class="at" d="M190.33333,236H547.66667A5.33333,5.33333,0,0,1,553,241.33333v0A10.66666,10.66666,0,0,1,542.33334,252H195.66666A10.66666,10.66666,0,0,1,185,241.33334v0A5.33333,5.33333,0,0,1,190.33333,236Z"/>
        <g class="bj">
          <path class="bk" d="M551.27842,250.37115A40.30918,40.30918,0,0,1,541.14286,252H196.85714A90.5889,90.5889,0,0,1,186.7,251.08587"/>
          <path class="av" d="M185,240c0-2.20914,2.66654-4,5.95588-4H547.04412C550.33346,236,553,237.79086,553,240"/>
          <line class="bl" x1="339" y1="236" x2="403" y2="236"/>
          <line class="bm" x1="339" y1="236" x2="403" y2="236"/>
          <line class="bn" x1="339" y1="236" x2="403" y2="236"/>
        </g>
        <path class="aw" d="M190.33333,236H547.66667A5.33333,5.33333,0,0,1,553,241.33333v0A10.66666,10.66666,0,0,1,542.33334,252H195.66666A10.66666,10.66666,0,0,1,185,241.33334v0A5.33333,5.33333,0,0,1,190.33333,236Z"/>
      </g>
      <g>
        <g class="ad">
          <path class="ae" d="M28.92,276.72119c-5.42329,1.33557-8.7316,2.35547-11.38106-2.56146-2.05206-3.80826.78-7.61721,4.98042-8.65164,5.42329-1.33557,5.32876,1.49188,9.35124,5.36687C34.8957,273.7891,33.12048,275.68676,28.92,276.72119Z"/>
        </g>
        <circle class="bo" cx="25.84658" cy="272.00014" r="4"/>
        <line class="bp" x1="21.84658" y1="272.00014" x2="29.84658" y2="272.00014"/>
      </g>
      <g>
        <g class="ad">
          <path class="ae" d="M713.96156,273.49544c-2.852,4.87312-4.93423,8.55945-10.36575,7.01685-4.20682-1.19477-5.98453-7.37962-3.77562-11.154,2.852-4.87313,5.99858-4.03521,11.64359-4.15715C715.84036,265.10665,716.17046,269.72111,713.96156,273.49544Z"/>
        </g>
        <circle class="bo" cx="707.857" cy="272.68301" r="4"/>
        <line class="bp" x1="704" y1="273.00014" x2="712" y2="273.00014"/>
      </g>
      <g>
        <rect class="d" x="592" y="180.00014" width="72" height="72" rx="4" ry="4"/>
        <path class="bq" d="M660,180.00014H596a4.01174,4.01174,0,0,0-4,4v4a4.01174,4.01174,0,0,1,4-4h64a4.01174,4.01174,0,0,1,4,4v-4A4.01174,4.01174,0,0,0,660,180.00014Z"/>
        <path class="i" d="M660,252.00014H596a4.01174,4.01174,0,0,1-4-4v-4a4.01174,4.01174,0,0,0,4,4h64a4.01174,4.01174,0,0,0,4-4v4A4.01174,4.01174,0,0,1,660,252.00014Z"/>
        <path class="br" d="M626.809,226.84569H617.0544l-1.5401,4.92014H607l11.03834-30.37643H625.825l10.99526,30.37643h-8.47121Zm-2.09626-6.80273-2.73815-8.77062h-.08573l-2.73815,8.77062Z"/>
        <path class="br" d="M638.22938,204.29859a4.14994,4.14994,0,0,1,4.40663-4.06415,4.11479,4.11479,0,1,1,0,8.21446A4.16552,4.16552,0,0,1,638.22938,204.29859Zm.55616,6.50333h7.6583v20.96392h-7.6583Z"/>
        <rect class="bs" x="618.03833" y="201.38942" width="7.78662" height="3"/>
        <path class="bs" d="M638.22949,204.2986a3.917,3.917,0,0,1,1.32568-2.95459,4.83135,4.83135,0,0,1,6.14526-.01233A3.92449,3.92449,0,0,1,647,204.2986h-3a.90767.90767,0,0,0-.30029-.73157,1.60727,1.60727,0,0,0-1.06787-.33215,1.64193,1.64193,0,0,0-1.08447.35217.90032.90032,0,0,0-.31787.71155Z"/>
        <rect class="bs" x="638.78564" y="210.8019" width="7.6582" height="3"/>
        <path class="bs" d="M619.15063,220.043h5.562a1.5,1.5,0,0,1,0,3h-5.562a1.5,1.5,0,0,1,0-3Z"/>
        <path class="bt" d="M626.809,226.84569H617.0544l-1.5401,4.92014H607l11.03834-30.37643H625.825l10.99526,30.37643h-8.47121Zm-2.09626-6.80273-2.73815-8.77062h-.08573l-2.73815,8.77062Z"/>
        <path class="bt" d="M638.22938,204.29859a4.14994,4.14994,0,0,1,4.40663-4.06415,4.11479,4.11479,0,1,1,0,8.21446A4.16552,4.16552,0,0,1,638.22938,204.29859Zm.55616,6.50333h7.6583v20.96392h-7.6583Z"/>
        <rect class="bt" x="592" y="180.00014" width="72" height="72" rx="4" ry="4"/>
      </g>
    </g>
  </g>
</svg>
