<svg xmlns="http://www.w3.org/2000/svg" xmlns:xlink="http://www.w3.org/1999/xlink" width="394" height="296" viewBox="0 0 394 296">
  <defs>
    <style>
      .a, .al, .r {
        fill: #f7f2f5;
      }

      .a, .an, .u, .v, .y, .z {
        stroke: #7f6371;
      }

      .a, .aa, .ab, .ac, .ae, .al, .am, .an, .ao, .d, .e, .f, .h, .q, .t, .u, .v, .x, .y, .z {
        stroke-linecap: round;
        stroke-linejoin: round;
      }

      .a, .aa, .ac, .ae, .d, .e, .f, .h, .o, .p, .q, .u, .v, .y, .z {
        stroke-width: 2px;
      }

      .b {
        fill: #ecebec;
      }

      .c {
        fill: #ceb797;
      }

      .ae, .am, .an, .ao, .d, .e, .f, .h, .p, .q, .t, .u, .x {
        fill: none;
      }

      .d, .e, .q {
        stroke: #8e7c69;
      }

      .d, .h, .j, .m {
        opacity: 0.2;
      }

      .e, .f, .l, .n {
        opacity: 0.4;
      }

      .f, .h {
        stroke: #e5ccae;
      }

      .g, .k, .l, .m, .o {
        fill: #8e7c69;
      }

      .g {
        opacity: 0.1;
      }

      .i {
        fill: #e5ccae;
      }

      .o, .p {
        stroke: #726051;
        stroke-miterlimit: 10;
      }

      .s {
        clip-path: url(#a);
      }

      .am, .t {
        stroke: #fff;
      }

      .t {
        stroke-width: 8px;
      }

      .ac, .ah, .v {
        fill: #ffdb6d;
      }

      .w {
        clip-path: url(#b);
      }

      .al, .ao, .x {
        stroke: #e5e0e3;
      }

      .x {
        stroke-width: 6px;
      }

      .aa, .y {
        fill: #fff;
      }

      .ab, .z {
        fill: #d2c7cc;
      }

      .aa, .ab, .ae {
        stroke: #d2c7cc;
      }

      .ac {
        stroke: #dba758;
      }

      .ad {
        fill: #fff3ce;
      }

      .af {
        fill: #ff7e6d;
      }

      .ag {
        fill: #bf4e45;
      }

      .ai {
        fill: #27cba4;
      }

      .aj {
        fill: #189675;
      }

      .ak {
        clip-path: url(#c);
      }

      .al, .ao {
        stroke-width: 12px;
      }

      .am {
        stroke-width: 22px;
      }

      .an {
        stroke-width: 16px;
      }
    </style>
    <clipPath id="a">
      <rect class="a" x="31" y="4" width="332" height="240" rx="6" ry="6"/>
    </clipPath>
    <clipPath id="b">
      <path class="a" d="M75,32H319a6,6,0,0,1,6,6V56a0,0,0,0,1,0,0H69a0,0,0,0,1,0,0V38A6,6,0,0,1,75,32Z"/>
    </clipPath>
    <clipPath id="c">
      <path class="a" d="M18.33333,236H375.66667A5.33333,5.33333,0,0,1,381,241.33333v0A10.66666,10.66666,0,0,1,370.33334,252H23.66666A10.66666,10.66666,0,0,1,13,241.33334v0A5.33333,5.33333,0,0,1,18.33333,236Z"/>
    </clipPath>
  </defs>
  <title>introduction-394</title>
  <g>
    <rect class="b" x="10" y="268" width="376" height="28" rx="8" ry="8"/>
    <g>
      <path class="c" d="M392.89782,280.0252q.00686-.11968.00514-.23962c-.0971-6.37752-.19713-12.755-.07356-19.13245.02909-1.49977.0441-3.0357.064-4.59425A4.00309,4.00309,0,0,0,388.8944,252H5a4,4,0,0,0-4,4v24a4,4,0,0,0,4,4H388.89646a4.01234,4.01234,0,0,0,3.99266-3.81994Z"/>
      <line class="d" x1="3.10213" y1="259.4902" x2="221.5814" y2="253.94284"/>
      <line class="d" x1="2.73083" y1="275.4728" x2="168.47624" y2="272.30477"/>
      <line class="d" x1="3.65047" y1="281.83926" x2="223.58649" y2="273.14284"/>
      <path class="e" d="M244.62337,256.021c50.12473.779,97.18943,1.27839,147.37409,2.379"/>
      <line class="f" x1="169.97487" y1="279.74622" x2="250.17843" y2="282.94622"/>
      <line class="d" x1="196.04548" y1="277.01039" x2="276.24904" y2="280.21039"/>
      <path class="d" d="M304.7926,281.34622C334.84987,280,361.57907,279.16931,391.99746,278.4"/>
      <line class="d" x1="81.19515" y1="262.39089" x2="184.53357" y2="266.08319"/>
      <path class="g" d="M22.46953,283.83278c9.44891-3.52285,5.29895-4.96243,6.63935-10.276,1.37109-5.43521,5.0349-5.04038,8.031-10.34609,2.99566-5.305,10.76527-6.509,4.45878-11.21072H5c-2.20914,0-4,1.43269-4,3.2v25.49417c0,1.74512,1.74157,3.16863,3.92263,3.19945C11.16493,283.98182,21.735,284.10664,22.46953,283.83278Z"/>
      <path class="g" d="M371.53047,283.83278c-9.44891-3.52285-5.29895-4.96243-6.63935-10.276-1.37109-5.43521-5.0349-5.04038-8.031-10.34609-2.99566-5.305-10.76527-6.509-4.45878-11.21072H389c2.20914,0,4,1.43269,4,3.2v25.49417c0,1.74512-1.74157,3.16863-3.92263,3.19945C382.83507,283.98182,372.265,284.10664,371.53047,283.83278Z"/>
      <line class="h" x1="78.70839" y1="281.27673" x2="168.9374" y2="279.67673"/>
      <line class="f" x1="2.02484" y1="261.09985" x2="224.0602" y2="258.1336"/>
      <line class="f" x1="156.40476" y1="262.64757" x2="379.44012" y2="259.68131"/>
      <line class="h" x1="1.98112" y1="271.84799" x2="158.45674" y2="270.93477"/>
      <path class="i" d="M392.89983,255.50186a3.11659,3.11659,0,0,0-3.10749-3.16953l-384.78216-.329C2.79606,252.00146,1,253.4332,1,255.2l391.8994.33359Z"/>
      <path class="i" d="M78.55171,253.78181c.92293.228,2.07416.48855,3.47149.7846,32.262,6.83534,38.30885,3.70467,76.23463,4.7111,29.99693.796,30.53777-1.129,60.62063-.929s-70.17075.18537-40.08789.38539c30.07872.2,30.24173-2.61894,60.32045-2.419,29.03819.19307,29.28466,2.76918,55.32194.45465l-9.43727-2.87784Z"/>
      <line class="e" x1="82.20622" y1="283.74003" x2="162.0756" y2="281.87336"/>
      <line class="d" x1="138.42113" y1="275.38843" x2="306.84861" y2="272.18843"/>
      <line class="d" x1="138.39142" y1="281.82651" x2="361.95885" y2="273.02651"/>
      <path class="f" d="M308.34724,279.74622c29.21533.17027,53.44262.41459,82.64767,1.05378"/>
      <path class="d" d="M334.41785,276.26743c20.66141.79636,36.89984.3557,57.57961.53257"/>
      <path class="d" d="M219.56751,262.39089c59.13987.80911,112.90413,2.41159,172.42994,3.20911"/>
      <line class="h" x1="217.08076" y1="281.27673" x2="307.30977" y2="279.67673"/>
      <line class="f" x1="139.3972" y1="260.98352" x2="362.43256" y2="258.01726"/>
      <line class="h" x1="139.35349" y1="271.73166" x2="296.82911" y2="270.81843"/>
      <line class="e" x1="220.57859" y1="283.74003" x2="300.44797" y2="281.87336"/>
      <g class="j">
        <path class="k" d="M165.44285,253.02651l34.27047,4.45436c25.05624,1.6511,35.29522.92593,73.08776,1.16015"/>
      </g>
      <path class="l" d="M393,277.2772s-33.54385-.5564-51.92-.44507c-84.77939.51367-78.47053,1.14185-165.31925,1.377-84.9047.22983-7.537-.48174-63.82826,1.13833-6.01209.173-64.12687,3.85259-64.12687,3.85259H393Z"/>
      <path class="m" d="M369,267.67641c-.00111-1.792-1.85037-3.23543-4.09586-3.21442-28.61209.26773-47.13579.49985-111.57206.62414-121.42929.23423-54.07315-.491-134.58022,1.16016-8.598.17632-92.83695-14.37412-91.713,3.92632.40845,6.65077,156.63746,3.48333,337.988.80494,2.20843-.03262,3.97457-1.47362,3.97322-3.23618Z"/>
      <g>
        <g>
          <g class="n">
            <path class="k" d="M19.789,275.38243c-5.53419.754-6.70006-1.6576-8.81417-6.82736-1.63742-4.00407-1.05671-7.402,3.22963-7.986,5.53419-.754,4.61362,3.34662,7.90966,7.85572C25.09814,272.50713,24.07531,274.79844,19.789,275.38243Z"/>
          </g>
          <circle class="o" cx="16.98686" cy="268.31699" r="4"/>
          <line class="p" x1="12.98686" y1="268.31699" x2="20.98686" y2="268.31699"/>
        </g>
        <g>
          <g class="n">
            <path class="k" d="M386.87507,270.32765c-2.46821,5.07829-6.63323,6.05761-12.16742,4.93788a6.33409,6.33409,0,0,1-4.61369-9.12219c2.46821-5.07829,5.36345-6.24706,11.00947-6.30714C386.74555,259.77615,388.78675,266.39442,386.87507,270.32765Z"/>
          </g>
          <circle class="o" cx="377.98686" cy="268.68301" r="4"/>
          <line class="p" x1="374" y1="268.64542" x2="382" y2="268.64542"/>
        </g>
      </g>
      <rect class="q" x="1" y="252" width="392" height="32" rx="4" ry="4"/>
    </g>
    <g>
      <rect class="r" x="31" y="4" width="332" height="240" rx="6" ry="6"/>
      <g class="s">
        <path class="t" d="M31,10a5.95368,5.95368,0,0,1,5.90625-6h320.1875A5.95368,5.95368,0,0,1,363,10"/>
      </g>
      <rect class="u" x="31" y="4" width="332" height="240" rx="6" ry="6"/>
    </g>
    <rect class="v" x="43" y="16" width="308" height="208"/>
    <g>
      <path class="r" d="M75,32H319a6,6,0,0,1,6,6V56a0,0,0,0,1,0,0H69a0,0,0,0,1,0,0V38A6,6,0,0,1,75,32Z"/>
      <g class="w">
        <path class="t" d="M69,38a5.93972,5.93972,0,0,1,5.87755-6h244.2449A5.93972,5.93972,0,0,1,325,38"/>
        <line class="x" x1="325" y1="56" x2="69" y2="56"/>
      </g>
      <path class="u" d="M75,32H319a6,6,0,0,1,6,6V56a0,0,0,0,1,0,0H69a0,0,0,0,1,0,0V38A6,6,0,0,1,75,32Z"/>
    </g>
    <rect class="y" x="93" y="56" width="184" height="148"/>
    <path class="a" d="M69,56H93a0,0,0,0,1,0,0V204a0,0,0,0,1,0,0H75a6,6,0,0,1-6-6V56A0,0,0,0,1,69,56Z"/>
    <path class="a" d="M277,56h48a0,0,0,0,1,0,0V198a6,6,0,0,1-6,6H277a0,0,0,0,1,0,0V56A0,0,0,0,1,277,56Z"/>
    <line class="u" x1="69.75" y1="82" x2="92.30769" y2="82"/>
    <line class="u" x1="69.75" y1="106" x2="92.30769" y2="106"/>
    <line class="u" x1="69.75" y1="131" x2="92.30769" y2="131"/>
    <line class="u" x1="69.75" y1="155" x2="92.30769" y2="155"/>
    <line class="u" x1="70" y1="178" x2="92" y2="178"/>
    <g>
      <rect class="z" x="277" y="56" width="48" height="8"/>
      <line class="u" x1="282" y1="60" x2="298" y2="60"/>
    </g>
    <g>
      <rect class="z" x="277" y="104" width="48" height="8"/>
      <line class="u" x1="282" y1="108" x2="298" y2="108"/>
    </g>
    <g>
      <rect class="z" x="277" y="168" width="48" height="8"/>
      <line class="u" x1="282" y1="172" x2="298" y2="172"/>
    </g>
    <rect class="aa" x="285" y="120" width="16" height="8"/>
    <rect class="aa" x="301" y="120" width="16" height="8"/>
    <rect class="aa" x="285" y="136" width="16" height="8"/>
    <rect class="aa" x="301" y="136" width="16" height="8"/>
    <rect class="aa" x="285" y="152" width="16" height="8"/>
    <rect class="aa" x="301" y="152" width="16" height="8"/>
    <g>
      <rect class="aa" x="285" y="72" width="32" height="8"/>
      <line class="aa" x1="309" y1="72" x2="309" y2="80"/>
      <polygon class="ab" points="314.195 75.293 312.808 76.707 311.421 75.293 314.195 75.293"/>
    </g>
    <g>
      <rect class="aa" x="285" y="88" width="32" height="8"/>
      <line class="aa" x1="309" y1="88" x2="309" y2="96"/>
      <polygon class="ab" points="314.195 91.293 312.808 92.707 311.421 91.293 314.195 91.293"/>
    </g>
    <g>
      <rect class="aa" x="285" y="184" width="32" height="8"/>
      <line class="aa" x1="309" y1="184" x2="309" y2="192"/>
      <polygon class="ab" points="314.195 187.293 312.808 188.707 311.421 187.293 314.195 187.293"/>
    </g>
    <g>
      <line class="q" x1="180.23077" y1="94" x2="194.23077" y2="94"/>
      <rect class="aa" x="140" y="116" width="88" height="76"/>
      <rect class="ac" x="140" y="68" width="88" height="48"/>
      <g>
        <path class="ad" d="M174.9686,94.81482c-2.59128-.87659-3.778-2.54321-3.778-7.25928,0-2.279-1.59806-2.22223-1.59806-2.22223l-.00431.00128a1.11488,1.11488,0,0,0-.53109-.86176A14.26664,14.26664,0,0,0,165.57754,84c-.41185,0-.40035.35132-.22077.94574.09482.31348.4061,1.27649,1.1843,1.27649.5943.41858,0,1.09839,0,1.09839l-2.32454.53119-.72648,1.18524-4.21376,1.4895a3.03422,3.03422,0,0,0,1.40746,2.30212c1.35478.82526,4.84015.801,4.84015.801a7.667,7.667,0,0,1,.727,6.37036A14.19874,14.19874,0,0,1,174.9686,94.81482Z"/>
        <g>
          <path class="q" d="M174.9686,94.81481c-2.59117-.87654-3.77778-2.54321-3.77778-7.25926,0-2.279-1.59829-2.22222-1.59829-2.22222"/>
          <path class="q" d="M167.43215,85.98667a1.77434,1.77434,0,0,0,.5225-.48652"/>
          <path class="q" d="M169.62523,85.50032c-.08414-.49815-.24545-.89266-.568-1.02743A14.26614,14.26614,0,0,0,165.57778,84c-.412,0-.40047.35136-.221.94577.09468.31349.40613,1.27645,1.18442,1.27645a1.701,1.701,0,0,0,.8909-.23555"/>
          <path class="q" d="M166.25065,100a7.66764,7.66764,0,0,0-.7265-6.37037s-3.48548.0243-4.84028-.80093a3.03458,3.03458,0,0,1-1.40759-2.30213L163.49,89.037l.7265-1.18519,2.32466-.53122s.59424-.67981.00013-1.09841"/>
        </g>
      </g>
      <line class="q" x1="180.23077" y1="89" x2="204.23077" y2="89"/>
      <g>
        <line class="ae" x1="153" y1="173" x2="177" y2="173"/>
        <line class="ae" x1="153" y1="178" x2="167" y2="178"/>
      </g>
      <line class="q" x1="180.23077" y1="94" x2="194.23077" y2="94"/>
    </g>
    <g>
      <circle class="af" cx="81" cy="44" r="4"/>
      <path class="ag" d="M81,49a5,5,0,1,1,5-5A5.00589,5.00589,0,0,1,81,49Zm0-8a3,3,0,1,0,3,3A3.00328,3.00328,0,0,0,81,41Z"/>
    </g>
    <g>
      <circle class="ah" cx="94" cy="44" r="4"/>
      <path class="k" d="M94,49a5,5,0,1,1,5-5A5.00589,5.00589,0,0,1,94,49Zm0-8a3,3,0,1,0,3,3A3.00328,3.00328,0,0,0,94,41Z"/>
    </g>
    <g>
      <circle class="ai" cx="107" cy="44" r="4"/>
      <path class="aj" d="M107,49a5,5,0,1,1,5-5A5.00589,5.00589,0,0,1,107,49Zm0-8a3,3,0,1,0,3,3A3.00328,3.00328,0,0,0,107,41Z"/>
    </g>
    <g>
      <path class="r" d="M18.33333,236H375.66667A5.33333,5.33333,0,0,1,381,241.33333v0A10.66666,10.66666,0,0,1,370.33334,252H23.66666A10.66666,10.66666,0,0,1,13,241.33334v0A5.33333,5.33333,0,0,1,18.33333,236Z"/>
      <g class="ak">
        <path class="al" d="M379.27842,250.37115A40.30918,40.30918,0,0,1,369.14286,252H24.85714A90.5889,90.5889,0,0,1,14.7,251.08587"/>
        <path class="t" d="M13,240c0-2.20914,2.66654-4,5.95588-4H375.04412C378.33346,236,381,237.79086,381,240"/>
        <line class="am" x1="167" y1="236" x2="231" y2="236"/>
        <line class="an" x1="167" y1="236" x2="231" y2="236"/>
        <line class="ao" x1="167" y1="236" x2="231" y2="236"/>
      </g>
      <path class="u" d="M18.33333,236H375.66667A5.33333,5.33333,0,0,1,381,241.33333v0A10.66666,10.66666,0,0,1,370.33334,252H23.66666A10.66666,10.66666,0,0,1,13,241.33334v0A5.33333,5.33333,0,0,1,18.33333,236Z"/>
    </g>
  </g>
</svg>
