<svg xmlns="http://www.w3.org/2000/svg" xmlns:xlink="http://www.w3.org/1999/xlink" width="736" height="312.00014" viewBox="0 0 736 312.00014">
  <defs>
    <style>
      .a, .c, .i {
        fill: #ff7e6d;
      }

      .a, .bc, .c, .l, .m {
        stroke: #bf4e45;
      }

      .a, .ad, .ae, .au, .e, .g, .l {
        stroke-miterlimit: 10;
      }

      .a, .aj, .ak, .an, .ao, .ap, .aq, .at, .au, .b, .bc, .c, .e, .g, .l, .m, .n, .o, .p, .q, .s, .t, .u, .v, .x, .y, .z {
        stroke-width: 2px;
      }

      .ag, .aw, .b {
        fill: #f7f2f5;
      }

      .aj, .ak, .an, .ap, .ay, .b {
        stroke: #7f6371;
      }

      .ai, .aj, .ak, .am, .an, .ao, .ap, .aq, .ar, .at, .aw, .ax, .ay, .az, .b, .bc, .c, .m, .n, .o, .p, .q, .s, .t, .u, .v, .x, .y, .z {
        stroke-linecap: round;
        stroke-linejoin: round;
      }

      .d {
        fill: #ecebec;
      }

      .e {
        fill: #fff8e2;
      }

      .at, .au, .e, .g, .n, .p, .q, .s, .t, .x {
        stroke: #8e7c69;
      }

      .af, .bb, .f, .n, .z {
        opacity: 0.2;
      }

      .ae, .ai, .aj, .am, .ao, .ax, .ay, .az, .bc, .g, .l, .n, .o, .q, .x, .y, .z {
        fill: none;
      }

      .ab, .ad, .af, .h, .r, .s {
        fill: #8e7c69;
      }

      .h {
        opacity: 0.1;
      }

      .j {
        clip-path: url(#a);
      }

      .k {
        fill: #ffb2a7;
      }

      .ab, .ac, .k, .x, .y {
        opacity: 0.4;
      }

      .bb, .m {
        fill: #bf4e45;
      }

      .ai, .ax, .o {
        stroke: #fff;
      }

      .ak, .au, .bd, .p {
        fill: #ffdb6d;
      }

      .t {
        fill: #fffbee;
      }

      .u {
        fill: #27cba4;
      }

      .ao, .u, .v {
        stroke: #189675;
      }

      .v {
        fill: #eafaf6;
      }

      .w {
        fill: #ceb797;
      }

      .y, .z {
        stroke: #e5ccae;
      }

      .aa {
        fill: #e5ccae;
      }

      .ad, .ae {
        stroke: #726051;
      }

      .ah {
        clip-path: url(#b);
      }

      .ai {
        stroke-width: 8px;
      }

      .al {
        clip-path: url(#c);
      }

      .am, .aw, .az {
        stroke: #e5e0e3;
      }

      .am {
        stroke-width: 6px;
      }

      .an, .aq {
        fill: #fff;
      }

      .ap, .ar {
        fill: #d2c7cc;
      }

      .aq, .ar {
        stroke: #d2c7cc;
      }

      .as, .at {
        fill: #fff3ce;
      }

      .av {
        clip-path: url(#d);
      }

      .aw, .az {
        stroke-width: 12px;
      }

      .ax {
        stroke-width: 22px;
      }

      .ay {
        stroke-width: 16px;
      }

      .ba {
        clip-path: url(#e);
      }
    </style>
    <clipPath id="a">
      <path class="a" d="M662,30h38a2,2,0,0,1,2,2V44a0,0,0,0,1,0,0H660a0,0,0,0,1,0,0V32A2,2,0,0,1,662,30Z"/>
    </clipPath>
    <clipPath id="b">
      <rect class="b" x="237" y="4" width="332" height="240" rx="6" ry="6"/>
    </clipPath>
    <clipPath id="c">
      <path class="b" d="M281,32H525a6,6,0,0,1,6,6V56a0,0,0,0,1,0,0H275a0,0,0,0,1,0,0V38A6,6,0,0,1,281,32Z"/>
    </clipPath>
    <clipPath id="d">
      <path class="b" d="M224.33333,236H581.66667A5.33333,5.33333,0,0,1,587,241.33333v0A10.66666,10.66666,0,0,1,576.33334,252H229.66666A10.66666,10.66666,0,0,1,219,241.33334v0A5.33333,5.33333,0,0,1,224.33333,236Z"/>
    </clipPath>
    <clipPath id="e">
      <rect class="c" x="581" y="188" width="64" height="64" rx="4" ry="4"/>
    </clipPath>
  </defs>
  <title>introduction-734</title>
  <g>
    <path class="d" d="M12,264H724a0,0,0,0,1,0,0v40.00014a8,8,0,0,1-8,8H20a8,8,0,0,1-8-8V264A0,0,0,0,1,12,264Z"/>
    <g>
      <path class="e" d="M660,44h42a0,0,0,0,1,0,0V250a2,2,0,0,1-2,2H662a2,2,0,0,1-2-2V44A0,0,0,0,1,660,44Z"/>
      <g class="f">
        <line class="g" x1="668.30769" y1="52.33333" x2="668.30769" y2="58.33333"/>
        <line class="g" x1="672.02198" y1="52.33333" x2="672.02198" y2="58.33333"/>
        <line class="g" x1="675.73626" y1="52.33333" x2="675.73626" y2="58.33333"/>
        <line class="g" x1="679.45055" y1="52.33333" x2="679.45055" y2="58.33333"/>
        <line class="g" x1="683.16484" y1="52.33333" x2="683.16484" y2="58.33333"/>
        <line class="g" x1="686.87912" y1="52.33333" x2="686.87912" y2="58.33333"/>
        <line class="g" x1="690.59341" y1="52.33333" x2="690.59341" y2="58.33333"/>
        <line class="g" x1="694.30769" y1="52.33333" x2="694.30769" y2="58.33333"/>
      </g>
      <rect class="h" x="661" y="45" width="40" height="2"/>
      <g>
        <g>
          <path class="i" d="M662,30h38a2,2,0,0,1,2,2V44a0,0,0,0,1,0,0H660a0,0,0,0,1,0,0V32A2,2,0,0,1,662,30Z"/>
          <g class="j">
            <path class="k" d="M662.45433,30h37.19231a2,2,0,0,1,2,2v.66667a0,0,0,0,1,0,0H660.45433a0,0,0,0,1,0,0V32A2,2,0,0,1,662.45433,30Z"/>
          </g>
          <path class="l" d="M662,30h38a2,2,0,0,1,2,2V44a0,0,0,0,1,0,0H660a0,0,0,0,1,0,0V32A2,2,0,0,1,662,30Z"/>
        </g>
        <polygon class="m" points="665 37.5 668 36 668 39 665 37.5"/>
        <polygon class="m" points="671 37.5 674 36 674 39 671 37.5"/>
      </g>
      <g>
        <line class="n" x1="669.61538" y1="102" x2="693.61538" y2="102"/>
        <line class="o" x1="669.61538" y1="104" x2="693.61538" y2="104"/>
      </g>
      <g>
        <line class="n" x1="669" y1="150" x2="693" y2="150"/>
        <line class="o" x1="669" y1="152" x2="693" y2="152"/>
      </g>
      <g>
        <line class="n" x1="669.61538" y1="197.4741" x2="693.15385" y2="197.4741"/>
        <line class="o" x1="669.61538" y1="198.80743" x2="693.15385" y2="198.80743"/>
      </g>
      <g>
        <path class="p" d="M676,218v16h16V218Z"/>
        <rect class="c" x="670" y="212" width="16" height="16"/>
      </g>
      <path class="c" d="M692.10286,134.77107l-9.38554-9.38554,4.33179-4.33179L669,116l5.05375,18.04911,4.33179-4.33179,9.38554,9.38554a3.063,3.063,0,0,0,4.33178,0h0A3.063,3.063,0,0,0,692.10286,134.77107Z"/>
      <g>
        <path class="p" d="M675,169v9h12v-9Z"/>
        <line class="q" x1="671" y1="169" x2="669" y2="169"/>
        <line class="q" x1="693" y1="169" x2="691" y2="169"/>
        <line class="q" x1="671" y1="178" x2="669" y2="178"/>
        <line class="q" x1="693" y1="178" x2="691" y2="178"/>
        <line class="q" x1="675" y1="182" x2="675" y2="184"/>
        <line class="q" x1="675" y1="163" x2="675" y2="165"/>
        <line class="q" x1="687" y1="182" x2="687" y2="184"/>
        <line class="q" x1="686.66667" y1="163" x2="686.66667" y2="165"/>
      </g>
      <g>
        <polygon class="p" points="670.512 87.882 675.845 93.215 687.045 87.348 692.912 77.215 686.512 70.815 676.379 76.682 670.512 87.882"/>
        <path class="r" d="M680.12225,81.47125a1.47355,1.47355,0,0,1,2.11252,0,1.54427,1.54427,0,0,1,0,2.15394,1.47355,1.47355,0,0,1-2.11252,0A1.54427,1.54427,0,0,1,680.12225,81.47125Z"/>
        <line class="g" x1="672.64518" y1="91.08155" x2="681.17851" y2="82.54822"/>
        <rect class="s" x="681.85695" y="73.57306" width="13.57645" height="3.01699" transform="translate(254.79018 -464.9548) rotate(45)"/>
      </g>
    </g>
    <g>
      <g>
        <rect class="p" x="38" y="233" width="160" height="20" rx="2" ry="2"/>
        <rect class="t" x="102" y="233" width="60" height="20"/>
        <rect class="t" x="87" y="233" width="7.94231" height="20"/>
      </g>
      <g>
        <rect class="u" x="68" y="217" width="112" height="16" rx="2" ry="2"/>
        <rect class="v" x="114" y="217" width="48" height="16"/>
      </g>
    </g>
    <g>
      <rect class="w" x="1" y="252" width="734" height="40" rx="4" ry="4"/>
      <line class="n" x1="3.09679" y1="261.36275" x2="222.01901" y2="254.42855"/>
      <line class="n" x1="2.72644" y1="281.341" x2="169.04864" y2="277.38096"/>
      <line class="n" x1="3.64375" y1="289.29908" x2="224.01901" y2="278.42855"/>
      <line class="n" x1="506.01901" y1="269.35444" x2="732.25272" y2="258.35444"/>
      <line class="x" x1="245.00249" y1="257.02631" x2="448.00223" y2="264.4263"/>
      <line class="y" x1="170.54346" y1="286.68277" x2="250.54346" y2="290.68277"/>
      <line class="n" x1="549.01901" y1="278.35444" x2="732.25272" y2="282.35444"/>
      <line class="n" x1="196.5479" y1="283.26299" x2="276.5479" y2="287.26299"/>
      <line class="n" x1="305.01901" y1="288.68277" x2="355.01901" y2="281.68277"/>
      <line class="n" x1="81.98907" y1="264.98861" x2="185.06521" y2="269.60399"/>
      <path class="h" d="M712.89155,291.791c-9.29707-4.40356-5.2138-6.203-6.53265-12.845-1.34906-6.794-4.954-6.30047-7.90192-12.93261-2.94752-6.63122-13.774-8.13623-7.56887-14.0134h40.17618A3.96825,3.96825,0,0,1,735,256v31.86771a3.96425,3.96425,0,0,1-3.8596,3.99931C724.99841,291.97728,713.61429,292.1333,712.89155,291.791Z"/>
      <path class="h" d="M23.46953,291.791c9.44891-4.40356,5.29895-6.203,6.63935-12.845,1.37109-6.794,5.0349-6.30047,8.031-12.93261,2.99566-6.63122,10.76527-8.13623,4.45878-14.0134H5a4,4,0,0,0-4,4v31.86771A3.99445,3.99445,0,0,0,4.92263,291.867C11.16493,291.97728,22.735,292.1333,23.46953,291.791Z"/>
      <line class="z" x1="79.50862" y1="288.59591" x2="169.50862" y2="286.59591"/>
      <line class="y" x1="2.02224" y1="263.37482" x2="224.49152" y2="259.667"/>
      <line class="y" x1="157.0078" y1="265.30946" x2="379.47708" y2="261.60164"/>
      <line class="y" x1="398.00008" y1="270.05265" x2="394.46936" y2="266.34483"/>
      <line class="y" x1="384.00661" y1="288.1882" x2="380.47589" y2="282.48038"/>
      <path class="y" d="M576.42509,254.244"/>
      <path class="y" d="M390.98718,259.00169"/>
      <line class="y" x1="506.28437" y1="290.06226" x2="731.98736" y2="284.35444"/>
      <line class="y" x1="495.2654" y1="272.00703" x2="720.96838" y2="266.29921"/>
      <line class="z" x1="1.97863" y1="276.80999" x2="159.05457" y2="275.66846"/>
      <path class="aa" d="M1,256H1a3.99581,3.99581,0,0,1,4-3.99581L730.00514,253A3.99743,3.99743,0,0,1,734,257Z"/>
      <path class="aa" d="M79.35234,254.22727c.92058.285,2.0689.61069,3.46268.98075,32.1801,8.54418,38.21161,4.63083,76.04114,5.88887,29.92079.995,30.46026-1.41125,60.46677-1.16123s-69.99265.23171-39.98614.48173c30.00238.25,30.165-3.27368,60.16735-3.02369,28.96449.24134,29.21033,3.46148,55.18153.56831l-9.41331-3.5973Z"/>
      <path class="q" d="M5,252H731a4,4,0,0,1,4,4v31.9968A4.0032,4.0032,0,0,1,730.9968,292H5.0032A4.0032,4.0032,0,0,1,1,287.9968V256a4,4,0,0,1,4-4Z"/>
      <line class="x" x1="82.99758" y1="291.67503" x2="162.66424" y2="289.3417"/>
      <line class="n" x1="139.06981" y1="281.23554" x2="307.06981" y2="277.23554"/>
      <line class="y" x1="308.56463" y1="286.68277" x2="358.56463" y2="290.68277"/>
      <line class="n" x1="334.56907" y1="282.33429" x2="384.56907" y2="286.33429"/>
      <line class="z" x1="217.52979" y1="288.59591" x2="307.52979" y2="286.59591"/>
      <line class="y" x1="140.0434" y1="263.2294" x2="362.51268" y2="259.52158"/>
      <line class="z" x1="139.9998" y1="276.66457" x2="297.07574" y2="275.52304"/>
      <line class="x" x1="221.01874" y1="291.67503" x2="300.68541" y2="289.3417"/>
      <line class="y" x1="448.58353" y1="285.75408" x2="532.58353" y2="289.75408"/>
      <line class="z" x1="357.54869" y1="287.66721" x2="447.54869" y2="285.66721"/>
      <line class="y" x1="410.06231" y1="262.30071" x2="406.53159" y2="258.59288"/>
      <line class="n" x1="446.14639" y1="260.35444" x2="689.65391" y2="253.35444"/>
      <line class="y" x1="574.74601" y1="285.75408" x2="714.526" y2="289.75408"/>
      <line class="y" x1="394.74601" y1="271.75408" x2="534.526" y2="275.75408"/>
      <path class="n" d="M734.25272,286.33429"/>
      <path class="n" d="M594.47273,282.33429"/>
      <line class="z" x1="505.68786" y1="287.66721" x2="573.961" y2="285.66721"/>
      <line class="y" x1="446.90743" y1="262.30071" x2="615.67049" y2="258.59288"/>
      <line class="z" x1="446.87435" y1="275.73588" x2="566.03065" y2="274.59435"/>
      <path class="h" d="M166.02295,253.28314l34.18349,5.568c24.99265,2.06387,35.20564,1.15742,72.90226,1.45019"/>
      <path class="ab" d="M165.70436,286.185c102.72216-2.0251-38.4608-1.13568,116.47589-1.423,158.48414-.29385,146.97146-1.07908,301.67954-1.72121,154.68681-.642-31.95726,6.60823,105.13978,7.95985H48.6839S154.73362,286.40129,165.70436,286.185Z"/>
      <g class="ac">
        <path class="r" d="M18.90068,280.20234c-5.53419.754-5.11469-3.17151-7.2288-8.34126-1.63742-4.00407-2.96239-8.23909,1.32395-8.82308,5.53419-.754,5.85078,4.09461,9.04307,8.67773C25.13315,276.15809,23.187,279.61835,18.90068,280.20234Z"/>
      </g>
      <circle class="ad" cx="15.98686" cy="272.31699" r="4"/>
      <line class="ae" x1="11.98686" y1="272.31699" x2="19.98686" y2="272.31699"/>
      <g class="ac">
        <path class="r" d="M725.58358,273.06849c-2.46821,5.07829-3.58687,3.44043-9.12106,2.3207-4.28634-.86725-4.569-.14028-2.65728-4.07351,2.46821-5.07829,2.87879-3.16906,8.50526-3.6422C726.85105,267.29166,727.49526,269.13526,725.58358,273.06849Z"/>
      </g>
      <circle class="ad" cx="718.98686" cy="272.53759" r="4"/>
      <line class="ae" x1="715.61914" y1="273" x2="723.61914" y2="273"/>
      <line class="n" x1="288.05908" y1="279.35444" x2="511.05908" y2="268.35444"/>
      <line class="n" x1="420.58797" y1="280.33429" x2="600.58797" y2="284.33429"/>
      <path class="af" d="M116.96586,270.8078c73.98462-2.06387,12.08542-1.15742,123.677-1.45019,114.14663-.29948,417.35528-11.05924,452.60035,6.35808,30.60633,15.125-94.83356,1.977-138.07689,0-188.03676-8.5966-521.82485,14.58268-522.48332,0C31.65012,252.84019,109.06429,271.02822,116.96586,270.8078Z"/>
    </g>
    <g>
      <g>
        <g>
          <rect class="ag" x="237" y="4" width="332" height="240" rx="6" ry="6"/>
          <g class="ah">
            <path class="ai" d="M237,10a5.95368,5.95368,0,0,1,5.90625-6h320.1875A5.95368,5.95368,0,0,1,569,10"/>
          </g>
          <rect class="aj" x="237" y="4" width="332" height="240" rx="6" ry="6"/>
        </g>
        <g>
          <rect class="ak" x="249" y="16" width="308" height="208"/>
          <g>
            <g>
              <path class="ag" d="M281,32H525a6,6,0,0,1,6,6V56a0,0,0,0,1,0,0H275a0,0,0,0,1,0,0V38A6,6,0,0,1,281,32Z"/>
              <g class="al">
                <path class="ai" d="M275,38a5.93972,5.93972,0,0,1,5.87755-6h244.2449A5.93972,5.93972,0,0,1,531,38"/>
                <line class="am" x1="531" y1="56" x2="275" y2="56"/>
              </g>
              <path class="aj" d="M281,32H525a6,6,0,0,1,6,6V56a0,0,0,0,1,0,0H275a0,0,0,0,1,0,0V38A6,6,0,0,1,281,32Z"/>
            </g>
            <rect class="an" x="299.23077" y="56" width="184" height="148"/>
            <path class="b" d="M275,56h24a0,0,0,0,1,0,0V204a0,0,0,0,1,0,0H281a6,6,0,0,1-6-6V56A0,0,0,0,1,275,56Z"/>
            <path class="b" d="M483,56h48a0,0,0,0,1,0,0V198a6,6,0,0,1-6,6H483a0,0,0,0,1,0,0V56A0,0,0,0,1,483,56Z"/>
            <g>
              <g>
                <rect class="p" x="282" y="186" width="6" height="6"/>
                <rect class="c" x="286" y="189.5" width="6" height="6"/>
              </g>
              <g>
                <line class="aj" x1="291" y1="171" x2="285" y2="165"/>
                <circle class="b" cx="285" cy="165" r="3"/>
              </g>
              <polygon class="c" points="292 67.333 282 64 285.333 74 288.667 70.667 292 67.333"/>
              <rect class="p" x="282" y="114" width="10" height="8"/>
              <circle class="c" cx="287" cy="142" r="4"/>
              <line class="aj" x1="275.75" y1="82" x2="298.30769" y2="82"/>
              <line class="aj" x1="275.75" y1="106" x2="298.30769" y2="106"/>
              <line class="aj" x1="275.75" y1="131" x2="298.30769" y2="131"/>
              <line class="aj" x1="275.75" y1="155" x2="298.30769" y2="155"/>
              <line class="aj" x1="275.75" y1="178.30761" x2="298.30769" y2="178.30761"/>
              <g>
                <g>
                  <polygon class="u" points="285 90 289 90 291 94 287 100 283 94 285 90"/>
                  <rect class="u" x="283" y="88" width="8" height="2"/>
                </g>
                <line class="ao" x1="287" y1="100" x2="287" y2="94"/>
              </g>
            </g>
            <g>
              <rect class="ap" x="483" y="56" width="48" height="8"/>
              <line class="aj" x1="488" y1="60" x2="504" y2="60"/>
            </g>
            <g>
              <rect class="ap" x="483" y="104" width="48" height="8"/>
              <line class="aj" x1="488" y1="108" x2="504" y2="108"/>
            </g>
            <g>
              <rect class="ap" x="483" y="168" width="48" height="8"/>
              <line class="aj" x1="488" y1="172" x2="504" y2="172"/>
            </g>
            <rect class="aq" x="491" y="120" width="16" height="8"/>
            <rect class="aq" x="507" y="120" width="16" height="8"/>
            <rect class="aq" x="491" y="136" width="16" height="8"/>
            <rect class="aq" x="507" y="136" width="16" height="8"/>
            <rect class="aq" x="491" y="152" width="16" height="8"/>
            <rect class="aq" x="507" y="152" width="16" height="8"/>
            <g>
              <rect class="aq" x="491" y="72" width="32" height="8"/>
              <line class="aq" x1="515" y1="72" x2="515" y2="80"/>
              <polygon class="ar" points="520.195 75.293 518.808 76.707 517.421 75.293 520.195 75.293"/>
            </g>
            <g>
              <rect class="aq" x="491" y="88" width="32" height="8"/>
              <line class="aq" x1="515" y1="88" x2="515" y2="96"/>
              <polygon class="ar" points="520.195 91.293 518.808 92.707 517.421 91.293 520.195 91.293"/>
            </g>
            <g>
              <rect class="aq" x="491" y="184" width="32" height="8"/>
              <line class="aq" x1="515" y1="184" x2="515" y2="192"/>
              <polygon class="ar" points="520.195 187.293 518.808 188.707 517.421 187.293 520.195 187.293"/>
            </g>
            <g>
              <rect class="t" x="347" y="68" width="88" height="122"/>
              <g>
                <path class="as" d="M380.9686,94.81482c-2.59128-.87659-3.778-2.54321-3.778-7.25928,0-2.279-1.59806-2.22223-1.59806-2.22223l-.00431.00128a1.11488,1.11488,0,0,0-.53109-.86176A14.26664,14.26664,0,0,0,371.57754,84c-.41185,0-.40035.35132-.22077.94574.09482.31348.4061,1.27649,1.1843,1.27649.5943.41858,0,1.09839,0,1.09839l-2.32454.53119-.72648,1.18524-4.21376,1.4895a3.03422,3.03422,0,0,0,1.40746,2.30212c1.35478.82526,4.84015.801,4.84015.801a7.667,7.667,0,0,1,.727,6.37036A14.19874,14.19874,0,0,1,380.9686,94.81482Z"/>
                <g>
                  <path class="t" d="M380.9686,94.81481c-2.59117-.87654-3.77778-2.54321-3.77778-7.25926,0-2.279-1.59829-2.22222-1.59829-2.22222"/>
                  <path class="q" d="M373.43215,85.98667a1.77434,1.77434,0,0,0,.5225-.48652"/>
                  <path class="q" d="M375.62523,85.50032c-.08414-.49815-.24545-.89266-.568-1.02743A14.26614,14.26614,0,0,0,371.57778,84c-.412,0-.40047.35136-.221.94577.09468.31349.40613,1.27645,1.18442,1.27645a1.701,1.701,0,0,0,.8909-.23555"/>
                  <path class="q" d="M372.25065,100a7.66764,7.66764,0,0,0-.7265-6.37037s-3.48548.0243-4.84028-.80093a3.03458,3.03458,0,0,1-1.40759-2.30213L369.49,89.037l.7265-1.18519,2.32466-.53122s.59424-.67981.00013-1.09841"/>
                </g>
              </g>
              <line class="q" x1="386" y1="89" x2="410" y2="89"/>
              <line class="q" x1="386.23077" y1="94" x2="400.23077" y2="94"/>
              <rect class="at" x="347" y="114" width="88" height="76"/>
              <g>
                <line class="q" x1="359" y1="173" x2="383" y2="173"/>
                <line class="q" x1="359" y1="178" x2="373" y2="178"/>
              </g>
              <line class="q" x1="386" y1="94" x2="400" y2="94"/>
            </g>
            <g>
              <circle class="c" cx="287" cy="44" r="4"/>
              <circle class="au" cx="300" cy="44" r="4"/>
              <circle class="u" cx="313" cy="44" r="4"/>
            </g>
          </g>
        </g>
      </g>
      <g>
        <path class="ag" d="M224.33333,236H581.66667A5.33333,5.33333,0,0,1,587,241.33333v0A10.66666,10.66666,0,0,1,576.33334,252H229.66666A10.66666,10.66666,0,0,1,219,241.33334v0A5.33333,5.33333,0,0,1,224.33333,236Z"/>
        <g class="av">
          <path class="aw" d="M585.27842,250.37115A40.30918,40.30918,0,0,1,575.14286,252H230.85714A90.5889,90.5889,0,0,1,220.7,251.08587"/>
          <path class="ai" d="M219,240c0-2.20914,2.66654-4,5.95588-4H581.04412C584.33346,236,587,237.79086,587,240"/>
          <line class="ax" x1="373" y1="236" x2="437" y2="236"/>
          <line class="ay" x1="373" y1="236" x2="437" y2="236"/>
          <line class="az" x1="373" y1="236" x2="437" y2="236"/>
        </g>
        <path class="aj" d="M224.33333,236H581.66667A5.33333,5.33333,0,0,1,587,241.33333v0A10.66666,10.66666,0,0,1,576.33334,252H229.66666A10.66666,10.66666,0,0,1,219,241.33334v0A5.33333,5.33333,0,0,1,224.33333,236Z"/>
      </g>
    </g>
    <g>
      <g>
        <rect class="i" x="581" y="188" width="64" height="64" rx="4" ry="4"/>
        <g class="ba">
          <rect class="k" x="581" y="188" width="64" height="4"/>
          <rect class="bb" x="581" y="249" width="64" height="2"/>
        </g>
        <rect class="bc" x="581" y="188" width="64" height="64" rx="4" ry="4"/>
      </g>
      <g>
        <path class="bd" d="M615.88428,230.95947a2.3082,2.3082,0,0,1-2.16553-1.50391l-.81641-2.30371h-8.97656l-.84766,2.30371a2.31876,2.31876,0,0,1-2.19678,1.50391,2.40009,2.40009,0,0,1-2.354-2.43164,2.10519,2.10519,0,0,1,.15674-.86426l6.12061-16.03076a3.70746,3.70746,0,0,1,3.42139-2.3999,3.78446,3.78446,0,0,1,3.79785,2.3999l6.08887,16.03076a2.79109,2.79109,0,0,1,.15723.86426A2.42687,2.42687,0,0,1,615.88428,230.95947Zm-7.47021-16.99072-3.26416,9.18359h6.52832Z"/>
        <path class="bd" d="M625.48682,211.2168a2.38554,2.38554,0,1,1-2.38574-2.39941A2.38034,2.38034,0,0,1,625.48682,211.2168Zm-2.38574,19.74268a1.98855,1.98855,0,0,1-1.97705-2.01562V217.10449a1.99578,1.99578,0,0,1,2.04-1.98389,1.97483,1.97483,0,0,1,1.9458,1.98389v11.83936A1.99493,1.99493,0,0,1,623.10107,230.95947Z"/>
      </g>
    </g>
  </g>
</svg>
