<svg xmlns="http://www.w3.org/2000/svg" xmlns:xlink="http://www.w3.org/1999/xlink" width="736" height="312.00014" viewBox="0 0 736 312.00014">
  <defs>
    <style>
      .a, .c, .h {
        fill: #ff7e6d;
      }

      .a, .bf, .c, .k, .l {
        stroke: #bf4e45;
      }

      .a, .d, .f, .k, .t, .u {
        stroke-miterlimit: 10;
      }

      .a, .aa, .ab, .ac, .aj, .ak, .an, .at, .au, .ax, .b, .bf, .c, .d, .f, .k, .l, .m, .n, .o, .p, .r, .w, .x, .y {
        stroke-width: 2px;
      }

      .ag, .az, .b {
        fill: #f7f2f5;
      }

      .aj, .ak, .an, .at, .b, .bb {
        stroke: #7f6371;
      }

      .aa, .ab, .ac, .ai, .aj, .ak, .am, .an, .at, .au, .av, .ax, .az, .b, .ba, .bb, .bc, .bf, .c, .l, .m, .n, .o, .p, .r, .w, .x, .y {
        stroke-linecap: round;
        stroke-linejoin: round;
      }

      .d {
        fill: #fff8e2;
      }

      .aa, .ax, .d, .f, .m, .o, .p, .r, .w {
        stroke: #8e7c69;
      }

      .ac, .af, .be, .e, .m {
        opacity: 0.2;
      }

      .aa, .ab, .ac, .ai, .aj, .am, .ba, .bb, .bc, .bf, .f, .k, .m, .n, .p, .u {
        fill: none;
      }

      .ae, .af, .g, .q, .r, .t {
        fill: #8e7c69;
      }

      .g {
        opacity: 0.1;
      }

      .i {
        clip-path: url(#a);
      }

      .j {
        fill: #ffb2a7;
      }

      .aa, .ab, .ae, .j, .s {
        opacity: 0.4;
      }

      .ap, .be, .l {
        fill: #bf4e45;
      }

      .ai, .ba, .n {
        stroke: #fff;
      }

      .ak, .ao, .o {
        fill: #ffdb6d;
      }

      .t, .u {
        stroke: #726051;
      }

      .v {
        fill: #ecebec;
      }

      .w {
        fill: #fffbee;
      }

      .ar, .x {
        fill: #27cba4;
      }

      .x, .y {
        stroke: #189675;
      }

      .y {
        fill: #eafaf6;
      }

      .z {
        fill: #ceb797;
      }

      .ab, .ac {
        stroke: #e5ccae;
      }

      .ad {
        fill: #e5ccae;
      }

      .ah {
        clip-path: url(#b);
      }

      .ai {
        stroke-width: 8px;
      }

      .al {
        clip-path: url(#c);
      }

      .am, .az, .bc {
        stroke: #e5e0e3;
      }

      .am {
        stroke-width: 6px;
      }

      .an, .au {
        fill: #fff;
      }

      .aq {
        fill: #7f6371;
      }

      .as {
        fill: #189675;
      }

      .at, .av {
        fill: #d2c7cc;
      }

      .au, .av {
        stroke: #d2c7cc;
      }

      .aw, .ax {
        fill: #fff3ce;
      }

      .ay {
        clip-path: url(#d);
      }

      .az, .bc {
        stroke-width: 12px;
      }

      .ba {
        stroke-width: 22px;
      }

      .bb {
        stroke-width: 16px;
      }

      .bd {
        clip-path: url(#e);
      }
    </style>
    <clipPath id="a">
      <path class="a" d="M662,30h38a2,2,0,0,1,2,2V44a0,0,0,0,1,0,0H660a0,0,0,0,1,0,0V32A2,2,0,0,1,662,30Z"/>
    </clipPath>
    <clipPath id="b">
      <rect class="b" x="204" y="4" width="332" height="240" rx="6" ry="6"/>
    </clipPath>
    <clipPath id="c">
      <path class="b" d="M248,32H492a6,6,0,0,1,6,6V56a0,0,0,0,1,0,0H242a0,0,0,0,1,0,0V38A6,6,0,0,1,248,32Z"/>
    </clipPath>
    <clipPath id="d">
      <path class="b" d="M191.33333,236H548.66667A5.33333,5.33333,0,0,1,554,241.33333v0A10.66666,10.66666,0,0,1,543.33334,252H196.66666A10.66666,10.66666,0,0,1,186,241.33334v0A5.33333,5.33333,0,0,1,191.33333,236Z"/>
    </clipPath>
    <clipPath id="e">
      <rect class="c" x="575" y="188" width="64" height="64" rx="4" ry="4"/>
    </clipPath>
  </defs>
  <title>introduction-734</title>
  <g>
    <path class="d" d="M660,44h42a0,0,0,0,1,0,0V250a2,2,0,0,1-2,2H662a2,2,0,0,1-2-2V44A0,0,0,0,1,660,44Z"/>
    <g class="e">
      <line class="f" x1="668.30769" y1="52.33333" x2="668.30769" y2="58.33333"/>
      <line class="f" x1="672.02198" y1="52.33333" x2="672.02198" y2="58.33333"/>
      <line class="f" x1="675.73626" y1="52.33333" x2="675.73626" y2="58.33333"/>
      <line class="f" x1="679.45055" y1="52.33333" x2="679.45055" y2="58.33333"/>
      <line class="f" x1="683.16484" y1="52.33333" x2="683.16484" y2="58.33333"/>
      <line class="f" x1="686.87912" y1="52.33333" x2="686.87912" y2="58.33333"/>
      <line class="f" x1="690.59341" y1="52.33333" x2="690.59341" y2="58.33333"/>
      <line class="f" x1="694.30769" y1="52.33333" x2="694.30769" y2="58.33333"/>
    </g>
    <rect class="g" x="661" y="45" width="40" height="2"/>
    <g>
      <g>
        <path class="h" d="M662,30h38a2,2,0,0,1,2,2V44a0,0,0,0,1,0,0H660a0,0,0,0,1,0,0V32A2,2,0,0,1,662,30Z"/>
        <g class="i">
          <path class="j" d="M662.45433,30h37.19231a2,2,0,0,1,2,2v.66667a0,0,0,0,1,0,0H660.45433a0,0,0,0,1,0,0V32A2,2,0,0,1,662.45433,30Z"/>
        </g>
        <path class="k" d="M662,30h38a2,2,0,0,1,2,2V44a0,0,0,0,1,0,0H660a0,0,0,0,1,0,0V32A2,2,0,0,1,662,30Z"/>
      </g>
      <polygon class="l" points="665 37.5 668 36 668 39 665 37.5"/>
      <polygon class="l" points="671 37.5 674 36 674 39 671 37.5"/>
    </g>
    <g>
      <line class="m" x1="669.61538" y1="102" x2="693.61538" y2="102"/>
      <line class="n" x1="669.61538" y1="104" x2="693.61538" y2="104"/>
    </g>
    <g>
      <line class="m" x1="669" y1="150" x2="693" y2="150"/>
      <line class="n" x1="669" y1="152" x2="693" y2="152"/>
    </g>
    <g>
      <line class="m" x1="669.61538" y1="197.4741" x2="693.15385" y2="197.4741"/>
      <line class="n" x1="669.61538" y1="198.80743" x2="693.15385" y2="198.80743"/>
    </g>
    <g>
      <path class="o" d="M676,218v16h16V218Z"/>
      <rect class="c" x="670" y="212" width="16" height="16"/>
    </g>
    <path class="c" d="M692.10286,134.77107l-9.38554-9.38554,4.33179-4.33179L669,116l5.05375,18.04911,4.33179-4.33179,9.38554,9.38554a3.063,3.063,0,0,0,4.33178,0h0A3.063,3.063,0,0,0,692.10286,134.77107Z"/>
    <g>
      <path class="o" d="M675,169v9h12v-9Z"/>
      <line class="p" x1="671" y1="169" x2="669" y2="169"/>
      <line class="p" x1="693" y1="169" x2="691" y2="169"/>
      <line class="p" x1="671" y1="178" x2="669" y2="178"/>
      <line class="p" x1="693" y1="178" x2="691" y2="178"/>
      <line class="p" x1="675" y1="182" x2="675" y2="184"/>
      <line class="p" x1="675" y1="163" x2="675" y2="165"/>
      <line class="p" x1="687" y1="182" x2="687" y2="184"/>
      <line class="p" x1="686.66667" y1="163" x2="686.66667" y2="165"/>
    </g>
    <g>
      <polygon class="o" points="670.512 87.882 675.845 93.215 687.045 87.348 692.912 77.215 686.512 70.815 676.379 76.682 670.512 87.882"/>
      <path class="q" d="M680.12225,81.47125a1.47355,1.47355,0,0,1,2.11252,0,1.54427,1.54427,0,0,1,0,2.15394,1.47355,1.47355,0,0,1-2.11252,0A1.54427,1.54427,0,0,1,680.12225,81.47125Z"/>
      <line class="f" x1="672.64518" y1="91.08155" x2="681.17851" y2="82.54822"/>
      <rect class="r" x="681.85695" y="73.57306" width="13.57645" height="3.01699" transform="translate(254.79018 -464.9548) rotate(45)"/>
    </g>
    <path class="g" d="M712.89155,291.791c-9.29707-4.40356-5.2138-6.203-6.53265-12.845-1.34906-6.794-4.954-6.30047-7.90192-12.93261-2.94752-6.63122-13.774-8.13623-7.56887-14.0134h40.17618A3.96825,3.96825,0,0,1,735,256v31.86771a3.96425,3.96425,0,0,1-3.8596,3.99931C724.99841,291.97728,713.61429,292.1333,712.89155,291.791Z"/>
    <path class="m" d="M734.25272,286.33429"/>
    <g class="s">
      <path class="q" d="M726.44968,273.48944c-2.46821,5.07829-4.72027,4.34059-10.25446,3.22086-4.28634-.86725-6.54407-2.55127-4.63239-6.4845,2.46821-5.07829,4.80164-6.704,10.43979-7.008C726.95393,262.95087,728.36136,269.55621,726.44968,273.48944Z"/>
    </g>
    <circle class="t" cx="718.98686" cy="272.53759" r="4"/>
    <line class="u" x1="715.61914" y1="273" x2="723.61914" y2="273"/>
    <g>
      <path class="v" d="M12,264H724a0,0,0,0,1,0,0v40.00014a8,8,0,0,1-8,8H20a8,8,0,0,1-8-8V264A0,0,0,0,1,12,264Z"/>
      <g>
        <rect class="o" x="15" y="233" width="160" height="20" rx="2" ry="2"/>
        <rect class="w" x="79" y="233" width="60" height="20"/>
        <rect class="w" x="64" y="233" width="7.94231" height="20"/>
      </g>
      <g>
        <rect class="x" x="45" y="217" width="112" height="16" rx="2" ry="2"/>
        <rect class="y" x="91" y="217" width="48" height="16"/>
      </g>
      <rect class="z" x="1" y="252" width="734" height="40" rx="4" ry="4"/>
      <line class="m" x1="3.09679" y1="261.36275" x2="222.01901" y2="254.42855"/>
      <line class="m" x1="2.72644" y1="281.341" x2="169.04864" y2="277.38096"/>
      <line class="m" x1="3.64375" y1="289.29908" x2="224.01901" y2="278.42855"/>
      <line class="m" x1="506.01901" y1="269.35444" x2="732.25272" y2="258.35444"/>
      <line class="aa" x1="245.00249" y1="257.02631" x2="448.00223" y2="264.4263"/>
      <line class="ab" x1="170.54346" y1="286.68277" x2="250.54346" y2="290.68277"/>
      <line class="m" x1="549.01901" y1="278.35444" x2="732.25272" y2="282.35444"/>
      <line class="m" x1="196.5479" y1="283.26299" x2="276.5479" y2="287.26299"/>
      <line class="m" x1="305.01901" y1="288.68277" x2="355.01901" y2="281.68277"/>
      <line class="m" x1="81.98907" y1="264.98861" x2="185.06521" y2="269.60399"/>
      <path class="g" d="M23.46953,291.791c9.44891-4.40356,5.29895-6.203,6.63935-12.845,1.37109-6.794,5.0349-6.30047,8.031-12.93261,2.99566-6.63122,10.76527-8.13623,4.45878-14.0134H5a4,4,0,0,0-4,4v31.86771A3.99445,3.99445,0,0,0,4.92263,291.867C11.16493,291.97728,22.735,292.1333,23.46953,291.791Z"/>
      <line class="ac" x1="79.50862" y1="288.59591" x2="169.50862" y2="286.59591"/>
      <line class="ab" x1="2.02224" y1="263.37482" x2="224.49152" y2="259.667"/>
      <line class="ab" x1="157.0078" y1="265.30946" x2="379.47708" y2="261.60164"/>
      <line class="ab" x1="398.00008" y1="270.05265" x2="394.46936" y2="266.34483"/>
      <line class="ab" x1="384.00661" y1="288.1882" x2="380.47589" y2="282.48038"/>
      <path class="ab" d="M576.42509,254.244"/>
      <path class="ab" d="M390.98718,259.00169"/>
      <line class="ab" x1="506.28437" y1="290.06226" x2="731.98736" y2="284.35444"/>
      <line class="ab" x1="495.2654" y1="272.00703" x2="720.96838" y2="266.29921"/>
      <line class="ac" x1="1.97863" y1="276.80999" x2="159.05457" y2="275.66846"/>
      <path class="ad" d="M1,256H1a3.99581,3.99581,0,0,1,4-3.99581L730.00514,253A3.99743,3.99743,0,0,1,734,257Z"/>
      <path class="ad" d="M79.35234,254.22727c.92058.285,2.0689.61069,3.46268.98075,32.1801,8.54418,38.21161,4.63083,76.04114,5.88887,29.92079.995,30.46026-1.41125,60.46677-1.16123s-69.99265.23171-39.98614.48173c30.00238.25,30.165-3.27368,60.16735-3.02369,28.96449.24134,29.21033,3.46148,55.18153.56831l-9.41331-3.5973Z"/>
      <path class="p" d="M5,252H730.9968A4.0032,4.0032,0,0,1,735,256.0032V288a4,4,0,0,1-4,4H5.0032A4.0032,4.0032,0,0,1,1,287.9968V256A4,4,0,0,1,5,252Z"/>
      <line class="aa" x1="82.99758" y1="291.67503" x2="162.66424" y2="289.3417"/>
      <line class="m" x1="139.06981" y1="281.23554" x2="307.06981" y2="277.23554"/>
      <line class="ab" x1="308.56463" y1="286.68277" x2="358.56463" y2="290.68277"/>
      <line class="m" x1="334.56907" y1="282.33429" x2="384.56907" y2="286.33429"/>
      <line class="ac" x1="217.52979" y1="288.59591" x2="307.52979" y2="286.59591"/>
      <line class="ab" x1="140.0434" y1="263.2294" x2="362.51268" y2="259.52158"/>
      <line class="ac" x1="139.9998" y1="276.66457" x2="297.07574" y2="275.52304"/>
      <line class="aa" x1="221.01874" y1="291.67503" x2="300.68541" y2="289.3417"/>
      <line class="ab" x1="448.58353" y1="285.75408" x2="532.58353" y2="289.75408"/>
      <line class="ac" x1="357.54869" y1="287.66721" x2="447.54869" y2="285.66721"/>
      <line class="ab" x1="410.06231" y1="262.30071" x2="406.53159" y2="258.59288"/>
      <line class="m" x1="446.14639" y1="260.35444" x2="689.65391" y2="253.35444"/>
      <line class="ab" x1="574.74601" y1="285.75408" x2="714.526" y2="289.75408"/>
      <line class="ab" x1="394.74601" y1="271.75408" x2="534.526" y2="275.75408"/>
      <path class="m" d="M594.47273,282.33429"/>
      <line class="ac" x1="505.68786" y1="287.66721" x2="573.961" y2="285.66721"/>
      <line class="ab" x1="446.90743" y1="262.30071" x2="615.67049" y2="258.59288"/>
      <line class="ac" x1="446.87435" y1="275.73588" x2="566.03065" y2="274.59435"/>
      <path class="g" d="M166.02295,253.28314l34.18349,5.568c24.99265,2.06387,35.20564,1.15742,72.90226,1.45019"/>
      <path class="ae" d="M165.70436,286.185c102.72216-2.0251-38.4608-1.13568,116.47589-1.423,158.48414-.29385,146.97146-1.07908,301.67954-1.72121,154.68681-.642-31.95726,6.60823,105.13978,7.95985H48.6839S154.73362,286.40129,165.70436,286.185Z"/>
      <line class="m" x1="288.05908" y1="279.35444" x2="511.05908" y2="268.35444"/>
      <line class="m" x1="420.58797" y1="280.33429" x2="600.58797" y2="284.33429"/>
      <path class="af" d="M116.96586,270.8078c73.98462-2.06387,12.08542-1.15742,123.677-1.45019,114.14663-.29948,417.35528-11.05924,452.60035,6.35808,30.60633,15.125-94.83356,1.977-138.07689,0-188.03676-8.5966-521.82485,14.58268-522.48332,0C31.65012,252.84019,109.06429,271.02822,116.96586,270.8078Z"/>
      <g>
        <rect class="ag" x="204" y="4" width="332" height="240" rx="6" ry="6"/>
        <g class="ah">
          <path class="ai" d="M204,10a5.95368,5.95368,0,0,1,5.90625-6h320.1875A5.95368,5.95368,0,0,1,536,10"/>
        </g>
        <rect class="aj" x="204" y="4" width="332" height="240" rx="6" ry="6"/>
      </g>
      <rect class="ak" x="216" y="16" width="308" height="208"/>
      <g>
        <path class="ag" d="M248,32H492a6,6,0,0,1,6,6V56a0,0,0,0,1,0,0H242a0,0,0,0,1,0,0V38A6,6,0,0,1,248,32Z"/>
        <g class="al">
          <path class="ai" d="M242,38a5.93972,5.93972,0,0,1,5.87755-6h244.2449A5.93972,5.93972,0,0,1,498,38"/>
          <line class="am" x1="498" y1="56" x2="242" y2="56"/>
        </g>
        <path class="aj" d="M248,32H492a6,6,0,0,1,6,6V56a0,0,0,0,1,0,0H242a0,0,0,0,1,0,0V38A6,6,0,0,1,248,32Z"/>
      </g>
      <rect class="an" x="266.23077" y="56" width="184" height="148"/>
      <path class="b" d="M242,56h24a0,0,0,0,1,0,0V204a0,0,0,0,1,0,0H248a6,6,0,0,1-6-6V56A0,0,0,0,1,242,56Z"/>
      <path class="b" d="M450,56h48a0,0,0,0,1,0,0V198a6,6,0,0,1-6,6H450a0,0,0,0,1,0,0V56A0,0,0,0,1,450,56Z"/>
      <g>
        <g>
          <rect class="ao" x="249" y="186" width="6" height="6"/>
          <path class="q" d="M255,193.00014h-6a.99974.99974,0,0,1-1-1v-6a.99974.99974,0,0,1,1-1h6a.99974.99974,0,0,1,1,1v6A.99974.99974,0,0,1,255,193.00014Zm-5-2h4v-4h-4Z"/>
        </g>
        <g>
          <rect class="h" x="253" y="189.5" width="6" height="6"/>
          <path class="ap" d="M259,196.50014h-6a.99974.99974,0,0,1-1-1v-6a.99974.99974,0,0,1,1-1h6a.99974.99974,0,0,1,1,1v6A.99974.99974,0,0,1,259,196.50014Zm-5-2h4v-4h-4Z"/>
        </g>
      </g>
      <g>
        <path class="aq" d="M258,172.00014a.99676.99676,0,0,1-.707-.293l-6-6a.99989.99989,0,0,1,1.41406-1.41406l6,6a1,1,0,0,1-.707,1.707Z"/>
        <g>
          <circle class="ag" cx="252" cy="165" r="3"/>
          <path class="aq" d="M252,169.00014a4,4,0,1,1,4-4A4.00427,4.00427,0,0,1,252,169.00014Zm0-6a2,2,0,1,0,2,2A2.00229,2.00229,0,0,0,252,163.00014Z"/>
        </g>
      </g>
      <g>
        <polygon class="h" points="259 67.333 249 64 252.333 74 255.667 70.667 259 67.333"/>
        <path class="ap" d="M252.333,75.00014a1.00053,1.00053,0,0,1-.94824-.68359l-3.333-10a.99985.99985,0,0,1,1.26465-1.26514l10,3.333a.99952.99952,0,0,1,.39063,1.65576l-6.667,6.667A.99919.99919,0,0,1,252.333,75.00014Zm-1.752-9.41895,2.18945,6.56787,4.37793-4.37891Z"/>
      </g>
      <g>
        <rect class="ao" x="249" y="114" width="10" height="8"/>
        <path class="q" d="M259,123.00014H249a.99974.99974,0,0,1-1-1v-8a.99974.99974,0,0,1,1-1h10a.99974.99974,0,0,1,1,1v8A.99974.99974,0,0,1,259,123.00014Zm-9-2h8v-6h-8Z"/>
      </g>
      <g>
        <circle class="h" cx="254" cy="142" r="4"/>
        <path class="ap" d="M254,147.00014a5,5,0,1,1,5-5A5.00589,5.00589,0,0,1,254,147.00014Zm0-8a3,3,0,1,0,3,3A3.00328,3.00328,0,0,0,254,139.00014Z"/>
      </g>
      <line class="aj" x1="242.75" y1="82" x2="265.30769" y2="82"/>
      <line class="aj" x1="242.75" y1="106" x2="265.30769" y2="106"/>
      <line class="aj" x1="242.75" y1="131" x2="265.30769" y2="131"/>
      <line class="aj" x1="242.75" y1="155" x2="265.30769" y2="155"/>
      <line class="aj" x1="242.75" y1="178.30761" x2="265.30769" y2="178.30761"/>
      <g>
        <g>
          <g>
            <polygon class="ar" points="252 90 256 90 258 94 254 100 250 94 252 90"/>
            <path class="as" d="M254,101.00014a1.00027,1.00027,0,0,1-.832-.44531l-4-6a1.00048,1.00048,0,0,1-.0625-1.002l2-4A1.0004,1.0004,0,0,1,252,89.00014h4a1.0004,1.0004,0,0,1,.89453.55273l2,4a1.00048,1.00048,0,0,1-.0625,1.002l-4,6A1.00027,1.00027,0,0,1,254,101.00014Zm-2.8457-7.07178L254,98.1974l2.8457-4.269-1.46387-2.92822h-2.76367Z"/>
          </g>
          <g>
            <rect class="ar" x="250" y="88" width="8" height="2"/>
            <path class="as" d="M258,91.00014h-8a.99974.99974,0,0,1-1-1v-2a.99974.99974,0,0,1,1-1h8a.99974.99974,0,0,1,1,1v2A.99974.99974,0,0,1,258,91.00014Zm-7-2h0Z"/>
          </g>
        </g>
        <path class="as" d="M254,101.00014a.99974.99974,0,0,1-1-1v-6a1,1,0,0,1,2,0v6A.99974.99974,0,0,1,254,101.00014Z"/>
      </g>
      <g>
        <rect class="at" x="450" y="56" width="48" height="8"/>
        <line class="aj" x1="455" y1="60" x2="471" y2="60"/>
      </g>
      <g>
        <rect class="at" x="450" y="104" width="48" height="8"/>
        <line class="aj" x1="455" y1="108" x2="471" y2="108"/>
      </g>
      <g>
        <rect class="at" x="450" y="168" width="48" height="8"/>
        <line class="aj" x1="455" y1="172" x2="471" y2="172"/>
      </g>
      <rect class="au" x="458" y="120" width="16" height="8"/>
      <rect class="au" x="474" y="120" width="16" height="8"/>
      <rect class="au" x="458" y="136" width="16" height="8"/>
      <rect class="au" x="474" y="136" width="16" height="8"/>
      <rect class="au" x="458" y="152" width="16" height="8"/>
      <rect class="au" x="474" y="152" width="16" height="8"/>
      <g>
        <rect class="au" x="458" y="72" width="32" height="8"/>
        <line class="au" x1="482" y1="72" x2="482" y2="80"/>
        <polygon class="av" points="487.195 75.293 485.808 76.707 484.421 75.293 487.195 75.293"/>
      </g>
      <g>
        <rect class="au" x="458" y="88" width="32" height="8"/>
        <line class="au" x1="482" y1="88" x2="482" y2="96"/>
        <polygon class="av" points="487.195 91.293 485.808 92.707 484.421 91.293 487.195 91.293"/>
      </g>
      <g>
        <rect class="au" x="458" y="184" width="32" height="8"/>
        <line class="au" x1="482" y1="184" x2="482" y2="192"/>
        <polygon class="av" points="487.195 187.293 485.808 188.707 484.421 187.293 487.195 187.293"/>
      </g>
      <g>
        <rect class="w" x="314" y="68" width="88" height="122"/>
        <g>
          <path class="aw" d="M347.9686,94.81482c-2.59128-.87659-3.778-2.54321-3.778-7.25928,0-2.279-1.59806-2.22223-1.59806-2.22223l-.00431.00128a1.11488,1.11488,0,0,0-.53109-.86176A14.26664,14.26664,0,0,0,338.57754,84c-.41185,0-.40035.35132-.22077.94574.09482.31348.4061,1.27649,1.1843,1.27649.5943.41858,0,1.09839,0,1.09839l-2.32454.53119-.72648,1.18524-4.21376,1.4895a3.03422,3.03422,0,0,0,1.40746,2.30212c1.35478.82526,4.84015.801,4.84015.801a7.667,7.667,0,0,1,.727,6.37036A14.19874,14.19874,0,0,1,347.9686,94.81482Z"/>
          <g>
            <path class="w" d="M347.9686,94.81481c-2.59117-.87654-3.77778-2.54321-3.77778-7.25926,0-2.279-1.59829-2.22222-1.59829-2.22222"/>
            <path class="p" d="M340.43215,85.98667a1.77434,1.77434,0,0,0,.5225-.48652"/>
            <path class="p" d="M342.62523,85.50032c-.08414-.49815-.24545-.89266-.568-1.02743A14.26614,14.26614,0,0,0,338.57778,84c-.412,0-.40047.35136-.221.94577.09468.31349.40613,1.27645,1.18442,1.27645a1.701,1.701,0,0,0,.8909-.23555"/>
            <path class="p" d="M339.25065,100a7.66764,7.66764,0,0,0-.7265-6.37037s-3.48548.0243-4.84028-.80093a3.03458,3.03458,0,0,1-1.40759-2.30213L336.49,89.037l.7265-1.18519,2.32466-.53122s.59424-.67981.00013-1.09841"/>
          </g>
        </g>
        <line class="p" x1="353" y1="89" x2="377" y2="89"/>
        <line class="p" x1="353.23077" y1="94" x2="367.23077" y2="94"/>
        <rect class="ax" x="314" y="114" width="88" height="76"/>
        <g>
          <line class="p" x1="326" y1="173" x2="350" y2="173"/>
          <line class="p" x1="326" y1="178" x2="340" y2="178"/>
        </g>
        <line class="p" x1="353" y1="94" x2="367" y2="94"/>
      </g>
      <g>
        <g>
          <circle class="h" cx="254" cy="44" r="4"/>
          <path class="ap" d="M254,49.00014a5,5,0,1,1,5-5A5.00589,5.00589,0,0,1,254,49.00014Zm0-8a3,3,0,1,0,3,3A3.00328,3.00328,0,0,0,254,41.00014Z"/>
        </g>
        <g>
          <circle class="ao" cx="267" cy="44" r="4"/>
          <path class="q" d="M267,49.00014a5,5,0,1,1,5-5A5.00589,5.00589,0,0,1,267,49.00014Zm0-8a3,3,0,1,0,3,3A3.00328,3.00328,0,0,0,267,41.00014Z"/>
        </g>
        <g>
          <circle class="ar" cx="280" cy="44" r="4"/>
          <path class="as" d="M280,49.00014a5,5,0,1,1,5-5A5.00589,5.00589,0,0,1,280,49.00014Zm0-8a3,3,0,1,0,3,3A3.00328,3.00328,0,0,0,280,41.00014Z"/>
        </g>
      </g>
      <g>
        <path class="ag" d="M191.33333,236H548.66667A5.33333,5.33333,0,0,1,554,241.33333v0A10.66666,10.66666,0,0,1,543.33334,252H196.66666A10.66666,10.66666,0,0,1,186,241.33334v0A5.33333,5.33333,0,0,1,191.33333,236Z"/>
        <g class="ay">
          <path class="az" d="M552.27842,250.37115A40.30918,40.30918,0,0,1,542.14286,252H197.85714A90.5889,90.5889,0,0,1,187.7,251.08587"/>
          <path class="ai" d="M186,240c0-2.20914,2.66654-4,5.95588-4H548.04412C551.33346,236,554,237.79086,554,240"/>
          <line class="ba" x1="340" y1="236" x2="404" y2="236"/>
          <line class="bb" x1="340" y1="236" x2="404" y2="236"/>
          <line class="bc" x1="340" y1="236" x2="404" y2="236"/>
        </g>
        <path class="aj" d="M191.33333,236H548.66667A5.33333,5.33333,0,0,1,554,241.33333v0A10.66666,10.66666,0,0,1,543.33334,252H196.66666A10.66666,10.66666,0,0,1,186,241.33334v0A5.33333,5.33333,0,0,1,191.33333,236Z"/>
      </g>
      <g>
        <rect class="h" x="575" y="188" width="64" height="64" rx="4" ry="4"/>
        <g class="bd">
          <rect class="j" x="575" y="188" width="64" height="4"/>
          <rect class="be" x="575" y="249" width="64" height="2"/>
        </g>
        <rect class="bf" x="575" y="188" width="64" height="64" rx="4" ry="4"/>
      </g>
      <g>
        <path class="ao" d="M609.88428,230.95947a2.3082,2.3082,0,0,1-2.16553-1.50391l-.81641-2.30371h-8.97656l-.84766,2.30371a2.31876,2.31876,0,0,1-2.19678,1.50391,2.40009,2.40009,0,0,1-2.354-2.43164,2.10519,2.10519,0,0,1,.15674-.86426l6.12061-16.03076a3.70746,3.70746,0,0,1,3.42139-2.3999,3.78446,3.78446,0,0,1,3.79785,2.3999l6.08887,16.03076a2.79109,2.79109,0,0,1,.15723.86426A2.42687,2.42687,0,0,1,609.88428,230.95947Zm-7.47021-16.99072-3.26416,9.18359h6.52832Z"/>
        <path class="ao" d="M619.48682,211.2168a2.38554,2.38554,0,1,1-2.38574-2.39941A2.38034,2.38034,0,0,1,619.48682,211.2168Zm-2.38574,19.74268a1.98855,1.98855,0,0,1-1.97705-2.01562V217.10449a1.99578,1.99578,0,0,1,2.04-1.98389,1.97483,1.97483,0,0,1,1.9458,1.98389v11.83936A1.99493,1.99493,0,0,1,617.10107,230.95947Z"/>
      </g>
    </g>
  </g>
</svg>
