<svg xmlns="http://www.w3.org/2000/svg" width="352" height="248" viewBox="0 0 352 248">
  <defs>
    <style>
      .a, .b {
        fill: none;
        stroke-linecap: round;
        stroke-linejoin: round;
        stroke-width: 4px;
      }

      .a {
        stroke: #ff7e6d;
      }

      .b {
        stroke: #ffdb6d;
        stroke-dasharray: 1 8;
      }
    </style>
  </defs>
  <title>lettering</title>
  <g>
    <g>
      <path class="a" d="M14.82189,16.67365C1.69012,19.36333,4.82256,39.2991,21.30517,35.85807,43.50823,31.22281,55.732-.86774,42.12865,2.20723,31.47638,4.61511,30.00791,43.31149,28.269,57.44156c-2.57641,20.93575-2.5187,40.64-14.9062,43.359C.52315,103.61889-.93321,86.07,12.08393,83.36623c18.25984-3.79275,44.30811,20.00722,64.06182,17.85263,15.92232-1.73669,29.168-14.5852,29.168-14.5852"/>
      <path class="a" d="M43.23732,60.07439c11.74391,1.18544,21.74918-6.00956,22.57459-16.20227,1.09392-13.5084-20.3922-11.8804-23.00675,9.36521-3.066,24.91392,30.04169,30.11316,33.85065-.83818"/>
      <path class="a" d="M101.531,37.23394c1.10772-9.68259-13.86155-14.29482-21.237-.21348-6.4124,12.24258-4.36909,33.77462,8.02954,31.20573C98.70853,66.07449,98.9281,48.62947,98.9281,48.62947s-.55313,17.42584,8.97734,15.35939c8.64569-1.87461,11.2348-32.99058,12.431-41.92571,1.25757-9.3935-5.39331-10.88775-5.89527-6.80881-.5561,4.51881,7.19567,7.97938,14.56211,8.49422a30.70717,30.70717,0,0,0,9.73676-1.11.99472.99472,0,0,1,1.172,1.35813c-3.42105,7.917-15.01692,36.60964-2.08843,33.79655,10.61426-2.30954,9.06446-34.57151,15.42819-35.86428,3.12479-.63479,3.91527,5.44761,3.00058,12.51123-1.17179,9.04908-2.59046,20.10427-2.59046,20.10427s5.9181-40.52511,17.721-42.95429c10.2553-2.11067,11.04143,9.70421,9.6287,21.184-2.53931,20.63423,12.16569,24.07306,14.49756,5.65215"/>
    </g>
    <g>
      <path class="a" d="M123.03693,101.35633c2.55812-20.78708,11.13563-30.75059,21.78831-33.316,19.188-4.62091,25.68077,14.48617,22.12563,43.375-3.16,25.67815-14.58638,42.89927-33.659,46.59545-18.3632,3.5587-20.72319-16.98022-7.50287-19.58038"/>
      <line class="a" x1="139.3556" y1="85.39701" x2="132.474" y2="141.3163"/>
      <path class="a" d="M178.85175,116.8365c23.74159-5.68972,22.41431-30.83789,11.35074-28.62968-17.88439,3.56959-16.91331,41.40263-.50089,38.80907,25.89689-4.09234,27.247-53.08669,25.50113-44.57374-4.29272,20.93174,14.32264,28.2951,13.31935,43.06708-1.354,19.9358-22.16153,15.84372-20.84751,5.81313,1.92037-14.65912,27.97891-15.905,28.12451-29.69644"/>
      <path class="a" d="M254.11331,93.82029c-.344,10.8168-3.06921,20.28124-10.37891,21.77362-9.38638,1.91637-9.11571-18.26713-6.08172-38.154"/>
      <path class="a" d="M336.05634,88.14927c-2.33187,18.42091-17.03687,14.98208-14.49756-5.65215,1.41273-11.47975.6266-23.29463-9.6287-21.184-11.8029,2.42918-17.721,42.95429-17.721,42.95429s1.41867-11.05519,2.59046-20.10427c.91469-7.06362.12474-13.07892-3.00058-12.51123-4.52136.82127-5.67883,8.33557-7.34637,21.88582-4.466,36.29006-29.70573,33.35021-31.87825,51.00393-.7055,5.73288,3.83714,9.85544,7.85346,8.996,15.53733-3.32461,15.5095-51.257,12.65995-65.00527-.24527,11.39305-3.08854,20.74548-9.48083,22.13644-6.93011,1.508-12.73518-9.95451-11.22672-20.55052,1.14337-8.03148,6.01918-18.05081,14.46589-19.78757,7.23567-1.48775,9.27646,4.58587,8.55567,7.77744"/>
      <path class="a" d="M239.72137,68.547a1.7438,1.7438,0,0,1-1.82986,1.63673c-.54333-.06686-1.10406-.50825-1.07415-.73378.05227-.39416,1.0571-.72527,1.10531-1.117.03116-.25324-.43848-.79646-.38655-1.172a.67242.67242,0,0,1,.80682-.64548A1.74075,1.74075,0,0,1,239.72137,68.547Z"/>
    </g>
    <line class="b" x1="258" y1="179.6385" x2="350" y2="161.73687"/>
    <line class="b" x1="2" y1="142" x2="106" y2="121.66667"/>
    <line class="b" x1="205.33333" y1="36" x2="325.33333" y2="12"/>
    <g>
      <path class="a" d="M189.90615,209.96694c19.86342-3.42518,25.18918-30.89937,10.79012-27.93126-18.0761,3.72607-15.439,42.62829,4.81278,38.45377,22.92693-4.72595,19.22533-33.33371,44.13414-39.142"/>
      <path class="a" d="M164.49581,189.49775c-19.0319,3.92308-23.88015,44.36834-5.87285,40.54065,17.05226-3.62468,25.11083-80.33029,18.24368-78.91475-6.4291,1.32524-14.92728,78.67913,6.20054,73.99182,3.02021-.67,7.24648-4.21064,7.97419-12.31965"/>
      <path class="a" d="M46.36366,153.56987c-22.954,4.731-18.93081,44.50429,19.59155,36.66,31.15251-6.33277,38.73378-33.83838,24.56858-30.89771-27.93073,5.79836-49.10092,94.02466-8.98,86.17372,11.865-2.32176,23.26665-8.55873,29.91491-30.50444"/>
      <path class="a" d="M125.53354,198.28226c-18.14193,3.76883-20.71572,43.76606-1.89956,39.81927,17.93425-3.7618,22.605-37.81681,12.52322-36.033-5.1125.90456-4.36047,11.50472,5.3584,9.46587,8.0354-1.68569,10.76961-19.51452,22.226-21.82853"/>
    </g>
    <g>
      <polyline class="a" points="303 148 295.567 130 289 148"/>
      <line class="a" x1="292" y1="141.85842" x2="300" y2="141.85842"/>
      <polyline class="a" points="309 143 309 125 320 142 320 124"/>
      <path class="a" d="M331.375,137h-3V119h3C341.54167,119,341.54167,137,331.375,137Z"/>
    </g>
  </g>
</svg>
