<svg xmlns="http://www.w3.org/2000/svg" width="288.24708" height="271.37556" viewBox="0 0 288.24708 271.37556">
  <defs>
    <style>
      .a, .b, .c {
        fill: none;
        stroke-linecap: round;
        stroke-linejoin: round;
      }

      .a {
        stroke: #ff7e6d;
      }

      .a, .c {
        stroke-width: 4px;
      }

      .b {
        stroke: #fff5f3;
        stroke-width: 12px;
      }

      .c {
        stroke: #27cba4;
      }
    </style>
  </defs>
  <title>card-lettering</title>
  <g>
    <path class="a" d="M125.55858,233.04156c-3.64558,8.33269-17.5422,5.40012-16.08854-5.24246,1.04883-7.6787,9.06183-7.84582,7.9115.576-1.12638,8.24646-6.749,31.10758-21.34535,33.9145-19.00518,3.65474-14.57429-39.287,4.53541-43.44976a13.22816,13.22816,0,0,1,4.7821-.37058"/>
    <path class="a" d="M143.99628,210.48915c-20.65206,3.97144-27.09653,47.52749-6.939,43.787,18.55057-3.44232,28.27271-78.06531,20.76345-76.47856-12.5293,2.64753-17.17118,76.27132,5.76,71.503,12.69663-2.64012,40.76046-50.41592,19.69767-46.36549-19.6149,3.772-17.32116,45.90843,4.65464,41.68246,24.87867-4.78419,23.26636-35.525,50.30531-41.45191"/>
    <path class="a" d="M14.04892,25.20742C.281,23.32687-.39337,42.93229,11.40773,44.54419,30.7904,47.19165,59.67378,4.1033,44.5946,2.04365,32.4657.387,30.8863,46.3506,28.80113,61.61658c-3.08948,22.61876-4.142,51.45755-17.16108,49.67929-14.09575-1.92533-11.44493-19.38359-.34026-21.519,19.82048-3.81152,47.27377,21.9503,68.68148,19.90305,17.25552-1.65017,31.77447-15.36365,31.77447-15.36365"/>
    <path class="a" d="M85.5127,53.78938S77.46191,77.0537,63.07813,79.81973c-17.8409,3.43084-18.58431-38.89194.71981-43.00427,10.7732-2.295,8.37473,15.15181-3.26,25.249a304.50357,304.50357,0,0,1-25.43781,19.323"/>
    <path class="a" d="M22.67116,176.7988s-13.07892,5.70861-14.0335,18.89235c-1.13858,15.725,18.656,21.05176,38.19571,17.16032,35.20963-7.01218,41.7963-44.3494,25.69572-41.57165-23.42924,4.04213-55.93722,106.28707-10.59944,97.56852,13.40777-2.57834,19.69271-15.49552,21.83762-21.16055"/>
    <path class="a" d="M108.855,30.8802c-1.41028-1.06739-3.86669-1.80427-7.10166-1.22518C95.88506,30.7055,87.31016,40.8965,85.55084,53.77691c-1.43741,10.52362,6.653,19.883,12.95559,18.65409,14.03837-2.73733,20.91122-37.0736,12.786-35.40789-7.02957,1.44109-6.50657,34.14976,4.1432,32.10608,21.2087-4.06991,10.65121-44.292,13.22757-44.78744,2.80616-.53963,9.33179,3.85642,20.11883,1.545,4.807-1.03,9.30662-2.94838,10.48357-7.6277.23009-.91478,1.0508-4.0035-1.778-3.45951-7.57005,1.45574-17.34341,49.75636-2.52823,46.92286,12.11452-2.317,8.374-44.035,19.23824-46.12419,3.86047-.74238,3.40864,2.49152,3.40864,2.49152l-5.52538,40.36566"/>
    <path class="a" d="M211.70883,29.75135c9.32851-1.85935,6.51324,19.831-6.46395,22.3265-6.02206,1.15805-9.58648-5.1242-7.78943-16.97814,1.091-7.1965,10.1748-25.9307-3.09537-23.37882a24.25821,24.25821,0,0,0-17.74176,13.59324l-4.53749,33.14123"/>
    <g>
      <path class="b" d="M81.73654,168.36083c-6.75383,13.06-16.05824,21.51422-27.67306,23.61035a17.39088,17.39088,0,0,1-10.55342-1.40463"/>
      <path class="b" d="M90,98.32328c2.49024,4.35057,3.925,10.732,3.77564,19.67673"/>
      <path class="b" d="M43.2882,109.99974a38.43992,38.43992,0,0,1,7.2981-8.16113,57.76911,57.76911,0,0,1,7.41353-5.34552"/>
    </g>
    <line class="a" x1="154.52735" y1="21.94076" x2="157.42005" y2="17.05897"/>
    <path class="a" d="M46.004,129.49559c-9.53234,2.71967-10.776-14.60939,4.58235-27.657,17.57027-14.92669,49.23363-23.21789,42.19635,28.30373-4.669,34.18261-18.02795,58.09469-38.71917,61.82885-17.00591,3.06907-30.5593-20.14532-7.29612-25.26033"/>
    <line class="a" x1="61.40002" y1="115.46026" x2="53.14805" y2="175.87489"/>
    <path class="a" d="M92.25469,159.91529a304.50358,304.50358,0,0,0,25.43781-19.323c11.63476-10.09718,14.03323-27.544,3.26-25.249-19.30412,4.11232-18.36387,46.08722-.68857,42.77555,15.88658-2.97653,33.87508-38.23022,34.61779-42.96031,1.93936-12.35117-12.43969-4.20818-13.81148,5.30466-1.87347,12.9917,15.57872,18.703,12.65861,40.08186-1.905,13.94725-21.00037,22.16874-19.61275,9.99759.984-8.63109,23.94272-27.52037,31.697-37.18488,8.79574-10.96256,13.67742-29.53191,8.91017-28.61516-12.15109,2.33668-12.31352,45.26028-.44276,42.93134,8.20174-1.60911,11.19147-12.00317,13.57324-22.67167"/>
    <path class="a" d="M208.08785,98.39873c-11.14371,2.143-18.988,17.91264-20.2341,26.60353-1.974,13.768,4.86714,19.19977,11.96849,17.82173,11.135-2.16078,17.84784-30.69531,10.73339-29.37769-9.0173,1.67.98088,70.40546-15.88087,73.77956-4.35868.87219-8.02493-2.80637-7.71769-7.24083,1.21048-17.471,32.44534-26.93547,36.98622-58.94879,1.93063-13.611,1.66135-26.49971,8.39164-27.794,3.86047-.74238,3.40864,2.49152,3.40864,2.49152l-5.52538,40.36566"/>
    <path class="a" d="M269.8462,107.39543c9.32851-1.85935,6.51324,19.831-6.46395,22.3265-6.02206,1.15805-9.58648-5.1242-7.78943-16.97814,1.091-7.1965,10.1748-25.9307-3.09537-23.37882a24.25821,24.25821,0,0,0-17.74176,13.59324l-4.53749,33.14123"/>
    <g>
      <polyline class="c" points="234.104 178.018 242.4 155.986 251.043 174.761"/>
      <polyline class="c" points="267.849 151.022 267.323 171.47 256.519 153.033 256.378 173.668"/>
      <path class="c" d="M274.44829,170.06658l.75109-20.639s2.31742-.4023,2.849-.48885c4.16753-.67852,8.3693,2.96432,8.19335,7.73338-.21261,5.76277-3.58557,11.81612-8.63346,12.78684Z"/>
      <line class="c" x1="236.90131" y1="171.62105" x2="248.56482" y2="169.37813"/>
    </g>
  </g>
</svg>
