<svg xmlns="http://www.w3.org/2000/svg" viewBox="0 0 276.336 271.34">
  <title>lettering</title>
  <g>
    <path d="M127.531,227.957c-3.257,9.5-19.148,10.312-17.723-.334,1.028-7.681,9.041-7.87,7.913.555-1.1,8.249-6.666,31.126-21.254,33.972-19,3.706-14.679-39.248,4.419-43.462a13.228,13.228,0,0,1,4.781-.383" style="fill: none;stroke: #ff7e6d;stroke-linecap: round;stroke-linejoin: round;stroke-width: 4px"/>
    <path d="M171.552,232.664c19.088-2.868,27.615-33.15,12-30.1-19.6,3.825-17.2,45.955,4.766,41.67,24.866-4.851,23.171-35.587,50.194-41.586" style="fill: none;stroke: #ff7e6d;stroke-linecap: round;stroke-linejoin: round;stroke-width: 4px"/>
    <path d="M144.288,210.221c-20.641,4.027-26.353,47.741-6.822,43.805,18.5-3.727,28.006-77.987,20.559-76.534-6.973,1.36-16.967,76.317,5.951,71.487,3.276-.69,7.891-4.473,8.771-13.241" style="fill: none;stroke: #ff7e6d;stroke-linecap: round;stroke-linejoin: round;stroke-width: 4px"/>
    <path d="M22.873,176.855S9.81,182.6,8.891,195.785c-1.1,15.728,18.712,21,38.242,17.058,35.191-7.106,41.677-44.461,25.584-41.64-23.418,4.1-55.652,106.437-10.338,97.6,13.4-2.614,19.651-15.548,21.781-21.219" style="fill: none;stroke: #ff7e6d;stroke-linecap: round;stroke-linejoin: round;stroke-width: 4px"/>
    <path d="M13.845,25.287C.072,23.444-.55,43.051,11.256,44.631c19.39,2.6,48.158-40.57,33.073-42.589C32.2.418,30.739,46.385,28.695,61.657c-3.029,22.627-4,51.468-17.028,49.725-14.1-1.888-11.5-19.353-.4-21.518C31.079,86,58.6,111.688,80,109.583c17.251-1.7,31.733-15.449,31.733-15.449" style="fill: none;stroke: #ff7e6d;stroke-linecap: round;stroke-linejoin: round;stroke-width: 4px"/>
    <path d="M85.385,53.678S77.4,76.964,63.02,79.768c-17.832,3.479-18.688-38.842.6-43.006,10.767-2.324,8.415,15.129-3.192,25.258a22.381,22.381,0,0,1-23.365,4.291" style="fill: none;stroke: #ff7e6d;stroke-linecap: round;stroke-linejoin: round;stroke-width: 4px"/>
    <path d="M108.666,30.706c-1.413-1.064-3.872-1.794-7.1-1.206C95.7,30.566,87.148,40.78,85.423,53.665,84.014,64.193,92.13,73.53,98.429,72.285c14.031-2.775,20.812-37.129,12.691-35.442-7.026,1.46-6.442,34.022,4.229,32.095,14.273-2.578,19.231-35.644,20.1-42.172.784-5.86-5.457-5.894-6.132-.849-1.152,8.6,22.4-6.2,27.387-7.313,8.8-1.956-17.1,46.249-1.856,42.821,14.864-3.343,14.468-45.243,25.327-47.362,3.858-.753,3.415,2.482,3.415,2.482l-5.417,40.38" style="fill: none;stroke: #ff7e6d;stroke-linecap: round;stroke-linejoin: round;stroke-width: 4px"/>
    <path d="M213.557,37.353c5.689-1.227,6.415,11.44-2.232,13.106-5.33,1.027-6.883-5.266-6.171-10.585.966-7.214,8.442-32.33-4.821-29.743-13.4,2.615-18.069,16.36-18.758,21.5" style="fill: none;stroke: #ff7e6d;stroke-linecap: round;stroke-linejoin: round;stroke-width: 4px"/>
    <g>
      <path d="M90.475,99.09c1.968,3.849,3.182,9.136,3.336,16.171" style="fill: none;stroke: #fff5f3;stroke-linecap: round;stroke-linejoin: round;stroke-width: 12px"/>
      <path d="M44.757,107.952a39.644,39.644,0,0,1,5.831-6.132c1.352-1.155,2.787-2.27,4.283-3.322" style="fill: none;stroke: #fff5f3;stroke-linecap: round;stroke-linejoin: round;stroke-width: 12px"/>
      <path d="M59.863,190.379a30.911,30.911,0,0,1-5.556,1.564,17.294,17.294,0,0,1-6.33-.011" style="fill: none;stroke: #fff5f3;stroke-linecap: round;stroke-linejoin: round;stroke-width: 12px"/>
      <path d="M82.395,167.31a59.912,59.912,0,0,1-8.209,12.621" style="fill: none;stroke: #fff5f3;stroke-linecap: round;stroke-linejoin: round;stroke-width: 12px"/>
    </g>
    <path d="M81.916,168.259c-6.719,13.078-16,21.557-27.61,23.684a17.391,17.391,0,0,1-10.557-1.376" style="fill: none;stroke: #fdfdfd;stroke-linecap: round;stroke-linejoin: round;stroke-width: 4px"/>
    <path d="M46.079,129.49c-9.525,2.745-10.815-14.58,4.508-27.669,17.53-14.974,49.171-23.35,42.272,28.191-4.577,34.195-17.872,58.143-38.553,61.932-17,3.115-30.613-20.063-7.364-25.241" style="fill: none;stroke: #ff7e6d;stroke-linecap: round;stroke-linejoin: round;stroke-width: 4px"/>
    <line x1="61.438" y1="115.413" x2="53.348" y2="175.85" style="fill: none;stroke: #ff7e6d;stroke-linecap: round;stroke-linejoin: round;stroke-width: 4px"/>
    <path d="M161.739,133.959c8.766-10.986,13.6-29.568,8.833-28.639-12.145,2.369-12.192,45.293-.328,42.932,8.2-1.631,11.3-13.065,13.65-23.74" style="fill: none;stroke: #ff7e6d;stroke-linecap: round;stroke-linejoin: round;stroke-width: 4px"/>
    <path d="M94.373,159.22c4.609-.518,12.779-5.441,16.384-8.4,16.258-13.344,18.071-37.017,6.073-34.755-19.4,3.657-18.24,46.136-.574,42.777,15.879-3.019,33.773-38.321,34.5-43.053,1.906-12.356-12.451-4.175-13.8,5.342-1.839,13,15.629,18.661,12.766,40.048-1.868,13.952-21.211,22.192-19.586,10.05,1.382-10.321,29.021-20.194,31.548-39.067" style="fill: none;stroke: #ff7e6d;stroke-linecap: round;stroke-linejoin: round;stroke-width: 4px"/>
    <path d="M203.919,98.887c-11.138,2.173-18.94,17.963-20.163,26.658-1.937,13.773,4.919,19.187,12.016,17.79,11.129-2.191,17.766-30.743,10.655-29.406-9.013,1.694,1.169,70.4-15.683,73.822-4.356.884-8.032-2.785-7.737-7.22,1.164-17.474,32.373-27.022,36.828-59.048,1.894-13.616,1.59-26.5,8.317-27.816,3.858-.753,3.415,2.482,3.415,2.482l-5.417,40.38" style="fill: none;stroke: #ff7e6d;stroke-linecap: round;stroke-linejoin: round;stroke-width: 4px"/>
    <g>
      <polyline points="222.251 179.671 230.488 157.617 239.181 176.368" style="fill: none;stroke: #b2a1aa;stroke-linecap: round;stroke-linejoin: round;stroke-width: 4px"/>
      <polyline points="255.924 152.584 255.453 173.034 244.599 154.625 244.514 175.261" style="fill: none;stroke: #b2a1aa;stroke-linecap: round;stroke-linejoin: round;stroke-width: 4px"/>
      <path d="M262.574,171.611l.7-20.641s2.316-.409,2.848-.5c4.166-.69,8.377,2.942,8.214,7.711-.2,5.763-3.554,11.826-8.6,12.81Z" style="fill: none;stroke: #b2a1aa;stroke-linecap: round;stroke-linejoin: round;stroke-width: 4px"/>
      <line x1="225.031" y1="173.266" x2="236.689" y2="170.992" style="fill: none;stroke: #b2a1aa;stroke-linecap: round;stroke-linejoin: round;stroke-width: 4px"/>
    </g>
    <path d="M261.435,117.755c5.689-1.227,6.415,11.44-2.232,13.106-5.33,1.027-6.883-5.266-6.171-10.585.966-7.214,8.483-32.635-4.781-30.048-13.4,2.615-18.069,16.36-18.758,21.5" style="fill: none;stroke: #ff7e6d;stroke-linecap: round;stroke-linejoin: round;stroke-width: 4px"/>
  </g>
</svg>
