<svg xmlns="http://www.w3.org/2000/svg" width="24" height="24" viewBox="0 0 24 24" class="logo-small stroke-currentcolor">
  <defs>
    <style>
      .ls {
        fill: none;
        stroke: #ff7e6d;
        stroke-linecap: round;
        stroke-linejoin: round;
        stroke-width: 2px;
      }
    </style>
  </defs>
  <path class="ls" d="M13.375,23a12.9909,12.9909,0,0,1,1.58641-8.87416,9.50736,9.50736,0,0,0,6.18952-2.49056A6.75843,6.75843,0,0,0,23,6.79253l-4.8125-.98L16.8125,2.375l-.6875.6875L14.75,1l-1.36068.6875a6.61675,6.61675,0,0,0-5.31813.38089,6.71518,6.71518,0,0,0-2.94356,7.153A4.32671,4.32671,0,0,0,9.26432,12.6875c2.58263,0,4.11068-3.45208,4.11068-7.5625"/>
  <path class="ls" d="M1,16.8125c2.20971-1.74811,4.31836-4.54395,4.03905-8.13211"/>
</svg>
