<svg xmlns="http://www.w3.org/2000/svg" width="140.99707" height="36" viewBox="0 0 140.99707 36">
  <defs>
    <style>
      .a {
        fill: #ff7e6d;
      }

      .b {
        fill: #fff5f3;
      }

      .c, .d {
        fill: none;
      }

      .c {
        stroke: #ff7e6d;
        stroke-linecap: round;
        stroke-linejoin: round;
        stroke-width: 3px;
      }

      .e {
        fill: #ffe7e4;
      }
    </style>
  </defs>
  <title>logo-filled</title>
  <g>
    <g>
      <path class="a" d="M45.28564,9.93457A1.7929,1.7929,0,0,1,47.08545,8.1582a1.78813,1.78813,0,1,1-1.79981,1.77637Zm.45557,3.52832h2.68848V25.17578H45.74121Z"/>
      <path class="a" d="M63.38232,13.46289V25.17578H60.814V23.61572h-.04785a4.43,4.43,0,0,1-3.72021,1.752c-3.24024,0-5.66455-2.376-5.66455-6.00049,0-3.52832,2.42431-6.07227,5.64013-6.07227a4.58228,4.58228,0,0,1,3.62452,1.584h.04785v-1.416ZM60.814,19.39111a3.43118,3.43118,0,0,0-3.33642-3.67236,3.38127,3.38127,0,0,0-3.35986,3.67236,3.29727,3.29727,0,0,0,3.35986,3.52832A3.34768,3.34768,0,0,0,60.814,19.39111Z"/>
      <path class="a" d="M84.98242,18.40723v6.76855H82.294V19.0791c0-2.11181-.69581-3.36035-2.27979-3.36035-1.51221,0-2.73633,1.32031-2.73633,3.62451v5.83252H74.58936V19.0791c0-2.11181-.74366-3.36035-2.32813-3.36035-1.60791,0-2.80811,1.32031-2.80811,3.62451v5.83252H66.76465V13.46289h2.68847v1.63184h.02393a4.73081,4.73081,0,0,1,3.64844-1.79981,3.67321,3.67321,0,0,1,3.50439,1.94385h.04785a5.14029,5.14029,0,0,1,4.2002-1.94385C83.44629,13.29492,84.98242,14.90283,84.98242,18.40723Z"/>
      <path class="a" d="M86.82861,23.66357l1.34424-2.01611a4.48429,4.48429,0,0,0,3.38428,1.36816c1.03174,0,1.63183-.456,1.63183-1.15234,0-.59961-.76806-.88769-2.30419-1.416-1.91993-.67188-3.57618-1.53614-3.57618-3.84034,0-1.91992,1.728-3.312,4.12842-3.312a6.22987,6.22987,0,0,1,4.12842,1.46387l-1.34424,2.1123a4.30339,4.30339,0,0,0-2.92822-1.248c-.52783,0-1.272.28808-1.272,1.00781,0,.57617.71972.98437,1.84814,1.4165,2.49609.98389,4.05615,1.43994,4.05615,3.76807,0,1.96826-1.39209,3.55225-4.36816,3.55225A6.99216,6.99216,0,0,1,86.82861,23.66357Z"/>
      <path class="a" d="M98.32471,21.47949V15.74316H96.88428V13.46289h1.44043V9.57422l2.688-.2876v4.17627h3.43261v2.28027H101.0127v5.47217c0,1.2002.36035,1.63233,1.12841,1.63233a3.92881,3.92881,0,0,0,1.728-.50391l.6958,2.32813a5.44645,5.44645,0,0,1-2.97607.6958C99.57275,25.36768,98.32471,24.0957,98.32471,21.47949Z"/>
      <path class="a" d="M116.94922,20.25537H108.4043a3.23118,3.23118,0,0,0,3.33642,2.66406,3.64749,3.64749,0,0,0,2.92823-1.36816l1.87207,1.6084a6.02225,6.02225,0,0,1-4.94434,2.208,5.76541,5.76541,0,0,1-5.97656-6.04834c0-3.60059,2.44824-6.02442,5.7124-6.02442a5.5068,5.5068,0,0,1,5.68848,5.88037A10.00372,10.00372,0,0,1,116.94922,20.25537Zm-8.49707-2.16016h5.85644a2.80249,2.80249,0,0,0-2.832-2.37646A2.96321,2.96321,0,0,0,108.45215,18.09521Z"/>
      <path class="a" d="M129.26123,13.46289l-4.63232,11.71289h-2.56836L117.4043,13.46289h2.85644l3.07227,8.35254h.02392l3.02442-8.35254Z"/>
      <path class="a" d="M140.92529,20.25537h-8.54492a3.23118,3.23118,0,0,0,3.33643,2.66406,3.64748,3.64748,0,0,0,2.92822-1.36816l1.87207,1.6084a6.02225,6.02225,0,0,1-4.94434,2.208,5.76541,5.76541,0,0,1-5.97656-6.04834c0-3.60059,2.44824-6.02442,5.7124-6.02442a5.50679,5.50679,0,0,1,5.68848,5.88037A10.00111,10.00111,0,0,1,140.92529,20.25537Zm-8.49707-2.16016h5.85645a2.80251,2.80251,0,0,0-2.832-2.37646A2.96322,2.96322,0,0,0,132.42822,18.09521Z"/>
    </g>
    <g>
      <path class="b" d="M1.97217,25c3.21411-2.54271,6.28125-6.60938,5.875-11.82853l.12884.78686A9.76754,9.76754,0,0,1,12.25754,3.554,9.62433,9.62433,0,0,1,19.993,3l1.97917-1,2,3,1-1,2,5,7,1.42551a9.83048,9.83048,0,0,1-2.68956,7.044,13.82891,13.82891,0,0,1-9.00294,3.62263C20.52737,23.52861,19.0321,29.05957,19.97217,34,15.66956,28.24741,9.87891,24.90235,1.97217,25Z"/>
      <path class="c" d="M19.97217,34c-.94-4.94043.5552-10.47139,2.3075-12.90787a13.82891,13.82891,0,0,0,9.00294-3.62263,9.83048,9.83048,0,0,0,2.68956-7.044L26.97217,9l-2-5-1,1-2-3L19.993,3a9.62433,9.62433,0,0,0-7.73546.554A9.76754,9.76754,0,0,0,7.976,13.95833,6.2934,6.2934,0,0,0,13.993,19c3.75656,0,5.97917-5.02121,5.97917-11"/>
      <path class="c" d="M1.97217,25c3.21412-2.54271,6.28125-6.60938,5.875-11.82853"/>
    </g>
    <g>
      <rect class="d" width="36" height="36"/>
      <path class="e" d="M2,25c3.21411-2.54271,6.28125-6.60938,5.875-11.82853l-.00014-.00114A9.69372,9.69372,0,0,1,12.28537,3.554,9.62433,9.62433,0,0,1,20.02083,3L22,2l2,3,1-1,2,5,7,1.42551a9.83048,9.83048,0,0,1-2.68956,7.044,13.82891,13.82891,0,0,1-9.00294,3.62263C20.5552,23.52861,19.05994,29.05957,20,34,15.31873,28.10206,9.36646,24.99718,2,25Z"/>
      <path class="c" d="M20,34c-.94-4.94043.5552-10.47139,2.3075-12.90787a13.82891,13.82891,0,0,0,9.00294-3.62263A9.83048,9.83048,0,0,0,34,10.42551L27,9,25,4,24,5,22,2,20.02083,3a9.62433,9.62433,0,0,0-7.73546.554A9.76756,9.76756,0,0,0,8.00382,13.95833,6.2934,6.2934,0,0,0,14.02083,19C17.77739,19,20,13.97879,20,8"/>
      <path class="c" d="M2,25c3.21412-2.54271,6.28125-6.60938,5.875-11.82853"/>
    </g>
  </g>
</svg>
