<svg xmlns="http://www.w3.org/2000/svg" width="35" height="35" viewBox="0 0 35 35">
  <defs>
    <style>
      .a {
        fill: none;
        stroke: #553143;
        stroke-linecap: round;
        stroke-linejoin: round;
        stroke-width: 3px;
      }
    </style>
  </defs>
  <title>logo-3px</title>
  <g>
    <path class="a" d="M19.5,33.5c-.94-4.94043.5552-10.47139,2.3075-12.90787a13.82889,13.82889,0,0,0,9.00293-3.62263A9.83045,9.83045,0,0,0,33.5,9.92551L26.5,8.5l-2-5-1,1-2-3-1.97917,1a9.62436,9.62436,0,0,0-7.73546.554A9.76754,9.76754,0,0,0,7.50382,13.45833,6.2934,6.2934,0,0,0,13.52083,18.5C17.27739,18.5,19.5,13.47879,19.5,7.5"/>
    <path class="a" d="M1.5,24.5c3.21412-2.54271,6.28125-6.60937,5.875-11.82853"/>
  </g>
</svg>
