<svg xmlns="http://www.w3.org/2000/svg" xmlns:xlink="http://www.w3.org/1999/xlink" width="278.00715" height="375.06674" viewBox="0 0 278.00715 375.06674">
  <defs>
    <style>
      .a, .ac, .ak, .al, .an, .au, .bg, .bn, .bt, .bu, .bz, .c, .e, .i, .o, .s, .u, .x {
        fill: none;
      }

      .b, .bd, .bf {
        fill: #fff;
      }

      .bz, .c {
        stroke: #b29c8b;
      }

      .ac, .ak, .al, .an, .au, .bn, .bt, .bu, .bz, .c, .ca, .cb, .cc, .cd, .e, .i, .o, .s, .u {
        stroke-linecap: round;
      }

      .ac, .an, .au, .bn, .bt, .bu, .bz, .c, .ca, .cb, .cc, .cd, .e, .i, .o, .u {
        stroke-linejoin: round;
      }

      .an, .au, .bu, .bz, .c, .ca, .cb, .cc, .cd, .o, .s, .t, .u, .x {
        stroke-width: 2px;
      }

      .c {
        stroke-dasharray: 12 6 4 8 8 12;
      }

      .d {
        fill: #f9f2ed;
      }

      .e {
        stroke: #f9f2ed;
      }

      .e, .i {
        stroke-width: 6px;
      }

      .f {
        clip-path: url(#a);
      }

      .g {
        clip-path: url(#b);
      }

      .h {
        fill: #f2eae3;
      }

      .i {
        stroke: #f2eae3;
      }

      .j {
        opacity: 0.5;
      }

      .k {
        fill: #d1c8c3;
      }

      .l {
        fill: #dbd2cc;
      }

      .m {
        fill: #ede3dc;
      }

      .n {
        fill: #846664;
      }

      .bf, .bk, .n, .o, .p {
        opacity: 0.1;
      }

      .o {
        stroke: #846664;
      }

      .bq, .br, .bs, .bv, .ca, .q {
        fill: #563934;
      }

      .r {
        fill: #877870;
      }

      .s {
        stroke: #877870;
      }

      .ak, .al, .bg, .bj, .bm, .s, .t, .x, .z {
        stroke-miterlimit: 10;
      }

      .t {
        fill: #529962;
      }

      .ac, .bu, .t, .x {
        stroke: #367a43;
      }

      .u {
        stroke: #2f3f32;
      }

      .v {
        clip-path: url(#c);
      }

      .w {
        fill: #ccd3cb;
      }

      .x {
        stroke-linecap: square;
        stroke-opacity: 0.2;
      }

      .ab, .ad, .y, .z {
        fill: #367a43;
      }

      .z {
        stroke: #286331;
      }

      .aa {
        clip-path: url(#d);
      }

      .ab, .af, .bd, .bv {
        opacity: 0.2;
      }

      .ad, .bs {
        opacity: 0.4;
      }

      .ae {
        clip-path: url(#e);
      }

      .ag {
        fill: #9e3e3e;
      }

      .ah {
        fill: #e29898;
      }

      .ai {
        fill: #c46565;
      }

      .aj {
        fill: #ede4e4;
      }

      .ak {
        stroke: #fff;
      }

      .al {
        stroke: #c46565;
      }

      .am {
        fill: url(#f);
      }

      .an, .bt {
        stroke: #d1c8c3;
      }

      .ao {
        clip-path: url(#g);
      }

      .ap, .cb {
        fill: #492e2a;
      }

      .aq, .cd {
        fill: #60413e;
      }

      .ar {
        fill: #876c6b;
      }

      .as {
        clip-path: url(#h);
      }

      .at, .cc {
        fill: #3d2623;
      }

      .au, .ca, .cb, .cc, .cd {
        stroke: #2d1614;
      }

      .av {
        fill: #704b49;
      }

      .aw {
        fill: #d6cac4;
      }

      .ax {
        fill: #422926;
      }

      .ay {
        fill: #604545;
      }

      .az {
        clip-path: url(#i);
      }

      .ba {
        clip-path: url(#j);
      }

      .bb {
        fill: #56351e;
      }

      .bc {
        fill: #161313;
      }

      .be {
        fill: #0f0d0c;
      }

      .be, .bo {
        opacity: 0.3;
      }

      .bg {
        stroke: #161313;
      }

      .bh {
        clip-path: url(#k);
      }

      .bi {
        fill: #231f1d;
      }

      .bj {
        fill: #302c2b;
        stroke: #3a3635;
      }

      .bk, .bl {
        fill: #595656;
      }

      .bm {
        fill: #141110;
        stroke: #3f3a38;
      }

      .bn {
        stroke: #141110;
      }

      .bp {
        fill: #726f6e;
      }

      .bq {
        opacity: 0.8;
      }

      .br {
        opacity: 0.6;
      }

      .bw {
        clip-path: url(#l);
      }

      .bx {
        clip-path: url(#m);
      }

      .by {
        fill: #2d1614;
      }

      .ce {
        fill: #84605f;
      }
    </style>
    <clipPath id="a">
      <rect class="a" x="22.00715" y="15.47589" width="242" height="260"/>
    </clipPath>
    <clipPath id="b">
      <path class="a" d="M248.00764,73.99634c-3.88,3.99966-9.25,6.49945-13,3.99966-2.24-1.49987-5.87-2.64974-8-.99992-7.77,6.01951,3,19.99831,3,35.997,0,7.61935-12,17.49852-12,25.9978,0,13.32889,5.75,34.36709,5.75,48.99586,0,.27,0,.54994-.01.81994,2.02,4.12966,2.97,9.87917,2.83,15.26873a22.4463,22.4463,0,0,0,9.55,6.10947,15.59361,15.59361,0,0,1-9.85,7.41936,26.8812,26.8812,0,0,1-3.65,6.15951c5.36,8.2493,9.51,20.16828,9.44,37.27682-.1,25.43785-6.92,43.38635-14.01,46.3861-.57,19.54834-17.72,35.437-28.07,35.437,0,13.10888-17.12,17.76852-20.98,18.85839,0,5.34958-12.43,12.279-24.85,12.36895-12.43.09-24.86-6.66942-24.86-12.67892-8.29,0-21.54-8.68927-21.54-18.43844-14.99,0-29.2-16.20859-30.25-36.56692-9.59-2.61977-15.66-25.28784-15.66-45.27614,0-19.86832,6.04-32.75724,13.06-41.02656-.52-.81994-1-1.67985-1.45-2.55978a15.71861,15.71861,0,0,1-10.5-7.55936,22.27361,22.27361,0,0,0,9.59-6.14944,35.18962,35.18962,0,0,1,2.62-14.84878c-2.44-16.49861-5.16-34.13713-5.16-39.93663,0-4.99958,6-16.25864,6-22.02811,0-8.74926-7.58-22.39813-9.75-30.27747-.87-3.1497-9.99-6.47943-11.67-13.29886-1.3-5.27958-3.53-16.87858-3.53-16.87858-6.15,1.80984-13.07,3.25973-16.01,1.81985-1.87-.91991-3.01-3.40969-1.29-8.73925,1.42-4.39965,5.63-29.8975,5.63-29.8975,1.25-6.49945,7.89-10.51907,14.31-9.21919,0,0,17.68,2.61977,27.12,2.61977,13.73,0,24.52-2.00984,29.13,1.15988,4.15,2.85974,6.27,13.08892,11.06,14.68876,7,2.32982,58,1.3299,68-1.99983,7.47-2.48978,10.5-19.99831,20-19.99831,10.06,0,26.25,16.99856,36,16.99856,5.77,0,19.72-1.74985,23,2.99975C263.76765,45.32878,255.05763,66.717,248.00764,73.99634Z"/>
    </clipPath>
    <clipPath id="c">
      <path class="a" d="M174.7198,217.55437a120.89428,120.89428,0,0,1-29.71265,3.37362V241.4785a111.21711,111.21711,0,0,0,30.0097-3.49861Zm-26.71265,21.6369V222.57378a97.84135,97.84135,0,0,0,23.97757-2.72792l.26445,16.51637A90.16425,90.16425,0,0,1,148.00715,239.19128Z"/>
    </clipPath>
    <clipPath id="d">
      <path class="a" d="M175.70322,227.01445a48.50892,48.50892,0,0,1-13.97.91679l.19647,2.99328a50.44359,50.44359,0,0,0,13.97-.91673Z"/>
    </clipPath>
    <clipPath id="e">
      <path class="a" d="M193.14688,140.203c-1.46276-.02214-2.536.07045-2.536.07045-8.42829.7905-13.44891,20.20948-15.46714,30.97248-3,15.99865-13.90087,22.99806-31,22.99806-19.78637,0-28-6.99941-31-22.99806-1.971-10.511-6.80541-29.27746-14.8808-30.8865L70.32127,197.9488c.05426.1818-5.38122,5.40329-10.5707,10.47626,3.75815,11.88575,10.48663,22.66738,22.55984,22.66738,0-5.03394,1.66492-11.27969,7.31909-11.27969,0,0,.05029,4.10805,3.68726,4.10805,0-3.23123,3.30786-4.07607,3.30786-4.07607s1.56152,3.08153,4.57719,3.08153c0-2.325,3.50588-2.17322,3.50588-2.17322s2.372,8.40847,8.84985,8.40847c0-6.52579,6.73411-5.81675,6.73411-5.81675s1.86065,6.03951,4.85207,6.03951c0-3.666,4.875-3.74968,4.875-3.74968a8.67722,8.67722,0,0,0,8,5.24956c0-2.63241,2.754-4.45922,4.42413-4.45922,0,3.2621,4.48561,4.07761,4.48561,4.07761s1.51065,3.59526,7.63006,3.59526c0-6.5311,8.22394-8.3212,8.22394-8.3212a11.30957,11.30957,0,0,0,9.864,5.65077c0-3.143,3.28642-4.97547,7.2662-4.97547,0-3.61768,5.9001-4.23361,5.9001-4.23361s2.75279,5.82411,8.656,5.82411c0,0-.12894-8.31753,6.66772-8.31753,7.0072,3.70157,5.40259,10.38444,5.40259,11.43812,16.31882,0,21.06564-14.64091,22.4461-23.03369.55464-3.372-5.5851-4.534-5.5851-4.534l-30.25639-63.32848Z"/>
    </clipPath>
    <linearGradient id="f" x1="144.00715" y1="198.98319" x2="144.00715" y2="139.98817" gradientUnits="userSpaceOnUse">
      <stop offset="0" stop-color="#846664" stop-opacity="0.02"/>
      <stop offset="1" stop-color="#846664" stop-opacity="0.1"/>
    </linearGradient>
    <clipPath id="g">
      <path class="a" d="M57.00715,199.9831c20.55722,0,28.46-11.49254,36.7604-25.22885,1.43316-2.37172.87817-5.81025,2.40222-8.26815,1.362-2.19654,4.78711-3.40857,6.3233-5.60193a72.66531,72.66531,0,0,1,13.51408-14.89651c25.66667-20.99823,31.33333-60.99485,9-133.98868l-85-.99992L1.17576,41.51251Z"/>
    </clipPath>
    <clipPath id="h">
      <path class="a" d="M166.00715,37.99679c-3.5,9.99916,1,15.99865,18,35.997,0,0,24.0738,31.33871,8.58058,49.42806a8.01285,8.01285,0,0,0-1.9065,6.54412s4.61625,27.983,7.32591,37.02c2.668,8.89792,8.65546,27.74111,14.728,28.76485,8.08916,1.36372,17.67862,12.11045,23.39663,14.43735L269.00715,25.9978,195.00715,0Z"/>
    </clipPath>
    <clipPath id="i">
      <ellipse class="a" cx="110.7841" cy="102.96617" rx="14" ry="11.99899"/>
    </clipPath>
    <clipPath id="j">
      <path class="a" d="M129.1591,102.96617c0,8.05157-6.268,13.53732-14,13.53732s-14-5.48575-14-13.53732,6.268-13.53732,14-13.53732S129.1591,94.91461,129.1591,102.96617Z"/>
    </clipPath>
    <clipPath id="k">
      <path class="a" d="M144.00715,142.96279c-12.98706,0-17,5.26233-17,10.0859s2.6369,17.91173,16.56818,17.91173h.86364c14.15747,0,16.56818-13.08816,16.56818-17.91173S156.99422,142.96279,144.00715,142.96279Z"/>
    </clipPath>
    <clipPath id="l">
      <ellipse class="a" cx="172.89648" cy="102.96617" rx="14" ry="11.99899"/>
    </clipPath>
    <clipPath id="m">
      <path class="a" d="M154.52148,102.96617c0,8.05157,6.268,13.53732,14,13.53732s14-5.48575,14-13.53732-6.268-13.53732-14-13.53732S154.52148,94.91461,154.52148,102.96617Z"/>
    </clipPath>
  </defs>
  <title>osc-white</title>
  <g>
    <path class="b" d="M242.07014,275.47589a136,136,0,1,0-202.126,0Z"/>
    <path class="c" d="M242.07014,263.47589a136,136,0,1,0-202.126,0"/>
    <g>
      <path class="d" d="M58.61716,273.51895c1.675.33526,2.58062,1.47429,4.2578,1.78795,1.67893.314,3.54035-.36117,5.2215-.06872,1.68264.29271,3.35952.60767,5.04437.87891,1.68607.27144,3.08247,2.48776,4.77074,2.73782,1.68922.25019,3.62856-1.17408,5.32-.94519,1.69208.229,3.3553.71265,5.04955.92042,1.69466.20782,3.3186,1.11134,5.01543,1.29805s3.3374,1.10423,5.03652,1.27,3.59886-1.7465,5.3-1.60168c1.70077.14479,3.46738-.6357,5.17028-.51168,1.70227.124,3.21945,3.09376,4.92385,3.19709,1.70352.10328,3.584-2.9814,5.2896-2.89864,1.70452.08271,3.34053,1.60413,5.04715,1.66646,1.70528.06228,3.37751,1.5286,5.08487,1.57065,1.70579.042,3.45452-1.83457,5.16238-1.81266,1.70608.02189,3.40544,2.38551,5.11357,2.38746,1.70613.002,3.41549-1.925,5.12365-1.94286,1.70595-.01781,3.44953,1.62533,5.1575,1.58789,1.70546-.03738,3.43754.11407,5.145.05722,1.70478-.05675,3.35528-1.83634,5.062-1.91239,1.70391-.07592,3.2908-2.31071,4.99667-2.40576,1.70286-.09488,3.607,3.131,5.31184,3.01714,1.70165-.11361,3.45991.291,5.16349.15862,1.70028-.13213,3.17275-3.08551,4.87494-3.23624,1.69877-.15042,3.30086-1.19106,5.00152-1.3599,1.69708-.16849,3.49884.77444,5.19779.58771,1.695-.18628,3.64811,1.81631,5.34493,1.612,1.69284-.20385,3.24855-1.59052,4.94322-1.81223,1.69071-.2212,3.5545.74546,5.247.50659,1.68856-.23831,2.97063-3.27939,4.661-3.5352,1.68576-.25511,3.32959-.70421,5.01713-.97662,1.68353-.27176,3.87987,2.51984,5.56516,2.231,1.68076-.28811,1.43834-2.091,3.12083-2.396-1.69742.05929-1.68384,1.89667-3.3803,1.95247-1.69748.05584-3.48706-2.76673-5.18358-2.7144-1.69754.05236-3.41481-.67011-5.11137-.62125-1.69759.04888-3.33578,2.16322-5.03239,2.20858-1.69763.04538-3.42209-.99369-5.11874-.95184-1.69767.04188-3.34637,2.15533-5.04306,2.19366-1.6977.03835-3.44378-2.17741-5.14049-2.14262-1.69772.03482-3.39194.12176-5.08868.153-1.69774.03127-3.36805,1.59413-5.0648,1.62183-1.69775.02771-3.38621.76478-5.083.7889-1.69776.02414-3.416-1.45086-5.11273-1.43032-1.69776.02055-3.38393,1.11544-5.08069,1.13238-1.69776.017-3.39512.26539-5.09187.27872-1.69774.01334-3.394.62584-5.09073.63554-1.69773.00971-3.40927-2.93936-5.106-2.93329-1.69828.00608-3.39347-.00213-5.09073.00029-1.69818.00242-3.39529,2.83574-5.09246,2.83449-1.69808-.00124-3.39632-.97531-5.09338-.98023-1.698-.00492-3.39486-.39647-5.09181-.40508-1.69785-.00862-3.38549-1.43278-5.08232-1.4451-1.69774-.01232-3.41068,1.907-5.10739,1.89095-1.69761-.016-3.37793-1.62129-5.07451-1.641-1.69748-.01977-3.39378.0398-5.09023.0163-1.69735-.02351-3.37469-1.162-5.071-1.18928-1.69777-.02727-3.43688,2.45735-5.1336,2.42632-1.6975-.031-3.37147-1.25811-5.06792-1.29291-1.69723-.03482-3.39409-.013-5.09027-.05163-1.697-.03861-3.37322-.84449-5.06913-.88689-1.6967-.04241-3.3762-.59648-5.07185-.64269-1.69692-.04624-3.41886.90483-5.11472.85479-1.69641-.05006-3.38351-.32551-5.07886-.37939-1.6964-.05391-3.48421,2.65407-5.17955,2.59633S60.31144,273.58052,58.61716,273.51895Z"/>
      <path class="e" d="M58.61716,273.51895c1.675.33526,2.58062,1.47429,4.2578,1.78795,1.67893.314,3.54035-.36117,5.2215-.06872,1.68264.29271,3.35952.60767,5.04437.87891,1.68607.27144,3.08247,2.48776,4.77074,2.73782,1.68922.25019,3.62856-1.17408,5.32-.94519,1.69208.229,3.3553.71265,5.04955.92042,1.69466.20782,3.3186,1.11134,5.01543,1.29805s3.3374,1.10423,5.03652,1.27,3.59886-1.7465,5.3-1.60168c1.70077.14479,3.46738-.6357,5.17028-.51168,1.70227.124,3.21945,3.09376,4.92385,3.19709,1.70352.10328,3.584-2.9814,5.2896-2.89864,1.70452.08271,3.34053,1.60413,5.04715,1.66646,1.70528.06228,3.37751,1.5286,5.08487,1.57065,1.70579.042,3.45452-1.83457,5.16238-1.81266,1.70608.02189,3.40544,2.38551,5.11357,2.38746,1.70613.002,3.41549-1.925,5.12365-1.94286,1.70595-.01781,3.44953,1.62533,5.1575,1.58789,1.70546-.03738,3.43754.11407,5.145.05722,1.70478-.05675,3.35528-1.83634,5.062-1.91239,1.70391-.07592,3.2908-2.31071,4.99667-2.40576,1.70286-.09488,3.607,3.131,5.31184,3.01714,1.70165-.11361,3.45991.291,5.16349.15862,1.70028-.13213,3.17275-3.08551,4.87494-3.23624,1.69877-.15042,3.30086-1.19106,5.00152-1.3599,1.69708-.16849,3.49884.77444,5.19779.58771,1.695-.18628,3.64811,1.81631,5.34493,1.612,1.69284-.20385,3.24855-1.59052,4.94322-1.81223,1.69071-.2212,3.5545.74546,5.247.50659,1.68856-.23831,2.97063-3.27939,4.661-3.5352,1.68576-.25511,3.32959-.70421,5.01713-.97662,1.68353-.27176,3.87987,2.51984,5.56516,2.231,1.68076-.28811,1.43834-2.091,3.12083-2.396-1.69742.05929-1.68384,1.89667-3.3803,1.95247-1.69748.05584-3.48706-2.76673-5.18358-2.7144-1.69754.05236-3.41481-.67011-5.11137-.62125-1.69759.04888-3.33578,2.16322-5.03239,2.20858-1.69763.04538-3.42209-.99369-5.11874-.95184-1.69767.04188-3.34637,2.15533-5.04306,2.19366-1.6977.03835-3.44378-2.17741-5.14049-2.14262-1.69772.03482-3.39194.12176-5.08868.153-1.69774.03127-3.36805,1.59413-5.0648,1.62183-1.69775.02771-3.38621.76478-5.083.7889-1.69776.02414-3.416-1.45086-5.11273-1.43032-1.69776.02055-3.38393,1.11544-5.08069,1.13238-1.69776.017-3.39512.26539-5.09187.27872-1.69774.01334-3.394.62584-5.09073.63554-1.69773.00971-3.40927-2.93936-5.106-2.93329-1.69828.00608-3.39347-.00213-5.09073.00029-1.69818.00242-3.39529,2.83574-5.09246,2.83449-1.69808-.00124-3.39632-.97531-5.09338-.98023-1.698-.00492-3.39486-.39647-5.09181-.40508-1.69785-.00862-3.38549-1.43278-5.08232-1.4451-1.69774-.01232-3.41068,1.907-5.10739,1.89095-1.69761-.016-3.37793-1.62129-5.07451-1.641-1.69748-.01977-3.39378.0398-5.09023.0163-1.69735-.02351-3.37469-1.162-5.071-1.18928-1.69777-.02727-3.43688,2.45735-5.1336,2.42632-1.6975-.031-3.37147-1.25811-5.06792-1.29291-1.69723-.03482-3.39409-.013-5.09027-.05163-1.697-.03861-3.37322-.84449-5.06913-.88689-1.6967-.04241-3.3762-.59648-5.07185-.64269-1.69692-.04624-3.41886.90483-5.11472.85479-1.69641-.05006-3.38351-.32551-5.07886-.37939-1.6964-.05391-3.48421,2.65407-5.17955,2.59633S60.31144,273.58052,58.61716,273.51895Z"/>
    </g>
    <g class="f">
      <g class="g">
        <path class="d" d="M111.00715,38.99671c7,2.33314,58,1.33322,68-1.99983,7.47464-2.49134,39,93.4921,39,101.99138,0,13.32662,5.75,34.3721,5.75,48.99586,0,15.62368-8.25,31.62233-8.25,41.99645,0,13.87543-146.5,17.87349-146.5-9.87417,0-10.74909-9-60.50691-9-71.05648,0-4.99958,6-16.25819,6-22.0294C66.00715,118.27126,106.21924,37.40087,111.00715,38.99671Z"/>
        <path class="d" d="M97.75715,342.971c0,9.74918,13.25,18.4452,21.5424,18.4452,0,6.00786,12.4269,12.76148,24.8538,12.67439s24.85381-7.01488,24.85381-12.37118c3.86159-1.08885,20.98465-5.74951,20.98465-18.85884,10.51535,0,28.07127-16.38818,28.07127-36.42262,0-18.22868-4.49945-41.05944-11.58736-47.52959H85.06032s-17.61387,5.99547-17.61387,45.0949C67.44644,325.4725,82.17384,342.971,97.75715,342.971Z"/>
        <path class="d" d="M86.35483,205.9826s-34.51119,7.666-34.51119,55.14417c0,21.25841,6.85967,45.53872,17.53115,45.53872,0-17.26957,9.12693-21.51639,9.12693-21.51639s-1.49456,24.44975,15.16474,36.71367c0-8.51424,7.51428-15.77547,13.62018-15.77547,0,19.56478,8.04406,31.63611,14.32225,31.63611a18.15424,18.15424,0,0,1,11.7948-17.52879S138.17777,343.47,147.88977,343.47c0-29.16318,11.91179-35.94021,11.91179-35.94021s5.37487,21.47145,18.16474,21.47145c0-7.40245-.56166-21.11485-.56166-21.11485s14.41137-.38294,14.41137,16.13938c18.49794-9.654,12.91811-33.7019,12.91811-33.7019s11.23314.84887,11.23314,17.55529c7.76685,0,15.98958-18.90376,16.10032-46.8348.18957-47.81234-32.467-55.06173-32.467-55.06173Z"/>
        <g>
          <path class="h" d="M54.33569,221.43542c2.022,2.01721,1.259,4.79681,3.18323,4.79681a10.1254,10.1254,0,0,1,2.46552-4.79454c1.20875-1.56506,1.702-4.17019,3.1881-4.96385,2.68811-1.43563,2.46464-1.04371,4.53224.78284,2.11638,1.86964,1.28282.87166,1.34621,4.19162a45.394,45.394,0,0,0,.593,5.5644c.26747,1.80284-1.04522,4.16678-.437,5.98858.5953,1.78319,4.14676,2.1119,5.18236,3.6855,1.02468,1.557.5933,3.10267,2.15877,4.235a8.84745,8.84745,0,0,1,1.88215-3.65152c1.13439-1.26688,3.67276-.1645,4.923-.72754,2.35256-1.05946,2.1669-4.51723,4.23807-3.52167.90515,1.496,1.11716,4.06876,2.08478,5.42876,1.01423,1.42552,3.48585,1.5905,4.57367,2.85579,1.13928,1.32515-.17284,4.99444,1.05284,6.13144,1.27583,1.18353,3.57249,1.33951,4.94838,2.30516a33.74289,33.74289,0,0,0,4.54377,2.54917,31.438,31.438,0,0,0,4.97252,1.46977c1.611.47519,4.31977-.297,6.05226-.08632,1.841,1.78583-1.4609,3.81888.20973,6.32838.83172,1.24935,3.17729,1.68833,4.58729,2.95761,1.17822,1.06063,2.75526,1.52177,4.40721,2.33983a10.32572,10.32572,0,0,0,3.52429.94854c.20609-1.69768,2.65083-1.38331,3.13276-2.75463.5644-1.606-1.005-4.19023-.18268-5.39869.95423-1.40234,4.38453-.37361,5.49706-1.31919,1.33263-1.13265,1.81769-2.76432,3.05734-3.37472,2.48813-1.22514,3.36967-4.85011,5.15867-3.31644,2.13849,1.83327-2.2039,4.27387-.89752,7.23735.68113,1.54512,3.51467,2.3188,4.72336,3.93336,1.08172,1.445,1.27246,4.23149,2.86641,5.34914,1.45876,1.02286,3.372-.36258,5.32772.09605a24.90547,24.90547,0,0,1,.74948-3.872,31.98919,31.98919,0,0,1,1.17714-4.74741c.63594-1.80145.56763-3.87228,1.27656-4.98548,1.66932-2.62126,2.69349-4.46063,4.86431-3.42529,2.0861.99494,1.46358,1.79641,2.97745,3.98146.78188,1.12853-.50274,4.55666.82173,5.602,1.126.88869,3.218,1.29475,4.7993,1.82,1.33825.44456,3.23237-.14381,4.93513-.14381,1.62056-1.02768,2.3965-3.30364,3.79758-4.07346a50.88943,50.88943,0,0,1,4.91641-2.20839c1.803-.7639,3.80683-.61014,5.34116-.98552,1.82812-.44726,3.56064-1.39209,5.23158-1.48187,1.72277-.09256,3.529-.09666,5.34791-.037,1.62536.05331,2.23069.09569,4.13483.09569,0-1.65239,1.39537-2.00284,1.63654-3.56753.25214-1.63588,2.05935-2.7644,2.50681-4.27664.47407-1.60221.08819-3.31851.7008-4.74912.67281-1.57118.89758-3.22376,1.63241-4.54523.87871-1.58022,2.89192-2.16459,3.68663-3.3175,1.67725-2.43326-.5458-3.69486,1.73381-4.51384,2.451-.88058,2.05558.54573,4.17948,2.17082,1.16432.89087,4.11679.3272,4.347,2.51122.81116-.95362-1.14831-1.92691-.51645-3.42373.92859-2.19974,3.17213-1.00267,4.24445-3.02534.69089-.37936.71608-2.88249.6448-5.50147a47.02186,47.02186,0,0,0-.945-5.05077,48.83,48.83,0,0,0-.64708-5.07048c-.4162-1.56038-1.73981-2.96581-2.33574-4.58227-.56928-1.54416-.446-3.49318-1.18952-5.01633-.73095-1.49731-2.27834-2.6426-3.18732-4.052-.90976-1.41062-3.21427-1.667-4.31192-2.92246-1.10636-1.26538-1.01448-3.6423-2.32148-4.68149a23.78906,23.78906,0,0,0-4.365-2.56485,21.9912,21.9912,0,0,0-4.79363-1.63264c-2.614.36509-2.83108-.362-5.38546.3025-2.55679.66512-2.59973.50007-5.15652,1.16519-2.55524.66471-2.1247,2.31976-4.67994,2.98448-2.55651.665-2.97872-.958-5.53523-.293-2.55762.66533-2.11386,2.37118-4.67148,3.03651s-2.7615-.11842-5.31911.5469-2.4544,1.0623-5.01205,1.72764c-2.55832.66551-2.291,1.69323-4.84929,2.35874-2.55693.66515-2.78491-.21123-5.34184.45393-2.55916.66573-3.03085-1.14751-5.59-.48178-2.56091.66619-2.50483.8818-5.06574,1.548s-2.12384,1.22-4.77,1.22682c-2.53636.00651-2.75923,1.99053-5.21,1.3372-2.45116-.65343-1.8117-3.05216-4.26286-3.7056-2.45079-.65334-2.30574-1.19746-4.75653-1.8508-2.44839-.6527-3.18545,2.11216-5.63384,1.45947-2.4507-.65331-2.13066-1.85386-4.58137-2.50717-2.44922-.65292-2.17059-1.69811-4.6198-2.351-2.45043-.65324-2.38537-.89729-4.8358-1.55053-2.45149-.65352-3.111,1.82034-5.56248,1.16682s-2.0313-2.22975-4.48279-2.88327-3.1,1.779-5.55155,1.12551c-2.45083-.65335-1.62267-3.75992-4.07351-4.41327-2.45117-.65344-2.7847.59771-5.23587-.05573-2.4533-.654-2.96362,1.26028-5.41692.60627-2.455-.65446-2.18208-1.67818-4.63707-2.33264s-2.19548-1.43377-4.72546-1.6671c-1.51138.71669-1.92032,2.40244-3.272,3.396-1.33863.984-3.99749.34533-5.1806,1.54428a40.46165,40.46165,0,0,0-3.01077,4.09331c-1.01114,1.33015-3.07524,2.06738-3.93881,3.49731-.871,1.44226-.52876,3.6267-1.25072,5.11618-.74353,1.534-.40239,3.47995-.989,5.00531-.62226,1.61815-.48912,3.32746-.9361,4.86684-.498,1.71526-2.9788,2.81164-3.261,4.33577a28.52592,28.52592,0,0,0-.23,5.08192C51.22557,220.90541,53.32546,221.21266,54.33569,221.43542Z"/>
          <path class="i" d="M54.33569,221.43542c2.022,2.01721,1.259,4.79681,3.18323,4.79681a10.1254,10.1254,0,0,1,2.46552-4.79454c1.20875-1.56506,1.702-4.17019,3.1881-4.96385,2.68811-1.43563,2.46464-1.04371,4.53224.78284,2.11638,1.86964,1.28282.87166,1.34621,4.19162a45.394,45.394,0,0,0,.593,5.5644c.26747,1.80284-1.04522,4.16678-.437,5.98858.5953,1.78319,4.14676,2.1119,5.18236,3.6855,1.02468,1.557.5933,3.10267,2.15877,4.235a8.84745,8.84745,0,0,1,1.88215-3.65152c1.13439-1.26688,3.67276-.1645,4.923-.72754,2.35256-1.05946,2.1669-4.51723,4.23807-3.52167.90515,1.496,1.11716,4.06876,2.08478,5.42876,1.01423,1.42552,3.48585,1.5905,4.57367,2.85579,1.13928,1.32515-.17284,4.99444,1.05284,6.13144,1.27583,1.18353,3.57249,1.33951,4.94838,2.30516a33.74289,33.74289,0,0,0,4.54377,2.54917,31.438,31.438,0,0,0,4.97252,1.46977c1.611.47519,4.31977-.297,6.05226-.08632,1.841,1.78583-1.4609,3.81888.20973,6.32838.83172,1.24935,3.17729,1.68833,4.58729,2.95761,1.17822,1.06063,2.75526,1.52177,4.40721,2.33983a10.32572,10.32572,0,0,0,3.52429.94854c.20609-1.69768,2.65083-1.38331,3.13276-2.75463.5644-1.606-1.005-4.19023-.18268-5.39869.95423-1.40234,4.38453-.37361,5.49706-1.31919,1.33263-1.13265,1.81769-2.76432,3.05734-3.37472,2.48813-1.22514,3.36967-4.85011,5.15867-3.31644,2.13849,1.83327-2.2039,4.27387-.89752,7.23735.68113,1.54512,3.51467,2.3188,4.72336,3.93336,1.08172,1.445,1.27246,4.23149,2.86641,5.34914,1.45876,1.02286,3.372-.36258,5.32772.09605a24.90547,24.90547,0,0,1,.74948-3.872,31.98919,31.98919,0,0,1,1.17714-4.74741c.63594-1.80145.56763-3.87228,1.27656-4.98548,1.66932-2.62126,2.69349-4.46063,4.86431-3.42529,2.0861.99494,1.46358,1.79641,2.97745,3.98146.78188,1.12853-.50274,4.55666.82173,5.602,1.126.88869,3.218,1.29475,4.7993,1.82,1.33825.44456,3.23237-.14381,4.93513-.14381,1.62056-1.02768,2.3965-3.30364,3.79758-4.07346a50.88943,50.88943,0,0,1,4.91641-2.20839c1.803-.7639,3.80683-.61014,5.34116-.98552,1.82812-.44726,3.56064-1.39209,5.23158-1.48187,1.72277-.09256,3.529-.09666,5.34791-.037,1.62536.05331,2.23069.09569,4.13483.09569,0-1.65239,1.39537-2.00284,1.63654-3.56753.25214-1.63588,2.05935-2.7644,2.50681-4.27664.47407-1.60221.08819-3.31851.7008-4.74912.67281-1.57118.89758-3.22376,1.63241-4.54523.87871-1.58022,2.89192-2.16459,3.68663-3.3175,1.67725-2.43326-.5458-3.69486,1.73381-4.51384,2.451-.88058,2.05558.54573,4.17948,2.17082,1.16432.89087,4.11679.3272,4.347,2.51122.81116-.95362-1.14831-1.92691-.51645-3.42373.92859-2.19974,3.17213-1.00267,4.24445-3.02534.69089-.37936.71608-2.88249.6448-5.50147a47.02186,47.02186,0,0,0-.945-5.05077,48.83,48.83,0,0,0-.64708-5.07048c-.4162-1.56038-1.73981-2.96581-2.33574-4.58227-.56928-1.54416-.446-3.49318-1.18952-5.01633-.73095-1.49731-2.27834-2.6426-3.18732-4.052-.90976-1.41062-3.21427-1.667-4.31192-2.92246-1.10636-1.26538-1.01448-3.6423-2.32148-4.68149a23.78906,23.78906,0,0,0-4.365-2.56485,21.9912,21.9912,0,0,0-4.79363-1.63264c-2.614.36509-2.83108-.362-5.38546.3025-2.55679.66512-2.59973.50007-5.15652,1.16519-2.55524.66471-2.1247,2.31976-4.67994,2.98448-2.55651.665-2.97872-.958-5.53523-.293-2.55762.66533-2.11386,2.37118-4.67148,3.03651s-2.7615-.11842-5.31911.5469-2.4544,1.0623-5.01205,1.72764c-2.55832.66551-2.291,1.69323-4.84929,2.35874-2.55693.66515-2.78491-.21123-5.34184.45393-2.55916.66573-3.03085-1.14751-5.59-.48178-2.56091.66619-2.50483.8818-5.06574,1.548s-2.12384,1.22-4.77,1.22682c-2.53636.00651-2.75923,1.99053-5.21,1.3372-2.45116-.65343-1.8117-3.05216-4.26286-3.7056-2.45079-.65334-2.30574-1.19746-4.75653-1.8508-2.44839-.6527-3.18545,2.11216-5.63384,1.45947-2.4507-.65331-2.13066-1.85386-4.58137-2.50717-2.44922-.65292-2.17059-1.69811-4.6198-2.351-2.45043-.65324-2.38537-.89729-4.8358-1.55053-2.45149-.65352-3.111,1.82034-5.56248,1.16682s-2.0313-2.22975-4.48279-2.88327-3.1,1.779-5.55155,1.12551c-2.45083-.65335-1.62267-3.75992-4.07351-4.41327-2.45117-.65344-2.7847.59771-5.23587-.05573-2.4533-.654-2.96362,1.26028-5.41692.60627-2.455-.65446-2.18208-1.67818-4.63707-2.33264s-2.19548-1.43377-4.72546-1.6671c-1.51138.71669-1.92032,2.40244-3.272,3.396-1.33863.984-3.99749.34533-5.1806,1.54428a40.46165,40.46165,0,0,0-3.01077,4.09331c-1.01114,1.33015-3.07524,2.06738-3.93881,3.49731-.871,1.44226-.52876,3.6267-1.25072,5.11618-.74353,1.534-.40239,3.47995-.989,5.00531-.62226,1.61815-.48912,3.32746-.9361,4.86684-.498,1.71526-2.9788,2.81164-3.261,4.33577a28.52592,28.52592,0,0,0-.23,5.08192C51.22557,220.90541,53.32546,221.21266,54.33569,221.43542Z"/>
        </g>
        <path class="h" d="M86.42292,206.27472s-.42371.21179-1.20874.64539c-.78589.41858-1.89539,1.12317-3.2688,2.009-1.36816.90173-2.94885,2.0979-4.676,3.50244a59.54175,59.54175,0,0,0-5.32751,5.12573c-.45947.48486-.89795,1.00854-1.33557,1.54651-.45142.52368-.87781,1.08569-1.30066,1.66248-.43005.56946-.87231,1.13892-1.29028,1.74231-.43909.58447-.85083,1.20288-1.24927,1.84155a55.53012,55.53012,0,0,0-4.30347,8.35071c-.62061,1.50342-1.183,3.06238-1.71619,4.651q-.356,1.20941-.71594,2.43262-.31952,1.238-.64185,2.48755a81.3665,81.3665,0,0,0-1.71692,10.37573c-.361,3.56042-.52734,7.08081-.5592,10.73059.00549,1.70959.031,3.51892.07959,5.26306.07239,1.752.16248,3.48572.27747,5.19031.25793,3.40564.55725,6.70483,1.02161,9.80151.22754,1.54822.525,3.03674.78918,4.47986.25085,1.45178.57019,2.82434.89246,4.14294a50.762,50.762,0,0,0,2.30518,6.93555,19.00562,19.00562,0,0,0,2.85364,4.6571,7.84566,7.84566,0,0,0,2.799,2.08679,5.88453,5.88453,0,0,0,.91406.32886c.21777.06665.3302.1012.3302.1012l.10266.03137a.291.291,0,0,1-.10266.5686l-.36414-.02185a5.60914,5.60914,0,0,1-1.05518-.12061,8.42319,8.42319,0,0,1-3.62451-1.651,18.08362,18.08362,0,0,1-4.08459-4.55249,38.62862,38.62862,0,0,1-3.50793-7.05176,84.68,84.68,0,0,1-4.56177-19.06592,107.6101,107.6101,0,0,1-.86511-11.03821,98.1773,98.1773,0,0,1,.39355-11.42737A73.76207,73.76207,0,0,1,53.77534,240.772,56.38235,56.38235,0,0,1,57.64851,230.368,48.99845,48.99845,0,0,1,69.515,214.77777a44.90777,44.90777,0,0,1,11.76392-7.37451,29.76737,29.76737,0,0,1,5.00781-1.71277.29677.29677,0,0,1,.19324.55591Z"/>
        <path class="h" d="M215.95588,307.57928l.34338-.10645a6.92861,6.92861,0,0,0,.83777-.40808,8.03536,8.03536,0,0,0,2.40845-2.43005,22.92115,22.92115,0,0,0,2.35022-4.92444c.33337-1.024.68665-2.10937,1.021-3.27417.32556-1.16846.625-2.41382.8822-3.73242a83.77033,83.77033,0,0,0,1.41272-8.57214c.194-1.53467.38684-3.11316.526-4.73645.16675-1.619.30957-3.27856.41052-4.97156.13074-1.68958.23633-3.41223.29749-5.16052.08691-1.74634.15881-3.51733.18408-5.30591q.028-1.342.0564-2.69385-.01135-1.342-.02246-2.69116c.00671-1.95886-.12756-3.5719-.17529-5.326a93.78816,93.78816,0,0,0-1.28406-10.44324c-.37048-1.67981-.6759-3.37134-1.14673-4.98584-.19836-.82251-.446-1.61938-.70642-2.4054-.23547-.79651-.46436-1.59277-.7572-2.35193a48.41761,48.41761,0,0,0-3.93945-8.54468,47.0292,47.0292,0,0,0-10.05383-12.193,42.15824,42.15824,0,0,0-4.61108-3.49524,36.01079,36.01079,0,0,0-3.25159-1.94678c-.7771-.41626-1.20239-.60449-1.20239-.60449l-.05237-.02319a.29723.29723,0,0,1,.18237-.5625s.48022.10266,1.33606.37134a33.14552,33.14552,0,0,1,3.61816,1.39063,42.2658,42.2658,0,0,1,11.44373,7.66589,48.072,48.072,0,0,1,11.04883,15.98669,63.6344,63.6344,0,0,1,3.45215,10.45117,83.88689,83.88689,0,0,1,1.75232,11.21912c.11121,1.90137.28906,3.81531.28894,5.69141.0481,1.87671.07556,3.78577.0127,5.64429-.11169,3.73608-.3678,7.4093-.77881,10.9469a88.56936,88.56936,0,0,1-4.13525,19.00671,42.25311,42.25311,0,0,1-3.1908,7.12793,20.29733,20.29733,0,0,1-3.70081,4.80286,8.25383,8.25383,0,0,1-3.42053,2.00085,5.53073,5.53073,0,0,1-1.06677.17432l-.34692.009a.29525.29525,0,0,1-.09558-.577Z"/>
        <g class="j">
          <path class="k" d="M58.47407,203.51861s.16113.59485.44324,1.63574c.13611.52222.31226,1.15259.53894,1.86658.22412.71521.45093,1.52979.76648,2.39746.30115.87219.61841,1.82019,1.02112,2.79761.3689.99084.81775,2.01,1.29749,3.0575.46741,1.05225,1.035,2.10034,1.60559,3.16357a35.89623,35.89623,0,0,0,1.95337,3.09119l.51477.761.56995.7168c.39063.46729.738.9707,1.15857,1.40173q.62549.65167,1.2395,1.29126c.42139.41248.88623.767,1.317,1.145a9.63485,9.63485,0,0,0,1.35229,1.00647,14.46158,14.46158,0,0,0,1.36255.86682,16.53411,16.53411,0,0,0,2.6969,1.20972l1.24475.42883,1.16406.23755c.36548.07483.70764.1449,1.024.20959.319.04614.61731.04919.884.073,1.07019.0741,1.68164.11646,1.68164.11646a.1.1,0,0,1,.00989.19836l-.00989.00159s-.61255.10364-1.72974.22632c-.27869.02295-.59167.07141-.93066.08057-.33765-.00476-.70215-.03479-1.09656-.05652-.39746-.02539-.82043-.05249-1.26636-.08105-.4386-.07288-.8916-.19434-1.37427-.29993a14.38408,14.38408,0,0,1-3.03162-1.024,15.94768,15.94768,0,0,1-1.55139-.81982,9.00665,9.00665,0,0,1-1.532-1.00671c-.48657-.3833-1.012-.749-1.48938-1.1709-.46594-.43164-.93433-.876-1.38782-1.34216-.46252-.45825-.84351-.98181-1.27185-1.47559l-.62451-.756-.56323-.7948a36.65432,36.65432,0,0,1-1.99536-3.30115,18.50872,18.50872,0,0,1-.81384-1.68872c-.25513-.5625-.5083-1.11646-.71179-1.677-.20984-.55847-.43884-1.09729-.62024-1.6416-.18262-.54285-.33032-1.08276-.49-1.60205a28.58688,28.58688,0,0,1-.75244-2.96069c-.22742-.91284-.33911-1.78345-.45667-2.54089-.13245-.75732-.18811-1.41992-.23193-1.96484-.08838-1.09241-.10791-1.72485-.10791-1.72485l-.00073-.02246a.09873.09873,0,0,1,.194-.02893Z"/>
        </g>
        <g class="j">
          <path class="k" d="M206.53511,231.063s.6427-.02856,1.76758-.07874c.56323-.02039,1.23047-.14416,2.00415-.23169.38708-.04114.78809-.15979,1.21655-.24341a10.868,10.868,0,0,0,1.33276-.33789c.4541-.15283.94141-.27173,1.41907-.468.47437-.20374.975-.39209,1.4707-.62585.48169-.262.99182-.50439,1.48511-.80017.47632-.32312.99414-.60779,1.4635-.97913a18.84766,18.84766,0,0,0,2.73828-2.45923,22.83747,22.83747,0,0,0,2.34106-2.9967,35.73072,35.73072,0,0,0,4.96692-13.08008,40.46408,40.46408,0,0,0,.71033-6.36877.09888.09888,0,0,1,.19556-.02014l.00439.02112a17.49213,17.49213,0,0,1,.24731,1.79907,29.03963,29.03963,0,0,1,.02637,4.78088,27.70638,27.70638,0,0,1-.38721,3.19031,28.19485,28.19485,0,0,1-.80994,3.52173,27.04649,27.04649,0,0,1-1.34265,3.66638,29.70327,29.70327,0,0,1-1.94324,3.5907,24.3679,24.3679,0,0,1-2.6051,3.20984l-.71875.73022-.78333.65161a18.983,18.983,0,0,1-1.60315,1.18591,17.65,17.65,0,0,1-1.6571.98084c-.56213.281-1.13708.50476-1.6792.74512-.55652.209-1.10852.38147-1.63831.54565-.53345.15479-1.06836.22986-1.566.33887a17.00428,17.00428,0,0,1-2.75366.2804,19.03371,19.03371,0,0,1-2.1123-.08118c-1.13293-.15-1.78162-.26782-1.78162-.26782l-.02136-.00378a.09887.09887,0,0,1,.01331-.196Z"/>
        </g>
        <path class="l" d="M207.9488,227.96722s-.48633.15942-1.39819.4585c-.91443.3158-2.19568.7981-3.894,1.47363-.84912.32068-1.77087.71362-2.77039,1.1488-1.00574.41248-2.0946.85461-3.23206,1.38562-2.311.98425-4.87683,2.201-7.719,3.46375-1.40149.67773-2.88586,1.3457-4.4137,2.059a8.83282,8.83282,0,0,0-2.29822,1.21167,15.96983,15.96983,0,0,0-1.97021,2.50659,4.8261,4.8261,0,0,1-2.33313,1.81409c-.8739.35046-1.78589.6532-2.69482.98755-1.81384.67847-3.71948,1.26953-5.65015,1.8988a73.818,73.818,0,0,1-12.37476,2.468,82.93976,82.93976,0,0,1-13.197.13354l-.05176-.00244c-.36157-.00879-.12744-.00659-.22046-.01038l-.09473-.01453c-.06323-.00781-.1261-.02783-.18921-.04114-.12573-.03784-.2511-.08765-.37671-.13269a3.40522,3.40522,0,0,1-.74695-.47571c-.49573-.38867-.98657-.93115-1.47925-1.40332a4.24562,4.24562,0,0,0-1.54187-1.011,9.376,9.376,0,0,0-1.62488-.24451c-1.08972-.11218-2.16272-.24023-3.1908-.41577-1.0387-.16907-2.08093-.30383-3.10352-.50122-2.04687-.38928-4.0697-.78845-6.0387-1.27808-1.98474-.43115-3.91064-.94983-5.81091-1.43884-3.7793-1.04163-7.36792-2.20239-10.7561-3.30566-3.37939-1.13135-6.52686-2.30261-9.43555-3.3562-2.8866-1.09863-5.53259-2.10559-7.87793-2.99817-2.3335-.9054-4.36792-1.6947-6.04333-2.34473-3.35791-1.27185-5.27673-1.99866-5.27673-1.99866l3.72681-8.19165s1.83594.82153,5.04883,2.2594c1.60718.714,3.56287,1.56128,5.81128,2.50867,2.24927.94336,4.79224,1.98389,7.57959,3.05981,2.78723,1.07568,5.82043,2.17932,9.048,3.24841,3.22791,1.06653,6.65283,2.08154,10.21594,2.9895,3.5675.86853,7.26965,1.66382,11.04968,2.2002a92.07361,92.07361,0,0,0,11.46472.89624,91.843,91.843,0,0,0,11.47107-.73315,110.29193,110.29193,0,0,0,11.04761-2.07727c3.55847-.88562,6.97864-1.8739,10.19458-2.94189,1.61047-.52124,3.16309-1.093,4.671-1.61792,1.49646-.57263,2.95032-1.09521,4.33215-1.65076,2.76831-1.094,5.28931-2.15979,7.51611-3.13135,2.22974-.97888,4.1554-1.85364,5.72632-2.59143,1.568-.71411,2.85034-1.35205,3.70178-1.7522.8584-.41077,1.31628-.62976,1.31628-.62976Z"/>
        <path class="m" d="M150.00715,37.99679c4.59192,14.96706,17.09491,27.47632,36,37.99679l-8-44.9962Z"/>
        <path class="h" d="M112.00715,144.98775l10,37.99679a11.88439,11.88439,0,0,1-7-5.99949l-6.68158-23.99828C108.06776,149.99489,109.45707,147.36407,112.00715,144.98775Z"/>
        <path class="h" d="M173.00715,177.985l-5,3.99966s3.5151-27.36583,13.3558-44.713c2.714-4.78416,8.26119-10.58448,11.22478-13.8498,2.55008-3.23936.41942,16.56637.41942,16.56637C179.49534,137.66476,176.12423,171.14478,173.00715,177.985Z"/>
        <path class="h" d="M175.00715,170.98555c-1.86983,9.97157-8.88692,14.01943-16.75354,14.262a29.17962,29.17962,0,0,1-9.24985-1.30051,33.36112,33.36112,0,0,1-4.15772-1.56645,2.01578,2.01578,0,0,0-1.67784,0,33.35074,33.35074,0,0,1-4.28354,1.60422,29.1588,29.1588,0,0,1-9.05865,1.26469c-7.89307-.22215-14.94385-4.26477-16.81885-14.26393l1,13.99882s8.17478,11.3577,11,11.736a57.67148,57.67148,0,0,0,11,0c2.04611-.25187,5.94009-1.91757,8-1.99983,3.039-.12135,8.96073,1.88659,12,1.99983,2.75943.10281,8.49936.17122,11-.99992,2.88157-1.34954,7.99377-14.71707,9-17.73551C176.56617,176.30805,175.00715,170.98555,175.00715,170.98555Z"/>
        <path class="n" d="M156.53347,148.98741H131.48083a4.75861,4.75861,0,0,0-4.47368,4.99957v15.99867c0,15.707,7.61115,18.99838,17,18.99838h0c9.38883,0,17-3.37471,17-18.99838V153.987A4.75861,4.75861,0,0,0,156.53347,148.98741Z"/>
        <line class="o" x1="144.00715" y1="181.8153" x2="144.00715" y2="171.75265"/>
        <g class="p">
          <path class="q" d="M176.67085,260.07867s-.01953.29382-.05627.84473c-.01331.14612-.01038.27258-.03992.47974q-.04852.314-.10571.68469c-.04248.24329-.07849.51831-.1405.78467-.066.25891-.15417.52991-.23914.81689a12.16374,12.16374,0,0,1-1.95435,3.79639,13.59743,13.59743,0,0,1-4.07214,3.54846,15.39471,15.39471,0,0,1-5.91614,1.87573c-.56238.043-1.06738.0625-1.70032.0592a12.43627,12.43627,0,0,1-1.63757-.11243,14.59259,14.59259,0,0,1-3.46362-.86011,14.78633,14.78633,0,0,1-3.283-1.74609,14.23964,14.23964,0,0,1-2.80188-2.696,13.06593,13.06593,0,0,1-1.90454-3.54333,10.92882,10.92882,0,0,1-.48975-1.9884,7.52908,7.52908,0,0,1-.12854-1.0188l-.03333-.51294-.01575-.25671-.00757-.12842-.00378-.06421-.00183-.0321c.00049-.05579-.00378.07959.00073-.1333a16.13413,16.13413,0,0,1,.18274-1.8894,10.83108,10.83108,0,0,1,.49707-2.04309,13.06593,13.06593,0,0,1,1.90454-3.54333,14.23964,14.23964,0,0,1,2.80188-2.696,14.78633,14.78633,0,0,1,3.283-1.74609,14.95809,14.95809,0,0,1,12.71765.9624,13.59574,13.59574,0,0,1,4.07214,3.54846,12.16244,12.16244,0,0,1,1.95435,3.79639,12.86216,12.86216,0,0,1,.52295,2.728c.03992.6416.06116.98389.06116.98389Zm-3.99744-.1012-.02417-.70691a5.25089,5.25089,0,0,0-.08008-.84485,10.62454,10.62454,0,0,0-.20032-1.13245A11.4773,11.4773,0,0,0,171.28,254.343a10.67167,10.67167,0,0,0-2.66406-3.26086,9.69283,9.69283,0,0,0-4.65247-2.002,13.33535,13.33535,0,0,0-1.45178-.09,10.68949,10.68949,0,0,0-1.43494.14685,9.2294,9.2294,0,0,0-2.79565.92993,10.3617,10.3617,0,0,0-2.40723,1.797,11.57991,11.57991,0,0,0-1.77893,2.42188,13.18864,13.18864,0,0,0-1.07092,2.76782,13.39279,13.39279,0,0,0-.35315,3.025c.00549-.19458.00208-.04077.00354-.07812l.00085.02295.00183.04614.00354.092.00659.18433.01123.36914a4.584,4.584,0,0,0,.0686.73364c.047.49109.17029.96533.257,1.45239a13.18706,13.18706,0,0,0,1.07092,2.76794,11.57991,11.57991,0,0,0,1.77893,2.42188,10.36514,10.36514,0,0,0,2.40723,1.797,9.30519,9.30519,0,0,0,2.76648.92615,10.57735,10.57735,0,0,0,1.50024.15186,13.52543,13.52543,0,0,0,1.36975-.08716,9.62976,9.62976,0,0,0,4.69836-2.006A10.67167,10.67167,0,0,0,171.28,265.612a11.4773,11.4773,0,0,0,1.08887-2.95032,10.34092,10.34092,0,0,0,.1936-1.08582l.06165-.41248c.01965-.12842.015-.31226.02283-.441.01892-.55176.02905-.84607.02905-.84607Z"/>
        </g>
        <path class="r" d="M138.88465,183.98479a19.27445,19.27445,0,0,0,9.97229-.00034l-4.84979-1.49987Z"/>
        <path class="k" d="M139.16145,184.94574s-.47864.1759-1.40027.44128a30.45483,30.45483,0,0,1-3.82324.80188c-.80432.10535-1.68225.1875-2.616.22046-.46667.016-.94751.0127-1.439.00208q-.72272-.04211-1.47473-.08582c-.50488-.04456-1.04712-.13354-1.57874-.20251q-.78-.15912-1.57678-.32178c-.52087-.15369-1.052-.28552-1.57153-.46411-.5116-.20667-1.03784-.37512-1.53662-.61731a15.48828,15.48828,0,0,1-2.85388-1.65735,10.97593,10.97593,0,0,1-1.25232-1.02478l-.58521-.53638-.52148-.58313a9.83553,9.83553,0,0,1-.94165-1.1875,8.40252,8.40252,0,0,1-.7832-1.21082,14.96486,14.96486,0,0,1-1.74194-4.457c-.1239-.63733-.2677-1.17749-.30457-1.641-.11572-.91626-.1532-1.4364-.1532-1.4364s.19348.49438.48218,1.35376c.126.43494.37585.9325.6167,1.50928.228.58264.59094,1.19141.92615,1.87061a19.36679,19.36679,0,0,0,1.34558,2.02551q.19226.25616.3894.519l.44275.4939a8.45612,8.45612,0,0,0,.952.96973l.507.474.55408.43335a9.28314,9.28314,0,0,0,1.16772.81689,15.46113,15.46113,0,0,0,2.58337,1.31775c.44666.19263.92419.3158,1.38062.478q.70715.18475,1.407.36768.7132.126,1.41309.24963.69507.07562,1.37122.149.71008.039,1.39429.07666c.44714.00769.88538.0094,1.31238-.0072.854-.02,1.66321-.07715,2.40784-.16248a30.83936,30.83936,0,0,0,3.5874-.58447c.84424-.18005,1.36-.31238,1.36-.31238a1,1,0,0,1,.59778,1.90564Z"/>
        <path class="k" d="M175.00715,170.98553s-.03906.52686-.15344,1.43835c-.03516.45752-.182,1.00427-.30652,1.64722a14.91857,14.91857,0,0,1-1.757,4.47559,8.838,8.838,0,0,1-.78943,1.21375q-.21881.30194-.442.61047-.251.28674-.50671.579a9.35848,9.35848,0,0,1-1.1145,1.12061,11.81875,11.81875,0,0,1-1.2605,1.0249,16.05021,16.05021,0,0,1-2.87061,1.65466c-.50647.22717-1.03015.40979-1.5448.6145-.52686.1582-1.054.31848-1.58105.45117a23.01582,23.01582,0,0,1-3.13843.51208,25.67893,25.67893,0,0,1-2.95532.07874c-.93726-.035-1.81763-.125-2.62476-.23267a30.34461,30.34461,0,0,1-3.835-.81873c-.90686-.265-1.4126-.45081-1.4126-.45081l-.01807-.00671a1.00067,1.00067,0,0,1,.59656-1.90784s.49133.12744,1.35547.31665a30.73248,30.73248,0,0,0,3.59973.60034c.74731.0874,1.55957.1521,2.41711.174a23.42842,23.42842,0,0,0,2.68726-.06116,22.77681,22.77681,0,0,0,2.82727-.39209c.47327-.10278.939-.245,1.41711-.35559.45923-.16052.9325-.29761,1.38794-.47571a16.176,16.176,0,0,0,2.598-1.31567,10.06357,10.06357,0,0,0,1.17456-.81689l.55652-.43469.51111-.47339.507-.46655.451-.50464a9.7871,9.7871,0,0,0,.83765-1.015,19.94307,19.94307,0,0,0,1.35425-2.03149c.33374-.68127.70288-1.296.92871-1.87427.2395-.57642.49133-1.07056.61926-1.51526C174.81428,171.47723,175.00715,170.98553,175.00715,170.98553Z"/>
        <path class="s" d="M149.00376,183.947a33.36112,33.36112,0,0,1-4.15772-1.56645,2.01578,2.01578,0,0,0-1.67784,0,33.35074,33.35074,0,0,1-4.28354,1.60422"/>
        <path class="t" d="M205.50715,223.90788c-20,9.95809-41.16778,17.72736-61.99966,17.56692-20.51266-.158-41.00034-8.09575-62.00034-17.56692V205.48176c43,20.20706,84,20.69192,124,.857Z"/>
        <line class="u" x1="162.50715" y1="238.97964" x2="162.50715" y2="247.97888"/>
        <g class="v">
          <path class="w" d="M174.81318,217.55437a119.25458,119.25458,0,0,1-29.61926,3.37362V241.4785a111.96467,111.96467,0,0,0,29.963-3.49861Zm-26.752,21.6369V222.57378a96.431,96.431,0,0,0,23.95056-2.72792l.278,16.51637A90.5373,90.5373,0,0,1,148.06117,239.19128Z"/>
          <path class="x" d="M145.00715,241.4785a111.21711,111.21711,0,0,0,30.0097-3.49861"/>
        </g>
        <path class="y" d="M174.75142,217.55426l.34375,20.42554a111.62735,111.62735,0,0,1-27.87891,3.52075q-1.05231,0-2.08411-.022V220.928a119.26,119.26,0,0,0,29.61926-3.37378M149.68672,239.209a90.25463,90.25463,0,0,0,22.54114-2.84692l-.278-16.51636a96.42535,96.42535,0,0,1-23.95056,2.728v16.61743q.83478.01794,1.68738.01782m25.06458-23.65479a2.00075,2.00075,0,0,0-.49792.063,117.2463,117.2463,0,0,1-29.12524,3.31079,2,2,0,0,0-1.996,2v20.55054a1.99987,1.99987,0,0,0,1.95715,1.99951q1.05176.02271,2.127.02246a113.85494,113.85494,0,0,0,28.40857-3.592,2.00021,2.00021,0,0,0,1.47009-1.9624l-.34375-20.42554a1.99985,1.99985,0,0,0-1.99988-1.96631Zm-24.752,9.00122a99.23774,99.23774,0,0,0,19.9928-2.18433l.20947,12.45166a90.0387,90.0387,0,0,1-20.20227,2.38574V224.55548Z"/>
        <rect class="z" x="159.50715" y="226.48086" width="6" height="5.99949" rx="2.99974" ry="2.99974"/>
        <g class="aa">
          <path class="w" d="M175.70322,227.01445a48.50892,48.50892,0,0,1-13.97.91679l.19647,2.99328a50.44359,50.44359,0,0,0,13.97-.91673Z"/>
          <polygon class="ab" points="176.603 230.665 173.153 230.957 173.022 226.774 175.98 226.483 176.603 230.665"/>
          <polygon class="ab" points="166.374 231.582 162.07 231.873 161.939 227.691 166.382 227.397 166.374 231.582"/>
        </g>
        <path class="ac" d="M175.70322,227.01445a48.50892,48.50892,0,0,1-13.97.91679l.19647,2.99328a50.44359,50.44359,0,0,0,13.97-.91673Z"/>
        <path class="y" d="M198.61433,215.88282c2.28455,3.2374,4.348,6.38636,5.2345,9.065l3.35448-1.59259Z"/>
        <path class="y" d="M84.59545,225.07741s2.48706-6.11165,8.20766-6.61554l-4.402-2.57742L79.597,221.58671Z"/>
        <path class="ad" d="M212.67382,213.7256s-25.66667,19.742-68.66667,19.742c-40.67259,0-68.66667-19.742-68.66667-19.742L145.00715,215.5Z"/>
        <g class="ae">
          <path class="h" d="M193.14688,140.203c-1.46276-.02214-2.536.07045-2.536.07045-8.42829.7905-13.44891,20.20948-15.46714,30.97248-3,15.99865-13.90087,22.99806-31,22.99806-19.78637,0-28-6.99941-31-22.99806-1.971-10.511-6.80541-29.27746-14.8808-30.8865L54.94713,177.56535c.09869.33066.54555,53.52709,27.36328,53.52709,0-5.03394,1.66492-11.27969,7.31909-11.27969,0,0,.05029,4.10805,3.68726,4.10805,0-3.23123,3.30786-4.07607,3.30786-4.07607s1.56152,3.08153,4.57719,3.08153c0-2.325,3.50588-2.17322,3.50588-2.17322s2.372,8.40847,8.84985,8.40847c0-6.52579,6.73411-5.81675,6.73411-5.81675s1.86065,6.03951,4.85207,6.03951c0-3.666,4.875-3.74968,4.875-3.74968a8.67722,8.67722,0,0,0,8,5.24956c0-2.63241,2.754-4.45922,4.42413-4.45922,0,3.2621,4.48561,4.07761,4.48561,4.07761s1.51065,3.59526,7.63006,3.59526c0-6.5311,8.22394-8.3212,8.22394-8.3212a11.30957,11.30957,0,0,0,9.864,5.65077c0-3.143,3.28642-4.97547,7.2662-4.97547,0-3.61768,5.9001-4.23361,5.9001-4.23361s2.75279,5.82411,8.656,5.82411c0,0-.12894-8.31753,6.66772-8.31753,7.0072,3.70157,5.40259,10.38444,5.40259,11.43812,22.968,0,23.012-28.76918,23.012-28.76918l-36.40735-62.127Z"/>
          <g class="af">
            <polygon class="k" points="114.585 203.995 119.301 204.385 123.173 206.835 128.058 206.81 131.084 211.322 135.014 213.64 140.169 212.975 143.863 217.404 147.533 213.765 151.901 213.191 154.799 209.348 160.216 211.109 162.718 206.382 167.736 207.235 171.752 205.86 174.16 201.222 179.439 200.532 179.022 194.778 183.643 192.276 181.12 187.301 185.708 183.616 182.828 178.817 182.761 174.435 186.549 170.633 186.588 166.265 188.375 162.162 185.422 157.347 187.541 153.289 188.701 149.088 187.782 144.575 188.284 140.276 189.54 136.09 190.052 131.789 194.098 128.014 194.002 122.487 188.481 123.074 184.548 120.946 179.846 123.737 176.16 120.017 171.811 120.54 167.356 121.732 163.28 120.489 159.58 116.83 155.299 116.918 151.199 115.836 146.494 118.616 142.66 115.776 138.497 115.588 134.698 116.972 130.812 118.376 126.314 114.989 122.725 118.727 118.656 118.701 114.393 117.149 110.771 120.629 106.463 118.732 102.268 117.775 96.823 118.8 100.146 124.261 97.924 128.707 99.725 132.86 98.155 137.259 97.562 141.585 100.029 145.697 102.554 149.802 98.935 154.349 103.505 158.312 100.855 162.791 100.326 167.118 101.126 171.349 101.065 175.643 104.118 179.717 102.471 184.131 103.546 188.349 101.815 193.02 107.628 194.938 107.685 199.64 110.427 202.905 114.585 203.995"/>
            <path class="k" d="M114.58473,204.4947a23.50134,23.50134,0,0,1,4.65572.38567c.8041.24856,2.43005,2.00764,3.67993,2.38652,1.40894.42709,3.159-.05873,4.62921.04567.69591.04941.19914-.09818.14929-.14143a4.40038,4.40038,0,0,1,.55842.83255l1.76364,2.62944c1.26195,1.88145,3.91011,3.647,6.18844,3.35308a27.88927,27.88927,0,0,0,3.1541-.4069c.88255-.22076.38953-.31554.91816.30857,1.0856,1.28168,2.152,2.58014,3.22789,3.87a.50508.50508,0,0,0,.70711,0l1.83509-1.81981c.41665-.41318.87628-.80867,1.26162-1.25112.1443-.16569.81239-.661.28359-.43061,1.37534-.59914,3.44648.09713,4.69718-.76263a9.16513,9.16513,0,0,0,1.488-1.97186,10.41947,10.41947,0,0,0,1.04406-1.38445c.36887-.72754.33554-.19585-.0428-.269a46.46879,46.46879,0,0,1,5.29969,1.72232.50433.50433,0,0,0,.56466-.22978l1.5789-2.98229c.27406-.51765.52186-1.06352.82765-1.56329.20629-.33715-.6737.0689-.25332.08555a2.217,2.217,0,0,1,.56836.09657,9.28235,9.28235,0,0,0,6.50736.032,6.16414,6.16414,0,0,0,2.32053-.943c.7574-.74293,1.24888-2.40537,1.73455-3.34076.1293-.249.74126-1.35133.46056-1.12576-.2488.19993.90926-.0475,1.21534-.0875l3.83163-.50075a.50917.50917,0,0,0,.5-.5c-.118-1.62585-.80459-4.06725-.40854-5.62908-.07919.31229-.27606.2436.31761-.00357.52264-.2176,1.023-.554,1.52085-.82363l2.5261-1.368a.51.51,0,0,0,.17938-.68409l-1.26145-2.48731c-.26921-.53082-.5011-1.11874-.82163-1.62007-.49282-.7708-.0665-.7912-.4771-.29419,1.16184-1.40634,3.12258-2.50835,4.547-3.65258a.50209.50209,0,0,0,.07818-.60591l-1.93682-3.22748c-.792-1.3197-.87379-1.27219-.894-2.5962-.01125-.73727.03769-1.50174-.0341-2.23571a2.93727,2.93727,0,0,1-.01228-.80486c-.11121.40414-.04839.26577.08116.06024.71277-1.13083,2.121-2.05753,3.02859-3.04,1.29739-1.40436.38457-3.78014.67367-5.06121.42846-1.89854,2.37772-3.37377,1.34724-5.22247a37.98222,37.98222,0,0,1-2.36094-3.85073c-.13671-.33771-.10848-.312-.1473.15494a1.72038,1.72038,0,0,1,.30427-.58259,18.79024,18.79024,0,0,0,1.1661-2.23278,14.37832,14.37832,0,0,0,1.84565-5.63654,17.88012,17.88012,0,0,0-.71157-3.54058,10.78527,10.78527,0,0,1,.10094-3.61074c.24344-2.08493,1.08533-3.96468,1.47068-6.01965.13676-.72929.17693-1.48809.26458-2.22522.04142-.3484.41164-2.06572.12019-1.58723.75-1.23123,2.41568-2.18249,3.43892-3.2086,1.46895-1.47306.65132-4.43632.61709-6.40869a.5034.5034,0,0,0-.5-.5l-4.369.46437c-1.39094.14784-1.76661-.27857-3.28427-1.09983-.87248-.47214-1.34055-.91738-2.23249-.73077a14.068,14.068,0,0,0-4.13466,2.45466c-.44267.3587-.42372-.03631.17689.26652a2.44,2.44,0,0,1-.53458-.53957,14.87259,14.87259,0,0,0-1.94394-1.96209c-.79771-.80516-.994-1.19924-2.03341-1.26189-2.88135-.17367-5.40945,1.43514-8.17613,1.60521a14.70319,14.70319,0,0,1-3.50571-1.00906c-.9252-.39638-2.15976-1.84824-3.17222-2.84928-.72218-.714-.83445-.8893-1.79052-.98314-1.37554-.135-2.76112.18782-4.1242-.053-1.1392-.20123-2.65626-1.11619-3.81185-.9356-1.05994.16564-2.57257,1.50013-3.47989,2.03633a9.95872,9.95872,0,0,1-.95671.56539c-.49824.22157-.29708.09625.068.193-.53569-.142-1.23636-.91609-1.67644-1.24217a7.64538,7.64538,0,0,0-2.6257-1.64225c-3.02353-.68784-5.31211.31307-8.07774,1.31567q-1.27853.46349-2.558.92432a3.6281,3.6281,0,0,1-.832.30065c-.44932.0315.46277.22321-.23309-.13939a32.86631,32.86631,0,0,1-4.12715-3.10831.50084.50084,0,0,0-.60591.07818l-2.45365,2.55561c-1.21813,1.26875-.65163,1.03729-2.3538,1.02616a18.14728,18.14728,0,0,1-6.62759-1.54979.49614.49614,0,0,0-.48647.12859l-1.81092,1.73972a9.45421,9.45421,0,0,0-1.245,1.19606c-.35608.51214-.86173.37422-.01489.44131-1.44129-.11418-3.01587-1.47566-4.40825-1.93129a14.98165,14.98165,0,0,0-4.4799-.9388,35.99169,35.99169,0,0,0-5.38991,1.01535.50376.50376,0,0,0-.29882.7345l2.27,3.73019a8.17044,8.17044,0,0,1,.99439,1.634c-.03649-.1271.13343-.56692-.17254.054-.21755.44145-.44007.88053-.66008,1.32076-.45818.91678-1.41942,2.1344-1.331,3.168.11791,1.37872,1.58329,2.63058,1.73742,4.00759-.04246-.37932-.31158.66834-.46719,1.10439-.30711.86055-.67082,1.7198-.92676,2.59687a25.65557,25.65557,0,0,0-.63855,3.92623c-.27148,2.11821,1.58239,4.01393,2.66217,5.78188.56308.92194,1.08412,1.90965,1.71407,2.786a3.70293,3.70293,0,0,1,.51673.83988c-.18953-.58909.277-.49932-.252-.09836-1.26022.95517-2.26287,2.84281-3.25647,4.09105a.509.509,0,0,0,0,.70711l3.63891,3.15556c.23434.20322.46155.42465.70759.61361.40767.31308.16879-.478.03149-.21961-.44656.84027-.97387,1.64594-1.45832,2.46473a10.96084,10.96084,0,0,0-1.54983,7.10652,32.80585,32.80585,0,0,1,.66056,4.49559c-.00708,1.26482-.30312,2.71783.22777,3.852a14.02451,14.02451,0,0,0,1.60489,2.14173c.25547.34092,1.20994,1.892,1.17048,1.32823.097,1.38558-1.49208,2.93221-1.6159,4.32906-.12879,1.45292,1.0472,2.91937,1.02714,4.36521-.01118.80528-1.235,3.3145-1.6939,4.55237a.50747.50747,0,0,0,.34922.61506,48.39285,48.39285,0,0,0,5.42372,1.78978c.69732.13956.00557-.35482.02472-.12531.03917.46945.01178.95571.01758,1.42652a12.3514,12.3514,0,0,0,.0368,2.98677,9.63112,9.63112,0,0,0,2.84243,3.624c1.14058.79063,3.07714.91989,4.42465,1.27293a.50043.50043,0,0,0,.26584-.96428,29.56636,29.56636,0,0,1-3.59577-.94209c-.712-.2892-1.29492-1.15445-2.0241-2.023-1.04141-1.24052-.90991-.7124-.92733-2.12657l-.04291-3.4827a.51451.51451,0,0,0-.36708-.48214l-5.8127-1.91814.34922.61506c.521-1.40543,1.59965-3.17686,1.73152-4.67061.12947-1.46668-1.10266-2.96545-1.05957-4.42319-.01188.40206.15364-.24583.15565-.25465a12.73983,12.73983,0,0,1,.57012-1.52737,8.523,8.523,0,0,0,.885-2.37082c-.0172-1.1523-1.70668-2.67982-2.37451-3.571-1.029-1.37323-.47095-2.69315-.58308-4.71243-.08166-1.47056-.68856-2.90206-.7633-4.3681-.187-3.66684,1.241-5.58544,3.0784-8.69078a.50591.50591,0,0,0-.07818-.60591,44.5158,44.5158,0,0,0-4.53339-3.93123c.57885.375-.44371.78177.42005.10158a9.31847,9.31847,0,0,0,1.20256-1.51076l1.95959-2.4618a.51957.51957,0,0,0,.07818-.60591c-1.52411-2.47724-3.83553-5.2972-4.87241-8.01724-.13065-.34273-.02677.47068.00054-.32539.01353-.39432.1096-.79989.16333-1.192.11512-.84018.15555-1.73481.35085-2.56058.33558-1.41888,1.42426-2.88654,1.5303-4.32689.08648-1.1746-.89929-2.58927-1.36176-3.656a3.97038,3.97038,0,0,1-.41467-.95649c.07474.727.0659.14052.28421-.177a23.88751,23.88751,0,0,0,1.42881-2.85891c.62175-1.24406.58408-1.30491-.13552-2.48741l-2.70445-4.44415-.29882.7345,3.8884-.7325a4.80338,4.80338,0,0,1,2.91014.07655,36.40042,36.40042,0,0,1,6.76385,2.434.52364.52364,0,0,0,.60591-.07818c1.08585-1.04316,2.122-2.20661,3.28759-3.15834.40737-.33262.24438-.16258-.09009-.1699a2.64238,2.64238,0,0,1,.78295.28494,20.10459,20.10459,0,0,0,2.9143,1.06059,13.677,13.677,0,0,0,3.787.22163c1.32291-.00557,1.46081-.33679,2.408-1.32332a25.4601,25.4601,0,0,0,1.89281-1.97147,2.30419,2.30419,0,0,1,.52052-.54215c-.65692.33878-.43729-.11695-.06527.413a11.33142,11.33142,0,0,0,2.33777,1.76067c.424.31932,1.11585,1.09855,1.6374,1.23319,1.01351.26163,2.63095-.73562,3.59177-1.08323,1.26577-.45792,2.52357-1.0158,3.8148-1.38829a9.31952,9.31952,0,0,1,4.64589-.04673c-.01328-.0045,1.18572.94852,1.543,1.21327l2.108,1.562a.49086.49086,0,0,0,.50472,0c1.31736-.77852,3.04384-2.30338,4.525-2.67412.2498-.06253-.42773-.02288.34906.09025a11.77258,11.77258,0,0,1,1.25977.33239,17.30421,17.30421,0,0,0,2.28624.60322,18.89315,18.89315,0,0,0,2.52026-.03077,11.59744,11.59744,0,0,1,1.31547-.0268c.78415.07813.13259-.13184.38424-.001,1.42645.74143,2.20888,2.70732,3.59165,3.54019a11.94524,11.94524,0,0,0,4.24581,1.33261c1.48742.04451,3.10946-.85188,4.56463-1.15.69456-.14228,1.47325-.19842,2.19734-.28559.36686-.04416,2.33758-.17281,1.86226-.36642.58072.23655,1.36131,1.374,1.80174,1.81857l1.84314,1.86035a.50939.50939,0,0,0,.60591.07818c1.43182-.85,2.83832-1.79258,4.3146-2.56149.42285-.22024.31655-.13586-.05977-.1991a3.86961,3.86961,0,0,1,.90577.49015,18.50415,18.50415,0,0,0,2.75171,1.48906c1.13688.37144,2.52083-.03181,3.71382-.15861a15.61147,15.61147,0,0,0,2.22215-.23619c-.99855.25987-.11353-.8975-.43427.10889a6.015,6.015,0,0,0,.0289,1.66482,22.24,22.24,0,0,1,.04845,2.79138c-.05775.51456.03776.22483.05677.19307a4.2208,4.2208,0,0,1-.7465.6965c-.974.90874-2.75655,1.9953-3.33034,3.208-.56889,1.2023-.25567,3.05934-.52977,4.36266-.30361,1.44363-.957,2.81322-1.25578,4.25809a19.56857,19.56857,0,0,0-.493,4.36512c.0582,1.429.96371,3.26189.91248,4.44411a17.68121,17.68121,0,0,1-1.16817,4.09312c-.4759,1.18912-2.01524,2.759-2.09532,4.03493-.07009,1.11678,1.608,2.92572,2.15923,3.82481a12.111,12.111,0,0,1,.66558,1.08558c.24453.51678.13108-.20557.11568-.07054a12.03532,12.03532,0,0,1-1.20333,2.76337,7.27465,7.27465,0,0,0-.60663,3.40013c-.00437.4886.0551,2.17246.033,2.22665.00487-.01194-1.13323,1.06576-1.47046,1.40426-1.00145,1.00522-2.17749,1.72548-2.36384,3.10461a9.95006,9.95006,0,0,0,.301,4.40653,20.40019,20.40019,0,0,0,1.64317,2.73816,6.8967,6.8967,0,0,0,.82525,1.37518c.492.463.16464-.08958.15822-.084-1.42135,1.24425-2.95759,2.37582-4.43056,3.55905a.50574.50574,0,0,0-.07818.60591l2.5229,4.97462.17938-.68409-4.62121,2.50267a.49079.49079,0,0,0-.24764.43174l.24343,3.35416a6.18912,6.18912,0,0,0,.1432,1.973c.11628.18643-.17628.67077.24943.1544.40816-.49509.06809-.0838-.20567-.16456-.97292-.287-3.30319.31679-4.30462.56257-.72394.17767-.70415.14987-1.14116.73938-.836,1.12774-1.15567,2.63361-1.96386,3.78242-.4347.61791.32532.02227-.46639.38409-.60762.27769-1.29013.44149-1.92226.65781-2.042.6988-3.85257.09463-6.3026-.32164a.517.517,0,0,0-.56466.22978l-1.25115,2.36322a15.46752,15.46752,0,0,0-.81492,1.53924c-.31.79632-.62514.5174.08012.5785-1.73163-.15-3.712-1.20635-5.36842-1.74466a.51408.51408,0,0,0-.56466.22978l-1.44889,1.92126c-.34785.46125-.70274.91833-1.04406,1.38445-.44551.60841-.12416.29443-.21507.321-1.38936.40558-3.23122.00531-4.5004.709a10.61513,10.61513,0,0,0-1.81448,1.79938,11.2443,11.2443,0,0,0-1.26162,1.25112c-.08257.11489-.26154.19658-.32526.32255-.31394.62061.18031-.16773.426.20665a23.17613,23.17613,0,0,0-1.66082-1.99121c-.52519-.62967-1.24363-1.9419-1.96739-2.35877-1.02158-.5884-3.41109.16818-4.5412.35-.997.16045-.71737.20469-1.52729-.26226a21.36287,21.36287,0,0,1-2.93288-1.73028,16.08444,16.08444,0,0,1-1.02916-1.42632,14.67505,14.67505,0,0,0-1.9198-2.86226c-.9584-.8227-2.68417-.40927-3.93946-.40279-1.20259.00621-1.142.1021-2.00827-.4097a21.1518,21.1518,0,0,0-3.04809-1.92842c-1.47408-.53826-3.45608-.36469-5.02461-.49463C113.94338,203.44158,113.94689,204.44187,114.58473,204.4947Z"/>
          </g>
        </g>
        <circle class="ag" cx="162.67342" cy="259.97747" r="11.99949"/>
        <g>
          <path class="ah" d="M162.67317,270.47686a11.01488,11.01488,0,0,1-1.77539-.14648,10.502,10.502,0,0,1,1.77539-20.85254,11.01489,11.01489,0,0,1,1.77539.14648,10.5019,10.5019,0,0,1-1.77539,20.85254Z"/>
          <path class="ai" d="M162.67366,249.97833a10.457,10.457,0,0,1,1.694.13916,10.00155,10.00155,0,0,1-1.69446,19.85913,10.457,10.457,0,0,1-1.694-.13916,10.00155,10.00155,0,0,1,1.69446-19.85913m.00049-1h0a11.00156,11.00156,0,0,0-1.85693,21.84595,11.51066,11.51066,0,0,0,1.856.15234,11.00156,11.00156,0,0,0,1.85645-21.84595,11.50808,11.50808,0,0,0-1.85547-.15234Z"/>
        </g>
        <path class="aj" d="M171.17342,257.86918a2.66511,2.66511,0,0,0-2.83333-2.56867c-1.31054,0-2.40244.33229-2.72623,2.13053H159.733c-.32379-1.79824-1.41569-2.13053-2.72623-2.13053a2.71576,2.71576,0,0,0-2.83333,2.633,2.5307,2.5307,0,0,0,.73531,1.76607,2.56908,2.56908,0,0,0-.73531,1.78215,2.86939,2.86939,0,0,0,2.83333,2.818,2.80956,2.80956,0,0,0,2.58056-1.474h6.17221a2.89751,2.89751,0,0,0,5.4139-1.29575,2.68647,2.68647,0,0,0-.73531-1.83041A2.68647,2.68647,0,0,0,171.17342,257.86918Z"/>
        <path class="ak" d="M170.43811,259.6996a2.59841,2.59841,0,0,0-2.098-4.39908c-1.31054,0-2.40244.33229-2.72623,2.13053H159.733c-.32379-1.79824-1.41569-2.13053-2.72623-2.13053a2.71576,2.71576,0,0,0-2.83333,2.633,2.5307,2.5307,0,0,0,.73531,1.76607"/>
        <path class="al" d="M154.90873,259.6996a2.56908,2.56908,0,0,0-.73531,1.78215,2.86939,2.86939,0,0,0,2.83333,2.818,2.80956,2.80956,0,0,0,2.58056-1.474h6.17221a2.89751,2.89751,0,0,0,5.4139-1.29575,2.68647,2.68647,0,0,0-.73531-1.83041"/>
        <path class="am" d="M191.00715,139.98817c-8.75,0-13.93959,20.00946-16,30.99738-3,15.99865-13.90087,22.99806-31,22.99806-19.78637,0-28-6.99941-31-22.99806-2.06041-10.98792-7.25-30.99738-16-30.99738,0,0,9.872,14.99873,12.606,33.25419,1.6256,10.85445,10.99221,25.74083,34.394,25.74083,22,0,32.46213-15.15737,34.60286-24.71035C183.43108,152.75893,191.00715,139.98817,191.00715,139.98817Z"/>
        <path class="an" d="M98.12635,140.08079c8.07539,1.609,12.90982,20.37549,14.8808,30.8865,3,15.99865,11.21363,22.99806,31,22.99806,17.09913,0,28-6.99941,31-22.99806,2.01823-10.763,7.03885-30.182,15.46714-30.97248,0,0,1.07325-.09259,2.536-.07045"/>
        <g class="ao">
          <path class="q" d="M60.00715,209.98226c13.98348,0,48.31177-38.305,48.31177-56.55383,1.36153-3.08507,1.93067-7.18461,4.68823-9.4406,2.93164-2.39841,8.60235-3.04485,11.00023-5.95983,18.59564-22.60586,20.7822-61.37252.99977-126.029l-85-.99992L0,39.749Z"/>
          <path class="ap" d="M58.00715,204.98268s13.33333-57.9951,3-73.99375c0,0,39,4.83293,39,34.997,0,30.44592-43,55.99527-43,55.99527Z"/>
          <path class="aq" d="M146.00715,94.992c0,7.1791-2.68629,19.99831-6,19.99831s-6-12.81922-6-19.99831,2.68629-24.99789,6-24.99789S146.00715,87.81288,146.00715,94.992Z"/>
          <polygon class="ar" points="137.797 104.692 136.007 89.039 139.25 85.993 138.919 104.412 137.797 104.692"/>
        </g>
        <g class="as">
          <path class="q" d="M165.11236,37.99679c-3.5,9.99916,1,15.99865,18,35.997,0,0,24.0738,31.33871,8.58058,49.42806a8.01285,8.01285,0,0,0-1.9065,6.54412l9.32591,55.01845s11,56.99518,37,65.99442l32-224.981L194.11236,0Z"/>
          <path class="ap" d="M212.00715,34.997c-14,0-21.75,18.74842-18,29.99747,5,12.249,31.14575,16.24954,46,13.99882C218.88215,57.87011,223.75715,34.997,212.00715,34.997Z"/>
          <path class="aq" d="M167.00715,162.98623l33,19.99831s13.75-19.74833,6.90883-34.997c-5.292-11.79558-23.38557-10.56722-34.90883.99992Z"/>
          <path class="at" d="M214.00715,36.99687s-7.85142,14.80653-1,28.99755c4.66667,9.66585,23,13.99882,23,13.99882C223.17382,68.66087,215.505,54.69069,214.00715,36.99687Z"/>
        </g>
        <path class="au" d="M235.00715,77.99341c-11.18751-7.34313-21-28.49759-21-40.99654"/>
        <path class="aq" d="M155.89841,14.85955c-5.70767,4.45919,6.53538.21872,14.57488,1.08653,4.54881.491,9.53429,1.85483,14.29,2.55086,5.67988.83129,11.05282,1.12064,14.35094,2.16206,2.351.74235,7.4605,4.82614,13.6539,8.7996,4.41365,2.83164,9.17065,6.31642,14.16265,7.95617,5.51989.28065,11.86331.61492,17.57417,1.11916,9.54943.84316,13.963,9.50071,17.58047,1.49809,2.91235-6.44282,2.514-8.652-1.87675-14.19389-3.89425-4.91522-6.3326-1.23473-12.32985-3.06707-6.00137-1.8336-5.73447-2.70718-11.73584-4.54078s-6.34052-.82373-12.162-3.16669c-7.46831-3.00578-7.2595-3.4908-14.5095-6.9905S202.988,2.1617,194.96634,1.48036c-6.87812-.58421-6.38086,2.06155-12.87789,4.39362-6.50149,2.33367-6.33465,2.95738-13.05289,4.5638C162.19251,12.07406,161.34176,10.60687,155.89841,14.85955Z"/>
        <path class="ap" d="M226.00715,89.9924l-12.37306,16.23827a11.99818,11.99818,0,0,0-2.00663,10.52058l6.71408,28.55008,18.66561-25.31146Z"/>
        <path class="ap" d="M101.427,78.58746a.99586.99586,0,0,1-.59486-1.828c2.93062-1.88517,7.70252-4.31663,12.1615-3.75008,4.15465.52788,8.11553,3.98571,10.553,6.57473a.99785.99785,0,0,1-1.02346,1.639A60.20282,60.20282,0,0,0,101.427,78.58746Z"/>
        <path class="aq" d="M116.587,28.15552c-12.19214-2.45511-27.47025-.41159-38.92826,2.13147l41.89368,9.06474Z"/>
        <path class="ap" d="M36.00169,70.23921C49.82582,56.1396,52.02571,36.00987,62.51584,31.03c11.1153-5.27663,52.49131,7.96668,52.49131,7.96668-32.68979,18.73377-49,51.49565-51,91.55794C64.00715,130.55464,24.36226,82.11059,36.00169,70.23921Z"/>
        <path class="at" d="M62.29719,35.97436S77.27743,50.50025,73.8596,68.528c-2.94224,15.5192-21.78034,33.226-21.78034,33.226C44.57942,90.47819,40.63032,78.78131,41.0561,66.5656,53.00715,60.99485,60.46482,48.15713,62.29719,35.97436Z"/>
        <path class="aq" d="M11.00715,75.11858,23.466,61.13241a64.39213,64.39213,0,0,0,12.6373-3.15135L28.06971,82.75524Z"/>
        <path class="au" d="M41.0561,66.5656S58.171,59.53931,62.29719,35.97436"/>
        <path class="aq" d="M36.65152,17.99848s7.52883,8.60247,26.1798,8.60247,23.61315-8.60247,23.61315-8.60247Z"/>
        <path class="av" d="M46.38557,23.785s1.99683.19348,4.99207.48352c.73157.05957,1.52417.12415,2.36243.1925.83337.05078,1.7124.10449,2.62158.15991.905.07227,1.84717.04993,2.79529.11926.95166.0376,1.91882.0603,2.8877.05322.9519.03809,1.96851.03943,2.89307.0271.94495-.03113,1.88953.0083,2.79395-.03564.90857-.03149,1.78687-.062,2.61975-.09094.83691-.04956,1.62805-.09644,2.35852-.13977,1.46521-.1084,2.70313-.22546,3.582-.31567.43457-.0575.7915-.07043,1.02759-.10266l.36731-.03821.02454-.00256a.09849.09849,0,0,1,.04724.18921s-.46448.18872-1.29492.47131a33.58808,33.58808,0,0,1-3.49829.974,48.82185,48.82185,0,0,1-10.948,1.06226,50.46314,50.46314,0,0,1-10.91687-1.34814c-1.46094-.35364-2.657-.72644-3.48755-1.00769-.83264-.27991-1.29529-.46277-1.29529-.46277a.09892.09892,0,0,1,.04578-.19043Z"/>
        <path class="av" d="M23.4521,61.03338s.18152-.16931.50134-.41675A10.61063,10.61063,0,0,1,25.29,59.746a8.55546,8.55546,0,0,1,.90259-.465c.32251-.14673.6582-.31641,1.01392-.44446a18.692,18.692,0,0,1,2.24133-.69629,19.47953,19.47953,0,0,1,2.30176-.39954c.37073-.05078.74622-.04871,1.09375-.07361a9.57652,9.57652,0,0,1,1.00452-.01245,12.75681,12.75681,0,0,1,1.57678.11536c.39819.05774.64185.118.64185.118l.061.015a.09017.09017,0,0,1,.01257.1709l-.52051.21362c-.33069.13818-.80505.33105-1.386.53027-1.16125.39929-2.73047.868-4.31763,1.266-1.59363.37146-3.20178.66919-4.41052.873-1.21021.19458-2.02563.27441-2.02563.27441a.0912.0912,0,0,1-.07141-.15723Z"/>
        <polygon class="aq" points="112.537 38.848 125.037 46.482 133.457 38.885 112.537 38.848"/>
        <g class="j">
          <path class="k" d="M209.45,212.52752s.32715.36475.89966,1.00317a7.78594,7.78594,0,0,0,1.1272,1.01868,11.00433,11.00433,0,0,0,1.61,1.12219q.2287.1452.46655.29639l.52051.24414q.52954.24774,1.09326.51135c.38818.1438.79724.26611,1.20923.4054l.62634.20605q.32648.06757.65894.13635c.44434.08411.89026.20264,1.3512.26318q.69507.06665,1.40515.13489a11.72968,11.72968,0,0,0,1.432.021,9.08124,9.08124,0,0,0,1.44006-.07886c.47839-.0553.96033-.09131,1.43469-.16125q.70386-.15344,1.40015-.3053a9.69558,9.69558,0,0,0,1.34851-.40723,9.33154,9.33154,0,0,0,1.28625-.48633q.61157-.29279,1.20129-.575a11.36249,11.36249,0,0,0,1.08752-.66272,12.06824,12.06824,0,0,0,1.858-1.40857,12.3668,12.3668,0,0,0,1.39111-1.39893c.19446-.2207.39819-.41089.54846-.61658q.217-.31512.39771-.57739l.75732-1.098a.14756.14756,0,0,1,.26746.105l-.00623.04272a12.13589,12.13589,0,0,1-.33521,1.42053l-.22644.75549a6.317,6.317,0,0,1-.39355.826,8.88986,8.88986,0,0,1-1.16943,1.906q-.392.48761-.81531,1.01428a8.42574,8.42574,0,0,1-1.01685.94629,13.74945,13.74945,0,0,1-1.14978.93811c-.4126.29236-.86841.5365-1.32239.808a11.571,11.571,0,0,1-1.444.69568,8.37,8.37,0,0,1-1.54016.58142c-.53406.14038-1.07166.29919-1.61963.42-.5509.094-1.11023.151-1.6676.22412a10.92445,10.92445,0,0,1-1.67932.06116,11.08682,11.08682,0,0,1-1.66309-.09143c-.54834-.07141-1.08972-.15784-1.61926-.25671-.5282-.11133-1.04248-.27673-1.54211-.43384q-.37335-.11975-.74011-.2373c-.2395-.1-.47327-.2085-.70056-.32324-.45569-.22681-.8999-.43518-1.31885-.6637a11.778,11.778,0,0,1-2.17249-1.6062c-.30273-.29077-.5968-.55359-.85364-.8269a8.87194,8.87194,0,0,1-.681-.87793,5.8241,5.8241,0,0,1-.87244-1.46753c-.34485-.83472-.49634-1.351-.49634-1.351l-.01746-.05957a.14353.14353,0,0,1,.24463-.13623Z"/>
        </g>
        <g class="j">
          <path class="k" d="M79.8708,212.51751s-.15161.51624-.49634,1.351A5.8278,5.8278,0,0,1,78.502,215.336a8.83985,8.83985,0,0,1-.68115.87781c-.25671.27332-.55078.53625-.85352.827a11.77213,11.77213,0,0,1-2.17249,1.60608c-.41907.22864-.86328.437-1.31885.66382-.22742.11475-.46118.22314-.70056.32324q-.36676.11755-.74023.2373c-.49951.1571-1.01392.32251-1.542.43384-.52954.09888-1.07092.18518-1.61926.25671a11.1037,11.1037,0,0,1-1.66321.09143,10.92446,10.92446,0,0,1-1.67932-.06116c-.55737-.07312-1.11658-.13013-1.6676-.22412-.548-.12085-1.08545-.27979-1.61963-.42a8.36878,8.36878,0,0,1-1.54-.58142,11.58978,11.58978,0,0,1-1.44409-.69568c-.454-.27148-.90967-.51562-1.32227-.808a13.79582,13.79582,0,0,1-1.1499-.93811,8.44405,8.44405,0,0,1-1.01685-.94629q-.42261-.52588-.81531-1.01428a8.89242,8.89242,0,0,1-1.16943-1.90613,6.33992,6.33992,0,0,1-.39355-.82593l-.22644-.75549a12.14692,12.14692,0,0,1-.33508-1.42053l-.00623-.0426a.1475.1475,0,0,1,.26733-.1051s.27539.39929.75745,1.098q.18.26147.39771.57739c.15027.20557.35388.39587.54846.61658a12.365,12.365,0,0,0,1.391,1.39893,12.07727,12.07727,0,0,0,1.85815,1.40857,11.36045,11.36045,0,0,0,1.0874.66272l1.20142.575a9.32994,9.32994,0,0,0,1.28613.48633,9.70059,9.70059,0,0,0,1.34851.40723q.69543.15161,1.40015.30518c.47449.07007.95642.10608,1.43481.16125a9.08055,9.08055,0,0,0,1.44006.079,11.72993,11.72993,0,0,0,1.432-.02112q.709-.06793,1.405-.13477c.46094-.06067.907-.17908,1.3512-.26318q.33234-.06885.65894-.13635.31641-.104.62634-.20605c.412-.13928.821-.2616,1.20923-.40552q.56287-.26312,1.09338-.51123.26477-.12433.52039-.24414.23785-.15125.46667-.29651a10.99056,10.99056,0,0,0,1.60986-1.12219,7.77239,7.77239,0,0,0,1.1272-1.01868c.57251-.63831.89966-1.00317.89966-1.00317a.14369.14369,0,0,1,.24487.13623Z"/>
        </g>
      </g>
      <path class="av" d="M203.06355,22.89032a7.862,7.862,0,0,1,.7821.1283,13.13146,13.13146,0,0,1,1.9187.59265,12.27549,12.27549,0,0,1,1.19373.50427,14.18064,14.18064,0,0,1,1.27087.637c.41968.24963.88586.45569,1.30017.75085.42615.27429.859.553,1.29187.83154.4126.30383.82507.60779,1.23108.90686.41333.28821.7749.63281,1.15234.92786.37817.29541.7146.614,1.0426.91614.33508.2793.63147.585.90955.86035.28589.25122.53235.53406.75842.75879.23108.21252.422.44409.589.611.33154.33228.53381.56116.53381.56116l.0387.0437a.09154.09154,0,0,1-.1.14661s-.24792-.09021-.68164-.24829c-.42529-.17615-1.02258-.44971-1.71692-.81848-1.38965-.736-3.15784-1.85559-4.892-3.02051-1.7074-1.20422-3.37476-2.45935-4.63062-3.39136-1.25061-.93921-2.10461-1.5332-2.10461-1.5332a.09342.09342,0,0,1,.06177-.1698Z"/>
      <path class="av" d="M242.02937,37.8742s.30261-.07776.8197-.15906a10.18052,10.18052,0,0,1,2.16626-.04395,11.06869,11.06869,0,0,1,1.40015.15979,14.088,14.088,0,0,1,1.51367.30261c.50708.14258,1.054.23779,1.56458.42993l1.56665.52539c.507.2052,1.01379.4104,1.5127.61243.5011.18335.96558.44629,1.43018.6394.46667.20142.89612.42749,1.31409.63879.4187.18713.80664.40552,1.16931.59534.364.15967.69885.37549.99841.5155.30164.1333.56934.30981.79358.408.44885.21631.72852.37292.72852.37292l.04858.02722a.09225.09225,0,0,1-.04858.17273s-.28064-.01074-.77161-.02966c-.24634-.00562-.53943-.05908-.87927-.09521-.34106-.03271-.71448-.12573-1.12842-.19678a46.52564,46.52564,0,0,1-5.86279-1.78687c-2.07629-.79919-4.13757-1.62488-5.71729-2.14136a24.48383,24.48383,0,0,0-2.66284-.7522.0936.0936,0,0,1-.00476-.18237Z"/>
      <path class="h" d="M139.00715,48.97073l-8,3.99966A59.59719,59.59719,0,0,1,138.57047,77.96C139.50491,65.36705,142.81422,57.657,139.00715,48.97073Z"/>
      <path class="av" d="M77.67134,30.16266s.40625-.093,1.11011-.20007a22.09179,22.09179,0,0,1,2.91858-.226c.60229-.01868,1.25305-.02246,1.93506.01819.68469.02637,1.40613.05859,2.14368.14795.73511.09631,1.50818.1355,2.27039.28979.76563.13733,1.54333.27673,2.32117.41614.76685.18713,1.53381.37415,2.28882.55823.75659.1748,1.47986.43848,2.189.64941.71033.20618,1.37952.47607,2.01758.71387.63953.23181,1.23364.49182,1.77917.73914a22.94764,22.94764,0,0,1,3.55652,1.91565l.02881.02a.09694.09694,0,0,1-.07983.17334S96.09,33.80145,89.9571,32.56427c-3.05469-.67151-6.127-1.26147-8.44275-1.63452-2.31323-.37927-3.86816-.56873-3.86816-.56873a.09674.09674,0,0,1-.01-.19031Z"/>
      <path class="aw" d="M160.17643,106.96583s-4.60171,3.46852-3,5.75172c1.458,2.07839,10,.3311,10,.3311Z"/>
      <path class="aw" d="M161.00715,152.29876s-.04883-.1709-.1405-.49121a9.78827,9.78827,0,0,0-.46008-1.3103,8.81681,8.81681,0,0,0-2.89038-3.54382,12.13916,12.13916,0,0,0-2.63733-1.40833,19.71454,19.71454,0,0,0-3.25818-.95178c-.60022-.08179-1.18945-.21619-1.80811-.29224-.626-.05347-1.24414-.1521-1.88647-.19458q-.96478-.05383-1.94226-.10828-.958-.01831-1.92078-.03674-1.03931.01978-2.07568.03955-.95856.05493-1.90723.10925c-.62561.04028-1.25525.14392-1.87769.19507-.6189.07446-1.20715.212-1.8075.29321a19.651,19.651,0,0,0-3.25671.9519,12.11821,12.11821,0,0,0-2.63635,1.407,8.81753,8.81753,0,0,0-2.892,3.54028,10.67757,10.67757,0,0,0-.46167,1.31042l-.14111.4906-.0885-.504a7.12078,7.12078,0,0,1-.08447-1.47437,7.76908,7.76908,0,0,1,.48364-2.30933,9.20293,9.20293,0,0,1,1.58-2.72754,12.17317,12.17317,0,0,1,2.85632-2.408,17.35466,17.35466,0,0,1,3.72986-1.70569,25.52669,25.52669,0,0,1,4.19385-.91882c.724-.07239,1.49438-.18445,2.19873-.214q1.03473-.03626,2.07471-.07275,1.11639.03772,2.22961.07556c.724.03186,1.44849.14539,2.1637.215a25.62662,25.62662,0,0,1,4.18433.92029,17.30141,17.30141,0,0,1,3.72852,1.70593,12.15138,12.15138,0,0,1,2.85522,2.40649,9.21792,9.21792,0,0,1,1.58044,2.72534,7.78552,7.78552,0,0,1,.48486,2.308,6.824,6.824,0,0,1-.083,1.47449Z"/>
      <path class="ax" d="M124.00715,106.96583s4.60171,3.46852,3,5.75172c-1.458,2.07839-10,.3311-10,.3311Z"/>
      <path class="a" d="M145.00715,150.96212c-14.35412,0-21,5.26233-21,10.0859s.64391,22.91131,20.52273,22.91131h.95455c19.87882,0,20.52273-18.08774,20.52273-22.91131S159.36127,150.96212,145.00715,150.96212Z"/>
      <path class="ax" d="M126.00715,102.96617c0,7.1791-4.50659,12.9989-15,12.9989s-17-5.81981-17-12.9989,6.50659-12.9989,17-12.9989S126.00715,95.78708,126.00715,102.96617Z"/>
      <path class="ay" d="M95.26826,105.821l.2522.34778c.1593.20581.41711.60693.70093.93335q.21368.26752.472.5907.29041.3197.62671.69006c.45532.48547,1.01.99023,1.62329,1.5282a19.75687,19.75687,0,0,0,4.703,2.96326,18.97932,18.97932,0,0,0,6.17151,1.58911,20.09579,20.09579,0,0,0,3.25244-.063,18.23261,18.23261,0,0,0,3.08923-.68225,17.0594,17.0594,0,0,0,2.736-1.21277,16.438,16.438,0,0,0,2.24133-1.56067,10.49653,10.49653,0,0,0,.91748-.82642c.2804-.277.56238-.53162.78772-.80542.4856-.52173.86475-1.01929,1.18542-1.42993.3208-.41028.53467-.76086.70337-.98865l.24817-.35681-.1311.4126c-.09485.26526-.1908.6792-.40466,1.166a13.57929,13.57929,0,0,1-.83545,1.74548,13.26644,13.26644,0,0,1-1.42969,2.10583,14.441,14.441,0,0,1-2.16675,2.16223,15.49621,15.49621,0,0,1-2.9342,1.83972A16.8748,16.8748,0,0,1,109.7,117.5628a20.422,20.422,0,0,1-3.84265-.41626,22.0659,22.0659,0,0,1-3.57422-1.11914,21.48669,21.48669,0,0,1-3.09668-1.64136,19.45657,19.45657,0,0,1-2.49329-1.91077,18.51828,18.51828,0,0,1-1.83459-1.91724q-.36951-.46289-.68982-.86438c-.20312-.29053-.38965-.5575-.55823-.79846a11.2081,11.2081,0,0,1-.65234-1.07654c-.13843-.24353-.21216-.37341-.21216-.37341a1.50228,1.50228,0,0,1,2.52222-1.62427Z"/>
      <path class="ax" d="M94.45588,91.481s.11963-.07825.344-.22473c.244-.14417.50891-.36707,1.01636-.62976.4895-.27161,1.08533-.58423,1.75964-.88306a19.06893,19.06893,0,0,1,2.33484-.90076,23.12369,23.12369,0,0,1,2.86267-.72253,25.89847,25.89847,0,0,1,3.26123-.394,29.38494,29.38494,0,0,1,3.50549.03979,26.40037,26.40037,0,0,1,3.57544.554,20.6,20.6,0,0,1,3.45911,1.08105,17.35931,17.35931,0,0,1,3.13306,1.61243,14.18537,14.18537,0,0,1,2.57849,2.0708,11.43372,11.43372,0,0,1,1.82532,2.32959,9.59024,9.59024,0,0,1,1.0094,2.26123,8.20443,8.20443,0,0,1,.36609,1.83948,6.623,6.623,0,0,1,.03247,1.18726l-.01233.41443s-.04053-.13892-.11633-.39929a9.26506,9.26506,0,0,0-.3678-1.09326,5.29792,5.29792,0,0,0-.32422-.74158,7.07847,7.07847,0,0,0-.44141-.83044,11.65937,11.65937,0,0,0-1.32214-1.7738,12.09549,12.09549,0,0,0-1.93628-1.70166,15.41962,15.41962,0,0,0-2.47888-1.44153,20.568,20.568,0,0,0-2.87915-1.0824,25.70186,25.70186,0,0,0-3.11206-.68665,26.54332,26.54332,0,0,0-3.1792-.288,26.02887,26.02887,0,0,0-3.08826.07629,25.18727,25.18727,0,0,0-2.85718.36926c-.89661.17749-1.74426.35193-2.50488.58484-.76416.22083-1.46057.43787-2.06274.66895-.615.22571-1.10779.44678-1.507.63184-.3949.16675-.78442.3833-1.01245.49036l-.36755.18359A1.50251,1.50251,0,0,1,94.45588,91.481Z"/>
      <g class="az">
        <ellipse class="b" cx="110.7841" cy="102.96617" rx="14.875" ry="12.92199"/>
        <g class="ba">
          <path class="bb" d="M129.1591,102.96617c0,8.05157-6.268,13.53732-14,13.53732s-14-5.48575-14-13.53732,6.268-13.53732,14-13.53732S129.1591,94.91461,129.1591,102.96617Z"/>
          <path class="bc" d="M129.1591,98.73576c0,8.05157-6.268,13.53732-14,13.53732s-14-5.48575-14-13.53732,6.268-13.53732,14-13.53732S129.1591,90.68419,129.1591,98.73576Z"/>
        </g>
        <ellipse class="bd" cx="109.70321" cy="98.61489" rx="2.625" ry="2.11521"/>
        <path class="be" d="M124.7841,101.11926a20.25013,20.25013,0,0,0-28,0c0-5.60734,6.268-10.153,14-10.153S124.7841,95.51192,124.7841,101.11926Z"/>
        <path class="bf" d="M125.6591,105.92746c0,3.03731-4.81827,8.03778-14,8.03778s-14.875-5.00047-14.875-8.03778c3.0625,2.11521,8.60417,2.96129,14.875,2.96129C117.857,108.88875,121.21118,108.25419,125.6591,105.92746Z"/>
      </g>
      <ellipse class="bg" cx="110.7841" cy="102.96617" rx="14" ry="11.99899"/>
      <g class="bh">
        <path class="bi" d="M144.00715,142.96279c-12.98706,0-17,5.26233-17,10.0859s2.6369,17.91173,16.56818,17.91173h.86364c14.15747,0,16.56818-13.08816,16.56818-17.91173S156.99422,142.96279,144.00715,142.96279Z"/>
        <path class="bj" d="M120.00715,152.96195a110.728,110.728,0,0,1,50,0l-9.5-8.99924c-9.62335-5.27812-20.43158-5.38767-32.5,0C128.00715,143.96271,119.75715,152.712,120.00715,152.96195Z"/>
        <circle class="bk" cx="144.00715" cy="149.9622" r="7.99966"/>
        <path class="bl" d="M131.00715,150.96209s.41138-.10815,1.13733-.26355c.73132-.132,1.77686-.35168,3.04224-.4967,1.265-.15491,2.74377-.31775,4.33325-.42334.795-.03748,1.61621-.10474,2.45227-.11853.83569-.02722,1.68494-.04187,2.53442-.05,1.69885.00391,3.39844.0387,4.989.14563,1.59106.09119,3.07068.26782,4.33533.42725,1.26563.15369,2.3092.37341,3.03735.51929.72473.16553,1.13879.26,1.13879.26L156.842,150.895c-.73706-.0658-1.79675-.08728-3.05994-.15149-1.26343-.07129-2.74109-.07678-4.32068-.108-1.5802-.02136-3.26575-.04272-4.95166-.02612-1.686-.01123-3.3717.03149-4.95337.04675-1.58008.04224-3.05957.038-4.32373.10461-1.26562.054-2.322.07813-3.06006.12939C131.43086,150.936,131.00715,150.96209,131.00715,150.96209Z"/>
        <path class="bm" d="M131.73564,165.46089h-3.52549l-2.203-4.43372s3.113.69458,4.93263-1.12491c1.19465-1.19455,2.09547-3.87806,5.06737-3.87806,3.0016,0,4,2.88672,4,5.53308C140.00715,164.82655,136.58493,165.46089,131.73564,165.46089Z"/>
        <line class="bn" x1="144.00715" y1="173.96017" x2="144.00715" y2="160.96127"/>
        <path class="bo" d="M122.48443,153.21417s3.83817,14.43127,21,14.43127c17.81782,0,21-14.30976,21-14.30976l1.90909,19.62457H119.62079Z"/>
        <path class="bm" d="M156.27866,165.46089h3.52549l2.203-4.43372s-3.113.69458-4.93263-1.12491c-1.19465-1.19455-2.09547-3.87807-5.06737-3.87807-3.0016,0-4,2.88673-4,5.5331C148.00715,164.82655,151.42938,165.46089,156.27866,165.46089Z"/>
        <path class="bp" d="M139.00691,150.21112a12.95867,12.95867,0,0,1,1.56079-.29553,27.80491,27.80491,0,0,1,6.87512-.04431,12.852,12.852,0,0,1,1.56433.27722,12.83073,12.83073,0,0,1-1.56067.29688,27.81371,27.81371,0,0,1-6.87524.04175A12.96436,12.96436,0,0,1,139.00691,150.21112Z"/>
      </g>
      <path class="bq" d="M141.00715,118.96482c0,1.65671-1.11929,1.99983-2.5,1.99983a2.78429,2.78429,0,0,1-2.5-2.99975c0-1.65671.24467-2.99975,2.5-2.99975,1.04312,0,1.08186,1.62227,1.5,1.99983A2.3995,2.3995,0,0,1,141.00715,118.96482Z"/>
      <circle class="br" cx="138.00715" cy="128.96398" r="0.99996"/>
      <circle class="bs" cx="161.50715" cy="86.46757" r="0.49998"/>
      <circle class="br" cx="145.50715" cy="133.4636" r="0.49998"/>
      <circle class="bs" cx="169.50715" cy="157.46157" r="0.49998"/>
      <circle class="bs" cx="170.50715" cy="154.46182" r="0.49998"/>
      <path class="bq" d="M139.90981,134.32073c0,1.30174-1.08319,1.34466-2.3572,2.357-.68151.54153-1.22665,1.8845-2.35932,1.8845-.834,0-1.444-2.23362-1.17648-4.2415a2.82741,2.82741,0,0,1,2.9465-2.357A2.70167,2.70167,0,0,1,139.90981,134.32073Z"/>
      <circle class="br" cx="153.50715" cy="133.4636" r="1.49994"/>
      <path class="bt" d="M77.00715,274.97066"/>
      <path class="an" d="M205.9779,224.7957a13.11957,13.11957,0,0,1,.56121,6.34217c7.59994,0,12.68994-3.14993,16.09891-7.36521"/>
      <path class="bu" d="M204.93684,222.90038a9.00552,9.00552,0,0,1,1.04106,1.89533"/>
      <ellipse class="bs" cx="167.00715" cy="149.9622" rx="1" ry="1.99983"/>
      <ellipse class="bv" cx="166.50715" cy="136.46334" rx="0.49999" ry="1.49989" transform="translate(-39.6758 74.53221) rotate(-22.61815)"/>
      <ellipse class="bs" cx="156.50715" cy="90.46723" rx="1.49988" ry="0.5" transform="translate(24.91093 214.40771) rotate(-73.31355)"/>
      <ellipse class="bv" cx="168.50715" cy="141.46292" rx="0.5" ry="1.49988" transform="translate(-19.22486 26.73232) rotate(-8.58291)"/>
      <path class="d" d="M213.60061,203.57016"/>
      <path class="d" d="M220.17968,308.75908"/>
      <path class="a" d="M77.00715,274.97066"/>
      <path class="ac" d="M175.07686,236.46419"/>
      <path class="an" d="M64.91347,220.09722c3.98184,6.43271,9.56474,10.9701,17.39694,10.9701a20.06733,20.06733,0,0,1,.61591-5.06837"/>
      <path class="bu" d="M82.92633,225.999c.11582-.43527.24981-.86134.40348-1.27337"/>
      <path class="bu" d="M222.638,223.77266a26.6379,26.6379,0,0,0,3.67018-6.17959"/>
      <path class="bu" d="M83.32981,224.72558c1.04089-2.791,2.98464-4.93795,6.2997-4.93795,0,0,.05029,4.10805,3.68726,4.10805,0-3.23123,3.30786-4.07607,3.30786-4.07607s1.56152,3.08153,4.57719,3.08153c0-2.325,3.50588-2.17322,3.50588-2.17322s2.372,8.40847,8.84985,8.40847c0-6.52579,6.73411-5.81675,6.73411-5.81675s1.86065,6.03951,4.85207,6.03951c0-3.666,4.875-3.74968,4.875-3.74968a8.67722,8.67722,0,0,0,8,5.24956c0-2.63241,2.754-4.45922,4.42413-4.45922,0,3.2621,4.48561,4.07761,4.48561,4.07761s1.51065,3.59526,7.63006,3.59526c0-6.5311,8.22394-8.3212,8.22394-8.3212a11.30957,11.30957,0,0,0,9.864,5.65077c0-3.143,3.28642-4.97547,7.2662-4.97547,0-3.61768,5.9001-4.23361,5.9001-4.23361s2.75279,5.82411,8.656,5.82411c0,0-.12894-8.31753,6.66772-8.31753a10.72282,10.72282,0,0,1,3.80031,3.20063"/>
      <path class="bu" d="M64.10048,218.71918q.39495.702.813,1.378"/>
      <path class="aw" d="M157.67342,102.96617c0,7.1791,4.50659,12.9989,15,12.9989s17-5.81981,17-12.9989-6.50659-12.9989-17-12.9989S157.67342,95.78708,157.67342,102.96617Z"/>
      <path class="b" d="M190.51423,107.17462s-.07617.1283-.219.36914a12.22219,12.22219,0,0,1-.6604,1.05261q-.24628.34589-.54382.76379-.31476.38708-.6792.83533a18.15543,18.15543,0,0,1-1.80176,1.84973,20.54774,20.54774,0,0,1-2.43506,1.84534,20.95,20.95,0,0,1-3.00476,1.61133,21.504,21.504,0,0,1-3.47314,1.10632,20.14351,20.14351,0,0,1-3.73621.438,16.793,16.793,0,0,1-7.20459-1.4519,15.19057,15.19057,0,0,1-2.89795-1.74,15.8127,15.8127,0,0,1-2.1759-2.0636,12.59907,12.59907,0,0,1-1.47864-2.02307,16.48076,16.48076,0,0,1-.89441-1.69189c-.2356-.47192-.34985-.8761-.45728-1.13489l-.15063-.40332.22864.36609c.15625.23425.35168.59448.65088,1.01978a16.005,16.005,0,0,0,1.12634,1.48352c.21692.28406.49219.54932.76367.84045a10.70042,10.70042,0,0,0,.89258.87427,14.69131,14.69131,0,0,0,2.2323,1.65918,17.37786,17.37786,0,0,0,2.77209,1.31262,17.73631,17.73631,0,0,0,3.16333.7688,19.49943,19.49943,0,0,0,3.351.1178,19.06433,19.06433,0,0,0,6.379-1.5802,20.26252,20.26252,0,0,0,2.678-1.42786,18.29177,18.29177,0,0,0,2.17517-1.631c.6283-.561,1.19263-1.08984,1.65625-1.5957l.63721-.719c.177-.22754.3396-.43665.48645-.62537.29675-.35474.5332-.74353.69275-.95715l.24561-.35205a1.0007,1.0007,0,0,1,1.68152,1.08289Z"/>
      <path class="aw" d="M187.73091,94.0827l-.36755-.18359c-.228-.10706-.61755-.32361-1.01245-.49036-.399-.18506-.892-.40613-1.507-.63184-.60217-.23108-1.29858-.44812-2.06262-.66895-.76062-.23291-1.6084-.40735-2.505-.58484a25.18366,25.18366,0,0,0-2.85718-.36926,26.02887,26.02887,0,0,0-3.08826-.07629,26.54332,26.54332,0,0,0-3.1792.288,25.707,25.707,0,0,0-3.11206.68665,20.568,20.568,0,0,0-2.87915,1.0824,15.41963,15.41963,0,0,0-2.47888,1.44153,12.08911,12.08911,0,0,0-1.93616,1.70166,11.64979,11.64979,0,0,0-1.32227,1.7738,7.07849,7.07849,0,0,0-.44141.83044,5.29792,5.29792,0,0,0-.32422.74158,9.23719,9.23719,0,0,0-.36768,1.09326l-.11646.39929-.01233-.41443a6.623,6.623,0,0,1,.03247-1.18726,8.20442,8.20442,0,0,1,.36609-1.83948,9.59024,9.59024,0,0,1,1.0094-2.26123,11.438,11.438,0,0,1,1.82532-2.32959,14.18537,14.18537,0,0,1,2.57849-2.0708,17.35931,17.35931,0,0,1,3.13306-1.61243,20.6,20.6,0,0,1,3.45911-1.08105,26.39914,26.39914,0,0,1,3.57556-.554,29.38263,29.38263,0,0,1,3.50537-.03979,25.89847,25.89847,0,0,1,3.26123.394,23.12369,23.12369,0,0,1,2.86267.72253,19.06893,19.06893,0,0,1,2.33484.90076c.67432.29883,1.27014.61145,1.75977.88306.50732.2627.77222.4856,1.01624.62976.22437.14648.344.22473.344.22473a1.50251,1.50251,0,0,1-1.49377,2.60168Z"/>
      <g class="bw">
        <ellipse class="b" cx="172.89648" cy="102.96617" rx="14.875" ry="12.92199"/>
        <g class="bx">
          <path class="bb" d="M154.52148,102.96617c0,8.05157,6.268,13.53732,14,13.53732s14-5.48575,14-13.53732-6.268-13.53732-14-13.53732S154.52148,94.91461,154.52148,102.96617Z"/>
          <path class="bc" d="M154.52148,98.73576c0,8.05157,6.268,13.53732,14,13.53732s14-5.48575,14-13.53732-6.268-13.53732-14-13.53732S154.52148,90.68419,154.52148,98.73576Z"/>
        </g>
        <ellipse class="bd" cx="173.97736" cy="98.61489" rx="2.625" ry="2.11521"/>
        <path class="be" d="M158.89648,101.11926a20.25013,20.25013,0,0,1,28,0c0-5.60734-6.268-10.153-14-10.153S158.89648,95.51192,158.89648,101.11926Z"/>
        <path class="bf" d="M158.02148,105.92746c0,3.03731,4.81827,8.03778,14,8.03778s14.875-5.00047,14.875-8.03778c-3.0625,2.11521-8.60417,2.96129-14.875,2.96129C165.82356,108.88875,162.4694,108.25419,158.02148,105.92746Z"/>
      </g>
      <ellipse class="bg" cx="172.89648" cy="102.96617" rx="14" ry="11.99899"/>
      <path class="a" d="M64.34788,212.39446"/>
      <path class="h" d="M79.75715,212.39446c-5.75,7.80858-21,7.80858-26.79535-2.43733,13.39767-4.7496,14.58172-15.32473,13.87914-20.716"/>
      <path class="ap" d="M63.6036,199.518"/>
      <path class="ap" d="M63.60359,199.518c15.77963-2.227,22.816-12.62876,30.164-24.78888l-24.08724,8.79782A56.4797,56.4797,0,0,0,63.60359,199.518Z"/>
      <path class="ap" d="M84.23816,188.38444c-10.60261,11.43148-15.13958,7.65425-21.69136,15.42826-.21245-8.38477,2.1691-17.59885,7.13351-20.28575"/>
      <path class="k" d="M79.75715,212.39447l-.47119.61548a7.11764,7.11764,0,0,1-.58289.67358,8.58964,8.58964,0,0,1-.82739.81262,12.87888,12.87888,0,0,1-1.0675.86584,15.29425,15.29425,0,0,1-1.29517.82837,13.5885,13.5885,0,0,1-1.47375.73718,15.99392,15.99392,0,0,1-1.59583.599,15.83055,15.83055,0,0,1-1.65173.43542c-.5498.12805-1.10229.19836-1.635.27454a18.60182,18.60182,0,0,1-2.94348.1134,16.38054,16.38054,0,0,1-2.08289-.1958c-.50024-.08105-.78613-.12732-.78613-.12732a.50033.50033,0,1,1,.15991-.98779l.02527.00476.03284.00708.73657.16113a15.50119,15.50119,0,0,0,1.96948.296,17.84262,17.84262,0,0,0,2.82581.04785c.51538-.04517,1.05286-.08289,1.58972-.17725a15.271,15.271,0,0,0,1.62122-.33252,15.55723,15.55723,0,0,0,1.582-.49573,13.239,13.239,0,0,0,1.47681-.639,14.98832,14.98832,0,0,0,1.3136-.74084,12.704,12.704,0,0,0,1.09729-.79358,8.47619,8.47619,0,0,0,.86108-.75647,7.05309,7.05309,0,0,0,.6167-.63745Z"/>
      <path class="h" d="M209.33644,212.6003c5.75,7.80858,21,7.80858,26.79535-2.43733-13.39767-4.7496-14.58172-15.32473-13.87914-20.716"/>
      <path class="k" d="M209.3365,212.60028l.52332.60962a7.10775,7.10775,0,0,0,.64111.65881,8.523,8.523,0,0,0,.89673.77917,12.83884,12.83884,0,0,0,1.14417.81287,15.13766,15.13766,0,0,0,1.37073.75159q.36877.16992.7489.34521.39148.14594.79138.29517a15.74534,15.74534,0,0,0,1.64844.48535,15.38472,15.38472,0,0,0,1.687.3114c.55847.08618,1.11646.11255,1.65161.147a17.8575,17.8575,0,0,0,2.92639-.127,15.3955,15.3955,0,0,0,2.03027-.37073c.48169-.12292.757-.19312.757-.19312l.03247-.0083a.50032.50032,0,0,1,.24731.9696l-.02588.00586-.80969.1615a16.27065,16.27065,0,0,1-2.151.27515,18.637,18.637,0,0,1-3.05261-.031c-.55383-.06494-1.12817-.12366-1.70068-.24329a15.92113,15.92113,0,0,1-1.72107-.41406,16.19251,16.19251,0,0,1-1.66541-.58875q-.40027-.17432-.79309-.34534-.37848-.1994-.74658-.39355a15.42752,15.42752,0,0,1-1.354-.8396,13.02733,13.02733,0,0,1-1.1156-.88586,8.65837,8.65837,0,0,1-.86377-.83569,7.16828,7.16828,0,0,1-.60742-.69531C209.5146,212.83184,209.3365,212.60028,209.3365,212.60028Z"/>
      <path class="q" d="M213.07686,195.78887c4.15075,0,8.78322,5.47615,13.496,8.26148.21245-8.38477-2.19514-17.63066-7.15955-20.31757"/>
      <path class="bt" d="M82.17384,230.78869"/>
      <path class="bt" d="M64.94005,220.07968"/>
      <path class="a" d="M218.07751,307.39826a9.26888,9.26888,0,0,0,2.88451-2.07476"/>
      <path class="a" d="M229.4145,202.09006"/>
      <path class="a" d="M64.87071,305.115a8.07547,8.07547,0,0,0,3.6373,1.47144"/>
      <path class="m" d="M69.44609,216.70656"/>
      <path class="by" d="M84.23811,188.38446s-.28723.3064-.79.84265c-.25134.26807-.55664.59363-.90674.967-.349.37451-.78088.76074-1.23193,1.20251-.44739.447-.95312.90784-1.51208,1.36865q-.4129.35321-.847.72485-.45538.3446-.929.70325c-.6189.49548-1.31653.92554-2.00684,1.3916-.71472.42529-1.4386.86816-2.19531,1.24573-.74536.40173-1.51587.74976-2.26416,1.10352-.75159.34888-1.48877.68555-2.18518,1.03613-.70129.34192-1.34558.72168-1.95337,1.08325a17.75856,17.75856,0,0,0-1.60388,1.17053,12.53726,12.53726,0,0,0-1.24683,1.121,9.75237,9.75237,0,0,0-.89233.93872l-.74426.85107-.02417.02759a.50007.50007,0,1,1-.75281-.65845l.01233-.01355s.29395-.31238.80859-.85889a10.43792,10.43792,0,0,1,.96875-.94592,13.35545,13.35545,0,0,1,1.35132-1.12646,18.56793,18.56793,0,0,1,1.7251-1.16235c.64648-.35376,1.32861-.72107,2.05664-1.04333.72327-.33069,1.47937-.64246,2.24-.96179.75916-.325,1.53357-.6405,2.28162-1.00879.76074-.3446,1.48706-.7533,2.20825-1.14648.69641-.43384,1.40222-.83289,2.032-1.30017q.48175-.33728.94617-.66223l.86694-.68774c.57263-.43726,1.09216-.87646,1.553-1.304.465-.42273.90967-.79126,1.27246-1.15271.36377-.36011.68091-.67407.942-.93262C83.93965,188.68,84.23811,188.38446,84.23811,188.38446Z"/>
      <path class="by" d="M213.07686,195.78888s.25024.012.68811.03308a7.80842,7.80842,0,0,1,1.77063.43958c.34448.15393.73547.29126,1.1145.50232.39111.19019.78662.41956,1.1925.66333.806.49426,1.64136,1.06213,2.45129,1.65674,1.62585,1.18518,3.20923,2.40735,4.44409,3.23621,1.22986.83765,2.08923,1.2998,2.08923,1.2998a.50036.50036,0,1,1-.474.88135l-.02612-.01514-.00867-.00537s-.876-.54517-2.07581-1.47766c-1.20667-.92444-2.718-2.24988-4.25464-3.52368-.76709-.6405-1.55444-1.25049-2.31775-1.78687-.384-.26453-.75916-.51465-1.13074-.72485-.361-.23181-.73279-.38818-1.06384-.56177a7.71009,7.71009,0,0,0-1.714-.54114Z"/>
      <g class="af">
        <path class="k" d="M79.90864,212.52508s-.31091.37878-.8551,1.04163a8.29352,8.29352,0,0,1-1.11975,1.10718,9.28067,9.28067,0,0,1-1.64673,1.22644q-.23584.15417-.48132.31482-.26276.12854-.53516.26184-.5462.26514-1.12732.54712c-.39978.1554-.82092.28906-1.24634.43958q-.32007.11023-.647.22266-.33673.07544-.67957.15222c-.45837.09448-.91992.223-1.39636.29321q-.71906.08-1.45361.16174a12.32466,12.32466,0,0,1-1.48437.04443,9.31641,9.31641,0,0,1-1.496-.06116c-.49634-.06421-.99548-.10986-1.48657-.19019q-.728-.16992-1.44861-.338a10.19406,10.19406,0,0,1-1.39307-.443,9.82967,9.82967,0,0,1-1.32617-.52454q-.6297-.31311-1.23682-.615a11.91692,11.91692,0,0,1-1.11829-.70386,12.60638,12.60638,0,0,1-1.90393-1.48853,10.18786,10.18786,0,0,1-1.39319-1.49048c-.19067-.23621-.39014-.4408-.536-.65906l-.38416-.61133c-.46167-.73645-.72559-1.15723-.72559-1.15723a.18068.18068,0,0,1,.2373-.25574l.111.05884s.12488.066.359.19006c.21619.13171.56482.298.92957.53711a12.154,12.154,0,0,0,1.355.75378,17.01989,17.01989,0,0,0,1.70068.801,16.40648,16.40648,0,0,0,1.93811.74829c.35278.095.65466.27393,1.0271.34753.36938.07642.72046.19092,1.0802.29224.72913.17957,1.48462.33667,2.24512.47473.38574.05957.77563.09644,1.156.18494.389.04834.785.066,1.176.10632a6.89847,6.89847,0,0,0,1.177.085c.3916-.015.78906.09082,1.17627.04932.38818-.01965.77686-.01843,1.168.00073.38684-.00256.75732-.06836,1.14185-.06555l.57129-.0177c.18042-.03149.36206-.05615.54614-.07239q.55975-.056,1.09375-.1095c.34619-.06177.6853-.13318,1.03125-.1825q.26294-.037.51685-.07251c.1582-.04224.311-.09131.47168-.12524.63513-.15808,1.27856-.26453,1.75659-.43372a7.98855,7.98855,0,0,0,1.45947-.50879c.41174-.21106.78223-.3363,1.01465-.43909.24011-.09619.37817-.13892.37817-.13892l.10547-.03259a.18483.18483,0,0,1,.19751.29382Z"/>
      </g>
      <g class="af">
        <path class="k" d="M209.57063,212.51385s.13794.04272.37817.13879c.2323.10291.60291.22815,1.01465.43921a7.97928,7.97928,0,0,0,1.45947.50867c.478.16931,1.12146.27576,1.75659.43384.16052.03394.31348.083.47168.12524l.51685.07239c.34583.04932.68506.12085,1.03125.18262q.5332.05328,1.09375.1095c.184.01624.36572.04089.54614.07239q.2829.00879.57129.01758c.38452-.00281.75488.06311,1.14185.06555.391-.01916.77979-.02026,1.168-.00061.38721.04138.78467-.06433,1.17627-.04932a6.89847,6.89847,0,0,0,1.177-.085c.391-.04028.787-.05811,1.176-.10632.38037-.08862.77014-.12537,1.15588-.18494.76062-.13806,1.51611-.29517,2.24524-.47473.35974-.10132.71082-.21582,1.08008-.29224.37256-.07361.67444-.25269,1.02722-.34753a16.3962,16.3962,0,0,0,1.938-.74829,17.02251,17.02251,0,0,0,1.70081-.801,12.17621,12.17621,0,0,0,1.355-.75378c.36475-.23914.71326-.4054.92957-.53711.23413-.124.359-.19006.359-.19006l.11072-.05859a.18055.18055,0,0,1,.23743.25549l-.72546,1.15723c-.116.18457-.24438.38892-.38428.61133-.14575.21826-.34521.42273-.53589.65906a10.18249,10.18249,0,0,1-1.39331,1.49036,12.59165,12.59165,0,0,1-1.90381,1.48865,11.9328,11.9328,0,0,1-1.11829.70386q-.60626.30139-1.23694.61487a9.80768,9.80768,0,0,1-1.32617.52466,10.21715,10.21715,0,0,1-1.39307.443q-.71942.16791-1.44849.338c-.49109.08032-.99023.126-1.48657.19019a9.31735,9.31735,0,0,1-1.49609.06116,12.3234,12.3234,0,0,1-1.48425-.04443q-.7337-.08167-1.45361-.16187c-.47656-.07007-.938-.19861-1.39636-.29309q-.34277-.07672-.67957-.15222l-.64709-.22266c-.42529-.15051-.84644-.28418-1.24622-.43958q-.58044-.28162-1.12732-.54712-.27228-.1333-.53516-.26184-.24536-.16058-.48145-.31482a9.29557,9.29557,0,0,1-1.64673-1.22644,8.29894,8.29894,0,0,1-1.11963-1.10718c-.54419-.66284-.8551-1.04163-.8551-1.04163a.18483.18483,0,0,1,.19629-.29419Z"/>
      </g>
      <path class="bz" d="M226.57765,204.05025a22.4463,22.4463,0,0,0,9.55,6.10947,15.59361,15.59361,0,0,1-9.85,7.41936,26.88121,26.88121,0,0,1-3.65,6.15951c5.36,8.2493,9.51,20.16828,9.44,37.27682-.1,25.43785-6.92,43.38635-14.01,46.3861-.57,19.54834-17.72,35.437-28.07,35.437,0,13.10888-17.12,17.76852-20.98,18.85839,0,5.34958-12.43,12.279-24.85,12.36895-12.43.09-24.86-6.66942-24.86-12.67892-8.29,0-21.54-8.68927-21.54-18.43844-14.99,0-29.2-16.20859-30.25-36.56692-9.59-2.61977-15.66-25.28784-15.66-45.27614,0-19.86832,6.04-32.75724,13.06-41.02656-.52-.81994-1-1.67985-1.45-2.55978a15.71861,15.71861,0,0,1-10.5-7.55936,22.27361,22.27361,0,0,0,9.59-6.14944"/>
      <path class="au" d="M62.54762,203.81028a35.18962,35.18962,0,0,1,2.62-14.84878c-2.44-16.49861-5.16-34.13713-5.16-39.93663,0-4.99958,6-16.25864,6-22.02811,0-8.74926-7.58-22.39813-9.75-30.27747-.87-3.1497-9.99-6.47943-11.67-13.29886-1.3-5.27958-3.53-16.87858-3.53-16.87858-6.15,1.80984-13.07,3.25973-16.01,1.81985-1.87-.91991-3.01-3.40969-1.29-8.73925,1.42-4.39965,5.63-29.8975,5.63-29.8975,1.25-6.49945,7.89-10.51907,14.31-9.21919,0,0,17.68,2.61977,27.12,2.61977,13.73,0,24.52-2.00984,29.13,1.15988,4.15,2.85974,6.27,13.08892,11.06,14.68876,7,2.32982,58,1.3299,68-1.99983,7.47-2.48978,10.5-19.99831,20-19.99831,10.06,0,26.25,16.99856,36,16.99856,5.77,0,19.72-1.74985,23,2.99975,5.76,8.32931-2.95,29.71752-10,36.99687-3.88,3.99966-9.25,6.49945-13,3.99966-2.24-1.49987-5.87-2.64974-8-.99992-7.77,6.01951,3,19.99831,3,35.997,0,7.61935-12,17.49852-12,25.9978,0,13.32889,5.75,34.36709,5.75,48.99586,0,.27,0,.54994-.01.81994,2.02,4.12966,2.97,9.87917,2.83,15.26873"/>
      <path class="ca" d="M220.32646,167.47324c4.60625,2.21751,7.03271,8.09235,6.59117,13.9351,0,0-3.6075-5.01284-7.08632-5.01284"/>
      <path class="ca" d="M60.43957,150.55s-5.70985,7.4115-1.58046,15.82291c0,0,1.56143-5.832,4.41136-6.66294"/>
      <path class="cb" d="M65.384,180.459a12.511,12.511,0,0,1-8.3345-5.78674s6.20373,1.70317,8.3345-.711"/>
      <path class="ca" d="M65.90138,117.15791a23.2114,23.2114,0,0,0-2.63091,16.80564s1.31293-6.22959,5.792-7.48031"/>
      <path class="cb" d="M59.43957,100.126s-4.76575,6.0899.41954,14.823c0,0-.5628-5.42861,2.41136-6.66294"/>
      <path class="cc" d="M44.71888,73.0463s-2.89232,12.92638,3.24805,20.96264c0,0-.5628-5.42861,2.41136-6.66294"/>
      <path class="cc" d="M52.30384,90.91949s-1.78563,3.2717,2.22189,9.40734c0,0-.24113-4.92076,2.306-6.58412"/>
      <path class="ca" d="M41.26781,23.80012a32.165,32.165,0,0,0-12.92865-2.40631s4.04184,2.58022,3.50475,5.755"/>
      <path class="av" d="M31.81257,22.7287s2.19275.21741,4.35071.6687c1.07434.24426,2.13611.54126,2.92126.79883.78613.25476,1.29639.46387,1.29639.46387a.04719.04719,0,0,1-.01184.09045l-.02393.00293s-.15479.01965-.41162.02991c-.25476.00439-.61523.01331-1.02954-.01343-.41846-.01562-.89246-.06177-1.39478-.12915-.24768-.04553-.51257-.05835-.76978-.11743-.25977-.04919-.52368-.09924-.7876-.14929-.26147-.06409-.52295-.12817-.78027-.19128-.2605-.04907-.50732-.14893-.75305-.214a12.3129,12.3129,0,0,1-1.32776-.48035,8.27519,8.27519,0,0,1-1.2887-.66028l-.02014-.01343a.04708.04708,0,0,1,.03064-.08606Z"/>
      <path class="cd" d="M58.34587,23.53233s-2.43167-3.41682-8.72962-3.88463c0,0,1.8354,1.7461,3.38366,3.39051"/>
      <path class="cd" d="M250.56959,34.91834a32.16532,32.16532,0,0,1,13.14327.44254s-5.50377,1.64645-5.66509,4.8623"/>
      <path class="ce" d="M260.0218,36.01349a8.27063,8.27063,0,0,1-1.40088.36646,12.30279,12.30279,0,0,1-1.40015.18225c-.25391.0105-.51648.05469-.78149.04639l-.8031.01819c-.26855-.00818-.537-.01624-.80139-.02429-.26379.0022-.52527-.04248-.77686-.05164-.505-.0426-.97791-.1-1.38977-.175-.4104-.06335-.76038-.15-1.00818-.20923-.24854-.06555-.39551-.118-.39551-.118l-.02258-.00806a.04724.04724,0,0,1,.00781-.09094s.54346-.09387,1.36609-.17285c.82214-.082,1.9231-.1427,3.02478-.14917,2.20459.02539,4.39246.28662,4.39246.28662a.04713.04713,0,0,1,.01147.0907Z"/>
      <path class="ca" d="M252.2261,65.4463c1.65971,6.15923-2.45517,13.35026-7.21607,16.45021,0,0,2.01016-7.281-.82311-9.29945"/>
      <path class="ca" d="M258.25421,49.16279c1.77325,4.58817,1.12395,12.38831-1.94036,17.26045,0,0,.69977-6.63451-2.962-8.8307"/>
      <path class="cb" d="M225.38383,101.43369a7.91894,7.91894,0,0,0,8.3345-3.78691s-6.61491.36055-8.47369-4.13282"/>
      <path class="cb" d="M228.56365,107.95452c4.89595,3.36774,4.54734,13.31456,2.46882,18.60157,0,0-.927-8.6794-4.40587-8.6794"/>
      <path class="ca" d="M216.30966,144.93044c2.003,7.42167,6.42446,12.98369,11.25371,15.17241,0,0-7.85387,1.45961-10.717-3.007"/>
    </g>
    <path class="bz" d="M61.00715,275.47589c54.66876,6.58258,108.6858,6.75055,162,0"/>
    <line class="bz" x1="30.50715" y1="274.47589" x2="43.50715" y2="274.47589"/>
    <line class="bz" x1="18.00715" y1="274.47589" x2="24.00715" y2="274.47589"/>
    <line class="bz" x1="253.50715" y1="274.47589" x2="240.50715" y2="274.47589"/>
    <line class="bz" x1="266.00715" y1="274.47589" x2="260.00715" y2="274.47589"/>
  </g>
</svg>
