<svg xmlns="http://www.w3.org/2000/svg" xmlns:xlink="http://www.w3.org/1999/xlink" width="278.01" height="375.07" viewBox="0 0 278.01 375.07">
  <defs>
    <style>
      .a, .ac, .ak, .al, .an, .au, .bg, .bn, .bt, .bu, .bz, .c, .e, .i, .o, .s, .u, .x {
        fill: none;
      }

      .b, .bd, .bf {
        fill: #fff;
      }

      .bz, .c {
        stroke: #b29c8b;
      }

      .ac, .ak, .al, .an, .au, .bn, .bt, .bu, .bz, .c, .ca, .cb, .cc, .cd, .e, .i, .o, .s, .u {
        stroke-linecap: round;
      }

      .ac, .an, .au, .bn, .bt, .bu, .bz, .c, .ca, .cb, .cc, .cd, .e, .i, .o, .u {
        stroke-linejoin: round;
      }

      .an, .au, .bu, .bz, .c, .ca, .cb, .cc, .cd, .o, .s, .t, .u, .x {
        stroke-width: 2px;
      }

      .c {
        stroke-dasharray: 12 6 4 8 8 12;
      }

      .d {
        fill: #f9f2ed;
      }

      .e {
        stroke: #f9f2ed;
      }

      .e, .i {
        stroke-width: 6px;
      }

      .f {
        clip-path: url(#a);
      }

      .g {
        clip-path: url(#b);
      }

      .h {
        fill: #f2eae3;
      }

      .i {
        stroke: #f2eae3;
      }

      .j {
        opacity: 0.5;
      }

      .k {
        fill: #d1c8c3;
      }

      .l {
        fill: #dbd2cc;
      }

      .m {
        fill: #ede3dc;
      }

      .n {
        fill: #846664;
      }

      .bf, .bk, .n, .o, .p {
        opacity: 0.1;
      }

      .o {
        stroke: #846664;
      }

      .bq, .br, .bs, .bv, .ca, .q {
        fill: #563934;
      }

      .r {
        fill: #877870;
      }

      .s {
        stroke: #877870;
      }

      .ak, .al, .bg, .bj, .bm, .s, .t, .x, .z {
        stroke-miterlimit: 10;
      }

      .t {
        fill: #529962;
      }

      .ac, .bu, .t, .x {
        stroke: #367a43;
      }

      .u {
        stroke: #2f3f32;
      }

      .v {
        clip-path: url(#c);
      }

      .w {
        fill: #ccd3cb;
      }

      .x {
        stroke-linecap: square;
        stroke-opacity: 0.2;
      }

      .ab, .ad, .y, .z {
        fill: #367a43;
      }

      .z {
        stroke: #286331;
      }

      .aa {
        clip-path: url(#d);
      }

      .ab, .af, .bd, .bv {
        opacity: 0.2;
      }

      .ad, .bs {
        opacity: 0.4;
      }

      .ae {
        clip-path: url(#e);
      }

      .ag {
        fill: #9e3e3e;
      }

      .ah {
        fill: #e29898;
      }

      .ai {
        fill: #c46565;
      }

      .aj {
        fill: #ede4e4;
      }

      .ak {
        stroke: #fff;
      }

      .al {
        stroke: #c46565;
      }

      .am {
        fill: url(#f);
      }

      .an, .bt {
        stroke: #d1c8c3;
      }

      .ao {
        clip-path: url(#g);
      }

      .ap, .cb {
        fill: #492e2a;
      }

      .aq, .cd {
        fill: #60413e;
      }

      .ar {
        fill: #876c6b;
      }

      .as {
        clip-path: url(#h);
      }

      .at, .cc {
        fill: #3d2623;
      }

      .au, .ca, .cb, .cc, .cd {
        stroke: #2d1614;
      }

      .av {
        fill: #704b49;
      }

      .aw {
        fill: #d6cac4;
      }

      .ax {
        fill: #422926;
      }

      .ay {
        fill: #604545;
      }

      .az {
        clip-path: url(#i);
      }

      .ba {
        clip-path: url(#j);
      }

      .bb {
        fill: #56351e;
      }

      .bc {
        fill: #161313;
      }

      .be {
        fill: #0f0d0c;
      }

      .be, .bo {
        opacity: 0.3;
      }

      .bg {
        stroke: #161313;
      }

      .bh {
        clip-path: url(#k);
      }

      .bi {
        fill: #231f1d;
      }

      .bj {
        fill: #302c2b;
        stroke: #3a3635;
      }

      .bk, .bl {
        fill: #595656;
      }

      .bm {
        fill: #141110;
        stroke: #3f3a38;
      }

      .bn {
        stroke: #141110;
      }

      .bp {
        fill: #726f6e;
      }

      .bq {
        opacity: 0.8;
      }

      .br {
        opacity: 0.6;
      }

      .bw {
        clip-path: url(#l);
      }

      .bx {
        clip-path: url(#m);
      }

      .by {
        fill: #2d1614;
      }

      .ce {
        fill: #84605f;
      }
    </style>
    <clipPath id="a">
      <rect class="a" x="22.01" y="15.48" width="242" height="260"/>
    </clipPath>
    <clipPath id="b">
      <path class="a" d="M248,74c-3.88,4-9.25,6.5-13,4-2.24-1.5-5.87-2.65-8-1-7.77,6,3,20,3,36,0,7.62-12,17.5-12,26,0,13.33,5.75,34.37,5.75,49,0,.27,0,.55,0,.82,2,4.13,3,9.88,2.83,15.27a22.45,22.45,0,0,0,9.55,6.11,15.59,15.59,0,0,1-9.85,7.42,26.88,26.88,0,0,1-3.65,6.16c5.36,8.25,9.51,20.17,9.44,37.28-.1,25.44-6.92,43.39-14,46.39-.57,19.55-17.72,35.44-28.07,35.44,0,13.11-17.12,17.77-21,18.86,0,5.35-12.43,12.28-24.85,12.37s-24.86-6.67-24.86-12.68c-8.29,0-21.54-8.69-21.54-18.44-15,0-29.2-16.21-30.25-36.57-9.59-2.62-15.66-25.29-15.66-45.28s6-32.76,13.06-41c-.52-.82-1-1.68-1.45-2.56A15.72,15.72,0,0,1,53,210a22.27,22.27,0,0,0,9.59-6.15A35.19,35.19,0,0,1,65.17,189C62.73,172.49,60,154.85,60,149c0-5,6-16.26,6-22,0-8.75-7.58-22.4-9.75-30.28-.87-3.15-10-6.48-11.67-13.3-1.3-5.28-3.53-16.88-3.53-16.88C34.91,68.38,28,69.83,25,68.39c-1.87-.92-3-3.41-1.29-8.74,1.42-4.4,5.63-29.9,5.63-29.9,1.25-6.5,7.89-10.52,14.31-9.22,0,0,17.68,2.62,27.12,2.62,13.73,0,24.52-2,29.13,1.16C104.1,27.17,106.22,37.4,111,39c7,2.33,58,1.33,68-2,7.47-2.49,10.5-20,20-20,10.06,0,26.25,17,36,17,5.77,0,19.72-1.75,23,3C263.77,45.33,255.06,66.72,248,74Z"/>
    </clipPath>
    <clipPath id="c">
      <path class="a" d="M174.72,217.55A120.89,120.89,0,0,1,145,220.93v20.55a111.22,111.22,0,0,0,30-3.5ZM148,239.19V222.57a97.84,97.84,0,0,0,24-2.73l.26,16.52A90.16,90.16,0,0,1,148,239.19Z"/>
    </clipPath>
    <clipPath id="d">
      <path class="a" d="M175.7,227a48.51,48.51,0,0,1-14,.92l.2,3a50.44,50.44,0,0,0,14-.92Z"/>
    </clipPath>
    <clipPath id="e">
      <path class="a" d="M193.15,140.2c-1.46,0-2.54.07-2.54.07-8.43.79-13.45,20.21-15.47,31-3,16-13.9,23-31,23-19.79,0-28-7-31-23-2-10.51-6.81-29.28-14.88-30.89L70.32,197.95c.05.18-5.38,5.4-10.57,10.48,3.76,11.89,10.49,22.67,22.56,22.67,0-5,1.66-11.28,7.32-11.28,0,0,.05,4.11,3.69,4.11,0-3.23,3.31-4.08,3.31-4.08s1.56,3.08,4.58,3.08c0-2.33,3.51-2.17,3.51-2.17s2.37,8.41,8.85,8.41c0-6.53,6.73-5.82,6.73-5.82s1.86,6,4.85,6c0-3.67,4.88-3.75,4.88-3.75a8.68,8.68,0,0,0,8,5.25c0-2.63,2.75-4.46,4.42-4.46,0,3.26,4.49,4.08,4.49,4.08s1.51,3.6,7.63,3.6c0-6.53,8.22-8.32,8.22-8.32a11.31,11.31,0,0,0,9.86,5.65c0-3.14,3.29-5,7.27-5,0-3.62,5.9-4.23,5.9-4.23s2.75,5.82,8.66,5.82c0,0-.13-8.32,6.67-8.32,7,3.7,5.4,10.38,5.4,11.44,16.32,0,21.07-14.64,22.45-23,.55-3.37-5.59-4.53-5.59-4.53l-30.26-63.33Z"/>
    </clipPath>
    <linearGradient id="f" x1="144.01" y1="198.98" x2="144.01" y2="139.99" gradientUnits="userSpaceOnUse">
      <stop offset="0" stop-color="#846664" stop-opacity="0.02"/>
      <stop offset="1" stop-color="#846664" stop-opacity="0.1"/>
    </linearGradient>
    <clipPath id="g">
      <path class="a" d="M57,200c20.56,0,28.46-11.49,36.76-25.23,1.43-2.37.88-5.81,2.4-8.27,1.36-2.2,4.79-3.41,6.32-5.6A72.67,72.67,0,0,1,116,146c25.67-21,31.33-61,9-134L40,11,1.18,41.51Z"/>
    </clipPath>
    <clipPath id="h">
      <path class="a" d="M166,38c-3.5,10,1,16,18,36,0,0,24.07,31.34,8.58,49.43a8,8,0,0,0-1.91,6.54s4.62,28,7.33,37,8.66,27.74,14.73,28.76c8.09,1.36,17.68,12.11,23.4,14.44L269,26,195,0Z"/>
    </clipPath>
    <clipPath id="i">
      <ellipse class="a" cx="110.78" cy="102.97" rx="14" ry="12"/>
    </clipPath>
    <clipPath id="j">
      <path class="a" d="M129.16,103c0,8.05-6.27,13.54-14,13.54s-14-5.49-14-13.54,6.27-13.54,14-13.54S129.16,94.91,129.16,103Z"/>
    </clipPath>
    <clipPath id="k">
      <path class="a" d="M144,143c-13,0-17,5.26-17,10.09S129.64,171,143.58,171h.86C158.6,171,161,157.87,161,153S157,143,144,143Z"/>
    </clipPath>
    <clipPath id="l">
      <ellipse class="a" cx="172.9" cy="102.97" rx="14" ry="12"/>
    </clipPath>
    <clipPath id="m">
      <path class="a" d="M154.52,103c0,8.05,6.27,13.54,14,13.54s14-5.49,14-13.54-6.27-13.54-14-13.54S154.52,94.91,154.52,103Z"/>
    </clipPath>
  </defs>
  <title>osc-white</title>
  <g>
    <path class="b" d="M242.07,275.48a136,136,0,1,0-202.13,0Z"/>
    <path class="c" d="M242.07,263.48a136,136,0,1,0-202.13,0"/>
    <g>
      <path class="d" d="M58.62,273.52c1.67.34,2.58,1.47,4.26,1.79s3.54-.36,5.22-.07,3.36.61,5,.88,3.08,2.49,4.77,2.74,3.63-1.17,5.32-.95,3.36.71,5,.92,3.32,1.11,5,1.3,3.34,1.1,5,1.27,3.6-1.75,5.3-1.6,3.47-.64,5.17-.51,3.22,3.09,4.92,3.2,3.58-3,5.29-2.9,3.34,1.6,5,1.67,3.38,1.53,5.08,1.57,3.45-1.83,5.16-1.81,3.41,2.39,5.11,2.39,3.42-1.93,5.12-1.94,3.45,1.63,5.16,1.59,3.44.11,5.15.06,3.36-1.84,5.06-1.91,3.29-2.31,5-2.41,3.61,3.13,5.31,3,3.46.29,5.16.16,3.17-3.09,4.87-3.24,3.3-1.19,5-1.36,3.5.77,5.2.59,3.65,1.82,5.34,1.61,3.25-1.59,4.94-1.81,3.55.75,5.25.51,3-3.28,4.66-3.54,3.33-.7,5-1,3.88,2.52,5.57,2.23,1.44-2.09,3.12-2.4c-1.7.06-1.68,1.9-3.38,2s-3.49-2.77-5.18-2.71-3.41-.67-5.11-.62-3.34,2.16-5,2.21-3.42-1-5.12-1-3.35,2.16-5,2.19-3.44-2.18-5.14-2.14-3.39.12-5.09.15-3.37,1.59-5.06,1.62-3.39.76-5.08.79-3.42-1.45-5.11-1.43-3.38,1.12-5.08,1.13-3.4.27-5.09.28-3.39.63-5.09.64-3.41-2.94-5.11-2.93h-5.09c-1.7,0-3.4,2.84-5.09,2.83s-3.4-1-5.09-1-3.39-.4-5.09-.41-3.39-1.43-5.08-1.45-3.41,1.91-5.11,1.89S115.69,274,114,274s-3.39,0-5.09,0-3.37-1.16-5.07-1.19-3.44,2.46-5.13,2.43S95.33,274,93.63,274s-3.39,0-5.09-.05-3.37-.84-5.07-.89-3.38-.6-5.07-.64-3.42.9-5.11.85-3.38-.33-5.08-.38-3.48,2.65-5.18,2.6S60.31,273.58,58.62,273.52Z"/>
      <path class="e" d="M58.62,273.52c1.67.34,2.58,1.47,4.26,1.79s3.54-.36,5.22-.07,3.36.61,5,.88,3.08,2.49,4.77,2.74,3.63-1.17,5.32-.95,3.36.71,5,.92,3.32,1.11,5,1.3,3.34,1.1,5,1.27,3.6-1.75,5.3-1.6,3.47-.64,5.17-.51,3.22,3.09,4.92,3.2,3.58-3,5.29-2.9,3.34,1.6,5,1.67,3.38,1.53,5.08,1.57,3.45-1.83,5.16-1.81,3.41,2.39,5.11,2.39,3.42-1.93,5.12-1.94,3.45,1.63,5.16,1.59,3.44.11,5.15.06,3.36-1.84,5.06-1.91,3.29-2.31,5-2.41,3.61,3.13,5.31,3,3.46.29,5.16.16,3.17-3.09,4.87-3.24,3.3-1.19,5-1.36,3.5.77,5.2.59,3.65,1.82,5.34,1.61,3.25-1.59,4.94-1.81,3.55.75,5.25.51,3-3.28,4.66-3.54,3.33-.7,5-1,3.88,2.52,5.57,2.23,1.44-2.09,3.12-2.4c-1.7.06-1.68,1.9-3.38,2s-3.49-2.77-5.18-2.71-3.41-.67-5.11-.62-3.34,2.16-5,2.21-3.42-1-5.12-1-3.35,2.16-5,2.19-3.44-2.18-5.14-2.14-3.39.12-5.09.15-3.37,1.59-5.06,1.62-3.39.76-5.08.79-3.42-1.45-5.11-1.43-3.38,1.12-5.08,1.13-3.4.27-5.09.28-3.39.63-5.09.64-3.41-2.94-5.11-2.93h-5.09c-1.7,0-3.4,2.84-5.09,2.83s-3.4-1-5.09-1-3.39-.4-5.09-.41-3.39-1.43-5.08-1.45-3.41,1.91-5.11,1.89S115.69,274,114,274s-3.39,0-5.09,0-3.37-1.16-5.07-1.19-3.44,2.46-5.13,2.43S95.33,274,93.63,274s-3.39,0-5.09-.05-3.37-.84-5.07-.89-3.38-.6-5.07-.64-3.42.9-5.11.85-3.38-.33-5.08-.38-3.48,2.65-5.18,2.6S60.31,273.58,58.62,273.52Z"/>
    </g>
    <g class="f">
      <g class="g">
        <path class="d" d="M111,39c7,2.33,58,1.33,68-2,7.47-2.49,39,93.49,39,102,0,13.33,5.75,34.37,5.75,49,0,15.62-8.25,31.62-8.25,42,0,13.88-146.5,17.87-146.5-9.87,0-10.75-9-60.51-9-71.06,0-5,6-16.26,6-22C66,118.27,106.22,37.4,111,39Z"/>
        <path class="d" d="M97.76,343c0,9.75,13.25,18.45,21.54,18.45,0,6,12.43,12.76,24.85,12.67s24.85-7,24.85-12.37c3.86-1.09,21-5.75,21-18.86,10.52,0,28.07-16.39,28.07-36.42,0-18.23-4.5-41.06-11.59-47.53H85.06s-17.61,6-17.61,45.09C67.45,325.47,82.17,343,97.76,343Z"/>
        <path class="d" d="M86.35,206s-34.51,7.67-34.51,55.14c0,21.26,6.86,45.54,17.53,45.54,0-17.27,9.13-21.52,9.13-21.52S77,309.6,93.67,321.86c0-8.51,7.51-15.78,13.62-15.78,0,19.56,8,31.64,14.32,31.64a18.15,18.15,0,0,1,11.79-17.53s4.77,23.28,14.49,23.28c0-29.16,11.91-35.94,11.91-35.94S165.18,329,178,329c0-7.4-.56-21.11-.56-21.11s14.41-.38,14.41,16.14c18.5-9.65,12.92-33.7,12.92-33.7s11.23.85,11.23,17.56c7.77,0,16-18.9,16.1-46.83C232.26,213.23,199.6,206,199.6,206Z"/>
        <g>
          <path class="h" d="M54.34,221.44c2,2,1.26,4.8,3.18,4.8A10.13,10.13,0,0,1,60,221.44c1.21-1.57,1.7-4.17,3.19-5,2.69-1.44,2.46-1,4.53.78s1.28.87,1.35,4.19a45.39,45.39,0,0,0,.59,5.56c.27,1.8-1,4.17-.44,6s4.15,2.11,5.18,3.69.59,3.1,2.16,4.24a8.85,8.85,0,0,1,1.88-3.65c1.13-1.27,3.67-.16,4.92-.73,2.35-1.06,2.17-4.52,4.24-3.52.91,1.5,1.12,4.07,2.08,5.43s3.49,1.59,4.57,2.86-.17,5,1.05,6.13,3.57,1.34,4.95,2.31a33.74,33.74,0,0,0,4.54,2.55,31.44,31.44,0,0,0,5,1.47c1.61.48,4.32-.3,6.05-.09,1.84,1.79-1.46,3.82.21,6.33.83,1.25,3.18,1.69,4.59,3,1.18,1.06,2.76,1.52,4.41,2.34a10.33,10.33,0,0,0,3.52.95c.21-1.7,2.65-1.38,3.13-2.75.56-1.61-1-4.19-.18-5.4,1-1.4,4.38-.37,5.5-1.32,1.33-1.13,1.82-2.76,3.06-3.37,2.49-1.23,3.37-4.85,5.16-3.32,2.14,1.83-2.2,4.27-.9,7.24.68,1.55,3.51,2.32,4.72,3.93,1.08,1.44,1.27,4.23,2.87,5.35s3.37-.36,5.33.1a24.91,24.91,0,0,1,.75-3.87,32,32,0,0,1,1.18-4.75c.64-1.8.57-3.87,1.28-5,1.67-2.62,2.69-4.46,4.86-3.43s1.46,1.8,3,4c.78,1.13-.5,4.56.82,5.6,1.13.89,3.22,1.29,4.8,1.82,1.34.44,3.23-.14,4.94-.14,1.62-1,2.4-3.3,3.8-4.07a50.89,50.89,0,0,1,4.92-2.21c1.8-.76,3.81-.61,5.34-1,1.83-.45,3.56-1.39,5.23-1.48s3.53-.1,5.35,0c1.63.05,2.23.1,4.13.1,0-1.65,1.4-2,1.64-3.57s2.06-2.76,2.51-4.28.09-3.32.7-4.75.9-3.22,1.63-4.55c.88-1.58,2.89-2.16,3.69-3.32,1.68-2.43-.55-3.69,1.73-4.51,2.45-.88,2.06.55,4.18,2.17,1.16.89,4.12.33,4.35,2.51.81-1-1.15-1.93-.52-3.42.93-2.2,3.17-1,4.24-3,.69-.38.72-2.88.64-5.5a47,47,0,0,0-.94-5.05,48.83,48.83,0,0,0-.65-5.07c-.42-1.56-1.74-3-2.34-4.58s-.45-3.49-1.19-5-2.28-2.64-3.19-4.05-3.21-1.67-4.31-2.92-1-3.64-2.32-4.68a23.79,23.79,0,0,0-4.37-2.56,22,22,0,0,0-4.79-1.63c-2.61.37-2.83-.36-5.39.3s-2.6.5-5.16,1.17-2.12,2.32-4.68,3-3-1-5.54-.29-2.11,2.37-4.67,3-2.76-.12-5.32.55-2.45,1.06-5,1.73-2.29,1.69-4.85,2.36-2.78-.21-5.34.45-3-1.15-5.59-.48-2.5.88-5.07,1.55-2.12,1.22-4.77,1.23-2.76,2-5.21,1.34-1.81-3.05-4.26-3.71-2.31-1.2-4.76-1.85-3.19,2.11-5.63,1.46-2.13-1.85-4.58-2.51-2.17-1.7-4.62-2.35-2.39-.9-4.84-1.55-3.11,1.82-5.56,1.17-2-2.23-4.48-2.88-3.1,1.78-5.55,1.13-1.62-3.76-4.07-4.41-2.78.6-5.24-.06-3,1.26-5.42.61-2.18-1.68-4.64-2.33-2.2-1.43-4.73-1.67c-1.51.72-1.92,2.4-3.27,3.4s-4,.35-5.18,1.54a40.46,40.46,0,0,0-3,4.09c-1,1.33-3.08,2.07-3.94,3.5s-.53,3.63-1.25,5.12-.4,3.48-1,5-.49,3.33-.94,4.87c-.5,1.72-3,2.81-3.26,4.34a28.53,28.53,0,0,0-.23,5.08C51.23,220.91,53.33,221.21,54.34,221.44Z"/>
          <path class="i" d="M54.34,221.44c2,2,1.26,4.8,3.18,4.8A10.13,10.13,0,0,1,60,221.44c1.21-1.57,1.7-4.17,3.19-5,2.69-1.44,2.46-1,4.53.78s1.28.87,1.35,4.19a45.39,45.39,0,0,0,.59,5.56c.27,1.8-1,4.17-.44,6s4.15,2.11,5.18,3.69.59,3.1,2.16,4.24a8.85,8.85,0,0,1,1.88-3.65c1.13-1.27,3.67-.16,4.92-.73,2.35-1.06,2.17-4.52,4.24-3.52.91,1.5,1.12,4.07,2.08,5.43s3.49,1.59,4.57,2.86-.17,5,1.05,6.13,3.57,1.34,4.95,2.31a33.74,33.74,0,0,0,4.54,2.55,31.44,31.44,0,0,0,5,1.47c1.61.48,4.32-.3,6.05-.09,1.84,1.79-1.46,3.82.21,6.33.83,1.25,3.18,1.69,4.59,3,1.18,1.06,2.76,1.52,4.41,2.34a10.33,10.33,0,0,0,3.52.95c.21-1.7,2.65-1.38,3.13-2.75.56-1.61-1-4.19-.18-5.4,1-1.4,4.38-.37,5.5-1.32,1.33-1.13,1.82-2.76,3.06-3.37,2.49-1.23,3.37-4.85,5.16-3.32,2.14,1.83-2.2,4.27-.9,7.24.68,1.55,3.51,2.32,4.72,3.93,1.08,1.44,1.27,4.23,2.87,5.35s3.37-.36,5.33.1a24.91,24.91,0,0,1,.75-3.87,32,32,0,0,1,1.18-4.75c.64-1.8.57-3.87,1.28-5,1.67-2.62,2.69-4.46,4.86-3.43s1.46,1.8,3,4c.78,1.13-.5,4.56.82,5.6,1.13.89,3.22,1.29,4.8,1.82,1.34.44,3.23-.14,4.94-.14,1.62-1,2.4-3.3,3.8-4.07a50.89,50.89,0,0,1,4.92-2.21c1.8-.76,3.81-.61,5.34-1,1.83-.45,3.56-1.39,5.23-1.48s3.53-.1,5.35,0c1.63.05,2.23.1,4.13.1,0-1.65,1.4-2,1.64-3.57s2.06-2.76,2.51-4.28.09-3.32.7-4.75.9-3.22,1.63-4.55c.88-1.58,2.89-2.16,3.69-3.32,1.68-2.43-.55-3.69,1.73-4.51,2.45-.88,2.06.55,4.18,2.17,1.16.89,4.12.33,4.35,2.51.81-1-1.15-1.93-.52-3.42.93-2.2,3.17-1,4.24-3,.69-.38.72-2.88.64-5.5a47,47,0,0,0-.94-5.05,48.83,48.83,0,0,0-.65-5.07c-.42-1.56-1.74-3-2.34-4.58s-.45-3.49-1.19-5-2.28-2.64-3.19-4.05-3.21-1.67-4.31-2.92-1-3.64-2.32-4.68a23.79,23.79,0,0,0-4.37-2.56,22,22,0,0,0-4.79-1.63c-2.61.37-2.83-.36-5.39.3s-2.6.5-5.16,1.17-2.12,2.32-4.68,3-3-1-5.54-.29-2.11,2.37-4.67,3-2.76-.12-5.32.55-2.45,1.06-5,1.73-2.29,1.69-4.85,2.36-2.78-.21-5.34.45-3-1.15-5.59-.48-2.5.88-5.07,1.55-2.12,1.22-4.77,1.23-2.76,2-5.21,1.34-1.81-3.05-4.26-3.71-2.31-1.2-4.76-1.85-3.19,2.11-5.63,1.46-2.13-1.85-4.58-2.51-2.17-1.7-4.62-2.35-2.39-.9-4.84-1.55-3.11,1.82-5.56,1.17-2-2.23-4.48-2.88-3.1,1.78-5.55,1.13-1.62-3.76-4.07-4.41-2.78.6-5.24-.06-3,1.26-5.42.61-2.18-1.68-4.64-2.33-2.2-1.43-4.73-1.67c-1.51.72-1.92,2.4-3.27,3.4s-4,.35-5.18,1.54a40.46,40.46,0,0,0-3,4.09c-1,1.33-3.08,2.07-3.94,3.5s-.53,3.63-1.25,5.12-.4,3.48-1,5-.49,3.33-.94,4.87c-.5,1.72-3,2.81-3.26,4.34a28.53,28.53,0,0,0-.23,5.08C51.23,220.91,53.33,221.21,54.34,221.44Z"/>
        </g>
        <path class="h" d="M86.42,206.27s-.42.21-1.21.65-1.9,1.12-3.27,2-2.95,2.1-4.68,3.5a59.54,59.54,0,0,0-5.33,5.13c-.46.48-.9,1-1.34,1.55s-.88,1.09-1.3,1.66-.87,1.14-1.29,1.74-.85,1.2-1.25,1.84a55.53,55.53,0,0,0-4.3,8.35c-.62,1.5-1.18,3.06-1.72,4.65L60,239.78l-.64,2.49a81.37,81.37,0,0,0-1.72,10.38c-.36,3.56-.53,7.08-.56,10.73,0,1.71,0,3.52.08,5.26s.16,3.49.28,5.19c.26,3.41.56,6.7,1,9.8.23,1.55.53,3,.79,4.48s.57,2.82.89,4.14a50.76,50.76,0,0,0,2.31,6.94,19,19,0,0,0,2.85,4.66,7.85,7.85,0,0,0,2.8,2.09,5.88,5.88,0,0,0,.91.33l.33.1.1,0a.29.29,0,0,1-.1.57l-.36,0a5.61,5.61,0,0,1-1.06-.12,8.42,8.42,0,0,1-3.62-1.65,18.08,18.08,0,0,1-4.08-4.55,38.63,38.63,0,0,1-3.51-7.05,84.68,84.68,0,0,1-4.56-19.07,107.61,107.61,0,0,1-.87-11A98.18,98.18,0,0,1,51.71,252a73.76,73.76,0,0,1,2.07-11.26,56.38,56.38,0,0,1,3.87-10.4,49,49,0,0,1,11.87-15.59,44.91,44.91,0,0,1,11.76-7.37,29.77,29.77,0,0,1,5-1.71.3.3,0,0,1,.19.56Z"/>
        <path class="h" d="M216,307.58l.34-.11a6.93,6.93,0,0,0,.84-.41,8,8,0,0,0,2.41-2.43,22.92,22.92,0,0,0,2.35-4.92c.33-1,.69-2.11,1-3.27s.63-2.41.88-3.73a83.77,83.77,0,0,0,1.41-8.57c.19-1.53.39-3.11.53-4.74s.31-3.28.41-5,.24-3.41.3-5.16.16-3.52.18-5.31l.06-2.69q0-1.34,0-2.69c0-2-.13-3.57-.18-5.33a93.79,93.79,0,0,0-1.28-10.44c-.37-1.68-.68-3.37-1.15-5-.2-.82-.45-1.62-.71-2.41s-.46-1.59-.76-2.35a48.42,48.42,0,0,0-3.94-8.54,47,47,0,0,0-10.05-12.19,42.16,42.16,0,0,0-4.61-3.5,36,36,0,0,0-3.25-1.95c-.78-.42-1.2-.6-1.2-.6l-.05,0a.3.3,0,0,1,.18-.56s.48.1,1.34.37a33.15,33.15,0,0,1,3.62,1.39,42.27,42.27,0,0,1,11.44,7.67,48.07,48.07,0,0,1,11,16,63.63,63.63,0,0,1,3.45,10.45,83.89,83.89,0,0,1,1.75,11.22c.11,1.9.29,3.82.29,5.69s.08,3.79,0,5.64c-.11,3.74-.37,7.41-.78,10.95a88.57,88.57,0,0,1-4.14,19,42.25,42.25,0,0,1-3.19,7.13,20.3,20.3,0,0,1-3.7,4.8,8.25,8.25,0,0,1-3.42,2,5.53,5.53,0,0,1-1.07.17H216a.3.3,0,0,1-.1-.58Z"/>
        <g class="j">
          <path class="k" d="M58.47,203.52l.44,1.64c.14.52.31,1.15.54,1.87s.45,1.53.77,2.4.62,1.82,1,2.8.82,2,1.3,3.06,1,2.1,1.61,3.16a35.9,35.9,0,0,0,2,3.09l.51.76.57.72c.39.47.74,1,1.16,1.4l1.24,1.29c.42.41.89.77,1.32,1.15a9.63,9.63,0,0,0,1.35,1,14.46,14.46,0,0,0,1.36.87,16.53,16.53,0,0,0,2.7,1.21l1.24.43,1.16.24,1,.21c.32,0,.62,0,.88.07l1.68.12a.1.1,0,0,1,0,.2h0s-.61.1-1.73.23c-.28,0-.59.07-.93.08s-.7,0-1.1-.06l-1.27-.08c-.44-.07-.89-.19-1.37-.3a14.38,14.38,0,0,1-3-1,16,16,0,0,1-1.55-.82,9,9,0,0,1-1.53-1c-.49-.38-1-.75-1.49-1.17s-.93-.88-1.39-1.34-.84-1-1.27-1.48l-.62-.76-.56-.79a36.65,36.65,0,0,1-2-3.3,18.51,18.51,0,0,1-.81-1.69c-.26-.56-.51-1.12-.71-1.68s-.44-1.1-.62-1.64-.33-1.08-.49-1.6a28.59,28.59,0,0,1-.75-3c-.23-.91-.34-1.78-.46-2.54s-.19-1.42-.23-2c-.09-1.09-.11-1.72-.11-1.72v0a.1.1,0,0,1,.19,0Z"/>
        </g>
        <g class="j">
          <path class="k" d="M206.54,231.06l1.77-.08c.56,0,1.23-.14,2-.23.39,0,.79-.16,1.22-.24a10.87,10.87,0,0,0,1.33-.34c.45-.15.94-.27,1.42-.47s1-.39,1.47-.63,1-.5,1.49-.8,1-.61,1.46-1a18.85,18.85,0,0,0,2.74-2.46,22.84,22.84,0,0,0,2.34-3,35.73,35.73,0,0,0,5-13.08,40.46,40.46,0,0,0,.71-6.37.1.1,0,0,1,.2,0v0a17.49,17.49,0,0,1,.25,1.8,29,29,0,0,1,0,4.78,27.71,27.71,0,0,1-.39,3.19,28.19,28.19,0,0,1-.81,3.52,27,27,0,0,1-1.34,3.67,29.7,29.7,0,0,1-1.94,3.59,24.37,24.37,0,0,1-2.61,3.21l-.72.73-.78.65a19,19,0,0,1-1.6,1.19,17.65,17.65,0,0,1-1.66,1c-.56.28-1.14.5-1.68.75s-1.11.38-1.64.55-1.07.23-1.57.34a17,17,0,0,1-2.75.28,19,19,0,0,1-2.11-.08c-1.13-.15-1.78-.27-1.78-.27h0a.1.1,0,0,1,0-.2Z"/>
        </g>
        <path class="l" d="M207.95,228l-1.4.46c-.91.32-2.2.8-3.89,1.47-.85.32-1.77.71-2.77,1.15s-2.09.85-3.23,1.39c-2.31,1-4.88,2.2-7.72,3.46-1.4.68-2.89,1.35-4.41,2.06a8.83,8.83,0,0,0-2.3,1.21,16,16,0,0,0-2,2.51,4.83,4.83,0,0,1-2.33,1.81c-.87.35-1.79.65-2.69,1-1.81.68-3.72,1.27-5.65,1.9a73.82,73.82,0,0,1-12.37,2.47A82.94,82.94,0,0,1,144,249h-.37l-.19,0-.38-.13a3.41,3.41,0,0,1-.75-.48c-.5-.39-1-.93-1.48-1.4a4.25,4.25,0,0,0-1.54-1,9.38,9.38,0,0,0-1.62-.24c-1.09-.11-2.16-.24-3.19-.42s-2.08-.3-3.1-.5c-2-.39-4.07-.79-6-1.28s-3.91-.95-5.81-1.44c-3.78-1-7.37-2.2-10.76-3.31s-6.53-2.3-9.44-3.36l-7.88-3-6-2.34-5.28-2,3.73-8.19,5,2.26c1.61.71,3.56,1.56,5.81,2.51s4.79,2,7.58,3.06,5.82,2.18,9,3.25,6.65,2.08,10.22,3,7.27,1.66,11,2.2a92.07,92.07,0,0,0,11.46.9,91.84,91.84,0,0,0,11.47-.73,110.29,110.29,0,0,0,11-2.08c3.56-.89,7-1.87,10.19-2.94,1.61-.52,3.16-1.09,4.67-1.62s3-1.1,4.33-1.65c2.77-1.09,5.29-2.16,7.52-3.13s4.16-1.85,5.73-2.59,2.85-1.35,3.7-1.75l1.32-.63Z"/>
        <path class="m" d="M150,38c4.59,15,17.09,27.48,36,38l-8-45Z"/>
        <path class="h" d="M112,145l10,38a11.88,11.88,0,0,1-7-6l-6.68-24C108.07,150,109.46,147.36,112,145Z"/>
        <path class="h" d="M173,178l-5,4s3.52-27.37,13.36-44.71c2.71-4.78,8.26-10.58,11.22-13.85,2.55-3.24.42,16.57.42,16.57C179.5,137.66,176.12,171.14,173,178Z"/>
        <path class="h" d="M175,171c-1.87,10-8.89,14-16.75,14.26a29.18,29.18,0,0,1-9.25-1.3,33.36,33.36,0,0,1-4.16-1.57,2,2,0,0,0-1.68,0,33.35,33.35,0,0,1-4.28,1.6,29.16,29.16,0,0,1-9.06,1.26C121.93,185,114.88,181,113,171l1,14s8.17,11.36,11,11.74a57.67,57.67,0,0,0,11,0c2-.25,5.94-1.92,8-2,3-.12,9,1.89,12,2,2.76.1,8.5.17,11-1,2.88-1.35,8-14.72,9-17.74C176.57,176.31,175,171,175,171Z"/>
        <path class="n" d="M156.53,149H131.48a4.76,4.76,0,0,0-4.47,5v16c0,15.71,7.61,19,17,19h0c9.39,0,17-3.37,17-19V154A4.76,4.76,0,0,0,156.53,149Z"/>
        <line class="o" x1="144.01" y1="181.82" x2="144.01" y2="171.75"/>
        <g class="p">
          <path class="q" d="M176.67,260.08l-.06.84c0,.15,0,.27,0,.48l-.11.68c0,.24-.08.52-.14.78s-.15.53-.24.82a12.16,12.16,0,0,1-2,3.8,13.6,13.6,0,0,1-4.07,3.55,15.39,15.39,0,0,1-5.92,1.88c-.56,0-1.07.06-1.7.06a12.44,12.44,0,0,1-1.64-.11,14.59,14.59,0,0,1-3.46-.86,14.79,14.79,0,0,1-3.28-1.75,14.24,14.24,0,0,1-2.8-2.7,13.07,13.07,0,0,1-1.9-3.54,10.93,10.93,0,0,1-.49-2,7.53,7.53,0,0,1-.13-1l0-.51,0-.26V260c0-.06,0,.08,0-.13a16.13,16.13,0,0,1,.18-1.89,10.83,10.83,0,0,1,.5-2,13.07,13.07,0,0,1,1.9-3.54,14.24,14.24,0,0,1,2.8-2.7,14.79,14.79,0,0,1,3.28-1.75,15,15,0,0,1,12.72,1,13.6,13.6,0,0,1,4.07,3.55,12.16,12.16,0,0,1,2,3.8,12.86,12.86,0,0,1,.52,2.73l.06,1Zm-4-.1,0-.71a5.25,5.25,0,0,0-.08-.84,10.62,10.62,0,0,0-.2-1.13,11.48,11.48,0,0,0-1.09-3,10.67,10.67,0,0,0-2.66-3.26,9.69,9.69,0,0,0-4.65-2,13.34,13.34,0,0,0-1.45-.09,10.69,10.69,0,0,0-1.43.15,9.23,9.23,0,0,0-2.8.93,10.36,10.36,0,0,0-2.41,1.8,11.58,11.58,0,0,0-1.78,2.42,13.19,13.19,0,0,0-1.07,2.77,13.39,13.39,0,0,0-.35,3c0-.19,0,0,0-.08v.71a4.58,4.58,0,0,0,.07.73c0,.49.17,1,.26,1.45a13.19,13.19,0,0,0,1.07,2.77,11.58,11.58,0,0,0,1.78,2.42,10.37,10.37,0,0,0,2.41,1.8,9.31,9.31,0,0,0,2.77.93,10.58,10.58,0,0,0,1.5.15,13.53,13.53,0,0,0,1.37-.09,9.63,9.63,0,0,0,4.7-2,10.67,10.67,0,0,0,2.66-3.26,11.48,11.48,0,0,0,1.09-3,10.34,10.34,0,0,0,.19-1.09l.06-.41c0-.13,0-.31,0-.44l0-.85Z"/>
        </g>
        <path class="r" d="M138.88,184a19.27,19.27,0,0,0,10,0l-4.85-1.5Z"/>
        <path class="k" d="M139.16,184.95s-.48.18-1.4.44a30.45,30.45,0,0,1-3.82.8c-.8.11-1.68.19-2.62.22-.47,0-.95,0-1.44,0l-1.47-.09c-.5,0-1-.13-1.58-.2l-1.58-.32c-.52-.15-1.05-.29-1.57-.46s-1-.38-1.54-.62a15.49,15.49,0,0,1-2.85-1.66,11,11,0,0,1-1.25-1l-.59-.54-.52-.58a9.84,9.84,0,0,1-.94-1.19,8.4,8.4,0,0,1-.78-1.21,15,15,0,0,1-1.74-4.46c-.12-.64-.27-1.18-.3-1.64C113,171.51,113,171,113,171s.19.49.48,1.35c.13.43.38.93.62,1.51s.59,1.19.93,1.87a19.37,19.37,0,0,0,1.35,2l.39.52.44.49a8.46,8.46,0,0,0,1,1l.51.47.55.43a9.28,9.28,0,0,0,1.17.82,15.46,15.46,0,0,0,2.58,1.32c.45.19.92.32,1.38.48l1.41.37,1.41.25,1.37.15,1.39.08c.45,0,.89,0,1.31,0,.85,0,1.66-.08,2.41-.16a30.84,30.84,0,0,0,3.59-.58c.84-.18,1.36-.31,1.36-.31a1,1,0,0,1,.6,1.91Z"/>
        <path class="k" d="M175,171s0,.53-.15,1.44c0,.46-.18,1-.31,1.65a14.92,14.92,0,0,1-1.76,4.48,8.84,8.84,0,0,1-.79,1.21l-.44.61-.51.58a9.36,9.36,0,0,1-1.11,1.12,11.82,11.82,0,0,1-1.26,1,16.05,16.05,0,0,1-2.87,1.65c-.51.23-1,.41-1.54.61s-1.05.32-1.58.45a23,23,0,0,1-3.14.51,25.68,25.68,0,0,1-3,.08c-.94,0-1.82-.12-2.62-.23a30.34,30.34,0,0,1-3.83-.82c-.91-.27-1.41-.45-1.41-.45h0a1,1,0,0,1,.6-1.91s.49.13,1.36.32a30.73,30.73,0,0,0,3.6.6c.75.09,1.56.15,2.42.17a23.43,23.43,0,0,0,2.69-.06,22.78,22.78,0,0,0,2.83-.39c.47-.1.94-.24,1.42-.36s.93-.3,1.39-.48a16.18,16.18,0,0,0,2.6-1.32,10.06,10.06,0,0,0,1.17-.82l.56-.43.51-.47.51-.47.45-.5a9.79,9.79,0,0,0,.84-1,19.94,19.94,0,0,0,1.35-2c.33-.68.7-1.3.93-1.87s.49-1.07.62-1.52C174.81,171.48,175,171,175,171Z"/>
        <path class="s" d="M149,183.95a33.36,33.36,0,0,1-4.16-1.57,2,2,0,0,0-1.68,0,33.35,33.35,0,0,1-4.28,1.6"/>
        <path class="t" d="M205.51,223.91c-20,10-41.17,17.73-62,17.57-20.51-.16-41-8.1-62-17.57V205.48c43,20.21,84,20.69,124,.86Z"/>
        <line class="u" x1="162.51" y1="238.98" x2="162.51" y2="247.98"/>
        <g class="v">
          <path class="w" d="M174.81,217.55a119.25,119.25,0,0,1-29.62,3.37v20.55a112,112,0,0,0,30-3.5Zm-26.75,21.64V222.57a96.43,96.43,0,0,0,24-2.73l.28,16.52A90.54,90.54,0,0,1,148.06,239.19Z"/>
          <path class="x" d="M145,241.48a111.22,111.22,0,0,0,30-3.5"/>
        </g>
        <path class="y" d="M174.75,217.55,175.1,238a111.63,111.63,0,0,1-27.88,3.52l-2.08,0V220.93a119.26,119.26,0,0,0,29.62-3.37m-25.06,21.65a90.25,90.25,0,0,0,22.54-2.85l-.28-16.52a96.43,96.43,0,0,1-24,2.73v16.62l1.69,0m25.06-23.65a2,2,0,0,0-.5.06,117.25,117.25,0,0,1-29.13,3.31,2,2,0,0,0-2,2v20.55a2,2,0,0,0,2,2l2.13,0a113.85,113.85,0,0,0,28.41-3.59,2,2,0,0,0,1.47-2l-.34-20.43a2,2,0,0,0-2-2Zm-24.75,9a99.24,99.24,0,0,0,20-2.18l.21,12.45a90,90,0,0,1-20.2,2.39V224.56Z"/>
        <rect class="z" x="159.51" y="226.48" width="6" height="6" rx="3" ry="3"/>
        <g class="aa">
          <path class="w" d="M175.7,227a48.51,48.51,0,0,1-14,.92l.2,3a50.44,50.44,0,0,0,14-.92Z"/>
          <polygon class="ab" points="176.6 230.66 173.15 230.96 173.02 226.77 175.98 226.48 176.6 230.66"/>
          <polygon class="ab" points="166.37 231.58 162.07 231.87 161.94 227.69 166.38 227.4 166.37 231.58"/>
        </g>
        <path class="ac" d="M175.7,227a48.51,48.51,0,0,1-14,.92l.2,3a50.44,50.44,0,0,0,14-.92Z"/>
        <path class="y" d="M198.61,215.88c2.28,3.24,4.35,6.39,5.23,9.06l3.35-1.59Z"/>
        <path class="y" d="M84.6,225.08s2.49-6.11,8.21-6.62l-4.4-2.58-8.8,5.7Z"/>
        <path class="ad" d="M212.67,213.73S187,233.47,144,233.47c-40.67,0-68.67-19.74-68.67-19.74L145,215.5Z"/>
        <g class="ae">
          <path class="h" d="M193.15,140.2c-1.46,0-2.54.07-2.54.07-8.43.79-13.45,20.21-15.47,31-3,16-13.9,23-31,23-19.79,0-28-7-31-23-2-10.51-6.81-29.28-14.88-30.89L54.95,177.57c.1.33.55,53.53,27.36,53.53,0-5,1.66-11.28,7.32-11.28,0,0,.05,4.11,3.69,4.11,0-3.23,3.31-4.08,3.31-4.08s1.56,3.08,4.58,3.08c0-2.33,3.51-2.17,3.51-2.17s2.37,8.41,8.85,8.41c0-6.53,6.73-5.82,6.73-5.82s1.86,6,4.85,6c0-3.67,4.88-3.75,4.88-3.75a8.68,8.68,0,0,0,8,5.25c0-2.63,2.75-4.46,4.42-4.46,0,3.26,4.49,4.08,4.49,4.08s1.51,3.6,7.63,3.6c0-6.53,8.22-8.32,8.22-8.32a11.31,11.31,0,0,0,9.86,5.65c0-3.14,3.29-5,7.27-5,0-3.62,5.9-4.23,5.9-4.23s2.75,5.82,8.66,5.82c0,0-.13-8.32,6.67-8.32,7,3.7,5.4,10.38,5.4,11.44,23,0,23-28.77,23-28.77l-36.41-62.13Z"/>
          <g class="af">
            <polygon class="k" points="114.58 204 119.3 204.38 123.17 206.84 128.06 206.81 131.08 211.32 135.01 213.64 140.17 212.97 143.86 217.4 147.53 213.76 151.9 213.19 154.8 209.35 160.22 211.11 162.72 206.38 167.74 207.24 171.75 205.86 174.16 201.22 179.44 200.53 179.02 194.78 183.64 192.28 181.12 187.3 185.71 183.62 182.83 178.82 182.76 174.44 186.55 170.63 186.59 166.26 188.38 162.16 185.42 157.35 187.54 153.29 188.7 149.09 187.78 144.57 188.28 140.28 189.54 136.09 190.05 131.79 194.1 128.01 194 122.49 188.48 123.07 184.55 120.95 179.85 123.74 176.16 120.02 171.81 120.54 167.36 121.73 163.28 120.49 159.58 116.83 155.3 116.92 151.2 115.84 146.49 118.62 142.66 115.78 138.5 115.59 134.7 116.97 130.81 118.38 126.31 114.99 122.72 118.73 118.66 118.7 114.39 117.15 110.77 120.63 106.46 118.73 102.27 117.78 96.82 118.8 100.15 124.26 97.92 128.71 99.72 132.86 98.16 137.26 97.56 141.59 100.03 145.7 102.55 149.8 98.94 154.35 103.5 158.31 100.86 162.79 100.33 167.12 101.13 171.35 101.06 175.64 104.12 179.72 102.47 184.13 103.55 188.35 101.81 193.02 107.63 194.94 107.69 199.64 110.43 202.91 114.58 204"/>
            <path class="k" d="M114.58,204.49a23.5,23.5,0,0,1,4.66.39c.8.25,2.43,2,3.68,2.39,1.41.43,3.16-.06,4.63,0,.7,0,.2-.1.15-.14a4.4,4.4,0,0,1,.56.83l1.76,2.63c1.26,1.88,3.91,3.65,6.19,3.35a27.89,27.89,0,0,0,3.15-.41c.88-.22.39-.32.92.31,1.09,1.28,2.15,2.58,3.23,3.87a.51.51,0,0,0,.71,0l1.84-1.82c.42-.41.88-.81,1.26-1.25.14-.17.81-.66.28-.43,1.38-.6,3.45.1,4.7-.76a9.17,9.17,0,0,0,1.49-2,10.42,10.42,0,0,0,1-1.38c.37-.73.34-.2,0-.27a46.47,46.47,0,0,1,5.3,1.72.5.5,0,0,0,.56-.23l1.58-3c.27-.52.52-1.06.83-1.56.21-.34-.67.07-.25.09a2.22,2.22,0,0,1,.57.1,9.28,9.28,0,0,0,6.51,0,6.16,6.16,0,0,0,2.32-.94c.76-.74,1.25-2.41,1.73-3.34.13-.25.74-1.35.46-1.13s.91,0,1.22-.09l3.83-.5a.51.51,0,0,0,.5-.5c-.12-1.63-.8-4.07-.41-5.63-.08.31-.28.24.32,0s1-.55,1.52-.82l2.53-1.37a.51.51,0,0,0,.18-.68l-1.26-2.49c-.27-.53-.5-1.12-.82-1.62-.49-.77-.07-.79-.48-.29,1.16-1.41,3.12-2.51,4.55-3.65a.5.5,0,0,0,.08-.61l-1.94-3.23c-.79-1.32-.87-1.27-.89-2.6,0-.74,0-1.5,0-2.24a2.94,2.94,0,0,1,0-.8c-.11.4,0,.27.08.06.71-1.13,2.12-2.06,3-3,1.3-1.4.38-3.78.67-5.06.43-1.9,2.38-3.37,1.35-5.22a38,38,0,0,1-2.36-3.85c-.14-.34-.11-.31-.15.15a1.72,1.72,0,0,1,.3-.58,18.79,18.79,0,0,0,1.17-2.23,14.38,14.38,0,0,0,1.85-5.64,17.88,17.88,0,0,0-.71-3.54,10.79,10.79,0,0,1,.1-3.61c.24-2.08,1.09-4,1.47-6,.14-.73.18-1.49.26-2.23,0-.35.41-2.07.12-1.59.75-1.23,2.42-2.18,3.44-3.21,1.47-1.47.65-4.44.62-6.41a.5.5,0,0,0-.5-.5l-4.37.46c-1.39.15-1.77-.28-3.28-1.1-.87-.47-1.34-.92-2.23-.73a14.07,14.07,0,0,0-4.13,2.45c-.44.36-.42,0,.18.27a2.44,2.44,0,0,1-.53-.54,14.87,14.87,0,0,0-1.94-2c-.8-.81-1-1.2-2-1.26-2.88-.17-5.41,1.44-8.18,1.61a14.7,14.7,0,0,1-3.51-1c-.93-.4-2.16-1.85-3.17-2.85-.72-.71-.83-.89-1.79-1-1.38-.14-2.76.19-4.12-.05-1.14-.2-2.66-1.12-3.81-.94s-2.57,1.5-3.48,2a10,10,0,0,1-1,.57c-.5.22-.3.1.07.19-.54-.14-1.24-.92-1.68-1.24a7.65,7.65,0,0,0-2.63-1.64c-3-.69-5.31.31-8.08,1.32l-2.56.92a3.63,3.63,0,0,1-.83.3c-.45,0,.46.22-.23-.14a32.87,32.87,0,0,1-4.13-3.11.5.5,0,0,0-.61.08l-2.45,2.56c-1.22,1.27-.65,1-2.35,1a18.15,18.15,0,0,1-6.63-1.55.5.5,0,0,0-.49.13l-1.81,1.74a9.45,9.45,0,0,0-1.25,1.2c-.36.51-.86.37,0,.44-1.44-.11-3-1.48-4.41-1.93a15,15,0,0,0-4.48-.94,36,36,0,0,0-5.39,1,.5.5,0,0,0-.3.73l2.27,3.73a8.17,8.17,0,0,1,1,1.63c0-.13.13-.57-.17.05l-.66,1.32c-.46.92-1.42,2.13-1.33,3.17.12,1.38,1.58,2.63,1.74,4,0-.38-.31.67-.47,1.1-.31.86-.67,1.72-.93,2.6a25.66,25.66,0,0,0-.64,3.93c-.27,2.12,1.58,4,2.66,5.78.56.92,1.08,1.91,1.71,2.79a3.7,3.7,0,0,1,.52.84c-.19-.59.28-.5-.25-.1-1.26,1-2.26,2.84-3.26,4.09a.51.51,0,0,0,0,.71l3.64,3.16c.23.2.46.42.71.61.41.31.17-.48,0-.22-.45.84-1,1.65-1.46,2.46a11,11,0,0,0-1.55,7.11,32.81,32.81,0,0,1,.66,4.5c0,1.26-.3,2.72.23,3.85a14,14,0,0,0,1.6,2.14c.26.34,1.21,1.89,1.17,1.33.1,1.39-1.49,2.93-1.62,4.33s1,2.92,1,4.37c0,.81-1.23,3.31-1.69,4.55a.51.51,0,0,0,.35.62,48.39,48.39,0,0,0,5.42,1.79c.7.14,0-.35,0-.13,0,.47,0,1,0,1.43a12.35,12.35,0,0,0,0,3A9.63,9.63,0,0,0,110,203.2c1.14.79,3.08.92,4.42,1.27a.5.5,0,0,0,.27-1,29.57,29.57,0,0,1-3.6-.94c-.71-.29-1.29-1.15-2-2-1-1.24-.91-.71-.93-2.13l0-3.48a.51.51,0,0,0-.37-.48l-5.81-1.92.35.62c.52-1.41,1.6-3.18,1.73-4.67s-1.1-3-1.06-4.42c0,.4.15-.25.16-.25a12.74,12.74,0,0,1,.57-1.53,8.52,8.52,0,0,0,.88-2.37c0-1.15-1.71-2.68-2.37-3.57-1-1.37-.47-2.69-.58-4.71-.08-1.47-.69-2.9-.76-4.37-.19-3.67,1.24-5.59,3.08-8.69a.51.51,0,0,0-.08-.61A44.52,44.52,0,0,0,99.33,154c.58.37-.44.78.42.1a9.32,9.32,0,0,0,1.2-1.51l2-2.46a.52.52,0,0,0,.08-.61c-1.52-2.48-3.84-5.3-4.87-8-.13-.34,0,.47,0-.33,0-.39.11-.8.16-1.19.12-.84.16-1.73.35-2.56.34-1.42,1.42-2.89,1.53-4.33.09-1.17-.9-2.59-1.36-3.66a4,4,0,0,1-.41-1c.07.73.07.14.28-.18a23.89,23.89,0,0,0,1.43-2.86c.62-1.24.58-1.3-.14-2.49l-2.7-4.44-.3.73,3.89-.73a4.8,4.8,0,0,1,2.91.08,36.4,36.4,0,0,1,6.76,2.43.52.52,0,0,0,.61-.08c1.09-1,2.12-2.21,3.29-3.16.41-.33.24-.16-.09-.17a2.64,2.64,0,0,1,.78.28A20.1,20.1,0,0,0,118,119a13.68,13.68,0,0,0,3.79.22c1.32,0,1.46-.34,2.41-1.32a25.46,25.46,0,0,0,1.89-2,2.3,2.3,0,0,1,.52-.54c-.66.34-.44-.12-.07.41a11.33,11.33,0,0,0,2.34,1.76c.42.32,1.12,1.1,1.64,1.23,1,.26,2.63-.74,3.59-1.08,1.27-.46,2.52-1,3.81-1.39a9.32,9.32,0,0,1,4.65,0s1.19.95,1.54,1.21l2.11,1.56a.49.49,0,0,0,.5,0c1.32-.78,3-2.3,4.52-2.67.25-.06-.43,0,.35.09a11.77,11.77,0,0,1,1.26.33,17.3,17.3,0,0,0,2.29.6,18.89,18.89,0,0,0,2.52,0,11.6,11.6,0,0,1,1.32,0c.78.08.13-.13.38,0,1.43.74,2.21,2.71,3.59,3.54a12,12,0,0,0,4.25,1.33c1.49,0,3.11-.85,4.56-1.15.69-.14,1.47-.2,2.2-.29.37,0,2.34-.17,1.86-.37.58.24,1.36,1.37,1.8,1.82l1.84,1.86a.51.51,0,0,0,.61.08c1.43-.85,2.84-1.79,4.31-2.56.42-.22.32-.14-.06-.2a3.87,3.87,0,0,1,.91.49,18.5,18.5,0,0,0,2.75,1.49c1.14.37,2.52,0,3.71-.16a15.61,15.61,0,0,0,2.22-.24c-1,.26-.11-.9-.43.11a6,6,0,0,0,0,1.66,22.24,22.24,0,0,1,0,2.79c-.06.51,0,.22.06.19a4.22,4.22,0,0,1-.75.7c-1,.91-2.76,2-3.33,3.21s-.26,3.06-.53,4.36-1,2.81-1.26,4.26a19.57,19.57,0,0,0-.49,4.37c.06,1.43,1,3.26.91,4.44a17.68,17.68,0,0,1-1.17,4.09c-.48,1.19-2,2.76-2.1,4-.07,1.12,1.61,2.93,2.16,3.82a12.11,12.11,0,0,1,.67,1.09c.24.52.13-.21.12-.07a12,12,0,0,1-1.2,2.76,7.27,7.27,0,0,0-.61,3.4c0,.49.06,2.17,0,2.23s-1.13,1.07-1.47,1.4c-1,1-2.18,1.73-2.36,3.1a10,10,0,0,0,.3,4.41,20.4,20.4,0,0,0,1.64,2.74,6.9,6.9,0,0,0,.83,1.38c.49.46.16-.09.16-.08-1.42,1.24-3,2.38-4.43,3.56a.51.51,0,0,0-.08.61l2.52,5,.18-.68-4.62,2.5a.49.49,0,0,0-.25.43l.24,3.35a6.19,6.19,0,0,0,.14,2c.12.19-.18.67.25.15s.07-.08-.21-.16c-1-.29-3.3.32-4.3.56-.72.18-.7.15-1.14.74-.84,1.13-1.16,2.63-2,3.78-.43.62.33,0-.47.38-.61.28-1.29.44-1.92.66-2,.7-3.85.09-6.3-.32a.52.52,0,0,0-.56.23L161,208.49a15.47,15.47,0,0,0-.81,1.54c-.31.8-.63.52.08.58-1.73-.15-3.71-1.21-5.37-1.74a.51.51,0,0,0-.56.23L152.92,211c-.35.46-.7.92-1,1.38s-.12.29-.22.32c-1.39.41-3.23,0-4.5.71a10.62,10.62,0,0,0-1.81,1.8,11.24,11.24,0,0,0-1.26,1.25c-.08.11-.26.2-.33.32-.31.62.18-.17.43.21a23.18,23.18,0,0,0-1.66-2c-.53-.63-1.24-1.94-2-2.36-1-.59-3.41.17-4.54.35s-.72.2-1.53-.26a21.36,21.36,0,0,1-2.93-1.73,16.08,16.08,0,0,1-1-1.43,14.68,14.68,0,0,0-1.92-2.86c-1-.82-2.68-.41-3.94-.4s-1.14.1-2-.41a21.15,21.15,0,0,0-3-1.93c-1.47-.54-3.46-.36-5-.49C113.94,203.44,113.95,204.44,114.58,204.49Z"/>
          </g>
        </g>
        <circle class="ag" cx="162.67" cy="259.98" r="12"/>
        <g>
          <path class="ah" d="M162.67,270.48a11,11,0,0,1-1.78-.15,10.5,10.5,0,0,1,1.78-20.85,11,11,0,0,1,1.78.15,10.5,10.5,0,0,1-1.78,20.85Z"/>
          <path class="ai" d="M162.67,250a10.46,10.46,0,0,1,1.69.14A10,10,0,0,1,162.67,270a10.46,10.46,0,0,1-1.69-.14A10,10,0,0,1,162.67,250m0-1h0a11,11,0,0,0-1.86,21.85,11.51,11.51,0,0,0,1.86.15,11,11,0,0,0,1.86-21.85,11.51,11.51,0,0,0-1.86-.15Z"/>
        </g>
        <path class="aj" d="M171.17,257.87a2.67,2.67,0,0,0-2.83-2.57c-1.31,0-2.4.33-2.73,2.13h-5.88c-.32-1.8-1.42-2.13-2.73-2.13a2.72,2.72,0,0,0-2.83,2.63,2.53,2.53,0,0,0,.74,1.77,2.57,2.57,0,0,0-.74,1.78A2.87,2.87,0,0,0,157,264.3a2.81,2.81,0,0,0,2.58-1.47h6.17a2.9,2.9,0,0,0,5.41-1.3,2.69,2.69,0,0,0-.74-1.83A2.69,2.69,0,0,0,171.17,257.87Z"/>
        <path class="ak" d="M170.44,259.7a2.6,2.6,0,0,0-2.1-4.4c-1.31,0-2.4.33-2.73,2.13h-5.88c-.32-1.8-1.42-2.13-2.73-2.13a2.72,2.72,0,0,0-2.83,2.63,2.53,2.53,0,0,0,.74,1.77"/>
        <path class="al" d="M154.91,259.7a2.57,2.57,0,0,0-.74,1.78A2.87,2.87,0,0,0,157,264.3a2.81,2.81,0,0,0,2.58-1.47h6.17a2.9,2.9,0,0,0,5.41-1.3,2.69,2.69,0,0,0-.74-1.83"/>
        <path class="am" d="M191,140c-8.75,0-13.94,20-16,31-3,16-13.9,23-31,23-19.79,0-28-7-31-23-2.06-11-7.25-31-16-31,0,0,9.87,15,12.61,33.25C111.24,184.1,120.61,199,144,199c22,0,32.46-15.16,34.6-24.71C183.43,152.76,191,140,191,140Z"/>
        <path class="an" d="M98.13,140.08C106.2,141.69,111,160.46,113,171c3,16,11.21,23,31,23,17.1,0,28-7,31-23,2-10.76,7-30.18,15.47-31,0,0,1.07-.09,2.54-.07"/>
        <g class="ao">
          <path class="q" d="M60,210c14,0,48.31-38.31,48.31-56.55,1.36-3.09,1.93-7.18,4.69-9.44,2.93-2.4,8.6-3,11-6,18.6-22.61,20.78-61.37,1-126L40,11,0,39.75Z"/>
          <path class="ap" d="M58,205s13.33-58,3-74c0,0,39,4.83,39,35,0,30.45-43,56-43,56Z"/>
          <path class="aq" d="M146,95c0,7.18-2.69,20-6,20s-6-12.82-6-20,2.69-25,6-25S146,87.81,146,95Z"/>
          <polygon class="ar" points="137.8 104.69 136.01 89.04 139.25 85.99 138.92 104.41 137.8 104.69"/>
        </g>
        <g class="as">
          <path class="q" d="M165.11,38c-3.5,10,1,16,18,36,0,0,24.07,31.34,8.58,49.43a8,8,0,0,0-1.91,6.54l9.33,55s11,57,37,66l32-225-74-26Z"/>
          <path class="ap" d="M212,35c-14,0-21.75,18.75-18,30,5,12.25,31.15,16.25,46,14C218.88,57.87,223.76,35,212,35Z"/>
          <path class="aq" d="M167,163l33,20s13.75-19.75,6.91-35c-5.29-11.8-23.39-10.57-34.91,1Z"/>
          <path class="at" d="M214,37s-7.85,14.81-1,29c4.67,9.67,23,14,23,14C223.17,68.66,215.51,54.69,214,37Z"/>
        </g>
        <path class="au" d="M235,78c-11.19-7.34-21-28.5-21-41"/>
        <path class="aq" d="M155.9,14.86c-5.71,4.46,6.54.22,14.57,1.09,4.55.49,9.53,1.85,14.29,2.55,5.68.83,11.05,1.12,14.35,2.16,2.35.74,7.46,4.83,13.65,8.8,4.41,2.83,9.17,6.32,14.16,8,5.52.28,11.86.61,17.57,1.12,9.55.84,14,9.5,17.58,1.5,2.91-6.44,2.51-8.65-1.88-14.19-3.89-4.92-6.33-1.23-12.33-3.07s-5.73-2.71-11.74-4.54-6.34-.82-12.16-3.17c-7.47-3-7.26-3.49-14.51-7S203,2.16,195,1.48c-6.88-.58-6.38,2.06-12.88,4.39s-6.33,3-13.05,4.56S161.34,10.61,155.9,14.86Z"/>
        <path class="ap" d="M226,90l-12.37,16.24a12,12,0,0,0-2,10.52l6.71,28.55L237,120Z"/>
        <path class="ap" d="M101.43,78.59a1,1,0,0,1-.59-1.83c2.93-1.89,7.7-4.32,12.16-3.75,4.15.53,8.12,4,10.55,6.57a1,1,0,0,1-1,1.64A60.2,60.2,0,0,0,101.43,78.59Z"/>
        <path class="aq" d="M116.59,28.16c-12.19-2.46-27.47-.41-38.93,2.13l41.89,9.06Z"/>
        <path class="ap" d="M36,70.24C49.83,56.14,52,36,62.52,31,73.63,25.75,115,39,115,39c-32.69,18.73-49,51.5-51,91.56C64,130.55,24.36,82.11,36,70.24Z"/>
        <path class="at" d="M62.3,36s15,14.53,11.56,32.55C70.92,84,52.08,101.75,52.08,101.75c-7.5-11.28-11.45-23-11-35.19C53,61,60.46,48.16,62.3,36Z"/>
        <path class="aq" d="M11,75.12l12.46-14A64.39,64.39,0,0,0,36.1,58l-8,24.77Z"/>
        <path class="au" d="M41.06,66.57S58.17,59.54,62.3,36"/>
        <path class="aq" d="M36.65,18s7.53,8.6,26.18,8.6S86.44,18,86.44,18Z"/>
        <path class="av" d="M46.39,23.78l5,.48,2.36.19,2.62.16c.91.07,1.85,0,2.8.12s1.92.06,2.89.05,2,0,2.89,0,1.89,0,2.79,0l2.62-.09,2.36-.14c1.47-.11,2.7-.23,3.58-.32.43-.06.79-.07,1-.1l.37,0h0a.1.1,0,0,1,0,.19s-.46.19-1.29.47a33.59,33.59,0,0,1-3.5,1A48.82,48.82,0,0,1,62,26.79,50.46,50.46,0,0,1,51.1,25.44c-1.46-.35-2.66-.73-3.49-1s-1.3-.46-1.3-.46a.1.1,0,0,1,0-.19Z"/>
        <path class="av" d="M23.45,61s.18-.17.5-.42a10.61,10.61,0,0,1,1.34-.87,8.56,8.56,0,0,1,.9-.46c.32-.15.66-.32,1-.44a18.69,18.69,0,0,1,2.24-.7,19.48,19.48,0,0,1,2.3-.4c.37-.05.75,0,1.09-.07a9.58,9.58,0,0,1,1,0,12.76,12.76,0,0,1,1.58.12c.4.06.64.12.64.12l.06,0a.09.09,0,0,1,0,.17l-.52.21c-.33.14-.81.33-1.39.53-1.16.4-2.73.87-4.32,1.27s-3.2.67-4.41.87-2,.27-2,.27a.09.09,0,0,1-.07-.16Z"/>
        <polygon class="aq" points="112.54 38.85 125.04 46.48 133.46 38.88 112.54 38.85"/>
        <g class="j">
          <path class="k" d="M209.45,212.53l.9,1a7.79,7.79,0,0,0,1.13,1,11,11,0,0,0,1.61,1.12l.47.3.52.24,1.09.51c.39.14.8.27,1.21.41l.63.21.66.14c.44.08.89.2,1.35.26l1.41.13a11.73,11.73,0,0,0,1.43,0,9.08,9.08,0,0,0,1.44-.08c.48-.06,1-.09,1.43-.16l1.4-.31a9.7,9.7,0,0,0,1.35-.41,9.33,9.33,0,0,0,1.29-.49l1.2-.57a11.36,11.36,0,0,0,1.09-.66,12.07,12.07,0,0,0,1.86-1.41,12.37,12.37,0,0,0,1.39-1.4c.19-.22.4-.41.55-.62l.4-.58.76-1.1a.15.15,0,0,1,.27.1v0a12.14,12.14,0,0,1-.34,1.42l-.23.76a6.32,6.32,0,0,1-.39.83,8.89,8.89,0,0,1-1.17,1.91l-.82,1a8.43,8.43,0,0,1-1,.95,13.75,13.75,0,0,1-1.15.94c-.41.29-.87.54-1.32.81a11.57,11.57,0,0,1-1.44.7,8.37,8.37,0,0,1-1.54.58c-.53.14-1.07.3-1.62.42s-1.11.15-1.67.22a10.92,10.92,0,0,1-1.68.06,11.09,11.09,0,0,1-1.66-.09c-.55-.07-1.09-.16-1.62-.26s-1-.28-1.54-.43l-.74-.24c-.24-.1-.47-.21-.7-.32-.46-.23-.9-.44-1.32-.66a11.78,11.78,0,0,1-2.17-1.61c-.3-.29-.6-.55-.85-.83a8.87,8.87,0,0,1-.68-.88,5.82,5.82,0,0,1-.87-1.47c-.34-.83-.5-1.35-.5-1.35l0-.06a.14.14,0,0,1,.24-.14Z"/>
        </g>
        <g class="j">
          <path class="k" d="M79.87,212.52s-.15.52-.5,1.35a5.83,5.83,0,0,1-.87,1.47,8.84,8.84,0,0,1-.68.88c-.26.27-.55.54-.85.83a11.77,11.77,0,0,1-2.17,1.61c-.42.23-.86.44-1.32.66-.23.11-.46.22-.7.32l-.74.24c-.5.16-1,.32-1.54.43s-1.07.19-1.62.26a11.1,11.1,0,0,1-1.66.09,10.92,10.92,0,0,1-1.68-.06c-.56-.07-1.12-.13-1.67-.22s-1.09-.28-1.62-.42a8.37,8.37,0,0,1-1.54-.58,11.59,11.59,0,0,1-1.44-.7c-.45-.27-.91-.52-1.32-.81a13.8,13.8,0,0,1-1.15-.94,8.44,8.44,0,0,1-1-.95L55,215a8.89,8.89,0,0,1-1.17-1.91,6.34,6.34,0,0,1-.39-.83l-.23-.76a12.15,12.15,0,0,1-.34-1.42v0a.15.15,0,0,1,.27-.11l.76,1.1.4.58c.15.21.35.4.55.62a12.37,12.37,0,0,0,1.39,1.4A12.08,12.08,0,0,0,58,215a11.36,11.36,0,0,0,1.09.66l1.2.57a9.33,9.33,0,0,0,1.29.49,9.7,9.7,0,0,0,1.35.41l1.4.31c.47.07,1,.11,1.43.16a9.08,9.08,0,0,0,1.44.08,11.73,11.73,0,0,0,1.43,0l1.41-.13c.46-.06.91-.18,1.35-.26l.66-.14.63-.21c.41-.14.82-.26,1.21-.41L75,216l.52-.24.47-.3a11,11,0,0,0,1.61-1.12,7.77,7.77,0,0,0,1.13-1l.9-1a.14.14,0,0,1,.24.14Z"/>
        </g>
      </g>
      <path class="av" d="M203.06,22.89a7.86,7.86,0,0,1,.78.13,13.13,13.13,0,0,1,1.92.59,12.28,12.28,0,0,1,1.19.5,14.18,14.18,0,0,1,1.27.64c.42.25.89.46,1.3.75l1.29.83,1.23.91c.41.29.77.63,1.15.93s.71.61,1,.92.63.58.91.86.53.53.76.76.42.44.59.61c.33.33.53.56.53.56l0,0a.09.09,0,0,1-.1.15l-.68-.25c-.43-.18-1-.45-1.72-.82-1.39-.74-3.16-1.86-4.89-3s-3.37-2.46-4.63-3.39-2.1-1.53-2.1-1.53a.09.09,0,0,1,.06-.17Z"/>
      <path class="av" d="M242,37.87s.3-.08.82-.16a10.18,10.18,0,0,1,2.17,0,11.07,11.07,0,0,1,1.4.16,14.09,14.09,0,0,1,1.51.3c.51.14,1.05.24,1.56.43l1.57.53,1.51.61c.5.18,1,.45,1.43.64s.9.43,1.31.64.81.41,1.17.6.7.38,1,.52.57.31.79.41c.45.22.73.37.73.37l0,0a.09.09,0,0,1,0,.17l-.77,0c-.25,0-.54-.06-.88-.1s-.71-.13-1.13-.2A46.53,46.53,0,0,1,250.37,41c-2.08-.8-4.14-1.62-5.72-2.14a24.48,24.48,0,0,0-2.66-.75.09.09,0,0,1,0-.18Z"/>
      <path class="h" d="M139,49l-8,4a59.6,59.6,0,0,1,7.56,25C139.5,65.37,142.81,57.66,139,49Z"/>
      <path class="av" d="M77.67,30.16s.41-.09,1.11-.2a22.09,22.09,0,0,1,2.92-.23c.6,0,1.25,0,1.94,0s1.41.06,2.14.15,1.51.14,2.27.29l2.32.42,2.29.56c.76.17,1.48.44,2.19.65s1.38.48,2,.71,1.23.49,1.78.74a23,23,0,0,1,3.56,1.92l0,0a.1.1,0,0,1-.08.17S96.09,33.8,90,32.56c-3.05-.67-6.13-1.26-8.44-1.63s-3.87-.57-3.87-.57a.1.1,0,0,1,0-.19Z"/>
      <path class="aw" d="M160.18,107s-4.6,3.47-3,5.75c1.46,2.08,10,.33,10,.33Z"/>
      <path class="aw" d="M161,152.3l-.14-.49a9.79,9.79,0,0,0-.46-1.31,8.82,8.82,0,0,0-2.89-3.54,12.14,12.14,0,0,0-2.64-1.41,19.71,19.71,0,0,0-3.26-1c-.6-.08-1.19-.22-1.81-.29s-1.24-.15-1.89-.19L146,144l-1.92,0L142,144l-1.91.11c-.63,0-1.26.14-1.88.2s-1.21.21-1.81.29a19.65,19.65,0,0,0-3.26,1A12.12,12.12,0,0,0,130.5,147a8.82,8.82,0,0,0-2.89,3.54,10.68,10.68,0,0,0-.46,1.31l-.14.49-.09-.5a7.12,7.12,0,0,1-.08-1.47,7.77,7.77,0,0,1,.48-2.31,9.2,9.2,0,0,1,1.58-2.73,12.17,12.17,0,0,1,2.86-2.41,17.35,17.35,0,0,1,3.73-1.71,25.53,25.53,0,0,1,4.19-.92c.72-.07,1.49-.18,2.2-.21L144,140l2.23.08c.72,0,1.45.15,2.16.21a25.63,25.63,0,0,1,4.18.92,17.3,17.3,0,0,1,3.73,1.71,12.15,12.15,0,0,1,2.86,2.41,9.22,9.22,0,0,1,1.58,2.73,7.79,7.79,0,0,1,.48,2.31,6.82,6.82,0,0,1-.08,1.47Z"/>
      <path class="ax" d="M124,107s4.6,3.47,3,5.75c-1.46,2.08-10,.33-10,.33Z"/>
      <path class="a" d="M145,151c-14.35,0-21,5.26-21,10.09S124.65,184,144.53,184h1C165.36,184,166,165.87,166,161S159.36,151,145,151Z"/>
      <path class="ax" d="M126,103c0,7.18-4.51,13-15,13s-17-5.82-17-13,6.51-13,17-13S126,95.79,126,103Z"/>
      <path class="ay" d="M95.27,105.82l.25.35c.16.21.42.61.7.93l.47.59.63.69c.46.49,1,1,1.62,1.53a19.76,19.76,0,0,0,4.7,3,19,19,0,0,0,6.17,1.59,20.1,20.1,0,0,0,3.25-.06,18.23,18.23,0,0,0,3.09-.68,17.06,17.06,0,0,0,2.74-1.21,16.44,16.44,0,0,0,2.24-1.56,10.5,10.5,0,0,0,.92-.83c.28-.28.56-.53.79-.81.49-.52.86-1,1.19-1.43s.53-.76.7-1l.25-.36-.13.41c-.09.27-.19.68-.4,1.17a13.58,13.58,0,0,1-.84,1.75,13.27,13.27,0,0,1-1.43,2.11,14.44,14.44,0,0,1-2.17,2.16,15.5,15.5,0,0,1-2.93,1.84,16.87,16.87,0,0,1-7.38,1.59,20.42,20.42,0,0,1-3.84-.42,22.07,22.07,0,0,1-3.57-1.12,21.49,21.49,0,0,1-3.1-1.64,19.46,19.46,0,0,1-2.49-1.91,18.52,18.52,0,0,1-1.83-1.92l-.69-.86-.56-.8a11.21,11.21,0,0,1-.65-1.08l-.21-.37a1.5,1.5,0,0,1,2.52-1.62Z"/>
      <path class="ax" d="M94.46,91.48l.34-.22c.24-.14.51-.37,1-.63s1.09-.58,1.76-.88a19.07,19.07,0,0,1,2.33-.9,23.12,23.12,0,0,1,2.86-.72,25.9,25.9,0,0,1,3.26-.39,29.38,29.38,0,0,1,3.51,0,26.4,26.4,0,0,1,3.58.55,20.6,20.6,0,0,1,3.46,1.08A17.36,17.36,0,0,1,119.71,91a14.19,14.19,0,0,1,2.58,2.07,11.43,11.43,0,0,1,1.83,2.33,9.59,9.59,0,0,1,1,2.26,8.2,8.2,0,0,1,.37,1.84,6.62,6.62,0,0,1,0,1.19v.41l-.12-.4a9.27,9.27,0,0,0-.37-1.09,5.3,5.3,0,0,0-.32-.74,7.08,7.08,0,0,0-.44-.83,11.66,11.66,0,0,0-1.32-1.77,12.1,12.1,0,0,0-1.94-1.7,15.42,15.42,0,0,0-2.48-1.44,20.57,20.57,0,0,0-2.88-1.08,25.7,25.7,0,0,0-3.11-.69,26.54,26.54,0,0,0-3.18-.29,26,26,0,0,0-3.09.08,25.19,25.19,0,0,0-2.86.37c-.9.18-1.74.35-2.5.58s-1.46.44-2.06.67-1.11.45-1.51.63-.78.38-1,.49l-.37.18a1.5,1.5,0,0,1-1.49-2.6Z"/>
      <g class="az">
        <ellipse class="b" cx="110.78" cy="102.97" rx="14.88" ry="12.92"/>
        <g class="ba">
          <path class="bb" d="M129.16,103c0,8.05-6.27,13.54-14,13.54s-14-5.49-14-13.54,6.27-13.54,14-13.54S129.16,94.91,129.16,103Z"/>
          <path class="bc" d="M129.16,98.74c0,8.05-6.27,13.54-14,13.54s-14-5.49-14-13.54,6.27-13.54,14-13.54S129.16,90.68,129.16,98.74Z"/>
        </g>
        <ellipse class="bd" cx="109.7" cy="98.61" rx="2.63" ry="2.12"/>
        <path class="be" d="M124.78,101.12a20.25,20.25,0,0,0-28,0c0-5.61,6.27-10.15,14-10.15S124.78,95.51,124.78,101.12Z"/>
        <path class="bf" d="M125.66,105.93c0,3-4.82,8-14,8s-14.87-5-14.87-8c3.06,2.12,8.6,3,14.87,3S121.21,108.25,125.66,105.93Z"/>
      </g>
      <ellipse class="bg" cx="110.78" cy="102.97" rx="14" ry="12"/>
      <g class="bh">
        <path class="bi" d="M144,143c-13,0-17,5.26-17,10.09S129.64,171,143.58,171h.86C158.6,171,161,157.87,161,153S157,143,144,143Z"/>
        <path class="bj" d="M120,153a110.73,110.73,0,0,1,50,0l-9.5-9c-9.62-5.28-20.43-5.39-32.5,0C128,144,119.76,152.71,120,153Z"/>
        <circle class="bk" cx="144.01" cy="149.96" r="8"/>
        <path class="bl" d="M131,151s.41-.11,1.14-.26,1.78-.35,3-.5,2.74-.32,4.33-.42c.8,0,1.62-.1,2.45-.12s1.68,0,2.53-.05c1.7,0,3.4,0,5,.15s3.07.27,4.34.43,2.31.37,3,.52L158,151l-1.17-.07c-.74-.07-1.8-.09-3.06-.15s-2.74-.08-4.32-.11-3.27,0-5,0-3.37,0-5,0-3.06,0-4.32.1-2.32.08-3.06.13Z"/>
        <path class="bm" d="M131.74,165.46h-3.53L126,161s3.11.69,4.93-1.12c1.19-1.19,2.1-3.88,5.07-3.88s4,2.89,4,5.53C140,164.83,136.58,165.46,131.74,165.46Z"/>
        <line class="bn" x1="144.01" y1="173.96" x2="144.01" y2="160.96"/>
        <path class="bo" d="M122.48,153.21s3.84,14.43,21,14.43c17.82,0,21-14.31,21-14.31L166.39,173H119.62Z"/>
        <path class="bm" d="M156.28,165.46h3.53L162,161s-3.11.69-4.93-1.12C155.88,158.71,155,156,152,156s-4,2.89-4,5.53C148,164.83,151.43,165.46,156.28,165.46Z"/>
        <path class="bp" d="M139,150.21a13,13,0,0,1,1.56-.3,27.8,27.8,0,0,1,6.88,0,12.85,12.85,0,0,1,1.56.28,12.83,12.83,0,0,1-1.56.3,27.81,27.81,0,0,1-6.88,0A13,13,0,0,1,139,150.21Z"/>
      </g>
      <path class="bq" d="M141,119c0,1.66-1.12,2-2.5,2a2.78,2.78,0,0,1-2.5-3c0-1.66.24-3,2.5-3,1,0,1.08,1.62,1.5,2A2.4,2.4,0,0,1,141,119Z"/>
      <circle class="br" cx="138.01" cy="128.96" r="1"/>
      <circle class="bs" cx="161.51" cy="86.47" r="0.5"/>
      <circle class="br" cx="145.51" cy="133.46" r="0.5"/>
      <circle class="bs" cx="169.51" cy="157.46" r="0.5"/>
      <circle class="bs" cx="170.51" cy="154.46" r="0.5"/>
      <path class="bq" d="M139.91,134.32c0,1.3-1.08,1.34-2.36,2.36-.68.54-1.23,1.88-2.36,1.88-.83,0-1.44-2.23-1.18-4.24A2.83,2.83,0,0,1,137,132,2.7,2.7,0,0,1,139.91,134.32Z"/>
      <circle class="br" cx="153.51" cy="133.46" r="1.5"/>
      <path class="bt" d="M77,275"/>
      <path class="an" d="M206,224.8a13.12,13.12,0,0,1,.56,6.34c7.6,0,12.69-3.15,16.1-7.37"/>
      <path class="bu" d="M204.94,222.9a9,9,0,0,1,1,1.9"/>
      <ellipse class="bs" cx="167.01" cy="149.96" rx="1" ry="2"/>
      <ellipse class="bv" cx="166.51" cy="136.46" rx="0.5" ry="1.5" transform="translate(-39.68 74.53) rotate(-22.62)"/>
      <ellipse class="bs" cx="156.51" cy="90.47" rx="1.5" ry="0.5" transform="translate(24.91 214.41) rotate(-73.31)"/>
      <ellipse class="bv" cx="168.51" cy="141.46" rx="0.5" ry="1.5" transform="translate(-19.22 26.73) rotate(-8.58)"/>
      <path class="d" d="M213.6,203.57"/>
      <path class="d" d="M220.18,308.76"/>
      <path class="a" d="M77,275"/>
      <path class="ac" d="M175.08,236.46"/>
      <path class="an" d="M64.91,220.1c4,6.43,9.56,11,17.4,11a20.07,20.07,0,0,1,.62-5.07"/>
      <path class="bu" d="M82.93,226c.12-.44.25-.86.4-1.27"/>
      <path class="bu" d="M222.64,223.77a26.64,26.64,0,0,0,3.67-6.18"/>
      <path class="bu" d="M83.33,224.73c1-2.79,3-4.94,6.3-4.94,0,0,.05,4.11,3.69,4.11,0-3.23,3.31-4.08,3.31-4.08s1.56,3.08,4.58,3.08c0-2.33,3.51-2.17,3.51-2.17s2.37,8.41,8.85,8.41c0-6.53,6.73-5.82,6.73-5.82s1.86,6,4.85,6c0-3.67,4.88-3.75,4.88-3.75a8.68,8.68,0,0,0,8,5.25c0-2.63,2.75-4.46,4.42-4.46,0,3.26,4.49,4.08,4.49,4.08s1.51,3.6,7.63,3.6c0-6.53,8.22-8.32,8.22-8.32a11.31,11.31,0,0,0,9.86,5.65c0-3.14,3.29-5,7.27-5,0-3.62,5.9-4.23,5.9-4.23s2.75,5.82,8.66,5.82c0,0-.13-8.32,6.67-8.32a10.72,10.72,0,0,1,3.8,3.2"/>
      <path class="bu" d="M64.1,218.72q.39.7.81,1.38"/>
      <path class="aw" d="M157.67,103c0,7.18,4.51,13,15,13s17-5.82,17-13-6.51-13-17-13S157.67,95.79,157.67,103Z"/>
      <path class="b" d="M190.51,107.17l-.22.37a12.22,12.22,0,0,1-.66,1.05l-.54.76-.68.84a18.16,18.16,0,0,1-1.8,1.85,20.55,20.55,0,0,1-2.44,1.85,21,21,0,0,1-3,1.61,21.5,21.5,0,0,1-3.47,1.11A20.14,20.14,0,0,1,174,117a16.79,16.79,0,0,1-7.2-1.45,15.19,15.19,0,0,1-2.9-1.74,15.81,15.81,0,0,1-2.18-2.06,12.6,12.6,0,0,1-1.48-2,16.48,16.48,0,0,1-.89-1.69c-.24-.47-.35-.88-.46-1.13l-.15-.4.23.37c.16.23.35.59.65,1a16,16,0,0,0,1.13,1.48c.22.28.49.55.76.84a10.7,10.7,0,0,0,.89.87,14.69,14.69,0,0,0,2.23,1.66,17.38,17.38,0,0,0,2.77,1.31,17.74,17.74,0,0,0,3.16.77,19.5,19.5,0,0,0,3.35.12,19.06,19.06,0,0,0,6.38-1.58,20.26,20.26,0,0,0,2.68-1.43,18.29,18.29,0,0,0,2.18-1.63c.63-.56,1.19-1.09,1.66-1.6l.64-.72.49-.63c.3-.35.53-.74.69-1l.25-.35a1,1,0,0,1,1.68,1.08Z"/>
      <path class="aw" d="M187.73,94.08l-.37-.18c-.23-.11-.62-.32-1-.49s-.89-.41-1.51-.63-1.3-.45-2.06-.67-1.61-.41-2.51-.58a25.18,25.18,0,0,0-2.86-.37,26,26,0,0,0-3.09-.08,26.54,26.54,0,0,0-3.18.29,25.71,25.71,0,0,0-3.11.69,20.57,20.57,0,0,0-2.88,1.08,15.42,15.42,0,0,0-2.48,1.44,12.09,12.09,0,0,0-1.94,1.7,11.65,11.65,0,0,0-1.32,1.77,7.08,7.08,0,0,0-.44.83,5.3,5.3,0,0,0-.32.74,9.24,9.24,0,0,0-.37,1.09l-.12.4v-.41a6.62,6.62,0,0,1,0-1.19,8.2,8.2,0,0,1,.37-1.84,9.59,9.59,0,0,1,1-2.26,11.44,11.44,0,0,1,1.83-2.33A14.19,14.19,0,0,1,164,91a17.36,17.36,0,0,1,3.13-1.61,20.6,20.6,0,0,1,3.46-1.08,26.4,26.4,0,0,1,3.58-.55,29.38,29.38,0,0,1,3.51,0,25.9,25.9,0,0,1,3.26.39,23.12,23.12,0,0,1,2.86.72,19.07,19.07,0,0,1,2.33.9c.67.3,1.27.61,1.76.88s.77.49,1,.63l.34.22a1.5,1.5,0,0,1-1.49,2.6Z"/>
      <g class="bw">
        <ellipse class="b" cx="172.9" cy="102.97" rx="14.88" ry="12.92"/>
        <g class="bx">
          <path class="bb" d="M154.52,103c0,8.05,6.27,13.54,14,13.54s14-5.49,14-13.54-6.27-13.54-14-13.54S154.52,94.91,154.52,103Z"/>
          <path class="bc" d="M154.52,98.74c0,8.05,6.27,13.54,14,13.54s14-5.49,14-13.54-6.27-13.54-14-13.54S154.52,90.68,154.52,98.74Z"/>
        </g>
        <ellipse class="bd" cx="173.98" cy="98.61" rx="2.63" ry="2.12"/>
        <path class="be" d="M158.9,101.12a20.25,20.25,0,0,1,28,0c0-5.61-6.27-10.15-14-10.15S158.9,95.51,158.9,101.12Z"/>
        <path class="bf" d="M158,105.93c0,3,4.82,8,14,8s14.88-5,14.88-8c-3.06,2.12-8.6,3-14.87,3S162.47,108.25,158,105.93Z"/>
      </g>
      <ellipse class="bg" cx="172.9" cy="102.97" rx="14" ry="12"/>
      <path class="a" d="M64.35,212.39"/>
      <path class="h" d="M79.76,212.39C74,220.2,58.76,220.2,53,210c13.4-4.75,14.58-15.32,13.88-20.72"/>
      <path class="ap" d="M63.6,199.52"/>
      <path class="ap" d="M63.6,199.52c15.78-2.23,22.82-12.63,30.16-24.79l-24.09,8.8A56.48,56.48,0,0,0,63.6,199.52Z"/>
      <path class="ap" d="M84.24,188.38C73.64,199.82,69.1,196,62.55,203.81c-.21-8.38,2.17-17.6,7.13-20.29"/>
      <path class="k" d="M79.76,212.39l-.47.62a7.12,7.12,0,0,1-.58.67,8.59,8.59,0,0,1-.83.81,12.88,12.88,0,0,1-1.07.87,15.29,15.29,0,0,1-1.3.83,13.59,13.59,0,0,1-1.47.74,16,16,0,0,1-1.6.6,15.83,15.83,0,0,1-1.65.44c-.55.13-1.1.2-1.64.27a18.6,18.6,0,0,1-2.94.11,16.38,16.38,0,0,1-2.08-.2l-.79-.13a.5.5,0,1,1,.16-1h.06l.74.16a15.5,15.5,0,0,0,2,.3,17.84,17.84,0,0,0,2.83,0c.52,0,1.05-.08,1.59-.18a15.27,15.27,0,0,0,1.62-.33,15.56,15.56,0,0,0,1.58-.5,13.24,13.24,0,0,0,1.48-.64,15,15,0,0,0,1.31-.74,12.7,12.7,0,0,0,1.1-.79,8.48,8.48,0,0,0,.86-.76,7.05,7.05,0,0,0,.62-.64Z"/>
      <path class="h" d="M209.34,212.6c5.75,7.81,21,7.81,26.8-2.44-13.4-4.75-14.58-15.32-13.88-20.72"/>
      <path class="k" d="M209.34,212.6l.52.61a7.11,7.11,0,0,0,.64.66,8.52,8.52,0,0,0,.9.78,12.84,12.84,0,0,0,1.14.81,15.14,15.14,0,0,0,1.37.75l.75.35.79.3a15.75,15.75,0,0,0,1.65.49,15.38,15.38,0,0,0,1.69.31c.56.09,1.12.11,1.65.15a17.86,17.86,0,0,0,2.93-.13,15.4,15.4,0,0,0,2-.37l.76-.19h0a.5.5,0,0,1,.25,1h0l-.81.16a16.27,16.27,0,0,1-2.15.28,18.64,18.64,0,0,1-3.05,0c-.55-.06-1.13-.12-1.7-.24a15.92,15.92,0,0,1-1.72-.41,16.19,16.19,0,0,1-1.67-.59l-.79-.35-.75-.39a15.43,15.43,0,0,1-1.35-.84,13,13,0,0,1-1.12-.89,8.66,8.66,0,0,1-.86-.84,7.17,7.17,0,0,1-.61-.7Z"/>
      <path class="q" d="M213.08,195.79c4.15,0,8.78,5.48,13.5,8.26.21-8.38-2.2-17.63-7.16-20.32"/>
      <path class="bt" d="M82.17,230.79"/>
      <path class="bt" d="M64.94,220.08"/>
      <path class="a" d="M218.08,307.4a9.27,9.27,0,0,0,2.88-2.07"/>
      <path class="a" d="M229.41,202.09"/>
      <path class="a" d="M64.87,305.12a8.08,8.08,0,0,0,3.64,1.47"/>
      <path class="m" d="M69.45,216.71"/>
      <path class="by" d="M84.24,188.38l-.79.84-.91,1c-.35.37-.78.76-1.23,1.2s-1,.91-1.51,1.37l-.85.72-.93.7c-.62.5-1.32.93-2,1.39s-1.44.87-2.2,1.25-1.52.75-2.26,1.1-1.49.69-2.19,1-1.35.72-2,1.08a17.76,17.76,0,0,0-1.6,1.17,12.54,12.54,0,0,0-1.25,1.12,9.75,9.75,0,0,0-.89.94l-.74.85,0,0a.5.5,0,1,1-.75-.66h0l.81-.86a10.44,10.44,0,0,1,1-.95,13.36,13.36,0,0,1,1.35-1.13A18.57,18.57,0,0,1,67,199.4c.65-.35,1.33-.72,2.06-1s1.48-.64,2.24-1,1.53-.64,2.28-1,1.49-.75,2.21-1.15,1.4-.83,2-1.3l.95-.66.87-.69c.57-.44,1.09-.88,1.55-1.3s.91-.79,1.27-1.15l.94-.93Z"/>
      <path class="by" d="M213.08,195.79l.69,0a7.81,7.81,0,0,1,1.77.44c.34.15.74.29,1.11.5s.79.42,1.19.66c.81.49,1.64,1.06,2.45,1.66,1.63,1.19,3.21,2.41,4.44,3.24s2.09,1.3,2.09,1.3a.5.5,0,1,1-.47.88l0,0h0s-.88-.55-2.08-1.48-2.72-2.25-4.25-3.52c-.77-.64-1.55-1.25-2.32-1.79-.38-.26-.76-.51-1.13-.72s-.73-.39-1.06-.56a7.71,7.71,0,0,0-1.71-.54Z"/>
      <g class="af">
        <path class="k" d="M79.91,212.53l-.86,1a8.29,8.29,0,0,1-1.12,1.11,9.28,9.28,0,0,1-1.65,1.23l-.48.31-.54.26-1.13.55c-.4.16-.82.29-1.25.44l-.65.22-.68.15c-.46.09-.92.22-1.4.29l-1.45.16a12.32,12.32,0,0,1-1.48,0,9.32,9.32,0,0,1-1.5-.06c-.5-.06-1-.11-1.49-.19l-1.45-.34a10.19,10.19,0,0,1-1.39-.44,9.83,9.83,0,0,1-1.33-.52l-1.24-.61a11.92,11.92,0,0,1-1.12-.7,12.61,12.61,0,0,1-1.9-1.49,10.19,10.19,0,0,1-1.39-1.49c-.19-.24-.39-.44-.54-.66l-.38-.61-.73-1.16a.18.18,0,0,1,.24-.26l.11.06.36.19c.22.13.56.3.93.54a12.15,12.15,0,0,0,1.35.75,17,17,0,0,0,1.7.8,16.41,16.41,0,0,0,1.94.75c.35.09.65.27,1,.35s.72.19,1.08.29c.73.18,1.48.34,2.25.47.39.06.78.1,1.16.18s.79.07,1.18.11a6.9,6.9,0,0,0,1.18.08c.39,0,.79.09,1.18,0s.78,0,1.17,0,.76-.07,1.14-.07l.57,0,.55-.07,1.09-.11c.35-.06.69-.13,1-.18l.52-.07.47-.13c.64-.16,1.28-.26,1.76-.43a8,8,0,0,0,1.46-.51c.41-.21.78-.34,1-.44l.38-.14.11,0a.18.18,0,0,1,.2.29Z"/>
      </g>
      <g class="af">
        <path class="k" d="M209.57,212.51l.38.14c.23.1.6.23,1,.44a8,8,0,0,0,1.46.51c.48.17,1.12.28,1.76.43l.47.13.52.07c.35,0,.69.12,1,.18l1.09.11.55.07.57,0c.38,0,.75.06,1.14.07s.78,0,1.17,0,.78-.06,1.18,0a6.9,6.9,0,0,0,1.18-.08c.39,0,.79-.06,1.18-.11s.77-.13,1.16-.18c.76-.14,1.52-.3,2.25-.47.36-.1.71-.22,1.08-.29s.67-.25,1-.35a16.4,16.4,0,0,0,1.94-.75,17,17,0,0,0,1.7-.8,12.18,12.18,0,0,0,1.35-.75c.36-.24.71-.41.93-.54l.36-.19.11-.06a.18.18,0,0,1,.24.26l-.73,1.16-.38.61c-.15.22-.35.42-.54.66a10.18,10.18,0,0,1-1.39,1.49,12.59,12.59,0,0,1-1.9,1.49,11.93,11.93,0,0,1-1.12.7l-1.24.61a9.81,9.81,0,0,1-1.33.52,10.22,10.22,0,0,1-1.39.44l-1.45.34c-.49.08-1,.13-1.49.19a9.32,9.32,0,0,1-1.5.06,12.32,12.32,0,0,1-1.48,0l-1.45-.16c-.48-.07-.94-.2-1.4-.29l-.68-.15-.65-.22c-.43-.15-.85-.28-1.25-.44l-1.13-.55-.54-.26-.48-.31a9.3,9.3,0,0,1-1.65-1.23,8.3,8.3,0,0,1-1.12-1.11l-.86-1a.18.18,0,0,1,.2-.29Z"/>
      </g>
      <path class="bz" d="M226.58,204.05a22.45,22.45,0,0,0,9.55,6.11,15.59,15.59,0,0,1-9.85,7.42,26.88,26.88,0,0,1-3.65,6.16c5.36,8.25,9.51,20.17,9.44,37.28-.1,25.44-6.92,43.39-14,46.39-.57,19.55-17.72,35.44-28.07,35.44,0,13.11-17.12,17.77-21,18.86,0,5.35-12.43,12.28-24.85,12.37s-24.86-6.67-24.86-12.68c-8.29,0-21.54-8.69-21.54-18.44-15,0-29.2-16.21-30.25-36.57-9.59-2.62-15.66-25.29-15.66-45.28s6-32.76,13.06-41c-.52-.82-1-1.68-1.45-2.56A15.72,15.72,0,0,1,53,210a22.27,22.27,0,0,0,9.59-6.15"/>
      <path class="au" d="M62.55,203.81A35.19,35.19,0,0,1,65.17,189C62.73,172.46,60,154.82,60,149c0-5,6-16.26,6-22,0-8.75-7.58-22.4-9.75-30.28-.87-3.15-10-6.48-11.67-13.3-1.3-5.28-3.53-16.88-3.53-16.88C34.91,68.35,28,69.8,25,68.36c-1.87-.92-3-3.41-1.29-8.74,1.42-4.4,5.63-29.9,5.63-29.9,1.25-6.5,7.89-10.52,14.31-9.22,0,0,17.68,2.62,27.12,2.62,13.73,0,24.52-2,29.13,1.16C104.1,27.15,106.22,37.37,111,39c7,2.33,58,1.33,68-2,7.47-2.49,10.5-20,20-20,10.06,0,26.25,17,36,17,5.77,0,19.72-1.75,23,3,5.76,8.33-3,29.72-10,37-3.88,4-9.25,6.5-13,4-2.24-1.5-5.87-2.65-8-1-7.77,6,3,20,3,36,0,7.62-12,17.5-12,26,0,13.33,5.75,34.37,5.75,49,0,.27,0,.55,0,.82,2,4.13,3,9.88,2.83,15.27"/>
      <path class="ca" d="M220.33,167.47c4.61,2.22,7,8.09,6.59,13.94,0,0-3.61-5-7.09-5"/>
      <path class="ca" d="M60.44,150.55s-5.71,7.41-1.58,15.82c0,0,1.56-5.83,4.41-6.66"/>
      <path class="cb" d="M65.38,180.46A12.51,12.51,0,0,1,57,174.67s6.2,1.7,8.33-.71"/>
      <path class="ca" d="M65.9,117.16A23.21,23.21,0,0,0,63.27,134s1.31-6.23,5.79-7.48"/>
      <path class="cb" d="M59.44,100.13s-4.77,6.09.42,14.82c0,0-.56-5.43,2.41-6.66"/>
      <path class="cc" d="M44.72,73S41.83,86,48,94c0,0-.56-5.43,2.41-6.66"/>
      <path class="cc" d="M52.3,90.92s-1.79,3.27,2.22,9.41c0,0-.24-4.92,2.31-6.58"/>
      <path class="ca" d="M41.27,23.8a32.16,32.16,0,0,0-12.93-2.41s4,2.58,3.5,5.76"/>
      <path class="av" d="M31.81,22.73s2.19.22,4.35.67c1.07.24,2.14.54,2.92.8s1.3.46,1.3.46a0,0,0,0,1,0,.09h0l-.41,0c-.25,0-.62,0-1,0s-.89-.06-1.39-.13c-.25,0-.51-.06-.77-.12L36,24.37l-.78-.19c-.26,0-.51-.15-.75-.21a12.31,12.31,0,0,1-1.33-.48,8.28,8.28,0,0,1-1.29-.66h0a0,0,0,0,1,0-.09Z"/>
      <path class="cd" d="M58.35,23.53s-2.43-3.42-8.73-3.88c0,0,1.84,1.75,3.38,3.39"/>
      <path class="cd" d="M250.57,34.92a32.17,32.17,0,0,1,13.14.44S258.21,37,258,40.22"/>
      <path class="ce" d="M260,36a8.27,8.27,0,0,1-1.4.37,12.3,12.3,0,0,1-1.4.18c-.25,0-.52.05-.78,0l-.8,0-.8,0c-.26,0-.53,0-.78-.05-.51,0-1-.1-1.39-.18s-.76-.15-1-.21l-.4-.12h0a0,0,0,0,1,0-.09s.54-.09,1.37-.17,1.92-.14,3-.15c2.2,0,4.39.29,4.39.29a0,0,0,0,1,0,.09Z"/>
      <path class="ca" d="M252.23,65.45c1.66,6.16-2.46,13.35-7.22,16.45,0,0,2-7.28-.82-9.3"/>
      <path class="ca" d="M258.25,49.16c1.77,4.59,1.12,12.39-1.94,17.26,0,0,.7-6.63-3-8.83"/>
      <path class="cb" d="M225.38,101.43a7.92,7.92,0,0,0,8.33-3.79s-6.61.36-8.47-4.13"/>
      <path class="cb" d="M228.56,108c4.9,3.37,4.55,13.31,2.47,18.6,0,0-.93-8.68-4.41-8.68"/>
      <path class="ca" d="M216.31,144.93c2,7.42,6.42,13,11.25,15.17,0,0-7.85,1.46-10.72-3"/>
    </g>
    <path class="bz" d="M61,275.48c54.67,6.58,108.69,6.75,162,0"/>
    <line class="bz" x1="30.51" y1="274.48" x2="43.51" y2="274.48"/>
    <line class="bz" x1="18.01" y1="274.48" x2="24.01" y2="274.48"/>
    <line class="bz" x1="253.51" y1="274.48" x2="240.51" y2="274.48"/>
    <line class="bz" x1="266.01" y1="274.48" x2="260.01" y2="274.48"/>
  </g>
</svg>
