<svg xmlns="http://www.w3.org/2000/svg" xmlns:xlink="http://www.w3.org/1999/xlink" width="144" height="136" viewBox="0 0 144 136">
  <defs>
    <style>
      .a, .ad, .ai, .ap, .bb, .bi, .cb, .cc, .e, .m, .t, .v, .y {
        fill: none;
      }

      .b {
        clip-path: url(#a);
      }

      .c {
        clip-path: url(#b);
      }

      .d {
        fill: #f9f5f2;
      }

      .e {
        stroke: #b29c8b;
      }

      .ad, .ai, .ap, .bi, .bs, .bt, .bu, .bv, .cb, .cc, .e, .m, .t, .v {
        stroke-linecap: round;
      }

      .ad, .ai, .ap, .bi, .bs, .bt, .bu, .bv, .e, .m, .v {
        stroke-linejoin: round;
      }

      .ay, .ba, .f {
        fill: #fff;
      }

      .g {
        clip-path: url(#c);
      }

      .h {
        clip-path: url(#d);
      }

      .i {
        fill: #f9f2ed;
      }

      .j {
        fill: #f2eae3;
      }

      .k {
        opacity: 0.5;
      }

      .l {
        fill: #d1c8c3;
      }

      .m {
        stroke: #846664;
      }

      .ba, .bf, .m, .p, .r {
        opacity: 0.1;
      }

      .n {
        fill: #dbd2cc;
      }

      .o {
        fill: #ede3dc;
      }

      .bl, .bm, .bn, .bo, .bs, .q {
        fill: #563934;
      }

      .r {
        fill: #846664;
      }

      .s {
        fill: #877870;
      }

      .t {
        stroke: #877870;
      }

      .aa, .bb, .be, .bh, .cb, .cc, .t, .y {
        stroke-miterlimit: 10;
      }

      .u {
        fill: #529962;
      }

      .v {
        stroke: #2f3f32;
      }

      .w {
        clip-path: url(#e);
      }

      .x {
        fill: #ccd3cb;
      }

      .ad, .y {
        stroke: #367a43;
      }

      .y {
        stroke-linecap: square;
        stroke-opacity: 0.2;
        stroke-width: 2px;
      }

      .aa, .ac, .ae, .z {
        fill: #367a43;
      }

      .aa {
        stroke: #286331;
      }

      .ab {
        clip-path: url(#f);
      }

      .ac, .ag, .ay, .bo {
        opacity: 0.2;
      }

      .ae, .bn {
        opacity: 0.4;
      }

      .af {
        clip-path: url(#g);
      }

      .ah {
        fill: url(#h);
      }

      .ai {
        stroke: #d1c8c3;
      }

      .aj {
        clip-path: url(#i);
      }

      .ak, .bt {
        fill: #492e2a;
      }

      .al, .bv {
        fill: #60413e;
      }

      .am {
        fill: #876c6b;
      }

      .an {
        clip-path: url(#j);
      }

      .ao, .bu {
        fill: #3d2623;
      }

      .ap, .bs, .bt, .bu, .bv {
        stroke: #2d1614;
      }

      .aq {
        fill: #704b49;
      }

      .ar {
        fill: #d6cac4;
      }

      .as {
        fill: #422926;
      }

      .at {
        fill: #604545;
      }

      .au {
        clip-path: url(#k);
      }

      .av {
        clip-path: url(#l);
      }

      .aw {
        fill: #56351e;
      }

      .ax {
        fill: #161313;
      }

      .az {
        fill: #0f0d0c;
      }

      .az, .bj {
        opacity: 0.3;
      }

      .bb {
        stroke: #161313;
      }

      .bc {
        clip-path: url(#m);
      }

      .bd {
        fill: #231f1d;
      }

      .be {
        fill: #302c2b;
        stroke: #3a3635;
      }

      .bf, .bg {
        fill: #595656;
      }

      .bh {
        fill: #141110;
        stroke: #3f3a38;
      }

      .bi {
        stroke: #141110;
      }

      .bk {
        fill: #726f6e;
      }

      .bl {
        opacity: 0.8;
      }

      .bm {
        opacity: 0.6;
      }

      .bp {
        clip-path: url(#n);
      }

      .bq {
        clip-path: url(#o);
      }

      .br {
        fill: #2d1614;
      }

      .bw {
        fill: #84605f;
      }

      .bx {
        fill: #9e3e3e;
      }

      .by {
        fill: #e29898;
      }

      .bz {
        fill: #c46565;
      }

      .ca {
        fill: #ede4e4;
      }

      .cb {
        stroke: #f4b5b5;
      }

      .cc {
        stroke: #c46565;
      }
    </style>
    <clipPath id="a">
      <polygon class="a" points="128 -43 126.8 -43 126.6 -41 124.1 -40 121.13 -41 120.52 -43 118.4 -44 31.91 -44 29.22 -43 25.58 -43 23.63 -42 21.3 -43 18 -43 18 -161.85 128 -161.85 128 -43"/>
    </clipPath>
    <clipPath id="b">
      <path class="a" d="M117.94-34.57c0,11-4.6,20.39-7.85,21.89-0.48,5.42-5.24,11.63-10.45,11.63,0,2.7-5.84,9.74-13,9.74,0,2.29-4.53,6.14-11.06,6.14S64.51,11,64.51,8.68c-7.16,0-13-7-13-9.74-5.16,0-9.87-6.14-10.43-11.47C37.91-14,32.66-23.43,32.66-34.57c0-8.5,3-16.6,5.86-19.8-0.59-5.48-2.21-10.23-3.67-14.92-3.62-11.62-4.32-18.24-4.32-23.15a16,16,0,0,0,1.83,3.14A9.33,9.33,0,0,0,34.68-87c-1.63-7.13-3-14-2.2-19l0.94,0.62,2.1,1.37c-3.46-8-3.1-20.75,2.93-26.44l0.46,1.14c0.27,0.65.61,1.46,0.9,2.1,1.74-6.6,8.1-14.55,15.89-18.91L55-139c5.24-4.53,8.84-11.63,7.6-20.9,7.26,1.3,9.87,6.93,11,9.44,0.52-3.31,3.95-8.49,8.27-10.17-0.09,1.1-.13,2.21-0.13,3.29a55.79,55.79,0,0,0,1.25,11.22c0.58-3.71,4.51-10.71,10.15-13.28,0,0-1.91,10.75-.08,14.64,0,0,7.35-2.42,12.1,1.92,4.22,3.85,2.11,13.76,2.11,13.76a14.94,14.94,0,0,0,4.18-7.42c2.83,5.44,4,13.4,1.57,21.73h0a17.64,17.64,0,0,0,5.75-5.85,40.19,40.19,0,0,1-4.5,19.33,8.21,8.21,0,0,0,3.78-2.2c0,5.37-2.12,12.14-4.09,17.14a14.09,14.09,0,0,0,4-4c0,4.85-3.14,12.73-6.17,16.72a8.59,8.59,0,0,0,5.23-2.61c0.14,7-4.73,12.69-6.33,20.91C114.27-52.48,117.94-43.21,117.94-34.57Z"/>
    </clipPath>
    <clipPath id="c">
      <rect class="a" x="8" width="130" height="126"/>
    </clipPath>
    <clipPath id="d">
      <path class="a" d="M128.58,31.31c-2.05,2.12-4.9,3.44-6.88,2.12-1.19-.79-3.11-1.4-4.24-0.53C113.35,36.08,119,43.48,119,52c0,4-6.35,9.26-6.35,13.76,0,7.06,3,18.2,3,25.94,0,0.14,0,.29,0,0.43a18.29,18.29,0,0,1,1.5,8.08,11.88,11.88,0,0,0,5.06,3.23,8.26,8.26,0,0,1-5.21,3.93,14.23,14.23,0,0,1-1.93,3.26c2.84,4.37,5,10.68,5,19.74-0.05,13.47-3.66,23-7.42,24.56-0.3,10.35-9.38,18.76-14.86,18.76,0,6.94-9.06,9.41-11.11,10,0,2.83-6.58,6.5-13.16,6.55s-13.16-3.53-13.16-6.71c-4.39,0-11.4-4.6-11.4-9.76-7.94,0-15.46-8.58-16-19.36-5.08-1.39-8.29-13.39-8.29-24s3.2-17.34,6.91-21.72c-0.28-.43-0.53-0.89-0.77-1.36a8.32,8.32,0,0,1-5.56-4,11.79,11.79,0,0,0,5.08-3.26,18.63,18.63,0,0,1,1.39-7.86C30.49,83.45,29,74.12,29,71c0-2.65,3.18-8.61,3.18-11.66,0-4.63-4-11.86-5.16-16-0.46-1.67-5.29-3.43-6.18-7C20.2,33.52,19,27.37,19,27.37c-3.26,1-6.92,1.73-8.48,1-1-.49-1.59-1.81-0.68-4.63,0.75-2.33,3-15.83,3-15.83A6.39,6.39,0,0,1,20.41,3,134.77,134.77,0,0,0,34.77,4.39c7.27,0,13-1.06,15.42.61,2.2,1.51,3.32,6.93,5.86,7.78,3.71,1.23,30.71.7,36-1.06,4-1.32,5.56-10.59,10.59-10.59,5.33,0,13.9,9,19.06,9,3.05,0,10.44-.93,12.18,1.59C136.92,16.13,132.31,27.45,128.58,31.31Z"/>
    </clipPath>
    <clipPath id="e">
      <path class="a" d="M89.78,107.32A64,64,0,0,1,74,109.1V120a58.87,58.87,0,0,0,15.89-1.85ZM75.64,118.77V110a51.79,51.79,0,0,0,12.69-1.44l0.14,8.74A47.73,47.73,0,0,1,75.64,118.77Z"/>
    </clipPath>
    <clipPath id="f">
      <path class="a" d="M90.3,112.32a25.68,25.68,0,0,1-7.4.49l0.1,1.58a26.7,26.7,0,0,0,7.4-.49Z"/>
    </clipPath>
    <clipPath id="g">
      <path class="a" d="M99.53,66.36c-0.77,0-1.34,0-1.34,0-4.46.42-7.12,10.7-8.19,16.4C88.41,91.27,82.64,95,73.59,95,63.12,95,58.77,91.27,57.18,82.8c-1-5.57-3.6-15.5-7.88-16.35L34.51,96.93c0,0.1-2.85,2.86-5.6,5.55,2,6.29,5.55,12,11.94,12,0-2.67.88-6,3.87-6,0,0,0,2.18,2,2.18a2.34,2.34,0,0,1,1.75-2.16,3,3,0,0,0,2.42,1.63c0-1.23,1.86-1.15,1.86-1.15s1.26,4.45,4.69,4.45c0-3.46,3.57-3.08,3.57-3.08s1,3.2,2.57,3.2c0-1.94,2.58-2,2.58-2a4.59,4.59,0,0,0,4.24,2.78A2.58,2.58,0,0,1,72.69,112c0,1.73,2.37,2.16,2.37,2.16s0.8,1.9,4,1.9c0-3.46,4.35-4.41,4.35-4.41a6,6,0,0,0,5.22,3c0-1.66,1.74-2.63,3.85-2.63,0-1.92,3.12-2.24,3.12-2.24s1.46,3.08,4.58,3.08c0,0-.07-4.4,3.53-4.4a5.49,5.49,0,0,1,2.86,6.06c8.64,0,11.15-7.75,11.88-12.2,0.29-1.79-3-2.4-3-2.4l-16-33.53v0Z"/>
    </clipPath>
    <linearGradient id="h" x1="73.52" y1="97.48" x2="73.52" y2="66.25" gradientUnits="userSpaceOnUse">
      <stop offset="0" stop-color="#846664" stop-opacity="0.02"/>
      <stop offset="1" stop-color="#846664" stop-opacity="0.1"/>
    </linearGradient>
    <clipPath id="i">
      <path class="a" d="M27.46,98c10.88,0,15.07-6.08,19.46-13.36,0.76-1.26.46-3.08,1.27-4.38s2.53-1.8,3.35-3a38.47,38.47,0,0,1,7.15-7.89C72.28,58.31,75.28,37.13,63.46-1.52L18.46-2-2.1,14.11Z"/>
    </clipPath>
    <clipPath id="j">
      <path class="a" d="M85.17,12.25c-1.85,5.29.53,8.47,9.53,19.06,0,0,12.74,16.59,4.54,26.17a4.24,4.24,0,0,0-1,3.46s2.44,14.82,3.88,19.6,4.58,14.69,7.8,15.23c4.28,0.72,9.36,6.41,12.39,7.64l17.4-97.52L100.52-7.87Z"/>
    </clipPath>
    <clipPath id="k">
      <ellipse class="a" cx="55.93" cy="46.66" rx="7.41" ry="6.35"/>
    </clipPath>
    <clipPath id="l">
      <path class="a" d="M65.66,46.66a7.1,7.1,0,0,1-7.41,7.17,7.17,7.17,0,1,1,0-14.33A7.1,7.1,0,0,1,65.66,46.66Z"/>
    </clipPath>
    <clipPath id="m">
      <path class="a" d="M73.52,67.84c-6.88,0-9,2.79-9,5.34s1.4,9.48,8.77,9.48h0.46c7.5,0,8.77-6.93,8.77-9.48S80.39,67.84,73.52,67.84Z"/>
    </clipPath>
    <clipPath id="n">
      <ellipse class="a" cx="88.81" cy="46.66" rx="7.41" ry="6.35"/>
    </clipPath>
    <clipPath id="o">
      <path class="a" d="M79.08,46.66a7.42,7.42,0,1,0,7.41-7.17A7.1,7.1,0,0,0,79.08,46.66Z"/>
    </clipPath>
  </defs>
  <title>iamsteve-mascots-final</title>
  <g class="b">
    <g class="c">
      <path class="d" d="M41-13.6C41-7.66,46-1.05,51.51-1.05c0,2.7,5.84,9.74,13,9.74,0,2.28,4.53,6.14,11.07,6.14S86.64,11,86.64,8.68c7.16,0,13-7,13-9.74,5.5,0,10.49-6.6,10.49-12.55H41Z"/>
    </g>
    <path class="e" d="M110.6-55.28c3.67,2.79,7.34,12.06,7.34,20.7,0,11-4.6,20.39-7.85,21.89-0.48,5.42-5.24,11.63-10.45,11.63,0,2.7-5.84,9.74-13,9.74,0,2.29-4.53,6.14-11.06,6.14S64.51,11,64.51,8.68c-7.16,0-13-7-13-9.74-5.16,0-9.87-6.14-10.43-11.47C37.91-14,32.66-23.43,32.66-34.57c0-8.5,3-16.6,5.86-19.8"/>
  </g>
  <g>
    <path class="f" d="M24.4,126h95.2A72,72,0,1,0,24.4,126Z"/>
    <g class="g">
      <g class="h">
        <path class="i" d="M56,12.78c3.71,1.24,30.71.71,36-1.06,4-1.32,20.65,49.5,20.65,54,0,7.06,3,18.2,3,25.94,0,8.27-4.37,16.74-4.37,22.24,0,7.35-77.56,9.46-77.56-5.23C33.81,103,29,76.63,29,71c0-2.65,3.18-8.61,3.18-11.66C32.22,54.75,53.51,11.93,56,12.78Z"/>
        <path class="i" d="M49,173.72c0,5.16,7,9.77,11.4,9.77,0,3.18,6.58,6.76,13.16,6.71s13.16-3.71,13.16-6.55c2-.58,11.11-3,11.11-10,5.57,0,14.86-8.68,14.86-19.28,0-9.65-2.38-21.74-6.13-25.16H42.31S33,132.38,33,153.09C33,164.45,40.78,173.72,49,173.72Z"/>
        <path class="i" d="M43,101.19s-18.27,4.06-18.27,29.2c0,11.26,3.63,24.11,9.28,24.11,0-9.14,4.83-11.39,4.83-11.39S38,156,46.87,162.54c0-4.51,4-8.35,7.21-8.35,0,10.36,4.26,16.75,7.58,16.75a9.61,9.61,0,0,1,6.24-9.28S70.43,174,75.57,174c0-15.44,6.31-19,6.31-19s2.85,11.37,9.62,11.37c0-3.92-.3-11.18-0.3-11.18s7.63-.2,7.63,8.55c9.79-5.11,6.84-17.84,6.84-17.84s5.95,0.45,5.95,9.29c4.11,0,8.47-10,8.52-24.8,0.1-25.31-17.19-29.15-17.19-29.15H43Z"/>
        <path class="j" d="M25.32,126s1.35,1.76,2.37,1.76c0.69-4.67,6.11-5.46,6.11-5.46s-1.26,9.84,4.12,13.73c1.26-4,5.49-4.12,5.49-4.12s0.53,15.11,9.16,17.85a7.51,7.51,0,0,1,5.49-6.87,10.54,10.54,0,0,0,7.78,6.87,9.82,9.82,0,0,1,7.78-8.7s1.37,7.32,7.23,8.7c0.47-7.28,3.76-9.16,3.76-9.16s1.68,5.49,7.32,5.49a19.42,19.42,0,0,1,3.2-8.7,5.93,5.93,0,0,0,5,2.29c0-5,5.49-6.41,5.49-6.41s0.46,6.87,6,6.87c0-7.78,1.83-11.9,1.83-11.9s3.49-.07,3.84,3.2a16.31,16.31,0,0,0,2-4.39s-2.85-17.6-11.71-21.34l-71.43-1.93C30.69,109.43,25.32,126,25.32,126Z"/>
        <path class="j" d="M43.07,101.48l-0.59.47c-0.38.29-.91,0.8-1.56,1.37s-1.37,1.36-2.17,2.19a34.68,34.68,0,0,0-2.35,3,30.65,30.65,0,0,0-4,7.85,20.14,20.14,0,0,0-.7,2.3l-0.33,1.18c-0.1.4-.16,0.82-0.25,1.24l-0.25,1.24a9.44,9.44,0,0,0-.21,1.27l-0.33,2.59c-0.11.87-.12,1.78-0.19,2.66,0,0.44-.06.89-0.11,1.33s0,1-.06,1.39l0,2.64,0,2.64a87.42,87.42,0,0,0,.62,9.49,32.23,32.23,0,0,0,.67,3.65,11.88,11.88,0,0,0,1,2.54,4.08,4.08,0,0,0,1.16,1.32,4,4,0,0,0,.6.36l0.13,0.06a0.28,0.28,0,0,1-.13.54h-0.2a3.1,3.1,0,0,1-.58-0.06,4.62,4.62,0,0,1-2-.89,13.92,13.92,0,0,1-4.12-6.2,45.06,45.06,0,0,1-2.46-10.14,57.23,57.23,0,0,1-.48-5.87c0-1,0-2,0-3s0.05-2,.15-3.06l0.46-3,0.12-.75,0.19-.74,0.38-1.47c0.13-.49.24-1,0.39-1.46l0.53-1.4A18.64,18.64,0,0,1,27.6,114a26.31,26.31,0,0,1,2.92-4.71,25.77,25.77,0,0,1,3.42-3.61,23.55,23.55,0,0,1,6.3-3.9c0.83-.34,1.5-0.57,2-0.71s0.72-.19.72-0.19a0.29,0.29,0,0,1,.24.51Z"/>
        <path class="j" d="M111.59,154.84l0.18-.11a1.25,1.25,0,0,0,.39-0.32,4.66,4.66,0,0,0,.87-1.51,16,16,0,0,0,.67-2.69c0.15-1.09.32-2.31,0.43-3.68s0.21-2.84.28-4.42c0-.78.08-1.59,0.1-2.42s0.08-1.67.08-2.54,0.07-1.74.07-2.63,0.06-1.79.07-2.71c0-.46,0-0.92,0-1.38v-1.37c0-1.07,0-1.8,0-2.66-0.11-1.75-.23-3.52-0.48-5.2a40.43,40.43,0,0,0-1-4.86,29.66,29.66,0,0,0-1.6-4.35,26,26,0,0,0-2.08-3.71,20.92,20.92,0,0,0-2.31-3,22.89,22.89,0,0,0-2.16-2.14c-0.65-.57-1.19-1-1.57-1.29l-0.59-.43-0.1-.07a0.29,0.29,0,0,1,.23-0.51s0.26,0.05.72,0.2a17.71,17.71,0,0,1,1.94.73,22.52,22.52,0,0,1,6.14,4.05,25.68,25.68,0,0,1,5.92,8.52,33.93,33.93,0,0,1,1.85,5.57,44.66,44.66,0,0,1,.95,6,59.13,59.13,0,0,1,.17,6c-0.07,2-.21,3.94-0.44,5.82A47,47,0,0,1,118,147.9a21.43,21.43,0,0,1-1.72,3.8,10.78,10.78,0,0,1-2,2.57,4.48,4.48,0,0,1-1.89,1.08,3.33,3.33,0,0,1-.77.1,0.27,0.27,0,0,1-.42-0.35l0.07-.06Z"/>
        <g class="k">
          <path class="l" d="M28.28,99.87l0.24,0.86c0.15,0.55.38,1.33,0.7,2.25a30.28,30.28,0,0,0,1.24,3.09c0.25,0.55.55,1.11,0.85,1.67a19.05,19.05,0,0,0,1,1.62,14.55,14.55,0,0,0,1.17,1.52l0.65,0.68c0.22,0.22.46,0.41,0.69,0.61a5,5,0,0,0,.71.53,7.6,7.6,0,0,0,.71.46,8.7,8.7,0,0,0,1.41.64L38.35,114,39,114.16a4.9,4.9,0,0,0,1,.15l0.89,0.07a0.1,0.1,0,0,1,0,.19h0a9.65,9.65,0,0,1-.93.28,4.16,4.16,0,0,1-1.12.15l-0.71,0c-0.25,0-.51-0.06-0.78-0.1a7,7,0,0,1-1.75-.46,8.37,8.37,0,0,1-1.79-.94,10.14,10.14,0,0,1-1.66-1.36,16.59,16.59,0,0,1-1.39-1.67,19.77,19.77,0,0,1-1.08-1.83,14.28,14.28,0,0,1-.77-1.87,12.13,12.13,0,0,1-.51-1.8,11.39,11.39,0,0,1-.28-1.64A10.9,10.9,0,0,1,28,102a8.08,8.08,0,0,1,0-1.08c0-.6.1-1,0.1-1v0A0.1,0.1,0,0,1,28.28,99.87Z"/>
        </g>
        <g class="k">
          <path class="l" d="M106.62,114.42l0.94,0c0.3,0,.65-0.08,1.05-0.13a11.62,11.62,0,0,0,1.34-.31,10.54,10.54,0,0,0,1.52-.58,10.29,10.29,0,0,0,1.55-.94,9.9,9.9,0,0,0,1.43-1.3,12,12,0,0,0,1.22-1.58,18.84,18.84,0,0,0,2.65-6.88,21.36,21.36,0,0,0,.39-3.36,0.1,0.1,0,0,1,.19,0v0a7.46,7.46,0,0,1,.29,1,12.09,12.09,0,0,1,.31,2.6,11.54,11.54,0,0,1-.08,1.76,12.21,12.21,0,0,1-.34,2,12.7,12.7,0,0,1-.68,2,16.52,16.52,0,0,1-1.06,2,13.62,13.62,0,0,1-1.49,1.79l-0.41.41-0.46.36a10.83,10.83,0,0,1-.93.64,8.52,8.52,0,0,1-1.93.89,7.94,7.94,0,0,1-1.83.37,7.78,7.78,0,0,1-1.55,0,7.47,7.47,0,0,1-1.16-.19c-0.6-.17-0.95-0.3-0.95-0.3h0A0.1,0.1,0,0,1,106.62,114.42Z"/>
        </g>
        <line class="m" x1="73.52" y1="88.39" x2="73.52" y2="83.07"/>
        <path class="n" d="M108.28,114.74s-0.28,0-.78.16-1.2.32-2.14,0.65c-0.47.15-1,.34-1.51,0.57s-1.14.43-1.74,0.72c-1.24.52-2.6,1.22-4.11,2-0.74.4-1.53,0.79-2.33,1.25a2.94,2.94,0,0,0-1.18.83,10.44,10.44,0,0,0-.82,2.11,2.11,2.11,0,0,1-1.14,1.43c-0.47.22-1,.42-1.46,0.64-1,.45-2,0.8-3.11,1.19A31.71,31.71,0,0,1,81,127.71a37,37,0,0,1-7.51-.23H73.21l-0.1,0-0.2-.13a2.05,2.05,0,0,1-.39-0.46c-0.26-.38-0.51-0.92-0.76-1.38a2.26,2.26,0,0,0-.83-1,3.05,3.05,0,0,0-.91-0.19c-1.25-.15-2.33-0.39-3.47-0.61s-2.22-.5-3.29-0.8-2.12-.56-3.15-0.84c-2-.6-4-1.27-5.8-1.86l-5.08-1.79c-1.56-.57-3-1.1-4.25-1.53s-2.36-.84-3.27-1.15-1.63-.53-2.12-0.69l-0.76-.24,3.73-8.19,2.65,1.19c1.69,0.75,4.1,1.79,7,2.91a87.38,87.38,0,0,0,10,3.22c1.83,0.44,3.72.85,5.64,1.12a46.45,46.45,0,0,0,5.78.45,46.52,46.52,0,0,0,5.78-.37A56.26,56.26,0,0,0,85,114.05a77.28,77.28,0,0,0,9.89-3.2c2.86-1.13,5.26-2.21,6.89-3l2.64-1.26Z"/>
        <path class="o" d="M76.69,12.25c2.43,7.92,9.05,14.55,19.06,20.12L91.52,8.54Z"/>
        <path class="j" d="M56.58,68.89L61.87,89a6.29,6.29,0,0,1-3.71-3.18L54.63,73.13A5.14,5.14,0,0,1,56.58,68.89Z"/>
        <path class="j" d="M88.87,86.36l-2.65,2.12S88.08,74,93.29,64.81c1.44-2.53,4.37-5.6,5.94-7.33,1.35-1.72.22,8.77,0.22,8.77C92.31,65,90.52,82.74,88.87,86.36Z"/>
        <path class="j" d="M89.93,82.66c-1,5.28-4.7,7.42-8.87,7.55a15.45,15.45,0,0,1-4.9-.69,17.66,17.66,0,0,1-2.2-.83,1.07,1.07,0,0,0-.89,0,17.66,17.66,0,0,1-2.27.85,15.44,15.44,0,0,1-4.8.67c-4.18-.12-7.91-2.26-8.9-7.55l0.53,7.41s4.33,6,5.82,6.21a30.53,30.53,0,0,0,5.82,0c1.08-.13,3.14-1,4.24-1.06,1.61-.06,4.74,1,6.35,1.06s4.5,0.09,5.82-.53c1.53-.71,4.23-7.79,4.76-9.39C90.76,85.48,89.93,82.66,89.93,82.66Z"/>
        <g class="p">
          <path class="q" d="M91.75,130.94l0,0.45c0,0.08,0,.13,0,0.26l-0.07.43a5.27,5.27,0,0,1-.25,1,6.74,6.74,0,0,1-1.24,2.21,7.84,7.84,0,0,1-2.49,1.95,9.64,9.64,0,0,1-3.42,1c-0.32,0-.59,0-1,0a9,9,0,0,1-.9-0.06,9.36,9.36,0,0,1-2-.43,8.16,8.16,0,0,1-3.67-2.4A6.87,6.87,0,0,1,75,130.84l0-.57a4.32,4.32,0,0,1,.08-0.6,6.53,6.53,0,0,1,.32-1.23,7.29,7.29,0,0,1,1.21-2.06,8.16,8.16,0,0,1,3.67-2.4,9.75,9.75,0,0,1,3.83-.46,9.61,9.61,0,0,1,3.47,1,7.84,7.84,0,0,1,2.49,1.95,6.74,6.74,0,0,1,1.24,2.21,6.33,6.33,0,0,1,.34,1.62l0,0.59v0.1Zm-4-.1v-0.31a6.48,6.48,0,0,0-.09-0.87,6.3,6.3,0,0,0-.37-1.36,4.89,4.89,0,0,0-1.08-1.66,4.18,4.18,0,0,0-2.15-1.1,4.09,4.09,0,0,0-2.76.55,4.62,4.62,0,0,0-1.77,2.18,7.2,7.2,0,0,0-.36,1.28c0,0.22-.07.44-0.07,0.59a2.62,2.62,0,0,0,0,.33v0.37a7.13,7.13,0,0,0,.48,2.57,4.62,4.62,0,0,0,1.77,2.18,4.07,4.07,0,0,0,2.06.6c0.16,0,.44,0,0.65,0a4.11,4.11,0,0,0,2.2-1.1,4.89,4.89,0,0,0,1.08-1.66,6.3,6.3,0,0,0,.37-1.36,3.55,3.55,0,0,0,.06-0.45l0-.15s0-.16,0-0.22l0-.45v0.1Z"/>
        </g>
        <path class="r" d="M80.15,71H66.89a2.52,2.52,0,0,0-2.37,2.65v8.47c0,8.32,4,10.06,9,10.06h0c5,0,9-1.79,9-10.06V73.66A2.52,2.52,0,0,0,80.15,71Z"/>
        <path class="s" d="M70.81,89.54a10.2,10.2,0,0,0,5.28,0l-2.57-.79Z"/>
        <path class="l" d="M70.94,90s-0.25.09-.74,0.23a15.89,15.89,0,0,1-2,.42c-0.43.05-.89,0.09-1.38,0.11a14.08,14.08,0,0,1-1.54,0,12.35,12.35,0,0,1-1.66-.28A10.9,10.9,0,0,1,62,89.9,7.79,7.79,0,0,1,60.45,89a5.79,5.79,0,0,1-.66-0.54,5.33,5.33,0,0,1-.58-0.59,5.18,5.18,0,0,1-.5-0.62,4.06,4.06,0,0,1-.42-0.64,9.93,9.93,0,0,1-.6-1.25,8.68,8.68,0,0,1-.34-1.1c-0.07-.34-0.14-0.62-0.17-0.87l-0.09-.76,0.25,0.72c0.07,0.23.2,0.49,0.32,0.8s0.31,0.63.48,1a9.33,9.33,0,0,0,.71,1.08,5.52,5.52,0,0,0,.44.54,4.51,4.51,0,0,0,.5.52,4.59,4.59,0,0,0,.56.48,5,5,0,0,0,.62.43,8.75,8.75,0,0,0,1.37.71,9.83,9.83,0,0,0,1.48.45,13.72,13.72,0,0,0,1.48.21,12.92,12.92,0,0,0,1.44,0c0.45,0,.88,0,1.28-0.09a16.59,16.59,0,0,0,1.9-.31l0.72-.17A0.5,0.5,0,0,1,71,90h0Z"/>
        <path class="l" d="M89.93,82.66l-0.09.76c0,0.24-.1.53-0.17,0.87a8.91,8.91,0,0,1-.34,1.11,10.22,10.22,0,0,1-.6,1.25,4.26,4.26,0,0,1-.42.64,5.11,5.11,0,0,1-.51.62A7.57,7.57,0,0,1,86.56,89a8.07,8.07,0,0,1-1.52.87,10.53,10.53,0,0,1-1.65.56,11.73,11.73,0,0,1-1.66.28,14,14,0,0,1-2.95-.08A13.83,13.83,0,0,1,76,90h0a0.5,0.5,0,0,1,.3-1L77,89.21a16.55,16.55,0,0,0,1.91.32,12.86,12.86,0,0,0,2.71.06,12.66,12.66,0,0,0,1.5-.2,9.45,9.45,0,0,0,1.49-.45A9.18,9.18,0,0,0,86,88.24a6.68,6.68,0,0,0,1.19-.91,7.21,7.21,0,0,0,.94-1.06,9.57,9.57,0,0,0,.72-1.08c0.17-.36.36-0.69,0.48-1s0.26-.57.32-0.8Z"/>
        <path class="t" d="M76.16,89.52a17.66,17.66,0,0,1-2.2-.83,1.07,1.07,0,0,0-.89,0,17.66,17.66,0,0,1-2.27.85"/>
        <path class="u" d="M106.08,110.68C95.49,116,84.28,120.07,73.25,120c-10.86-.08-21.71-4.29-32.82-9.3v-9.76c22.76,10.7,44.47,11,65.65.45v9.3Z"/>
        <line class="v" x1="83.31" y1="119.72" x2="83.31" y2="121.48"/>
        <g class="w">
          <path class="x" d="M89.83,107.32a63.13,63.13,0,0,1-15.68,1.79V120A59.27,59.27,0,0,0,90,118.13ZM75.66,118.77V110a51,51,0,0,0,12.68-1.44l0.15,8.74A47.93,47.93,0,0,1,75.66,118.77Z"/>
          <path class="y" d="M74,120a58.87,58.87,0,0,0,15.89-1.85"/>
        </g>
        <path class="z" d="M89.79,107.32L90,118.13A59.09,59.09,0,0,1,75.22,120h-1.1V109.1a63.13,63.13,0,0,0,15.68-1.79M76.52,118.78a47.78,47.78,0,0,0,11.93-1.51l-0.15-8.74A51,51,0,0,1,75.63,110v8.8h0.89m13.27-12.47a1,1,0,0,0-.25,0,62.12,62.12,0,0,1-15.43,1.75,1,1,0,0,0-1,1V120a1,1,0,0,0,1,1h1.13a60.21,60.21,0,0,0,15-1.9,1,1,0,0,0,.73-1L90.79,107.3a1,1,0,0,0-1-1h0ZM76.63,111a52.45,52.45,0,0,0,10.7-1.17l0.11,6.71a47.69,47.69,0,0,1-10.81,1.28V111h0Z"/>
        <rect class="aa" x="81.72" y="112.04" width="3.18" height="3.18" rx="1.37" ry="1.37"/>
        <g class="ab">
          <path class="x" d="M90.3,112.32a25.68,25.68,0,0,1-7.4.49l0.1,1.58a26.7,26.7,0,0,0,7.4-.49Z"/>
          <polygon class="ac" points="90.78 114.26 88.95 114.41 88.88 112.2 90.44 112.04 90.78 114.26"/>
          <polygon class="ac" points="85.36 114.74 83.08 114.9 83.01 112.68 85.36 112.53 85.36 114.74"/>
        </g>
        <path class="ad" d="M90.3,112.32a25.68,25.68,0,0,1-7.4.49l0.1,1.58a26.7,26.7,0,0,0,7.4-.49Z"/>
        <path class="z" d="M102.43,106.43a20.71,20.71,0,0,1,2.77,4.8l1.78-.84Z"/>
        <path class="z" d="M42.06,111.3s1.32-3.24,4.35-3.5l-2.33-1.36-4.66,3Z"/>
        <path class="ae" d="M109.87,105.29s-13.59,10.45-36.35,10.45a68.22,68.22,0,0,1-36.35-10.45L74,106.23Z"/>
        <g class="af">
          <path class="j" d="M99.53,66.36c-0.77,0-1.34,0-1.34,0-4.46.42-7.12,10.7-8.19,16.4C88.41,91.27,82.64,95,73.59,95,63.12,95,58.77,91.27,57.18,82.8c-1-5.57-3.6-15.5-7.88-16.35L26.37,86.14c0.05,0.18.29,28.34,14.49,28.34,0-2.67.88-6,3.87-6,0,0,0,2.18,2,2.18a2.34,2.34,0,0,1,1.75-2.16,3,3,0,0,0,2.42,1.63c0-1.23,1.86-1.15,1.86-1.15s1.26,4.45,4.69,4.45c0-3.46,3.57-3.08,3.57-3.08s1,3.2,2.57,3.2c0-1.94,2.58-2,2.58-2a4.59,4.59,0,0,0,4.24,2.78A2.58,2.58,0,0,1,72.69,112c0,1.73,2.37,2.16,2.37,2.16s0.8,1.9,4,1.9c0-3.46,4.35-4.41,4.35-4.41a6,6,0,0,0,5.22,3c0-1.66,1.74-2.63,3.85-2.63,0-1.92,3.12-2.24,3.12-2.24s1.46,3.08,4.58,3.08c0,0-.07-4.4,3.53-4.4a5.49,5.49,0,0,1,2.86,6.06c12.16,0,12.18-15.23,12.18-15.23L99.53,66.39v0Z"/>
          <g class="ag">
            <polygon class="l" points="57.82 100.42 62.49 100.06 65.03 104.86 68.66 107.06 73.44 107.99 77.04 104.91 79.82 101.55 83.61 100.44 87.07 98.61 91.16 98.33 92.21 94.55 94.29 91.47 92.97 86.93 97.05 83.2 95.34 78.6 98.6 74.75 95.44 69.94 97.35 65.88 99.73 61.89 101.11 56.19 95 58.13 91.34 54.64 87.05 55.28 83.21 52.97 78.66 55.24 74.71 53.65 70.59 54.25 66.25 52.63 62.34 55.66 58.21 57.09 53.95 57.43 48.74 55.13 48.58 59.81 48.98 63.81 50.05 67.77 51.76 71.69 48.8 75.93 50.69 79.83 50.55 83.88 51.7 87.84 52.35 91.83 53.79 94.87 53.43 99.8 57.82 100.42"/>
            <path class="l" d="M57.82,100.92c1.35-.11,3.11-0.58,4.44-0.35,0.47,0.08-.41-0.41-0.11-0.08a4,4,0,0,1,.43.82L64,103.93a8.15,8.15,0,0,0,5.39,3.78c1.08,0.23,3,1,4.14.78s2.31-1.87,3.1-2.55a21.2,21.2,0,0,0,2.47-2.7c1.2-1.45,1.69-1.43,3.68-2a37.14,37.14,0,0,0,4-1.88,17.08,17.08,0,0,1,4.38-.49,0.52,0.52,0,0,0,.48-0.37A19.11,19.11,0,0,1,93,94.32c0.65-1.18,1.79-2,1.71-3.33a14.54,14.54,0,0,0-.81-2.81A5.05,5.05,0,0,1,93.52,87c0-.49-0.37.57,0.05,0a35.15,35.15,0,0,1,3.84-3.5,0.49,0.49,0,0,0,.13-0.49l-0.94-2.53a9.29,9.29,0,0,0-.47-1.26c-0.2-.35-0.15-1.11-0.39-0.36,0.41-1.27,2.36-2.79,3.22-3.81A0.51,0.51,0,0,0,99,74.5c-1-1.45-2.43-3-3.05-4.65-0.05-.14-0.25.57,0.12-0.14,0.26-.5.49-1,0.73-1.55,0.33-.69.63-1.41,1-2.09a37.5,37.5,0,0,0,2.45-4.25,47.48,47.48,0,0,0,1.33-5.5,0.5,0.5,0,0,0-.62-0.62l-2.6.82c-1,.3-2.4,1.1-3.4,1.08,0.5,0,.23.16-0.19-0.38A12.11,12.11,0,0,0,93.52,56c-0.51-.48-1.29-1.65-2-1.85a5.47,5.47,0,0,0-2,.23,16.54,16.54,0,0,1-2.1.31c-0.77,0,.15.23-0.57-0.15-1.42-.73-2.73-2.35-4.31-1.83a20.48,20.48,0,0,0-3.42,1.71c-0.83.47-.75,0.14-2.08-0.4a9.49,9.49,0,0,0-2.47-.89,20.69,20.69,0,0,0-3.37.49A4.12,4.12,0,0,1,69,53.13c-0.72-.27-2-1.12-2.83-1-1.4.23-3.33,2.7-4.21,3.12-2.36,1.12-4.55,1.28-7.07,1.6-1.64.21-4-1.33-5.92-2.16a0.51,0.51,0,0,0-.75.43A35.51,35.51,0,0,0,49,65.93a36.28,36.28,0,0,0,2.07,5.48c0.33,0.74.26-.06,0,0.31s-0.58.84-.87,1.25l-1.89,2.71a0.5,0.5,0,0,0,0,.5c0.5,1,1,2.07,1.52,3.13a5.38,5.38,0,0,1,.23,2.78c-0.08,2.16.61,3.75,1.09,5.85,0.45,1.92.49,3.67,1.33,5.46,0.64,1.35.75,1.4,0.65,2.75L52.93,99.8a0.5,0.5,0,0,0,.37.48l4.4,0.62c0.63,0.09.9-.87,0.27-1l-2.67-.38c-0.49-.07-1-0.17-1.49-0.21-0.08,0-.06.61,0.16-0.06a10.29,10.29,0,0,0,.13-4.93c-0.28-.94-1-1.76-1.28-2.7A22.11,22.11,0,0,1,52.39,89c-0.28-1.74-1.08-3.4-1.32-5.12-0.19-1.41.37-3,0-4.35A13.23,13.23,0,0,0,50,77.21a7.36,7.36,0,0,1-.64-1.32,0.87,0.87,0,1,0,.26-0.24c0.78-.86,2.66-3,2.62-4.16-0.06-1.44-1.46-3.13-1.88-4.57a35.58,35.58,0,0,1-1.09-11.8l-0.75.43a33.64,33.64,0,0,0,5.09,2.26,12.43,12.43,0,0,0,4.63-.23,16.9,16.9,0,0,0,4.43-1.53,16.4,16.4,0,0,0,2-1.55c0.42-.33.87-0.64,1.27-1a3.19,3.19,0,0,1,.5-0.38c0.48-.22-0.61-0.05-0.06.07,1.65,0.36,3.08,1.5,4.77,1.47,1.05,0,2.1-.43,3.15-0.45a7.71,7.71,0,0,1,2.5.8c2,0.8,2.07.68,4-.27a10.15,10.15,0,0,1,2.65-1.32c-0.76.07,0,.16,0.31,0.43a17.15,17.15,0,0,0,2,1.18c1.64,1,3,.66,4.95.21a3.19,3.19,0,0,1,.61-0.09c0.56,0-.53-0.3-0.09,0a8.3,8.3,0,0,1,1,1l2.5,2.39a0.5,0.5,0,0,0,.49.13l6.11-1.93-0.62-.62c-0.49,2-.75,4.39-1.7,6.21-1.18,2.24-2.46,4.31-3.54,6.61-0.87,1.86.91,3.28,2,4.87A7.51,7.51,0,0,1,98.14,75c-0.25-.65.31-0.57-0.19-0.21a4.15,4.15,0,0,0-.59.7L95,78.25a0.5,0.5,0,0,0-.13.49l0.94,2.53c0.2,0.52.35,1.09,0.59,1.59s0.1,0.27.21,0.08c-0.8,1.35-2.81,2.57-4,3.64a0.5,0.5,0,0,0-.13.49l0.59,2c0.14,0.48.73,2.23,0.72,2.3-0.11.62-1.73,2.22-2.16,3.29a10.23,10.23,0,0,0-.8,2.91c0,0.67-.14.34,0.15,0.24a6,6,0,0,1-1.41.09,8.48,8.48,0,0,0-4.07.92,30.38,30.38,0,0,1-5,2c-1.42.47-2,1.57-3,2.74a26.35,26.35,0,0,1-3.31,3.12,6.61,6.61,0,0,1-.92.79c-0.36.2,0.61,0-.05,0-1.06-.13-2.13-0.41-3.18-0.62a9.72,9.72,0,0,1-4.68-2.35c-0.7-.75-1.73-3.34-2.43-4.67a0.49,0.49,0,0,0-.43-0.25l-4.66.37C57.19,100,57.18,101,57.82,100.92Z"/>
          </g>
        </g>
        <path class="ah" d="M98.4,66.25c-4.63,0-7.38,10.59-8.47,16.41-1.59,8.47-7.36,12.18-16.41,12.18-10.48,0-14.82-3.71-16.41-12.18C56,76.84,53.27,66.25,48.64,66.25a49.29,49.29,0,0,1,6.67,17.61c0.86,5.75,5.82,13.63,18.21,13.63,11.65,0,17.19-8,18.32-13.08C94.39,73,98.4,66.25,98.4,66.25Z"/>
        <path class="ai" d="M49.23,66.3c4.28,0.85,6.83,10.79,7.88,16.35C58.69,91.12,63,94.83,73.52,94.83c9.05,0,14.82-3.71,16.41-12.18,1.07-5.7,3.73-16,8.19-16.4,0,0,.57,0,1.34,0"/>
        <g class="aj">
          <path class="q" d="M29,103.31c7.4,0,25.58-20.51,25.58-30.18,0.72-1.63,1-3.57,2.48-4.76s4.55-1.61,5.82-3.16c9.84-12,11-32.49.53-66.73L18.46-2-2.72,13.18Z"/>
          <path class="ak" d="M28,100.66S35,70,29.58,61.48c0,0,20.65,2.56,20.65,18.53s-22.76,29.65-22.76,29.65Z"/>
          <path class="al" d="M74.58,42.42c0,3.8-1.42,10.59-3.18,10.59s-3.18-6.79-3.18-10.59,1.42-13.24,3.18-13.24S74.58,38.62,74.58,42.42Z"/>
          <polygon class="am" points="70.23 47.56 69.28 39.27 71 37.66 70.82 47.41 70.23 47.56"/>
        </g>
        <g class="an">
          <path class="q" d="M84.69,12.25c-1.85,5.29.53,8.47,9.53,19.06,0,0,12.74,16.59,4.54,26.17a4.24,4.24,0,0,0-1,3.46l4.94,29.13s5.82,30.18,19.59,34.94L139.22,5.89,100-7.87Z"/>
          <path class="ak" d="M109.52,10.66c-7.41,0-11.51,9.93-9.53,15.88,2.65,6.49,16.49,8.6,24.35,7.41C113.16,22.77,115.74,10.66,109.52,10.66Z"/>
          <path class="al" d="M85.69,78.42L103.17,89s7.28-10.46,3.66-18.53c-2.8-6.25-12.38-5.59-18.48.53Z"/>
          <path class="ao" d="M110.58,11.72s-4.16,7.84-.53,15.35c2.47,5.12,12.18,7.41,12.18,7.41A33,33,0,0,1,110.58,11.72Z"/>
        </g>
        <path class="ap" d="M121.69,33.42c-5.92-3.89-11.12-15.09-11.12-21.71"/>
        <path class="al" d="M80.2,0.44c-4.33,3.79,5.27,0,11.13.76A67.19,67.19,0,0,1,102.5,3.67c2.13,0.67,8.56,6.2,14.92,8.28,7.81,0.4,10.94,6.68,18.76,1.64,3.15-2,2.13-6-1-8.09-8.32-5.48-9.94-2-19.24-5.62-8-3.06-7-6.13-15.4-7.34-5.43-.78-5,2.64-10.29,4S84.32-3.17,80.2.44Z"/>
        <path class="ak" d="M116.93,39.78l-6.55,8.6a6.35,6.35,0,0,0-1.06,5.57l3.55,15.12,9.88-13.4Z"/>
        <path class="ak" d="M51,33.74a0.53,0.53,0,0,1-.31-1c1.55-1,4.08-2.29,6.44-2,2.2,0.28,4.3,2.11,5.59,3.48a0.53,0.53,0,0,1-.54.87A31.87,31.87,0,0,0,51,33.74Z"/>
        <path class="al" d="M59,7c-6.45-1.3-14.54-.22-20.61,1.13L60.57,13Z"/>
        <path class="ak" d="M16.34,29.32c7.32-7.47,8.48-18.12,14-20.76,5.88-2.79,27.79,4.22,27.79,4.22C40.86,22.7,32.22,40,31.17,61.25,31.17,61.25,10.18,35.6,16.34,29.32Z"/>
        <path class="ao" d="M30.26,11.18s7.93,7.69,6.12,17.24C34.82,36.63,24.85,46,24.85,46c-4-6-6.06-12.16-5.84-18.63C25.34,24.42,29.29,17.63,30.26,11.18Z"/>
        <path class="al" d="M3.11,31.9L9.7,24.5a34.09,34.09,0,0,0,6.69-1.67L12.14,35.94Z"/>
        <path class="ap" d="M19,27.37s9.06-3.72,11.25-16.2"/>
        <path class="al" d="M16.68,1.66s4,4.55,13.86,4.55S43,1.66,43,1.66H16.68Z"/>
        <path class="aq" d="M21.85,4.68l0.79-.08c0.49,0,1.17-.09,2-0.11,0.39,0,.81,0,1.25,0s0.9,0,1.37,0,1,0,1.44,0,1,0,1.49,0,1,0,1.49,0,1,0.05,1.44.05,0.92,0,1.36.06,0.85,0,1.24.07c0.78,0,1.45.09,1.94,0.13,0.24,0,.44,0,0.58.06l0.21,0h0a0.1,0.1,0,0,1,0,.18,15.9,15.9,0,0,1-2.54.78,25.93,25.93,0,0,1-5.81.6,26.77,26.77,0,0,1-5.79-.75,19.54,19.54,0,0,1-2.53-.79,0.1,0.1,0,0,1,0-.18h0Z"/>
        <path class="aq" d="M9.69,24.4a5.09,5.09,0,0,1,.89-1.13,4.89,4.89,0,0,1,1-.72A4.34,4.34,0,0,1,13.88,22a4.42,4.42,0,0,1,.6.07,3.2,3.2,0,0,1,.56.13,5.58,5.58,0,0,1,.92.35c0.24,0.12.39,0.21,0.39,0.21l0.08,0a0.08,0.08,0,0,1,0,.11l0,0s-0.39.19-1,.42S14,23.81,13.14,24s-1.7.34-2.34,0.44-1.08.12-1.08,0.12a0.08,0.08,0,0,1-.08-0.07,0.08,0.08,0,0,1,0,0Z"/>
        <polygon class="al" points="56.86 12.7 63.48 16.74 67.93 12.72 56.86 12.7"/>
        <g class="k">
          <path class="l" d="M108.22,104.61l0.49,0.52a4,4,0,0,0,.6.52,6.36,6.36,0,0,0,.84.57,8.33,8.33,0,0,0,1.09.54,9.23,9.23,0,0,0,1.3.38,8.59,8.59,0,0,0,1.44.2,9.3,9.3,0,0,0,1.5,0l0.75-.08,0.73-.16a9.13,9.13,0,0,0,1.38-.46,7.39,7.39,0,0,0,1.2-.64,6.28,6.28,0,0,0,1-.73,7.19,7.19,0,0,0,.74-0.72,3.62,3.62,0,0,0,.51-0.62l0.41-.57a0.14,0.14,0,0,1,.25.06v0.09a4.42,4.42,0,0,1,0,.89,3.27,3.27,0,0,1-.18,1,4.44,4.44,0,0,1-.51,1.23,5.65,5.65,0,0,1-.94,1.29,6.83,6.83,0,0,1-1.38,1.15,4.82,4.82,0,0,1-.83.46,4.9,4.9,0,0,1-.9.37c-0.31.09-.63,0.2-1,0.27s-0.65.1-1,.14a8.62,8.62,0,0,1-2,0,7.46,7.46,0,0,1-1.85-.49,7.7,7.7,0,0,1-1.58-.84,6.42,6.42,0,0,1-1.17-1.11c-0.16-.2-0.31-0.37-0.44-0.56a6.35,6.35,0,0,1-.33-0.6,2.61,2.61,0,0,1-.34-1,6.48,6.48,0,0,1-.08-0.87V104.7A0.13,0.13,0,0,1,108.22,104.61Z"/>
        </g>
        <g class="k">
          <path class="l" d="M39.62,104.69a6.5,6.5,0,0,1-.08.87,2.61,2.61,0,0,1-.34,1,6.35,6.35,0,0,1-.33.6c-0.12.19-.28,0.36-0.44,0.56a6.42,6.42,0,0,1-1.17,1.11,7.69,7.69,0,0,1-1.58.84,7.46,7.46,0,0,1-1.85.49,8.62,8.62,0,0,1-2,0c-0.33,0-.66-0.08-1-0.14s-0.64-.18-1-0.27a4.89,4.89,0,0,1-.9-0.37,4.81,4.81,0,0,1-.83-0.46,6.83,6.83,0,0,1-1.38-1.15,5.65,5.65,0,0,1-.94-1.29,4.43,4.43,0,0,1-.51-1.23,3.28,3.28,0,0,1-.18-1,4.42,4.42,0,0,1,0-.89v-0.09a0.14,0.14,0,0,1,.25-0.06l0.41,0.57a3.63,3.63,0,0,0,.51.62,7.2,7.2,0,0,0,.74.72,6.28,6.28,0,0,0,1,.73,7.38,7.38,0,0,0,1.2.64,9.13,9.13,0,0,0,1.38.46l0.73,0.16,0.75,0.08a9.3,9.3,0,0,0,1.5,0,8.59,8.59,0,0,0,1.44-.2,9.23,9.23,0,0,0,1.3-.38,8.33,8.33,0,0,0,1.09-.54,6.36,6.36,0,0,0,.84-0.57,4,4,0,0,0,.6-0.52l0.49-.52a0.13,0.13,0,0,1,.23.09v0.11Z"/>
        </g>
      </g>
      <path class="aq" d="M104.81,4.22a4,4,0,0,1,.5-0.06,5.57,5.57,0,0,1,1.2.07,6.85,6.85,0,0,1,1.45.4,7.6,7.6,0,0,1,1.41.76,7.8,7.8,0,0,1,1.19,1,7.91,7.91,0,0,1,.87,1.14,9.28,9.28,0,0,1,.55,1L112.2,9l0,0.07a0.08,0.08,0,0,1,0,.11h-0.06a6.62,6.62,0,0,1-1.3-.54c-0.74-.39-1.68-1-2.6-1.6s-1.78-1.31-2.45-1.8l-1.09-.84a0.08,0.08,0,0,1,0-.12l0,0Z"/>
      <path class="aq" d="M125.42,12.15a4.67,4.67,0,0,1,.47-0.24,4.43,4.43,0,0,1,1.26-.3,6.69,6.69,0,0,1,1.65,0,8.24,8.24,0,0,1,1.69.43,9,9,0,0,1,1.5.73,10.06,10.06,0,0,1,1.19.88c0.17,0.12.33,0.29,0.47,0.42s0.27,0.26.38,0.36l0.37,0.36,0.06,0.06a0.08,0.08,0,0,1,0,.12l-0.06,0H134a7,7,0,0,1-1.08-.13,24.73,24.73,0,0,1-3.12-.94c-1.1-.43-2.19-0.87-3-1.14s-1.39-.43-1.39-0.43a0.08,0.08,0,0,1,0-.15Z"/>
      <path class="j" d="M70.87,18.07l-4.24,2.12a31.56,31.56,0,0,1,4,13.23C71.13,26.75,72.89,22.67,70.87,18.07Z"/>
      <path class="aq" d="M38.4,8.07a7.49,7.49,0,0,1,2.2-.68,11.72,11.72,0,0,1,2.22-.16,14.3,14.3,0,0,1,2.47.29,14.48,14.48,0,0,1,2.37.73c0.37,0.14.72,0.33,1,.49a7.85,7.85,0,0,1,.91.53,8.33,8.33,0,0,1,1.77,1.46l0,0a0.09,0.09,0,0,1,0,.13,0.09,0.09,0,0,1-.08,0l-2-.46c-1.21-.29-2.82-0.65-4.44-1S41.64,8.8,40.42,8.6l-2-.34a0.09,0.09,0,0,1,0-.17Z"/>
      <path class="ar" d="M82.08,48.78s-2.44,1.84-1.59,3S85.78,52,85.78,52Z"/>
      <path class="ar" d="M82.52,72.78l-0.13-.26A4.86,4.86,0,0,0,82,71.87a4.7,4.7,0,0,0-.7-0.81,4.91,4.91,0,0,0-1-.72,6.94,6.94,0,0,0-1.34-.51,12.78,12.78,0,0,0-1.61-.33l-0.9-.09-0.94-.06-1,0h-2l-0.94,0-0.93.06-0.9.1a12.65,12.65,0,0,0-1.61.33,6.91,6.91,0,0,0-1.34.51,4.89,4.89,0,0,0-1,.72,4.71,4.71,0,0,0-.7.8,6.44,6.44,0,0,0-.37.66l-0.13.26-0.1-.27a3.39,3.39,0,0,1-.17-0.82,4.16,4.16,0,0,1,.11-1.35,5.05,5.05,0,0,1,.78-1.67,6.71,6.71,0,0,1,1.56-1.51,9.23,9.23,0,0,1,2.09-1.08,12.51,12.51,0,0,1,2.34-.59c0.4,0,.85-0.12,1.23-0.14l1.1,0,1.25,0c0.4,0,.8.09,1.2,0.14a12.63,12.63,0,0,1,2.33.59,9.19,9.19,0,0,1,2.08,1.08,6.69,6.69,0,0,1,1.56,1.51,5,5,0,0,1,.78,1.66,4.16,4.16,0,0,1,.12,1.35A3.47,3.47,0,0,1,82.52,72.78Z"/>
      <path class="as" d="M62.93,48.78s2.44,1.84,1.59,3S59.22,52,59.22,52Z"/>
      <path class="a" d="M74,72.07c-7.6,0-11.12,2.79-11.12,5.34s0.34,12.13,10.86,12.13H74.3c10.52,0,10.86-9.58,10.86-12.13S81.65,72.07,74,72.07Z"/>
      <path class="as" d="M64,46.66c0,3.8-2.39,6.88-7.94,6.88s-9-3.08-9-6.88,3.44-6.88,9-6.88S64,42.86,64,46.66Z"/>
      <path class="at" d="M48.28,47.75l0.56,0.67,0.29,0.36L49.44,49a7.34,7.34,0,0,0,.76.67l0.48,0.39,0.55,0.36a10.37,10.37,0,0,0,1.24.69,9.21,9.21,0,0,0,1.43.52,10.13,10.13,0,0,0,1.54.33A11.76,11.76,0,0,0,57,52a10.59,10.59,0,0,0,1.53-.22,9.5,9.5,0,0,0,1.39-.51,6.78,6.78,0,0,0,1.21-.68,7.39,7.39,0,0,0,1-.75,5.24,5.24,0,0,0,.71-0.68l0.62-.65s-0.06.32-.2,0.88a3.9,3.9,0,0,1-.36,1,5.75,5.75,0,0,1-.69,1.23c-0.16.21-.31,0.44-0.5,0.66a9.33,9.33,0,0,1-2.22,1.76,8.53,8.53,0,0,1-2,.74,9.31,9.31,0,0,1-2.17.3,11.49,11.49,0,0,1-2.18-.2,12.56,12.56,0,0,1-2-.6,12.06,12.06,0,0,1-1.75-.94c-0.27-.17-0.52-0.34-0.76-0.52L48,52.28a7.72,7.72,0,0,1-1.07-1.15c-0.15-.18-0.29-0.36-0.41-0.52l-0.23-.4-0.42-.76A1.51,1.51,0,0,1,48.28,47.75Z"/>
      <path class="as" d="M47,39.95l0.69-.47L48,39.24c0.15-.09.35-0.18,0.55-0.27a9.18,9.18,0,0,1,1.36-.55,10.54,10.54,0,0,1,1.6-.41l0.89-.15,0.93-.07a17.05,17.05,0,0,1,2,0,14.51,14.51,0,0,1,2,.37c0.33,0.09.66,0.16,1,.28l0.94,0.38a9,9,0,0,1,1.72,1c0.26,0.2.51,0.38,0.75,0.58s0.44,0.45.64,0.66a6.71,6.71,0,0,1,.94,1.38,4.91,4.91,0,0,1,.45,1.31,3.56,3.56,0,0,1,.1,1c0,0.57-.09.87-0.09,0.87l-0.38-.76a4.65,4.65,0,0,0-.5-0.77,5.9,5.9,0,0,0-.76-0.83,4.64,4.64,0,0,0-.5-0.38A3.07,3.07,0,0,0,61,42.57c-0.2-.11-0.41-0.21-0.61-0.33S60,42.06,59.74,42A4.75,4.75,0,0,0,59,41.72a6.3,6.3,0,0,0-.74-0.21c-0.52-.11-1-0.21-1.57-0.26a15.09,15.09,0,0,0-1.59-.1,13.68,13.68,0,0,0-1.54.08l-0.73.06-0.69.13a11.84,11.84,0,0,0-1.24.27c-0.4.09-.67,0.2-1,0.29l-0.4.12-0.4.18-0.77.32A1.51,1.51,0,0,1,47,39.95Z"/>
      <g class="au">
        <ellipse class="f" cx="55.93" cy="46.66" rx="7.88" ry="6.84"/>
        <g class="av">
          <path class="aw" d="M65.66,46.66a7.1,7.1,0,0,1-7.41,7.17,7.17,7.17,0,1,1,0-14.33A7.1,7.1,0,0,1,65.66,46.66Z"/>
          <path class="ax" d="M65.66,44.42a7.1,7.1,0,0,1-7.41,7.17,7.17,7.17,0,1,1,0-14.33A7.1,7.1,0,0,1,65.66,44.42Z"/>
        </g>
        <ellipse class="ay" cx="55.36" cy="44.36" rx="1.39" ry="1.12"/>
        <path class="az" d="M63.34,45.68a10.72,10.72,0,0,0-14.82,0c0-3,3.32-5.38,7.41-5.38S63.34,42.71,63.34,45.68Z"/>
        <path class="ba" d="M63.8,48.23c0,1.61-2.55,4.26-7.41,4.26s-7.87-2.65-7.87-4.26c1.62,1.12,4.56,1.57,7.88,1.57A13.9,13.9,0,0,0,63.8,48.23Z"/>
      </g>
      <ellipse class="bb" cx="55.93" cy="46.66" rx="7.41" ry="6.35"/>
      <g class="bc">
        <path class="bd" d="M73.52,67.84c-6.88,0-9,2.79-9,5.34s1.4,9.48,8.77,9.48h0.46c7.5,0,8.77-6.93,8.77-9.48S80.39,67.84,73.52,67.84Z"/>
        <path class="be" d="M60.81,73.13a58.62,58.62,0,0,1,26.47,0l-5-4.76c-5.09-2.79-10.82-2.85-17.21,0C65,68.36,60.68,73,60.81,73.13Z"/>
        <circle class="bf" cx="73.52" cy="71.54" r="4.24"/>
        <path class="bg" d="M66.64,72.07a13.14,13.14,0,0,1,2.2-.54,30.37,30.37,0,0,1,4.94-.41,28.25,28.25,0,0,1,4.95.4,14.11,14.11,0,0,1,2.2.55l-2.25,0-4.9,0-4.9,0Z"/>
        <path class="bh" d="M67,79.75H65.15L64,77.4a3.12,3.12,0,0,0,2.61-.6c0.63-.63,1.11-2.05,2.68-2.05s2.12,1.53,2.12,2.93C71.4,79.41,69.59,79.75,67,79.75Z"/>
        <line class="bi" x1="73.52" y1="84.25" x2="73.52" y2="77.36"/>
        <path class="bj" d="M62.12,73.26s2,7.64,11.12,7.64c9.43,0,11.12-7.58,11.12-7.58l1,10.39H60.61Z"/>
        <path class="bh" d="M80,79.75h1.87L83,77.4a3.12,3.12,0,0,1-2.61-.6c-0.63-.63-1.11-2.05-2.68-2.05s-2.12,1.53-2.12,2.93C75.64,79.41,77.45,79.75,80,79.75Z"/>
        <path class="bk" d="M70.87,71.67a4.15,4.15,0,0,1,.83-0.29,7.87,7.87,0,0,1,3.64,0,4.12,4.12,0,0,1,.83.28,4.12,4.12,0,0,1-.83.29,7.87,7.87,0,0,1-3.64,0A4.15,4.15,0,0,1,70.87,71.67Z"/>
      </g>
      <path class="bl" d="M71.93,55.13c0,0.88-.59,1.06-1.32,1.06a1.47,1.47,0,0,1-1.32-1.59c0-.88.13-1.59,1.32-1.59,0.55,0,.57.86,0.79,1.06A1.27,1.27,0,0,1,71.93,55.13Z"/>
      <circle class="bm" cx="70.34" cy="60.42" r="0.53"/>
      <circle class="bn" cx="82.78" cy="37.92" r="0.26"/>
      <circle class="bm" cx="74.31" cy="62.81" r="0.26"/>
      <circle class="bn" cx="87.02" cy="75.51" r="0.26"/>
      <circle class="bn" cx="87.55" cy="73.92" r="0.26"/>
      <path class="bl" d="M71.35,63.26c0,0.69-.57.71-1.25,1.25-0.36.29-.65,1-1.25,1-0.44,0-.76-1.18-0.62-2.25A1.5,1.5,0,0,1,69.79,62,1.43,1.43,0,0,1,71.35,63.26Z"/>
      <circle class="bm" cx="78.55" cy="62.81" r="0.79"/>
      <ellipse class="bn" cx="85.69" cy="71.54" rx="0.53" ry="1.06"/>
      <ellipse class="bo" cx="85.43" cy="64.39" rx="0.26" ry="0.79" transform="translate(-18.2 37.81) rotate(-22.62)"/>
      <ellipse class="bn" cx="80.14" cy="40.04" rx="0.79" ry="0.26" transform="translate(18.77 105.3) rotate(-73.31)"/>
      <ellipse class="bo" cx="86.49" cy="67.04" rx="0.26" ry="0.79" transform="translate(-9.04 13.66) rotate(-8.58)"/>
      <g class="ag">
        <path class="l" d="M32.94,106.93l0.39,0.66,0.35,0.55c0.25,0.37.52,0.73,0.8,1.08A10.39,10.39,0,0,0,36.32,111a9.38,9.38,0,0,0,1,.65,8.61,8.61,0,0,0,1.11.47,8.45,8.45,0,0,0,1.17.28,10,10,0,0,0,1.22.09l-2,2a13.16,13.16,0,0,1,.2-2.34,9.38,9.38,0,0,1,.76-2.41,6.65,6.65,0,0,1,.75-1.21,5.77,5.77,0,0,1,1.13-1.09,5.37,5.37,0,0,1,1.48-.71c0.26-.06.52-0.13,0.78-0.17l0.76-.05,2,2c0-.07,0,0,0,0v0.07a0.83,0.83,0,0,0,0,.14c0,0.08.05,0.11,0,.09a0.46,0.46,0,0,0-.13-0.1h0a0.07,0.07,0,0,1,0,0l-2,2a5.16,5.16,0,0,1,.06-0.7,3.82,3.82,0,0,1,.19-0.71,3.9,3.9,0,0,1,.75-1.27,4.48,4.48,0,0,1,1-.87,4.93,4.93,0,0,1,.56-0.3l0.29-.12a3.89,3.89,0,0,1,.38-0.12l2.28,1a0.06,0.06,0,1,1,0,0l0,0.07,0.11,0.14a1.44,1.44,0,0,0,.22.21,0.45,0.45,0,0,0,.25.1l-2,2a3.14,3.14,0,0,1,.14-0.89,2.92,2.92,0,0,1,.44-0.88,3.1,3.1,0,0,1,.63-0.63,2.72,2.72,0,0,1,.32-0.21,2.52,2.52,0,0,1,.31-0.16,4.27,4.27,0,0,1,1.09-.32l0.48-.06H52.8a1.88,1.88,0,0,1,1.77,1.27l0.06,0.19,0.09,0.26L54.85,109a6.2,6.2,0,0,0,.29.61,5.34,5.34,0,0,0,.71,1,3.16,3.16,0,0,0,.39.36,2.48,2.48,0,0,0,.38.25l0.19,0.08a1,1,0,0,0,.19.05,2.4,2.4,0,0,0,.4.06l-2,2,0-.49a4.06,4.06,0,0,1,.05-0.5,5.16,5.16,0,0,1,.29-1.06,3.78,3.78,0,0,1,.24-0.53c0.1-.17.21-0.35,0.32-0.52a4.67,4.67,0,0,1,.85-0.87,5.12,5.12,0,0,1,2-.95,6.08,6.08,0,0,1,1-.16l0.48,0c0.18,0,.3,0,0.56,0a2,2,0,0,1,1.66,1.27l0,0.13L63,110.16l0.17,0.4a5.94,5.94,0,0,0,.37.7,2.54,2.54,0,0,0,.18.25,0.65,0.65,0,0,0,.08.08l0.05,0.05h0l0,0a0.29,0.29,0,0,0-.12,0,0.33,0.33,0,0,0-.18,0l-2,2a4.16,4.16,0,0,1,.12-0.92,3.55,3.55,0,0,1,.37-0.94,3.64,3.64,0,0,1,.61-0.78,3.94,3.94,0,0,1,.71-0.56,5,5,0,0,1,1.38-.58,6.08,6.08,0,0,1,.65-0.14l0.33,0,0.39,0,1.9,1.28c0-.06,0,0,0,0.08l0.1,0.17a3.38,3.38,0,0,0,.24.33,2.53,2.53,0,0,0,.57.51,2.09,2.09,0,0,0,.65.3,2.29,2.29,0,0,0,.37.08c0.13,0,.27,0,0.4,0l-2,2a4.08,4.08,0,0,1,.4-1.73,4.54,4.54,0,0,1,.95-1.31,4.94,4.94,0,0,1,1.24-.88,4,4,0,0,1,1.75-.44l2,2a0.13,0.13,0,0,0,0-.07,0.25,0.25,0,0,0,0-.08s0,0,0,0a1.45,1.45,0,0,0,.32.18l0.23,0.08,0.12,0,0.06,0,1.49,1.19,0-.1h0l0,0.06a1.14,1.14,0,0,0,.16.16,2,2,0,0,0,.5.29,3.33,3.33,0,0,0,.69.19,5.85,5.85,0,0,0,.84.07l-2,2a6.33,6.33,0,0,1,.15-1.26,5.4,5.4,0,0,1,.42-1.23A5,5,0,0,1,78,113a3.5,3.5,0,0,1,.36-0.51,6.87,6.87,0,0,1,.82-0.87,8.57,8.57,0,0,1,1.83-1.2,9.17,9.17,0,0,1,1-.41l0.49-.17c0.18-.05.31-0.1,0.57-0.15l2.21,1,0.08,0.13,0.15,0.21a4.61,4.61,0,0,0,.36.4,3.84,3.84,0,0,0,.84.64,3.51,3.51,0,0,0,1,.39,3.63,3.63,0,0,0,.52.1c0.18,0,.36,0,0.54,0l-2,2a4.4,4.4,0,0,1,.18-1.22,4.09,4.09,0,0,1,.54-1.13,4.77,4.77,0,0,1,1.65-1.47,7.3,7.3,0,0,1,3.47-.82l-2,2a3.8,3.8,0,0,1,.2-1.15,2.53,2.53,0,0,1,.23-0.54,3.17,3.17,0,0,1,.3-0.48,4.18,4.18,0,0,1,.71-0.73,5.1,5.1,0,0,1,.72-0.48,6.69,6.69,0,0,1,1.37-.56l0.66-.17,0.33-.06,0.39-.06a1.88,1.88,0,0,1,1.89.92l0.12,0.22,0.08,0.15,0.13,0.21a4.84,4.84,0,0,0,.31.41,4.06,4.06,0,0,0,.7.66,2.63,2.63,0,0,0,.75.39,1.85,1.85,0,0,0,.39.09c0.13,0,.27,0,0.41,0l-2,2c0-.26,0-0.39,0-0.58s0-.34.06-0.51a8,8,0,0,1,.2-1,6.93,6.93,0,0,1,.89-2.05,5.59,5.59,0,0,1,.83-1,4.65,4.65,0,0,1,1.09-.75c0.2-.09.41-0.19,0.61-0.27l0.62-.16a6.88,6.88,0,0,1,1.2-.13,1.49,1.49,0,0,1,.9.21l0,0c0.33,0.2.67,0.38,1,.62a7.15,7.15,0,0,1,.93.78,7,7,0,0,1,.82,1,7.12,7.12,0,0,1,.63,1.11,7.33,7.33,0,0,1,.61,2.39,8.88,8.88,0,0,1,0,1.17l0,0.54,0,0.23a0.11,0.11,0,1,1,0,0l-2-2,0.72,0c0.24,0,.47,0,0.71-0.07a9.56,9.56,0,0,0,1.36-.28,5.47,5.47,0,0,0,.65-0.21,5.86,5.86,0,0,0,.62-0.26,7.78,7.78,0,0,0,1.16-.68,7.64,7.64,0,0,0,1-.87,8.28,8.28,0,0,0,.92-1.05,12.51,12.51,0,0,0,1.44-2.52h0a1,1,0,0,1,1.83.8,14.5,14.5,0,0,1-1.68,2.93,10.25,10.25,0,0,1-1.11,1.27,9.63,9.63,0,0,1-1.29,1.08,9.76,9.76,0,0,1-1.46.85,7.74,7.74,0,0,1-.78.33,7.25,7.25,0,0,1-.8.26,11.56,11.56,0,0,1-1.65.33c-0.28,0-.56.08-0.84,0.08l-0.84,0h0a9.44,9.44,0,0,0,.06-1.8,5.33,5.33,0,0,0-.44-1.74,5.13,5.13,0,0,0-.44-0.78,5,5,0,0,0-.59-0.68,5.16,5.16,0,0,0-.69-0.58c-0.24-.18-0.51-0.32-0.76-0.48h0a5,5,0,0,0-.78.09l-0.38.1-0.36.16a2.65,2.65,0,0,0-.65.45,3.6,3.6,0,0,0-.52.6,5.85,5.85,0,0,0-.83,3h0a5.84,5.84,0,0,1-.72-0.06,3.77,3.77,0,0,1-.7-0.17,4.63,4.63,0,0,1-1.28-.66,6.33,6.33,0,0,1-1.87-2.19h0a5.75,5.75,0,0,0-2,.61,2.43,2.43,0,0,0-.8.66,1.22,1.22,0,0,0-.14.22,0.81,0.81,0,0,0-.1.24,1.82,1.82,0,0,0-.09.51h0a5.34,5.34,0,0,0-2.5.57,2.77,2.77,0,0,0-1,.84,2.14,2.14,0,0,0-.38,1.22h0c-0.26,0-.53,0-0.79-0.05a5.61,5.61,0,0,1-.77-0.15,5.5,5.5,0,0,1-1.45-.59,6,6,0,0,1-2.21-2.2h0a7.42,7.42,0,0,0-3,1.48,4.87,4.87,0,0,0-.57.61,1.94,1.94,0,0,0-.24.34,3.11,3.11,0,0,0-.21.36,3.41,3.41,0,0,0-.27.79,4.38,4.38,0,0,0-.1.83h0a7.8,7.8,0,0,1-1.17-.09,5.31,5.31,0,0,1-1.13-.32,3.38,3.38,0,0,1-1.75-1.49h0a4.1,4.1,0,0,1-1.58-.69,2.26,2.26,0,0,1-.58-0.64,1.86,1.86,0,0,1-.22-0.83h0a2.57,2.57,0,0,0-1.61.76,2.27,2.27,0,0,0-.74,1.6h0c-0.22,0-.45,0-0.67,0a4.28,4.28,0,0,1-.66-0.14,4.08,4.08,0,0,1-1.21-.56,4.74,4.74,0,0,1-1.7-2h0a3.74,3.74,0,0,0-1.73.48,1.9,1.9,0,0,0-.63.63,1.86,1.86,0,0,0-.22.87h0a1.47,1.47,0,0,1-.52-0.12,1.9,1.9,0,0,1-.45-0.3,3.71,3.71,0,0,1-.69-0.82,8.77,8.77,0,0,1-.91-2h0a4.43,4.43,0,0,0-1.34.11,3.12,3.12,0,0,0-1.21.57,2.32,2.32,0,0,0-.78,1.08,3.18,3.18,0,0,0-.18.65c0,0.22,0,.45-0.05.67h0a4.3,4.3,0,0,1-.85-0.11,2.83,2.83,0,0,1-.41-0.12l-0.4-.17A4.45,4.45,0,0,1,55,112.6a5.15,5.15,0,0,1-.63-0.59,8.35,8.35,0,0,1-1.66-3h0a2.88,2.88,0,0,0-1.19.21,1.21,1.21,0,0,0-.48.36,1,1,0,0,0-.18.57h0a2.44,2.44,0,0,1-1.42-.49,3.6,3.6,0,0,1-1-1.15h0a2.69,2.69,0,0,0-1.25.79,2.07,2.07,0,0,0-.5,1.37h0a3.36,3.36,0,0,1-.41,0,1.63,1.63,0,0,1-.39-0.12,1.59,1.59,0,0,1-.64-0.49,2.73,2.73,0,0,1-.52-1.52h0a4.17,4.17,0,0,0-1,.14,3.39,3.39,0,0,0-.89.43,3.79,3.79,0,0,0-.71.69,4.76,4.76,0,0,0-.52.84,9.16,9.16,0,0,0-.76,3.87h0a11.94,11.94,0,0,1-1.53-.12,10.42,10.42,0,0,1-1.49-.35,10.56,10.56,0,0,1-1.41-.59,11.33,11.33,0,0,1-1.3-.81,14.67,14.67,0,0,1-3.92-4.66v0A1,1,0,0,1,32.94,106.93Z"/>
      </g>
      <path class="ar" d="M80.75,46.66c0,3.8,2.39,6.88,7.94,6.88s9-3.08,9-6.88-3.44-6.88-9-6.88S80.75,42.86,80.75,46.66Z"/>
      <path class="f" d="M98.52,49.17l-0.45.75-0.25.39-0.4.48a7.18,7.18,0,0,1-1,1.07l-0.62.54c-0.23.17-.47,0.33-0.73,0.49a11.74,11.74,0,0,1-1.67.9,12,12,0,0,1-1.94.58,11.21,11.21,0,0,1-2.07.23,9.37,9.37,0,0,1-2.07-.25,8.6,8.6,0,0,1-1.9-.65,8,8,0,0,1-1.56-1,7.62,7.62,0,0,1-.64-0.57l-0.51-.61A5.62,5.62,0,0,1,82,50.34a4.52,4.52,0,0,1-.41-0.94c-0.19-.54-0.28-0.84-0.28-0.84s0.21,0.25.55,0.69a4.18,4.18,0,0,0,.65.74,7.58,7.58,0,0,0,.92.83L84,51.22a6.51,6.51,0,0,0,.64.36A9,9,0,0,0,86,52.2a9.82,9.82,0,0,0,1.61.31,10.76,10.76,0,0,0,1.68,0A10.28,10.28,0,0,0,91,52.22a9.76,9.76,0,0,0,1.53-.53A10.59,10.59,0,0,0,93.82,51l0.59-.38,0.5-.42a7.51,7.51,0,0,0,.82-0.75l0.33-.32,0.28-.37L96.87,48A1,1,0,0,1,98.52,49.17Z"/>
      <path class="ar" d="M96.35,42.59l-0.77-.32-0.4-.18L94.77,42c-0.29-.08-0.56-0.2-1-0.29a11.84,11.84,0,0,0-1.24-.27l-0.69-.13-0.73-.06a13.67,13.67,0,0,0-1.54-.08,15.09,15.09,0,0,0-1.59.1c-0.53.06-1.05,0.16-1.57,0.26a6.3,6.3,0,0,0-.74.21A4.76,4.76,0,0,0,85,42c-0.23.1-.46,0.18-0.68,0.28s-0.41.22-.61,0.33a3.07,3.07,0,0,0-.55.37,4.65,4.65,0,0,0-.5.38,5.9,5.9,0,0,0-.76.83,4.65,4.65,0,0,0-.5.77L81,45.68s0-.3-0.09-0.87a3.57,3.57,0,0,1,.1-1,4.91,4.91,0,0,1,.45-1.31,6.71,6.71,0,0,1,.94-1.38c0.2-.21.41-0.44,0.64-0.66s0.49-.38.75-0.58a9,9,0,0,1,1.72-1l0.94-.38c0.32-.12.65-0.18,1-0.28a14.51,14.51,0,0,1,2-.37,17.05,17.05,0,0,1,2,0l0.93,0.07L93.2,38a10.54,10.54,0,0,1,1.6.41,9.19,9.19,0,0,1,1.36.55c0.2,0.09.4,0.18,0.55,0.27l0.37,0.24,0.69,0.47A1.51,1.51,0,0,1,96.35,42.59Z"/>
      <g class="bp">
        <ellipse class="f" cx="88.81" cy="46.66" rx="7.88" ry="6.84"/>
        <g class="bq">
          <path class="aw" d="M79.08,46.66a7.42,7.42,0,1,0,7.41-7.17A7.1,7.1,0,0,0,79.08,46.66Z"/>
          <path class="ax" d="M79.08,44.42a7.42,7.42,0,1,0,7.41-7.17A7.1,7.1,0,0,0,79.08,44.42Z"/>
        </g>
        <ellipse class="ay" cx="89.38" cy="44.36" rx="1.39" ry="1.12"/>
        <path class="az" d="M81.4,45.68a10.72,10.72,0,0,1,14.82,0c0-3-3.32-5.38-7.41-5.38S81.4,42.71,81.4,45.68Z"/>
        <path class="ba" d="M80.94,48.23c0,1.61,2.55,4.26,7.41,4.26s7.88-2.65,7.88-4.26c-1.62,1.12-4.56,1.57-7.87,1.57A13.9,13.9,0,0,1,80.94,48.23Z"/>
      </g>
      <ellipse class="bb" cx="88.81" cy="46.66" rx="7.41" ry="6.35"/>
      <path class="j" d="M39.5,104.6c-3,4.13-11.12,4.13-14.19-1.29,7.09-2.51,7.72-8.11,7.35-11"/>
      <path class="ak" d="M31,97.78c8.35-1.18,12.08-6.69,16-13.12L34.17,89.31A29.91,29.91,0,0,0,31,97.78Z"/>
      <path class="ak" d="M41.88,91.88c-5.61,6.05-8,4.05-11.48,8.17-0.11-4.44,1.15-9.32,3.78-10.74"/>
      <path class="l" d="M39.5,104.6l-0.24.33a6,6,0,0,1-.73.81,7.93,7.93,0,0,1-2.87,1.69,9.87,9.87,0,0,1-3.34.52,8.88,8.88,0,0,1-1.13-.08l-0.43-.06a0.5,0.5,0,0,1,.14-1H31l0.38,0.09a8,8,0,0,0,1,.18,9.19,9.19,0,0,0,3.15-.16,7.61,7.61,0,0,0,2.9-1.33,5.84,5.84,0,0,0,.8-0.72Z"/>
      <path class="j" d="M108.1,104.71c3,4.13,11.12,4.13,14.19-1.29-7.09-2.51-7.72-8.11-7.35-11"/>
      <path class="l" d="M108.1,104.71l0.28,0.32a5.87,5.87,0,0,0,.83.74,7.68,7.68,0,0,0,3,1.34,9.24,9.24,0,0,0,3.27.09,7.93,7.93,0,0,0,1-.22l0.39-.11h0a0.5,0.5,0,1,1,.27,1h0l-0.44.08a8.82,8.82,0,0,1-1.17.12,9.92,9.92,0,0,1-3.48-.45,8,8,0,0,1-3-1.7,6,6,0,0,1-.76-0.83Z"/>
      <path class="q" d="M110.08,95.8c2.2,0,4.65,2.9,7.14,4.37,0.11-4.44-1.16-9.33-3.79-10.76"/>
      <path class="br" d="M41.88,91.88l-0.41.45c-0.26.29-.63,0.7-1.11,1.17-0.23.24-.5,0.49-0.79,0.74a12.11,12.11,0,0,1-.93.77,15.1,15.1,0,0,1-2.22,1.44c-0.79.43-1.61,0.79-2.34,1.17a9.08,9.08,0,0,0-1.83,1.2,8.48,8.48,0,0,0-1.09,1.09l-0.38.45,0,0A0.5,0.5,0,1,1,30,99.76l0,0,0.44-.46a9.35,9.35,0,0,1,1.27-1.1A9.85,9.85,0,0,1,33.78,97c0.78-.34,1.61-0.64,2.41-1a14.69,14.69,0,0,0,2.25-1.25,11.83,11.83,0,0,0,1-.7c0.31-.23.58-0.45,0.83-0.68,0.51-.42.91-0.81,1.19-1.08Z"/>
      <path class="br" d="M110.08,95.8h0.36a4.15,4.15,0,0,1,1,.21A11.84,11.84,0,0,1,114,97.46c0.88,0.61,1.74,1.23,2.4,1.65s1.11,0.65,1.11.65a0.5,0.5,0,1,1-.45.9l0,0h0s-0.47-.31-1.1-0.82-1.42-1.24-2.21-1.93a11.54,11.54,0,0,0-2.33-1.69,4.06,4.06,0,0,0-.89-0.31Z"/>
      <g class="ag">
        <path class="l" d="M39.65,104.73l-0.44.56a4.48,4.48,0,0,1-.59.61,4.62,4.62,0,0,1-.88.68,8.87,8.87,0,0,1-1.15.61,9.84,9.84,0,0,1-1.38.45,9.23,9.23,0,0,1-1.53.26,9.72,9.72,0,0,1-1.61,0l-0.8-.11-0.78-.19a9.77,9.77,0,0,1-1.46-.53,8,8,0,0,1-1.26-.72,6.83,6.83,0,0,1-1-.81,5,5,0,0,1-.74-0.81,3.94,3.94,0,0,1-.48-0.69l-0.38-.63a0.16,0.16,0,0,1,.16-0.23l0.19,0,0.27,0.05c0.16,0,.42.08,0.67,0.15s0.58,0.12.92,0.18,0.67,0.11,1,.12,0.69,0.07,1.05.07,0.69,0,1,0,0.67,0,1,0,0.65,0.06,1,.06,0.65,0,1,.12a2.27,2.27,0,0,1,.5.07c0.17,0,.32,0,0.5.06,0.35,0.08.66,0.08,1,.17s0.71,0.12,1,.13,0.72,0.09,1,.12a3,3,0,0,0,.93,0c0.28-.06.55-0.06,0.71-0.08h0.43A0.17,0.17,0,0,1,39.65,104.73Z"/>
      </g>
      <g class="ag">
        <path class="l" d="M108.3,104.6h0.27c0.16,0,.43,0,0.71.08a3,3,0,0,0,.93,0c0.28,0,.65-0.09,1-0.12s0.71-.11,1-0.13,0.67-.09,1-0.17c0.17,0,.33,0,0.5-0.06a2.27,2.27,0,0,1,.5-0.07c0.33-.07.66-0.05,1-0.12s0.65-.05,1-0.06,0.65,0,1,0,0.68,0,1,0,0.7,0,1.05-.07,0.7-.08,1-0.12,0.66-.11.92-0.18,0.51-.1.67-0.15l0.27-.05,0.18,0a0.16,0.16,0,0,1,.16.23l-0.38.63a3.94,3.94,0,0,1-.48.69,5,5,0,0,1-.74.81,6.82,6.82,0,0,1-1,.81,8,8,0,0,1-1.26.72,9.76,9.76,0,0,1-1.46.53l-0.78.19-0.8.11a9.73,9.73,0,0,1-1.61,0,9.23,9.23,0,0,1-1.53-.26,9.84,9.84,0,0,1-1.38-.45,8.87,8.87,0,0,1-1.15-.61A4.62,4.62,0,0,1,109,106a4.48,4.48,0,0,1-.59-0.61l-0.44-.56a0.17,0.17,0,0,1,.14-0.27h0.16Z"/>
      </g>
      <path class="e" d="M117.23,100.18a11.88,11.88,0,0,0,5.06,3.23,8.26,8.26,0,0,1-5.21,3.93,14.23,14.23,0,0,1-1.93,3.26c2.84,4.37,5,10.68,5,19.74-0.05,13.47-3.66,23-7.42,24.56-0.3,10.35-9.38,18.76-14.86,18.76,0,6.94-9.06,9.41-11.11,10,0,2.83-6.58,6.5-13.16,6.55s-13.16-3.53-13.16-6.71c-4.39,0-11.4-4.6-11.4-9.76-7.94,0-15.46-8.58-16-19.36-5.08-1.39-8.29-13.39-8.29-24s3.2-17.34,6.91-21.72c-0.28-.43-0.53-0.89-0.77-1.36a8.32,8.32,0,0,1-5.56-4,11.79,11.79,0,0,0,5.08-3.26"/>
      <path class="ap" d="M30.39,100.05a18.63,18.63,0,0,1,1.39-7.86C30.49,83.45,29,74.12,29,71c0-2.65,3.18-8.61,3.18-11.66,0-4.63-4-11.86-5.16-16-0.46-1.67-5.29-3.43-6.18-7C20.2,33.52,19,27.37,19,27.37c-3.26,1-6.92,1.73-8.48,1-1-.49-1.59-1.81-0.68-4.63,0.75-2.33,3-15.83,3-15.83A6.39,6.39,0,0,1,20.41,3,134.77,134.77,0,0,0,34.77,4.39c7.27,0,13-1.06,15.42.61,2.2,1.51,3.32,6.93,5.86,7.78,3.71,1.23,30.71.7,36-1.06,4-1.32,5.56-10.59,10.59-10.59,5.33,0,13.9,9,19.06,9,3.05,0,10.44-.93,12.18,1.59,3,4.41-1.56,15.73-5.29,19.59-2.05,2.12-4.9,3.44-6.88,2.12-1.19-.79-3.11-1.4-4.24-0.53C113.35,36.08,119,43.48,119,52c0,4-6.35,9.26-6.35,13.76,0,7.06,3,18.2,3,25.94,0,0.14,0,.29,0,0.43a18.29,18.29,0,0,1,1.5,8.08"/>
      <path class="bs" d="M113.92,80.81c2.44,1.17,3.72,4.28,3.49,7.38,0,0-1.91-2.65-3.75-2.65"/>
      <path class="bs" d="M29.28,71.85a8.39,8.39,0,0,0-.84,8.38s0.83-3.09,2.34-3.53"/>
      <path class="bt" d="M31.89,87.69a6.62,6.62,0,0,1-4.41-3.06s3.28,0.9,4.41-.38"/>
      <path class="bs" d="M32.17,54.17a12.29,12.29,0,0,0-1.39,8.9s0.7-3.3,3.07-4"/>
      <path class="bt" d="M28.75,45.16S26.22,48.38,29,53c0,0-.3-2.87,1.28-3.53"/>
      <path class="bu" d="M21,30.82s-1.53,6.84,1.72,11.1c0,0-.3-2.87,1.28-3.53"/>
      <path class="bu" d="M25,40.28S24,42,26.15,45.26c0,0-.13-2.61,1.22-3.49"/>
      <path class="bs" d="M19.13,4.74a17,17,0,0,0-6.84-1.27s2.14,1.37,1.86,3"/>
      <path class="aq" d="M14.12,4.15s1.16,0.1,2.31.33a16.84,16.84,0,0,1,2.23.69,0,0,0,0,1,0,.05l0,0,0,0A4.13,4.13,0,0,1,17,5.55a3.57,3.57,0,0,1-.41,0l-0.41-.06-0.4-.11a2.77,2.77,0,0,1-.39-0.15,3.48,3.48,0,0,1-.67-0.37,3.28,3.28,0,0,1-.65-0.58l0,0a0,0,0,0,1,0-.06h0Z"/>
      <path class="bv" d="M28.17,4.6s-1.29-1.81-4.62-2.06c0,0,1,.92,1.79,1.8"/>
      <path class="bv" d="M129.93,10.63a17,17,0,0,1,7,.23s-2.91.87-3,2.57"/>
      <path class="bw" d="M134.93,11.23a3.28,3.28,0,0,1-.76.42,3.48,3.48,0,0,1-.74.22,2.77,2.77,0,0,1-.41.06l-0.42,0-0.42,0a3.56,3.56,0,0,1-.4-0.06,4.13,4.13,0,0,1-1.49-.62l0,0a0,0,0,0,1,0-.06l0,0a16.84,16.84,0,0,1,2.33-.19c1.17,0,2.33.18,2.33,0.18a0,0,0,0,1,0,0l0,0Z"/>
      <path class="bs" d="M130.81,26.79c0.88,3.26-1.3,7.07-3.82,8.71,0,0,1.06-3.85-.44-4.92"/>
      <path class="bs" d="M134,18.17a11.61,11.61,0,0,1-1,9.14s0.37-3.51-1.57-4.68"/>
      <path class="bt" d="M116.6,45.85a4.19,4.19,0,0,0,4.41-2s-3.5.19-4.49-2.19"/>
      <path class="bt" d="M118.28,49.3c2.59,1.78,2.41,7,1.31,9.85,0,0-.49-4.6-2.33-4.6"/>
      <path class="bs" d="M111.8,68.88c1.06,3.93,3.4,6.87,6,8,0,0-4.16.77-5.67-1.59"/>
    </g>
    <line class="e" x1="24.3" y1="125.89" x2="120.76" y2="125.89"/>
    <line class="e" x1="13.53" y1="125.89" x2="20.06" y2="125.89"/>
    <line class="e" x1="6.07" y1="125.89" x2="9.3" y2="125.89"/>
    <line class="e" x1="133.21" y1="125.89" x2="125.67" y2="125.89"/>
    <line class="e" x1="140.66" y1="125.89" x2="137.43" y2="125.89"/>
    <line class="v" x1="83.31" y1="121.72" x2="83.31" y2="124.48"/>
    <circle class="bx" cx="83.37" cy="130" r="6"/>
    <g>
      <circle class="by" cx="83.37" cy="130" r="5.5"/>
      <path class="bz" d="M83.37,125a5,5,0,1,1-5,5,5,5,0,0,1,5-5m0-1a6,6,0,1,0,6,6,6,6,0,0,0-6-6h0Z"/>
    </g>
    <path class="ca" d="M87.62,128.95a1.33,1.33,0,0,0-1.42-1.28,1.17,1.17,0,0,0-1.36,1.07H81.9a1.17,1.17,0,0,0-1.36-1.07A1.36,1.36,0,0,0,79.12,129a1.27,1.27,0,0,0,.37.88,1.28,1.28,0,0,0-.37.89,1.43,1.43,0,0,0,1.42,1.41,1.4,1.4,0,0,0,1.29-.74h3.09a1.45,1.45,0,0,0,2.71-.65,1.34,1.34,0,0,0-.37-0.92A1.34,1.34,0,0,0,87.62,128.95Z"/>
    <path class="cb" d="M87.25,129.86a1.3,1.3,0,0,0-1-2.2,1.17,1.17,0,0,0-1.36,1.07H81.9a1.17,1.17,0,0,0-1.36-1.07A1.36,1.36,0,0,0,79.12,129a1.27,1.27,0,0,0,.37.88"/>
    <path class="cc" d="M79.48,129.86a1.28,1.28,0,0,0-.37.89,1.43,1.43,0,0,0,1.42,1.41,1.4,1.4,0,0,0,1.29-.74h3.09a1.45,1.45,0,0,0,2.71-.65,1.34,1.34,0,0,0-.37-0.92"/>
  </g>
</svg>
