<svg xmlns="http://www.w3.org/2000/svg" xmlns:xlink="http://www.w3.org/1999/xlink" width="272" height="260" viewBox="0 0 272 260">
  <defs>
    <style>
      .a, .ah, .ai, .ak, .ar, .be, .bl, .bv, .bw, .i, .p, .r, .u, .z {
        fill: none;
      }

      .b {
        fill: #4db898;
      }

      .c {
        clip-path: url(#a);
      }

      .d {
        clip-path: url(#b);
      }

      .e {
        fill: #f9f2ed;
      }

      .f {
        fill: #f2eae3;
      }

      .g {
        opacity: 0.5;
      }

      .h {
        fill: #d1c8c3;
      }

      .i {
        stroke: #846664;
      }

      .ah, .ai, .ak, .ar, .bl, .bv, .bw, .bx, .by, .bz, .ca, .i, .p, .r, .z {
        stroke-linecap: round;
      }

      .ak, .ar, .bl, .bv, .bw, .bx, .by, .bz, .ca, .i, .r, .z {
        stroke-linejoin: round;
      }

      .bd, .bi, .i, .l, .n {
        opacity: 0.1;
      }

      .j {
        fill: #dbd2cc;
      }

      .k {
        fill: #ede3dc;
      }

      .bo, .bp, .bq, .br, .bx, .m {
        fill: #563934;
      }

      .n {
        fill: #846664;
      }

      .o {
        fill: #877870;
      }

      .p {
        stroke: #877870;
      }

      .ah, .ai, .be, .bh, .bk, .p, .u, .w {
        stroke-miterlimit: 10;
      }

      .ak, .bv, .bw, .bx, .by, .bz, .ca, .p, .u {
        stroke-width: 2px;
      }

      .q {
        fill: #529962;
      }

      .r {
        stroke: #2f3f32;
      }

      .s {
        clip-path: url(#c);
      }

      .t {
        fill: #ccd3cb;
      }

      .bv, .u, .z {
        stroke: #367a43;
      }

      .u {
        stroke-linecap: square;
        stroke-opacity: 0.2;
      }

      .aa, .v, .w, .y {
        fill: #367a43;
      }

      .w {
        stroke: #286331;
      }

      .x {
        clip-path: url(#d);
      }

      .ac, .bb, .br, .y {
        opacity: 0.2;
      }

      .aa, .bq {
        opacity: 0.4;
      }

      .ab {
        clip-path: url(#e);
      }

      .ad {
        fill: #9e3e3e;
      }

      .ae {
        fill: #e29898;
      }

      .af {
        fill: #c46565;
      }

      .ag {
        fill: #ede4e4;
      }

      .ah {
        stroke: #fff;
      }

      .ai {
        stroke: #c46565;
      }

      .aj {
        fill: url(#f);
      }

      .ak {
        stroke: #d1c8c3;
      }

      .al {
        clip-path: url(#g);
      }

      .am, .by {
        fill: #492e2a;
      }

      .an, .ca {
        fill: #60413e;
      }

      .ao {
        fill: #876c6b;
      }

      .ap {
        clip-path: url(#h);
      }

      .aq, .bz {
        fill: #3d2623;
      }

      .ar, .bw, .bx, .by, .bz, .ca {
        stroke: #2d1614;
      }

      .as {
        fill: #704b49;
      }

      .at {
        fill: #d6cac4;
      }

      .au {
        fill: #422926;
      }

      .av {
        fill: #604545;
      }

      .aw {
        clip-path: url(#i);
      }

      .ax, .bb, .bd {
        fill: #fff;
      }

      .ay {
        clip-path: url(#j);
      }

      .az {
        fill: #56351e;
      }

      .ba {
        fill: #161313;
      }

      .bc {
        fill: #0f0d0c;
      }

      .bc, .bm {
        opacity: 0.3;
      }

      .be {
        stroke: #161313;
      }

      .bf {
        clip-path: url(#k);
      }

      .bg {
        fill: #231f1d;
      }

      .bh {
        fill: #302c2b;
        stroke: #3a3635;
      }

      .bi, .bj {
        fill: #595656;
      }

      .bk {
        fill: #141110;
        stroke: #3f3a38;
      }

      .bl {
        stroke: #141110;
      }

      .bn {
        fill: #726f6e;
      }

      .bo {
        opacity: 0.8;
      }

      .bp {
        opacity: 0.6;
      }

      .bs {
        clip-path: url(#l);
      }

      .bt {
        clip-path: url(#m);
      }

      .bu {
        fill: #2d1614;
      }

      .cb {
        fill: #84605f;
      }
    </style>
    <clipPath id="a">
      <rect class="a" x="17" width="242" height="260"/>
    </clipPath>
    <clipPath id="b">
      <path class="a" d="M243,58.52c-3.88,4-9.25,6.5-13,4-2.24-1.5-5.87-2.65-8-1-7.77,6,3,20,3,36,0,7.62-12,17.5-12,26,0,13.33,5.75,34.37,5.75,49,0,0.27,0,.55,0,0.82,2,4.13,3,9.88,2.83,15.27a22.45,22.45,0,0,0,9.55,6.11,15.59,15.59,0,0,1-9.85,7.42,26.88,26.88,0,0,1-3.65,6.16c5.36,8.25,9.51,20.17,9.44,37.28C227,271,220.14,289,213.05,292c-0.57,19.55-17.72,35.44-28.07,35.44,0,13.11-17.12,17.77-21,18.86,0,5.35-12.43,12.28-24.85,12.37s-24.86-6.67-24.86-12.68c-8.29,0-21.54-8.69-21.54-18.44-15,0-29.2-16.21-30.25-36.57-9.59-2.62-15.66-25.29-15.66-45.28s6-32.76,13.06-41c-0.52-.82-1-1.68-1.45-2.56A15.72,15.72,0,0,1,48,194.51a22.27,22.27,0,0,0,9.59-6.15,35.19,35.19,0,0,1,2.62-14.85C57.72,157,55,139.37,55,133.57c0-5,6-16.26,6-22,0-8.75-7.58-22.4-9.75-30.28-0.87-3.15-10-6.48-11.67-13.3-1.3-5.28-3.53-16.88-3.53-16.88C29.9,52.9,23,54.35,20,52.91c-1.87-.92-3-3.41-1.29-8.74,1.42-4.4,5.63-29.9,5.63-29.9,1.25-6.5,7.89-10.52,14.31-9.22,0,0,17.68,2.62,27.12,2.62,13.73,0,24.52-2,29.13,1.16,4.15,2.86,6.27,13.09,11.06,14.69,7,2.33,58,1.33,68-2,7.47-2.49,10.5-20,20-20,10.06,0,26.25,17,36,17,5.77,0,19.72-1.75,23,3C258.76,29.85,250.05,51.24,243,58.52Z"/>
    </clipPath>
    <clipPath id="c">
      <path class="a" d="M169.71,202.08A120.89,120.89,0,0,1,140,205.45V226a111.22,111.22,0,0,0,30-3.5ZM143,223.72V207.1a97.84,97.84,0,0,0,24-2.73l0.26,16.52A90.16,90.16,0,0,1,143,223.72Z"/>
    </clipPath>
    <clipPath id="d">
      <path class="a" d="M170.7,211.54a48.51,48.51,0,0,1-14,.92l0.2,3a50.44,50.44,0,0,0,14-.92Z"/>
    </clipPath>
    <clipPath id="e">
      <path class="a" d="M188.14,124.73c-1.46,0-2.54.07-2.54,0.07-8.43.79-13.45,20.21-15.47,31-3,16-13.9,23-31,23-19.79,0-28-7-31-23-2-10.51-6.81-29.28-14.88-30.89L65.31,182.47c0.05,0.18-5.38,5.4-10.57,10.48,3.76,11.89,10.49,22.67,22.56,22.67,0-5,1.66-11.28,7.32-11.28,0,0,.05,4.11,3.69,4.11,0-3.23,3.31-4.08,3.31-4.08s1.56,3.08,4.58,3.08c0-2.33,3.51-2.17,3.51-2.17s2.37,8.41,8.85,8.41c0-6.53,6.73-5.82,6.73-5.82s1.86,6,4.85,6c0-3.67,4.88-3.75,4.88-3.75a8.68,8.68,0,0,0,8,5.25c0-2.63,2.75-4.46,4.42-4.46,0,3.26,4.49,4.08,4.49,4.08s1.51,3.6,7.63,3.6c0-6.53,8.22-8.32,8.22-8.32a11.31,11.31,0,0,0,9.86,5.65c0-3.14,3.29-5,7.27-5,0-3.62,5.9-4.23,5.9-4.23s2.75,5.82,8.66,5.82c0,0-.13-8.32,6.67-8.32,7,3.7,5.4,10.38,5.4,11.44,16.32,0,21.07-14.64,22.45-23,0.55-3.37-5.59-4.53-5.59-4.53l-30.26-63.33v-0.06Z"/>
    </clipPath>
    <linearGradient id="f" x1="139" y1="183.51" x2="139" y2="124.51" gradientUnits="userSpaceOnUse">
      <stop offset="0" stop-color="#846664" stop-opacity="0.02"/>
      <stop offset="1" stop-color="#846664" stop-opacity="0.1"/>
    </linearGradient>
    <clipPath id="g">
      <path class="a" d="M52,184.51c20.56,0,28.46-11.49,36.76-25.23,1.43-2.37.88-5.81,2.4-8.27,1.36-2.2,4.79-3.41,6.32-5.6A72.67,72.67,0,0,1,111,130.51c25.67-21,31.33-61,9-134l-85-1L-3.83,26Z"/>
    </clipPath>
    <clipPath id="h">
      <path class="a" d="M161,22.52c-3.5,10,1,16,18,36,0,0,24.07,31.34,8.58,49.43a8,8,0,0,0-1.91,6.54s4.62,28,7.33,37,8.66,27.74,14.73,28.76c8.09,1.36,17.68,12.11,23.4,14.44L264,10.52l-74-26Z"/>
    </clipPath>
    <clipPath id="i">
      <ellipse class="a" cx="105.78" cy="87.49" rx="14" ry="12"/>
    </clipPath>
    <clipPath id="j">
      <path class="a" d="M124.15,87.49c0,8.05-6.27,13.54-14,13.54s-14-5.49-14-13.54S102.42,74,110.15,74,124.15,79.44,124.15,87.49Z"/>
    </clipPath>
    <clipPath id="k">
      <path class="a" d="M139,127.49c-13,0-17,5.26-17,10.09s2.64,17.91,16.57,17.91h0.86c14.16,0,16.57-13.09,16.57-17.91S152,127.49,139,127.49Z"/>
    </clipPath>
    <clipPath id="l">
      <ellipse class="a" cx="167.89" cy="87.49" rx="14" ry="12"/>
    </clipPath>
    <clipPath id="m">
      <path class="a" d="M149.51,87.49c0,8.05,6.27,13.54,14,13.54s14-5.49,14-13.54S171.25,74,163.51,74,149.51,79.44,149.51,87.49Z"/>
    </clipPath>
  </defs>
  <title>iamsteve-mascots-final</title>
  <path class="b" d="M237.06,260a136,136,0,1,0-202.13,0H237.06Z"/>
  <g class="c">
    <g class="d">
      <path class="e" d="M106,23.52c7,2.33,58,1.33,68-2,7.47-2.49,39,93.49,39,102,0,13.33,5.75,34.37,5.75,49,0,15.62-8.25,31.62-8.25,42,0,13.88-146.5,17.87-146.5-9.87,0-10.75-9-60.51-9-71.06,0-5,6-16.26,6-22C61,102.8,101.21,21.92,106,23.52Z"/>
      <path class="e" d="M92.75,327.5c0,9.75,13.25,18.45,21.54,18.45,0,6,12.43,12.76,24.85,12.67s24.85-7,24.85-12.37c3.86-1.09,21-5.75,21-18.86,10.52,0,28.07-16.39,28.07-36.42,0-18.23-4.5-41.06-11.59-47.53H80.05s-17.61,6-17.61,45.09C62.44,310,77.17,327.5,92.75,327.5Z"/>
      <path class="e" d="M81.35,190.51s-34.51,7.67-34.51,55.14c0,21.26,6.86,45.54,17.53,45.54,0-17.27,9.13-21.52,9.13-21.52S72,294.12,88.66,306.39c0-8.51,7.51-15.78,13.62-15.78,0,19.56,8,31.64,14.32,31.64a18.15,18.15,0,0,1,11.79-17.53S133.17,328,142.88,328c0-29.16,11.91-35.94,11.91-35.94s5.37,21.47,18.16,21.47c0-7.4-.56-21.11-0.56-21.11s14.41-.38,14.41,16.14c18.5-9.65,12.92-33.7,12.92-33.7S211,275.7,211,292.4c7.77,0,16-18.9,16.1-46.83,0.19-47.81-32.47-55.06-32.47-55.06H81.35Z"/>
      <path class="f" d="M48,237.34s2.54,3.32,4.47,3.32C53.73,231.85,64,230.34,64,230.34s-2.38,18.59,7.78,25.94c2.38-7.54,10.38-7.78,10.38-7.78s1,28.53,17.29,33.72c1.19-11.06,10.38-13,10.38-13s3.17,10.66,14.7,13a18.55,18.55,0,0,1,14.7-16.43s2.59,13.83,13.65,16.43c0.88-13.75,7.1-17.29,7.1-17.29s3.17,10.37,13.83,10.37a36.67,36.67,0,0,1,6.05-16.43s2.74,4.32,9.51,4.32c0-9.41,10.38-12.1,10.38-12.1s0.86,13,11.24,13c0-14.7,3.46-22.48,3.46-22.48s6.6-.13,7.25,6c2-2.36,3.77-8.3,3.77-8.3s-5.37-33.25-22.12-40.3L68.38,195.4C58.11,206.08,48,237.34,48,237.34Z"/>
      <path class="f" d="M81.42,190.8s-0.42.21-1.21,0.65-1.9,1.12-3.27,2-2.95,2.1-4.68,3.5a59.54,59.54,0,0,0-5.33,5.13c-0.46.48-.9,1-1.34,1.55s-0.88,1.09-1.3,1.66S63.43,206.43,63,207s-0.85,1.2-1.25,1.84a55.53,55.53,0,0,0-4.3,8.35c-0.62,1.5-1.18,3.06-1.72,4.65L55,224.31l-0.64,2.49a81.36,81.36,0,0,0-1.72,10.38c-0.36,3.56-.53,7.08-0.56,10.73,0,1.71,0,3.52.08,5.26s0.16,3.49.28,5.19c0.26,3.41.56,6.7,1,9.8,0.23,1.55.53,3,.79,4.48s0.57,2.82.89,4.14a50.77,50.77,0,0,0,2.31,6.94,19,19,0,0,0,2.85,4.66,7.85,7.85,0,0,0,2.8,2.09,5.88,5.88,0,0,0,.91.33l0.33,0.1,0.1,0a0.29,0.29,0,0,1-.1.57l-0.36,0a5.61,5.61,0,0,1-1.06-.12,8.42,8.42,0,0,1-3.62-1.65,18.08,18.08,0,0,1-4.08-4.55,38.63,38.63,0,0,1-3.51-7.05A84.68,84.68,0,0,1,47.17,259a107.61,107.61,0,0,1-.87-11,98.18,98.18,0,0,1,.39-11.43,73.76,73.76,0,0,1,2.07-11.26,56.38,56.38,0,0,1,3.87-10.4A49,49,0,0,1,64.51,199.3a44.9,44.9,0,0,1,11.76-7.37,29.76,29.76,0,0,1,5-1.71,0.3,0.3,0,0,1,.19.56Z"/>
      <path class="f" d="M210.95,292.1l0.34-.11a6.92,6.92,0,0,0,.84-0.41,8,8,0,0,0,2.41-2.43,22.92,22.92,0,0,0,2.35-4.92c0.33-1,.69-2.11,1-3.27s0.63-2.41.88-3.73a83.77,83.77,0,0,0,1.41-8.57c0.19-1.53.39-3.11,0.53-4.74s0.31-3.28.41-5,0.24-3.41.3-5.16,0.16-3.52.18-5.31l0.06-2.69q0-1.34,0-2.69c0-2-.13-3.57-0.18-5.33a93.78,93.78,0,0,0-1.28-10.44c-0.37-1.68-.68-3.37-1.15-5-0.2-.82-0.45-1.62-0.71-2.41s-0.46-1.59-.76-2.35a48.41,48.41,0,0,0-3.94-8.54,47,47,0,0,0-10.05-12.19,42.17,42.17,0,0,0-4.61-3.5,36,36,0,0,0-3.25-1.95c-0.78-.42-1.2-0.6-1.2-0.6l-0.05,0a0.3,0.3,0,0,1,.18-0.56s0.48,0.1,1.34.37a33.15,33.15,0,0,1,3.62,1.39,42.27,42.27,0,0,1,11.44,7.67,48.07,48.07,0,0,1,11,16,63.63,63.63,0,0,1,3.45,10.45,83.88,83.88,0,0,1,1.75,11.22c0.11,1.9.29,3.82,0.29,5.69s0.08,3.79,0,5.64c-0.11,3.74-.37,7.41-0.78,10.95a88.57,88.57,0,0,1-4.14,19,42.25,42.25,0,0,1-3.19,7.13,20.3,20.3,0,0,1-3.7,4.8,8.25,8.25,0,0,1-3.42,2,5.53,5.53,0,0,1-1.07.17H211a0.3,0.3,0,0,1-.1-0.58Z"/>
      <g class="g">
        <path class="h" d="M53.47,188l0.44,1.64c0.14,0.52.31,1.15,0.54,1.87s0.45,1.53.77,2.4,0.62,1.82,1,2.8,0.82,2,1.3,3.06,1,2.1,1.61,3.16a35.9,35.9,0,0,0,2,3.09l0.51,0.76,0.57,0.72c0.39,0.47.74,1,1.16,1.4l1.24,1.29c0.42,0.41.89,0.77,1.32,1.14a9.62,9.62,0,0,0,1.35,1,14.47,14.47,0,0,0,1.36.87,16.55,16.55,0,0,0,2.7,1.21l1.24,0.43,1.16,0.24,1,0.21c0.32,0,.62,0,0.88.07l1.68,0.12a0.1,0.1,0,0,1,0,.2h0s-0.61.1-1.73,0.23c-0.28,0-.59.07-0.93,0.08s-0.7,0-1.1-.06l-1.27-.08c-0.44-.07-0.89-0.19-1.37-0.3a14.38,14.38,0,0,1-3-1,15.94,15.94,0,0,1-1.55-.82,9,9,0,0,1-1.53-1c-0.49-.38-1-0.75-1.49-1.17s-0.93-.88-1.39-1.34-0.84-1-1.27-1.48L60,208l-0.56-.79a36.66,36.66,0,0,1-2-3.3,18.51,18.51,0,0,1-.81-1.69c-0.26-.56-0.51-1.12-0.71-1.68s-0.44-1.1-.62-1.64-0.33-1.08-.49-1.6a28.59,28.59,0,0,1-.75-3c-0.23-.91-0.34-1.78-0.46-2.54s-0.19-1.42-.23-2c-0.09-1.09-.11-1.72-0.11-1.72v0A0.1,0.1,0,0,1,53.47,188Z"/>
      </g>
      <g class="g">
        <path class="h" d="M201.53,215.59l1.77-.08c0.56,0,1.23-.14,2-0.23,0.39,0,.79-0.16,1.22-0.24a10.86,10.86,0,0,0,1.33-.34c0.45-.15.94-0.27,1.42-0.47s1-.39,1.47-0.63,1-.5,1.49-0.8,1-.61,1.46-1a18.85,18.85,0,0,0,2.74-2.46,22.83,22.83,0,0,0,2.34-3,35.73,35.73,0,0,0,5-13.08,40.46,40.46,0,0,0,.71-6.37,0.1,0.1,0,0,1,.2,0v0a17.49,17.49,0,0,1,.25,1.8,29,29,0,0,1,0,4.78,27.71,27.71,0,0,1-.39,3.19,28.19,28.19,0,0,1-.81,3.52,27,27,0,0,1-1.34,3.67,29.71,29.71,0,0,1-1.94,3.59,24.37,24.37,0,0,1-2.61,3.21l-0.72.73-0.78.65a19,19,0,0,1-1.6,1.19,17.65,17.65,0,0,1-1.66,1c-0.56.28-1.14,0.5-1.68,0.75s-1.11.38-1.64,0.55-1.07.23-1.57,0.34a17,17,0,0,1-2.75.28,19,19,0,0,1-2.11-.08c-1.13-.15-1.78-0.27-1.78-0.27h0A0.1,0.1,0,0,1,201.53,215.59Z"/>
      </g>
      <line class="i" x1="139" y1="166.34" x2="139" y2="156.28"/>
      <path class="j" d="M202.94,212.49l-1.4.46c-0.91.32-2.2,0.8-3.89,1.47-0.85.32-1.77,0.71-2.77,1.15s-2.09.85-3.23,1.39c-2.31,1-4.88,2.2-7.72,3.46-1.4.68-2.89,1.35-4.41,2.06a8.83,8.83,0,0,0-2.3,1.21,16,16,0,0,0-2,2.51,4.83,4.83,0,0,1-2.33,1.81c-0.87.35-1.79,0.65-2.69,1-1.81.68-3.72,1.27-5.65,1.9a73.81,73.81,0,0,1-12.37,2.47,83,83,0,0,1-13.2.13h-0.37l-0.19,0-0.38-.13a3.4,3.4,0,0,1-.75-0.48c-0.5-.39-1-0.93-1.48-1.4a4.24,4.24,0,0,0-1.54-1,9.37,9.37,0,0,0-1.62-.24c-1.09-.11-2.16-0.24-3.19-0.42s-2.08-.3-3.1-0.5c-2-.39-4.07-0.79-6-1.28s-3.91-.95-5.81-1.44c-3.78-1-7.37-2.2-10.76-3.31s-6.53-2.3-9.44-3.36l-7.88-3-6-2.34-5.28-2,3.73-8.19,5,2.26c1.61,0.71,3.56,1.56,5.81,2.51s4.79,2,7.58,3.06,5.82,2.18,9,3.25,6.65,2.08,10.22,3,7.27,1.66,11,2.2a92.06,92.06,0,0,0,11.46.9,91.85,91.85,0,0,0,11.47-.73,110.27,110.27,0,0,0,11-2.08c3.56-.89,7-1.87,10.19-2.94,1.61-.52,3.16-1.09,4.67-1.62s3-1.1,4.33-1.65c2.77-1.09,5.29-2.16,7.52-3.13s4.16-1.85,5.73-2.59,2.85-1.35,3.7-1.75l1.32-.63Z"/>
      <path class="k" d="M145,22.52c4.59,15,17.09,27.48,36,38l-8-45Z"/>
      <path class="f" d="M107,129.51l10,38a11.88,11.88,0,0,1-7-6l-6.68-24C103.06,134.52,104.45,131.89,107,129.51Z"/>
      <path class="f" d="M168,162.51l-5,4s3.52-27.37,13.36-44.71c2.71-4.78,8.26-10.58,11.22-13.85,2.55-3.24.42,16.57,0.42,16.57C174.49,122.19,171.12,155.67,168,162.51Z"/>
      <path class="f" d="M170,155.51c-1.87,10-8.89,14-16.75,14.26a29.18,29.18,0,0,1-9.25-1.3,33.36,33.36,0,0,1-4.16-1.57,2,2,0,0,0-1.68,0,33.35,33.35,0,0,1-4.28,1.6,29.16,29.16,0,0,1-9.06,1.26c-7.89-.22-14.94-4.26-16.82-14.26l1,14s8.17,11.36,11,11.74a57.67,57.67,0,0,0,11,0c2-.25,5.94-1.92,8-2,3-.12,9,1.89,12,2,2.76,0.1,8.5.17,11-1,2.88-1.35,8-14.72,9-17.74C171.56,160.83,170,155.51,170,155.51Z"/>
      <g class="l">
        <path class="m" d="M171.66,244.6l-0.06.84c0,0.15,0,.27,0,0.48l-0.11.68c0,0.24-.08.52-0.14,0.78s-0.15.53-.24,0.82a12.16,12.16,0,0,1-2,3.8,13.6,13.6,0,0,1-4.07,3.55,15.4,15.4,0,0,1-5.92,1.88c-0.56,0-1.07.06-1.7,0.06a12.43,12.43,0,0,1-1.64-.11,14.59,14.59,0,0,1-3.46-.86,14.78,14.78,0,0,1-3.28-1.75,14.24,14.24,0,0,1-2.8-2.7,13.07,13.07,0,0,1-1.9-3.54,10.93,10.93,0,0,1-.49-2,7.53,7.53,0,0,1-.13-1l0-.51,0-.26v-0.22a0.41,0.41,0,0,1,0-.13,16.13,16.13,0,0,1,.18-1.89,10.83,10.83,0,0,1,.5-2,13.07,13.07,0,0,1,1.9-3.54,14.24,14.24,0,0,1,2.8-2.7,14.78,14.78,0,0,1,3.28-1.75,15,15,0,0,1,12.72,1,13.6,13.6,0,0,1,4.07,3.55,12.16,12.16,0,0,1,2,3.8,12.86,12.86,0,0,1,.52,2.73l0.06,1v0.1Zm-4-.1,0-.71a5.25,5.25,0,0,0-.08-0.84,10.63,10.63,0,0,0-.2-1.13,11.48,11.48,0,0,0-1.09-3,10.67,10.67,0,0,0-2.66-3.26,9.69,9.69,0,0,0-4.65-2,13.34,13.34,0,0,0-1.45-.09,10.71,10.71,0,0,0-1.43.15,9.23,9.23,0,0,0-2.8.93,10.36,10.36,0,0,0-2.41,1.8,11.58,11.58,0,0,0-1.78,2.42,13.19,13.19,0,0,0-1.07,2.77,13.39,13.39,0,0,0-.35,3c0-.19,0,0,0-0.08v0.71a4.58,4.58,0,0,0,.07.73c0,0.49.17,1,.26,1.45a13.19,13.19,0,0,0,1.07,2.77,11.58,11.58,0,0,0,1.78,2.42,10.36,10.36,0,0,0,2.41,1.8,9.3,9.3,0,0,0,2.77.93,10.56,10.56,0,0,0,1.5.15,13.52,13.52,0,0,0,1.37-.09,9.63,9.63,0,0,0,4.7-2,10.67,10.67,0,0,0,2.66-3.26,11.48,11.48,0,0,0,1.09-3,10.34,10.34,0,0,0,.19-1.09l0.06-.41c0-.13,0-0.31,0-0.44l0-.85v0.1Z"/>
      </g>
      <path class="n" d="M151.53,133.51H126.47a4.76,4.76,0,0,0-4.47,5v16c0,15.71,7.61,19,17,19h0c9.39,0,17-3.37,17-19v-16A4.76,4.76,0,0,0,151.53,133.51Z"/>
      <path class="o" d="M133.88,168.51a19.27,19.27,0,0,0,10,0L139,167Z"/>
      <path class="h" d="M134.15,169.47s-0.48.18-1.4,0.44a30.44,30.44,0,0,1-3.82.8c-0.8.11-1.68,0.19-2.62,0.22-0.47,0-.95,0-1.44,0l-1.47-.09c-0.5,0-1-.13-1.58-0.2l-1.58-.32c-0.52-.15-1.05-0.29-1.57-0.46s-1-.38-1.54-0.62a15.49,15.49,0,0,1-2.85-1.66,11,11,0,0,1-1.25-1l-0.59-.54-0.52-.58a9.83,9.83,0,0,1-.94-1.19,8.4,8.4,0,0,1-.78-1.21,15,15,0,0,1-1.74-4.46c-0.12-.64-0.27-1.18-0.3-1.64C108,156,108,155.51,108,155.51s0.19,0.49.48,1.35c0.13,0.43.38,0.93,0.62,1.51s0.59,1.19.93,1.87a19.37,19.37,0,0,0,1.35,2l0.39,0.52,0.44,0.49a8.45,8.45,0,0,0,1,1l0.51,0.47,0.55,0.43a9.28,9.28,0,0,0,1.17.82,15.45,15.45,0,0,0,2.58,1.32c0.45,0.19.92,0.32,1.38,0.48l1.41,0.37,1.41,0.25,1.37,0.15,1.39,0.08c0.45,0,.89,0,1.31,0,0.85,0,1.66-.08,2.41-0.16a30.83,30.83,0,0,0,3.59-.58c0.84-.18,1.36-0.31,1.36-0.31a1,1,0,0,1,.6,1.91Z"/>
      <path class="h" d="M170,155.51s0,0.53-.15,1.44c0,0.46-.18,1-0.31,1.65a14.92,14.92,0,0,1-1.76,4.48,8.84,8.84,0,0,1-.79,1.21l-0.44.61-0.51.58a9.35,9.35,0,0,1-1.11,1.12,11.82,11.82,0,0,1-1.26,1,16,16,0,0,1-2.87,1.65c-0.51.23-1,.41-1.54,0.61s-1.05.32-1.58,0.45a23,23,0,0,1-3.14.51,25.69,25.69,0,0,1-3,.08c-0.94,0-1.82-.12-2.62-0.23a30.38,30.38,0,0,1-3.83-.82c-0.91-.27-1.41-0.45-1.41-0.45h0a1,1,0,0,1,.6-1.91s0.49,0.13,1.36.32a30.73,30.73,0,0,0,3.6.6c0.75,0.09,1.56.15,2.42,0.17a23.42,23.42,0,0,0,2.69-.06,22.8,22.8,0,0,0,2.83-.39c0.47-.1.94-0.25,1.42-0.36s0.93-.3,1.39-0.48a16.17,16.17,0,0,0,2.6-1.32,10.07,10.07,0,0,0,1.17-.82l0.56-.43,0.51-.47,0.51-.47,0.45-.5a9.79,9.79,0,0,0,.84-1,19.94,19.94,0,0,0,1.35-2c0.33-.68.7-1.3,0.93-1.87s0.49-1.07.62-1.52C169.81,156,170,155.51,170,155.51Z"/>
      <path class="p" d="M144,168.47a33.36,33.36,0,0,1-4.16-1.57,2,2,0,0,0-1.68,0,33.35,33.35,0,0,1-4.28,1.6"/>
      <path class="q" d="M200.5,208.43c-20,10-41.17,17.73-62,17.57-20.51-.16-41-8.1-62-17.57V190c43,20.21,84,20.69,124,.86v17.57Z"/>
      <line class="r" x1="157.5" y1="223.5" x2="157.5" y2="232.5"/>
      <g class="s">
        <path class="t" d="M169.81,202.08a119.25,119.25,0,0,1-29.62,3.37V226a112,112,0,0,0,30-3.5Zm-26.75,21.64V207.1a96.43,96.43,0,0,0,24-2.73l0.28,16.52A90.54,90.54,0,0,1,143.05,223.72Z"/>
        <path class="u" d="M140,226a111.22,111.22,0,0,0,30-3.5"/>
      </g>
      <path class="v" d="M169.74,202.08l0.34,20.43A111.62,111.62,0,0,1,142.21,226l-2.09,0V205.45a119.26,119.26,0,0,0,29.62-3.37m-25.07,21.65a90.26,90.26,0,0,0,22.54-2.85l-0.28-16.52a96.43,96.43,0,0,1-24,2.73v16.62l1.69,0m25.07-22.65a1,1,0,0,0-.25,0,118.22,118.22,0,0,1-29.37,3.34,1,1,0,0,0-1,1V226a1,1,0,0,0,1,1l2.11,0a112.79,112.79,0,0,0,28.14-3.56,1,1,0,0,0,.74-1l-0.34-20.43a1,1,0,0,0-1-1h0Zm-25.75,7a97.83,97.83,0,0,0,22-2.45l0.24,14.48a90.27,90.27,0,0,1-21.53,2.61H144V208.09h0Z"/>
      <rect class="w" x="154.5" y="211" width="6" height="6" rx="3" ry="3"/>
      <g class="x">
        <path class="t" d="M170.7,211.54a48.51,48.51,0,0,1-14,.92l0.2,3a50.44,50.44,0,0,0,14-.92Z"/>
        <polygon class="y" points="171.6 215.19 168.15 215.48 168.01 211.3 170.97 211.01 171.6 215.19"/>
        <polygon class="y" points="161.37 216.11 157.06 216.4 156.93 212.22 161.38 211.92 161.37 216.11"/>
      </g>
      <path class="z" d="M170.7,211.54a48.51,48.51,0,0,1-14,.92l0.2,3a50.44,50.44,0,0,0,14-.92Z"/>
      <path class="v" d="M193.61,200.41c2.28,3.24,4.35,6.39,5.23,9.06l3.35-1.59Z"/>
      <path class="v" d="M79.59,209.6s2.49-6.11,8.21-6.62l-4.4-2.58-8.8,5.7Z"/>
      <path class="aa" d="M207.67,198.25S182,218,139,218c-40.67,0-68.67-19.74-68.67-19.74L140,200Z"/>
      <g class="ab">
        <path class="f" d="M188.14,124.73c-1.46,0-2.54.07-2.54,0.07-8.43.79-13.45,20.21-15.47,31-3,16-13.9,23-31,23-19.79,0-28-7-31-23-2-10.51-6.81-29.28-14.88-30.89L49.94,162.09c0.1,0.33.55,53.53,27.36,53.53,0-5,1.66-11.28,7.32-11.28,0,0,.05,4.11,3.69,4.11,0-3.23,3.31-4.08,3.31-4.08s1.56,3.08,4.58,3.08c0-2.33,3.51-2.17,3.51-2.17s2.37,8.41,8.85,8.41c0-6.53,6.73-5.82,6.73-5.82s1.86,6,4.85,6c0-3.67,4.88-3.75,4.88-3.75a8.68,8.68,0,0,0,8,5.25c0-2.63,2.75-4.46,4.42-4.46,0,3.26,4.49,4.08,4.49,4.08s1.51,3.6,7.63,3.6c0-6.53,8.22-8.32,8.22-8.32a11.31,11.31,0,0,0,9.86,5.65c0-3.14,3.29-5,7.27-5,0-3.62,5.9-4.23,5.9-4.23s2.75,5.82,8.66,5.82c0,0-.13-8.32,6.67-8.32,7,3.7,5.4,10.38,5.4,11.44,23,0,23-28.77,23-28.77l-36.41-62.13v-0.06Z"/>
        <g class="ac">
          <polygon class="h" points="109.38 189.01 114.5 188.42 117.7 192.5 122.58 192.49 126.97 193.66 131.03 195.67 135.02 197.84 138.86 202.79 143.56 200.58 145.92 195.55 150.24 194.88 153.47 191.76 158.96 193.68 162.03 190.2 165.62 187.88 170.93 188.22 171.16 182.02 176.69 180.94 178.9 176.89 178.53 172.19 177.01 167.59 180 163.67 180.95 159.44 181.19 155.1 180.47 150.62 183.86 146.76 180.43 141.87 182.81 137.85 185.08 133.82 182.09 129 186.82 125.33 187.62 121.08 186.62 116.55 187.65 112.32 186.47 108.81 183.69 106.22 179.45 106.05 175.47 104.2 171.21 104.17 166.94 104.22 162.41 105.86 158.88 101.12 154.5 101.8 150.05 103.02 145.97 101.78 141.7 101.76 137.92 98.6 133.49 100.07 129.34 98.79 125.82 103.01 121.26 99.15 117.49 101.47 113.66 103.3 109.72 104.28 105.64 104.19 101.77 105.71 97.3 102.63 92.12 103.56 92.93 108.94 95.69 113.03 91.91 117.58 92.41 121.84 96.58 125.82 95.4 130.19 93.68 134.6 93.87 138.88 98.32 142.85 97.96 147.16 95.04 151.66 97.34 155.79 97.86 160.04 97.11 164.38 99.82 168.49 98.17 172.9 98.48 177.04 101.01 180.38 103.01 183.86 106.32 186.15 109.38 189.01"/>
          <path class="h" d="M109.38,189.51c1.38-.16,3.57-0.89,4.9-0.57,0.46,0.11-.44-0.27,0,0a4.13,4.13,0,0,1,.61.77c0.65,0.83,1.27,1.71,2,2.5,1.51,1.72,4.9.57,7.11,1.16a35.43,35.43,0,0,1,8,3.36,9.62,9.62,0,0,1,3.38,2.31l3.18,4.1a0.51,0.51,0,0,0,.61.08c1.5-.7,3.94-1.3,5-2.58a19.61,19.61,0,0,0,1.78-3.79c0.15-.31.74-1.09,0.26-0.83a7,7,0,0,1,1.87-.29,8.33,8.33,0,0,0,2.63-.53,11.74,11.74,0,0,0,2.69-2.6,2,2,0,0,1,.46-0.45c-0.21.08-.58,0.11-0.14,0.19a12.44,12.44,0,0,1,1.77.62l3.42,1.2a0.49,0.49,0,0,0,.49-0.13,24,24,0,0,1,5.17-4.83c1.28-.83,1.1-0.83,2.59-0.74l3.85,0.25a0.51,0.51,0,0,0,.5-0.5c0.06-1.68.62-4,.21-5.64-0.18-.71.28-0.34-0.29-0.09a5.44,5.44,0,0,1,1.1-.21c1.2-.23,2.41-0.42,3.6-0.7,1.53-.36,1.78-1.67,2.52-3,0.9-1.65.77-2.29,0.62-4.23a17.58,17.58,0,0,0-.94-4.55c-0.16-.49-0.29-1-0.49-1.49-0.14-.32-0.13-1-0.28-0.47,0.24-.82,1.38-1.81,1.9-2.49,1.95-2.55,2.07-5.8,2.25-8.93A22,22,0,0,0,181,151c-0.16-.83-0.26.09,0-0.3a15.21,15.21,0,0,1,1.15-1.31l2-2.29a0.51,0.51,0,0,0,.08-0.61l-2.41-3.43a6.19,6.19,0,0,1-1-1.41c0.2,0.73.49-.42,0.81-1,1.3-2.2,2.56-4.41,3.81-6.64a0.5,0.5,0,0,0,0-.5L183.89,131a9.27,9.27,0,0,0-1-1.6,2.66,2.66,0,0,1-.27-0.44c-0.12-.24-0.42.53,0.08,0.24,1.38-.82,3.93-2.43,4.63-3.86a9.76,9.76,0,0,0,.37-6.13,21.2,21.2,0,0,1-.55-2.71c0.1-1.27.83-2.49,0.92-3.76a8.17,8.17,0,0,0-1.3-4.28,5.63,5.63,0,0,0-4.48-2.74,17.64,17.64,0,0,1-2.93-.21c-1.21-.39-2.28-1.26-3.5-1.62-1.54-.46-3.46-0.17-5.08-0.16a24.48,24.48,0,0,0-3.85,0,21.81,21.81,0,0,0-3.48,1.23,3.7,3.7,0,0,0-.7.25c-0.49.36-.38,0,0,0.3a7.76,7.76,0,0,1-1.11-1.49l-2.34-3.15a0.53,0.53,0,0,0-.56-0.23c-1.4.22-2.83,0.37-4.22,0.66s-2.7.89-4.08,1.1c-0.92.14-2.47-.63-3.79-0.93a17.32,17.32,0,0,0-3.77-.2,5,5,0,0,1-1,0,1.06,1.06,0,1,0-.11-0.1,17.5,17.5,0,0,1-2.16-1.81c-0.76-.63-1.14-1.21-2.06-1.16a10.73,10.73,0,0,0-2.44.81,14.58,14.58,0,0,0-1.54.56c-1.28,0-2.86-.89-4.09-1.27a0.49,0.49,0,0,0-.49.13l-1.76,2.11a13.31,13.31,0,0,0-1.15,1.38,3.67,3.67,0,0,0-.4.48c-0.21.57-.39-0.49,0.45,0.22-1.51-1.27-3-2.55-4.52-3.83a0.52,0.52,0,0,0-.61-0.08,43.57,43.57,0,0,1-7.36,4,18.72,18.72,0,0,1-3.91,1c-1.31.17-2.73-.28-4-0.07s-2.34,1-3.55,1.34c-0.58.15-.31,0.16-0.25,0.18a2.58,2.58,0,0,1-.67-0.46c-0.77-.6-1.61-1.11-2.41-1.66a2.82,2.82,0,0,0-2.14-.85,36.74,36.74,0,0,0-4.71.84,0.51,0.51,0,0,0-.35.62c0.26,1.69.21,3.86,0.84,5.44A13.88,13.88,0,0,0,94,111.44a6.91,6.91,0,0,0,1,1.42c0.52,0.43.48-.24,0.08,0.16-0.81.81-1.5,1.8-2.23,2.68a6.71,6.71,0,0,0-1.4,1.75,9.67,9.67,0,0,0,.65,4.75,11.76,11.76,0,0,0,2.07,2l1.3,1.24c0.37,0.36.74,1.07,0.64,0.33,0.11,0.81-.62,2.27-0.82,3s-0.39,1.37-.65,2c-0.74,2-1.45,3.33-1.36,5.42,0.11,2.43,0,2.74,1.76,4.31,0.74,0.66,2.43,1.66,2.86,2.55-0.17-.37-0.06.28-0.13,0.71a23.74,23.74,0,0,0-.2,2.37c-0.11,1.59-1.86,3.56-2.94,5.22a0.5,0.5,0,0,0,0,.5c1.63,2.92,2.83,4.72,2.75,8.14,0,1.36-.95,3-0.74,4.33s1.86,2.71,2.49,3.93c0.15,0.29.22,0.5,0.21,0.1a3.14,3.14,0,0,1-.34.9c-0.38.92-.77,1.88-1.06,2.84a10.6,10.6,0,0,0,0,4.14c0.14,1.37,1,2.12,1.82,3.24a37.73,37.73,0,0,1,2.38,3.8c0.76,1.3,2,1.86,3.19,2.74a38.06,38.06,0,0,1,3.71,3.3,0.5,0.5,0,0,0,.71-0.71,54.82,54.82,0,0,0-5.72-4.71c-1.41-1-2.53-3.77-3.83-5.49-1-1.28-1.19-1.35-1.3-2.78a7.89,7.89,0,0,1,.2-3.78c0.31-.83,1.33-2.47,1.24-3.4s-1.51-2.44-2.07-3.29c-0.11-.17-0.76-1.38-0.64-0.74a6.73,6.73,0,0,1,.32-1.88,14.49,14.49,0,0,0,.36-3.11,12.29,12.29,0,0,0-2.42-7.33c-0.52-.68-0.23-0.61-0.29-0.39a8.89,8.89,0,0,1,1.22-1.88,13.06,13.06,0,0,0,1.66-2.7,11,11,0,0,0,.34-4c-0.17-.93-0.87-1.29-1.62-2l-2.11-1.89a3.93,3.93,0,0,1-.69-0.61c-0.14-.22.1,0.42,0-0.36a10.71,10.71,0,0,1,0-4c0.34-1.38,1.12-2.66,1.55-4s0.78-2.88,1.17-4.31a0.5,0.5,0,0,0-.13-0.49l-3.09-3c-1.27-1.21-1-.83-1.19-2.81s-0.55-1.59.58-3l2.8-3.37a0.51,0.51,0,0,0,.08-0.61c-0.84-1.25-2.26-2.74-2.73-4.1a30.89,30.89,0,0,1-.8-5.25l-0.35.62c1.48-.26,3.64-1.13,5.13-0.91-0.51-.07,1.35,1.09,1.71,1.34a9.9,9.9,0,0,0,2.26,1.56c1.29,0.36,2.61-.81,3.9-1.15s2.95,0.06,4.43-.1a22.81,22.81,0,0,0,8.12-2.9c0.76-.41,1.49-0.92,2.23-1.37,0.42-.26.84-0.54,1.28-0.78,0.22-.13-0.59-0.46-0.06.08,1.28,1.3,2.83,2.4,4.22,3.57a0.51,0.51,0,0,0,.71,0,35.24,35.24,0,0,0,3-3.64c0.1-.16.68-0.64,0.26-0.5s0.2,0.14.4,0.24a14.65,14.65,0,0,0,2.83.88c1.25,0.31,2.12-.2,3.37-0.61A7.21,7.21,0,0,0,137.8,99c-0.38,0,.26.29,0.43,0.46,0.37,0.37.82,0.69,1.23,1,0.91,0.76,1.55,1.54,2.67,1.73,1.55,0.27,3.09-.14,4.63.28,1.19,0.33,2.45,1,3.67.89a38.85,38.85,0,0,0,4.27-1.16c0.92-.2,1.88-0.29,2.81-0.44,0.42-.06.84-0.16,1.26-0.2,0.24,0-.43-0.51-0.06.08,0.94,1.54,2.19,2.95,3.27,4.39a0.51,0.51,0,0,0,.56.23,29.6,29.6,0,0,1,4.47-1.62,26.5,26.5,0,0,1,4.47-.05c1.62,0,3.36-.19,4.53.33a15.71,15.71,0,0,0,3.86,1.57,26.22,26.22,0,0,0,3.05.12c0.26,0,.92.15,0.47-0.06a5.35,5.35,0,0,1,1,.92,7,7,0,0,1,2.54,4.17c0.37,1.22-.57,2.82-0.73,4.46-0.13,1.35.48,2.8,0.75,4.13a10.57,10.57,0,0,1-.57,4.75c-0.94,1.39-3.29,2.55-4.63,3.59a0.5,0.5,0,0,0-.08.61l2.1,3.39a6.18,6.18,0,0,1,.86,1.39c-0.13-.52,0-0.41-0.24,0s-0.42.75-.63,1.11c-1.22,2.17-2.49,4.32-3.76,6.47a0.49,0.49,0,0,0,0,.5,32.6,32.6,0,0,0,3.18,4.53c0.42,0.42.07,0.19,0.24-.14a4.81,4.81,0,0,1-.69.79c-0.72.82-1.53,1.61-2.18,2.49-0.84,1.12-.38,2-0.15,3.45a21.67,21.67,0,0,1,.13,4.94,17.15,17.15,0,0,1-.9,4.86c-0.57,1.53-2.31,2.58-2.9,4.11-0.44,1.11.49,2.65,0.86,3.77a21.4,21.4,0,0,1,.74,5,1.88,1.88,0,0,1-.39,1.76c-0.45.83-.93,2.37-1.63,3,0.39-.34-0.24-0.07-0.51,0-0.58.1-1.16,0.23-1.75,0.34l-3,.59a0.51,0.51,0,0,0-.37.48l-0.13,3.34a9.47,9.47,0,0,0-.08,2.15,3.31,3.31,0,0,1,0,.66c0-.29.69-0.32,0.27-0.46a16,16,0,0,0-4.25-.27,2.73,2.73,0,0,0-2.08.66c-2,1.29-4,2.59-5.28,4.69a2.09,2.09,0,0,1-.44.5c0.21-.09.59-0.08,0.14-0.18a17.25,17.25,0,0,1-1.77-.62l-3.42-1.2a0.5,0.5,0,0,0-.49.13l-2,1.89c-0.89.86-.93,1.08-1.9,1.23-1.62.25-3.3,0-4.09,1.48-1,1.91-1.3,3.89-2.94,4.66a16.49,16.49,0,0,0-3.18,1.49c-0.58.46,0,.08,0.05,0.13-0.37-.44-0.71-0.91-1.06-1.37-1.09-1.4-2-3.06-3.55-3.94-1.72-1-3.46-1.87-5.23-2.75A21.2,21.2,0,0,0,118.76,192c-0.33,0-1.2-.17-0.74.1a5.48,5.48,0,0,1-1-1.25c-0.57-.72-1.37-2.32-2.17-2.77-1.23-.68-4.08.26-5.49,0.42C108.75,188.58,108.74,189.58,109.38,189.51Z"/>
        </g>
      </g>
      <circle class="ad" cx="157.67" cy="244.5" r="12"/>
      <g>
        <path class="ae" d="M157.67,255a10.5,10.5,0,1,1,10.5-10.5A10.51,10.51,0,0,1,157.67,255Z"/>
        <path class="af" d="M157.67,234.5a10,10,0,1,1-10,10,10,10,0,0,1,10-10m0-1a11,11,0,1,0,11,11,11,11,0,0,0-11-11h0Z"/>
      </g>
      <path class="ag" d="M166.17,242.39a2.67,2.67,0,0,0-2.83-2.57c-1.31,0-2.4.33-2.73,2.13h-5.88c-0.32-1.8-1.42-2.13-2.73-2.13a2.72,2.72,0,0,0-2.83,2.63,2.53,2.53,0,0,0,.74,1.77,2.57,2.57,0,0,0-.74,1.78,2.87,2.87,0,0,0,2.83,2.82,2.81,2.81,0,0,0,2.58-1.47h6.17a2.9,2.9,0,0,0,5.41-1.3,2.69,2.69,0,0,0-.74-1.83A2.69,2.69,0,0,0,166.17,242.39Z"/>
      <path class="ah" d="M165.43,244.22a2.6,2.6,0,0,0-2.1-4.4c-1.31,0-2.4.33-2.73,2.13h-5.88c-0.32-1.8-1.42-2.13-2.73-2.13a2.72,2.72,0,0,0-2.83,2.63,2.53,2.53,0,0,0,.74,1.77"/>
      <path class="ai" d="M149.9,244.22a2.57,2.57,0,0,0-.74,1.78,2.87,2.87,0,0,0,2.83,2.82,2.81,2.81,0,0,0,2.58-1.47h6.17a2.9,2.9,0,0,0,5.41-1.3,2.69,2.69,0,0,0-.74-1.83"/>
      <path class="aj" d="M186,124.51c-8.75,0-13.94,20-16,31-3,16-13.9,23-31,23-19.79,0-28-7-31-23-2.06-11-7.25-31-16-31,0,0,9.87,15,12.61,33.25,1.63,10.85,11,25.74,34.39,25.74,22,0,32.46-15.16,34.6-24.71C178.42,137.28,186,124.51,186,124.51Z"/>
      <path class="ak" d="M93.12,124.6C101.19,126.21,106,145,108,155.49c3,16,11.21,23,31,23,17.1,0,28-7,31-23,2-10.76,7-30.18,15.47-31,0,0,1.07-.09,2.54-0.07"/>
      <g class="al">
        <path class="m" d="M55,194.51c14,0,48.32-38.75,48.32-57,1.36-3.09,1.92-6.74,4.68-9,2.93-2.4,8.6-3,11-6,18.6-22.61,20.78-61.37,1-126l-85-1L-5,24.27Z"/>
        <path class="am" d="M53,189.51s13.33-58,3-74c0,0,39,4.83,39,35,0,30.45-43,56-43,56Z"/>
        <path class="an" d="M141,79.52c0,7.18-2.69,20-6,20s-6-12.82-6-20,2.69-25,6-25S141,72.34,141,79.52Z"/>
        <polygon class="ao" points="132.79 89.22 131 73.56 134.24 70.52 133.91 88.94 132.79 89.22"/>
      </g>
      <g class="ap">
        <path class="m" d="M160.11,22.52c-3.5,10,1,16,18,36,0,0,24.07,31.34,8.58,49.43a8,8,0,0,0-1.91,6.54l9.33,55s11,57,37,66l32-225-74-26Z"/>
        <path class="am" d="M207,19.52c-14,0-21.75,18.75-18,30,5,12.25,31.15,16.25,46,14C213.88,42.39,218.75,19.52,207,19.52Z"/>
        <path class="an" d="M162,147.51l33,20s13.75-19.75,6.91-35c-5.29-11.8-23.39-10.57-34.91,1Z"/>
        <path class="aq" d="M209,21.52s-7.85,14.81-1,29c4.67,9.67,23,14,23,14C218.17,53.18,210.5,39.21,209,21.52Z"/>
      </g>
      <path class="ar" d="M230,62.52c-11.19-7.34-21-28.5-21-41"/>
      <path class="an" d="M150.89-.62c-5.71,4.46,6.54.22,14.57,1.09C170,1,175,2.33,179.76,3c5.68,0.83,11.05,1.12,14.35,2.16,2.35,0.74,7.46,4.83,13.65,8.8,4.41,2.83,9.17,6.32,14.16,8,5.52,0.28,11.86.61,17.57,1.12,9.55,0.84,14,9.5,17.58,1.5,2.91-6.44,2.51-8.65-1.88-14.19-3.89-4.92-6.33-1.23-12.33-3.07s-5.73-2.71-11.74-4.54S224.8,1.93,219-.41c-7.47-3-7.26-3.49-14.51-7S198-13.31,190-14c-6.88-.58-6.38,2.06-12.88,4.39S170.75-6.64,164-5,156.33-4.87,150.89-.62Z"/>
      <path class="am" d="M221,74.52L208.63,90.75a12,12,0,0,0-2,10.52l6.71,28.55L232,104.51Z"/>
      <path class="am" d="M96.42,63.11a1,1,0,0,1-.59-1.83c2.93-1.89,7.7-4.32,12.16-3.75,4.15,0.53,8.12,4,10.55,6.57a1,1,0,0,1-1,1.64A60.2,60.2,0,0,0,96.42,63.11Z"/>
      <path class="an" d="M111.58,12.68c-12.19-2.46-27.47-.41-38.93,2.13l41.89,9.06Z"/>
      <path class="am" d="M31,54.76c13.82-14.1,16-34.23,26.51-39.21,11.12-5.28,52.49,8,52.49,8C77.31,42.25,61,75,59,115.08,59,115.08,19.36,66.63,31,54.76Z"/>
      <path class="aq" d="M57.29,20.5S72.27,35,68.85,53.05C65.91,68.57,47.07,86.28,47.07,86.28c-7.5-11.28-11.45-23-11-35.19C48,45.52,55.46,32.68,57.29,20.5Z"/>
      <path class="an" d="M6,59.64l12.46-14A64.39,64.39,0,0,0,31.1,42.51l-8,24.77Z"/>
      <path class="ar" d="M36,51.09s17.11-7,21.24-30.59"/>
      <path class="an" d="M31.64,2.52s7.53,8.6,26.18,8.6,23.61-8.6,23.61-8.6H31.64Z"/>
      <path class="as" d="M41.38,8.31l5,0.48L48.73,9l2.62,0.16c0.91,0.07,1.85,0,2.8.12s1.92,0.06,2.89.05,2,0,2.89,0,1.89,0,2.79,0l2.62-.09,2.36-.14c1.47-.11,2.7-0.23,3.58-0.32,0.43-.06.79-0.07,1-0.1l0.37,0h0a0.1,0.1,0,0,1,0,.19S72.29,9,71.46,9.28a33.57,33.57,0,0,1-3.5,1A48.83,48.83,0,0,1,57,11.32,50.47,50.47,0,0,1,46.09,10c-1.46-.35-2.66-0.73-3.49-1s-1.3-.46-1.3-0.46a0.1,0.1,0,0,1,0-.19h0Z"/>
      <path class="as" d="M18.44,45.56s0.18-.17.5-0.42a10.61,10.61,0,0,1,1.34-.87,8.56,8.56,0,0,1,.9-0.46c0.32-.15.66-0.32,1-0.44a18.71,18.71,0,0,1,2.24-.7,19.48,19.48,0,0,1,2.3-.4c0.37-.05.75,0,1.09-0.07a9.56,9.56,0,0,1,1,0,12.75,12.75,0,0,1,1.58.12c0.4,0.06.64,0.12,0.64,0.12l0.06,0a0.09,0.09,0,0,1,0,.17l-0.52.21c-0.33.14-.81,0.33-1.39,0.53-1.16.4-2.73,0.87-4.32,1.27s-3.2.67-4.41,0.87-2,.27-2,0.27a0.09,0.09,0,0,1-.07-0.16Z"/>
      <polygon class="an" points="107.53 23.37 120.03 31.01 128.45 23.41 107.53 23.37"/>
      <g class="g">
        <path class="h" d="M204.44,197.05l0.9,1a7.78,7.78,0,0,0,1.13,1,11,11,0,0,0,1.61,1.12l0.47,0.3,0.52,0.24,1.09,0.51c0.39,0.14.8,0.27,1.21,0.41l0.63,0.21,0.66,0.14c0.44,0.08.89,0.2,1.35,0.26l1.41,0.13a11.74,11.74,0,0,0,1.43,0,9.08,9.08,0,0,0,1.44-.08c0.48-.06,1-0.09,1.43-0.16l1.4-.31a9.68,9.68,0,0,0,1.35-.41,9.32,9.32,0,0,0,1.29-.49l1.2-.57a11.36,11.36,0,0,0,1.09-.66,12.07,12.07,0,0,0,1.86-1.41,12.36,12.36,0,0,0,1.39-1.4c0.19-.22.4-0.41,0.55-0.62l0.4-.58,0.76-1.1a0.15,0.15,0,0,1,.27.1v0a12.14,12.14,0,0,1-.34,1.42l-0.23.76a6.31,6.31,0,0,1-.39.83,8.89,8.89,0,0,1-1.17,1.91l-0.82,1a8.42,8.42,0,0,1-1,.95,13.76,13.76,0,0,1-1.15.94c-0.41.29-.87,0.54-1.32,0.81a11.57,11.57,0,0,1-1.44.7,8.37,8.37,0,0,1-1.54.58c-0.53.14-1.07,0.3-1.62,0.42s-1.11.15-1.67,0.22a10.93,10.93,0,0,1-1.68.06,11.09,11.09,0,0,1-1.66-.09c-0.55-.07-1.09-0.16-1.62-0.26s-1-.28-1.54-0.43l-0.74-.24c-0.24-.1-0.47-0.21-0.7-0.32-0.46-.23-0.9-0.44-1.32-0.66a11.77,11.77,0,0,1-2.17-1.61c-0.3-.29-0.6-0.55-0.85-0.83a8.86,8.86,0,0,1-.68-0.88,5.82,5.82,0,0,1-.87-1.47c-0.34-.83-0.5-1.35-0.5-1.35l0-.06A0.14,0.14,0,0,1,204.44,197.05Z"/>
      </g>
      <g class="g">
        <path class="h" d="M74.86,197s-0.15.52-.5,1.35a5.83,5.83,0,0,1-.87,1.47,8.85,8.85,0,0,1-.68.88c-0.26.27-.55,0.54-0.85,0.83a11.77,11.77,0,0,1-2.17,1.61c-0.42.23-.86,0.44-1.32,0.66-0.23.11-.46,0.22-0.7,0.32L67,204.4c-0.5.16-1,.32-1.54,0.43s-1.07.19-1.62,0.26a11.1,11.1,0,0,1-1.66.09,10.93,10.93,0,0,1-1.68-.06C60,205,59.41,205,58.86,204.89s-1.09-.28-1.62-0.42a8.37,8.37,0,0,1-1.54-.58,11.58,11.58,0,0,1-1.44-.7c-0.45-.27-0.91-0.52-1.32-0.81a13.78,13.78,0,0,1-1.15-.94,8.44,8.44,0,0,1-1-.95l-0.82-1a8.89,8.89,0,0,1-1.17-1.91,6.34,6.34,0,0,1-.39-0.83L48.16,196a12.15,12.15,0,0,1-.34-1.42v0a0.15,0.15,0,0,1,.27-0.11l0.76,1.1,0.4,0.58c0.15,0.21.35,0.4,0.55,0.62a12.36,12.36,0,0,0,1.39,1.4A12.07,12.07,0,0,0,53,199.53a11.36,11.36,0,0,0,1.09.66l1.2,0.57a9.31,9.31,0,0,0,1.29.49,9.68,9.68,0,0,0,1.35.41l1.4,0.31c0.47,0.07,1,.11,1.43.16a9.08,9.08,0,0,0,1.44.08,11.74,11.74,0,0,0,1.43,0l1.41-.13c0.46-.06.91-0.18,1.35-0.26l0.66-.14,0.63-.21c0.41-.14.82-0.26,1.21-0.41l1.09-.51,0.52-.24L71,200a11,11,0,0,0,1.61-1.12,7.78,7.78,0,0,0,1.13-1l0.9-1a0.14,0.14,0,0,1,.24.14Z"/>
      </g>
    </g>
    <path class="as" d="M198.06,7.41a7.82,7.82,0,0,1,.78.13,13.13,13.13,0,0,1,1.92.59,12.27,12.27,0,0,1,1.19.5,14.19,14.19,0,0,1,1.27.64c0.42,0.25.89,0.46,1.3,0.75l1.29,0.83L207,11.77c0.41,0.29.77,0.63,1.15,0.93s0.71,0.61,1,.92,0.63,0.58.91,0.86,0.53,0.53.76,0.76,0.42,0.44.59,0.61c0.33,0.33.53,0.56,0.53,0.56l0,0a0.09,0.09,0,0,1-.1.15l-0.68-.25c-0.43-.18-1-0.45-1.72-0.82-1.39-.74-3.16-1.86-4.89-3S201.3,10,200,9.11s-2.1-1.53-2.1-1.53A0.09,0.09,0,0,1,198,7.41h0.05Z"/>
    <path class="as" d="M237,22.4s0.3-.08.82-0.16a10.18,10.18,0,0,1,2.17,0,11.08,11.08,0,0,1,1.4.16,14.08,14.08,0,0,1,1.51.3c0.51,0.14,1.05.24,1.56,0.43l1.57,0.53,1.51,0.61c0.5,0.18,1,.45,1.43.64s0.9,0.43,1.31.64,0.81,0.41,1.17.6,0.7,0.38,1,.52,0.57,0.31.79,0.41c0.45,0.22.73,0.37,0.73,0.37l0,0a0.09,0.09,0,0,1,0,.17l-0.77,0c-0.25,0-.54-0.06-0.88-0.1s-0.71-.13-1.13-0.2a46.52,46.52,0,0,1-5.86-1.79c-2.08-.8-4.14-1.62-5.72-2.14a24.47,24.47,0,0,0-2.66-.75,0.09,0.09,0,0,1,0-.18h0Z"/>
    <path class="f" d="M134,33.49l-8,4a59.6,59.6,0,0,1,7.56,25C134.5,49.89,137.81,42.18,134,33.49Z"/>
    <path class="as" d="M72.66,14.69s0.41-.09,1.11-0.2a22.1,22.1,0,0,1,2.92-.23c0.6,0,1.25,0,1.94,0s1.41,0.06,2.14.15,1.51,0.14,2.27.29l2.32,0.42,2.29,0.56c0.76,0.17,1.48.44,2.19,0.65s1.38,0.48,2,.71,1.23,0.49,1.78.74a23,23,0,0,1,3.56,1.92l0,0a0.1,0.1,0,0,1-.08.17s-6.06-1.58-12.19-2.81c-3.05-.67-6.13-1.26-8.44-1.63s-3.87-.57-3.87-0.57a0.1,0.1,0,0,1,0-.19h0Z"/>
    <path class="at" d="M155.17,91.49s-4.6,3.47-3,5.75c1.46,2.08,10,.33,10,0.33Z"/>
    <path class="at" d="M156,136.82l-0.14-.49a9.79,9.79,0,0,0-.46-1.31,8.82,8.82,0,0,0-2.89-3.54,12.14,12.14,0,0,0-2.64-1.41,19.72,19.72,0,0,0-3.26-1c-0.6-.08-1.19-0.22-1.81-0.29s-1.24-.15-1.89-0.19l-1.94-.11-1.92,0-2.08,0-1.91.11c-0.63,0-1.26.14-1.88,0.2s-1.21.21-1.81,0.29a19.65,19.65,0,0,0-3.26,1,12.12,12.12,0,0,0-2.64,1.41A8.82,8.82,0,0,0,122.6,135a10.68,10.68,0,0,0-.46,1.31l-0.14.49-0.09-.5a7.12,7.12,0,0,1-.08-1.47,7.77,7.77,0,0,1,.48-2.31,9.2,9.2,0,0,1,1.58-2.73,12.17,12.17,0,0,1,2.86-2.41,17.35,17.35,0,0,1,3.73-1.71,25.53,25.53,0,0,1,4.19-.92c0.72-.07,1.49-0.18,2.2-0.21l2.07-.07,2.23,0.08c0.72,0,1.45.15,2.16,0.22a25.64,25.64,0,0,1,4.18.92,17.31,17.31,0,0,1,3.73,1.71,12.15,12.15,0,0,1,2.86,2.41,9.22,9.22,0,0,1,1.58,2.73,7.79,7.79,0,0,1,.48,2.31,6.82,6.82,0,0,1-.08,1.47Z"/>
    <path class="au" d="M119,91.49s4.6,3.47,3,5.75c-1.46,2.08-10,.33-10,0.33Z"/>
    <path class="a" d="M140,135.49c-14.35,0-21,5.26-21,10.09s0.64,22.91,20.52,22.91h1c19.88,0,20.52-18.09,20.52-22.91S154.35,135.49,140,135.49Z"/>
    <path class="au" d="M121,87.49c0,7.18-4.51,13-15,13s-17-5.82-17-13,6.51-13,17-13S121,80.31,121,87.49Z"/>
    <path class="av" d="M90.26,90.35l0.25,0.35c0.16,0.21.42,0.61,0.7,0.93l0.47,0.59,0.63,0.69c0.46,0.49,1,1,1.62,1.53a19.75,19.75,0,0,0,4.7,3A19,19,0,0,0,104.81,99a20.1,20.1,0,0,0,3.25-.06,18.24,18.24,0,0,0,3.09-.68A17.07,17.07,0,0,0,113.89,97a16.45,16.45,0,0,0,2.24-1.56,10.48,10.48,0,0,0,.92-0.83c0.28-.28.56-0.53,0.79-0.81,0.49-.52.86-1,1.19-1.43s0.53-.76.7-1l0.25-.36-0.13.41c-0.09.27-.19,0.68-0.4,1.17a13.59,13.59,0,0,1-.84,1.75,13.26,13.26,0,0,1-1.43,2.11A14.43,14.43,0,0,1,115,98.65a15.49,15.49,0,0,1-2.93,1.84,16.88,16.88,0,0,1-7.38,1.59,20.43,20.43,0,0,1-3.84-.42,22.07,22.07,0,0,1-3.57-1.12,21.5,21.5,0,0,1-3.1-1.64A19.47,19.47,0,0,1,91.69,97a18.51,18.51,0,0,1-1.83-1.92l-0.69-.86-0.56-.8A11.21,11.21,0,0,1,88,92.34L87.74,92A1.5,1.5,0,0,1,90.26,90.35Z"/>
    <path class="au" d="M89.45,76l0.34-.22c0.24-.14.51-0.37,1-0.63s1.09-.58,1.76-0.88a19.07,19.07,0,0,1,2.33-.9,23.11,23.11,0,0,1,2.86-.72,25.9,25.9,0,0,1,3.26-.39,29.38,29.38,0,0,1,3.51,0,26.41,26.41,0,0,1,3.58.55,20.61,20.61,0,0,1,3.46,1.08,17.36,17.36,0,0,1,3.13,1.61,14.18,14.18,0,0,1,2.58,2.07,11.43,11.43,0,0,1,1.83,2.33,9.59,9.59,0,0,1,1,2.26,8.2,8.2,0,0,1,.37,1.84,6.62,6.62,0,0,1,0,1.19v0.41l-0.12-.4a9.26,9.26,0,0,0-.37-1.09,5.3,5.3,0,0,0-.32-0.74,7.08,7.08,0,0,0-.44-0.83,11.65,11.65,0,0,0-1.32-1.77A12.1,12.1,0,0,0,116,79.1a15.42,15.42,0,0,0-2.48-1.44,20.57,20.57,0,0,0-2.88-1.08,25.7,25.7,0,0,0-3.11-.69,26.56,26.56,0,0,0-3.18-.29,26,26,0,0,0-3.09.08A25.2,25.2,0,0,0,98.4,76c-0.9.18-1.74,0.35-2.5,0.58s-1.46.44-2.06,0.67-1.11.45-1.51,0.63-0.78.38-1,.49l-0.37.18A1.5,1.5,0,0,1,89.45,76Z"/>
    <g class="aw">
      <ellipse class="ax" cx="105.78" cy="87.49" rx="14.88" ry="12.92"/>
      <g class="ay">
        <path class="az" d="M124.15,87.49c0,8.05-6.27,13.54-14,13.54s-14-5.49-14-13.54S102.42,74,110.15,74,124.15,79.44,124.15,87.49Z"/>
        <path class="ba" d="M124.15,83.26c0,8.05-6.27,13.54-14,13.54s-14-5.49-14-13.54,6.27-13.54,14-13.54S124.15,75.21,124.15,83.26Z"/>
      </g>
      <ellipse class="bb" cx="104.7" cy="83.14" rx="2.63" ry="2.12"/>
      <path class="bc" d="M119.78,85.64a20.25,20.25,0,0,0-28,0c0-5.61,6.27-10.15,14-10.15S119.78,80,119.78,85.64Z"/>
      <path class="bd" d="M120.65,90.45c0,3-4.82,8-14,8s-14.87-5-14.87-8c3.06,2.12,8.6,3,14.87,3S116.2,92.78,120.65,90.45Z"/>
    </g>
    <ellipse class="be" cx="105.78" cy="87.49" rx="14" ry="12"/>
    <g class="bf">
      <path class="bg" d="M139,127.49c-13,0-17,5.26-17,10.09s2.64,17.91,16.57,17.91h0.86c14.16,0,16.57-13.09,16.57-17.91S152,127.49,139,127.49Z"/>
      <path class="bh" d="M115,137.49a110.73,110.73,0,0,1,50,0l-9.5-9c-9.62-5.28-20.43-5.39-32.5,0C123,128.49,114.75,137.24,115,137.49Z"/>
      <circle class="bi" cx="139" cy="134.49" r="8"/>
      <path class="bj" d="M126,135.49s0.41-.11,1.14-0.26,1.78-.35,3-0.5,2.74-.32,4.33-0.42c0.8,0,1.62-.1,2.45-0.12s1.68,0,2.53-.05c1.7,0,3.4,0,5,.15s3.07,0.27,4.34.43,2.31,0.37,3,.52l1.14,0.26-1.17-.07c-0.74-.07-1.8-0.09-3.06-0.15s-2.74-.08-4.32-0.11-3.27,0-5,0-3.37,0-5,0-3.06,0-4.32.1-2.32.08-3.06,0.13Z"/>
      <path class="bk" d="M126.73,150H123.2l-2.2-4.43s3.11,0.69,4.93-1.12c1.19-1.19,2.1-3.88,5.07-3.88s4,2.89,4,5.53C135,149.35,131.58,150,126.73,150Z"/>
      <line class="bl" x1="139" y1="158.48" x2="139" y2="145.49"/>
      <path class="bm" d="M117.48,137.74s3.84,14.43,21,14.43c17.82,0,21-14.31,21-14.31l1.91,19.62H114.61Z"/>
      <path class="bk" d="M151.27,150h3.53l2.2-4.43s-3.11.69-4.93-1.12c-1.19-1.19-2.1-3.88-5.07-3.88s-4,2.89-4,5.53C143,149.35,146.42,150,151.27,150Z"/>
      <path class="bn" d="M134,134.74a13,13,0,0,1,1.56-.3,27.81,27.81,0,0,1,6.88,0,12.86,12.86,0,0,1,1.56.28,12.85,12.85,0,0,1-1.56.3,27.81,27.81,0,0,1-6.88,0A13,13,0,0,1,134,134.74Z"/>
    </g>
    <path class="bo" d="M136,103.49c0,1.66-1.12,2-2.5,2a2.78,2.78,0,0,1-2.5-3c0-1.66.24-3,2.5-3,1,0,1.08,1.62,1.5,2A2.4,2.4,0,0,1,136,103.49Z"/>
    <circle class="bp" cx="133" cy="113.49" r="1"/>
    <circle class="bq" cx="156.5" cy="70.99" r="0.5"/>
    <circle class="bp" cx="140.5" cy="117.99" r="0.5"/>
    <circle class="bq" cx="164.5" cy="141.99" r="0.5"/>
    <circle class="bq" cx="165.5" cy="138.99" r="0.5"/>
    <path class="bo" d="M134.9,118.84c0,1.3-1.08,1.34-2.36,2.36-0.68.54-1.23,1.88-2.36,1.88-0.83,0-1.44-2.23-1.18-4.24a2.83,2.83,0,0,1,2.95-2.36A2.7,2.7,0,0,1,134.9,118.84Z"/>
    <circle class="bp" cx="148.5" cy="117.99" r="1.5"/>
    <ellipse class="bq" cx="162" cy="134.49" rx="1" ry="2"/>
    <ellipse class="br" cx="161.5" cy="120.99" rx="0.5" ry="1.5" transform="translate(-34.11 71.42) rotate(-22.62)"/>
    <ellipse class="bq" cx="151.5" cy="74.99" rx="1.5" ry="0.5" transform="translate(36.17 198.58) rotate(-73.31)"/>
    <ellipse class="br" cx="163.5" cy="125.99" rx="0.5" ry="1.5" transform="translate(-16.97 25.81) rotate(-8.58)"/>
    <g class="ac">
      <path class="h" d="M60.82,202.23l0.73,1.25,0.72,1.12c0.51,0.74,1,1.48,1.61,2.17a25.66,25.66,0,0,0,1.8,2,21.88,21.88,0,0,0,2,1.7l1.07,0.73,1.12,0.64L71,212.35c0.4,0.15.8,0.31,1.2,0.45s0.82,0.25,1.23.35,0.84,0.18,1.26.25L76,213.54l1.3,0.05-2,2a23.1,23.1,0,0,1,.36-4.1,16,16,0,0,1,1.29-4.09,10.79,10.79,0,0,1,1.21-2,11.71,11.71,0,0,1,.81-0.9c0.3-.28.63-0.54,1-0.8s0.72-.45,1.09-0.64,0.78-.33,1.18-0.45,0.81-.2,1.21-0.26l1.2-.08a1.85,1.85,0,0,1,2,1.68l0,0.3,0,0.18c0,0.08,0,.17,0,0.25a3.3,3.3,0,0,0,.12.49,2.24,2.24,0,0,0,.17.42,0.94,0.94,0,0,0,.1.17,1.06,1.06,0,0,0,.1.15,1.3,1.3,0,0,0,.21.21,0.86,0.86,0,0,0,.11.07,0.26,0.26,0,0,0,.12.06,1.12,1.12,0,0,0,.3.09c0.11,0,.27,0,0.4,0l-2,2a8.08,8.08,0,0,1,.09-1,5.45,5.45,0,0,1,.27-1,5.59,5.59,0,0,1,1.08-1.84,6.68,6.68,0,0,1,1.54-1.3,7.53,7.53,0,0,1,.85-0.45l0.45-.19c0.17-.06.28-0.1,0.54-0.18a2,2,0,0,1,2.18.87l0.1,0.16,0.09,0.15,0.14,0.21a5.12,5.12,0,0,0,.32.41,4.5,4.5,0,0,0,.72.67,2.89,2.89,0,0,0,.38.24,2.5,2.5,0,0,0,.38.16,2.54,2.54,0,0,0,.76.13l-2,2a4.18,4.18,0,0,1,.18-1.15,3.73,3.73,0,0,1,.55-1.12,4.09,4.09,0,0,1,.83-0.82,3.46,3.46,0,0,1,.44-0.28,3.19,3.19,0,0,1,.43-0.22,5.8,5.8,0,0,1,.83-0.3,7.58,7.58,0,0,1,.78-0.17c0.25,0,.5-0.07.75-0.09l0.38,0h0.43a2,2,0,0,1,1.83,1.41v0c0,0.15.13,0.41,0.21,0.62s0.17,0.45.27,0.67a13.56,13.56,0,0,0,.63,1.3c0.11,0.21.23,0.42,0.36,0.62s0.24,0.41.38,0.59a11.2,11.2,0,0,0,.84,1.08c0.15,0.17.31,0.31,0.46,0.46a3.76,3.76,0,0,0,.49.41,3.06,3.06,0,0,0,.5.36c0.18,0.1.34,0.22,0.52,0.31l0.54,0.23a3.47,3.47,0,0,0,.56.16,1.91,1.91,0,0,0,.57.1l0.59,0.05-2,2,0-.79a6.09,6.09,0,0,1,.08-0.8l0.18-.82a4.32,4.32,0,0,1,.27-0.82,5.49,5.49,0,0,1,.36-0.81l0.48-.77c0.18-.24.39-0.47,0.59-0.69a5,5,0,0,1,.67-0.61,4.55,4.55,0,0,1,.73-0.51,5,5,0,0,1,.76-0.41,8.15,8.15,0,0,1,1.57-.54,9.71,9.71,0,0,1,1.56-.25c0.26,0,.52,0,0.78,0s0.5,0,.86,0a2,2,0,0,1,1.67,1.31l0,0.09,0.14,0.39,0.16,0.43c0.11,0.28.23,0.56,0.35,0.84a13,13,0,0,0,.83,1.54,6.55,6.55,0,0,0,.46.64,2.64,2.64,0,0,0,.24.26,1.25,1.25,0,0,0,.23.22,1,1,0,0,0,.21.16,1.59,1.59,0,0,0,.16.1,0.38,0.38,0,0,1,.11,0,0,0,0,0,1,.06,0l-2,2a6.12,6.12,0,0,1,.17-1.32,4.76,4.76,0,0,1,.91-1.9,3.45,3.45,0,0,1,.46-0.51,3.87,3.87,0,0,1,.5-0.44,6.13,6.13,0,0,1,.52-0.37,7.21,7.21,0,0,1,1.06-.54,8.89,8.89,0,0,1,1.05-.35,9.73,9.73,0,0,1,1-.22l0.53-.07,0.59,0a2,2,0,0,1,1.83,1.12l0.08,0.16s0.1,0.23.17,0.35,0.16,0.28.25,0.42a7.14,7.14,0,0,0,1.27,1.52,6.6,6.6,0,0,0,.77.59,2.61,2.61,0,0,0,.41.25c0.14,0.07.28,0.16,0.42,0.22L130.6,213a3.4,3.4,0,0,0,.46.14,3.05,3.05,0,0,0,.47.12l0.48,0.08a3.08,3.08,0,0,0,.5,0l0.5,0-2,2a6.33,6.33,0,0,1,.15-1.3,5.17,5.17,0,0,1,.18-0.62,4.73,4.73,0,0,1,.24-0.59,6.8,6.8,0,0,1,1.42-2,7.56,7.56,0,0,1,1.9-1.34,6.32,6.32,0,0,1,1.14-.44,4.82,4.82,0,0,1,.65-0.14,5.32,5.32,0,0,1,.74-0.06,1.73,1.73,0,0,1,1.73,1.18l0.27,0.82a1.84,1.84,0,0,0,0,.31,0.49,0.49,0,0,0,0,.14,0.68,0.68,0,0,1,.06.14,2.08,2.08,0,0,0,.22.29,0.79,0.79,0,0,0,.15.15,1.81,1.81,0,0,0,.18.15,4.48,4.48,0,0,0,1,.56,6.18,6.18,0,0,0,.59.22L142,213l0.25,0.06,1.49,1.19c0-.09,0,0,0,0l0.08,0.12a2.75,2.75,0,0,0,.21.27,3.91,3.91,0,0,0,.53.52,4.63,4.63,0,0,0,.65.45,2.56,2.56,0,0,0,.36.19,3.45,3.45,0,0,0,.38.17,6.1,6.1,0,0,0,.82.28,8.53,8.53,0,0,0,.87.2c0.3,0.05.61,0.07,0.92,0.11l1,0-2,2,0.07-1a4.36,4.36,0,0,1,.16-1c0.09-.33.15-0.67,0.27-1l0.4-.94a7.8,7.8,0,0,1,.5-0.88,5.18,5.18,0,0,1,.58-0.81,7.47,7.47,0,0,1,.64-0.74l0.69-.67a14.32,14.32,0,0,1,1.5-1.11,14,14,0,0,1,1.58-.89,15.57,15.57,0,0,1,1.64-.7c0.28-.11.56-0.19,0.84-0.29s0.55-.17.93-0.25a2,2,0,0,1,2.14.92l0.07,0.12c0,0.07.16,0.28,0.27,0.43s0.23,0.33.36,0.49a10.41,10.41,0,0,0,.82.93,11.76,11.76,0,0,0,.93.82l0.5,0.35c0.16,0.13.35,0.21,0.52,0.32a3.76,3.76,0,0,0,.54.29c0.19,0.08.36,0.19,0.55,0.25l0.57,0.21a5.46,5.46,0,0,0,.59.16,4.46,4.46,0,0,0,.6.14l0.61,0.09a4.33,4.33,0,0,0,.62,0l0.62,0-2,2a6.53,6.53,0,0,1,.27-1.79,5.71,5.71,0,0,1,.34-0.86,5.14,5.14,0,0,1,.46-0.79,6.27,6.27,0,0,1,1.17-1.29,6.55,6.55,0,0,1,.66-0.51,7.53,7.53,0,0,1,.69-0.42,9.61,9.61,0,0,1,1.41-.63,10.81,10.81,0,0,1,1.43-.4,14.08,14.08,0,0,1,2.85-.3l-2,2c0-.27,0-0.54.08-0.81a3.61,3.61,0,0,1,.2-0.8,3.18,3.18,0,0,1,.33-0.75,4.21,4.21,0,0,1,.43-0.68c0.16-.2.33-0.4,0.5-0.58l0.54-.48a7.87,7.87,0,0,1,1.11-.73,9.62,9.62,0,0,1,1.12-.53q0.56-.22,1.11-0.38t1.11-.28l0.56-.11,0.62-.09a2,2,0,0,1,2,1.06l0,0.07c0,0.08.15,0.28,0.24,0.43s0.2,0.32.31,0.48a10.9,10.9,0,0,0,.7.92,9.82,9.82,0,0,0,.79.82,8.28,8.28,0,0,0,1.78,1.28c0.15,0.09.32,0.14,0.48,0.22a2.58,2.58,0,0,0,.49.19l0.5,0.16,0.51,0.09a9.24,9.24,0,0,0,1,.09l-2,2c0-.38,0-0.63,0-0.93s0-.57.09-0.86a13.38,13.38,0,0,1,.34-1.7,8.55,8.55,0,0,1,.25-0.85,8.38,8.38,0,0,1,.32-0.84c0.13-.28.24-0.56,0.39-0.83l0.48-.82L190,205a8.35,8.35,0,0,1,.7-0.72,4.84,4.84,0,0,1,.8-0.63,4.67,4.67,0,0,1,.87-0.52c0.31-.14.62-0.29,0.93-0.41l1-.25a11.33,11.33,0,0,1,1.9-.21,1.43,1.43,0,0,1,.9.21l0,0c0.56,0.35,1.14.64,1.67,1l0.8,0.61c0.27,0.2.5,0.46,0.75,0.69a6.27,6.27,0,0,1,.7.75c0.21,0.27.44,0.53,0.64,0.81l0.56,0.88c0.17,0.3.31,0.62,0.47,0.93a8.55,8.55,0,0,1,.38,1,8.08,8.08,0,0,1,.29,1,11.61,11.61,0,0,1,.33,2,15,15,0,0,1,0,2c0,0.32,0,.64-0.07.94l-0.07.66-2-2,1.47-.06c0.49,0,1-.1,1.46-0.14a19.84,19.84,0,0,0,2.84-.57,11.89,11.89,0,0,0,1.36-.44,12.7,12.7,0,0,0,1.32-.55,16.46,16.46,0,0,0,2.46-1.43,12.89,12.89,0,0,0,1.13-.87,12.59,12.59,0,0,0,1.06-1,12.37,12.37,0,0,0,1-1.05,13.17,13.17,0,0,0,.91-1.13c0.3-.38.57-0.79,0.84-1.2s0.51-.84.77-1.26c0.49-.86.92-1.75,1.33-2.66v0a1,1,0,0,1,1.82.82,31.91,31.91,0,0,1-1.43,2.86c-0.27.46-.53,0.93-0.83,1.36s-0.58.89-.92,1.31a15,15,0,0,1-1,1.24A14.17,14.17,0,0,1,216,210a14.45,14.45,0,0,1-1.18,1.07,14.77,14.77,0,0,1-1.26,1,18.45,18.45,0,0,1-2.76,1.61,14.59,14.59,0,0,1-1.47.62,13.69,13.69,0,0,1-1.52.49,21.83,21.83,0,0,1-3.13.63c-0.53,0-1.06.15-1.59,0.15l-1.6.06h0c0-.57.11-1.13,0.14-1.7a13,13,0,0,0,0-1.7,9.62,9.62,0,0,0-.27-1.68,6.29,6.29,0,0,0-.24-0.82,6.69,6.69,0,0,0-.31-0.79c-0.13-.25-0.24-0.52-0.38-0.76L200,207.5c-0.16-.23-0.35-0.44-0.53-0.67a4.74,4.74,0,0,0-.58-0.62,8.45,8.45,0,0,0-.62-0.58l-0.68-.52c-0.45-.34-1-0.6-1.44-0.9h0a9.51,9.51,0,0,0-1.48.17l-0.72.18c-0.23.09-.45,0.2-0.68,0.3a3,3,0,0,0-.64.38,3.15,3.15,0,0,0-.59.46,6.32,6.32,0,0,0-.52.53l-0.45.59a9.24,9.24,0,0,0-.7,1.32,6.53,6.53,0,0,0-.26.7,6.79,6.79,0,0,0-.21.72,12.44,12.44,0,0,0-.4,3h0a11,11,0,0,1-1.36-.12l-0.67-.12-0.66-.2a3.92,3.92,0,0,1-.64-0.24c-0.21-.1-0.42-0.17-0.62-0.29a10.26,10.26,0,0,1-2.22-1.59,11.83,11.83,0,0,1-.95-1,12.07,12.07,0,0,1-1.53-2.27h0a12.35,12.35,0,0,0-1.93.41,8.89,8.89,0,0,0-1.83.75,5.87,5.87,0,0,0-.82.54,4.12,4.12,0,0,0-.69.7,2.31,2.31,0,0,0-.26.42,1.53,1.53,0,0,0-.19.45,1.81,1.81,0,0,0-.12.48l-0.05.49h0a10.09,10.09,0,0,0-4.73,1.08,5.57,5.57,0,0,0-.52.32,4.62,4.62,0,0,0-.49.37,4.29,4.29,0,0,0-.82.9,3.21,3.21,0,0,0-.31.53,3.71,3.71,0,0,0-.23.57,4.54,4.54,0,0,0-.18,1.21h0l-0.74,0a5.71,5.71,0,0,1-.74-0.06l-0.74-.11a6,6,0,0,1-.72-0.17,7.17,7.17,0,0,1-.72-0.2l-0.7-.26c-0.23-.08-0.45-0.21-0.68-0.31a5.15,5.15,0,0,1-.66-0.35c-0.21-.13-0.43-0.24-0.63-0.39l-0.61-.43a13.72,13.72,0,0,1-1.12-1,10.87,10.87,0,0,1-1.81-2.35h0a14.84,14.84,0,0,0-3,1.08,12.07,12.07,0,0,0-1.37.77,12.37,12.37,0,0,0-1.27.94l-0.57.55a5.63,5.63,0,0,0-.51.6,3.65,3.65,0,0,0-.46.64,5.86,5.86,0,0,0-.39.68l-0.31.73c-0.09.25-.13,0.51-0.2,0.76a3,3,0,0,0-.13.78l-0.06.79h0l-1.11,0c-0.37,0-.73-0.07-1.1-0.14a10.51,10.51,0,0,1-1.08-.24,8.06,8.06,0,0,1-1-.36,5.12,5.12,0,0,1-.5-0.23,4,4,0,0,1-.49-0.26,6.6,6.6,0,0,1-.91-0.63,5.33,5.33,0,0,1-1.4-1.69h0a7.76,7.76,0,0,1-3-1.3,3.69,3.69,0,0,1-.31-0.26,2.15,2.15,0,0,1-.29-0.29,4,4,0,0,1-.49-0.66l-0.17-.37a2.14,2.14,0,0,1-.12-0.39,3.74,3.74,0,0,1-.11-0.81h0a4,4,0,0,0-1.64.44,5.57,5.57,0,0,0-1.39,1,4.81,4.81,0,0,0-1,1.38,2.88,2.88,0,0,0-.16.4,3.23,3.23,0,0,0-.12.41,4.36,4.36,0,0,0-.1.85h0l-0.63,0a4.46,4.46,0,0,1-.63-0.06l-0.63-.11a4.58,4.58,0,0,1-.61-0.16,5,5,0,0,1-.6-0.19l-0.59-.24c-0.19-.08-0.37-0.2-0.56-0.29a4,4,0,0,1-.54-0.33,8.59,8.59,0,0,1-1-.78,10.19,10.19,0,0,1-.88-0.92,9,9,0,0,1-1.33-2.15h0a8,8,0,0,0-1.69.26,5.7,5.7,0,0,0-1.57.65,4.09,4.09,0,0,0-.35.25,2.11,2.11,0,0,0-.32.28,1.77,1.77,0,0,0-.28.32,2.77,2.77,0,0,0-.55,1.15,4.18,4.18,0,0,0-.11.85h0l-0.51-.06c-0.16,0-.32-0.11-0.48-0.17a3.42,3.42,0,0,1-.44-0.25,4.77,4.77,0,0,1-.77-0.66,4.39,4.39,0,0,1-.34-0.38,8.52,8.52,0,0,1-.6-0.83,16.55,16.55,0,0,1-1.71-3.69h0a7.57,7.57,0,0,0-1.27,0,7.72,7.72,0,0,0-1.26.2,6.16,6.16,0,0,0-1.2.41,3.26,3.26,0,0,0-.56.3,2.86,2.86,0,0,0-.52.36,3.22,3.22,0,0,0-.47.43c-0.14.16-.29,0.31-0.41,0.48l-0.33.54a3.64,3.64,0,0,0-.26.58,2.76,2.76,0,0,0-.2.6l-0.14.62a4.48,4.48,0,0,0-.06.63l0,0.64h0l-0.81-.07a3.25,3.25,0,0,1-.8-0.14,5.34,5.34,0,0,1-.78-0.22l-0.75-.32c-0.24-.12-0.47-0.28-0.7-0.41A4.59,4.59,0,0,1,104,212a5.38,5.38,0,0,1-.62-0.53c-0.19-.19-0.4-0.37-0.58-0.58a13.18,13.18,0,0,1-1-1.28c-0.17-.22-0.3-0.46-0.44-0.68s-0.28-.47-0.41-0.71a16.63,16.63,0,0,1-1.28-3h0a5.44,5.44,0,0,0-2.26.4,2.48,2.48,0,0,0-.5.29,2.1,2.1,0,0,0-.41.4,1.73,1.73,0,0,0-.25.52,2.21,2.21,0,0,0-.09.57h0a4.51,4.51,0,0,1-2.08-.53,4.87,4.87,0,0,1-.61-0.38,6.8,6.8,0,0,1-1.89-2.16h0a5.09,5.09,0,0,0-2.36,1.48,3.59,3.59,0,0,0-.71,1.21,3.47,3.47,0,0,0-.18.68,6.36,6.36,0,0,0-.06.7h0a6.34,6.34,0,0,1-.77-0.08,3.09,3.09,0,0,1-.73-0.23,1.44,1.44,0,0,1-.34-0.17,2.84,2.84,0,0,1-.32-0.21,3.3,3.3,0,0,1-.54-0.54,4.41,4.41,0,0,1-.7-1.36,5.79,5.79,0,0,1-.28-1.51h0l-0.94.07c-0.31,0-.61.13-0.92,0.19s-0.58.22-.88,0.33-0.54.31-.81,0.47-0.49.39-.72,0.6-0.44.45-.63,0.7a8.79,8.79,0,0,0-1,1.6,14,14,0,0,0-1.12,3.58,21.1,21.1,0,0,0-.32,3.74h0l-1.45-.06c-0.48,0-1-.11-1.44-0.16s-0.95-.19-1.42-0.28-0.93-.26-1.39-0.39-0.9-.34-1.36-0.51l-1.31-.62-1.25-.72L66.49,212a23.84,23.84,0,0,1-2.2-1.88,27.61,27.61,0,0,1-2-2.13c-0.61-.75-1.18-1.53-1.72-2.32s-1-1.63-1.52-2.46h0A1,1,0,0,1,60.82,202.23Z"/>
    </g>
    <path class="at" d="M152.67,87.49c0,7.18,4.51,13,15,13s17-5.82,17-13-6.51-13-17-13S152.67,80.31,152.67,87.49Z"/>
    <path class="ax" d="M185.51,91.7l-0.22.37a12.21,12.21,0,0,1-.66,1.05l-0.54.76-0.68.84a18.16,18.16,0,0,1-1.8,1.85,20.56,20.56,0,0,1-2.44,1.85,21,21,0,0,1-3,1.61,21.5,21.5,0,0,1-3.47,1.11,20.15,20.15,0,0,1-3.74.44,16.79,16.79,0,0,1-7.2-1.45,15.19,15.19,0,0,1-2.9-1.74,15.81,15.81,0,0,1-2.18-2.06,12.6,12.6,0,0,1-1.48-2,16.49,16.49,0,0,1-.89-1.69c-0.24-.47-0.35-0.88-0.46-1.13l-0.15-.4,0.23,0.37c0.16,0.23.35,0.59,0.65,1a16,16,0,0,0,1.13,1.48c0.22,0.28.49,0.55,0.76,0.84a10.7,10.7,0,0,0,.89.87,14.69,14.69,0,0,0,2.23,1.66,17.37,17.37,0,0,0,2.77,1.31,17.74,17.74,0,0,0,3.16.77,19.5,19.5,0,0,0,3.35.12,19.06,19.06,0,0,0,6.38-1.58,20.25,20.25,0,0,0,2.68-1.43,18.29,18.29,0,0,0,2.18-1.63c0.63-.56,1.19-1.09,1.66-1.6l0.64-.72,0.49-.63c0.3-.35.53-0.74,0.69-1l0.25-.35A1,1,0,0,1,185.51,91.7Z"/>
    <path class="at" d="M182.72,78.61l-0.37-.18c-0.23-.11-0.62-0.32-1-0.49s-0.89-.41-1.51-0.63-1.3-.45-2.06-0.67-1.61-.41-2.51-0.58a25.2,25.2,0,0,0-2.86-.37,26,26,0,0,0-3.09-.08,26.56,26.56,0,0,0-3.18.29,25.7,25.7,0,0,0-3.11.69,20.57,20.57,0,0,0-2.88,1.08,15.42,15.42,0,0,0-2.48,1.44,12.09,12.09,0,0,0-1.94,1.7,11.65,11.65,0,0,0-1.32,1.77,7.08,7.08,0,0,0-.44.83,5.3,5.3,0,0,0-.32.74,9.24,9.24,0,0,0-.37,1.09l-0.12.4V85.23a6.62,6.62,0,0,1,0-1.19,8.2,8.2,0,0,1,.37-1.84,9.59,9.59,0,0,1,1-2.26,11.44,11.44,0,0,1,1.83-2.33A14.18,14.18,0,0,1,159,75.54a17.36,17.36,0,0,1,3.13-1.61,20.61,20.61,0,0,1,3.46-1.08,26.4,26.4,0,0,1,3.58-.55,29.38,29.38,0,0,1,3.51,0,25.9,25.9,0,0,1,3.26.39,23.11,23.11,0,0,1,2.86.72,19.07,19.07,0,0,1,2.33.9c0.67,0.3,1.27.61,1.76,0.88s0.77,0.49,1,.63L184.22,76A1.5,1.5,0,0,1,182.72,78.61Z"/>
    <g class="bs">
      <ellipse class="ax" cx="167.89" cy="87.49" rx="14.88" ry="12.92"/>
      <g class="bt">
        <path class="az" d="M149.51,87.49c0,8.05,6.27,13.54,14,13.54s14-5.49,14-13.54S171.25,74,163.51,74,149.51,79.44,149.51,87.49Z"/>
        <path class="ba" d="M149.51,83.26c0,8.05,6.27,13.54,14,13.54s14-5.49,14-13.54-6.27-13.54-14-13.54S149.51,75.21,149.51,83.26Z"/>
      </g>
      <ellipse class="bb" cx="168.97" cy="83.14" rx="2.63" ry="2.12"/>
      <path class="bc" d="M153.89,85.64a20.25,20.25,0,0,1,28,0c0-5.61-6.27-10.15-14-10.15S153.89,80,153.89,85.64Z"/>
      <path class="bd" d="M153,90.45c0,3,4.82,8,14,8s14.88-5,14.88-8c-3.06,2.12-8.6,3-14.87,3S157.46,92.78,153,90.45Z"/>
    </g>
    <ellipse class="be" cx="167.89" cy="87.49" rx="14" ry="12"/>
    <path class="f" d="M74.75,196.92c-5.75,7.81-21,7.81-26.8-2.44,13.4-4.75,14.58-15.32,13.88-20.72"/>
    <path class="am" d="M58.6,184c15.78-2.23,22.82-12.63,30.16-24.79l-24.09,8.8A56.48,56.48,0,0,0,58.6,184Z"/>
    <path class="am" d="M79.23,172.91c-10.6,11.43-15.14,7.65-21.69,15.43-0.21-8.38,2.17-17.6,7.13-20.29"/>
    <path class="h" d="M74.75,196.92l-0.47.62a7.13,7.13,0,0,1-.58.67,8.6,8.6,0,0,1-.83.81,12.89,12.89,0,0,1-1.07.87,15.28,15.28,0,0,1-1.3.83,13.58,13.58,0,0,1-1.47.74,16,16,0,0,1-1.6.6,15.82,15.82,0,0,1-1.65.44c-0.55.13-1.1,0.2-1.64,0.27a18.61,18.61,0,0,1-2.94.11,16.38,16.38,0,0,1-2.08-.2l-0.79-.13a0.5,0.5,0,1,1,.16-1h0.06l0.74,0.16a15.49,15.49,0,0,0,2,.3,17.84,17.84,0,0,0,2.83,0c0.52,0,1.05-.08,1.59-0.18a15.28,15.28,0,0,0,1.62-.33,15.56,15.56,0,0,0,1.58-.5,13.23,13.23,0,0,0,1.48-.64,15,15,0,0,0,1.31-.74,12.71,12.71,0,0,0,1.1-.79,8.48,8.48,0,0,0,.86-0.76,7,7,0,0,0,.62-0.64Z"/>
    <path class="f" d="M204.33,197.12c5.75,7.81,21,7.81,26.8-2.44-13.4-4.75-14.58-15.32-13.88-20.72"/>
    <path class="h" d="M204.33,197.12l0.52,0.61a7.11,7.11,0,0,0,.64.66,8.54,8.54,0,0,0,.9.78,12.86,12.86,0,0,0,1.14.81,15.14,15.14,0,0,0,1.37.75l0.75,0.35,0.79,0.3a15.73,15.73,0,0,0,1.65.49,15.38,15.38,0,0,0,1.69.31c0.56,0.09,1.12.11,1.65,0.15a17.86,17.86,0,0,0,2.93-.13,15.4,15.4,0,0,0,2-.37l0.76-.19h0a0.5,0.5,0,0,1,.25,1h0l-0.81.16a16.28,16.28,0,0,1-2.15.28,18.63,18.63,0,0,1-3.05,0c-0.55-.06-1.13-0.12-1.7-0.24a15.92,15.92,0,0,1-1.72-.41,16.19,16.19,0,0,1-1.67-.59l-0.79-.35-0.75-.39a15.42,15.42,0,0,1-1.35-.84,13,13,0,0,1-1.12-.89,8.65,8.65,0,0,1-.86-0.84,7.16,7.16,0,0,1-.61-0.7Z"/>
    <path class="m" d="M208.07,180.31c4.15,0,8.78,5.48,13.5,8.26,0.21-8.38-2.2-17.63-7.16-20.32"/>
    <path class="bu" d="M79.23,172.91l-0.79.84-0.91,1c-0.35.37-.78,0.76-1.23,1.2s-1,.91-1.51,1.37l-0.85.72-0.93.7c-0.62.5-1.32,0.93-2,1.39s-1.44.87-2.2,1.25-1.52.75-2.26,1.1-1.49.69-2.19,1-1.35.72-2,1.08a17.75,17.75,0,0,0-1.6,1.17,12.55,12.55,0,0,0-1.25,1.12,9.75,9.75,0,0,0-.89.94l-0.74.85,0,0a0.5,0.5,0,1,1-.75-0.66h0l0.81-.86a10.44,10.44,0,0,1,1-.95,13.35,13.35,0,0,1,1.35-1.13A18.56,18.56,0,0,1,62,183.92c0.65-.35,1.33-0.72,2.06-1s1.48-.64,2.24-1,1.53-.64,2.28-1,1.49-.75,2.21-1.15,1.4-.83,2-1.3l0.95-.66,0.87-.69c0.57-.44,1.09-0.88,1.55-1.3s0.91-.79,1.27-1.15l0.94-.93Z"/>
    <path class="bu" d="M208.07,180.31l0.69,0a7.81,7.81,0,0,1,1.77.44c0.34,0.15.74,0.29,1.11,0.5s0.79,0.42,1.19.66c0.81,0.49,1.64,1.06,2.45,1.66,1.63,1.19,3.21,2.41,4.44,3.24s2.09,1.3,2.09,1.3a0.5,0.5,0,1,1-.47.88l0,0h0s-0.88-.55-2.08-1.48-2.72-2.25-4.25-3.52c-0.77-.64-1.55-1.25-2.32-1.79-0.38-.26-0.76-0.51-1.13-0.72s-0.73-.39-1.06-0.56a7.72,7.72,0,0,0-1.71-.54Z"/>
    <g class="ac">
      <path class="h" d="M74.9,197l-0.86,1a8.29,8.29,0,0,1-1.12,1.11,9.28,9.28,0,0,1-1.65,1.23l-0.48.31-0.54.26-1.13.55c-0.4.16-.82,0.29-1.25,0.44l-0.65.22-0.68.15c-0.46.09-.92,0.22-1.4,0.29l-1.45.16a12.32,12.32,0,0,1-1.48,0,9.32,9.32,0,0,1-1.5-.06c-0.5-.06-1-0.11-1.49-0.19l-1.45-.34a10.22,10.22,0,0,1-1.39-.44,9.81,9.81,0,0,1-1.33-.52l-1.24-.61a11.91,11.91,0,0,1-1.12-.7,12.61,12.61,0,0,1-1.9-1.49A10.19,10.19,0,0,1,49.43,197c-0.19-.24-0.39-0.44-0.54-0.66l-0.38-.61-0.73-1.16a0.18,0.18,0,0,1,.24-0.26l0.11,0.06,0.36,0.19c0.22,0.13.56,0.3,0.93,0.54a12.14,12.14,0,0,0,1.35.75,17,17,0,0,0,1.7.8,16.4,16.4,0,0,0,1.94.75c0.35,0.09.65,0.27,1,.35s0.72,0.19,1.08.29c0.73,0.18,1.48.34,2.25,0.47,0.39,0.06.78,0.1,1.16,0.18s0.79,0.07,1.18.11a6.91,6.91,0,0,0,1.18.08c0.39,0,.79.09,1.18,0s0.78,0,1.17,0,0.76-.07,1.14-0.07l0.57,0,0.55-.07,1.09-.11c0.35-.06.69-0.13,1-0.18l0.52-.07,0.47-.13c0.64-.16,1.28-0.26,1.76-0.43a8,8,0,0,0,1.46-.51c0.41-.21.78-0.34,1-0.44l0.38-.14,0.11,0A0.18,0.18,0,0,1,74.9,197Z"/>
    </g>
    <g class="ac">
      <path class="h" d="M204.56,197l0.38,0.14c0.23,0.1.6,0.23,1,.44a8,8,0,0,0,1.46.51c0.48,0.17,1.12.28,1.76,0.43l0.47,0.13,0.52,0.07c0.35,0,.69.12,1,0.18l1.09,0.11,0.55,0.07,0.57,0c0.38,0,.75.06,1.14,0.07s0.78,0,1.17,0,0.78-.06,1.18,0a6.91,6.91,0,0,0,1.18-.08c0.39,0,.79-0.06,1.18-0.11s0.77-.13,1.16-0.18c0.76-.14,1.52-0.3,2.25-0.47,0.36-.1.71-0.22,1.08-0.29s0.67-.25,1-0.35a16.39,16.39,0,0,0,1.94-.75,17,17,0,0,0,1.7-.8,12.16,12.16,0,0,0,1.35-.75c0.36-.24.71-0.41,0.93-0.54l0.36-.19,0.11-.06a0.18,0.18,0,0,1,.24.26L230.66,196l-0.38.61c-0.15.22-.35,0.42-0.54,0.66a10.19,10.19,0,0,1-1.39,1.49,12.6,12.6,0,0,1-1.9,1.49,11.93,11.93,0,0,1-1.12.7l-1.24.61a9.81,9.81,0,0,1-1.33.52,10.2,10.2,0,0,1-1.39.44l-1.45.34c-0.49.08-1,.13-1.49,0.19a9.33,9.33,0,0,1-1.5.06,12.32,12.32,0,0,1-1.48,0l-1.45-.16c-0.48-.07-0.94-0.2-1.4-0.29l-0.68-.15-0.65-.22c-0.43-.15-0.85-0.28-1.25-0.44l-1.13-.55-0.54-.26-0.48-.31a9.29,9.29,0,0,1-1.65-1.23,8.3,8.3,0,0,1-1.12-1.11l-0.86-1a0.18,0.18,0,0,1,.2-0.29Z"/>
    </g>
    <path class="bv" d="M221.57,188.57a22.45,22.45,0,0,0,9.55,6.11,15.59,15.59,0,0,1-9.85,7.42,26.88,26.88,0,0,1-3.65,6.16c5.36,8.25,9.51,20.17,9.44,37.28-0.1,25.44-6.92,43.39-14,46.39-0.57,19.55-17.72,35.44-28.07,35.44,0,13.11-17.12,17.77-21,18.86,0,5.35-12.43,12.28-24.85,12.37s-24.86-6.67-24.86-12.68c-8.29,0-21.54-8.69-21.54-18.44-15,0-29.2-16.21-30.25-36.57-9.59-2.62-15.66-25.29-15.66-45.28s6-32.76,13.06-41c-0.52-.82-1-1.68-1.45-2.56A15.72,15.72,0,0,1,48,194.48a22.27,22.27,0,0,0,9.59-6.15"/>
    <path class="bw" d="M57.54,188.33a35.19,35.19,0,0,1,2.62-14.85C57.72,157,55,139.35,55,133.55c0-5,6-16.26,6-22,0-8.75-7.58-22.4-9.75-30.28-0.87-3.15-10-6.48-11.67-13.3-1.3-5.28-3.53-16.88-3.53-16.88C29.9,52.88,23,54.33,20,52.89c-1.87-.92-3-3.41-1.29-8.74,1.42-4.4,5.63-29.9,5.63-29.9C25.63,7.75,32.27,3.73,38.69,5c0,0,17.68,2.62,27.12,2.62,13.73,0,24.52-2,29.13,1.16C99.09,11.67,101.21,21.9,106,23.5c7,2.33,58,1.33,68-2,7.47-2.49,10.5-20,20-20,10.06,0,26.25,17,36,17,5.77,0,19.72-1.75,23,3,5.76,8.33-3,29.72-10,37-3.88,4-9.25,6.5-13,4-2.24-1.5-5.87-2.65-8-1-7.77,6,3,20,3,36,0,7.62-12,17.5-12,26,0,13.33,5.75,34.37,5.75,49,0,0.27,0,.55,0,0.82,2,4.13,3,9.88,2.83,15.27"/>
    <path class="bx" d="M215.32,152c4.61,2.22,7,8.09,6.59,13.94,0,0-3.61-5-7.09-5"/>
    <path class="bx" d="M55.43,135.07s-5.71,7.41-1.58,15.82c0,0,1.56-5.83,4.41-6.66"/>
    <path class="by" d="M60.38,165A12.51,12.51,0,0,1,52,159.2s6.2,1.7,8.33-.71"/>
    <path class="bx" d="M60.89,101.68a23.21,23.21,0,0,0-2.63,16.81s1.31-6.23,5.79-7.48"/>
    <path class="by" d="M54.43,84.65s-4.77,6.09.42,14.82c0,0-.56-5.43,2.41-6.66"/>
    <path class="bz" d="M39.71,57.57S36.82,70.5,43,78.53c0,0-.56-5.43,2.41-6.66"/>
    <path class="bz" d="M47.3,75.44s-1.79,3.27,2.22,9.41c0,0-.24-4.92,2.31-6.58"/>
    <path class="bx" d="M36.26,8.32A32.16,32.16,0,0,0,23.33,5.92s4,2.58,3.5,5.76"/>
    <path class="as" d="M26.81,7.25s2.19,0.22,4.35.67c1.07,0.24,2.14.54,2.92,0.8s1.3,0.46,1.3.46a0,0,0,0,1,0,.09h0l-0.41,0c-0.25,0-.62,0-1,0S33,9.23,32.5,9.16C32.25,9.12,32,9.11,31.73,9L30.94,8.9l-0.78-.19c-0.26,0-.51-0.15-0.75-0.21A12.31,12.31,0,0,1,28.08,8a8.27,8.27,0,0,1-1.29-.66h0A0,0,0,0,1,26.81,7.25Z"/>
    <path class="ca" d="M53.34,8.06s-2.43-3.42-8.73-3.88c0,0,1.84,1.75,3.38,3.39"/>
    <path class="ca" d="M245.56,19.44a32.17,32.17,0,0,1,13.14.44s-5.5,1.65-5.67,4.86"/>
    <path class="cb" d="M255,20.54a8.27,8.27,0,0,1-1.4.37,12.3,12.3,0,0,1-1.4.18c-0.25,0-.52.05-0.78,0l-0.8,0-0.8,0c-0.26,0-.53,0-0.78-0.05-0.51,0-1-.1-1.39-0.18s-0.76-.15-1-0.21l-0.4-.12h0a0,0,0,0,1,0-.09s0.54-.09,1.37-0.17,1.92-.14,3-0.15c2.2,0,4.39.29,4.39,0.29a0,0,0,0,1,0,.09h0Z"/>
    <path class="bx" d="M247.22,50c1.66,6.16-2.46,13.35-7.22,16.45,0,0,2-7.28-.82-9.3"/>
    <path class="bx" d="M253.25,33.69c1.77,4.59,1.12,12.39-1.94,17.26,0,0,.7-6.63-3-8.83"/>
    <path class="by" d="M220.38,86a7.92,7.92,0,0,0,8.33-3.79s-6.61.36-8.47-4.13"/>
    <path class="by" d="M223.56,92.48c4.9,3.37,4.55,13.31,2.47,18.6,0,0-.93-8.68-4.41-8.68"/>
    <path class="bx" d="M211.3,129.45c2,7.42,6.42,13,11.25,15.17,0,0-7.85,1.46-10.72-3"/>
  </g>
  <line class="bv" x1="46" y1="259" x2="228" y2="259"/>
  <line class="bv" x1="25.5" y1="259" x2="38.5" y2="259"/>
  <line class="bv" x1="13" y1="259" x2="19" y2="259"/>
  <line class="bv" x1="248.5" y1="259" x2="235.5" y2="259"/>
  <line class="bv" x1="261" y1="259" x2="255" y2="259"/>
</svg>
