<svg xmlns="http://www.w3.org/2000/svg" width="97.99983" height="91.01" viewBox="0 0 97.99983 91.01">
  <defs>
    <style>
      .a, .d, .e, .f, .g, .j, .k, .p, .u, .v, .x {
        fill: none;
      }

      .a {
        stroke: #e5e4e0;
      }

      .a, .b, .g, .j, .k, .m, .p, .v, .x {
        stroke-linecap: round;
      }

      .a, .b, .d, .e, .f, .g, .j, .k, .m, .p, .v, .x {
        stroke-linejoin: round;
        stroke-width: 2px;
      }

      .b {
        fill: #bca78e;
      }

      .b, .m, .t, .u, .v, .x {
        stroke: #726051;
      }

      .c, .i {
        fill: #726051;
      }

      .c, .e, .f, .g, .h {
        opacity: 0.2;
      }

      .d, .e, .g {
        stroke: #8e7c69;
      }

      .d, .e, .f {
        stroke-linecap: square;
      }

      .d, .i, .s, .v {
        opacity: 0.4;
      }

      .f, .p {
        stroke: #e5ccae;
      }

      .h {
        fill: #726050;
      }

      .j {
        stroke: #31bd93;
      }

      .k {
        stroke: #6ad4b6;
      }

      .l {
        fill: #ceb797;
      }

      .m {
        fill: #e5e4e0;
      }

      .n {
        opacity: 0.1;
      }

      .o, .t {
        fill: #8e7c69;
      }

      .p, .w {
        opacity: 0.3;
      }

      .q {
        opacity: 0.6;
      }

      .r, .w {
        fill: #e5ccae;
      }

      .t, .u {
        stroke-miterlimit: 10;
      }
    </style>
  </defs>
  <title>signpost</title>
  <g>
    <path class="a" d="M1.00057,86.07319c11.62377-.125,11.63522.93947,23.259.81448,11.62434-.125,11.61545-.95187,23.2398-1.07687,11.62594-.125,11.6282.08455,23.25414-.04046s11.61847-.8196,23.24442-.94461"/>
    <path class="b" d="M40,87H15V1.01016c7.92276-.03454,16.23481.0328,25,0Z"/>
    <rect class="c" x="14.99997" y="4.02032" width="3.99999" height="83.99985"/>
    <rect class="c" x="35.99995" y="4.02032" width="3.99999" height="84"/>
    <line class="d" x1="19" y1="85.02032" x2="17" y2="5.02032"/>
    <line class="e" x1="23.83329" y1="86.02862" x2="22" y2="41.02032"/>
    <line class="f" x1="27.99995" y1="85.02032" x2="24.99996" y2="5.02032"/>
    <line class="d" x1="31" y1="85.02032" x2="34.82049" y2="6.10365"/>
    <line class="g" x1="33" y1="86.02032" x2="37" y2="56.02032"/>
    <rect class="c" x="15.99997" y="78.02034" width="23.00003" height="8.99998"/>
    <rect class="h" x="16" y="4.02032" width="23" height="3"/>
    <rect class="h" x="14.99997" y="41.02032" width="25.00003" height="6"/>
    <rect class="i" x="15" y="41.02032" width="25.00003" height="2"/>
    <line class="j" x1="10.6237" y1="87.83173" x2="9.6237" y2="81.83173"/>
    <line class="j" x1="12" y1="86.02031" x2="12.99999" y2="81.02032"/>
    <line class="k" x1="12.99999" y1="87.02032" x2="10" y2="80.02032"/>
    <line class="k" x1="13.99999" y1="87.43075" x2="14.99999" y2="83.02031"/>
    <line class="j" x1="42.00001" y1="88.02032" x2="41.00001" y2="83.60988"/>
    <line class="j" x1="43.00001" y1="88.02032" x2="44" y2="83.02033"/>
    <line class="k" x1="44" y1="88.02032" x2="42.00001" y2="82.60988"/>
    <line class="k" x1="43.58868" y1="88.75955" x2="45.27276" y2="82.75956"/>
    <line class="j" x1="45" y1="89.02032" x2="46" y2="84.60988"/>
    <polygon class="l" points="81 40.02 1 40.02 1 8.02 81 8.02 97 24.02 81 40.02"/>
    <line class="g" x1="1" y1="13.02032" x2="82.99985" y2="11.02032"/>
    <line class="g" x1="1" y1="38.08899" x2="84.99985" y2="36.08899"/>
    <rect class="i" x="16" y="83.02032" width="23" height="3.99999"/>
    <polyline class="m" points="8.5 89.01 17.5 85.01 20.5 88.01"/>
    <line class="g" x1="1" y1="26.02031" x2="93.99983" y2="22.02032"/>
    <line class="g" x1="1" y1="16.02032" x2="90.99984" y2="18.02032"/>
    <line class="g" x1="1" y1="30.02032" x2="88.99984" y2="32.02032"/>
    <g class="n">
      <path class="o" d="M11.21342,39.8531c4.295-3.52285,2.40861-4.96243,3.01788-10.276.62322-5.43521,2.28859-5.04038,3.65044-10.34609,1.36166-5.305,4.8933-6.509,2.02672-11.21072H1V39.8531Z"/>
    </g>
    <line class="p" x1="40.99993" y1="14.08903" x2="85.99985" y2="13.08903"/>
    <line class="p" x1="32.99994" y1="21.08902" x2="92.99983" y2="20.08902"/>
    <line class="p" x1="36.99993" y1="35.08899" x2="86.99984" y2="34.089"/>
    <polyline class="m" points="19 88.81 27 85.02 35 88.02"/>
    <g class="q">
      <path class="r" d="M16.0008,8.02032c.1956.14251.43958.30534.73572.49038,6.83733,4.27208,8.11885,2.31541,16.15652,2.94443,6.35729.49751,6.47191-.70563,12.84742-.58062s6.37568.11586,12.75119.24087c6.37463.125,6.40917-1.63683,12.7838-1.51184,6.15411.12067,6.20634,1.73074,11.72446.28416L80.99985,8.089Z"/>
    </g>
    <polyline class="m" points="45 90.01 36 85.01 32 89.02"/>
    <line class="j" x1="25.31402" y1="89.00599" x2="26.07471" y2="86.44181"/>
    <line class="j" x1="27.88512" y1="88.94243" x2="28.58839" y2="85.72285"/>
    <line class="j" x1="23.98085" y1="89.36811" x2="23.63626" y2="85.43568"/>
    <line class="k" x1="26.8947" y1="88.885" x2="27.54053" y2="85.01001"/>
    <line class="k" x1="22" y1="89.25324" x2="22.70327" y2="86.03366"/>
    <g>
      <g class="s">
        <path class="o" d="M26.98789,17.72485c-2.84432.07937-4.02288.117-3.94351-2.72734.08393-3.00762,1.25935-2.15556,4.267-2.23949,2.84432-.07937,2.73168-.56348,3.782,2.081C32.10592,17.38837,29.99552,17.64093,26.98789,17.72485Z"/>
      </g>
      <circle class="t" cx="27" cy="15.02032" r="2"/>
      <line class="u" x1="25" y1="14.99628" x2="29" y2="14.99628"/>
    </g>
    <g>
      <g class="s">
        <path class="o" d="M26.98789,36.004c-2.84432.07937-4.02288.117-3.94351-2.72734.08393-3.00762,1.25935-2.15556,4.267-2.23949,2.84432-.07937,2.73168-.56348,3.782,2.081C32.10592,35.66749,29.99552,35.92,26.98789,36.004Z"/>
      </g>
      <circle class="t" cx="27" cy="34.02032" r="2"/>
      <line class="u" x1="25" y1="34.02032" x2="29" y2="34.02032"/>
    </g>
    <line class="v" x1="52.99991" y1="29.089" x2="94" y2="27.02032"/>
    <path class="w" d="M94.04578,27.04306,80.99985,40.089H32.99994C30.922,34.9,38.45055,38.49155,43.45,35.99182c4.99971-2.49985,4.59325-3.31277,9.593-5.81263,5.0004-2.5002,5.94663-.94235,10.70328-3.87991,4.77712-2.95021,3.75376-5.16531,9.2931-5.92075,6.027-.82194,5.86307,1.2951,11.86306,2.2951,3.49724.58287,6.63842-1.103,9.09782-1.49241h0A6.22846,6.22846,0,0,1,94.04578,27.04306Z"/>
    <polygon class="x" points="81 40.02 1 40.02 1 8.02 81 8.02 97 24.02 81 40.02"/>
  </g>
</svg>
