<?xml version="1.0" encoding="utf-8"?>
<!-- Generator: Adobe Illustrator 17.0.0, SVG Export Plug-In . SVG Version: 6.00 Build 0)  -->
<!DOCTYPE svg PUBLIC "-//W3C//DTD SVG 1.1//EN" "http://www.w3.org/Graphics/SVG/1.1/DTD/svg11.dtd">
<svg version="1.1" id="Layer_1" xmlns="http://www.w3.org/2000/svg" xmlns:xlink="http://www.w3.org/1999/xlink" x="0px" y="0px"
	 width="119.8px" height="213.7px" viewBox="0 0 119.8 213.7" enable-background="new 0 0 119.8 213.7" xml:space="preserve">
<g>
	<path fill="#EA4C89" d="M107.4,12.2c0.3-0.1,0.7-0.2,1-0.4c-0.2-0.3-0.3-0.6-0.4-0.9c0-0.1-0.1-0.2-0.2-0.3c-2.1,0.6-4.5,1-7.2,1
		c-0.1,2.2,0.8,3.8,1.8,4.9C103.6,14.7,105.3,13.1,107.4,12.2z"/>
	<path fill="#EA4C89" d="M108.9,13c-2.4,0.9-4.4,2.3-5.6,4.4c0.8,0.6,1.9,1.2,3.2,1.4c1.4,0.2,2.9,0,3.9-0.5c-0.3-1.8-0.8-3.5-1.4-5
		C109,13.2,109,13.1,108.9,13z"/>
	<path fill="#EA4C89" d="M104.6,5.5c-2,1-3.3,2.6-3.9,4.9c2.4,0,4.6-0.3,6.5-0.9C106.4,8.1,105.6,6.7,104.6,5.5z"/>
	<path fill="#EA4C89" d="M95.8,24.1h24V-0.1h-24V24.1z M100,8.8c0.4-1,0.9-1.8,1.6-2.6c0.9-1,2.2-1.9,3.8-2.4
		c0.6-0.2,1.2-0.3,1.8-0.3c2.7-0.2,4.7,0.9,6.1,2.2c1.4,1.3,2.5,3.1,2.7,5.6c0.2,2.7-0.9,4.7-2.2,6.1c-0.7,0.7-1.4,1.3-2.4,1.8
		c-0.9,0.5-2,0.8-3.2,0.9c-2.6,0.1-4.7-0.9-6.1-2.2c-1.4-1.3-2.5-3.1-2.7-5.6C99.3,11,99.6,9.9,100,8.8z"/>
	<path fill="#EA4C89" d="M110.2,12.7c0.5,1.6,1,3.2,1.4,5c0.4-0.2,0.7-0.5,1.1-0.8c1-1,1.7-2.2,2-3.9
		C113.4,12.6,111.7,12.5,110.2,12.7z"/>
	<path fill="#EA4C89" d="M108.7,9.1c1.5-0.6,2.8-1.4,3.7-2.6c-1.2-1-2.8-1.9-5-1.7c-0.5,0-0.9,0.1-1.4,0.2c0.8,1.2,1.6,2.4,2.3,3.6
		C108.4,8.8,108.5,9,108.7,9.1z"/>
	<path fill="#EA4C89" d="M109.2,10.2c0.2,0.3,0.3,0.7,0.5,1c0.1,0.1,0.1,0.3,0.2,0.3c1.6-0.2,3.5,0,4.9,0.2
		c-0.1-1.9-0.7-3.3-1.6-4.4C112.1,8.6,110.8,9.5,109.2,10.2z"/>
</g>
<g>
	<path fill="#7C9D46" d="M71.9,47.9h-24v24h24V47.9z M63.2,65.3L63.2,65.3l-2.8,0v-2l2.2-1.1l-0.3-0.5l-1.9,1v-0.7l1.3-0.7l-0.3-0.5
		l-1,0.5v-1.3h-1.4v2l-1-0.7l-0.3,0.5l1.3,0.9v2.6h-4.5l5.3-12.6l5.3,12.6L63.2,65.3L63.2,65.3z"/>
</g>
<g>
	<path fill="#3B5998" d="M0,24.1h24V0H0V24.1z M8.5,9.4H10v-2c0-0.4-0.1-2.9,3.1-2.9h2.2v2.6h-1.7c-0.3,0-0.7,0.3-0.7,0.6v1.7h2.3
		c-0.1,1.3-0.3,2.5-0.3,2.5h-2v7.4h-3v-7.4H8.5L8.5,9.4L8.5,9.4z"/>
</g>
<g>
	<path fill="#6BB130" d="M63.2,107.7c-0.1-0.2-0.3-0.4-0.6-0.4h0c-0.3,0-0.5,0.1-0.6,0.3c-0.1,0.2-0.2,0.4-0.2,0.6l0,0.1l0.1,0
		c0.1,0,0.3,0,0.4,0c0,0,0.1,0,0.1,0c0.3,0,0.6,0.1,0.9,0.2l0.1,0.1l0-0.1C63.4,108.1,63.3,107.9,63.2,107.7z"/>
	<path fill="#6BB130" d="M71.9,95.8h-24v24h24V95.8z M56.4,102.4c0,0.1,0,0.3,0,0.4v0c0,0.2,0,0.5,0,0.8c0,0.2,0,0.3,0,0.4
		c0,0.1,0,0.1,0,0.1l0,0v0l0,0H55c-0.2,0-0.4,0-0.6,0.1L56.4,102.4z M65.2,109.9c-0.2,1.9-0.5,3.1-0.6,3.4c-0.3,0.9-0.6,1.4-1,1.6
		c-0.4,0.2-0.9,0.2-1.6,0.2c-0.9,0-1.6-0.1-1.9-0.3c-0.2-0.1-0.3-0.3-0.4-0.5c-0.1-0.2-0.1-0.5-0.1-0.9c0-0.7,0.2-1.1,0.4-1.3
		c0.3-0.2,0.7-0.3,1.2-0.3c0.1,0,0.3,0,0.4,0c0,0,0,0.1,0,0.1c0,0.1-0.1,0.2-0.1,0.3c0,0.1,0,0.2,0,0.3c0,0.1,0,0.1,0,0.1h0
		c-0.1,0-0.1,0-0.2,0c-0.2,0-0.4,0-0.5,0.1c-0.2,0.1-0.3,0.2-0.3,0.5c0,0.2,0,0.3,0.1,0.4c0.1,0.2,0.2,0.2,0.4,0.3
		c0.2,0,0.4,0,0.6,0h0.1c0.5,0,0.8,0,1-0.2c0.1-0.1,0.2-0.2,0.2-0.4c0-0.2,0-0.3,0-0.6c0-0.8-0.1-1.2-0.3-1.5
		c-0.2-0.3-0.5-0.4-0.8-0.4c-0.7-0.1-1.3-0.2-1.6-0.3c-0.3-0.1-0.5-0.3-0.6-0.6c-0.1-0.3-0.1-0.6-0.1-0.8c0-0.1,0-0.1,0-0.1l0-0.1
		l-0.1,0l-0.1,0c0,0,0,0.1,0,0.1c0,0.4,0,1-0.2,1.6c-0.1,0.2-0.1,0.3-0.1,0.3c-0.1,0.1-0.1,0.2-0.2,0.2c-0.1,0-0.2,0.1-0.3,0.1
		c-0.2,0-0.4-0.1-0.8-0.1c-0.7-0.1-2.1-0.4-2.7-0.6c-0.3-0.1-0.3-0.2-0.5-0.5c-0.2-0.4-0.4-1.2-0.5-1.9c-0.1-0.7-0.3-1.4-0.3-1.6
		c0-0.2,0-0.4-0.1-0.5c0-0.1,0-0.2,0-0.2v0c0-0.3,0-0.5,0.2-0.7c0.1-0.1,0.2-0.2,0.3-0.3c0.1-0.1,0.3-0.1,0.6-0.1h1.3
		c0.3,0,0.6-0.3,0.6-0.6c0,0,0-0.3,0-0.6c0-0.3,0-0.7,0-0.8c0-0.2,0.1-0.4,0.2-0.5c0.1-0.2,0.4-0.3,0.6-0.4c0.1,0,0.4-0.1,0.8-0.1
		c0.5,0,1,0.1,1.4,0.2c0.3,0.1,0.5,0.4,0.6,0.8l0,0.1l0.1,0c0.2,0,0.3,0,0.6,0c0.4,0,0.9,0,1.3,0.1c0.8,0.1,1.4,0.2,1.7,0.3
		c0.3,0.1,0.6,0.3,0.7,0.8c0.1,0.7,0.3,3.3,0.3,4.9C65.2,109.3,65.2,109.7,65.2,109.9z"/>
</g>
<g>
	<path fill="#2281CF" d="M24,47.9H0v24h24V47.9z M9.1,54l2.7,2.3l-3.9,2.4l-2.7-2.1L9.1,54z M7.8,59.2l3.9,2.5l-2.6,2l-4-2.4
		L7.8,59.2z M16.5,64.2l-4.5,2.9v0l0,0l0,0v0l-4.4-2.9v-0.9l1.4,0.9l3-2.3l3,2.3l1.5-0.9C16.5,63.3,16.5,64.2,16.5,64.2z M16.4,62.9
		l-1.3,0.8l-2.7-2.1l3.9-2.6l2.7,2.3L16.4,62.9z M16.5,58.6l-4.1-2.3l2.7-2.3l3.9,2.5L16.5,58.6z"/>
</g>
<g>
	<path fill="#4183C4" d="M10.5,105.6c0.5,0.4,1.5,0.4,2,0C14.1,102.4,8.9,102.2,10.5,105.6z"/>
	<path fill="#4183C4" d="M24,95.8H0v24h24V95.8z M15.6,103.3c-0.3,0.1-0.6,0.2-0.8,0.2c0.5,1.5-0.3,3.4-1.6,4.1
		c-0.7,0.3-1.9,0.2-1.9,1.1c-0.1,1.2,3.2,1.3,3.8,2.1c0.7,0.9,0.6,2.7-0.2,3.6c-1.2,1.3-5.1,1.4-6.4,0c-1.1-1.1-0.7-3.9,1.3-4.2
		c-0.8-0.3-0.9-2.4-0.1-2.8c-3-2-1.7-6.8,2.4-6.3c0.9,0.1,2.2,0.8,3.5,0L15.6,103.3L15.6,103.3z"/>
	<path fill="#4183C4" d="M10.1,112.9c0.4,1.1,3.4,1,3.3-0.5c-0.1-1-1.3-1.1-2.3-0.9C10.1,111.7,9.8,112,10.1,112.9z"/>
</g>
<g>
	<polygon fill="#CC0000" points="96,48.1 95.9,48.1 95.9,48.1 	"/>
	
		<ellipse transform="matrix(-0.2625 -0.9649 0.9649 -0.2625 78.2507 173.8231)" fill="#CC0000" cx="105.6" cy="57" rx="2.2" ry="1.5"/>
	<path fill="#CC0000" d="M95.9,72.1h24v-24H96c0,0,0,0,0,0V72.1z M110.2,56.6h2.3v-2.3h0.7v2.3h2.3v0.7h-2.3v2.3h-0.7v-2.3h-2.3
		V56.6z M105.5,60.5v-0.7c0,0-3,0.3-3-2.5c0-2.9,3.4-3,3.4-3h3.3c0,0.5-1.5,0.3-1.5,0.6c0.9,0.4,1,1.1,1,2.2c0,1.8-1.7,2.1-1.7,2.8
		s2.3,1.4,2.3,3.3c0,3.2-4,3-4,3s-3.5,0.1-3.5-2.5c0-2.6,3.9-2.5,4.1-2.5C105.9,60.7,105.5,60.8,105.5,60.5z"/>
	
		<ellipse transform="matrix(6.760082e-02 0.9977 -0.9977 6.760082e-02 161.9962 -46.0893)" fill="#CC0000" cx="105.7" cy="63.6" rx="1.8" ry="2.5"/>
</g>
<g>
	<path fill="#0073A5" d="M104.2,103.6c-0.7,0-1.2,0.5-1.2,1.1c0,0.6,0.4,1.1,1.1,1.1h0c0.7,0,1.2-0.5,1.2-1.1
		C105.4,104,104.9,103.6,104.2,103.6z"/>
	<rect x="103.2" y="106.5" fill="#0073A5" width="2.1" height="6.2"/>
	<path fill="#0073A5" d="M110.3,106.4c-1.1,0-1.6,0.6-1.8,1v0h0c0,0,0,0,0,0v-0.9h-2c0,0.6,0,6.2,0,6.2h2v-3.4c0-0.2,0-0.4,0.1-0.5
		c0.1-0.4,0.5-0.7,1.1-0.7c0.7,0,1,0.6,1,1.4v3.3h2v-3.5C112.6,107.3,111.6,106.4,110.3,106.4z"/>
	<path fill="#0073A5" d="M108.1,96.1c-0.1,0-0.2,0-0.3,0s-0.2,0-0.3,0H95.9v24h24v-24H108.1z M114.6,114c0,0.5-0.5,1-1,1h-11.6
		c-0.6,0-1-0.4-1-1v-11.7c0-0.5,0.4-1,1-1h11.6c0.6,0,1,0.4,1,1V114z"/>
</g>
<g>
	<path fill="#D43638" d="M24,143.8H0v24h7.3c0,0,0,0,0,0c0-0.2,0-0.4-0.1-0.6c0-0.2-0.1-0.4-0.1-0.7c0,0,0,0,0,0
		c0-0.8,0-1.8,0.2-2.7c0.2-1,1.5-6.5,1.5-6.5s-0.4-0.8-0.4-1.9c0-1.8,1-3.1,2.3-3.1c1.1,0,1.6,0.8,1.6,1.8c0,1.1-0.7,2.7-1.1,4.2
		c-0.3,1.3,0.6,2.3,1.9,2.3c2.3,0,3.8-2.9,3.8-6.4c0-2.6-1.8-4.6-5-4.6c-3.6,0-5.9,2.7-5.9,5.7c0,1,0.3,1.8,0.8,2.3
		c0.2,0.3,0.3,0.4,0.2,0.7c-0.1,0.2-0.2,0.7-0.2,1c-0.1,0.3-0.3,0.4-0.6,0.3c-1.7-0.7-2.4-2.5-2.4-4.6c0-3.4,2.9-7.5,8.5-7.5
		c4.6,0,7.6,3.3,7.6,6.9c0,4.7-2.6,8.2-6.5,8.2c-1.3,0-2.5-0.7-2.9-1.5c0,0-0.7,2.8-0.8,3.3c-0.2,0.9-0.7,1.8-1.2,2.5
		c-0.1,0.1-0.2,0.2-0.3,0.3c-0.2,0.2-0.4,0.3-0.6,0.5H24V143.8z"/>
</g>
<path fill="#2CA9E1" d="M47.9,0v24h24V0H47.9z M65.4,9.7c0,0.1,0,0.2,0,0.3c0,3.4-2.6,7.3-7.3,7.3c-1.5,0-2.8-0.4-3.9-1.2
	c0.2,0,0.4,0,0.6,0c1.2,0,2.3-0.4,3.2-1.1c-1.1,0-2.1-0.8-2.4-1.8c0.2,0,0.3,0,0.5,0c0.2,0,0.5,0,0.7-0.1c-1.2-0.2-2.1-1.3-2.1-2.5
	v0c0.3,0.2,0.7,0.3,1.2,0.3c-0.7-0.5-1.1-1.2-1.1-2.1c0-0.5,0.1-0.9,0.3-1.3c1.3,1.6,3.2,2.6,5.3,2.7c0-0.2-0.1-0.4-0.1-0.6
	c0-1.4,1.2-2.6,2.6-2.6c0.7,0,1.4,0.3,1.9,0.8c0.6-0.1,1.1-0.3,1.6-0.6c-0.2,0.6-0.6,1.1-1.1,1.4c0.5-0.1,1-0.2,1.5-0.4
	C66.3,8.9,65.9,9.4,65.4,9.7z"/>
<path fill="#2C4762" d="M47.9,143.8v24h24v-24H47.9z M64.6,162.5c-0.6,0.3-1.2,0.5-1.7,0.6c-0.5,0.1-1.1,0.2-1.7,0.2
	c-0.7,0-1.1-0.1-1.6-0.3c-0.5-0.2-1-0.4-1.3-0.7c-0.4-0.3-0.6-0.7-0.8-1c-0.1-0.4-0.2-0.9-0.2-1.6v-5.2h-2v-2.1
	c0.6-0.2,1.3-0.5,1.7-0.8c0.4-0.4,0.8-0.8,1-1.3c0.3-0.5,0.4-1.1,0.5-1.9h2.1v3.4H64v2.7h-3.4v3.8c0,0.9,0,1.4,0.1,1.6
	c0.1,0.2,0.3,0.5,0.6,0.6c0.3,0.2,0.7,0.3,1.1,0.3c0.8,0,1.5-0.2,2.3-0.7L64.6,162.5L64.6,162.5z"/>
<path fill="#82B038" d="M0,189.7v24h24v-24H0z M13,209.2c-1.5,0-2.1-0.7-4.2-4.7c-0.4,0.4-1.1,0.7-1.4,0.7c-0.4,0-0.6-0.3-0.6-1.2
	c0-0.9,0.6-2.5,1.9-2.5c0.4,0,0.7,0.1,1.1,0.5c1.2-0.9,2.8-2.6,3.5-3.5c-1.3-0.4-2.3-0.7-2.9-0.7c-0.3,0-0.6,0.1-1.1,0.4
	c-0.4-0.1-0.6-0.4-0.6-1c0-1,0.8-1.9,1.8-1.9c1.1,0,2,0.3,4.1,1.1c0.3-0.4,0.5-0.7,0.8-0.7c0.6,0,1,0.7,1,1.2c0,0.6-0.4,1.2-1.5,2
	c-1.3,1.8-2.3,2.8-4,4.3c2.2,3.3,2.6,3.6,3.3,3.6c0.5,0,1.2-0.2,1.8-0.6c0.2,0.1,0.4,0.4,0.4,0.8C16.3,208,14.6,209.2,13,209.2z"/>
<g>
	<path fill="#BF0900" d="M104.9,160.3c0,0.4,0,0.7,0,0.9c0,0.2,0,0.5,0.2,0.7c0.4,0.3,1.2,0,1.4-0.5l0,0.6h0.8v-4.3h-0.9v2.7
		c0,0.4,0,0.6,0,0.7c-0.1,0.2-0.4,0.4-0.6,0c0-0.1,0-0.3,0-0.7l0-2.7h-0.9L104.9,160.3z"/>
	<polygon fill="#BF0900" points="103,161.9 104,161.9 104,156.8 105.1,156.8 105.1,156.1 102.1,156.1 102.1,156.8 103,156.8 	"/>
	<path fill="#BF0900" d="M107.8,152.8c0.2,0,0.4-0.2,0.4-0.5v-2.4c0-0.3-0.2-0.5-0.4-0.5c-0.2,0-0.4,0.2-0.4,0.5v2.4
		C107.3,152.6,107.5,152.8,107.8,152.8z"/>
	<path fill="#BF0900" d="M108.8,161.5c1,0.9,1.6,0.3,1.6-0.8l0-2.3c0-0.9-0.6-1.4-1.5-0.7l0-1.7l-0.9,0l0,5.8l0.8,0L108.8,161.5z
		 M108.9,158.3c0-0.2,0.2-0.3,0.4-0.3c0.2,0,0.4,0.2,0.4,0.3v2.5c0,0.2-0.2,0.3-0.4,0.3c-0.2,0-0.4-0.2-0.4-0.3V158.3z"/>
	<path fill="#BF0900" d="M113.3,160.4l-0.7,0c0,0,0,0.1,0,0.1v0.4c0,0.2-0.2,0.4-0.4,0.4h-0.1c-0.2,0-0.4-0.2-0.4-0.4v0v-0.4v-0.6
		h1.6v-0.6c0-0.4,0-0.9,0-1.2c-0.1-0.8-1.2-0.9-1.8-0.5c-0.2,0.1-0.3,0.3-0.4,0.5c-0.1,0.2-0.1,0.6-0.1,1v1.3
		C111,162.7,113.7,162.3,113.3,160.4z M111.7,158.6c0-0.2,0.2-0.4,0.4-0.4h0.1c0.2,0,0.4,0.2,0.4,0.4l0,0.5h-0.9L111.7,158.6z"/>
	<path fill="#BF0900" d="M95.9,143.8v24h24v-24H95.9z M105.4,150.1l0,3.4h-1l0-3.4l-1.2-3h1.1l0.6,2.2l0.6-2.2h1.1L105.4,150.1z
		 M106.6,149.5c0.1-0.2,0.2-0.4,0.4-0.6c0.2-0.1,0.4-0.2,0.7-0.2c0.2,0,0.5,0,0.6,0.1c0.2,0.1,0.3,0.2,0.4,0.4
		c0.1,0.2,0.2,0.3,0.2,0.5c0,0.2,0.1,0.4,0.1,0.7v1.1c0,0.4,0,0.7-0.1,0.9c0,0.2-0.1,0.4-0.2,0.5c-0.1,0.2-0.2,0.3-0.4,0.4
		c-0.2,0.1-0.4,0.1-0.6,0.1c-0.2,0-0.4,0-0.6-0.1c-0.2-0.1-0.3-0.2-0.4-0.3c-0.1-0.1-0.2-0.3-0.2-0.5c0-0.2-0.1-0.5-0.1-0.9v-1.2
		C106.5,150.1,106.6,149.8,106.6,149.5z M103.4,154.5h9.1c1.2,0,2.2,0.9,2.2,2.1v4.8c0,1.2-1,2.1-2.2,2.1h-9.1
		c-1.2,0-2.2-0.9-2.2-2.1v-4.8C101.2,155.4,102.2,154.5,103.4,154.5z M110.8,152.8c0.2,0,0.3-0.2,0.3-0.3v-3.5h0.8v4.5h-1.1l0-0.4
		c-0.1,0.2-0.2,0.3-0.3,0.3c-0.1,0.1-0.2,0.1-0.4,0.1c-0.2,0-0.3,0-0.4-0.1c-0.1-0.1-0.2-0.2-0.2-0.3c0-0.1-0.1-0.2-0.1-0.4
		c0-0.1,0-0.4,0-0.8v-3h0.9v3.5C110.5,152.6,110.6,152.8,110.8,152.8z"/>
</g>
</svg>
