<svg xmlns="http://www.w3.org/2000/svg" xmlns:xlink="http://www.w3.org/1999/xlink" width="738" height="616.76398" viewBox="0 0 738 616.76398">
  <defs>
    <style>
      .a, .f, .h, .l {
        fill: #ffdb6d;
      }

      .a, .h, .j, .k, .l {
        stroke: #dba758;
      }

      .a, .c, .d, .e, .j, .k, .l, .s, .t {
        stroke-linecap: round;
        stroke-linejoin: round;
      }

      .a, .c, .d, .e, .j, .p, .s, .t {
        stroke-width: 2px;
      }

      .b {
        fill: #553143;
      }

      .c {
        fill: #fbf9fa;
      }

      .c, .d, .e, .s, .t {
        stroke: #eeeaec;
      }

      .d, .i, .j, .k, .p, .t {
        fill: none;
      }

      .d, .o {
        opacity: 0.4;
      }

      .e {
        fill: url(#a);
      }

      .g {
        clip-path: url(#b);
      }

      .h, .i, .p {
        stroke-miterlimit: 10;
      }

      .h, .i, .k, .l {
        stroke-width: 12px;
      }

      .h, .k, .l, .r {
        opacity: 0.2;
      }

      .i {
        stroke: #ffe38d;
      }

      .m {
        clip-path: url(#c);
      }

      .n {
        fill: #664656;
      }

      .o {
        fill: #301d28;
      }

      .p {
        stroke: #301d28;
      }

      .q, .s {
        fill: #fff;
      }

      .r {
        fill: #eeeaec;
      }
    </style>
    <linearGradient id="a" x1="369" y1="615.76398" x2="369" y2="63.76398" gradientUnits="userSpaceOnUse">
      <stop offset="0.35" stop-color="#fbf9fa"/>
      <stop offset="0.5" stop-color="#fff"/>
    </linearGradient>
    <clipPath id="b">
      <path class="a" d="M458.00015,236.03453c0-8-7-13-16-13h-31.5c-25,0-8.7724-26.18438-8.7724-26.18438s11.428-15.68421,8.13757-30.44733c-1.86517-8.36829-6.86517-16.36829-11.86517-17.36829-4.8144-.96289-11.82416.61335-13.502,5.22748l-3.33648,10.17536c-12.14924,40.44366-25.1615,61.59716-52.58539,61.59716h-6.57611v95s30.98913,5.72945,77,5.72945c30,0,49-3,49-14.72945v-.00006A11.23423,11.23423,0,0,0,437.00137,300.764h1.99878a13,13,0,0,0,13-13c0-7.17969-5.82032-12-13-12h2c7.17968,0,13-6.54976,13-13.72945s-5.82032-12.27055-13-12.27055h1C451.00015,249.764,458.00015,243.21422,458.00015,236.03453Z"/>
    </clipPath>
    <clipPath id="c">
      <path class="b" d="M318.44168,328.764H282.00015a6,6,0,0,1-6-6v-96a6,6,0,0,1,6-6h40.00661a5.99675,5.99675,0,0,1,5.90333,7.03056,347.44549,347.44549,0,0,0-3.5035,94.38724A5.99459,5.99459,0,0,1,318.44168,328.764Z"/>
    </clipPath>
  </defs>
  <title>thanks</title>
  <g>
    <path class="c" d="M721,615.764H17a16,16,0,0,1-16-16V264.30419a24,24,0,0,1,10.29425-19.70158L355.28642,5.29842a24,24,0,0,1,27.4111-.00029L726.70534,244.60264A24,24,0,0,1,737,264.30451V599.764A16,16,0,0,1,721,615.764Z"/>
    <line class="d" x1="2" y1="265.76398" x2="735" y2="265.76398"/>
    <rect class="e" x="109" y="63.76398" width="520" height="552" rx="12" ry="12"/>
    <g>
      <g>
        <g>
          <path class="f" d="M458.00015,236.03453c0-8-7-13-16-13h-31.5c-25,0-8.7724-26.18438-8.7724-26.18438s11.428-15.68421,8.13757-30.44733c-1.86517-8.36829-6.86517-16.36829-11.86517-17.36829-4.8144-.96289-11.82416.61335-13.502,5.22748l-3.33648,10.17536c-12.14924,40.44366-25.1615,61.59716-52.58539,61.59716h-6.57611v95s30.98913,5.72945,77,5.72945c30,0,49-3,49-14.72945v-.00006A11.23423,11.23423,0,0,0,437.00137,300.764h1.99878a13,13,0,0,0,13-13c0-7.17969-5.82032-12-13-12h2c7.17968,0,13-6.54976,13-13.72945s-5.82032-12.27055-13-12.27055h1C451.00015,249.764,458.00015,243.21422,458.00015,236.03453Z"/>
          <g class="g">
            <path class="h" d="M453.00015,312.03453c0,11.72945-24,14.72945-54,14.72945-46.01087,0-70-5-70-5-8-28-9-66-7-96"/>
            <path class="i" d="M398.00015,144.03453c-4.8144-.96289-11.82416,5.61335-13.502,10.22748l-3.33648,10.17536c-12.14924,40.44366-25.1615,61.59716-52.58539,61.59716h-8.57611"/>
            <line class="j" x1="413.00015" y1="249.76398" x2="441.00015" y2="249.76398"/>
            <line class="j" x1="422.00015" y1="275.76398" x2="441.00015" y2="275.76398"/>
            <line class="j" x1="441.00015" y1="300.76398" x2="425.00015" y2="300.76398"/>
            <path class="k" d="M463.00015,236.03453c0,7.17969-12,13.72945-21,13.72945h-29"/>
            <path class="l" d="M459.00015,262.03453c0,7.17969-10.82032,13.72945-18,13.72945h-19"/>
            <path class="k" d="M457.00015,287.764c0,7.17969-10.82032,13-18,13h-14"/>
          </g>
          <path class="j" d="M458.00015,236.03453c0-8-7-13-16-13h-31.5c-25,0-8.7724-26.18438-8.7724-26.18438s11.428-15.68421,8.13757-30.44733c-1.86517-8.36829-6.86517-16.36829-11.86517-17.36829-4.8144-.96289-11.82416.61335-13.502,5.22748l-3.33648,10.17536c-12.14924,40.44366-25.1615,61.59716-52.58539,61.59716h-6.57611v95s30.98913,5.72945,77,5.72945c30,0,49-3,49-14.72945v-.00006A11.23423,11.23423,0,0,0,437.00137,300.764h1.99878a13,13,0,0,0,13-13c0-7.17969-5.82032-12-13-12h2c7.17968,0,13-6.54976,13-13.72945s-5.82032-12.27055-13-12.27055h1C451.00015,249.764,458.00015,243.21422,458.00015,236.03453Z"/>
        </g>
        <g>
          <path class="b" d="M318.44168,328.764H282.00015a6,6,0,0,1-6-6v-96a6,6,0,0,1,6-6h40.00661a5.99675,5.99675,0,0,1,5.90333,7.03056,347.44549,347.44549,0,0,0-3.5035,94.38724A5.99459,5.99459,0,0,1,318.44168,328.764Z"/>
          <g class="m">
            <rect class="n" x="276.00015" y="220.76398" width="52" height="4"/>
            <path class="o" d="M330,328.764H276v-4h35.99985a4,4,0,0,0,4-4v-12c0-40,10.00015-64,10.00015-64l4,80Z"/>
          </g>
        </g>
      </g>
      <path class="p" d="M318.44138,328.764H281.99985a6,6,0,0,1-6-6v-96a6,6,0,0,1,6-6h40.00662a5.99676,5.99676,0,0,1,5.90333,7.03056,347.44469,347.44469,0,0,0-3.5035,94.38724A5.9946,5.9946,0,0,1,318.44138,328.764Z"/>
    </g>
    <path class="q" d="M737,279.764l-367.99187,232L1,279.764v320a16,16,0,0,0,16,16H721a16,16,0,0,0,16-16Z"/>
    <rect class="r" x="1" y="603.76398" width="736" height="12"/>
    <path class="s" d="M41,615.70129,355.4569,400.94491a24,24,0,0,1,27.07016-.00031L697,615.70129"/>
    <path class="t" d="M276,453.12973,1,279.764v320a16,16,0,0,0,16,16H721a16,16,0,0,0,16-16v-320L460,454.39827"/>
    <polygon class="r" points="697 615.701 670.734 597.764 67.265 597.764 41 615.701 697 615.701"/>
  </g>
</svg>
