<svg width="33" height="33" viewBox="0 0 33 33" fill="none" xmlns="http://www.w3.org/2000/svg">
<path d="M18 22L11 15C14.9 11.1 27 -0.799995 30.4 2.60001C33.8 6.00001 21.9 18.1 18 22Z" fill="#EFBE08"/>
<path opacity="0.2" d="M30.4002 2.59996C31.1002 3.29996 31.1002 4.49995 30.8002 5.39995C30.5002 6.39995 30.1002 7.29996 29.6002 8.09996C28.6002 9.79996 27.4002 11.5 26.1002 13C23.6002 16.1 20.8002 18.9999 18.0002 21.9C17.4002 22.5 16.5002 22.5 15.9002 21.9C15.3002 21.3 15.3002 20.3999 15.9002 19.7999C18.7002 16.9999 21.4002 14.1 23.8002 11.2C25.0002 9.69997 26.1002 8.19997 27.0002 6.69997C27.4002 5.99997 27.8002 5.19997 27.9002 4.69997C28.0002 4.39997 28.0002 4.19994 28.0002 4.29994C28.0002 4.29994 28.1002 4.59994 28.3002 4.79994C27.7002 4.19994 27.7002 3.29997 28.3002 2.69997C28.8002 1.99997 29.8002 1.99996 30.4002 2.59996Z" fill="#B15A00"/>
<path d="M11.0822 14.9815L7.05176 19.012L14.052 26.0122L18.0825 21.9818L11.0822 14.9815Z" fill="#F9F3F1"/>
<path d="M15.8703 19.825L11.8398 23.8555L13.9611 25.9768L17.9916 21.9463L15.8703 19.825Z" fill="#E8DCD9"/>
<path d="M10.9998 15C13.4998 12.5 16.0998 10 18.8998 7.70002C20.2998 6.60002 21.6998 5.4 23.1998 4.4C24.6998 3.4 26.2998 2.50001 27.9998 2.10001C28.7998 1.90001 29.5998 2.40002 29.7998 3.20002C29.9998 4.00002 29.4998 4.7 28.7998 5L28.5998 5.10001C28.1998 5.20001 27.5998 5.39999 26.8998 5.79999C26.5998 5.99999 26.1998 6.1 25.8998 6.4C25.5998 6.6 25.1998 6.8 24.8998 7C23.4998 7.9 22.1998 9.00001 20.8998 10.1C18.2998 12.3 15.6998 14.7 13.1998 17.2C12.5998 17.8 11.6998 17.8 11.0998 17.2C10.4998 16.6 10.3998 15.6 10.9998 15Z" fill="#F4D340"/>
<path d="M11.0324 15.017L7.00195 19.0475L9.12325 21.1688L13.1537 17.1383L11.0324 15.017Z" fill="white"/>
<path d="M8 20C6 20 3.9 21.1 3 22C1 24 1 30 1 32C3 32 9 32 11 30C11.9 29.1 13 27 13 25L8 20Z" fill="#EE7244"/>
<g opacity="0.4">
<path d="M2 29C3.1 29 4.2 28.9 5.2 28.8C6.2 28.7 7.2 28.5 8 28.3C8.4 28.2 8.7 28 8.8 27.9C8.9 27.8 8.8 27.9 8.9 27.8C9 27.7 9.1 27.6 9.1 27.5C9.5 26.9 9.8 26.1 9.9 25.5C10 24.7 10.8 24.1 11.6 24.2C12.4 24.3 13 25.1 12.9 25.9C12.7 27 12.3 28.1 11.6 29.1C11 30.1 9.9 30.7 8.8 31.1C7.7 31.5 6.5 31.6 5.4 31.8C4.3 31.9 3.2 32 2 32C1.2 32 0.5 31.3 0.5 30.5C0.5 29.7 1.1 29 2 29Z" fill="#E5542B"/>
</g>
<path d="M7.5 23C6.9 23.1 6.1 23.4 5.5 23.8C5.4 23.9 5.2 24 5.2 24C5.1 24.1 5.2 24 5.1 24.1C5 24.2 4.9 24.6 4.7 24.9C4.4 25.7 4.3 26.7 4.2 27.7C4.1 28.7 4 29.8 4 30.9C4 31.7 3.3 32.4 2.5 32.4C1.7 32.4 1 31.7 1 30.9C1 29.7 1.1 28.6 1.2 27.4C1.3 26.3 1.5 25.1 1.9 24C2.2 22.9 2.8 21.8 3.9 21.2C4.9 20.6 6 20.1 7.1 19.9C7.9 19.8 8.7 20.3 8.8 21.1C8.9 22.1 8.3 22.9 7.5 23Z" fill="#F4966B"/>
<path d="M11.031 15.0331L7.0332 19.0309L14.0335 26.0312L18.0313 22.0334L11.031 15.0331Z" stroke="#756362" stroke-width="2" stroke-miterlimit="10" stroke-linecap="round" stroke-linejoin="round"/>
<path d="M8 20C6 20 3.9 21.1 3 22C1 24 1 30 1 32C3 32 9 32 11 30C11.9 29.1 13 27 13 25L8 20Z" stroke="#9C1609" stroke-width="2" stroke-miterlimit="10" stroke-linecap="round" stroke-linejoin="round"/>
<path d="M18 22L11 15C14.9 11.1 27 -0.799995 30.4 2.60001C33.8 6.00001 21.9 18.1 18 22Z" stroke="#B15A00" stroke-width="2" stroke-miterlimit="10" stroke-linecap="round" stroke-linejoin="round"/>
</svg>
