<svg width="96" height="96" viewBox="0 0 96 96" fill="none" xmlns="http://www.w3.org/2000/svg">
<path d="M18 78C18 69.7157 24.7157 63 33 63H48V78C48 86.2843 41.2843 93 33 93V93C24.7157 93 18 86.2843 18 78V78Z" fill="#68B664"/>
<path opacity="0.3" fill-rule="evenodd" clip-rule="evenodd" d="M18.1322 75.9999C18.045 76.6542 18 77.3218 18 78C18 86.2843 24.7157 93 33 93C41.2843 93 48 86.2843 48 78V73.9998C48 82.284 41.2843 88.9998 33 88.9998C25.3939 88.9998 19.11 83.3385 18.1322 75.9999Z" fill="#255B32"/>
<path opacity="0.2" fill-rule="evenodd" clip-rule="evenodd" d="M33 63C24.7157 63 18 69.7157 18 78C18 78.6781 18.045 79.3457 18.1322 80C19.11 72.6613 25.3938 67 33 67H48V63H33Z" fill="#C0E3B0"/>
<path d="M18 78C18 69.7157 24.7157 63 33 63H48V78C48 86.2843 41.2843 93 33 93V93C24.7157 93 18 86.2843 18 78V78Z" stroke="#255B32" stroke-width="2"/>
<path d="M18 18C18 9.71573 24.7157 3 33 3L48 3V33H33C24.7157 33 18 26.2843 18 18V18Z" fill="#EE7244"/>
<path opacity="0.3" fill-rule="evenodd" clip-rule="evenodd" d="M18.1322 15.9999C18.045 16.6542 18 17.3218 18 18C18 26.2843 24.7157 33 33 33H48V28.9998H33C25.3939 28.9998 19.11 23.3385 18.1322 15.9999Z" fill="#BE270F"/>
<path opacity="0.2" fill-rule="evenodd" clip-rule="evenodd" d="M33 3C24.7157 3 18 9.71573 18 18C18 18.6781 18.045 19.3457 18.1322 20C19.11 12.6613 25.3938 7 33 7H48V3H33Z" fill="#F7C1A3"/>
<path d="M18 18C18 9.71573 24.7157 3 33 3L48 3V33H33C24.7157 33 18 26.2843 18 18V18Z" stroke="#9C1609" stroke-width="2"/>
<path d="M78 18C78 9.71573 71.2843 3 63 3L48 3V33H63C71.2843 33 78 26.2843 78 18V18Z" fill="#F7C1A3"/>
<path opacity="0.15" fill-rule="evenodd" clip-rule="evenodd" d="M77.8678 15.9999C77.955 16.6542 78 17.3218 78 18C78 26.2843 71.2843 33 63 33H48V28.9998H63C70.6061 28.9998 76.89 23.3385 77.8678 15.9999Z" fill="#BE270F"/>
<path opacity="0.3" fill-rule="evenodd" clip-rule="evenodd" d="M63 3C71.2843 3 78 9.71573 78 18C78 18.6781 77.955 19.3457 77.8678 20C76.89 12.6613 70.6062 7 63 7H48V3H63Z" fill="#FAEFE8"/>
<path d="M78 18C78 9.71573 71.2843 3 63 3L48 3V33H63C71.2843 33 78 26.2843 78 18V18Z" stroke="#9C1609" stroke-width="2"/>
<path d="M18 48C18 39.7157 24.7157 33 33 33H48V63H33C24.7157 63 18 56.2843 18 48V48Z" fill="#8E77E4"/>
<path opacity="0.3" fill-rule="evenodd" clip-rule="evenodd" d="M18.1322 45.9999C18.045 46.6542 18 47.3218 18 48C18 56.2843 24.7157 63 33 63H48V58.9998H33C25.3939 58.9998 19.11 53.3385 18.1322 45.9999Z" fill="#37368D"/>
<path opacity="0.2" fill-rule="evenodd" clip-rule="evenodd" d="M33 33C24.7157 33 18 39.7157 18 48C18 48.6781 18.045 49.3457 18.1322 50C19.11 42.6613 25.3938 37 33 37H48V33H33Z" fill="#CDB9F5"/>
<path d="M18 48C18 39.7157 24.7157 33 33 33H48V63H33C24.7157 63 18 56.2843 18 48V48Z" stroke="#37368D" stroke-width="2"/>
<path d="M48 48C48 39.7157 54.7157 33 63 33V33C71.2843 33 78 39.7157 78 48V48C78 56.2843 71.2843 63 63 63V63C54.7157 63 48 56.2843 48 48V48Z" fill="#6190E5"/>
<path opacity="0.3" fill-rule="evenodd" clip-rule="evenodd" d="M48.1322 45.9999C48.045 46.6542 48 47.3218 48 48C48 56.2842 54.7157 63 63 63C71.2843 63 78 56.2842 78 48C78 47.3218 77.955 46.6542 77.8678 45.9999C76.89 53.3386 70.6061 58.9998 63 58.9998C55.3939 58.9998 49.11 53.3386 48.1322 45.9999Z" fill="#22468E"/>
<path opacity="0.2" fill-rule="evenodd" clip-rule="evenodd" d="M63 33C54.7157 33 48 39.7157 48 48C48 48.6781 48.045 49.3457 48.1322 50C49.11 42.6613 55.3938 37 63 37C70.6062 37 76.89 42.6613 77.8678 50C77.955 49.3457 78 48.6781 78 48C78 39.7157 71.2843 33 63 33Z" fill="#ACCBF6"/>
<rect x="48" y="33" width="30" height="30" rx="15" stroke="#22468E" stroke-width="2"/>
</svg>
