<svg width="96" height="96" viewBox="0 0 96 96" fill="none" xmlns="http://www.w3.org/2000/svg">
<path fill-rule="evenodd" clip-rule="evenodd" d="M6.67767 13.7488L27.1838 69.6103C27.1838 69.6103 46.9013 66.7004 58.2965 78.0956L78.0955 58.2966C66.7003 46.9014 69.6102 27.1839 69.6102 27.1839L13.7487 6.67778L11.6274 8.7991L42.2744 39.4461C44.5047 38.3807 47.2568 38.7716 49.1041 40.6189C51.4472 42.962 51.4472 46.761 49.1041 49.1042C46.7609 51.4473 42.9619 51.4473 40.6188 49.1042C38.7715 47.2569 38.3806 44.5048 39.446 42.2745L8.79899 11.6275L6.67767 13.7488Z" fill="#F4D340"/>
<path d="M27.1837 69.6102C27.1837 69.6102 46.9012 66.7003 58.2964 78.0955L78.0954 58.2965C66.7002 46.9013 69.6101 27.1838 69.6101 27.1838L61.1248 24.3554L63.3412 45.7798C64.386 55.8799 55.8798 64.3861 45.7797 63.3413L24.3553 61.125L27.1837 69.6102Z" fill="#EFBE08"/>
<path d="M6.67767 13.7488L27.1838 69.6103C27.1838 69.6103 46.9013 66.7004 58.2965 78.0956L78.0955 58.2966C66.7003 46.9014 69.6102 27.1839 69.6102 27.1839L13.7487 6.67778L11.6274 8.7991L42.2744 39.4461C44.5047 38.3807 47.2568 38.7716 49.1041 40.6189C51.4472 42.962 51.4472 46.761 49.1041 49.1042C46.7609 51.4473 42.9619 51.4473 40.6188 49.1042C38.7715 47.2569 38.3806 44.5048 39.446 42.2745L8.79899 11.6275L6.67767 13.7488Z" stroke="#DD8E00" stroke-width="2" stroke-linejoin="round"/>
<rect x="56.1753" y="80.2168" width="34" height="16" rx="2" transform="rotate(-45 56.1753 80.2168)" fill="#296655"/>
<rect x="60.418" y="75.9741" width="2" height="16" transform="rotate(-45 60.418 75.9741)" fill="#387867"/>
<rect x="74.5601" y="61.832" width="2" height="16" transform="rotate(-45 74.5601 61.832)" fill="#387867"/>
<rect x="56.1753" y="80.2168" width="6" height="16" transform="rotate(-45 56.1753 80.2168)" fill="#1C5344"/>
<rect x="75.9741" y="60.4178" width="6" height="16" transform="rotate(-45 75.9741 60.4178)" fill="#1C5344"/>
<rect x="56.1753" y="80.2168" width="34" height="16" rx="2" transform="rotate(-45 56.1753 80.2168)" stroke="#092E24" stroke-width="2" stroke-linejoin="round"/>
</svg>
