<svg width="96" height="96" viewBox="0 0 96 96" fill="none" xmlns="http://www.w3.org/2000/svg">
<path d="M51.9117 74.5391L58.9827 67.468L66.0538 66.0538L67.468 58.9828L74.5391 51.9117L91.5096 91.5097L51.9117 74.5391Z" fill="#FAF8EC"/>
<path d="M74.539 51.9116L70.4984 55.9523L80.903 80.903L55.9522 70.4985L51.9116 74.5391L91.5096 91.5096L74.539 51.9116Z" fill="#F9EFBD"/>
<path d="M51.9116 74.5391L58.7807 67.67L65.877 65.877L67.67 58.7807L74.539 51.9116L91.5096 91.5096L51.9116 74.5391Z" stroke="#EFBE08" stroke-width="2" stroke-linecap="round" stroke-linejoin="round"/>
<path d="M91.5098 91.5095L87.2672 81.61L81.6104 87.2668L91.5098 91.5095Z" fill="#4F403F" stroke="#4F403F" stroke-width="2" stroke-linecap="round" stroke-linejoin="round"/>
<path d="M91.5098 91.5095L87.2672 81.61L81.6104 87.2668L91.5098 91.5095Z" stroke="#342828" stroke-width="2" stroke-linecap="round" stroke-linejoin="round"/>
<path d="M15.1421 37.7695L37.7695 15.1421L74.5391 51.9117L73.1248 57.5685L68.1751 58.2756L66.0538 66.0538L58.2756 68.1751L58.2756 72.4178L51.9116 74.5391L15.1421 37.7695Z" fill="#EE7244"/>
<path d="M32.1128 20.7988L37.7697 15.142L74.5392 51.9116L73.125 57.5684L69.5895 58.2755L32.1128 20.7988Z" fill="#E5542B"/>
<path d="M31.4058 22.9202L32.82 21.506L69.5895 58.2755L67.5676 59.082L31.4058 22.9202Z" fill="#F4966B"/>
<path d="M15.1421 37.7695L20.7989 32.1127L58.2756 69.5893L58.2756 72.4178L51.9116 74.5391L15.1421 37.7695Z" fill="#D63C1A"/>
<path d="M20.7988 32.1125L22.213 30.6983L59.6897 68.175L58.2755 69.5892L20.7988 32.1125Z" fill="#F4966B"/>
<path d="M5.24264 27.8701C2.8995 25.5269 2.89949 21.7279 5.24264 19.3848L19.3848 5.24267C21.7279 2.89952 25.5269 2.89952 27.8701 5.24267L37.7696 15.1422L15.1421 37.7696L5.24264 27.8701Z" fill="#F4D340"/>
<path d="M5.24264 27.8701C2.8995 25.5269 2.8995 21.7279 5.24264 19.3848L6.65685 17.9706L20.799 32.1127L15.1421 37.7696L5.24264 27.8701Z" fill="#E8AA00"/>
<path d="M17.9707 6.65686L19.3849 5.24265C21.7281 2.8995 25.5271 2.8995 27.8702 5.24265L37.7697 15.1421L32.1128 20.799L17.9707 6.65686Z" fill="#EFBE08"/>
<rect x="17.2637" y="8.7782" width="2" height="18" transform="rotate(-45 17.2637 8.7782)" fill="#F8E58E"/>
<rect x="7.36377" y="18.6777" width="2" height="18" transform="rotate(-45 7.36377 18.6777)" fill="#F8E58E"/>
<path d="M5.24264 27.8701C2.8995 25.5269 2.89949 21.7279 5.24264 19.3848L19.3848 5.24267C21.7279 2.89952 25.5269 2.89952 27.8701 5.24267L37.7696 15.1422L15.1421 37.7696L5.24264 27.8701Z" stroke="#DD8E00" stroke-width="2" stroke-linejoin="round"/>
<path d="M15.1421 37.7695L37.7695 15.1421L74.5391 51.9117L73.1248 57.5685L68.1751 58.2756L66.0538 66.0538L58.2756 68.1751V72.4178L51.9116 74.5391L15.1421 37.7695Z" stroke="#9C1609" stroke-width="2" stroke-linejoin="round"/>
</svg>
