<svg width="96" height="96" viewBox="0 0 96 96" fill="none" xmlns="http://www.w3.org/2000/svg">
<circle cx="48" cy="48" r="44" fill="#CAE7DE"/>
<circle cx="48" cy="48" r="39" stroke="white" stroke-width="4" stroke-miterlimit="10"/>
<path d="M87 48C87 37.6566 82.8911 27.7368 75.5772 20.4228C68.2632 13.1089 58.3434 9 48 9C37.6566 9 27.7368 13.1089 20.4228 20.4228C13.1089 27.7367 9 37.6566 9 48L48 48H87Z" stroke="#5F9D8B" stroke-width="4" stroke-miterlimit="10"/>
<circle cx="48" cy="48" r="37" fill="#114034"/>
<line x1="79" y1="49" x2="73" y2="49" stroke="#E8AA00" stroke-width="2" stroke-linecap="round" stroke-linejoin="round"/>
<line x1="69.2132" y1="70.6274" x2="64.9706" y2="66.3848" stroke="#E8AA00" stroke-width="2" stroke-linecap="round" stroke-linejoin="round"/>
<line x1="23" y1="49" x2="17" y2="49" stroke="#E8AA00" stroke-width="2" stroke-linecap="round" stroke-linejoin="round"/>
<line x1="29.6151" y1="31.0294" x2="25.3724" y2="26.7868" stroke="#E8AA00" stroke-width="2" stroke-linecap="round" stroke-linejoin="round"/>
<line x1="47" y1="79" x2="47" y2="73" stroke="#E8AA00" stroke-width="2" stroke-linecap="round" stroke-linejoin="round"/>
<line x1="47" y1="22.9998" x2="47" y2="16.9998" stroke="#E8AA00" stroke-width="2" stroke-linecap="round" stroke-linejoin="round"/>
<line x1="25.3726" y1="69.2131" x2="29.6152" y2="64.9705" stroke="#E8AA00" stroke-width="2" stroke-linecap="round" stroke-linejoin="round"/>
<line x1="64.9707" y1="29.6151" x2="69.2133" y2="25.3724" stroke="#E8AA00" stroke-width="2" stroke-linecap="round" stroke-linejoin="round"/>
<line x1="21.1531" y1="64.4999" x2="22.8852" y2="63.4999" stroke="#8FC2B3" stroke-width="2" stroke-linecap="round" stroke-linejoin="round"/>
<line x1="73.1146" y1="34.4999" x2="74.8466" y2="33.4999" stroke="#8FC2B3" stroke-width="2" stroke-linecap="round" stroke-linejoin="round"/>
<line x1="18.0562" y1="57.0234" x2="19.9881" y2="56.5058" stroke="#8FC2B3" stroke-width="2" stroke-linecap="round" stroke-linejoin="round"/>
<line x1="76.0118" y1="41.4942" x2="77.9436" y2="40.9766" stroke="#8FC2B3" stroke-width="2" stroke-linecap="round" stroke-linejoin="round"/>
<line x1="18.0563" y1="40.9766" x2="19.9881" y2="41.4942" stroke="#8FC2B3" stroke-width="2" stroke-linecap="round" stroke-linejoin="round"/>
<line x1="76.0119" y1="56.5057" x2="77.9437" y2="57.0233" stroke="#8FC2B3" stroke-width="2" stroke-linecap="round" stroke-linejoin="round"/>
<line x1="21.1531" y1="33.5001" x2="22.8852" y2="34.5001" stroke="#8FC2B3" stroke-width="2" stroke-linecap="round" stroke-linejoin="round"/>
<line x1="73.1146" y1="63.5001" x2="74.8466" y2="64.5001" stroke="#8FC2B3" stroke-width="2" stroke-linecap="round" stroke-linejoin="round"/>
<line x1="55.0233" y1="77.9437" x2="54.5057" y2="76.0118" stroke="#8FC2B3" stroke-width="2" stroke-linecap="round" stroke-linejoin="round"/>
<line x1="39.4945" y1="19.9881" x2="38.9769" y2="18.0562" stroke="#8FC2B3" stroke-width="2" stroke-linecap="round" stroke-linejoin="round"/>
<line x1="62.4997" y1="74.8467" x2="61.4997" y2="73.1147" stroke="#8FC2B3" stroke-width="2" stroke-linecap="round" stroke-linejoin="round"/>
<line x1="32.4997" y1="22.8852" x2="31.4997" y2="21.1531" stroke="#8FC2B3" stroke-width="2" stroke-linecap="round" stroke-linejoin="round"/>
<line x1="31.4997" y1="74.8469" x2="32.4997" y2="73.1148" stroke="#8FC2B3" stroke-width="2" stroke-linecap="round" stroke-linejoin="round"/>
<line x1="61.4997" y1="22.8853" x2="62.4997" y2="21.1533" stroke="#8FC2B3" stroke-width="2" stroke-linecap="round" stroke-linejoin="round"/>
<line x1="38.977" y1="77.9437" x2="39.4946" y2="76.0119" stroke="#8FC2B3" stroke-width="2" stroke-linecap="round" stroke-linejoin="round"/>
<line x1="54.5058" y1="19.9881" x2="55.0234" y2="18.0563" stroke="#8FC2B3" stroke-width="2" stroke-linecap="round" stroke-linejoin="round"/>
<path d="M26 73L46 53" stroke="#092E24" stroke-width="8" stroke-miterlimit="10" stroke-linecap="round" stroke-linejoin="round"/>
<path d="M46 53L69 30" stroke="#092E24" stroke-width="8" stroke-linecap="round" stroke-linejoin="round"/>
<path d="M26 70L48 48" stroke="#FAEFE8" stroke-width="6" stroke-miterlimit="10" stroke-linecap="round" stroke-linejoin="round"/>
<path d="M48 48L70 26" stroke="#EE7244" stroke-width="6" stroke-linecap="round" stroke-linejoin="round"/>
<circle cx="48" cy="48" r="37" stroke="#092E24" stroke-width="4" stroke-miterlimit="10"/>
<circle cx="48" cy="48" r="44" stroke="#296655" stroke-width="2"/>
</svg>
