<svg width="97" height="97" viewBox="0 0 97 97" fill="none" xmlns="http://www.w3.org/2000/svg">
<path d="M16.7876 8.78772C16.7876 6.57858 18.5785 4.78772 20.7876 4.78772L76.7876 4.78772C78.9967 4.78772 80.7876 6.57858 80.7876 8.78772V24.2198C80.7876 24.5965 80.7364 24.9637 80.6367 25.3271C79.8985 28.0182 76.7053 40.2817 76.7876 50.7877C76.8691 61.1902 80.2408 73.2547 81.0934 76.1431C81.2199 76.5717 81.2805 77.0158 81.2665 77.4624L80.9087 88.9127C80.8412 91.0721 79.0711 92.7877 76.9106 92.7877H20.7876C18.5785 92.7877 16.7876 90.9969 16.7876 88.7877V77.3411C16.7876 76.9739 16.836 76.6168 16.9309 76.2622C17.6454 73.5939 20.7876 61.2634 20.7876 50.7877C20.7876 40.312 17.6454 27.9815 16.9309 25.3133C16.836 24.9586 16.7876 24.6015 16.7876 24.2344V8.78772Z" stroke="#305AAF" stroke-width="2" stroke-linejoin="round"/>
<path d="M16.7876 8.78772C16.7876 6.57858 18.5785 4.78772 20.7876 4.78772L76.7876 4.78772C78.9967 4.78772 80.7876 6.57858 80.7876 8.78772V24.2198C80.7876 24.5965 80.7364 24.9637 80.6367 25.3271C79.8985 28.0182 76.7053 40.2817 76.7876 50.7877C76.8691 61.1902 80.2408 73.2547 81.0934 76.1431C81.2199 76.5717 81.2805 77.0158 81.2665 77.4624L80.9087 88.9127C80.8412 91.0721 79.0711 92.7877 76.9106 92.7877H20.7876C18.5785 92.7877 16.7876 90.9969 16.7876 88.7877V77.3411C16.7876 76.9739 16.836 76.6168 16.9309 76.2622C17.6454 73.5939 20.7876 61.2634 20.7876 50.7877C20.7876 40.312 17.6454 27.9815 16.9309 25.3133C16.836 24.9586 16.7876 24.6015 16.7876 24.2344V8.78772Z" fill="#4F7FDA" stroke="#22468E" stroke-width="2" stroke-linejoin="round"/>
<path d="M32.7876 4.78772L64.7876 4.78772V64.7877C64.7876 73.6243 57.6242 80.7877 48.7876 80.7877V80.7877C39.951 80.7877 32.7876 73.6243 32.7876 64.7877V4.78772Z" fill="#F1F4F9"/>
<path d="M46.7876 4.78772H40.7876V78.7877L46.7876 80.7877V4.78772Z" fill="white"/>
<path opacity="0.1" d="M32.7876 61.7877H64.7876V63.7877C64.7876 72.6243 57.6242 79.7877 48.7876 79.7877V79.7877C39.951 79.7877 32.7876 72.6243 32.7876 63.7877V61.7877Z" fill="#22468E"/>
<path d="M54.7876 44.7877C57.549 44.7877 59.7876 42.5491 59.7876 39.7877C59.7876 37.0263 57.549 34.7877 54.7876 34.7877C52.0262 34.7877 49.7876 37.0263 49.7876 39.7877C49.7876 42.5491 52.0262 44.7877 54.7876 44.7877Z" fill="white"/>
<path d="M49.7876 39.7877L59.7876 39.7877" stroke="#D9DFE8" stroke-width="2"/>
<path d="M54.7876 34.7877L54.7876 44.7877" stroke="#D9DFE8" stroke-width="2"/>
<path d="M54.7876 44.7877C57.549 44.7877 59.7876 42.5491 59.7876 39.7877C59.7876 37.0263 57.549 34.7877 54.7876 34.7877C52.0262 34.7877 49.7876 37.0263 49.7876 39.7877C49.7876 42.5491 52.0262 44.7877 54.7876 44.7877Z" stroke="#D9DFE8" stroke-width="2"/>
<path d="M64.7876 10.3591L40.7876 17.7877V4.78772L64.7876 4.78772V10.3591Z" fill="white"/>
<path d="M32.7876 4.78772L64.7876 4.78772V64.7877C64.7876 73.6243 57.6242 80.7877 48.7876 80.7877V80.7877C39.951 80.7877 32.7876 73.6243 32.7876 64.7877V4.78772Z" stroke="#163167" stroke-width="2" stroke-linejoin="round"/>
<path fill-rule="evenodd" clip-rule="evenodd" d="M40.7876 4.78772H32.7876L32.7876 64.7877C32.7876 70.71 36.0052 75.8807 40.7876 78.6472V4.78772Z" fill="#163167"/>
</svg>
