<svg width="96" height="96" viewBox="0 0 96 96" fill="none" xmlns="http://www.w3.org/2000/svg">
<path d="M48 6L60.2371 35.5294L92 38.0851L67.8 58.8911L75.1935 90L48 73.3294L20.8065 90L28.2 58.8911L4 38.0851L35.7629 35.5294L48 6Z" fill="#EFBE08"/>
<path d="M92 38.0851L67.8 58.891L75.1935 89.9999L48 73.3293L20.8065 89.9999L28.2 58.891L4 38.0851L48 56.4999L92 38.0851Z" fill="#DD8E00"/>
<path d="M48 6L48 56" stroke="#F4D340" stroke-width="2"/>
<path d="M48 56L22 88" stroke="#EFBE08" stroke-width="2"/>
<path d="M48 56L74 88" stroke="#EFBE08" stroke-width="2"/>
<path d="M92 38.0852L67.8 58.8911L75.1935 90.0001L48 73.3294L20.8065 90.0001L28.2 58.8911L4 38.0852L48 56.5L92 38.0852Z" stroke="#F4D340" stroke-width="2"/>
<path d="M48 6L60.2371 35.5294L92 38.0851L67.8 58.8911L75.1935 90L48 73.3294L20.8065 90L28.2 58.8911L4 38.0851L35.7629 35.5294L48 6Z" stroke="#B15A00" stroke-width="2"/>
</svg>
