<svg width="97" height="97" viewBox="0 0 97 97" fill="none" xmlns="http://www.w3.org/2000/svg">
<rect x="6.7876" y="6.78784" width="84" height="84" rx="16" fill="#F4D340" stroke="#DD8E00" stroke-width="2"/>
<rect x="6.7876" y="6.78784" width="84" height="84" rx="16" fill="#E8AA00" stroke="#CB7100" stroke-width="2"/>
<rect x="6.7876" y="6.78784" width="84" height="78" rx="16" fill="#E8AA00" stroke="#CB7100" stroke-width="2"/>
<rect x="6.7876" y="6.78784" width="84" height="72" rx="16" fill="#F4D340" stroke="#CB7100" stroke-width="2"/>
<g opacity="0.4">
<path fill-rule="evenodd" clip-rule="evenodd" d="M63.7876 78.7878H74.7876C83.6242 78.7878 90.7876 71.6244 90.7876 62.7878V51.7878C90.7876 56.7584 86.7582 60.7878 81.7876 60.7878C76.817 60.7878 72.7876 64.8173 72.7876 69.7878C72.7876 74.7584 68.7582 78.7878 63.7876 78.7878Z" fill="#CB7100"/>
<path d="M74.7876 78.2878H63.7876V79.2878H74.7876V78.2878ZM90.2876 62.7878C90.2876 71.3483 83.348 78.2878 74.7876 78.2878V79.2878C83.9003 79.2878 91.2876 71.9005 91.2876 62.7878H90.2876ZM90.2876 51.7878V62.7878H91.2876V51.7878H90.2876ZM90.2876 51.7878C90.2876 56.4823 86.482 60.2878 81.7876 60.2878V61.2878C87.0343 61.2878 91.2876 57.0345 91.2876 51.7878H90.2876ZM81.7876 60.2878C76.5409 60.2878 72.2876 64.5411 72.2876 69.7878H73.2876C73.2876 65.0934 77.0932 61.2878 81.7876 61.2878V60.2878ZM72.2876 69.7878C72.2876 74.4823 68.482 78.2878 63.7876 78.2878V79.2878C69.0343 79.2878 73.2876 75.0345 73.2876 69.7878H72.2876Z" fill="#CB7100"/>
</g>
<path d="M6.7876 22.7878C6.7876 13.9513 13.951 6.78784 22.7876 6.78784L74.7876 6.78784C83.6242 6.78784 90.7876 13.9513 90.7876 22.7878V46.7878C90.7876 64.461 76.4607 78.7878 58.7876 78.7878H22.7876C13.951 78.7878 6.7876 71.6244 6.7876 62.7878L6.7876 22.7878Z" fill="#F4D340"/>
<path d="M6.7876 22.7878C6.7876 13.9513 13.951 6.78784 22.7876 6.78784L75.359 6.78784C83.88 6.78784 90.7876 13.6954 90.7876 22.2164V51.7878C90.7876 56.7584 86.7582 60.7878 81.7876 60.7878V60.7878C76.817 60.7878 72.7876 64.8173 72.7876 69.7878V69.7878C72.7876 74.7584 68.7582 78.7878 63.7876 78.7878H22.7876C13.951 78.7878 6.7876 71.6244 6.7876 62.7878L6.7876 22.7878Z" fill="#F8E58E" stroke="#CB7100" stroke-width="2"/>
<rect x="6.7876" y="6.78784" width="84" height="84" rx="16" stroke="#CB7100" stroke-width="2"/>
</svg>
