<svg width="32" height="32" viewBox="0 0 32 32" fill="none" xmlns="http://www.w3.org/2000/svg">
<path d="M28 12C28 12 27.7 6 20 6C20 7.9 20 26 20 26L24 27V31H8V26L12 25C12 25 12 7.9 12 6C4.3 6 4 12 4 12H1V1H31V12H28Z" fill="#F4D340"/>
<path d="M8.39996 25.9L12 25C12.8 24.8 13.6 25.3 13.8 26.1C14 26.9 13.5 27.7 12.7 27.9L9.09996 28.8C8.29996 29 7.49996 28.5 7.29996 27.7C7.09996 26.9 7.59996 26.1 8.39996 25.9Z" fill="#F8E58E"/>
<path d="M20.0004 25L23.7004 25.9C24.5004 26.1 25.0003 26.9 24.8003 27.7C24.6003 28.5 23.8004 29 23.0004 28.8L19.3003 27.9C18.5003 27.7 18.0004 26.9 18.2004 26.1C18.4004 25.3 19.2004 24.8 20.0004 25Z" fill="#F8E58E"/>
<path d="M31 1H1V4H31V1Z" fill="#F8E58E"/>
<path d="M28 13C28 13 27.7 7 20 7C20 8.9 20 25 20 25L24 26V31H8V26L12 25C12 25 12 8.9 12 7C4.3 7 4 13 4 13H1V1H31V13H28Z" stroke="#B15A00" stroke-width="2" stroke-miterlimit="10" stroke-linecap="round" stroke-linejoin="round"/>
</svg>
