<svg xmlns="http://www.w3.org/2000/svg" width="32" height="32" fill="none"><style>@media (prefers-color-scheme:dark){.s{stroke:#fff}.f{fill:#092e24}}</style><g clip-path="url(#clip0_1_2)"><g clip-path="url(#clip1_1_2)"><path fill="#fff" d="M17.5 30.5c-.85-4.48.41-9.79 2-12 2.97-.1 6.12-.82 8.56-3 1.98-2.01 2.37-4.92 2.44-7l-6-1-2-4-1 1-2-3-1.67.91S15 .56 11.5 2.5c-3.09 1.87-4.5 4.5-4 9s-2.421 7.421-6 11c0 0 5.5.5 8.5 2s7.5 6 7.5 6Z" class="f"/><path stroke="#092E24" stroke-linecap="round" stroke-linejoin="round" stroke-width="2" d="M17.5 30.5c-.85-4.48.41-9.79 2-12 2.97-.1 6.12-.82 8.56-3 1.98-2.01 2.37-4.92 2.44-7l-6-1-2-4-1 1-2-3-1.67.91S15 .56 11.5 2.5c-3.09 1.87-4.77 5.19-4 9 .5 2.45 2.26 5 5 5 4 0 5.75-4.14 6-9M1.5 22.5c2.91-2.3 6.37-6.27 6-11" class="s"/></g></g><defs><clipPath id="clip0_1_2"><path fill="#fff" d="M0 0h32v32H0z"/></clipPath><clipPath id="clip1_1_2"><path fill="#fff" d="M0 0h32v32H0z"/></clipPath></defs></svg>