<svg xmlns="http://www.w3.org/2000/svg" width="32" height="32" fill="none" viewBox="0 0 32 32">
  <style>@media (prefers-color-scheme:dark){.s{stroke:oklch(93.8% 0.014 41.5)}.f{fill:oklch(93.8% 0.014 41.5)}}</style>
  <path class="f" fill="oklch(26.8% 0.059 173.5)" fill-rule="evenodd" d="M16.235 31.999C24.963 31.873 32 24.759 32 16c0-8.837-7.163-16-16-16S0 7.164 0 16c0 3.129.898 6.048 2.451 8.514 2.615-2.761 4.454-5.37 4.049-9.014-.5-4.5.91-7.13 4-9 3.5-1.94 6.33-.09 6.33-.09l1.67-.91 2 3 1-1 2 4 6 1c-.07 2.08-.46 4.99-2.44 7-2.44 2.18-5.59 2.9-8.56 3-1.301 1.808-2.381 5.692-2.265 9.498Z" clip-rule="evenodd"/>
  <path class="s" stroke="oklch(26.8% 0.059 173.5)" stroke-linecap="round" stroke-linejoin="round" stroke-width="2" d="M8.5 5c-4 3.5-3.5 7.5-3 10s3.26 5 6 5c4 0 5.75-3.64 6-8.5"/>
</svg>
