<svg width="24" height="24" viewBox="0 0 24 24">
  <g stroke-miterlimit="10" class="accessibility">
    <path d="M12 22c5.523 0 10-4.477 10-10S17.523 2 12 2 2 6.477 2 12s4.477 10 10 10Z" class="fill-white stroke-current stroke-2 sl-r"/>
    <path d="M12 8a1 1 0 1 0 0-2 1 1 0 0 0 0 2Z" class="fill-white stroke-current stroke-1 sl-r"/>
    <path d="M16 10s-2.318 1-4 1-4-1-4-1" class="stroke-current stroke-2 sl-r"/>
    <path d="M13 11h-2v4h2v-4Z" class="fill-white stroke-current stroke-2 sl-r"/>
    <path d="m11 15-1 3" class="fill-none stroke-current stroke-2 sl-r"/>
    <path d="m13 15 1 3" class="fill-none stroke-current stroke-2 sl-r"/>
  </g>
</svg>
