<svg width="24" height="24" viewBox="0 0 24 24" fill="none" xmlns="http://www.w3.org/2000/svg">
<path d="M10 6C10 3 9 2 6 2" stroke="#092E24" stroke-width="2" stroke-miterlimit="10" stroke-linecap="round" stroke-linejoin="round"/>
<path d="M14 6C14 3 15 2 18 2" stroke="#092E24" stroke-width="2" stroke-miterlimit="10" stroke-linecap="round" stroke-linejoin="round"/>
<path d="M12 12C14.2091 12 16 10.2091 16 8C16 5.79086 14.2091 4 12 4C9.79086 4 8 5.79086 8 8C8 10.2091 9.79086 12 12 12Z" fill="#092E24" stroke="#092E24" stroke-width="2" stroke-miterlimit="10" stroke-linecap="round" stroke-linejoin="round"/>
<path d="M12 21C15.3137 21 18 18.3137 18 15C18 11.6863 15.3137 9 12 9C8.68629 9 6 11.6863 6 15C6 18.3137 8.68629 21 12 21Z" fill="#F8E58E" stroke="#092E24" stroke-width="2" stroke-miterlimit="10" stroke-linecap="round" stroke-linejoin="round"/>
<path d="M7 12C10.8713 13.3412 13.0584 13.3254 17 12" stroke="#092E24" stroke-width="2" stroke-miterlimit="10" stroke-linecap="round" stroke-linejoin="round"/>
<path d="M7 16C10.8713 17.3412 13.0584 17.3254 17 16" stroke="#092E24" stroke-width="2" stroke-miterlimit="10" stroke-linecap="round" stroke-linejoin="round"/>
<path d="M22 17.6667C22 12.8802 18.1198 9 13.3333 9H12V10.3333C12 15.1198 15.8802 19 20.6667 19C21.403 19 22 18.403 22 17.6667Z" fill="#FAF8EC" stroke="#092E24" stroke-width="2"/>
<path d="M2 17.6667C2 12.8802 5.8802 9 10.6667 9H12V10.3333C12 15.1198 8.1198 19 3.33333 19C2.59695 19 2 18.403 2 17.6667Z" fill="#FAF8EC" stroke="#092E24" stroke-width="2"/>
</svg>
