<svg xmlns="http://www.w3.org/2000/svg" width="24" height="24" viewBox="0 0 24 24">
  <g stroke-width="2" class="bee">
    <path d="M10 6c0-3-1-4-4-4" class="stroke-current stroke-2 sl-r"/>
    <path d="M14 6c0-3 1-4 4-4" class="stroke-current stroke-2 sl-r"/>
    <path d="M12 12a4 4 0 1 0 0-8 4 4 0 0 0 0 8Z" class="fill-currentcolor stroke-current stroke-2 sl-r"/>
    <path d="M12 21a6 6 0 1 0 0-12 6 6 0 0 0 0 12Z" class="fill-dandelion-100 stroke-current stroke-2 sl-r"/>
    <path d="M7 12c3.871 1.341 6.058 1.325 10 0" class="path"/>
    <path d="M7 16c3.871 1.341 6.058 1.325 10 0" class="stroke-current stroke-2 sl-r"/>
    <path d="M22 17.667A8.667 8.667 0 0 0 13.333 9H12v1.333A8.667 8.667 0 0 0 20.667 19c.736 0 1.333-.597 1.333-1.333Z" class="fill-dandelion-0 stroke-current stroke-2 sl-r"/>
    <path d="M2 17.667A8.667 8.667 0 0 1 10.667 9H12v1.333A8.667 8.667 0 0 1 3.333 19 1.333 1.333 0 0 1 2 17.667Z" class="fill-dandelion-0 stroke-current stroke-2 sl-r"/>
  </g>
</svg>
