<svg width="24" height="24" viewBox="0 0 24 24" fill="none" xmlns="http://www.w3.org/2000/svg">
<rect x="2" y="4" width="20" height="16" rx="1" fill="#092E24" stroke="#092E24" stroke-width="2" stroke-miterlimit="10" stroke-linecap="round" stroke-linejoin="round"/>
<rect x="3" y="7" width="18" height="12" rx="0.5" fill="white"/>
<rect x="5" y="15" width="2" height="2" rx="1" fill="#092E24"/>
<rect x="5" y="12" width="2" height="2" rx="1" fill="#092E24"/>
<rect x="8" y="15" width="2" height="2" rx="1" fill="#092E24"/>
<rect x="8" y="12" width="2" height="2" rx="1" fill="#092E24"/>
<rect x="8" y="9" width="2" height="2" rx="1" fill="#092E24"/>
<rect x="11" y="15" width="2" height="2" rx="1" fill="#092E24"/>
<rect x="14" y="15" width="2" height="2" rx="1" fill="#092E24"/>
<rect x="11" y="12" width="2" height="2" rx="1" fill="#092E24"/>
<rect x="11" y="9" width="2" height="2" rx="1" fill="#092E24"/>
<rect x="14" y="12" width="2" height="2" rx="1" fill="#092E24"/>
<rect x="17" y="12" width="2" height="2" rx="1" fill="#092E24"/>
<rect x="14" y="9" width="2" height="2" rx="1" fill="#092E24"/>
<rect x="17" y="9" width="2" height="2" rx="1" fill="#092E24"/>
</svg>
