<svg viewBox="0 0 24 24">
  <g class="calendar">
    <rect width="20" height="16" x="2" y="4" class="fill-current stroke-current stroke-2 sl-r" rx="1"/>
    <rect width="18" height="12" x="3" y="7" class="fill-(--icon-fill)" rx=".5"/>
    <rect width="2" height="2" x="5" y="15" class="fill-current" rx="1"/>
    <rect width="2" height="2" x="5" y="12" class="fill-current" rx="1"/>
    <rect width="2" height="2" x="8" y="15" class="fill-current" rx="1"/>
    <rect width="2" height="2" x="8" y="12" class="fill-current" rx="1"/>
    <rect width="2" height="2" x="8" y="9" class="fill-current" rx="1"/>
    <rect width="2" height="2" x="11" y="15" class="fill-current" rx="1"/>
    <rect width="2" height="2" x="14" y="15" class="fill-current" rx="1"/>
    <rect width="2" height="2" x="11" y="12" class="fill-current" rx="1"/>
    <rect width="2" height="2" x="11" y="9" class="fill-current" rx="1"/>
    <rect width="2" height="2" x="14" y="12" class="fill-current" rx="1"/>
    <rect width="2" height="2" x="17" y="12" class="fill-current" rx="1"/>
    <rect width="2" height="2" x="14" y="9" class="fill-current" rx="1"/>
    <rect width="2" height="2" x="17" y="9" class="fill-current" rx="1"/>
  </g>
</svg>
