<svg xmlns="http://www.w3.org/2000/svg" width="24" height="24" viewBox="0 0 24 24">
  <g class="css">
    <path d="M6 2h12v6.667L21 12l-3 3.333V22H6v-6.667L3 12l3-3.333V2Z" class="fill-white"/>
    <path d="M9 2H7.417a1.5 1.5 0 0 0-1.5 1.5v4.979a.5.5 0 0 1-.124.33L3.288 11.67a.5.5 0 0 0 0 .658l2.505 2.863a.5.5 0 0 1 .124.33V20.5a1.5 1.5 0 0 0 1.5 1.5H9" class="fill-none stroke-current stroke-2 sl-r"/>
    <path d="M15 2h1.583a1.5 1.5 0 0 1 1.5 1.5v4.979a.5.5 0 0 0 .124.33l2.505 2.862a.5.5 0 0 1 0 .658l-2.505 2.863a.5.5 0 0 0-.124.33V20.5a1.5 1.5 0 0 1-1.5 1.5H15" class="fill-none stroke-current stroke-2 sl-r"/>
  </g>
</svg>
