<svg viewBox="0 0 24 24">
  <g class="design">
    <path d="M4 15c0-4.416 3.584-8 8-8s8 3.584 8 8" class="stroke-current stroke-2 sl-r"/>
    <path d="M4 19a2 2 0 1 0 0-4 2 2 0 0 0 0 4Z" class="fill-(--icon-fill) stroke-current stroke-2 sl-r"/>
    <path d="M20 19a2 2 0 1 0 0-4 2 2 0 0 0 0 4Z" class="fill-(--icon-fill) stroke-current stroke-2 sl-r"/>
    <path d="M4 7h16" class="stroke-current stroke-2 sl-r"/>
    <path d="M10 7a2 2 0 1 0 4 0 2 2 0 0 0-4 0Z" class="fill-current stroke-current stroke-2 sl-r"/>
    <path d="M6 5H2v4h4V5Z" class="fill-(--icon-fill) stroke-current stroke-2 sl-r"/>
    <path d="M22 5h-4v4h4V5Z" class="fill-(--icon-fill) stroke-current stroke-2 sl-r"/>
  </g>
</svg>
