<svg width="24" height="24" viewBox="0 0 24 24" fill="none" xmlns="http://www.w3.org/2000/svg">
<path d="M21 19.0031C21 19.5554 20.5523 20 20 20H4C3.44772 20 3 19.5523 3 19L3.00003 5.5C3.00003 4.67157 3.6716 4 4.50003 4H7L8 5H19.5C20.3284 5 21 5.66912 21 6.49755C21 9.63785 21 16.2861 21 19.0031Z" stroke="#092E24" stroke-width="2" stroke-miterlimit="10" stroke-linecap="round" stroke-linejoin="round"/>
<path d="M4.5 20C3.67157 20 3 19.3284 3 18.5V10.5C3 9.67157 3.67157 9 4.5 9H19.5C20.3284 9 21 9.67157 21 10.5V18.5C21 19.3284 20.3284 20 19.5 20H4.5Z" stroke="#092E24" stroke-width="2" stroke-miterlimit="10" stroke-linecap="round" stroke-linejoin="round"/>
</svg>
