<svg width="24" height="24" viewBox="0 0 24 24">
  <g stroke-linecap="round" stroke-linejoin="round" stroke-miterlimit="10" stroke-width="2" class="folder">
    <path d="M21 19.003A.997.997 0 0 1 20 20H4a1 1 0 0 1-1-1V5.5A1.5 1.5 0 0 1 4.5 4H7l1 1h11.5c.828 0 1.5.67 1.5 1.498v12.505Z" class="fill-white stroke-current stroke-2 sl-r"/>
    <path d="M4.5 20A1.5 1.5 0 0 1 3 18.5v-8A1.5 1.5 0 0 1 4.5 9h15a1.5 1.5 0 0 1 1.5 1.5v8a1.5 1.5 0 0 1-1.5 1.5h-15Z" class="fill-white stroke-current stroke-2 sl-r"/>
  </g>
</svg>
