<svg xmlns="http://www.w3.org/2000/svg" width="24" height="24" viewBox="0 0 24 24">
  <g class="person">
    <path d="M14.478 14.186V13.8c1.215-.926 2.012-1.813 2.012-3.6V7.5c0-1.556 0-2.777-.905-3.639C14.84 3.151 13.79 3 12.898 3c-.81 0-.898.836-2.215.836-1.833 0-3.186 1.864-3.186 3.625V10.2c0 1.787.796 2.687 2.012 3.6v.373c-.122 1.556-1.256 1.556-2.823 2.018a18.32 18.32 0 0 0-2.106.759C3.62 17.374 3 18.287 3 19.29V21h18v-1.697c0-1.003-.608-1.916-1.58-2.34a19.11 19.11 0 0 0-2.106-.759c-1.567-.463-2.715-.463-2.836-2.018Z" class="stroke-current stroke-2 sl-r"/>
  </g>
</svg>
