<svg width="24" height="24" viewBox="0 0 24 24" fill="none" xmlns="http://www.w3.org/2000/svg">
<path d="M14.4779 14.1857V13.8C15.6932 12.8743 16.4899 11.9871 16.4899 10.2V7.5C16.4899 5.94429 16.4899 4.72286 15.5851 3.86143C14.839 3.15095 13.7892 3 12.898 3C12.0878 3 12 3.83571 10.6834 3.83571C8.85 3.83571 7.49662 5.7 7.49662 7.46143V10.2C7.49662 11.9871 8.29332 12.8871 9.50863 13.8V14.1729C9.3871 15.7286 8.25281 15.7286 6.68642 16.1914C5.84921 16.4357 5.14704 16.7057 4.57989 16.95C3.62116 17.3743 3 18.2871 3 19.29V21C9 21 15 21 21 21V19.3029C21 18.3 20.3923 17.3871 19.4201 16.9629C18.853 16.7186 18.1373 16.4486 17.3136 16.2043C15.7472 15.7414 14.5994 15.7414 14.4779 14.1857Z" fill="white" stroke="#092E24" stroke-width="2" stroke-miterlimit="10" stroke-linecap="round"/>
</svg>
