<svg viewBox="0 0 24 24">
  <g class="publication">
    <path d="M4.5 21A1.5 1.5 0 0 1 3 19.5v-15A1.5 1.5 0 0 1 4.5 3h15A1.5 1.5 0 0 1 21 4.5v15a1.5 1.5 0 0 1-1.5 1.5h-15Z" class="fill-(--icon-fill) stroke-current stroke-2 sl-r"/>
    <path d="M13.5 12a.5.5 0 0 1-.5-.5v-3a.5.5 0 0 1 .5-.5h3a.5.5 0 0 1 .5.5v3a.5.5 0 0 1-.5.5h-3Z" class="fill-(--icon-fill) stroke-current stroke-2 sl-r"/>
    <path d="M6 8h4" class="stroke-current stroke-2"/>
    <path d="M6 12h4" class="stroke-current stroke-2"/>
    <path d="M6 16h12" class="stroke-current stroke-2"/>
  </g>
</svg>
