<svg width="24" height="24" viewBox="0 0 24 24">
  <g class="timer">
    <path d="M12 20a8 8 0 1 0 0-16 8 8 0 0 0 0 16Z" class="fill-white stroke-current stroke-2 sl-r"/>
    <path d="M12 9v3l3 3" class="stroke-current stroke-2 sl-r"/>
    <g class="fill-currentcolor stroke-current stroke-2 sl-r">
      <path fill-rule="evenodd" d="M8.199 4.959a8.023 8.023 0 0 0-3.81 4.572 3 3 0 1 1 3.81-4.572Z" clip-rule="evenodd"/>
      <path d="m8.199 4.959.476.88a1 1 0 0 0 .257-1.56l-.733.68Zm-3.81 4.572-.539.843a1 1 0 0 0 1.49-.535l-.952-.308Zm3.334-5.452a9.023 9.023 0 0 0-4.286 5.143l1.903.617a7.023 7.023 0 0 1 3.335-4l-.952-1.76Zm-2.797 4.61A1.998 1.998 0 0 1 4 7H2c0 1.42.74 2.665 1.85 3.374l1.076-1.686ZM4 7a2 2 0 0 1 2-2V3a4 4 0 0 0-4 4h2Zm2-2c.58 0 1.1.245 1.466.64l1.466-1.361A3.992 3.992 0 0 0 6 3v2Z"/>
    </g>
    <g class="fill-currentcolor stroke-current stroke-2 sl-r">
      <path fill-rule="evenodd" d="M15.801 4.959a8.023 8.023 0 0 1 3.81 4.572 3 3 0 1 0-3.81-4.572Z" clip-rule="evenodd"/>
      <path d="m15.801 4.959-.476.88a1 1 0 0 1-.256-1.56l.732.68Zm3.81 4.572.539.843a1 1 0 0 1-1.49-.535l.952-.308Zm-3.334-5.452a9.023 9.023 0 0 1 4.286 5.143l-1.903.617a7.023 7.023 0 0 0-3.335-4l.952-1.76Zm2.797 4.609A2 2 0 0 0 20 7h2c0 1.42-.74 2.665-1.85 3.374l-1.076-1.686ZM20 7a2 2 0 0 0-2-2V3a4 4 0 0 1 4 4h-2Zm-2-2c-.58 0-1.1.245-1.466.64l-1.465-1.361A3.992 3.992 0 0 1 18 3v2Z"/>
    </g>
    <path d="M6 17.5 5 21" class="stroke-current stroke-2 sl-r"/>
    <path d="m18 17.5 1 3.5" class="stroke-current stroke-2 sl-r"/>
  </g>
</svg>
