<svg viewBox="0 0 24 24">
  <g class="timer">
    <path d="M6 17h2v4H6z" class="Rectangle 152"/>
    <path d="M16 17h2v4h-2z" class="Rectangle 153"/>
    <path d="M12 20a8 8 0 1 0 0-16 8 8 0 0 0 0 16Z" class="fill-(--icon-fill) stroke-current stroke-2 sl-r"/>
    <path d="M12 8v5.25L14 15" class="stroke-current stroke-2 sl-r"/>
    <g class="fill-currentcolor stroke-current stroke-2 sl-r">
      <path fill-rule="evenodd" d="M8.199 4.959a8.023 8.023 0 0 0-3.81 4.572 3 3 0 1 1 3.81-4.572Z" clip-rule="evenodd"/>
      <path d="m8.199 4.959.476.88a1 1 0 0 0 .257-1.56l-.733.68Zm-3.81 4.572-.539.843a1 1 0 0 0 1.49-.535l-.952-.308Zm3.81-4.572-.476-.88a9.023 9.023 0 0 0-4.286 5.143l.951.309.952.308a7.023 7.023 0 0 1 3.335-4l-.476-.88Zm-3.81 4.572.537-.843A1.998 1.998 0 0 1 4 7H2c0 1.42.74 2.665 1.85 3.374l.538-.843ZM3 7h1a2 2 0 0 1 2-2V3a4 4 0 0 0-4 4h1Zm3-3v1c.58 0 1.1.245 1.466.64l.733-.681.733-.68A3.992 3.992 0 0 0 6 3v1Z"/>
    </g>
    <g class="fill-currentcolor stroke-current stroke-2 sl-r">
      <path fill-rule="evenodd" d="M15.801 4.959a8.023 8.023 0 0 1 3.81 4.572 3 3 0 1 0-3.81-4.572Z" clip-rule="evenodd"/>
      <path d="m15.801 4.959-.476.88a1 1 0 0 1-.256-1.56l.732.68Zm3.81 4.572.539.843a1 1 0 0 1-1.49-.535l.952-.308Zm-3.81-4.572.476-.88a9.023 9.023 0 0 1 4.286 5.143l-.951.309-.952.308a7.023 7.023 0 0 0-3.335-4l.476-.88Zm3.81 4.572-.537-.843A2 2 0 0 0 20 7h2c0 1.42-.74 2.665-1.85 3.374l-.538-.843ZM21 7h-1a2 2 0 0 0-2-2V3a4 4 0 0 1 4 4h-1Zm-3-3v1c-.58 0-1.1.245-1.466.64l-.733-.681-.732-.68A3.992 3.992 0 0 1 18 3v1Z"/>
    </g>
  </g>
</svg>
