<svg xmlns="http://www.w3.org/2000/svg" width="16" height="16" viewBox="0 0 16 16" class="fill-currentcolor sw-2 sl-r">
  <path class="b" d="M10.12132,5.87868A3.95126,3.95126,0,0,0,9.31374,5.272L8,6.58579a.93749.93749,0,0,0-.14.21342,1.97553,1.97553,0,0,1,.84707.49369,2.002,2.002,0,0,1,0,2.82843L5.87868,12.94975a2,2,0,0,1-2.82843-2.82843l1.0068-1.0068a5.015,5.015,0,0,1-.27777-2.55066L1.636,8.70711A4,4,0,0,0,7.29289,14.364l2.82843-2.82843A4.00458,4.00458,0,0,0,10.12132,5.87868Z"/>
  <path class="b" d="M6.68626,10.728,8,9.41421a.93749.93749,0,0,0,.14-.21342,1.97553,1.97553,0,0,1-.84707-.49369,2.002,2.002,0,0,1,0-2.82843l2.82843-2.82843a2,2,0,1,1,2.82843,2.82843l-1.0068,1.0068a5.015,5.015,0,0,1,.27777,2.55066L14.364,7.29289A4,4,0,0,0,8.70711,1.636L5.87868,4.46447a4.00458,4.00458,0,0,0,0,5.65685A3.95126,3.95126,0,0,0,6.68626,10.728Z"/>
</svg>
