<?xml version="1.0" encoding="utf-8"?>
<!DOCTYPE svg PUBLIC "-//W3C//DTD SVG 1.1//EN" "http://www.w3.org/Graphics/SVG/1.1/DTD/svg11.dtd">
<svg version="1.1" xmlns="http://www.w3.org/2000/svg" xmlns:xlink="http://www.w3.org/1999/xlink" x="0px" y="0px" width="250px"
	 height="60px" viewBox="0 0 250 60" enable-background="new 0 0 250 60" xml:space="preserve">
<g id="Layer_1" display="none">
	<g display="inline">
		<path fill="#97BDB0" d="M324.8,329.7c-12.2-25.4-21.9-45.6-21.9-45.6s-111.5-13-150.5-30s-70-9.5-70-9.5s-22,36-60,51
			c-23.8,9.4-18.4,36.6-9.5,52c5.3,9.2,16.2,15.5,16.4,21.7c0.1,5.6-10.9,9.3-16.5,10c-9.9,1.3-19.4-7.2-19.4-7.2s-23.4-61.3-26-83
			c-1.3-10.8,14.7-21.3,11-42c-8.7-49.2-16.3-95.8,7-136.5c0,0-61-57-21-119c19.5-30.2,53.3-44,87-28.5c22.3,10.3,31.3,48.3,19,68
			C65.2,39.4,51.3-2.3,27.9-4.4c-22.5-2-41,26-23.5,52.5c12.6,19.1,49,0,126.6,10.2c0,0,82.6,7.9,135.4,11.3
			c30.5,2,68-17.6,77.5-39.1c9.5-21.4,25.5-58.4,48.5-64.9s58.5-2,72,12.5s16.5,63.5,51.5,64.5c36.8,1.1,49,8,36.5,56.5
			c0,0-5,19.9-55,32c-18.7,4.5-40.5,1-45.5,22c-27.5,121.5-106,128.5-106,128.5s6.2,46.8,20,70.5c6.4,11,14.5-1.5,20.5,13.5
			c3.7,9.3-31.6,11-42.3,4.1C341.4,364.7,324.8,329.7,324.8,329.7z"/>
	</g>
</g>
<g id="Layer_2">
	<g>
		<path fill="#97BDB0" d="M53,53c-1.7-3.6-3.1-6.5-3.1-6.5s-15.8-1.8-21.3-4.3c-5.5-2.4-9.9-1.3-9.9-1.3s-3.1,5.1-8.5,7.2
			c-3.4,1.3-2.6,5.2-1.3,7.4c0.8,1.3,2.3,2.2,2.3,3.1c0,0.8-1.5,1.3-2.3,1.4C7.3,60.2,6,59,6,59s-3.3-8.7-3.7-11.8
			c-0.2-1.5,2.1-3,1.6-6c-1.2-7-2.3-13.6,1-19.4c0,0-8.7-8.1-3-16.9c2.8-4.3,7.6-6.2,12.3-4c3.2,1.5,4.4,6.9,2.7,9.7
			c-0.7,1.2-2.7-4.7-6-5C7.7,5.2,5.1,9.2,7.6,13c1.8,2.7,6.9,0,18,1.4c0,0,11.7,1.1,19.2,1.6c4.3,0.3,9.6-2.5,11-5.5
			c1.3-3,3.6-8.3,6.9-9.2S70.9,1,72.8,3c1.9,2.1,2.3,9,7.3,9.2c5.2,0.1,6.9,1.1,5.2,8c0,0-0.7,2.8-7.8,4.5c-2.6,0.6-5.7,0.1-6.5,3.1
			c-3.9,17.2-15,18.2-15,18.2s0.9,6.6,2.8,10c0.9,1.6,2.1-0.2,2.9,1.9c0.5,1.3-4.5,1.6-6,0.6C55.4,57.9,53,53,53,53z"/>
	</g>
	<path fill="#97BDB0" d="M101.1,31.2c1,0,2-0.1,3.7-0.4c0.7,0,0.7,0.5,0.7,0.5c-1.6,8.7-2.4,12.2-2.4,18.2c0,2,0.5,2.8,1.3,2.8
		c1.3,0,3.2-2.2,3.9-3.7c0.1-0.2,0.4-0.4,0.5-0.4c0.2,0,0.3,0.1,0.3,0.4v0.1c-0.7,3.4-3.2,6.5-6.1,6.5c-3.4,0-4.4-4.4-4.4-9.4
		c0-5.2,1.1-11.1,1.7-13.7C100.4,32,100.6,31.2,101.1,31.2z M108.5,17.8c0,2.3-1.7,5.2-3.8,5.2c-1.9,0-2.8-1.4-2.8-3.1
		c0-2.2,1.6-4.9,4-4.9C107.8,15,108.5,16.3,108.5,17.8z"/>
	<path fill="#97BDB0" d="M123.7,33.7c1.1,0.3,2.6,0.8,2.6,1.5c0,1.7-0.8,7.2-0.8,11.5c0,3.1,0.4,5.5,1.9,5.5c1.3,0,2.9-1.2,3.5-2.6
		c0.7-0.2,0.8-1,1-1c0.2,0,0.2,0.4,0.2,0.5c0,3.2-2.8,6.1-5.6,6.1c-2.3,0-4.6-2-5.2-7.4c-1.6,4.2-3.9,7.4-6.2,7.4
		c-4.1,0-5.9-4.4-5.9-9.5c0-7.5,3.7-16.7,9.4-16.7C121.7,28.9,123.3,31,123.7,33.7z M121.7,35.5c-1-1.3-2-1.9-2.9-1.9
		c-3.7,0-6.2,9.7-6.2,14.4c0,2.5,0.6,4.2,1.8,4.2C119.3,52.2,121.1,40.3,121.7,35.5z"/>
	<path fill="#97BDB0" d="M169.8,25.8c0.2,0,0.5,0.1,0.5,0.3c0,0.1-0.9,4-0.9,8.6c0,4.3,3.7,13.6,3.7,18.5c0,3.5-2.9,5.3-5.8,5.3
		c-2.7,0-5.4-1.7-5.4-5c0-1.7,0.6-4,1-4c0.1,0,0.2,0,0.2,0.1v0.2c0,3.4,2,5.4,3.6,5.4c1.2,0,2.2-1.1,2.2-3.4
		c0-4.9-2.5-13.3-2.5-14.7c-1.9,3.8-5.6,18.6-10,18.6c-4,0-5.1-5.5-5.1-11.7c0-2.1,0.1-4.3,0.3-6.4c-1.7,2.9-3.8,12.2-5.1,16.1
		c0,0.4-0.4,0.6-0.9,0.6c-1.5,0-3.2,0-3.2-0.8v-0.1c0.2-2.2,0.6-8.5,0.6-13.2c0-3.1-0.2-5.4-0.5-5.4c-1.5,0-4,7.5-5.2,17.9
		c0,1.3-0.8,1.9-1.9,1.9c-1.4,0-2.9-1-3-2.5c0.2-1.3,1.9-10.8,1.9-16c0-2-0.3-3.4-1-3.4c-1,0-2.5,1.7-3.9,4.3c0,0-0.2,0.1-0.4,0.1
		c-0.5,0-1.1-0.2-1.1-1c1.7-3.2,4-5.9,7.2-5.9c2.4,0,3.2,2.6,3.2,6.1c0,2.7-0.5,5.8-1,8.5c2-8.2,4.3-14.3,6.5-14.3
		c2.6,0,3.3,1.4,3.3,3.8c0,6.7-0.1,10.1-0.5,12.2c1.9-4.2,4.7-14.5,8.2-17.8c0.2-0.1,0.3-0.2,0.5-0.2c0.7,0,2.8,1.4,2.8,2.1
		c0,0.1,0,0.2-0.1,0.3c-1.5,3.4-2.1,8.7-2.1,12.3c0,5.7,0.7,7.9,1.6,7.9c2.8,0,8.1-18.1,8.7-22.7C166.4,26.9,168.9,25.8,169.8,25.8z
		"/>
	<path fill="#97BDB0" d="M180,12.5c0.1,0,0.2,0,0.2,0.1c1.3,0.9,4.1,0.8,4.1,2.1c0,0.8-0.8,3.9-1.7,8.2c4-0.5,7.4-1.2,8.3-1.2
		c0.7,0,1.7,0,1.7,0.5c0,0.4-0.7,0.4-0.9,0.7c-0.4,0.7-0.5,1.1-0.5,1.1c-1,0.5-5,2-9.5,3.2c-1.3,6.3-2.5,14-2.5,20.5
		c0,4.7,0.6,8.8,2.3,11.4c0,0-0.1,0.8-0.8,0.8c-3.7-1.8-4.9-8.6-4.9-16.4c0-4.9,0.4-10.4,1-15.3c-1.3,0.2-2.6,0.3-3.8,0.3
		c-3.2,0-4.6-2.1-4.6-5.3c0-0.5,0.2-1.4,0.5-1.4c0.1,0,0.2,0.1,0.4,0.2c2.1,0.9,4.8,1.2,7.6,1.2h0.6c0.5-3.4,1-6.4,1.7-10.3
		C179.5,12.7,179.7,12.5,180,12.5z"/>
	<path fill="#97BDB0" d="M197.4,45.8c0-1-0.2-2.1-0.5-3.2c0-0.1,0-0.4,0.7-0.4c2.2,0,2.7,2.5,2.7,4.6c0,4.3-3.3,8.5-7.7,8.5
		c-6.2,0-8.8-5.5-8.8-11.5c0-7.3,3.8-15.2,9.6-15.2c2.7,0,4.2,2,4.2,4.7c0,3.7-2.8,8.8-9.1,12.4c0.4,5,2.2,6.9,4.1,6.9
		C195,52.5,197.4,49.7,197.4,45.8z M193.2,32c-2.6,0-4.6,5.8-4.7,11.1c2.4-1.6,5.6-7,5.6-10C194.1,32.6,193.9,32,193.2,32z"/>
	<path fill="#97BDB0" d="M213.8,36.4c0-3.1-0.4-6.4-1.4-9.8c1.8-0.7,3.1-1.3,4.1-1.3c1.3,0,1.8,1,1.8,4.1c0,10.1-6.2,25.6-9.7,25.6
		c-5.4,0-6.8-21.3-6.8-24.2c0.4-0.6,1.1-0.8,1.8-0.8c1.5,0,3.2,1,3.2,2c0,2.4,1.1,19.8,2.7,19.8C210.8,51.7,213.8,45.1,213.8,36.4z"
		/>
	<path fill="#97BDB0" d="M248.6,36.6c0,0,0.2-0.2,0.5-0.2c0.2,0,0.3,0.1,0.3,0.6c0,0.2-0.1,0.5-0.1,1c0.1,0.6,0.5,0.7,0.5,1.3v0.1
		c0,11.6-8.5,17-16.6,17c-7.3,0-14.3-4.4-14.3-12.5c0-7.3,3.8-15.2,9.6-15.2c2.7,0,4.2,2,4.2,4.7c0,3.8-2.8,8.9-9.3,12.5
		c0.4,5,2.8,7.1,6.1,7.1C235.6,52.9,244.7,45.4,248.6,36.6z M228.3,32c-2.6,0-4.7,6.1-4.9,11.5c3.9-2.9,6.1-7.4,6.1-9.8
		C229.5,32.6,229.1,32,228.3,32z"/>
</g>
</svg>
