<svg xmlns="http://www.w3.org/2000/svg" width="250" height="60"><g><path fill="#97BDB0" d="M53 53c-1.7-3.6-3.1-6.5-3.1-6.5s-15.8-1.8-21.3-4.3c-5.5-2.4-9.9-1.3-9.9-1.3s-3.1 5.1-8.5 7.2c-3.4 1.3-2.6 5.2-1.3 7.4.8 1.3 2.3 2.2 2.3 3.1 0 .8-1.5 1.3-2.3 1.4-1.6.2-2.9-1-2.9-1s-3.3-8.7-3.7-11.8c-.2-1.5 2.1-3 1.6-6-1.2-7-2.3-13.6 1-19.4 0 0-8.7-8.1-3-16.9 2.8-4.3 7.6-6.2 12.3-4 3.2 1.5 4.4 6.9 2.7 9.7-.7 1.2-2.7-4.7-6-5-3.2-.4-5.8 3.6-3.3 7.4 1.8 2.7 6.9 0 18 1.4 0 0 11.7 1.1 19.2 1.6 4.3.3 9.6-2.5 11-5.5 1.3-3 3.6-8.3 6.9-9.2s8.2-.3 10.1 1.7c1.9 2.1 2.3 9 7.3 9.2 5.2.1 6.9 1.1 5.2 8 0 0-.7 2.8-7.8 4.5-2.6.6-5.7.1-6.5 3.1-3.9 17.2-15 18.2-15 18.2s.9 6.6 2.8 10c.9 1.6 2.1-.2 2.9 1.9.5 1.3-4.5 1.6-6 .6-.3-.6-2.7-5.5-2.7-5.5z"/><path fill="#97BDB0" d="M101.1 31.2c1 0 2-.1 3.7-.4.7 0 .7.5.7.5-1.6 8.7-2.4 12.2-2.4 18.2 0 2 .5 2.8 1.3 2.8 1.3 0 3.2-2.2 3.9-3.7.1-.2.4-.4.5-.4.2 0 .3.1.3.4v.1c-.7 3.4-3.2 6.5-6.1 6.5-3.4 0-4.4-4.4-4.4-9.4 0-5.2 1.1-11.1 1.7-13.7.1-.1.3-.9.8-.9zm7.4-13.4c0 2.3-1.7 5.2-3.8 5.2-1.9 0-2.8-1.4-2.8-3.1 0-2.2 1.6-4.9 4-4.9 1.9 0 2.6 1.3 2.6 2.8z"/><path fill="#97BDB0" d="M123.7 33.7c1.1.3 2.6.8 2.6 1.5 0 1.7-.8 7.2-.8 11.5 0 3.1.4 5.5 1.9 5.5 1.3 0 2.9-1.2 3.5-2.6.7-.2.8-1 1-1 .2 0 .2.4.2.5 0 3.2-2.8 6.1-5.6 6.1-2.3 0-4.6-2-5.2-7.4-1.6 4.2-3.9 7.4-6.2 7.4-4.1 0-5.9-4.4-5.9-9.5 0-7.5 3.7-16.7 9.4-16.7 3.1-.1 4.7 2 5.1 4.7zm-2 1.8c-1-1.3-2-1.9-2.9-1.9-3.7 0-6.2 9.7-6.2 14.4 0 2.5.6 4.2 1.8 4.2 4.9 0 6.7-11.9 7.3-16.7z"/><path fill="#97BDB0" d="M169.8 25.8c.2 0 .5.1.5.3 0 .1-.9 4-.9 8.6 0 4.3 3.7 13.6 3.7 18.5 0 3.5-2.9 5.3-5.8 5.3-2.7 0-5.4-1.7-5.4-5 0-1.7.6-4 1-4 .1 0 .2 0 .2.1v.2c0 3.4 2 5.4 3.6 5.4 1.2 0 2.2-1.1 2.2-3.4 0-4.9-2.5-13.3-2.5-14.7-1.9 3.8-5.6 18.6-10 18.6-4 0-5.1-5.5-5.1-11.7 0-2.1.1-4.3.3-6.4-1.7 2.9-3.8 12.2-5.1 16.1 0 .4-.4.6-.9.6-1.5 0-3.2 0-3.2-.8v-.1c.2-2.2.6-8.5.6-13.2 0-3.1-.2-5.4-.5-5.4-1.5 0-4 7.5-5.2 17.9 0 1.3-.8 1.9-1.9 1.9-1.4 0-2.9-1-3-2.5.2-1.3 1.9-10.8 1.9-16 0-2-.3-3.4-1-3.4-1 0-2.5 1.7-3.9 4.3 0 0-.2.1-.4.1-.5 0-1.1-.2-1.1-1 1.7-3.2 4-5.9 7.2-5.9 2.4 0 3.2 2.6 3.2 6.1 0 2.7-.5 5.8-1 8.5 2-8.2 4.3-14.3 6.5-14.3 2.6 0 3.3 1.4 3.3 3.8 0 6.7-.1 10.1-.5 12.2 1.9-4.2 4.7-14.5 8.2-17.8.2-.1.3-.2.5-.2.7 0 2.8 1.4 2.8 2.1 0 .1 0 .2-.1.3-1.5 3.4-2.1 8.7-2.1 12.3 0 5.7.7 7.9 1.6 7.9 2.8 0 8.1-18.1 8.7-22.7.2-1.5 2.7-2.6 3.6-2.6z"/><path fill="#97BDB0" d="M180 12.5c.1 0 .2 0 .2.1 1.3.9 4.1.8 4.1 2.1 0 .8-.8 3.9-1.7 8.2 4-.5 7.4-1.2 8.3-1.2.7 0 1.7 0 1.7.5 0 .4-.7.4-.9.7-.4.7-.5 1.1-.5 1.1-1 .5-5 2-9.5 3.2-1.3 6.3-2.5 14-2.5 20.5 0 4.7.6 8.8 2.3 11.4 0 0-.1.8-.8.8-3.7-1.8-4.9-8.6-4.9-16.4 0-4.9.4-10.4 1-15.3-1.3.2-2.6.3-3.8.3-3.2 0-4.6-2.1-4.6-5.3 0-.5.2-1.4.5-1.4.1 0 .2.1.4.2 2.1.9 4.8 1.2 7.6 1.2h.6c.5-3.4 1-6.4 1.7-10.3.3-.2.5-.4.8-.4z"/><path fill="#97BDB0" d="M197.4 45.8c0-1-.2-2.1-.5-3.2 0-.1 0-.4.7-.4 2.2 0 2.7 2.5 2.7 4.6 0 4.3-3.3 8.5-7.7 8.5-6.2 0-8.8-5.5-8.8-11.5 0-7.3 3.8-15.2 9.6-15.2 2.7 0 4.2 2 4.2 4.7 0 3.7-2.8 8.8-9.1 12.4.4 5 2.2 6.9 4.1 6.9 2.4-.1 4.8-2.9 4.8-6.8zm-4.2-13.8c-2.6 0-4.6 5.8-4.7 11.1 2.4-1.6 5.6-7 5.6-10 0-.5-.2-1.1-.9-1.1z"/><path fill="#97BDB0" d="M213.8 36.4c0-3.1-.4-6.4-1.4-9.8 1.8-.7 3.1-1.3 4.1-1.3 1.3 0 1.8 1 1.8 4.1 0 10.1-6.2 25.6-9.7 25.6-5.4 0-6.8-21.3-6.8-24.2.4-.6 1.1-.8 1.8-.8 1.5 0 3.2 1 3.2 2 0 2.4 1.1 19.8 2.7 19.8 1.3-.1 4.3-6.7 4.3-15.4z"/><path fill="#97BDB0" d="M248.6 36.6s.2-.2.5-.2c.2 0 .3.1.3.6 0 .2-.1.5-.1 1 .1.6.5.7.5 1.3v.1c0 11.6-8.5 17-16.6 17-7.3 0-14.3-4.4-14.3-12.5 0-7.3 3.8-15.2 9.6-15.2 2.7 0 4.2 2 4.2 4.7 0 3.8-2.8 8.9-9.3 12.5.4 5 2.8 7.1 6.1 7.1 6.1-.1 15.2-7.6 19.1-16.4zm-20.3-4.6c-2.6 0-4.7 6.1-4.9 11.5 3.9-2.9 6.1-7.4 6.1-9.8 0-1.1-.4-1.7-1.2-1.7z"/></g></svg>