<svg version="1.1" id="logo" xmlns="http://www.w3.org/2000/svg" xmlns:xlink="http://www.w3.org/1999/xlink" viewBox="0 0 595.3 723.8" xml:space="preserve"><title>Blackletra</title><path fill="black" d="M515.8,527.9c-69.3-24.6-196.9-95.6-253.3-121.1c52.7-61,95.2-138.4,128.5-208.6c38.8,31.9,73,71,82.2,92.9c0,9.1-57.3,62.8-95.2,85.6C455.7,449.6,502.8,510.6,515.8,527.9 M100.7,546.2c-3.7,0-21.2-34.6-27.7-92c16.6,5.5,47.1,16.4,86.9,39.1C127.5,528.8,101.7,546.2,100.7,546.2 M595.3,246.5C575.8,201.9,517.6,129,440,82.6c10.2-25.5,17.6-45.5,23.1-58.3c1.9-5.5-59.2-28.3-61-23.7c-10,26.7-19.9,53.4-29.6,80.2c-46.2-7.3-151.6-20-253.3-3.7L134,295.7c0,8.2,133.1-13.7,132.2-19.1l-23.1-164.9c0,0,58.2-6.3,118.3,2.8C325.3,212.9,283.8,324,232,392.3c-51.8-23.7-135-51.9-159-57.4c-24-3.7-107.2,296-57.3,301.5C54.5,623.6,140.5,559,190.4,508c98,47.4,193.2,97.5,274.5,112c11.1-4.6,117.4-112,125.7-146.6c0-6.4-30.5-84.7-98.9-151.2C536.1,297.5,595.3,257.5,595.3,246.5"/></svg>
