<?xml version="1.0" encoding="utf-8"?>
<svg version="1.1" id="Layer_1" xmlns="http://www.w3.org/2000/svg" xmlns:xlink="http://www.w3.org/1999/xlink" x="0px" y="0px"
	 viewBox="0 0 107.7 107.8" enable-background="new 0 0 107.7 107.8" xml:space="preserve">
<g>
	<path fill="currentColor" d="M84.6,107.8h5.7l2.5-15.5h0L107.7,0L12.4,32.7C2.3,36.2,0,37.9,0,41.2c0,3.1,3,5.5,10.8,9.4l76.7,39
		L84.6,107.8z"/>
	<path fill="#FFFFFF" d="M90,30.7c1,0,2.3,1,2.3,5.4l-0.9,0c-0.6-3.5-2.5-3-2.5-4.4C88.9,31.2,89.3,30.7,90,30.7z M91.4,38
		c2.1-0.1,2.8,0.9,2.8,1.7c0,0.6-0.4,1.3-1.1,1.3c-0.7,0-0.9-0.4-0.9-0.9c0-0.7,0.3-1.3-0.5-1.3c-1.6,0-2.6,2.6-2.6,5.4
		c0,1.6,0.3,2.7,1.4,2.7c1.3,0,2.7-0.9,2.7-0.9l0.3,0.6c0,0-1.5,1.5-3.7,1.5c-2.3,0-3.9-1.4-3.9-3.8C85.9,40.5,88.6,38.2,91.4,38z
		 M82.4,32.7c0.8-0.8,1.8-1,2.2-0.5c0.4,0.5,0.1,1.5-0.7,2.2c-0.8,0.8-1.8,1-2.2,0.5C81.2,34.5,81.6,33.5,82.4,32.7z M61,54.2
		c2.4,0,3.9-1.7,3.9-4.1c0-1.6-0.8-2.7-1.9-4.2c-1.5-2-2.8-3.2-2.8-5.3c0-2.3,2-4.1,4.4-4.1c0.3,0,0.5,0,0.8,0.1
		c-0.8-1.6-1.6-3.5-1.6-5.2c0-4.1,3.5-7.5,7.8-7.5c3.3,0,7.1,2.2,5.9,8.5c0-0.1,0,0,0,0l-1.4,7.9l7-2.4c0.8-0.3,1.1-0.5,0.9,0.8
		c-0.3,1.5-1.5,8-1.8,9.8c-0.2,1.1,0.7,0.9,2.1,0.1l0.3,0.6c-0.8,0.8-2.7,2-4.1,2c-1.5,0-1.8-1.2-1.4-3.3c0.3-1.7,0.7-4.2,1-5.7
		c0.4-2.1,0.2-2.2-0.6-1.9l-3.6,1.2L73.6,54c-0.4,2,2.1,1,4.1-0.2l0.3,0.7c-1.7,1.4-3.9,2.4-5.3,2.4c-2.2,0-2.6-1.4-2.2-3.5
		c2.6-14.4,1.3-7.1,2-10.8L67,44.3l-0.6-0.7l6.2-2.1l1.3-7.3c1-5.5,0.5-9.1-2.9-9.1c-2.5,0-5.3,2-5.3,5.9c0,3.4,2.6,7.7,2.9,8.1
		l-0.5,0.4l-0.5,0.4c-0.4-0.9-1.3-2.3-2.4-2.4c-1.3-0.1-2.1,0.7-2.3,1.9c-0.1,1.4,1.6,3.1,2.8,4.6c1.2,1.6,2.3,3,2.3,5.4
		c0,4-2.8,6.9-6.6,6.9c-3.2,0-4.9-2.4-4.9-4.6c0-3,2.7-5.3,4.9-6.2l0.5,0.7c-0.8,0.5-3.8,1.9-3.8,4.9C58.1,52.6,59.1,54.2,61,54.2z
		 M48.5,44.9c0-3.7,1.8-5.7,3.8-5.7c1.2,0,1.9,1.6,1.9,3.1c0,3.4-1.5,5.8-3.7,5.8C49.3,48,48.5,46.7,48.5,44.9z M53.3,37.8
		c-4.5,0-8.4,4-8.2,7.7c0.1,2.1,1.7,3.9,4.8,3.9c3.9,0,7.7-3.4,7.7-7.6C57.6,39.9,56.2,37.8,53.3,37.8z M68.1,67.1
		c-7.2,0-13.7-3.7-19.1-8.4c-2.9-2.5-5.6-4.9-8.2-7.1c-4-3.5-7.6-6.5-12.1-6.8c-0.6,3.4-1.2,6.6-1.2,6.6L24,50.7l2.3-12.2
		c0.2-1.2-0.4-1.5-2.6-1l0.2-1.6c0,0,1.6-0.7,4.8-1.8c1.6-0.6,1.9-0.2,1.4,2.7c-0.2,1.3-0.7,4-1.2,6.6c9-0.6,16.3-5.7,17-13.3
		c0.2-1.7,0.4-2.8,1.8-2.8c1.3,0,2.1,1.2,1.9,3.1C49,37.6,41.8,43,32.3,43.9l-0.1,0.3c5.3,0.9,9.4,3.9,12.9,6.9
		c3.7,3.2,5.2,4.5,7.3,6.3c4.9,4.2,10,7.8,16.1,7.8c10.9,0,18.2-7,21.2-14.9l1.1,0C87.6,60.3,78.7,67.1,68.1,67.1z"/>
</g>
</svg>
