<svg xmlns="http://www.w3.org/2000/svg" viewBox="0 0 200 96.42872"><title>OH no Type Company</title><path fill="currentColor" d="M147.36024,94.09933h0q-.62234,1.55415-3.64909,1.94116a45.02824,45.02824,0,0,1-5.66768.38823q-1.554,0-3.72671-.15524.9317-21.73794.93171-38.04357,0-16.30426.62109-31.3666-3.57387,10.871-6.677,22.671-3.108,11.80246-5.59007,21.66154-2.48571,9.86253-4.19256,16.53726-1.71048,6.678-2.63973,7.29793a2.75741,2.75741,0,0,1-1.47518.77647,10.124,10.124,0,0,1-1.7857.15524,19.99317,19.99317,0,0,1-3.49379-.38823,40.79455,40.79455,0,0,0-5.20183-.54348q.15281-7.14033.23287-15.37257.07644-8.2284.07765-16.45976-3.57383-.15254-7.29814-.15525H90.68323q.15285,2.95173.15527,6.13373V75.4659q0,7.30065-.31055,13.04342-.313,5.74686-1.24226,6.36647a3.70693,3.70693,0,0,1-1.708.62122,16.74857,16.74857,0,0,1-2.3292.15524q-2.17632,0-4.50309-.233-2.3292-.23287-3.41613-.23275h-.46585q.61867-11.18013.854-18.24544.233-7.06407.23293-13.74238-3.26085,0-6.36647.07774-3.108.08-5.90061.07775v6.98744q0,5.74685.07762,11.10251.07646,5.35737.07766,8.46287v2.09616a1.84261,1.84261,0,0,1-.15528,1.0092,4.01453,4.01453,0,0,1-2.95031,2.56214,53.8325,53.8325,0,0,1-9.31677.699q-.15651-3.41376-.15527-6.44422v-5.823q0-6.056.07765-10.94726.07639-4.89129.2329-9.23909-3.26087.1566-5.823.233-2.56212.08-4.11488.07749-1.71053,2.79513-4.03729,6.91-2.3292,4.11642-4.58073,8.46287-2.25276,4.34892-4.34784,8.46263-2.09625,4.11642-3.33851,7.06518a16.4465,16.4465,0,0,0-1.63042-.23274q-.85526-.07663-1.78571-.07774a36.2821,36.2821,0,0,0-6.52174.77646,28.61523,28.61523,0,0,0-2.48448-7.76391q-.77885-1.39755-3.028-4.969-2.25276-3.57036-4.736-7.45342-2.48567-3.8795-4.58076-7.22043A17.67706,17.67706,0,0,1,.31058,63.81992a6.22747,6.22747,0,0,1-.23293-.93171A5.74468,5.74468,0,0,1,0,61.9565a10.72045,10.72045,0,0,1,.54348-3.26085A24.87716,24.87716,0,0,1,2.01863,55.1243a7.32551,7.32551,0,0,1-.54348-1.63042,9.28355,9.28355,0,0,1-.23292-2.09616,22.16683,22.16683,0,0,1,.31058-3.49385,28.92371,28.92371,0,0,1,.93167-3.95982q.77519-2.48191,2.63976-6.90994,1.86334-4.42518,4.27019-9.93781Q11.8,21.58638,14.67391,15.21757q2.87148-6.36548,5.51244-12.73293a38.63019,38.63019,0,0,0,5.12421-.31074A45.19674,45.19674,0,0,0,31.0559.93171a217.75,217.75,0,0,1,7.2205,22.90373Q41.7702,37.11173,44.72052,51.553a36.11615,36.11615,0,0,0,3.80433.15524q2.40561,0,5.35716.15525V50q0-5.12415-.07765-12.18946-.08006-7.06407-.07765-13.74214,0-7.29694.23293-13.04342.23291-5.74315,1.00933-6.83245a4.23806,4.23806,0,0,1,2.795-1.63042,46.50433,46.50433,0,0,1,8.38513-.69872q-.15651,4.65842-.31058,9.08384-.15646,4.42555-.15528,8.77336,0,7.60978.15528,14.51861.15285,6.91118.15527,12.96568v4.81378q2.94789,0,5.97827.07775,3.02795.08,5.97826.07749,0-17.54523-.23293-27.09629-.23291-9.5497-.23292-14.05263a28.79806,28.79806,0,0,1,.31058-5.35726,3.058,3.058,0,0,1,1.24222-1.94092,3.82459,3.82459,0,0,1,2.32921-.77646q1.70683-.15289,3.57141-.15525h4.81366q0,2.95137-.07762,5.90049-.08007,2.95173-.07766,5.7455,0,11.64585.31055,20.88507.30936,9.24021.46583,16.69251,4.03608-.1529,7.84165-.31049,3.80313-.15289,6.90991-.31048,0-5.74315-.07765-11.3355-.08007-5.59025-.07762-10.559,0-10.71439.31054-17.93471.30942-7.22067.93168-8.15238a4.7628,4.7628,0,0,1,2.71741-1.70793,15.01212,15.01212,0,0,1,3.80433-.466q1.55037,0,3.10562.15549,1.55035.15622,2.63975.15524a68.50241,68.50241,0,0,0-.69878,7.53092q-.233,4.73838-.31055,10.40378-.08006,5.67022-.15527,11.646-.0801,5.97935-.07765,11.413V54.96906q3.26085-10.55779,6.21116-20.03111,2.94794-9.46974,5.43482-16.53727,2.482-7.06407,4.42546-11.413,1.93979-4.34559,2.87265-4.81379a6.25466,6.25466,0,0,1,1.941-.46573,23.57788,23.57788,0,0,1,2.71741-.15524q2.48206,0,7.14284.46573-.15646,5.59025-.31052,12.42245-.15655,6.83454-.15527,14.13037,0,6.98745.07762,14.20812.07646,7.22031.15527,13.89739.07646,6.6783.15528,12.88842.07644,6.2122.07762,11.02476,0,5.74649-.15527,9.31684A16.44872,16.44872,0,0,1,147.36024,94.09933ZM11.02485,55.90077q0,2.01988,4.11492,8.61787a109.39375,109.39375,0,0,1,7.531,14.5186A158.48306,158.48306,0,0,1,29.2702,63.97516q3.1808-6.2085,3.18323-8.69561v-.31049a36.56429,36.56429,0,0,0-.854-4.969q-.85524-4.03608-2.01863-9.0061-1.1646-4.96792-2.40683-10.1708-1.24467-5.20078-2.01863-8.46287Q22.66963,27.641,20.18635,33.22978,17.70064,38.82,15.68324,43.47832,13.6634,48.13674,12.34473,51.553A17.3611,17.3611,0,0,0,11.02485,55.90077ZM173.91306.93171h0a8.315,8.315,0,0,0,2.09625.69872,11.4723,11.4723,0,0,0,2.25156.233,7.46393,7.46393,0,0,0,2.63976-.46573A4.74432,4.74432,0,0,0,182.91926,0Q185.40133,7.91928,187.5,14.51861q2.09625,6.602,4.03726,13.12116,1.93978,6.52172,3.95964,13.74239Q197.51312,48.60247,200,57.91943q-7.45341,19.41223-11.9565,28.416-4.50552,9.00771-6.67705,9.47208a1.407,1.407,0,0,1-.6211.15524h-.7764a17.377,17.377,0,0,1-5.12424-.93171q-2.95149-.93145-5.12421-1.86317a19.152,19.152,0,0,0-1.70808-6.52171,77.45243,77.45243,0,0,0-3.57144-7.14293q-2.0198-3.57036-4.19253-6.83244-2.1763-3.26086-3.41616-5.43476a14.05137,14.05137,0,0,1-1.31985-2.71738,6.35141,6.35141,0,0,1-.38823-1.94092,3.44753,3.44753,0,0,1,.7764-2.40689,10.3847,10.3847,0,0,0,1.24226-1.63043,6.32738,6.32738,0,0,0,.31055-.77646,2.595,2.595,0,0,0,.15527-.77622,2.50241,2.50241,0,0,0-.69875-1.70817,3.77651,3.77651,0,0,0-1.941-1.087q4.65837-11.48925,7.68631-19.72037,3.02794-8.22877,6.2112-17.469Q172.04723,7.76638,173.91306.93171Zm5.12421,22.5155h0Q177.17394,28.728,175,34.16148q-2.17636,5.43735-4.03726,10.24855-1.86339,4.815-3.18324,8.54037a18.76576,18.76576,0,0,0-1.31988,5.27951v.31049a14.19409,14.19409,0,0,0,1.55278,4.19257q1.39752,2.79511,3.26085,5.823T175,74.68944a45.79987,45.79987,0,0,1,2.795,5.27951q1.86333-4.34521,3.49378-8.46262,1.63043-4.11236,2.87269-7.22044,1.241-3.10461,2.63972-6.98768-2.17635-12.42109-4.42546-20.49684Q180.123,28.7292,179.03727,23.44721Z"/></svg>
