<svg xmlns="http://www.w3.org/2000/svg" xmlns:xlink="http://www.w3.org/1999/xlink" width="136" height="126" viewBox="0 0 136 126">
  <defs>
    <style>
      .a, .ae, .aq, .at, .ba, .bd, .bi, .bm, .bt, .i, .j, .l, .m, .z {
        fill: none;
      }

      .an, .ap, .b {
        fill: #fff;
      }

      .c {
        clip-path: url(#a);
      }

      .d {
        clip-path: url(#b);
      }

      .bn, .e {
        fill: #493e36;
      }

      .f {
        fill: #6d5d52;
      }

      .bo, .g {
        fill: #5e4f45;
      }

      .h {
        fill: #352b25;
      }

      .bn, .bo, .i {
        stroke: #261e19;
      }

      .ae, .at, .ba, .bd, .bi, .bm, .bn, .bo, .bp, .i, .j, .l, .m {
        stroke-linecap: round;
      }

      .ae, .at, .bi, .bm, .bn, .bo, .bp, .i, .l {
        stroke-linejoin: round;
      }

      .j, .l {
        stroke: #6d5d52;
      }

      .ab, .aq, .ba, .bd, .bg, .bh, .bt, .j, .m, .z {
        stroke-miterlimit: 10;
      }

      .k {
        fill: #261e19;
      }

      .m {
        stroke: #7f6f65;
      }

      .n {
        clip-path: url(#c);
      }

      .o {
        fill: #e2d1c0;
      }

      .p, .s {
        fill: #f2eae3;
      }

      .p, .r {
        opacity: 0.4;
      }

      .q {
        fill: #a09083;
      }

      .t {
        fill: #f9f5f2;
      }

      .ad, .an, .az, .u, .z {
        opacity: 0.2;
      }

      .az, .v {
        fill: #b29c8b;
      }

      .w {
        fill: #cc4242;
      }

      .x {
        clip-path: url(#d);
      }

      .y {
        fill: #f4dcdc;
      }

      .z {
        stroke: #992828;
        stroke-linecap: square;
      }

      .ba, .z {
        stroke-width: 2px;
      }

      .aa {
        fill: #841f1f;
      }

      .ab {
        fill: #af3f3f;
      }

      .ab, .ae {
        stroke: #841f1f;
      }

      .ac {
        clip-path: url(#e);
      }

      .ad, .af {
        fill: #992828;
      }

      .af, .ao, .ax {
        opacity: 0.3;
      }

      .ag {
        opacity: 0.6;
      }

      .ah, .bp {
        fill: #d8c6b7;
      }

      .ai {
        fill: #e5d9cf;
      }

      .aj {
        clip-path: url(#f);
      }

      .ak {
        clip-path: url(#g);
      }

      .al {
        fill: #56351e;
      }

      .am {
        fill: #161313;
      }

      .ao {
        fill: #0f0d0c;
      }

      .ap, .av, .bl {
        opacity: 0.1;
      }

      .aq {
        stroke: #161313;
      }

      .ar {
        clip-path: url(#h);
      }

      .as {
        clip-path: url(#i);
      }

      .at, .bd {
        stroke: #b29c8b;
      }

      .au {
        clip-path: url(#j);
      }

      .aw {
        fill: #d7c6b9;
      }

      .ay {
        fill: #fcf8f7;
      }

      .ba {
        stroke: #f2eae3;
      }

      .bb {
        fill: url(#k);
      }

      .bc {
        fill: #605045;
      }

      .be {
        clip-path: url(#l);
      }

      .bf {
        fill: #231f1d;
      }

      .bg {
        fill: #302c2b;
        stroke: #3a3635;
      }

      .bh {
        fill: #141110;
        stroke: #3f3a38;
      }

      .bi {
        stroke: #141110;
      }

      .bj {
        fill: #5b5857;
      }

      .bk, .bl {
        fill: #726f6e;
      }

      .bm {
        stroke: #605045;
      }

      .bp {
        stroke: #d8c6b7;
      }

      .bq {
        fill: url(#m);
      }

      .br {
        fill: url(#n);
      }

      .bs {
        fill: url(#o);
      }

      .bt {
        stroke: #a09083;
      }
    </style>
    <clipPath id="a">
      <polygon class="a" points="121 123 119.8 123 119.6 125 117.1 126 114.13 125 113.52 123 111.4 122 24.91 122 22.22 123 18.58 123 16.63 124 14.3 123 11 123 11 4.15 121 4.15 121 123"/>
    </clipPath>
    <clipPath id="b">
      <path class="a" d="M15.88,120.17c-1.57,0-3.06-5.87-3.06-9.72,0-8.68,4.22-15.51,4.22-19.93,0-11.52-.58-30.7-0.58-30.7,0-34.23,21-51.42,51.63-51.42,33,0,48.82,21,50.82,38.56,1.12,9.84.78,20.81-.82,35.35-0.54,4.87-1.57,12-1.65,14.62-0.12,4,1.06,12.25,1.81,18.48,0.43,3.65-.1,9.38-1.47,9.38-1,0-2-2.59-2.33-3.82-2.39-7.91-6.57-13.92-8.76-21.9-4.55-16.49-10-67.68-10-67.68l-55.6-1.46S27.3,79.85,27.2,96.89c0,4-3.47,9.44-7.05,14.81C17.38,115.86,17.18,120.17,15.88,120.17Z"/>
    </clipPath>
    <clipPath id="c">
      <path class="a" d="M110.94,131.43c0,11-4.6,20.39-7.85,21.89-0.48,5.42-5.24,11.63-10.45,11.63,0,2.7-5.84,9.74-13,9.74,0,2.29-4.53,6.14-11.06,6.14S57.51,177,57.51,174.68c-7.16,0-13-7-13-9.74-5.16,0-9.87-6.14-10.43-11.47-3.17-1.44-8.42-10.91-8.42-22.06,0-8.5,3-16.6,5.86-19.8-0.59-5.48-2.21-10.23-3.67-14.92-3.62-11.62-4.32-18.24-4.32-23.15a16,16,0,0,0,1.83,3.14A9.33,9.33,0,0,0,27.68,79c-1.63-7.13-3-14-2.2-19l0.94,0.62L28.52,62c-3.46-8-3.1-20.75,2.93-26.44l0.46,1.14c0.27,0.65.61,1.46,0.9,2.1,1.74-6.6,8.1-14.55,15.89-18.91L48,27c5.24-4.53,8.84-11.63,7.6-20.9,7.26,1.3,9.87,6.93,11,9.44,0.52-3.31,3.95-8.49,8.27-10.17-0.09,1.1-.13,2.21-0.13,3.29a55.79,55.79,0,0,0,1.25,11.22c0.58-3.71,4.51-10.71,10.15-13.28,0,0-1.91,10.75-.08,14.64,0,0,7.35-2.42,12.1,1.92,4.22,3.85,2.11,13.76,2.11,13.76a14.94,14.94,0,0,0,4.18-7.42c2.83,5.44,4,13.4,1.57,21.73h0a17.64,17.64,0,0,0,5.75-5.85,40.19,40.19,0,0,1-4.5,19.33,8.21,8.21,0,0,0,3.78-2.2c0,5.37-2.12,12.14-4.09,17.14a14.09,14.09,0,0,0,4-4c0,4.85-3.14,12.73-6.17,16.72a8.59,8.59,0,0,0,5.23-2.61c0.14,7-4.73,12.69-6.33,20.91C107.27,113.52,110.94,122.79,110.94,131.43Z"/>
    </clipPath>
    <clipPath id="d">
      <path class="a" d="M84.37,106.29a67.38,67.38,0,0,1-16.56,1.88v11.46a62,62,0,0,0,16.73-2ZM69.48,118.35v-9.26a54.53,54.53,0,0,0,13.36-1.52L83,116.77A50.25,50.25,0,0,1,69.48,118.35Z"/>
    </clipPath>
    <clipPath id="e">
      <path class="a" d="M84.92,111.56a27,27,0,0,1-7.79.51l0.11,1.67a28.11,28.11,0,0,0,7.79-.51Z"/>
    </clipPath>
    <clipPath id="f">
      <path class="a" d="M77.09,44.55c0,3.17,2.41,6.69,7.34,6.69s8.27-3,8.27-6.69-3.34-6.69-8.27-6.69A7,7,0,0,0,77.09,44.55Z"/>
    </clipPath>
    <clipPath id="g">
      <path class="a" d="M72.07,44.55a8.92,8.92,0,1,0,17.84,0A8.92,8.92,0,1,0,72.07,44.55Z"/>
    </clipPath>
    <clipPath id="h">
      <path class="a" d="M57.43,44.55c0,3.17-2.41,6.69-7.34,6.69s-8.27-3-8.27-6.69,3.34-6.69,8.27-6.69A7,7,0,0,1,57.43,44.55Z"/>
    </clipPath>
    <clipPath id="i">
      <path class="a" d="M62.45,44.55a8.92,8.92,0,0,1-17.84,0A8.92,8.92,0,1,1,62.45,44.55Z"/>
    </clipPath>
    <clipPath id="j">
      <path class="a" d="M30.83,71.26c0-7.47,5.92-18.44,17.27-18.44,16.14,0,15.18-27.19,15.18-27.19h8s-0.8,27.19,15.55,27.19A17.33,17.33,0,0,1,104.4,69.39c-4-4-5.92-3.75-5.92-3.75a20.78,20.78,0,0,1,5.3,11.67l-6-4.17c2.34,3.56,3.61,8.57,3.63,14a9.32,9.32,0,0,0-5.5-5.52c3.8,5.21,3.47,14.92.23,21.38-0.5-4-3.27-8.46-5.42-8.46l-1.77,4.58c0-2.31-1.92-6-3.95-6l-0.71,4.83c-0.95-2.8-4-5.77-6.24-5.77v6.36a11,11,0,0,0-6.85-5.73l-2.49,5.11-0.36-4.9L65,96.06l0.64-4a20.58,20.58,0,0,0-9.24,5.63,7.42,7.42,0,0,1,1.46-5A23.06,23.06,0,0,0,47.6,99.81a14.93,14.93,0,0,1,1.14-6.25,16.07,16.07,0,0,0-10.28,10.11,22,22,0,0,1-2.7-10.32c0-6.51,2.6-10,2.6-10-1.62,0-5.29,2.69-6.44,6.36,0-4.54.64-9.61,4.26-13.23-2,0-4.19,2-5.35,4.53,0-7.71,3.29-11.89,6.91-14.12C35.24,66.88,32.21,68.86,30.83,71.26Z"/>
    </clipPath>
    <linearGradient id="k" x1="49.49" y1="82.2" x2="84.14" y2="82.2" gradientUnits="userSpaceOnUse">
      <stop offset="0" stop-color="#d7c6b9" stop-opacity="0"/>
      <stop offset="0.5" stop-color="#d7c6b9"/>
      <stop offset="1" stop-color="#d7c6b9" stop-opacity="0"/>
    </linearGradient>
    <clipPath id="l">
      <path class="a" d="M66.91,56.38c-7.24,0-9.48,2.87-9.48,5.44S59.58,72,66.67,72h0.48c7.24,0,9.23-7.59,9.23-10.16S74.15,56.38,66.91,56.38Z"/>
    </clipPath>
    <linearGradient id="m" x1="65.61" y1="47.11" x2="65.61" y2="38" gradientUnits="userSpaceOnUse">
      <stop offset="0" stop-color="#f2eae3"/>
      <stop offset="1" stop-color="#f2eae3" stop-opacity="0.6"/>
    </linearGradient>
    <linearGradient id="n" x1="70.95" y1="46.74" x2="70.95" y2="39.61" xlink:href="#m"/>
    <linearGradient id="o" x1="63.05" y1="46.74" x2="63.05" y2="39.61" xlink:href="#m"/>
  </defs>
  <title>iamsteve-mascots-final</title>
  <g>
    <path class="b" d="M26.7,122h82.6A68,68,0,1,0,26.7,122Z"/>
    <g class="c">
      <g class="d">
        <path class="e" d="M15.88,120.17c-1.57,0-3.06-5.87-3.06-9.72,0-8.68,4.22-15.51,4.22-19.93,0-11.52-.58-30.7-0.58-30.7,0-34.23,21-51.42,51.63-51.42,33,0,48.82,21,50.82,38.56,1.12,9.84.78,20.81-.82,35.35-0.54,4.87-1.57,12-1.65,14.62-0.12,4,1.06,12.25,1.81,18.48,0.43,3.65-.1,9.38-1.47,9.38-1,0-2-2.59-2.33-3.82-2.39-7.91-6.57-13.92-8.76-21.9-4.55-16.49-10-67.68-10-67.68l-55.6-1.46S27.3,79.85,27.2,96.89c0,4-3.47,9.44-7.05,14.81C17.38,115.86,17.18,120.17,15.88,120.17Z"/>
        <path class="f" d="M119.25,44.11c-2.6-1-.68,1.09-1.48,4.38-0.38,1.55.41,3.63,0,5.65-0.33,1.7-1.88,3.31-2.15,5.24-0.25,1.77.83,3.74,0.68,5.62s-1.62,3.61-1.62,5.46,0.47,3.85.59,5.76-0.33,4-.13,5.82,0.4,4,.67,5.75c0.31,2.11,1.52,3.91,1.82,5.54,0.64,3.45.56,8.57,1.76,6s0.09-2.94.56-5.63,1.14-2.57,1.62-5.25-1-2.95-.53-5.63,1.06-2.58,1.53-5.27-0.47-2.85,0-5.54,1.72-2.46,2.2-5.15,0.19-2.74.67-5.43,0.43-2.7.9-5.39,0.93-2.52.1-5.12-1.84-1.38-3.72-3.28S121.75,45,119.25,44.11Z"/>
        <path class="g" d="M28.47,42.43A35.56,35.56,0,0,1,27.92,48c-0.28,1.73.21,3.73-.28,5.56s-1.8,3.23-2.39,5-1.63,3.24-2.28,5-1.58,3.26-2.25,5-0.57,3.67-1.25,5.39-0.62,3.66-1.28,5.37-1.83,3.2-2.44,4.92-0.62,3.63-1.18,5.37-1.69,3.3-2.16,5.05-0.89,3.56-1.24,5.33-1.32,3.54-1.52,5.33,0.21,4.52.21,6.32c1-1.61,2.51-3.86,3.42-5.6s1.27-3.68,2.11-5.41,1.89-3.4,2.7-5.12,1.31-3.72,2.14-5.38c0.91-1.83,2.33-3.26,3.23-4.81,1.08-1.88,1.12-4.3,2.21-5.57a7.1,7.1,0,0,1,5.39-2.39c1.83-1.88,1.07-1.88,1.5-5C32.77,70.77,32.83,69,33,67c0.17-1.66-.39-3.49-0.28-5.29s0-3.5,0-5.23a51.91,51.91,0,0,0-.21-5.19,19.42,19.42,0,0,0-1.29-4.92C30.52,44.38,30.07,42.67,28.47,42.43Z"/>
        <path class="h" d="M12.82,121.06s1.24-11.51,5.62-14.76c7.73-5.74,11.62-18.14,11.62-18.14v15.76L18.72,123.74Z"/>
        <g>
          <polygon class="h" points="95.83 27 98.75 23.97 102.25 28.12 101.93 33.61 104.4 29.41 108.37 34.7 108.9 41.28 109.54 47.31 107.13 51.43 104.3 55.61 100.51 58.9 96.98 62.48 96 56.57 95.98 50.63 96.7 44.66 95.51 38.77 96.53 32.8 95.83 27"/>
          <polygon class="i" points="95.83 27 98.75 23.97 102.25 28.12 101.93 33.61 104.4 29.41 108.37 34.7 108.9 41.28 109.54 47.31 107.13 51.43 104.3 55.61 100.51 58.9 96.98 62.48 96 56.57 95.98 50.63 96.7 44.66 95.51 38.77 96.53 32.8 95.83 27"/>
        </g>
        <path class="j" d="M104.35,29.54a22.72,22.72,0,0,1,1.5,2.8,29.91,29.91,0,0,1,1.55,2.77c0.41,1,1.2,1.83,1.54,2.85S109.72,40,110,41a29.66,29.66,0,0,1,.6,3.2,17.21,17.21,0,0,1-.3,3.25"/>
        <path class="k" d="M18.43,90.52l-0.1-.64a12.68,12.68,0,0,0-.54-1.78c-0.29-.77-0.71-1.68-1.2-2.79a17.72,17.72,0,0,1-1.36-4.06c0-.2-0.06-0.42-0.09-0.64s0-.17,0-0.37v-0.3a7.79,7.79,0,0,1,.06-1.41,16.92,16.92,0,0,1,.63-2.81L16.64,73a8.74,8.74,0,0,0,.47-2.58l0-.28v0a0.33,0.33,0,0,1,0,0V70l0-.2c0-.25-0.07-0.59-0.12-0.78l-0.16-.54c-0.09-.18-0.14-0.38-0.24-0.55a7.37,7.37,0,0,0-1.82-2.05,8.18,8.18,0,0,1-2.62-4.1,11.33,11.33,0,0,1-.06-5c0.59-3.08,2-5.73,2.55-8a10.74,10.74,0,0,0,.26-3.37c-0.06-1.28-.25-2.72-0.38-4.34a16.56,16.56,0,0,1,.37-5.72l0.26-.83,0.22-.6c0.13-.36.33-0.83,0.49-1.21,0.33-.8.69-1.57,1.06-2.35a51.89,51.89,0,0,1,5.53-8.92,47.67,47.67,0,0,1,7.73-7.77l0.55-.43,0.14-.11,0.07-.05L31.11,13l0.26-.18,0.26-.18,0.46-.27c0.31-.18.7-0.4,0.94-0.5a17.43,17.43,0,0,1,3.17-1.15c2-.52,3.74-0.76,5.22-1.11A13.66,13.66,0,0,0,43.34,9c0.61-.24,1.72-0.67,2.6-1a48.84,48.84,0,0,1,5.52-1.48c1.84-.39,3.59-0.71,5.43-1s3.72-.5,5.59-0.64,3.74-.19,5.6-0.18h0.72l0.78,0c0.54,0,1,.06,1.51.1,1,0.09,2,.21,2.9.35,1.88,0.29,3.65.65,5.29,1l1.28,0.24L82,6.75c0.94,0.21,1.87.45,2.79,0.72C86.6,8,88.36,8.64,90,9.29l1.23,0.5L91.87,10l0.47,0.18c0.36,0.12.4,0.14,0.79,0.24s0.66,0.16,1,.24c1.44,0.3,3.13.47,5.14,0.95a15.16,15.16,0,0,1,3.22,1.13c0.28,0.15.56,0.29,0.84,0.46l0.42,0.27L104,13.64l0.1,0.07,0.28,0.21,0.47,0.4,0.35,0.32,0.41,0.41a16.39,16.39,0,0,1,3.21,5.55,36.24,36.24,0,0,0,1.58,3.89,3.09,3.09,0,0,0,.18.31l0.09,0.13,0,0.07,0,0L110.64,25,111,25.41a0.92,0.92,0,0,0,.13.14l0.09,0.09a10.22,10.22,0,0,0,1.33,1.11c1.08,0.8,2.44,1.58,3.87,2.69a13.83,13.83,0,0,1,2.17,2,10.39,10.39,0,0,1,1,1.38c0.14,0.26.28,0.54,0.41,0.81l0.1,0.2a1,1,0,0,1,.08.19l0,0.07,0.09,0.26a15.83,15.83,0,0,1,.85,5.25c0,3.2-.45,5.85-0.16,7.9a19.57,19.57,0,0,0,.87,3.29c0.38,1.18.82,2.41,1.12,3.72a15.21,15.21,0,0,1,.46,4l-0.2,3.35c-0.14,2.16-.27,4.19-0.5,6.06q-0.16,1.41-.35,2.69a16.15,16.15,0,0,1-.59,2.53c-0.49,1.54-1,2.8-1.51,3.9s-0.84,2-1.11,2.82a19.29,19.29,0,0,0-.7,2.43l0-.65a18.16,18.16,0,0,1,.18-1.9c0.21-1.65.88-4.08,1.38-7a14,14,0,0,0,.16-2.27q0-1.26-.08-2.64c-0.09-1.84-.18-3.82-0.34-6l-0.24-3.29a11.27,11.27,0,0,0-.74-2.86c-0.39-1-.88-2.06-1.42-3.23a23.8,23.8,0,0,1-1.54-4.07,21.32,21.32,0,0,1-.52-4.53c-0.05-1.42-.08-2.77-0.21-4a10.27,10.27,0,0,0-.79-3.23l-0.11-.25,0-.06s-0.07-.17,0,0.06l0,0a1.4,1.4,0,0,1-.11-0.17,4.84,4.84,0,0,0-.36-0.39,7.74,7.74,0,0,0-1.23-.93c-1-.67-2.38-1.35-3.87-2.28a17.25,17.25,0,0,1-2.38-1.74l-0.34-.31-0.29-.28-0.41-.42L105,29.71,105,29.63l-0.14-.17-0.27-.34c-0.19-.23-0.32-0.46-0.48-0.69a32.89,32.89,0,0,1-2.41-4.86,19.07,19.07,0,0,0-.91-1.8,7.21,7.21,0,0,0-.45-0.65,1.88,1.88,0,0,0-.22-0.26,0.62,0.62,0,0,0-.15-0.16l0,0a0.18,0.18,0,0,0-.11-0.1l-0.49-.38a0.9,0.9,0,1,1,.15.12h0l-0.06,0-0.11-.06L99,20.1a9,9,0,0,0-1.53-.43c-1.26-.26-2.95-0.38-4.85-0.69-0.49-.09-1-0.17-1.49-0.29s-1.22-.31-1.67-0.45L88.74,18l-0.59-.22L87,17.35c-1.54-.56-3.05-1.06-4.56-1.46-0.75-.2-1.51-0.38-2.27-0.53L79,15.14l-1.29-.21c-1.79-.3-3.45-0.63-5-0.86-0.79-.12-1.57-0.21-2.33-0.27-0.37,0-.78-0.05-1.12-0.07l-0.54,0h-0.6q-2.49,0-5,.19c-1.64.11-3.29,0.29-4.9,0.52s-3.35.54-4.94,0.86-3.16.71-4.64,1.16c-0.78.24-1.3,0.43-2.32,0.8a22.39,22.39,0,0,1-3.09.83c-1.92.38-3.6,0.6-4.94,0.91a9.3,9.3,0,0,0-1.68.51l-0.2.08a0.24,0.24,0,0,0-.1,0l-0.27.17L35.79,20l0.1-.07-0.06,0L35.72,20l-0.46.34a44.24,44.24,0,0,0-6.71,6.16,49.24,49.24,0,0,0-5.13,7.32c-0.36.63-.71,1.27-1,1.91-0.16.33-.29,0.57-0.45,0.94l-0.22.48c0,0.09-.07.18-0.11,0.27a10.79,10.79,0,0,0-.41,3.4c0,1.4.07,2.94,0,4.6a16.16,16.16,0,0,1-.91,5.19,43.3,43.3,0,0,1-1.83,4.09A25.28,25.28,0,0,0,17.07,58a6.64,6.64,0,0,0-.34,2.73,3.74,3.74,0,0,0,1.11,2.16,11,11,0,0,1,2.27,3.6c0.12,0.35.2,0.71,0.29,1.06s0.11,0.74.15,1.11,0,0.57,0,.86v0.52l0,0.53A11.88,11.88,0,0,1,19.46,74c-0.43,1-.89,1.81-1.28,2.62A9.18,9.18,0,0,0,17,81.06a20,20,0,0,0,.62,3.9c0.28,1.16.53,2.17,0.67,3a10.66,10.66,0,0,1,.18,1.91Z"/>
      </g>
      <g>
        <path class="f" d="M29.25,41c-0.87-2.38.25-2.62,0.94-5.42A20.86,20.86,0,0,1,32.54,31,17,17,0,0,1,36,26.39c1.17,0.36,1.28,2.93,1.47,3.29,0.47-1.39.4-3.47,1.37-5.13,0.8-1.36,1.37-3.24,2.63-4.57a23.9,23.9,0,0,1,4.14-3.3c1.34-.88,3.31-0.88,5-1.54a29.41,29.41,0,0,1,5-1.86c0.24,1.34-.85,3.06-1.15,4.72-0.26,1.46,1,3.52.29,4.94s-2.95,1.63-4.08,2.72c-1.91,1.81-.64,3.15-2.55,5S46,32.2,44.1,34s-2.55,1.13-4.46,2.93-1.57,2.17-3.49,4-1.78,1.87-4.25,2.79C29.8,44.49,30,43,29.25,41Z"/>
        <path class="l" d="M29.25,41c-0.87-2.38.25-2.62,0.94-5.42A20.86,20.86,0,0,1,32.54,31,17,17,0,0,1,36,26.39c1.17,0.36,1.28,2.93,1.47,3.29,0.47-1.39.4-3.47,1.37-5.13,0.8-1.36,1.37-3.24,2.63-4.57a23.9,23.9,0,0,1,4.14-3.3c1.34-.88,3.31-0.88,5-1.54a29.41,29.41,0,0,1,5-1.86c0.24,1.34-.85,3.06-1.15,4.72-0.26,1.46,1,3.52.29,4.94s-2.95,1.63-4.08,2.72c-1.91,1.81-.64,3.15-2.55,5S46,32.2,44.1,34s-2.55,1.13-4.46,2.93-1.57,2.17-3.49,4-1.78,1.87-4.25,2.79C29.8,44.49,30,43,29.25,41Z"/>
      </g>
      <path class="m" d="M36.24,29.09A21.91,21.91,0,0,1,41,22a38.56,38.56,0,0,1,6.6-5.34C50,15.08,53,14.5,55.55,13.77"/>
      <path class="i" d="M15.88,120.17c-1.57,0-3.06-5.87-3.06-9.72,0-8.68,4.22-15.51,4.22-19.93,0-11.52-.58-30.7-0.58-30.7,0-34.23,21-51.42,51.63-51.42,33,0,48.82,21,50.82,38.56,1.12,9.84.78,20.81-.82,35.35-0.54,4.87-1.57,12-1.65,14.62-0.12,4,1.06,12.25,1.81,18.48,0.43,3.65-.1,9.38-1.47,9.38-1,0-2-2.59-2.33-3.82-2.39-7.91-6.57-13.92-8.76-21.9-4.55-16.49-10-67.68-10-67.68l-55.6-1.46S27.3,79.85,27.2,96.89c0,4-3.47,9.44-7.05,14.81C17.38,115.86,17.18,120.17,15.88,120.17Z"/>
      <g class="n">
        <path class="o" d="M103.55,130.4c-0.27-7.08-.46-10.21-0.46-14.51,0-11.22,7-17.69,6.83-26.07a8.61,8.61,0,0,1-5.23,2.61c3-4,6.17-11.86,6.17-16.72a14,14,0,0,1-4,4c2-5,4.09-11.77,4.09-17.14a8.26,8.26,0,0,1-3.78,2.2A40.26,40.26,0,0,0,111.7,45.4,17.59,17.59,0,0,1,106,51.25h0c2.42-8.34,1.26-16.3-1.57-21.74a15,15,0,0,1-4.18,7.42s2.11-9.9-2.11-13.76C93.34,18.84,86,21.26,86,21.26c-1.83-3.89.08-14.64,0.08-14.64-5.63,2.57-9.57,9.57-10.15,13.28h0A51.72,51.72,0,0,1,74.81,5.39c-4.32,1.67-7.75,6.86-8.27,10.17-1.11-2.51-3.73-8.14-11-9.44C56.79,15.38,53.19,22.48,48,27h0l0.73-7.11C40.9,24.26,34.54,32.21,32.8,38.81h0c-0.58-1.27-1.36-3.24-1.36-3.24-6,5.7-6.38,18.45-2.93,26.44h0c-1.54-1-3-2-3-2-0.81,5,.57,11.89,2.19,19h0c-1.49-.91-3.31-3.5-4.15-5.48,0,4.91.7,11.53,4.32,23.14,1.82,5.85,3.9,11.82,3.9,19.18,0,6.09,0,7.26-.23,13.2Z"/>
        <path class="p" d="M66.54,15.55c-2.45-5.88-6.33-8.53-11-9.44,2.85,1.36,4.54,4.53,6.26,7.17,0.63,1,1.46,1.47,2,2.46,0.28,0.56,0,1.88.53,2.17,0.78,0.43.06,2.46,0.89,2.42,1.7-.07,3.61-5.44,4.89-5.18,1.1,0.22,3,3,3.61,4.27,1,1.94,2.65,1.74,2.23.46A50.94,50.94,0,0,1,74.81,5.39,14.28,14.28,0,0,0,66.54,15.55Z"/>
        <polygon class="q" points="26.93 55.55 26.71 54.96 27.04 54.27 26.73 53.51 26.86 52.79 27.21 52.11 27.4 51.41 27.18 50.64 27.44 49.95 27.71 49.27 27.79 48.55 28.12 47.89 28.18 47.16 28.25 46.44 28.63 45.8 28.88 45.13 28.93 44.39 29.17 43.71 29.31 42.99 29.63 42.34 30.24 41.83 30.43 41.13 30.45 40.34 30.99 39.7 31.02 40.55 31.34 41.18 31.72 41.77 32.19 42.31 32.66 42.83 33.03 43.36 33.23 42.72 33.59 42.08 33.83 41.41 33.68 40.61 33.98 39.95 34.54 39.39 34.79 38.72 35.01 38.04 34.94 37.24 35.24 36.59 35.8 36.05 36.06 35.38 36.13 34.62 36.53 34.02 36.79 33.34 37.27 32.78 37.38 32.03 37.74 31.41 38.33 30.91 38.54 30.21 38.89 29.58 39.18 28.92 39.59 28.33 39.78 27.61 40.32 27.09 40.6 26.43 40.95 25.79 41.35 25.19 41.96 24.74 42.13 23.98 42.56 23.41 43.24 23.01 43.51 22.32 43.98 21.77 44.6 21.35 44.94 20.7 45.27 20.04 45.7 19.47 46.2 18.95 46.8 18.51 47 17.74 47.65 17.35 47.93 16.63 48.6 16.27 49.1 15.75 49.58 15.21 50.12 14.84 49.31 14.8 48.7 15.2 48.2 15.77 47.47 15.94 46.98 16.55 46.28 16.75 45.58 16.96 45.06 17.5 44.34 17.69 43.85 18.29 43.01 18.26 42.44 18.72 41.8 19.05 41.15 19.36 40.63 19.91 39.93 20.15 39.33 20.56 38.76 21.02 38.09 21.3 37.5 21.74 36.8 21.95 36.15 22.29 35.59 22.78 34.99 23.19 34.13 23.2 33.89 23.98 33.15 24.33 32.99 25.12 32.65 25.78 32.14 26.3 31.46 26.69 31.26 27.45 30.49 27.78 30.38 28.61 29.77 29.06 29.16 29.51 28.75 30.1 28.47 30.8 28.09 31.41 27.65 31.99 27.04 32.44 26.72 33.1 26.07 33.52 25.93 34.34 25.49 34.91 24.83 35.33 24.42 35.93 24.08 36.59 23.38 36.97 23.27 37.81 22.66 38.26 22.29 38.89 21.79 39.43 21.35 40.01 20.87 40.57 20.49 41.21 20.09 41.77 20.42 42.34 20.41 43.12 20.85 43.68 21.21 44.28 21.56 44.89 21.94 45.48 22.1 46.19 22.6 46.72 22.83 47.4 22.85 48.16 23.19 48.78 23.61 49.36 24.02 49.95 24.06 50.71 24.55 51.26 25.01 51.82 25.06 52.58 25.65 53.07 25.74 53.82 26.25 54.36 26.61 54.93 26.93 55.55"/>
        <polygon class="q" points="107.82 64.38 107.83 63.44 108.15 62.77 108.13 62.02 108.64 61.39 108.57 60.63 108.54 59.88 108.69 59.17 109.03 58.49 109 57.75 109.4 57.06 109.02 56.29 109.51 55.6 109.09 54.84 109.21 54.12 109.46 53.4 109.33 52.68 109.55 51.95 109.39 51.07 108.67 51.61 108.23 52.22 107.77 52.82 107.19 53.28 106.44 53.51 105.81 53.88 105.36 54.59 104.54 54.6 104.06 54.87 104.14 54.34 104.02 53.59 104.14 52.88 104.36 52.2 104.72 51.53 104.5 50.77 104.78 50.1 105.08 49.42 104.94 48.67 104.97 47.96 105.22 47.27 105.3 46.56 105.29 45.83 105.66 45.15 105.68 44.43 105.54 43.7 105.53 42.98 105.44 42.25 105.56 41.54 105.91 40.83 105.61 40.11 105.9 39.39 105.57 38.67 105.91 37.94 105.74 37.23 105.84 36.5 105.46 35.81 105.61 35.07 105.37 34.37 105.5 33.63 105.24 32.94 105.35 32.19 104.76 31.57 105.04 30.77 104.7 30.11 104.48 29.42 104.26 28.74 103.81 28.13 103.83 27.37 103.36 26.77 103.42 25.84 103.63 26.71 104.23 27.14 104.64 27.77 105.45 28 105.96 28.54 106.41 29.13 106.92 29.65 107.35 30.26 107.93 30.73 108.27 31.42 108.81 31.92 109.54 32.23 109.87 32.94 110.31 33.54 111.11 33.8 111.64 34.32 111.87 35.13 112.5 35.55 112.72 36.24 112.97 36.93 113.21 37.62 113.12 38.39 113.48 39.05 113.67 39.75 113.41 40.55 113.79 41.21 114.17 41.87 114.23 42.6 114.19 43.36 114.35 44.06 114.82 44.7 114.61 45.49 114.97 46.15 114.96 46.9 115.13 47.6 115.39 48.29 115.45 49.02 115.87 49.67 115.91 50.41 116.1 51.11 116.17 51.84 116.37 52.54 116.75 53.21 116.55 54 116.68 54.72 117.11 55.37 117.07 56.13 117.43 56.8 117.53 57.53 117.54 58.18 117.16 58.74 116.5 59.04 115.96 59.54 115.35 59.92 114.72 60.28 113.94 60.37 113.48 61.02 112.77 61.23 112.18 61.66 111.43 61.8 110.84 62.23 110.37 62.85 109.69 63.14 108.92 63.26 108.31 63.7 107.82 64.38"/>
        <g class="r">
          <polygon class="s" points="75.35 20.13 78.32 15.04 83.04 11.92 83.14 17.32 86.27 21.35 85.82 16.05 86.84 10.91 87.11 4.96 79 7.53 76.55 13.7 75.35 20.13"/>
        </g>
        <g class="r">
          <polygon class="s" points="86.39 16.76 92.84 17.01 98.35 19.9 101.61 25.1 101.68 31.1 101.22 36.38 99.65 30.94 95.48 26.8 91.64 22.48 86.21 21.16 86.39 16.76"/>
        </g>
        <path class="t" d="M98.29,108.57s12.64-3.34,12.64,22.85c0,22.67-10.42,22.57-10.42,22.57l-64.1.1s-10.77,0-10.77-22.67c0-26.2,11.32-22.85,11.32-22.85H98.29Z"/>
        <path class="s" d="M66.54,15.55a5.52,5.52,0,0,1-.83-0.34,8.65,8.65,0,0,1-1.62-1,8,8,0,0,1-.81-0.72c-0.27-.26-0.5-0.55-0.78-0.82s-0.56-.54-0.85-0.81-0.59-.53-0.91-0.75-0.63-.46-0.94-0.68l-0.94-.59c-0.33-.15-0.6-0.38-0.92-0.5S57.35,9,57.08,8.9s-0.53-.22-0.75-0.34l-0.6-.24L55.2,8.08,55,8a2,2,0,0,1,1-3.81l0.75,0,0.86,0.1c0.33,0.06.7,0.16,1.1,0.25A8.92,8.92,0,0,1,59.88,5a12,12,0,0,1,1.37.65,12.31,12.31,0,0,1,2.62,2,12.52,12.52,0,0,1,2,2.53,6.62,6.62,0,0,1,1,2.53A5.12,5.12,0,0,1,66.54,15.55Z"/>
        <path class="s" d="M84.25,6.13c1.3,1.89,1.28,4.65.94,7.63L87.66,2.83Z"/>
        <path class="s" d="M75.93,19.9l-0.29-.11A5.4,5.4,0,0,1,75,19.45,3.6,3.6,0,0,1,73.6,18a7.67,7.67,0,0,1-.34-1.1l-0.32-1.24a26,26,0,0,1-.71-5.56l0-1.3c0-.41.07-0.81,0.1-1.17a13.74,13.74,0,0,1,.29-1.74l0.17-.65L72.9,4.9a2,2,0,0,1,3.9.66L76.62,7.71,76.47,10c-0.06.82,0,1.71-.08,2.6s0,1.79,0,2.63,0.07,1.63.06,2.32a6,6,0,0,1-.08,1,5.78,5.78,0,0,1-.16.76L76,19.71Z"/>
        <path class="s" d="M34.87,119.37c0,2.31,4,8.65,6.18,8.65a5.19,5.19,0,0,1,3.58-3.34s-0.77,6,2.51,8.36a3.74,3.74,0,0,1,3.34-2.51s0.33,9.2,5.57,10.87a4.57,4.57,0,0,1,3.34-4.18,6.41,6.41,0,0,0,4.74,4.18,6,6,0,0,1,4.74-5.3s0.84,4.46,4.4,5.3c0.28-4.43,2.29-5.57,2.29-5.57A4.83,4.83,0,0,0,80,139.16a11.82,11.82,0,0,1,2-5.3A3.61,3.61,0,0,0,85,135.26c0-3,3.34-3.9,3.34-3.9s0.28,4.18,3.62,4.18a19.38,19.38,0,0,1,1.11-7.25,2.28,2.28,0,0,1,2.23,2c3.05,0,2.79-6.89,2.79-6.89a2.18,2.18,0,0,1,2.15,1.69c1.87,0,3.42-2.71,3.42-6.45,8.72,0,9.2-9.53,9.2-9.53-25.26-.23-63.26-1.28-84.76-0.7-0.7,0-2.18.69-2.84,0.71C25.31,109.08,27.21,119.37,34.87,119.37Z"/>
        <path class="s" d="M34,153.67l-0.44-.25a3,3,0,0,1-.52-0.37,4.9,4.9,0,0,1-.65-0.57,8.14,8.14,0,0,1-.71-0.77,11.39,11.39,0,0,1-.76-1c-0.26-.35-0.53-0.74-0.78-1.16s-0.52-.86-0.77-1.34a30.55,30.55,0,0,1-1.45-3.15c-0.46-1.14-.87-2.38-1.24-3.67-0.18-.65-0.33-1.31-0.5-2s-0.28-1.36-.4-2.06-0.22-1.4-.29-2.11-0.15-1.42-.17-2.14-0.05-1.43,0-2.15l0-1.06,0.07-1.06a38.94,38.94,0,0,1,.52-4.11c0.23-1.32.53-2.59,0.85-3.77s0.69-2.29,1.08-3.29A23.63,23.63,0,0,1,29,115a20.86,20.86,0,0,1,1.15-2,12.43,12.43,0,0,1,.88-1.17l0.34-.39,0.33,0.3-0.15.52c-0.12.31-.21,0.83-0.37,1.41s-0.26,1.34-.41,2.17c-0.06.42-.15,0.85-0.2,1.32,0,0.23-.07.47-0.1,0.7l-0.09.74c-0.26,2-.46,4.33-0.6,6.77l-0.09,1.85c0,0.62,0,1.27,0,1.85V130c0,0.35,0,.7,0,1.06v0.43c0,0.08,0-.09,0-0.07h0v0.06l0,0.47,0,0.94c0,0.63.08,1.26,0.11,1.89L30,136.69c0,0.31.08,0.62,0.12,0.93l0.09,0.93c0.09,0.61.19,1.22,0.26,1.82,0.2,1.19.39,2.36,0.62,3.46,0.11,0.55.21,1.1,0.34,1.61s0.23,1,.35,1.51L32,147.67c0.06,0.23.14,0.45,0.19,0.67L32.32,149c0.07,0.2.13,0.4,0.19,0.6,0.11,0.41.25,0.75,0.36,1.1a8.05,8.05,0,0,0,.36.92l0.31,0.7a1.92,1.92,0,0,0,.31.53c0.22,0.28.33,0.45,0.33,0.45Z"/>
        <path class="s" d="M103.75,110.56l0.4,0.34a9.77,9.77,0,0,1,1.07,1.07l0.67,0.84c0.22,0.32.46,0.66,0.71,1a22.68,22.68,0,0,1,1.43,2.65c0.23,0.5.47,1,.68,1.58s0.43,1.13.64,1.72,0.38,1.22.58,1.85,0.35,1.29.5,2a38.67,38.67,0,0,1,.72,4.18,32.2,32.2,0,0,1,.22,4.39c0,0.73,0,1.45-.11,2.19l-0.09,1.1L111,136.54c-0.08.72-.21,1.42-0.34,2.12s-0.28,1.38-.43,2-0.35,1.32-.52,2-0.4,1.25-.59,1.85-0.43,1.17-.66,1.72-0.45,1.08-.7,1.57a19.38,19.38,0,0,1-1.49,2.62l-0.37.54-0.38.48c-0.12.15-.24,0.3-0.35,0.44l-0.36.37-0.32.33-0.32.26a3,3,0,0,1-.53.39l-0.48.27-0.19-.4,0.3-.43a3,3,0,0,0,.3-0.53c0.11-.21.22-0.44,0.34-0.73l0.18-.43c0.06-.16.11-0.33,0.17-0.51s0.11-.35.18-0.53l0.17-.59c0.12-.4.23-0.83,0.34-1.29s0.22-.94.33-1.43c0.22-1,.41-2.09.6-3.22,0.06-.58.19-1.16,0.26-1.76s0.18-1.2.23-1.83c0.14-1.24.27-2.52,0.35-3.81l0.07-1c0-.31,0-0.62,0-0.92l0-.46c0-.15,0-0.3,0-0.49v-1.09c0.06-1.25,0-2.53-.05-3.81s-0.17-2.55-.31-3.78c0-.62-0.17-1.22-0.21-1.83s-0.16-1.19-.25-1.76-0.17-1.14-.27-1.67-0.19-1.06-.29-1.57c-0.19-1-.41-1.93-0.62-2.76-0.1-.41-0.23-0.78-0.32-1.15l-0.32-1a9.45,9.45,0,0,0-.56-1.35c-0.17-.32-0.25-0.51-0.25-0.51Z"/>
        <g class="u">
          <path class="v" d="M103.79,115.66s-0.29,0-.83.09a21.36,21.36,0,0,0-2.29.49c-0.5.12-1,.27-1.62,0.47s-1.22.35-1.87,0.61c-1.32.47-2.8,1.05-4.39,1.78-0.8.34-1.63,0.74-2.49,1.16L89,120.9a1.19,1.19,0,0,0-.56.74c-0.08.2-.13,0.46-0.2,0.69l-0.18.82a8,8,0,0,1-.19.78l-0.11.36c0,0.1-.08.2-0.13,0.28a1,1,0,0,1-.68.55l-1.56.53c-1,.39-2.16.65-3.29,1a35.35,35.35,0,0,1-7.2,1c-1.26,0-2.52,0-3.81-.07s-2.57-.26-3.84-0.41H67l-0.1,0-0.21,0L66.24,127l-0.83-.15a0.63,0.63,0,0,1-.41-0.16,2.57,2.57,0,0,1-.46-0.72,6.77,6.77,0,0,0-.89-1.76,0.69,0.69,0,0,0-.47-0.15L62.7,124l-0.9-.14L60,123.54c-2.34-.41-4.57-1-6.73-1.46s-4.18-1.13-6.11-1.64l-5.37-1.58c-3.3-1-6-1.82-8-2.35-1-.28-1.72-0.46-2.23-0.59l-0.79-.2a5.26,5.26,0,1,1,2.59-10.21L34,105.67l0.57,0.21,2.83,1c1.8,0.66,4.37,1.58,7.45,2.57a106.7,106.7,0,0,0,10.51,2.83c1.92,0.39,3.9.74,5.91,1a59.19,59.19,0,0,0,6.06.39,60.68,60.68,0,0,0,6.07-.31c2-.22,4-0.54,5.91-0.9s3.77-.82,5.52-1.3,3.4-1,4.92-1.47c3-1,5.58-2,7.29-2.64l2.81-1.13,1.63-.66a5.39,5.39,0,0,1,4,10A5.53,5.53,0,0,1,103.79,115.66Z"/>
        </g>
        <path class="w" d="M102.37,110.8c-11.15,4.62-22.95,8.22-34.56,8.15-11.43-.07-22.85-3.76-34.56-8.15v-8.55c24,9.37,46.82,9.6,69.11.4v8.15Z"/>
        <g class="x">
          <path class="y" d="M84.42,106.29a66.46,66.46,0,0,1-16.51,1.88v11.46a62.4,62.4,0,0,0,16.7-2ZM69.51,118.35v-9.26a53.74,53.74,0,0,0,13.35-1.52L83,116.77A50.46,50.46,0,0,1,69.51,118.35Z"/>
          <path class="z" d="M67.81,119.62a62,62,0,0,0,16.73-2"/>
        </g>
        <path class="aa" d="M84.39,106.29l0.19,11.39a62.21,62.21,0,0,1-15.54,2H67.88V108.17a66.47,66.47,0,0,0,16.51-1.88m-14,12.07A50.3,50.3,0,0,0,83,116.77l-0.15-9.21a53.74,53.74,0,0,1-13.35,1.52v9.26h0.94m14-13.07a1,1,0,0,0-.25,0,65.46,65.46,0,0,1-16.26,1.85,1,1,0,0,0-1,1v11.46a1,1,0,0,0,1,1H69a63.33,63.33,0,0,0,15.8-2,1,1,0,0,0,.73-1l-0.19-11.39a1,1,0,0,0-1-1h0Zm-13.91,4.79a55.15,55.15,0,0,0,11.37-1.25L82,116a50.23,50.23,0,0,1-11.49,1.36v-7.28h0Z"/>
        <rect class="ab" x="75.89" y="111.26" width="3.34" height="3.34" rx="1.67" ry="1.67"/>
        <g class="ac">
          <path class="y" d="M84.92,111.56a27,27,0,0,1-7.79.51l0.11,1.67a28.11,28.11,0,0,0,7.79-.51Z"/>
          <polygon class="ad" points="85.42 113.59 83.5 113.76 83.42 111.43 85.07 111.26 85.42 113.59"/>
          <polygon class="ad" points="79.72 114.11 77.32 114.27 77.25 111.94 79.72 111.77 79.72 114.11"/>
        </g>
        <path class="ae" d="M84.92,111.56a27,27,0,0,1-7.79.51l0.11,1.67a28.11,28.11,0,0,0,7.79-.51Z"/>
        <path class="af" d="M32.7,107.46v-5.2c24,9.37,46.82,9.6,69.11.4v5.92Q68.21,121.93,32.7,107.46Z"/>
        <g class="u">
          <path class="k" d="M25.54,113.71a14.63,14.63,0,0,0,1.77-.2A11,11,0,0,0,31,112.24,15.44,15.44,0,0,0,34.14,110c0.81-.71,1.37-1.18,1.37-1.18a0.12,0.12,0,0,1,.2.08V109a5.46,5.46,0,0,1,0,.71,7,7,0,0,1-.3,1.62,6.25,6.25,0,0,1-.41,1,4.68,4.68,0,0,1-.3.49l-0.15.23c0,0.07-.14.17-0.19,0.24a5.85,5.85,0,0,1-.88.89,7,7,0,0,1-1.09.74,6.94,6.94,0,0,1-1.24.51,5.86,5.86,0,0,1-3.58,0,5.42,5.42,0,0,1-1.52-.84,3.26,3.26,0,0,1-.38-0.35L25.54,114l-0.09-.1A0.12,0.12,0,0,1,25.54,113.71Z"/>
        </g>
        <g class="u">
          <path class="k" d="M95.25,106.93s0.24,0.05.68,0.18a9.42,9.42,0,0,1,1.74.68,17.63,17.63,0,0,1,2.23,1.4c0.78,0.56,1.58,1.16,2.43,1.67a12.14,12.14,0,0,0,2.61,1.26,13.81,13.81,0,0,0,2.48.58c0.74,0.1,1.37.17,1.81,0.2l0.69,0a0.13,0.13,0,0,1,.08.23l-0.08.07a5.51,5.51,0,0,1-.72.49,6.51,6.51,0,0,1-.86.43,6.16,6.16,0,0,1-1.16.37,7.68,7.68,0,0,1-3.07.14,8.15,8.15,0,0,1-1.73-.45,10,10,0,0,1-1.64-.8l-0.71-.49a7.79,7.79,0,0,1-.66-0.53,10.89,10.89,0,0,1-1.07-1c-0.31-.34-0.58-0.67-0.83-1s-0.47-.64-0.68-0.93c-0.43-.57-0.84-1.13-1.13-1.52l-0.38-.49-0.13-.19-0.06-.08A0.13,0.13,0,0,1,95.25,106.93Z"/>
        </g>
      </g>
      <g class="ag">
        <path class="s" d="M26.94,55.4L27.15,53a50.58,50.58,0,0,1,.77-5.32,27,27,0,0,1,1.64-5.12c0.29-.67.57-1.22,0.77-1.6l0.31-.59,0.09,0s0,0.25-.16.67-0.26,1-.45,1.71-0.39,1.51-.61,2.37c-0.12.43-.19,0.88-0.31,1.33s-0.21.92-.3,1.38-0.2.93-.3,1.39-0.2.91-.29,1.36c-0.18.88-.42,1.71-0.57,2.42s-0.37,1.3-.48,1.72S27,55.41,27,55.41h-0.1Z"/>
      </g>
      <g class="r">
        <polygon class="s" points="80.75 31.73 81.64 31.75 82.36 31.9 83.07 31.91 83.81 31.66 84.48 32.13 85.23 31.92 85.95 31.96 86.65 32.12 87.32 32.43 87.98 32.72 88.67 32.9 89.4 32.91 90.18 32.84 90.81 33.23 91.48 33.5 92.03 34.01 92.72 34.23 93.33 34.58 93.9 35.04 94.72 35.09 95.27 35.56 95.67 36.22 96.26 36.62 96.91 36.97 97.29 37.6 97.68 38.21 98.1 38.77 98.69 39.22 99.09 39.8 99.5 40.39 99.73 41.08 100.09 41.69 100.77 42.15 100.68 42.98 101.15 43.55 101.14 44.31 101.79 44.85 101.92 45.57 101.96 46.29 102.31 46.95 102.08 47.73 102.41 48.4 102.65 49.09 102.68 49.81 102.48 50.54 102.56 51.31 101.74 51 100.89 51.45 100.84 50.48 100.11 50.03 99.86 49.36 99.72 48.61 99.26 48.04 99.09 47.3 98.72 46.67 98.36 46.05 97.83 45.52 97.29 45.02 96.87 44.43 96.63 43.7 96.2 43.11 95.42 42.81 95.2 42.04 94.72 41.48 94.11 41.06 93.4 40.75 92.86 40.28 92.36 39.75 91.92 39.12 91.13 38.98 90.62 38.45 90.08 37.91 89.32 37.79 88.64 37.54 88.03 37.11 87.35 36.87 86.63 36.75 85.99 36.28 85.26 36.19 84.51 36.28 83.78 36.28 82.89 36.31 82.63 35.59 82.62 34.82 82.04 34.32 81.99 33.56 81.4 33.06 81.4 32.24 80.75 31.73"/>
      </g>
      <g class="r">
        <polygon class="s" points="50.76 31.63 50 31.75 49.29 31.84 48.54 31.59 47.9 32.11 47.16 32.09 46.42 32.12 45.73 32.32 45.06 32.6 44.42 32.94 43.88 33.47 43.25 33.8 42.64 34.16 41.85 34.3 41.3 34.77 40.87 35.38 40.41 35.93 39.77 36.31 39.27 36.84 38.83 37.41 38.44 38.02 38 38.59 37.64 39.21 37.18 39.77 37.07 40.54 36.47 41.03 36.17 41.69 35.69 42.27 35.48 42.97 35.52 43.76 35.19 44.4 35 45.09 34.7 45.75 34.58 46.46 34.29 47.12 33.86 47.75 33.71 48.45 33.43 49.13 33.27 49.84 33.47 50.61 33.24 51.42 34.24 51.05 34.68 50.6 34.59 49.8 34.93 49.16 35.09 48.44 35.51 47.83 35.97 47.24 36.31 46.61 36.6 45.95 36.99 45.34 37.24 44.66 37.44 43.93 37.74 43.26 38.41 42.83 38.7 42.14 39.29 41.68 39.68 41.06 40.02 40.38 40.64 39.97 41.23 39.52 41.85 39.14 42.26 38.47 42.94 38.17 43.69 38.02 44.15 37.33 44.98 37.39 45.48 36.69 46.21 36.53 46.93 36.38 47.69 36.45 48.37 36.06 49.12 36.09 49.94 36.22 49.77 35.38 50.24 34.68 50.43 33.94 50.35 33.14 50.79 32.44 50.76 31.63"/>
      </g>
      <polygon class="ah" points="55.31 54.67 55.25 48.93 55.7 44.45 54.99 40.34 50.99 37.67 49.03 35.54 48.84 31.27 52.32 28.33 56.93 27.55 59.69 23.51 63.88 21.82 68.34 22.75 72.45 24.19 77.26 22.84 79.69 27.63 83.42 29.41 87.01 32.08 86.56 34.69 82.2 36.23 83.79 41.8 80.68 45.19 78.44 48.89 76.2 51.3 73.26 55.02 69.14 52.57 64.99 52.71 61 53.74 55.31 54.67"/>
      <polygon class="ah" points="86.64 37.28 87.37 37.04 88.1 37 88.82 37.22 89.54 37.29 90.27 37.31 90.92 37.75 91.63 37.87 92.38 37.88 93.08 38.07 93.81 38.23 94.43 38.62 94.91 39.25 95.68 39.38 96.1 40.03 96.86 40.23 97.16 40.98 97.76 41.39 98.12 42.02 98.83 42.38 99.07 43.09 99.6 43.61 99.77 44.34 100.25 44.9 100.36 45.65 101.07 46.11 100.94 46.95 101.37 47.56 101.64 48.22 101.88 48.9 102.32 49.52 102.26 50.28 102.66 50.92 102.88 51.62 102.59 52.42 102.86 53.1 102.86 53.83 103.4 54.47 103.51 55.18 103.53 55.91 103.63 56.63 103.61 57.36 103.78 58.07 103.62 58.82 103.74 59.52 104.11 60.21 103.91 60.95 103.87 61.68 104.31 62.37 104.37 63.09 104.02 63.84 104.21 64.56 104.31 65.28 104.42 66 104.52 66.72 104.29 67.45 104.51 68.17 104.55 68.89 104.13 69.62 104.36 70.35 104.59 71.08 104.42 71.91 104.04 71.17 103.59 70.61 102.88 70.25 102.7 69.46 102.06 69.06 101.69 68.41 101.17 67.9 100.58 67.47 100.12 66.9 99.41 66.61 98.95 66.04 98.38 65.6 97.87 65.07 97.28 64.65 96.57 64.39 96.21 63.66 95.64 63.2 94.89 63.02 94.41 62.43 93.7 62.2 93.12 61.76 92.6 61.23 91.82 61.12 91.24 60.68 90.53 60.45 89.9 60.11 89.28 59.74 88.79 59.11 88 59.05 87.45 58.56 86.77 58.29 86.24 57.73 85.56 57.46 84.78 57.42 84.16 57.02 83.63 56.45 82.94 56.22 82.32 55.82 81.49 55.89 80.94 55.32 80.19 55.24 79.59 54.76 78.84 54.7 78.09 54.6 77.56 53.95 76.87 53.73 76.19 53.47 75.51 53.22 74.86 52.9 74.11 52.84 73.47 52.48 72.68 52.53 72.05 52.15 71.37 51.88 70.63 51.83 69.93 51.66 69.3 51.25 68.55 51.29 67.98 50.89 68.3 50.31 68.31 49.54 68.74 48.94 68.97 48.25 69.19 47.55 69.44 46.87 69.84 46.26 70.44 45.77 70.6 45.03 70.92 44.37 71.35 43.78 71.89 43.28 72.45 42.8 72.78 42.13 73.39 41.72 73.98 41.3 74.4 40.68 74.95 40.2 75.71 40.03 76.28 39.59 76.77 38.98 77.59 39.02 78.22 38.69 78.85 38.33 79.5 38.01 80.28 38.09 80.91 37.67 81.67 37.78 82.36 37.63 83.04 37.34 83.76 37.33 84.47 37.21 85.19 37.17 85.92 37.31 86.64 37.28"/>
      <path class="ai" d="M94.41,50.73l-0.75.46-0.4.24-0.51.26a11,11,0,0,1-1.25.56,14,14,0,0,1-1.53.51c-0.28.07-.56,0.17-0.85,0.23l-0.9.17a7.92,7.92,0,0,1-.95.12c-0.32,0-.64.08-1,0.07h-1c-0.33,0-.67-0.06-1-0.09a6,6,0,0,1-1-.17,7.29,7.29,0,0,1-1-.25l-0.93-.33L80.55,52a5.38,5.38,0,0,1-.78-0.5A4.4,4.4,0,0,1,79.07,51l-0.6-.58A6.83,6.83,0,0,1,78,49.81c-0.15-.2-0.3-0.38-0.42-0.57l-0.3-.57L77,48.17l-0.16-.45-0.28-.84L77,47.65l0.22,0.4,0.33,0.43L77.93,49c0.13,0.17.3,0.32,0.46,0.49a6.23,6.23,0,0,0,.52.5l0.62,0.47a4.88,4.88,0,0,0,.69.43,4.66,4.66,0,0,0,.75.39l0.8,0.33,0.86,0.24a6.38,6.38,0,0,0,.89.17L84,52.06l0.46,0c0.31,0,.61.05,0.91,0l0.91,0c0.3,0,.6-0.06.89-0.09A7,7,0,0,0,88,51.9l0.83-.16c0.27-.06.53-0.14,0.79-0.21A12.8,12.8,0,0,0,91,51.06c0.44-.15.81-0.33,1.16-0.47l0.48-.21,0.41-.22,0.78-.4A0.56,0.56,0,0,1,94.41,50.73Z"/>
      <path class="v" d="M76.11,44.55c0,4.16,3.12,7.52,8.93,7.52s9.89-3.37,9.89-7.52S90.84,37,85,37,76.11,40.39,76.11,44.55Z"/>
      <g class="aj">
        <ellipse class="b" cx="84.43" cy="44.55" rx="9.56" ry="7.17"/>
        <g class="ak">
          <path class="al" d="M72.07,44.55a8.92,8.92,0,1,0,17.84,0A8.92,8.92,0,1,0,72.07,44.55Z"/>
          <path class="am" d="M72.07,41.76a8.92,8.92,0,0,0,17.84,0A8.92,8.92,0,1,0,72.07,41.76Z"/>
        </g>
        <ellipse class="an" cx="84.46" cy="41.68" rx="1.67" ry="1.39"/>
        <path class="ao" d="M74.86,44a12.59,12.59,0,0,1,17.84,0c0-3.69-4-6.69-8.92-6.69S74.86,40.3,74.86,44Z"/>
        <path class="ap" d="M74.3,46.5c0,2,3.07,5.3,8.92,5.3s9.48-3.29,9.48-5.3c-2,1.39-5.48,2-9.48,2S77.13,48,74.3,46.5Z"/>
      </g>
      <path class="v" d="M93.72,39.37l-0.21-.11c-0.13-.06-0.35-0.19-0.59-0.29S92.4,38.72,92,38.58s-0.76-.28-1.2-0.42a14.73,14.73,0,0,0-1.45-.38,14.41,14.41,0,0,0-1.66-.25,14,14,0,0,0-5.45.47,12.74,12.74,0,0,0-1.67.64A8.8,8.8,0,0,0,78,40.49a7.57,7.57,0,0,0-.81,1,7.66,7.66,0,0,0-.51.89,6.71,6.71,0,0,0-.27.61l-0.09.22,0-.24a4.5,4.5,0,0,1,.09-0.68A6.5,6.5,0,0,1,77.38,40a7.4,7.4,0,0,1,1.07-1.33,9,9,0,0,1,1.49-1.2,11.59,11.59,0,0,1,3.83-1.56,15.12,15.12,0,0,1,2.08-.3,16.54,16.54,0,0,1,2,0,14.85,14.85,0,0,1,1.89.27,13.25,13.25,0,0,1,1.65.46,6.81,6.81,0,0,1,.71.27c0.22,0.09.43,0.18,0.63,0.28,0.39,0.18.73,0.36,1,.52s0.45,0.28.59,0.37l0.2,0.13A0.84,0.84,0,0,1,93.72,39.37Z"/>
      <path class="aq" d="M77.09,44.55c0,3.17,2.41,6.69,7.34,6.69s8.27-3,8.27-6.69-3.34-6.69-8.27-6.69A7,7,0,0,0,77.09,44.55Z"/>
      <polygon class="ah" points="48.58 36.19 47.85 36.02 47.14 36.23 46.4 36.15 45.64 36.05 45.01 36.56 44.23 36.49 43.59 36.88 43 37.33 42.18 37.3 41.58 37.74 41.07 38.29 40.41 38.63 39.97 39.23 39.52 39.8 38.92 40.22 38.26 40.6 37.88 41.23 37.36 41.75 37.15 42.49 36.48 42.93 36.09 43.55 35.88 44.26 35.68 44.98 35.18 45.54 35.23 46.36 34.53 46.85 34.36 47.56 34.24 48.29 33.76 48.89 33.7 49.63 33.38 50.28 33.4 51.04 33.29 51.76 32.95 52.42 32.78 53.12 32.44 53.79 32.71 54.58 32.54 55.28 32.2 55.96 32.13 56.68 31.97 57.39 32 58.13 31.69 58.81 31.82 59.56 31.56 60.25 31.5 60.97 31.57 61.71 31.16 62.39 31.09 63.12 30.97 63.84 31 64.57 31.04 65.3 31.14 66.04 30.84 66.74 31.17 67.49 30.93 68.2 30.82 68.93 30.84 69.66 30.97 70.39 30.67 71.11 30.95 71.84 30.64 72.57 30.86 73.31 30.82 74.07 31.33 73.54 31.73 72.94 32.14 72.36 32.49 71.72 32.9 71.13 33.49 70.69 34.03 70.22 34.6 69.77 35.05 69.22 35.45 68.61 35.94 68.08 36.69 67.83 36.93 67.04 37.58 66.69 38.23 66.34 38.78 65.89 39.31 65.4 39.82 64.9 40.23 64.27 40.81 63.85 41.38 63.42 42.16 63.25 42.71 62.8 43.18 62.23 43.71 61.74 44.41 61.48 45 61.09 45.58 60.66 46.14 60.21 46.75 59.82 47.33 59.4 47.98 59.09 48.44 58.46 49.2 58.33 49.8 57.93 50.51 57.72 51.08 57.28 51.53 56.62 52.19 56.33 52.79 55.93 53.45 55.64 54.04 55.22 54.72 54.96 55.47 54.84 56.1 54.5 56.8 54.29 57.45 53.98 57.95 53.36 58.71 53.27 59.22 52.67 60.03 52.73 60.56 52.13 61.25 51.95 61.87 51.57 62.6 51.44 63.34 51.36 64.02 51.15 64.67 50.87 65.36 50.69 66 50.35 66.61 49.94 67.13 49.73 67.17 49.1 66.74 48.49 66.63 47.75 66.24 47.13 65.75 46.57 65.55 45.87 65.28 45.2 65.01 44.52 64.38 44.06 64.11 43.38 63.9 42.64 63.14 42.31 62.99 41.5 62.16 41.28 61.71 40.72 61.21 40.21 60.8 39.58 60.05 39.37 59.52 38.9 59.01 38.35 58.23 38.29 57.73 37.67 57.09 37.34 56.34 37.29 55.75 36.77 54.93 37.02 54.28 36.66 53.6 36.39 52.89 36.33 52.18 36.17 51.46 36.18 50.73 36.22 50.03 35.9 49.3 36.17 48.58 36.19"/>
      <path class="ai" d="M40.65,49.75l0.78,0.4,0.41,0.22,0.48,0.21c0.34,0.14.71,0.32,1.16,0.47a12.8,12.8,0,0,0,1.42.47c0.26,0.07.52,0.15,0.79,0.21l0.83,0.16a7,7,0,0,0,.87.13c0.29,0,.59.09,0.89,0.09l0.91,0c0.3,0,.61,0,0.91,0l0.46,0L51,52a6.38,6.38,0,0,0,.89-0.17l0.86-.24,0.8-.33a4.66,4.66,0,0,0,.75-0.39A4.88,4.88,0,0,0,55,50.43L55.61,50a6.23,6.23,0,0,0,.52-0.5c0.16-.17.33-0.32,0.46-0.49L57,48.49l0.33-.43,0.22-.4,0.44-.77-0.28.84-0.16.45-0.26.49-0.3.57c-0.11.2-.27,0.37-0.42,0.57a6.82,6.82,0,0,1-.49.61l-0.6.58a4.4,4.4,0,0,1-.69.55A5.38,5.38,0,0,1,54,52l-0.86.44-0.93.33a7.29,7.29,0,0,1-1,.25,6,6,0,0,1-1,.17c-0.33,0-.67.09-1,0.09h-1c-0.33,0-.65,0-1-0.07a7.92,7.92,0,0,1-.95-0.12L45.4,53c-0.29-.06-0.57-0.16-0.85-0.23A14,14,0,0,1,43,52.24a11,11,0,0,1-1.25-.56l-0.51-.26-0.4-.24-0.75-.46A0.56,0.56,0,0,1,40.65,49.75Z"/>
      <path class="v" d="M58.41,44.55c0,4.16-3.12,7.52-8.93,7.52S39.6,48.7,39.6,44.55,43.67,37,49.48,37,58.41,40.39,58.41,44.55Z"/>
      <g class="ar">
        <ellipse class="b" cx="50.09" cy="44.55" rx="9.56" ry="7.17"/>
        <g class="as">
          <path class="al" d="M62.45,44.55a8.92,8.92,0,0,1-17.84,0A8.92,8.92,0,1,1,62.45,44.55Z"/>
          <path class="am" d="M62.45,41.76a8.92,8.92,0,0,1-17.84,0A8.92,8.92,0,0,1,62.45,41.76Z"/>
        </g>
        <ellipse class="an" cx="50.05" cy="41.68" rx="1.67" ry="1.39"/>
        <path class="ao" d="M59.66,44a12.59,12.59,0,0,0-17.84,0c0-3.69,4-6.69,8.92-6.69S59.66,40.3,59.66,44Z"/>
        <path class="ap" d="M60.22,46.5c0,2-3.07,5.3-8.92,5.3s-9.48-3.29-9.48-5.3c2,1.39,5.48,2,9.48,2S57.38,48,60.22,46.5Z"/>
      </g>
      <path class="v" d="M39.87,37.57l0.2-.13c0.14-.08.3-0.21,0.59-0.37s0.62-.34,1-0.52c0.19-.1.4-0.19,0.63-0.28A6.8,6.8,0,0,1,43,36a13.25,13.25,0,0,1,1.65-.46,14.85,14.85,0,0,1,1.89-.27,16.54,16.54,0,0,1,2,0,15.12,15.12,0,0,1,2.08.3,11.59,11.59,0,0,1,3.83,1.56A9,9,0,0,1,56,38.31,7.4,7.4,0,0,1,57,39.64,6.5,6.5,0,0,1,58,42a4.5,4.5,0,0,1,.09.68l0,0.24L58,42.66A6.71,6.71,0,0,0,57.72,42a7.65,7.65,0,0,0-.51-0.89,7.57,7.57,0,0,0-.81-1,8.8,8.8,0,0,0-2.58-1.85,12.74,12.74,0,0,0-1.67-.64,14,14,0,0,0-5.45-.47,14.41,14.41,0,0,0-1.66.25,14.73,14.73,0,0,0-1.45.38c-0.44.14-.85,0.27-1.2,0.42s-0.64.27-.88,0.38-0.46.23-.59,0.29L40.71,39A0.84,0.84,0,0,1,39.87,37.57Z"/>
      <path class="at" d="M103.6,110.72c3.67,2.79,7.34,12.06,7.34,20.7,0,11-4.6,20.39-7.85,21.89-0.48,5.42-5.24,11.63-10.45,11.63,0,2.7-5.84,9.74-13,9.74,0,2.29-4.53,6.14-11.06,6.14S57.51,177,57.51,174.68c-7.16,0-13-7-13-9.74-5.16,0-9.87-6.14-10.43-11.47-3.17-1.44-8.42-10.91-8.42-22.06,0-8.5,3-16.6,5.86-19.8"/>
      <path class="aq" d="M57.43,44.55c0,3.17-2.41,6.69-7.34,6.69s-8.27-3-8.27-6.69,3.34-6.69,8.27-6.69A7,7,0,0,1,57.43,44.55Z"/>
      <path class="q" d="M109.25,93.63s4.8,7,4.8,19.73c0,0-5.76-6.83-11.37-6.83C105.94,103.86,108.44,96.84,109.25,93.63Z"/>
      <path class="o" d="M105.73,101.29c-1,4.32-.3,8.43,4.2,11.8-10.23,0-9.09-6.46-18.56-6.46l1.86-3Z"/>
      <path class="o" d="M52.33,107.21c-6.44,1-9.74,6.83-9.74,6.83-0.87-2.84-.9-7.69.4-10.38"/>
      <path class="o" d="M44.16,106.1c-4.88.78-8.11,7.21-8.11,7.21-0.69-3.14-.57-7.84.4-10.36"/>
      <path class="o" d="M71.58,109.07c-4.88.78-8.11,7.21-8.11,7.21-0.69-3.14-.57-7.84.4-10.36"/>
      <path class="o" d="M57.47,107.9c-4.88.78-8.11,7.21-8.11,7.21-0.69-3.14-.57-7.84.4-10.36"/>
      <path class="o" d="M64.7,109.11c-5,0-9.23,6-9.23,6-0.69-3.14-.57-7.84.4-10.36"/>
      <path class="o" d="M77.25,106.89c1,2.52,1.09,7.22.4,10.36,0,0-3.84-7.35-10.84-7.35l1.06-4.47Z"/>
      <path class="o" d="M81.53,104.26c1,2.52,1.09,7.22.4,10.36,0,0-3.23-6.44-8.11-7.21l1.8-2.76Z"/>
      <path class="o" d="M81.08,108.48c5.68,0,7.34,6,7.34,6,0.69-3.14.57-7.84-.4-10.36l-6.12,1Z"/>
      <path class="o" d="M94.47,103.49c1,2.52,1.09,7.22.4,10.36,0,0-3.23-6.44-8.11-7.21"/>
      <path class="q" d="M27.4,94.28s-5.66,6.28-5.66,19.05c0,0,5.71-6.68,11.33-6.68C30.15,104.6,28.26,97.1,27.4,94.28Z"/>
      <path class="o" d="M38.31,107.33c-2.84,0-5,6.53-12.77,6.53,4.5-3.37,5.18-8.25,4.23-12.57l8.54,0.92v5.12"/>
      <g class="au">
        <path class="s" d="M30.83,71.26c0-7.47,5.92-18.44,17.27-18.44,16.14,0,15.18-27.19,15.18-27.19h8s-0.8,27.19,15.55,27.19A17.33,17.33,0,0,1,104.4,69.39c-4-4-5.92-3.75-5.92-3.75a20.78,20.78,0,0,1,5.3,11.67,17.43,17.43,0,0,0-6-4.17c2.34,3.56,3.61,8.57,3.63,14a9.32,9.32,0,0,0-5.5-5.52c3.8,5.21,3.47,14.92.23,21.38-0.5-4-3.27-8.46-5.42-8.46l-1.77,4.58c0-2.31-1.92-6-3.95-6l-0.71,4.83c-0.95-2.8-4-5.77-6.24-5.77v6.36a11,11,0,0,0-6.85-5.73l-2.49,5.11-0.36-4.9L65,96.06l0.64-4a20.58,20.58,0,0,0-9.24,5.63,7.42,7.42,0,0,1,1.46-5A23.06,23.06,0,0,0,47.6,99.81a14.93,14.93,0,0,1,1.14-6.25,16.07,16.07,0,0,0-10.28,10.11,22,22,0,0,1-2.7-10.32c0-6.51,2.6-10,2.6-10-1.62,0-5.29,2.69-6.44,6.36,0-4.54.64-9.61,4.26-13.23-2,0-4.19,2-5.35,4.53,0-7.71,3.29-11.89,6.91-14.12C35.24,66.88,32.21,68.86,30.83,71.26Z"/>
        <g class="av">
          <polygon class="aw" points="96.94 108.58 96.28 104.75 94.25 101.23 94.59 96.65 89.11 93.6 87.82 98.52 87.76 95.45 87.19 93.85 82.85 97.4 82.83 93.19 75.95 91.33 75.6 95.28 76.15 97.6 76.72 93.11 71.91 93.35 68.74 98.63 68.91 91.71 64.83 96.68 65.48 92.13 62.6 94.12 58.62 94.59 54.9 99.02 56.38 93.01 53.95 94.29 51.47 97.89 47.59 99.38 46.87 96.46 48.47 94.01 44.53 95.39 40.27 97.5 36.11 100.29 35.57 104.34 34.3 101.56 31.99 97.82 30.04 93.74 33.82 89.26 30.15 84.76 31.03 80.26 33.58 76.42 38.3 74.69 40.22 70.58 44.87 70.85 47.4 67.4 46.97 64.01 49.75 60.29 55.07 59.27 55.38 63.78 61.23 65.28 66.87 62.9 71.17 61.16 74.77 61.81 79.01 64.03 80.56 58.9 84.31 63.25 86.41 66 88.62 70 92.68 72.01 95.97 73.17 99.25 75.76 98.56 80.18 99.8 84.01 103.49 88.19 98.93 92.09 99.15 96.27 100.26 100.79 99.1 104.88 96.94 108.58"/>
        </g>
        <rect class="aw" x="57.99" y="24.37" width="19.57" height="11.85"/>
        <path class="aw" d="M77.56,34.55c0-.5-4.07-1.64-5.31-1.78-0.54-.06-1.37.81-2.85,0.69-1-.08-2-0.37-2.63,0-0.92.46-2.34-.81-3.43-0.86s-7.06,1.59-7.73,2.29L53.46,51.64,56.68,50a8.78,8.78,0,0,1,1.79-2.34,8.7,8.7,0,0,1,.6-1.35,5.41,5.41,0,0,1,1.3-.37A4.7,4.7,0,0,0,62,43c0.18-.81-0.51-1.35-0.38-1.9,0.18-.72,1.44-0.61,1.56-1.5,0.07-.58-0.85-1.95-0.17-2.31a9.87,9.87,0,0,1,3.21-.82c0.57,0,2,.76,2.54.78S70,37,70.61,37a3.21,3.21,0,0,1,1.41.55c0.45,0.25-.15,1.09-0.11,1.48s0.71,0.68.8,1.06c0.24,0.91-.13.61,0.07,1.68,0.06,0.3,1.28,3,1.44,3.29a36.16,36.16,0,0,0,4,4.18Z"/>
        <path class="aw" d="M55.59,44.46c1.18,2.59,3.48.9,6.28,1.38s3.06,0.81,6.05.69c2.33-.1,2-2.62,4.31-2.84,1.56-.14,1.58,2.52,3.14,2.41,2.21-.16,2.77-0.13,3.27-2.29,0.76-3.26-.4-2.88-1.63-6s0.27-4.21-2.5-6.08S71.27,32,67.89,32s-4.4-2.93-7.19-1,0.12,4.23-1.8,7C56.63,41.14,54.2,41.42,55.59,44.46Z"/>
        <g class="u">
          <polygon class="aw" points="97.36 103.04 96 99.22 95.01 95.36 90.67 94.48 88.76 98.99 86.9 95.93 86.16 93.47 82.34 97.24 82.81 93.21 75.88 91.3 79.63 95.28 78.66 98.74 75.59 94.41 69.28 91.13 68.63 97.18 68.55 92.44 64.28 98.42 68.12 91.72 62.22 93.33 60.24 96.79 55.37 98.62 57.9 92.72 52.92 92.49 50.85 97.15 47.61 100.18 45.62 96.25 48.69 93.63 44.92 94.4 43.25 98.27 39.64 100.03 37.92 105.35 39.4 99.5 36.39 95.03 40.89 91.48 38.61 86.47 40.6 82.48 43.42 79.02 45.76 75.06 51.1 75.15 56.59 73.3 55.2 68.26 55.55 64.64 55.19 58.63 54.66 65.45 61.2 61.73 66.81 64.42 70.8 64.6 75.13 65.49 77.76 61.83 81.78 61.69 80.7 64.32 81.01 67.92 79.72 71.89 84.18 73.21 88.79 74.49 89.48 79.57 91.5 83.09 94.7 86.27 93.8 90.85 95.83 94.65 93.48 98.99 97.36 103.04"/>
          <path class="aw" d="M99.29,102.51c-0.92-2.56-1.68-5.05-2.35-7.68a2,2,0,0,0-1.4-1.4l-4.34-.87a2,2,0,0,0-2.26.92L87,98h3.45c-0.56-.92-1.19-1.84-1.7-2.79-0.17-.32-0.08-0.1,0,0.11a5.34,5.34,0,0,1-.2-0.67c-0.15-.56-0.34-1.12-0.51-1.68a2,2,0,0,0-3.34-.88l-3.82,3.77,3.41,1.41,0.47-4a2,2,0,0,0-1.47-1.93l-6.93-1.9a2,2,0,0,0-1.95,3.34l3.75,4L77.7,94.75l-1,3.47,3.66-.48c-1.16-1.64-2.27-4-3.93-5.13a56,56,0,0,0-6.17-3.2,2,2,0,0,0-3,1.73l-0.64,6.06h4l-0.08-4.74a2,2,0,0,0-3.73-1l-4.27,6,3.45,2,3.84-6.7a2,2,0,0,0-2.26-2.94c-1.88.51-3.91,0.86-5.72,1.56s-2.47,2.88-3.36,4.42l1.2-.92-4.87,1.84,2.26,2.94,2.53-5.9a2,2,0,0,0-1.73-3l-5-.23a2,2,0,0,0-1.73,1,48.91,48.91,0,0,1-2,4.53,0.65,0.65,0,1,0-.13.08l-1.07,1-1.79,1.68,3.14,0.4-2-3.93L47,97.67,50.1,95c1.63-1.4-.15-3.71-1.95-3.34-1.53.31-4,.29-5,1.69A14.7,14.7,0,0,0,42.07,96a3.27,3.27,0,0,0-.45,1q-0.32.66,0.55-.44l-0.43.21c-1.5.33-3.51,1.54-4.11,2.92-0.7,1.63-1.11,3.43-1.65,5.12l3.86,1.06c0.49-1.93,1.44-4.13,1.51-6.12S39.17,95.58,38.12,94l-0.31,2.42,4.5-3.54a2,2,0,0,0,.31-2.42l-2.28-5v2c0.55-1.11,1.2-2.21,1.67-3.36s-0.11,0,.25-0.53,1-1.21,1.47-1.8a45.36,45.36,0,0,0,3.77-5.73l-1.73,1c1.88,0,4,.38,5.87,0a44.65,44.65,0,0,0,5.49-1.86,2,2,0,0,0,1.4-2.46L57.45,68.9a8.52,8.52,0,0,1-.26-1c-0.09-.58,0,0.77,0,0s0.17-1.62.24-2.43a48.6,48.6,0,0,0-.28-6.89,2,2,0,0,0-4,0l-0.53,6.82a2,2,0,0,0,3,1.73l6.53-3.71h-2c2.16,1,4.53,2.67,6.92,3,0.79,0.1,1.63.07,2.43,0.11l1,0c0.7,0.05-.57-0.1,0,0,1.37,0.23,2.73.56,4.09,0.84a2.1,2.1,0,0,0,2.26-.92l2.63-3.66-1.73,1,4-.13-1.93-2.53a9.77,9.77,0,0,0-.95,5.44,2.88,2.88,0,0,0,.13,1c0-.41-0.25.65-0.31,0.84l-0.94,2.86a2,2,0,0,0,1.4,2.46q4.53,1.34,9.07,2.6L86.86,75c0.34,2.49.41,4.73,1.67,6.92a26.06,26.06,0,0,0,4.76,5.74l-0.51-1.95a29.16,29.16,0,0,0-.94,4.85c0,1.72,1.47,3.59,2.26,5.08v-2L91.75,98a2.06,2.06,0,0,0,.31,2.42l3.88,4c1.79,1.86,4.61-1,2.83-2.83l-3.88-4L95.21,100c0.8-1.47,2.17-3.18,2.55-4.82s-1.49-4-2.23-5.34l0.2,1.54c0.3-1.51.76-3.06,0.9-4.59,0.19-2-2-3.45-3.35-4.75-0.67-.66.06,0.19-0.19-0.19s-0.36-.63-0.54-0.94c-0.3-.52-0.58-1.05-0.9-1.56C91.5,79.1,91.18,78.14,91.4,79a44.39,44.39,0,0,1-.68-5,2,2,0,0,0-1.4-1.4Q84.77,71.3,80.25,70l1.4,2.46c0.52-1.6,1.37-3.29,1.33-5,0-.6-0.1-1.2-0.15-1.8a3,3,0,0,0-.13-1.06,3.92,3.92,0,0,0,.48-1l0.54-1.31a2,2,0,0,0-1.93-2.53c-1.47,0-4-.36-5.23.56s-2.22,2.93-3.15,4.22l2.26-.92a40.62,40.62,0,0,0-5.48-1c-0.7,0-1.4-.06-2.1-0.1a4.76,4.76,0,0,0-.81,0c-0.8.11,0.18,0,.5,0.23a23.06,23.06,0,0,0-3-1.43c-1.88-.9-3.28-1.95-5.26-0.86s-3.92,2.23-5.87,3.34l3,1.73,0.53-6.82h-4A46.47,46.47,0,0,1,53.42,66c-0.28,2.87.47,5.08,1.24,7.86l1.4-2.46c-1.78.6-3.6,1.42-5.44,1.84,0.73-.17.14,0-0.27-0.07-0.56,0-1.13,0-1.69,0l-2.91-.05A2,2,0,0,0,44,74l-1.42,2.4c-0.26.45-.52,0.9-0.79,1.34s0.43-.53-0.15.22a31.74,31.74,0,0,0-3.11,4.09c-0.87,1.6-2.31,3.61-1.65,5.43s1.51,3.32,2.26,5l0.31-2.42L35,93.61A2,2,0,0,0,34.66,96l3,4.47L37.47,99,36,104.82a2,2,0,0,0,3.86,1.06l1.72-5.32-0.92,1.2c1.23-.6,3-1.09,4-2.08s1.43-3,2-4.28l-1.2.92,3.77-.77-1.95-3.34-3.07,2.62a2,2,0,0,0-.31,2.42l2,3.93a2,2,0,0,0,3.14.4,21.89,21.89,0,0,0,3.57-3.46,33,33,0,0,0,2.06-4.63l-1.73,1,5,0.23-1.73-3-2.53,5.9c-0.6,1.4.43,3.63,2.26,2.94,1.6-.6,3.3-1.09,4.84-1.83s2.34-2.88,3.2-4.39l-1.2.92,5.9-1.61-2.26-2.94-3.84,6.7c-1.3,2.27,2,4.08,3.45,2l4.27-6-3.73-1,0.08,4.74c0,2.63,3.73,2.51,4,0l0.64-6.06-3,1.73c1.88,1,3.87,2.42,5.88,3.05C75,96.18,74,95.58,74,95.6A6.2,6.2,0,0,0,75,97l2,2.77a2,2,0,0,0,3.66-.48c0.49-1.73,1.63-3.85.42-5.45a51.18,51.18,0,0,0-3.71-3.94l-1.95,3.34,6.93,1.9-1.47-1.93-0.47,4c-0.21,1.8,2.28,2.53,3.41,1.41l3.82-3.77L84.23,94a24.38,24.38,0,0,0,2.8,6c0.7,1.15,2.84,1.45,3.45,0l1.91-4.51-2.26.92,4.34,0.87-1.4-1.4c0.67,2.63,1.44,5.13,2.35,7.68C96.29,106,100.16,104.94,99.29,102.51Z"/>
        </g>
        <g class="ax">
          <polyline class="aw" points="48.18 77.84 53.56 80.98 56.61 76.01 61.95 78.54 66.94 78.99 70.53 79.49 75.17 80.63 79.33 80.32 81.72 79.85 84.5 76.26 88.22 79.69 87.55 85.27 91.86 87.63 94.83 91.37 94.03 97.25 89.34 93.72 87.8 98.51 88.72 94.91 87.06 93.8 85.27 98.19 81.8 94.22 77.22 91.8 78.05 95.28 76.14 97.59 76.44 93.44 70.72 92.35 68.63 97.16 68.32 92.92 65.09 95.84 65.75 92.09 61.34 91.55 59.51 95.81 57.21 97.05 56.81 92.92 54.78 95.74 51.59 98.03 47.63 101.14 48.27 96.69 47.23 95.32 44.43 92.88 41.74 98.2 42.08 92.58 44.45 88.61 45.35 84.47 48.91 81.68 48.93 76.45"/>
          <path class="aw" d="M47.17,79.57l5.38,3.13A2,2,0,0,0,55.29,82l3-5-2.74.72c2.44,1.15,4.8,2.66,7.51,2.91l2.68,0.24L66.73,81a1,1,0,1,1,.17,0,39.33,39.33,0,0,1,3.91.63,28.29,28.29,0,0,0,4.35,1,23.11,23.11,0,0,0,4.16-.31c1.25-.16,2.87-0.25,3.85-1.11a25.16,25.16,0,0,0,2.74-3.54H83.09L86.8,81.1l-0.59-1.41-0.67,5.58a2,2,0,0,0,1,1.73l1.94,1.06c0.54,0.29,1.07.61,1.61,0.88,0.09,0,.94.6,0.54,0.27s0.29,0.43.33,0.49c0.29,0.42.65,0.81,1,1.21l1.49,1.87-0.51-1.95-0.8,5.89L95,95.53,90.35,92c-1.09-.82-2.58.09-2.94,1.2L85.87,98,89.72,99l0.92-3.6a2.06,2.06,0,0,0-.92-2.26l-1.66-1.11a2,2,0,0,0-2.94,1.2l-1.8,4.39,3.34-.88A30.77,30.77,0,0,0,83,92.65a31.36,31.36,0,0,0-4.78-2.58,2,2,0,0,0-2.94,2.26l0.83,3.48,0.51-1.95-1.91,2.32,3.41,1.41,0.3-4.16A2,2,0,0,0,77,91.51l-5.71-1.09a2,2,0,0,0-2.26.92l-2.09,4.82,3.73,1-0.31-4.24a2,2,0,0,0-3.41-1.41l-3.23,2.92L67,96.37l0.66-3.76a2,2,0,0,0-1.93-2.53l-4.4-.53a1.92,1.92,0,0,0-1.73,1,35.45,35.45,0,0,0-1.54,3.58c-0.06.2-.22,0.4-0.26,0.61,0.1-.5,1.08-0.65.15-0.36a11.51,11.51,0,0,0-1.76.95l3,1.73-0.4-4.12a2,2,0,0,0-3.73-1,17.62,17.62,0,0,0-2,2.75c0.11-.25.93-0.61,0.43-0.48a3.56,3.56,0,0,0-.78.56L50.95,96c-1.61,1.18-3.16,2.45-4.73,3.69l3.34,1.95c0.25-1.73,1.2-4.48.36-6.09s-2.68-2.9-4.08-4.11a2,2,0,0,0-3.14.4L40,97.19l3.73,1,0.2-3.3A11.73,11.73,0,0,0,44,93c-0.09-.89-0.6.84,0,0.08a14.3,14.3,0,0,0,2.8-6.29,8.29,8.29,0,0,0,.36-1.66c0,0.46-.76.81,0.23,0.16a15,15,0,0,0,2.82-2.21c1.3-1.47.63-4.85,0.64-6.67,0-2.57-4-2.58-4,0l0,5.23,0.59-1.41c-1.19.93-3.07,1.88-3.87,3.19a9.38,9.38,0,0,0-.7,2.78c-0.11.52-.2,1.06-0.34,1.57s0.29-.58-0.06.13c-0.79,1.6-2.19,3-2.45,4.78s-0.22,3.68-.33,5.49a2,2,0,0,0,3.73,1l2.69-5.32-3.14.4c0.74,0.64,1.45,1.33,2.22,1.93a5.74,5.74,0,0,1,.45.39c0.28,0.27-.38-0.47,0-0.06s0.58,0.77.87,1.15l-0.2-1.54-0.64,4.45A2,2,0,0,0,49,102.56l2.7-2.13c0.4-.32.8-0.64,1.21-1-0.73.55,0.66-.45,0.84-0.58a19.34,19.34,0,0,0,4.74-5l-3.73-1L55.21,97a2,2,0,0,0,3,1.73c1.14-.61,2.44-1.06,3.12-2.2a33.06,33.06,0,0,0,1.73-4l-1.73,1,4.4,0.53-1.93-2.53-0.66,3.76a2,2,0,0,0,3.34,1.95l3.23-2.92-3.41-1.41,0.31,4.24c0.13,1.76,2.86,3,3.73,1l2.09-4.82-2.26.92,5.71,1.09-1.47-1.93-0.3,4.16C74,99.25,76.46,100.33,77.55,99c0.78-.94,2.28-2.22,2.46-3.46s-0.56-3-.87-4.27l-2.94,2.26,2.29,1.21c0.52,0.28,1,.58,1.57.83,0.08,0,.92.56,0.51,0.23s0.3,0.39.34,0.46c0.37,0.48.8,0.91,1.19,1.37l1.73,2c1.1,1.26,2.82.38,3.34-.88L89,94.33l-2.94,1.2,1.66,1.11-0.92-2.26L85.87,98A2,2,0,0,0,89.72,99l1.54-4.78-2.94,1.2L93,99A2,2,0,0,0,96,97.78L96.61,93a4.27,4.27,0,0,0-1-3.87,16.1,16.1,0,0,0-2.87-3.31,42.7,42.7,0,0,0-4.18-2.29l1,1.73c0.21-1.78,1.08-4.37.6-6.12s-3-3.19-4.23-4.31a2,2,0,0,0-2.83,0c-0.61.79-2.4,2.34-2.54,3.28C80.44,78.8,81,78,80.95,78a3.68,3.68,0,0,0-1,.19c-0.36.07-.73,0.16-1.09,0.21a0.86,0.86,0,1,0-.13,0c-0.88.08-1.78,0.09-2.66,0.2a6.29,6.29,0,0,1-.77.06c-0.28,0,.7.11,0,0-1.43-.23-2.81-0.76-4.22-1a74.58,74.58,0,0,0-7.59-.89c-0.32,0-2.14-.28-1.07,0s-0.55-.35-0.89-0.51l-4-1.87a2.05,2.05,0,0,0-2.74.72l-3,5,2.74-.72-5.38-3.13c-2.23-1.3-4.24,2.16-2,3.45h0Z"/>
        </g>
      </g>
      <g class="ag">
        <polygon class="ay" points="55.67 63.07 54.97 62.82 54.64 62.13 54.17 61.59 53.49 61.25 53.05 60.67 52.73 60.08 52.48 59.38 52.36 58.61 52.72 58.06 52.42 57.47 52.98 56.94 53.36 56.34 53.8 55.77 53.93 55.02 54.54 54.55 54.7 53.8 55.35 53.53 55.83 53.02 56.4 52.66 57.11 52.51 57.52 51.9 58.28 51.82 58.79 51.4 59.47 51.17 60.2 51.46 60.92 51.07 61.66 51.45 62.38 51.22 63.05 50.9 63.76 50.96 64.48 51.1 65.18 51.13 65.84 50.7 66.58 50.99 67.25 50.56 67.95 50.66 68.64 50.74 69.32 50.85 70.02 50.83 70.7 50.95 71.39 51.09 72.08 51.26 72.72 51.18 73.38 51.27 74.03 50.94 74.68 51.05 75.4 51.01 75.96 51.52 76.37 52.09 76.83 52.62 77.28 53.17 77.9 53.42 78.45 53.73 78.98 54.1 79.46 54.5 79.61 55.12 79.89 55.71 80.17 56.3 80.49 56.86 80.83 57.43 80.97 58.08 80.87 58.75 81.12 59.38 81.03 60.06 81.09 60.66 80.59 61.05 79.94 61.3 79.51 61.89 79.03 62.41 78.22 62.43 77.76 62.99 77.04 62.98 76.33 63.01 75.61 63.01 74.9 62.76 74.19 63.13 73.48 62.91 72.77 62.87 72.06 62.89 71.34 63.17 70.63 62.92 69.92 63.18 69.2 62.94 68.5 63.21 67.79 62.93 67.08 63.1 66.37 63.14 65.66 63.05 64.94 62.85 64.23 62.86 63.52 63.19 62.8 62.99 62.09 62.9 61.38 63.09 60.66 63.09 59.95 63.14 59.23 62.91 58.52 63.32 57.8 63.32 57.08 63.26 56.37 62.91 55.67 63.07"/>
      </g>
      <path class="az" d="M57.72,60.37H76.06a0,0,0,0,1,0,0V73.42a9.17,9.17,0,0,1-9.17,9.17h0a9.17,9.17,0,0,1-9.17-9.17V60.37a0,0,0,0,1,0,0Z"/>
      <line class="ba" x1="66.94" y1="49.54" x2="66.94" y2="58.22"/>
      <path class="bb" d="M84.14,77.62s-1.25.42-2.9,1.14c-0.92.41-1.35-.35-2.41,0-1.32.43-2.26,1.17-3.66,1.17a13,13,0,0,1-4.39-1.09,12.44,12.44,0,0,0-3.83-1.09,18.92,18.92,0,0,0-4.92,1c-2.89.92-4-.68-5-0.49-1.26.24-2,1.16-3.48,1.16a5,5,0,0,1-4.07-2.34s1.09,6.49,5.25,8.53c3.35,1.64,9.52,1.71,12.33,1.71,3,0,8.68-.21,11.83-1.95C81.61,83.89,84.14,77.62,84.14,77.62Z"/>
      <path class="aw" d="M76.24,61.83l0-.27a4,4,0,0,0-.13-0.73,4,4,0,0,0-.46-1,4.92,4.92,0,0,0-1-1.12,6.54,6.54,0,0,0-1.5-.94,10,10,0,0,0-1.89-.64,16.65,16.65,0,0,0-2.13-.33c-0.73-.07-1.49-0.08-2.23-0.09s-1.52,0-2.24.09a16.65,16.65,0,0,0-2.13.33,10,10,0,0,0-1.89.64,6.55,6.55,0,0,0-1.5.94,4.91,4.91,0,0,0-1,1.12,3.88,3.88,0,0,0-.59,1.77l0,0.26a0.14,0.14,0,0,1-.27.06l0-.06a3.13,3.13,0,0,1-.13-0.29,3.29,3.29,0,0,1-.23-0.9A4,4,0,0,1,57,59.12a5,5,0,0,1,.9-1.84,7.26,7.26,0,0,1,1.72-1.64,10,10,0,0,1,2.25-1.14,13.07,13.07,0,0,1,2.48-.63c0.43,0,.91-0.14,1.3-0.15l1.14-.05,1.33,0.05c0.42,0,.85.1,1.26,0.15a13.11,13.11,0,0,1,2.47.62c0.4,0.15.8,0.31,1.17,0.5a10.84,10.84,0,0,1,1.08.64,7.23,7.23,0,0,1,1.72,1.64,5,5,0,0,1,.9,1.84,3.94,3.94,0,0,1,.12,1.51,2.74,2.74,0,0,1-.23.9l-0.13.28,0,0.07A0.14,0.14,0,0,1,76.24,61.83Z"/>
      <path class="bc" d="M70.78,78.84a12.44,12.44,0,0,0-3.83-1.09,18.92,18.92,0,0,0-4.92,1A25.77,25.77,0,0,0,70.78,78.84Z"/>
      <line class="bd" x1="66.94" y1="71.86" x2="66.94" y2="77.75"/>
      <g class="be">
        <path class="bf" d="M66.91,56.38c-7.24,0-9.48,2.87-9.48,5.44S59.58,72,66.67,72h0.48c7.24,0,9.23-7.59,9.23-10.16S74.15,56.38,66.91,56.38Z"/>
        <path class="bg" d="M53.53,61.71a64.43,64.43,0,0,1,27.87,0l-5.3-4.8C70.74,54.1,64.72,54,58,56.91,58,56.91,53.39,61.58,53.53,61.71Z"/>
        <path class="bh" d="M60.07,68.46h-2l-1.23-2.4a3.45,3.45,0,0,0,2.75-.62c0.67-.64,1.17-2.08,2.82-2.08s2.23,1.57,2.23,3C64.68,68.09,62.77,68.46,60.07,68.46Z"/>
        <line class="bi" x1="66.91" y1="73.49" x2="66.91" y2="66.44"/>
        <path class="ax" d="M54.91,62.48s2.14,7.66,11.7,7.66c9.93,0,11.7-7.58,11.7-7.58l1.06,10.52H53.32Z"/>
        <path class="bj" d="M60.65,60.55a14.64,14.64,0,0,1,1.9-.46A25.52,25.52,0,0,1,71.06,60a14.67,14.67,0,0,1,1.91.43s-0.78.1-1.94,0.15-2.69.09-4.22,0.11-3.06,0-4.22,0S60.65,60.55,60.65,60.55Z"/>
        <path class="bh" d="M73.75,68.46h2l1.23-2.4a3.45,3.45,0,0,1-2.75-.62c-0.67-.64-1.17-2.08-2.82-2.08s-2.23,1.57-2.23,3C69.14,68.09,71,68.46,73.75,68.46Z"/>
        <path class="bk" d="M64.12,60.25A4.53,4.53,0,0,1,65,60a8.71,8.71,0,0,1,3.83,0,4.49,4.49,0,0,1,.87.28,4.49,4.49,0,0,1-.87.29,8.71,8.71,0,0,1-3.83,0A4.52,4.52,0,0,1,64.12,60.25Z"/>
        <ellipse class="bl" cx="66.91" cy="56.81" rx="4.91" ry="6.52"/>
      </g>
      <path class="bd" d="M49.49,77.09a5,5,0,0,0,4.07,2.34c1.52,0,2.22-.91,3.48-1.16,1-.19,2.09,1.41,5,0.49a18.92,18.92,0,0,1,4.92-1,12.44,12.44,0,0,1,3.83,1.09,13,13,0,0,0,4.39,1.09c1.4,0,2.34-.74,3.66-1.17,1.06-.34,1.5.41,2.41,0,1.65-.73,2.9-1.14,2.9-1.14"/>
      <path class="bm" d="M70.78,78.84a12.44,12.44,0,0,0-3.83-1.09,18.92,18.92,0,0,0-4.92,1"/>
      <path class="bn" d="M16.08,98.92c-2.24,1-4.08,4.87-4.08,7.74,0,0,1.24-2.08,3-2.08"/>
      <path class="bo" d="M18.67,87.06c-2.24,1-3.84,5-3.84,6.92a5.3,5.3,0,0,1,3.65-2.12"/>
      <path class="bn" d="M116.4,106.52c2,1.34,3.15,5.52,2.64,8.34,0,0-.85-2.27-2.62-2.59"/>
      <path class="bp" d="M96.11,103c-0.5-4-3.27-8.46-5.42-8.46l-1.77,4.58c0-2.31-1.92-6-3.95-6l-0.71,4.83c-0.95-2.8-4-5.77-6.24-5.77v6.36a11,11,0,0,0-6.85-5.73l-2.49,5.11-0.36-4.9L65,96.06l0.64-4a20.58,20.58,0,0,0-9.24,5.63,7.42,7.42,0,0,1,1.46-5A23.06,23.06,0,0,0,47.6,99.81a14.93,14.93,0,0,1,1.14-6.25,16.07,16.07,0,0,0-10.28,10.11c-4.94.25-5.12,7.32-12.92,10.2a11.51,11.51,0,0,0,5.22-1.18A13,13,0,0,0,33,111.23c1-.79,1.83-1.63,2.58-2.33a21.68,21.68,0,0,0,.44,4.41s2.36-4.7,6.1-6.55A18.55,18.55,0,0,0,42.6,114,15.75,15.75,0,0,1,49,108.22a23.62,23.62,0,0,0,.33,6.89s2.22-4.41,5.75-6.37a23.42,23.42,0,0,0,.37,6.41s3.42-4.82,7.68-5.85a23.65,23.65,0,0,0,.32,7,17.36,17.36,0,0,1,5.41-6.17c5.69,1.22,8.78,7.13,8.78,7.13a23.73,23.73,0,0,0,.21-7.82,18.78,18.78,0,0,1,4.07,5.19,23.2,23.2,0,0,0,.39-6c4.68,0.8,6.09,5.92,6.09,5.92a23.71,23.71,0,0,0,.29-7.24c3.78,1.83,6.17,6.59,6.17,6.59a23.59,23.59,0,0,0,.34-6.77c2.78,0.73,4.32,2.23,6.23,3.55a13.54,13.54,0,0,0,8.49,2.45C103.79,112.39,101,103,96.11,103Z"/>
      <path class="at" d="M76.29,47a12.21,12.21,0,0,0,10.54,5.83A17.33,17.33,0,0,1,104.4,69.39c-4-4-5.92-3.75-5.92-3.75a20.78,20.78,0,0,1,5.3,11.67,17.43,17.43,0,0,0-6-4.17c2.34,3.56,3.61,8.57,3.63,14a9.32,9.32,0,0,0-5.5-5.52c3.8,5.21,3.47,14.92.23,21.38-0.5-4-3.27-8.46-5.42-8.46l-1.77,4.58c0-2.31-1.92-6-3.95-6l-0.71,4.83c-0.95-2.8-4-5.77-6.24-5.77v6.36a11,11,0,0,0-6.85-5.73l-2.49,5.11-0.36-4.9L65,96.06l0.64-4a20.58,20.58,0,0,0-9.24,5.63,7.42,7.42,0,0,1,1.46-5A23.06,23.06,0,0,0,47.6,99.81a14.93,14.93,0,0,1,1.14-6.25,16.07,16.07,0,0,0-10.28,10.11,22,22,0,0,1-2.7-10.32c0-6.51,2.6-10,2.6-10-1.62,0-5.29,2.69-6.44,6.36,0-4.54.64-9.61,4.26-13.23-2,0-4.19,2-5.35,4.53,0-7.71,3.29-11.89,6.91-14.12-2.5,0-5.52,2-6.91,4.38,0-7.47,5.92-18.44,17.27-18.44,5.48,0,9-3.14,11.24-7.28"/>
      <path class="bn" d="M115.49,94c2,1.39,2.5,5.29,2.11,7.2,0,0-.79-2.29-2.55-2.65"/>
      <path class="bq" d="M65.32,46.33V45.14c0-.71,0-1.66-0.14-2.59a12.6,12.6,0,0,0-.49-2.5,7.79,7.79,0,0,0-.3-0.78L64.26,39v0a0.28,0.28,0,0,1,.48-0.28L64.92,39a8.44,8.44,0,0,1,.45.79,13.5,13.5,0,0,1,.91,2.58c0.24,1,.41,1.93.53,2.65L67,46.21a0.84,0.84,0,1,1-1.67.13h0Z"/>
      <path class="br" d="M70.24,46.16l-0.05-.24c0-.07,0-0.17-0.06-0.3s0-.26-0.06-0.41a8,8,0,0,1,0-2.11,7,7,0,0,1,.58-2,5.49,5.49,0,0,1,.32-0.6l0.14-.22a0.28,0.28,0,0,1,.49.25v0l-0.08.21a4.82,4.82,0,0,0-.18.57,6,6,0,0,0-.15,1.79,6.64,6.64,0,0,0,.34,1.73c0,0.12.08,0.21,0.11,0.29l0.1,0.23,0.1,0.22a0.84,0.84,0,1,1-1.54.67A0.9,0.9,0,0,1,70.24,46.16Z"/>
      <path class="bs" d="M62.34,46.16l-0.05-.24c0-.07,0-0.17-0.06-0.3s0-.26-0.06-0.41a8,8,0,0,1,0-2.11,7,7,0,0,1,.58-2,5.49,5.49,0,0,1,.32-0.6l0.14-.22a0.28,0.28,0,0,1,.49.25v0l-0.08.21a4.82,4.82,0,0,0-.18.57,6,6,0,0,0-.15,1.79,6.64,6.64,0,0,0,.34,1.73c0,0.12.08,0.21,0.11,0.29l0.1,0.23,0.1,0.22a0.84,0.84,0,1,1-1.54.67A0.9,0.9,0,0,1,62.34,46.16Z"/>
      <path class="i" d="M105.67,107.1a10.7,10.7,0,0,0,4.27,6,16.46,16.46,0,0,1-4.82-.63"/>
      <path class="bt" d="M29.88,107.38a4.13,4.13,0,0,0,.42-0.66c0-.22-0.06-0.5-0.05-0.75s-0.13-.47-0.14-0.72-0.49-.42-0.51-0.66,0.77-.56.74-0.8S30,103.37,30,103.13s-0.45-.38-0.5-0.62,0-.48,0-0.71-0.23-.42-0.28-0.66,0.38-.58.32-0.81-0.53-.35-0.59-0.58,0.23-.55.16-0.78-0.85-.25-0.91-0.47,0.72-.69.65-0.92-0.48-.35-0.55-0.58-0.39-.37-0.45-0.6-0.23-.42-0.3-0.65,0-.48-0.09-0.71-0.34-.4-0.41-0.63"/>
      <path class="bt" d="M105.78,107.05a4.82,4.82,0,0,1-.69-0.56c0-.22.44-0.53,0.44-0.77a6.47,6.47,0,0,1-.34-0.73c0-.23-0.05-0.5,0-0.74s0.16-.46.22-0.69,0.22-.43.29-0.66,0.77-.24.84-0.47,0.09-.45.17-0.67-0.52-.69-0.43-0.91,0.38-.36.47-0.58-0.11-.55,0-0.77,0.92-.14,1-0.36-0.18-.58-0.09-0.8,0.06-.49.15-0.71,0.73-.23.81-0.45-0.67-.77-0.59-1,0.87-.19,1-0.41,0.2-.45.28-0.67-0.15-.55-0.08-0.77-0.29-.57-0.24-0.79"/>
      <path class="o" d="M104.6,105.13s1.22-2.31,2.46.4c0,0,.63-3.39-2-5.23"/>
      <path class="i" d="M30.77,112.68a11.51,11.51,0,0,1-5.22,1.18,11,11,0,0,0,4.23-6.21,0.49,0.49,0,0,0,0-.31c-4.35,1.7-8,6-8,6,0-11.29,4.42-17.5,5.45-18.8h0c-3-10.29-3.66-16.38-3.66-21a16,16,0,0,0,1.83,3.14A9.33,9.33,0,0,0,27.68,79c-1.63-7.13-3-14-2.2-19l0.94,0.62L28.52,62c-3.46-8-3.1-20.75,2.93-26.44l0.46,1.14c0.27,0.65.61,1.46,0.9,2.1,1.74-6.6,8.1-14.55,15.89-18.91L48,27c5.24-4.53,8.84-11.63,7.6-20.9,7.26,1.3,9.87,6.93,11,9.44,0.52-3.31,3.95-8.49,8.27-10.17-0.09,1.1-.13,2.21-0.13,3.29a55.79,55.79,0,0,0,1.25,11.22c0.58-3.71,4.51-10.71,10.15-13.28,0,0-1.91,10.75-.08,14.64,0,0,7.35-2.42,12.1,1.92,4.22,3.85,2.11,13.76,2.11,13.76a14.94,14.94,0,0,0,4.18-7.42c2.83,5.44,4,13.4,1.57,21.73h0a17.64,17.64,0,0,0,5.75-5.85,40.19,40.19,0,0,1-4.5,19.33,8.21,8.21,0,0,0,3.78-2.2c0,5.37-2.12,12.14-4.09,17.14a14.09,14.09,0,0,0,4-4c0,4.85-3.14,12.73-6.17,16.72a8.59,8.59,0,0,0,5.23-2.61,16.54,16.54,0,0,1-.46,4.15h0c0.92,1.52,4.59,8.24,4.59,19.4,0,0-3.89-4.61-8.39-6.26"/>
      <path class="o" d="M104.49,100a3.21,3.21,0,0,1,3.48,1.71s0.63-3.39-2-5.23"/>
      <path class="o" d="M107.47,97.57s1.25-.86,2.49.75c0,0-.07-2.87-1.25-4.23A4.21,4.21,0,0,0,107.47,97.57Z"/>
      <path class="o" d="M28.47,95.57c-1,.66-1.78,3.29-1.69,4.27,0,0,2-2.25,3.53-1.86"/>
      <path class="o" d="M29.51,99.39a6.82,6.82,0,0,0-2.38,4.82s2.35-2.67,4.27-2.14"/>
      <path class="o" d="M31,102.57a5.86,5.86,0,0,0-2.75,4.13,4.29,4.29,0,0,1,3.9-.91"/>
    </g>
    <line class="at" x1="26.24" y1="122" x2="110.06" y2="122"/>
    <line class="at" x1="7.83" y1="122" x2="13.26" y2="122"/>
    <line class="at" x1="1.5" y1="122" x2="4.67" y2="122"/>
    <line class="at" x1="127.17" y1="122" x2="120.76" y2="122"/>
    <line class="at" x1="133.5" y1="122" x2="130.33" y2="122"/>
    <line class="at" x1="18.5" y1="122" x2="21.67" y2="122"/>
  </g>
</svg>
