<svg width="24" height="24" viewBox="0 0 24 24" fill="none" xmlns="http://www.w3.org/2000/svg">
<g clip-path="url(#clip0)">
<path d="M18.5546 5.58282L18.5381 5.57314L18.5 5.56152C18.5153 5.57445 18.5345 5.58196 18.5546 5.58282Z" fill="#0D0C22"/>
<path d="M18.7948 7.29739L18.7764 7.30255L18.7948 7.29739Z" fill="#0D0C22"/>
<path d="M18.5617 5.58018C18.5593 5.57988 18.557 5.57934 18.5548 5.57855C18.5547 5.58007 18.5547 5.58161 18.5548 5.58313C18.5573 5.58279 18.5597 5.58178 18.5617 5.58018Z" fill="#0D0C22"/>
<path d="M18.5552 5.58302H18.5576V5.58148L18.5552 5.58302Z" fill="#0D0C22"/>
<path d="M18.7803 7.29427L18.808 7.27847L18.8184 7.27266L18.8277 7.26266C18.8101 7.27024 18.7941 7.28096 18.7803 7.29427Z" fill="#0D0C22"/>
<path d="M18.6027 5.62028L18.5755 5.59444L18.5571 5.58444C18.567 5.60189 18.5834 5.61477 18.6027 5.62028Z" fill="#0D0C22"/>
<path d="M11.7789 22.2583C11.7572 22.2677 11.7382 22.2823 11.7236 22.3009L11.7407 22.29C11.7524 22.2793 11.7688 22.2667 11.7789 22.2583Z" fill="#0D0C22"/>
<path d="M15.7414 21.4786C15.7414 21.4542 15.7295 21.4587 15.7324 21.5457C15.7324 21.5388 15.7353 21.5317 15.7366 21.5249C15.7382 21.5094 15.7395 21.4942 15.7414 21.4786Z" fill="#0D0C22"/>
<path d="M15.3306 22.2583C15.3089 22.2677 15.29 22.2823 15.2754 22.3009L15.2925 22.29C15.3041 22.2793 15.3206 22.2667 15.3306 22.2583Z" fill="#0D0C22"/>
<path d="M8.98829 22.4437C8.97183 22.4294 8.9517 22.42 8.93018 22.4164C8.94761 22.4249 8.96504 22.4333 8.97666 22.4397L8.98829 22.4437Z" fill="#0D0C22"/>
<path d="M8.36033 21.8423C8.35776 21.8169 8.34996 21.7923 8.3374 21.77C8.3463 21.7931 8.35373 21.8169 8.35968 21.8409L8.36033 21.8423Z" fill="#0D0C22"/>
<path d="M12.5783 11.0868C11.7163 11.4559 10.738 11.8743 9.47003 11.8743C8.93963 11.8733 8.41178 11.8005 7.90088 11.658L8.7778 20.6614C8.80884 21.0376 8.98027 21.3885 9.25805 21.6443C9.53582 21.9 9.89963 22.0419 10.2772 22.0419C10.2772 22.0419 11.5206 22.1064 11.9355 22.1064C12.382 22.1064 13.721 22.0419 13.721 22.0419C14.0985 22.0419 14.4622 21.8998 14.7399 21.6441C15.0177 21.3883 15.189 21.0376 15.2201 20.6614L16.1593 10.7123C15.7396 10.5689 15.316 10.4737 14.8384 10.4737C14.0125 10.4734 13.3471 10.7578 12.5783 11.0868Z" fill="#fff"/>
<path d="M5.18652 7.24561L5.20137 7.25951L5.21106 7.26534C5.2036 7.25792 5.19538 7.2513 5.18652 7.24561Z" fill="#0D0C22"/>
<path d="M20.2147 6.41468L20.0827 5.74859C19.9642 5.15096 19.6952 4.58625 19.0818 4.37025C18.8851 4.30114 18.662 4.27146 18.5113 4.12841C18.3605 3.98539 18.3159 3.76325 18.2811 3.55725C18.2165 3.17917 18.1558 2.80076 18.0896 2.42332C18.0324 2.09883 17.9872 1.73431 17.8384 1.43662C17.6447 1.03691 17.2427 0.803144 16.843 0.648488C16.6382 0.572029 16.4291 0.50735 16.2169 0.454765C15.2183 0.1913 14.1683 0.0944382 13.1409 0.039227C11.9078 -0.0288182 10.6713 -0.00831713 9.4411 0.100573C8.52544 0.183874 7.56101 0.284611 6.69088 0.601349C6.37285 0.71726 6.04513 0.856417 5.80331 1.10213C5.50658 1.40401 5.40972 1.87089 5.62636 2.24735C5.78038 2.51469 6.04126 2.70357 6.31797 2.82853C6.67838 2.98953 7.05478 3.11204 7.44092 3.19403C8.51608 3.43166 9.62967 3.52496 10.7281 3.56469C11.9455 3.61381 13.1649 3.57399 14.3765 3.44553C14.6762 3.4126 14.9753 3.3731 15.2738 3.32705C15.6254 3.27312 15.8511 2.81335 15.7475 2.49305C15.6235 2.11014 15.2903 1.96162 14.9135 2.01942C14.858 2.02812 14.8027 2.03619 14.7472 2.04426L14.7072 2.05008C14.5795 2.06623 14.4519 2.08128 14.3242 2.09528C14.0606 2.12369 13.7962 2.14694 13.5313 2.16503C12.9378 2.20635 12.3428 2.2254 11.748 2.22637C11.1636 2.22637 10.5789 2.2099 9.9958 2.17148C9.72976 2.15405 9.46435 2.13187 9.1996 2.10496C9.07917 2.09237 8.95906 2.07914 8.83896 2.06428L8.72465 2.04976L8.6998 2.04621L8.5813 2.0291C8.33915 1.9926 8.09699 1.95064 7.85742 1.89994C7.83325 1.89457 7.81162 1.88114 7.79612 1.86182C7.78062 1.8425 7.77217 1.81848 7.77217 1.79372C7.77217 1.76896 7.78062 1.74493 7.79612 1.72562C7.81162 1.70631 7.83325 1.69286 7.85742 1.68749H7.86194C8.06955 1.64326 8.27876 1.60548 8.48863 1.57255C8.5586 1.56157 8.62876 1.55081 8.69915 1.54026H8.70108C8.83249 1.53155 8.96455 1.50798 9.09531 1.49248C10.233 1.37414 11.3775 1.33379 12.5207 1.37172C13.0757 1.38787 13.6304 1.42048 14.1828 1.47666C14.3016 1.48893 14.4198 1.50184 14.538 1.51637C14.5832 1.52186 14.6287 1.52832 14.6742 1.53381L14.7659 1.54704C15.0333 1.58687 15.2992 1.63519 15.5637 1.69202C15.9557 1.77725 16.4591 1.80502 16.6334 2.23444C16.689 2.37069 16.7142 2.52212 16.7448 2.66514L16.7839 2.84757C16.7849 2.85084 16.7857 2.8542 16.7862 2.85758C16.8785 3.28808 16.9709 3.71857 17.0635 4.14907C17.0703 4.18088 17.0704 4.21374 17.064 4.2456C17.0575 4.27748 17.0445 4.30765 17.0259 4.3343C17.0072 4.36093 16.9832 4.38342 16.9555 4.40039C16.9278 4.41735 16.8968 4.4284 16.8646 4.43289H16.862L16.8055 4.44064L16.7497 4.44805C16.5727 4.47109 16.3956 4.49262 16.2182 4.51264C15.8689 4.55246 15.519 4.58689 15.1686 4.61596C14.4722 4.67385 13.7745 4.71184 13.0754 4.72993C12.7191 4.73939 12.363 4.74382 12.007 4.74316C10.5899 4.74206 9.17402 4.65968 7.76637 4.49648C7.61397 4.47841 7.46158 4.45903 7.30917 4.43934C7.42735 4.45452 7.22329 4.42771 7.18197 4.42191C7.0851 4.40834 6.98824 4.39425 6.89138 4.37962C6.56624 4.33085 6.24306 4.2708 5.91856 4.21816C5.52627 4.1536 5.1511 4.18589 4.79626 4.37962C4.50499 4.539 4.26925 4.78341 4.12049 5.08025C3.96744 5.39666 3.92192 5.74116 3.85347 6.08116C3.78502 6.42114 3.67847 6.78695 3.71883 7.13598C3.80568 7.88925 4.33229 8.50141 5.08975 8.63831C5.80233 8.76745 6.51879 8.87206 7.23717 8.96118C10.0592 9.3068 12.9102 9.34814 15.741 9.08452C15.9715 9.06299 16.2017 9.03954 16.4316 9.01413C16.5034 9.00625 16.5761 9.01451 16.6443 9.03834C16.7125 9.06217 16.7745 9.10095 16.8257 9.15184C16.877 9.20273 16.9162 9.26445 16.9405 9.33245C16.9649 9.40048 16.9737 9.47308 16.9663 9.54493L16.8946 10.2417C16.7502 11.6496 16.6058 13.0575 16.4613 14.4652C16.3107 15.9435 16.159 17.4218 16.0064 18.8998C15.9634 19.3162 15.9203 19.7324 15.8773 20.1484C15.8359 20.5582 15.8301 20.9808 15.7523 21.3857C15.6296 22.0224 15.1986 22.4134 14.5696 22.5564C13.9934 22.6876 13.4048 22.7565 12.8138 22.7617C12.1587 22.7653 11.504 22.7362 10.8488 22.7398C10.1495 22.7437 9.29292 22.6792 8.75308 22.1586C8.27876 21.7015 8.21322 20.9856 8.14865 20.3666C8.06256 19.5471 7.97721 18.7279 7.8926 17.9086L7.41799 13.3532L7.11094 10.4057C7.10576 10.357 7.1006 10.3089 7.09576 10.2598C7.05895 9.90817 6.81001 9.56399 6.41772 9.58174C6.08195 9.59659 5.70031 9.88202 5.7397 10.2598L5.96731 12.445L6.43806 16.9652C6.57217 18.2492 6.70595 19.5333 6.8394 20.8177C6.86524 21.0637 6.88944 21.3105 6.91656 21.5565C7.06412 22.901 8.09085 23.6255 9.36233 23.8294C10.1049 23.949 10.8656 23.9735 11.6192 23.9857C12.5853 24.0013 13.561 24.0385 14.5112 23.8634C15.9192 23.605 16.9757 22.6649 17.1264 21.2065C17.1695 20.7854 17.2126 20.3643 17.2556 19.9431C17.3987 18.55 17.5417 17.1568 17.6844 15.7635L18.1513 11.211L18.3653 9.12456C18.376 9.02109 18.4197 8.92382 18.4899 8.84713C18.5602 8.77043 18.6532 8.71838 18.7554 8.69868C19.158 8.62022 19.5428 8.48622 19.8292 8.17982C20.2851 7.69197 20.3759 7.05591 20.2147 6.41468ZM5.06909 6.86477C5.07522 6.86186 5.06392 6.91448 5.05908 6.93902C5.05811 6.90189 5.06005 6.86895 5.06909 6.86477ZM5.10816 7.16697C5.11138 7.1647 5.12107 7.17763 5.13108 7.19313C5.1159 7.17891 5.10622 7.16827 5.10783 7.16697H5.10816ZM5.14658 7.21766C5.16046 7.24123 5.16789 7.25609 5.14658 7.21766V7.21766ZM5.22374 7.28029H5.22568C5.22568 7.28257 5.22923 7.28482 5.23052 7.28709C5.22838 7.28459 5.226 7.28232 5.22342 7.28029H5.22374ZM18.7366 7.18666C18.592 7.3242 18.374 7.38814 18.1587 7.42011C15.7436 7.7785 13.2933 7.95995 10.8517 7.87988C9.10435 7.82015 7.37537 7.62609 5.64542 7.38168C5.47591 7.35779 5.29219 7.32679 5.17563 7.20184C4.95608 6.96614 5.06392 6.49152 5.12107 6.20675C5.17338 5.94586 5.27347 5.59814 5.58375 5.561C6.06806 5.50418 6.63049 5.70855 7.10965 5.7812C7.68651 5.86923 8.26553 5.93973 8.84669 5.99268C11.327 6.2187 13.849 6.1835 16.3183 5.85289C16.7684 5.79239 17.2169 5.72211 17.6637 5.64205C18.0618 5.57068 18.5032 5.4367 18.7437 5.849C18.9087 6.12991 18.9307 6.50573 18.9052 6.82311C18.8973 6.96139 18.8369 7.09145 18.7363 7.18666H18.7366Z" fill="#0D0C22"/>
</g>
<defs>
<clipPath id="clip0">
<rect width="24" height="24" fill="white"/>
</clipPath>
</defs>
</svg>
