<svg width="24" height="24" viewBox="0 0 24 24" fill="none" xmlns="http://www.w3.org/2000/svg">
<path stroke="#092E24" stroke-width="1.5" d="M19.935 4.518a3.74 3.74 0 0 1-3.74 3.741h-3.839V.777h3.838a3.74 3.74 0 0 1 3.741 3.741Z"/><path stroke="#092E24" stroke-width="1.5" d="M4.777 4.518A3.74 3.74 0 0 0 8.518 8.26h3.838V.777H8.518a3.74 3.74 0 0 0-3.74 3.741Z"/><path stroke="#092E24" stroke-width="1.5" d="M4.777 12a3.74 3.74 0 0 0 3.741 3.741h3.838V8.259H8.518A3.74 3.74 0 0 0 4.778 12Z"/><path stroke="#092E24" stroke-width="1.5" d="M4.777 19.482c0 2.066 1.7 3.74 3.765 3.74 2.093 0 3.814-1.696 3.814-3.789v-3.692H8.518a3.74 3.74 0 0 0-3.74 3.74ZM12.356 12a3.741 3.741 0 0 0 3.741 3.741h.097a3.74 3.74 0 0 0 0-7.482h-.097A3.74 3.74 0 0 0 12.357 12Z"/>
</svg>
