<svg width="24" height="24" viewBox="0 0 24 24" fill="none" xmlns="http://www.w3.org/2000/svg">
<path fill="#092E24" d="M21.5 8.395c0-4.556-2.897-5.892-2.897-5.892-2.842-1.345-10.391-1.331-13.206 0 0 0-2.897 1.336-2.897 5.892 0 5.424-.3 12.16 4.802 13.552 1.842.501 3.425.61 4.698.534 2.31-.131 3.606-.848 3.606-.848l-.077-1.73s-1.65.535-3.506.474c-1.838-.066-3.775-.207-4.075-2.532a4.952 4.952 0 0 1-.04-.651c3.892.98 7.212.426 8.126.314 2.551-.314 4.775-1.936 5.057-3.417.445-2.335.409-5.696.409-5.696Zm-3.415 5.869h-2.12V8.911c0-2.33-2.91-2.419-2.91.323v2.93H10.95v-2.93c0-2.742-2.911-2.653-2.911-.323v5.353H5.915c0-5.723-.236-6.933.837-8.203 1.178-1.355 3.63-1.444 4.72.286L12 7.26l.528-.914c1.095-1.74 3.551-1.631 4.72-.286 1.078 1.28.837 2.484.837 8.203Z"/>
</svg>
