<svg viewBox="0 0 16 16">
  <g class="css">
    <path d="M4 2h8v4l2 2-2 2v4H4v-4L2 8l2-2V2Z" class="fill-(--icon-fill)"/>
    <path d="M6 2h-.5A1.5 1.5 0 0 0 4 3.5v2.293a.5.5 0 0 1-.146.353l-1.5 1.5a.5.5 0 0 0 0 .708l1.5 1.5a.5.5 0 0 1 .146.353V12.5A1.5 1.5 0 0 0 5.5 14H6" class="fill-none stroke-current stroke-2 sl-r"/>
    <path d="M10 2h.5A1.5 1.5 0 0 1 12 3.5v2.293a.5.5 0 0 0 .146.353l1.5 1.5a.5.5 0 0 1 0 .708l-1.5 1.5a.5.5 0 0 0-.146.353V12.5a1.5 1.5 0 0 1-1.5 1.5H10" class="fill-none stroke-current stroke-2 sl-r"/>
  </g>
</svg>
