<svg width="16" height="16" viewBox="0 0 16 16" fill="none" xmlns="http://www.w3.org/2000/svg">
<path d="M4 2H12V6L14 8L12 10V14H4V10L2 8L4 6V2Z" fill="white"/>
<path d="M6 2H5.5C4.67157 2 4 2.67157 4 3.5V5.79289C4 5.9255 3.94732 6.05268 3.85355 6.14645L2.35355 7.64645C2.15829 7.84171 2.15829 8.15829 2.35355 8.35355L3.85355 9.85355C3.94732 9.94732 4 10.0745 4 10.2071V12.5C4 13.3284 4.67157 14 5.5 14H6" stroke="#092E24" stroke-width="2"/>
<path d="M10 2H10.5C11.3284 2 12 2.67157 12 3.5V5.79289C12 5.9255 12.0527 6.05268 12.1464 6.14645L13.6464 7.64645C13.8417 7.84171 13.8417 8.15829 13.6464 8.35355L12.1464 9.85355C12.0527 9.94732 12 10.0745 12 10.2071V12.5C12 13.3284 11.3284 14 10.5 14H10" stroke="#092E24" stroke-width="2"/>
</svg>
