<svg viewBox="0 0 16 16">
  <g class="design">
    <g class="fill-(--icon-fill) stroke-current stroke-2 sl-s">
      <path d="M3 12c0-2.76 2.24-5 5-5s5 2.24 5 5"/>
      <path d="M3 12c0-2.76 2.24-5 5-5s5 2.24 5 5"/>
    </g>
    <path d="M2 7h12" class="fill-none stroke-current stroke-2 sl-r"/>
    <path d="M9 6H7v2h2V6Z" class="fill-current stroke-current stroke-2 sl-r"/>
    <path d="M2 8a1 1 0 1 0 0-2 1 1 0 0 0 0 2Z" class="fill-current stroke-current stroke-2 sl-r"/>
    <path d="M14 8a1 1 0 1 0 0-2 1 1 0 0 0 0 2Z" class="fill-current stroke-current stroke-2 sl-r"/>
  </g>
</svg>
