<svg viewBox="0 0 16 16">
  <g class="person">
    <path d="M9.84 9.7v-.03c.9-.72 1.49-1.94 1.49-3.33v-2c0-1.21 0-2-.67-2.67C10 1 9.33 1 8.67 1c-.6 0-.66.54-1.64.65-1.37.15-2.36 1.37-2.36 2.74v1.94c0 1.39.59 2.62 1.49 3.33v.03c-.09 1.21-.93 1.21-2.09 1.57-.62.19-1.14.4-1.56.59-.71.33-1.17 1.04-1.17 1.82V14c0 .55.45 1 1 1h11.33c.55 0 1-.45 1-1v-.32c0-.78-.45-1.49-1.17-1.82-.42-.19-.95-.4-1.56-.59-1.16-.36-2.01-.36-2.1-1.57Z" class="fill-(--icon-fill) stroke-current stroke-2 sl-r"/>
  </g>
</svg>
