<svg viewBox="0 0 16 16">
  <g class="star">
    <path d="M7.407 2.154a.667.667 0 0 1 1.186 0l1.36 2.647c.097.188.277.32.486.353l2.937.476a.667.667 0 0 1 .367 1.128l-2.097 2.11a.666.666 0 0 0-.186.572l.456 2.94a.667.667 0 0 1-.96.698l-2.655-1.342a.667.667 0 0 0-.602 0l-2.655 1.342a.667.667 0 0 1-.96-.697l.456-2.94a.667.667 0 0 0-.186-.572L2.257 6.758a.667.667 0 0 1 .367-1.128l2.937-.476a.667.667 0 0 0 .486-.353l1.36-2.647Z" class="fill-(--icon-fill) stroke-current stroke-2 sl-r"/>
  </g>
</svg>
