<svg xmlns="http://www.w3.org/2000/svg" width="384" height="240" fill="none" viewBox="0 0 384 240">
  <rect width="260" height="184" x="62" y="28" fill="color(display-p3 .9882 .9765 .9725)" rx="8"/>
  <rect width="260" height="184" x="62" y="28" stroke="color(display-p3 .6353 .5608 .549)" stroke-width="2" rx="8"/>
  <g clip-path="url(#a)">
    <rect width="121" height="83" x="68" y="34" fill="color(display-p3 .9569 .5882 .4196)" rx="3"/>
    <path fill="color(display-p3 .9333 .4471 .2667)" d="m113.5 65 11 30 5-14 14-6.4-30-9.6Z"/>
    <path stroke="color(display-p3 .9333 .4471 .2667)" stroke-linecap="square" stroke-linejoin="round" stroke-miterlimit="10" stroke-width="2" d="m139.75 75.5-24.375-7.8"/>
    <path fill="color(display-p3 .9333 .4471 .2667)" stroke="color(display-p3 .9333 .4471 .2667)" d="m123.168 91.376.003-.008 4-11.2.003-.01c.329-.985 1.33-1.658 2.326-1.658h1c.524 0 1 .476 1 1s-.476 1-1 1h-1.352l-.119.332-3.998 11.196c-.212.559-.734.8-1.255.604l-.027-.01-.028-.007c-.464-.116-.766-.672-.553-1.24Z" opacity=".2"/>
    <path stroke="color(display-p3 .9333 .4471 .2667)" stroke-linecap="round" stroke-linejoin="round" stroke-miterlimit="10" stroke-width="2" d="m113.5 65 11 30 5-14 14-6.4-30-9.6Z"/>
    <path fill="color(display-p3 .9333 .4471 .2667)" d="m113.5 60.5 11 30 5-14 14-6.4-30-9.6Z"/>
    <path stroke="color(display-p3 .9647 .6745 .5294)" stroke-linecap="square" stroke-linejoin="round" stroke-miterlimit="10" stroke-width="2" d="m139.75 71-24.375-7.8"/>
    <path fill="color(display-p3 .6118 .0863 .0353)" stroke="color(display-p3 .6118 .0863 .0353)" d="m123.168 86.876.003-.008 4-11.2.003-.01c.329-.985 1.33-1.658 2.326-1.658h1c.524 0 1 .476 1 1s-.476 1-1 1h-1.352l-.119.332-3.998 11.196c-.212.559-.734.8-1.255.604l-.027-.01-.028-.007c-.464-.116-.766-.672-.553-1.24Z" opacity=".2"/>
    <path stroke="color(display-p3 .6118 .0863 .0353)" stroke-linecap="round" stroke-linejoin="round" stroke-miterlimit="10" stroke-width="2" d="m113.5 60.5 11 30 5-14 14-6.4-30-9.6Z"/>
    <path fill="color(display-p3 .9333 .4471 .2667)" d="M68 33.5h236.5v13.572H89a8 8 0 0 0-8 8V308H68V33.5Z"/>
  </g>
  <rect width="121" height="83" x="68" y="34" stroke="color(display-p3 .6118 .0863 .0353)" stroke-width="2" rx="3"/>
  <g clip-path="url(#b)">
    <rect width="121" height="83" x="68" y="123" fill="color(display-p3 .9569 .8275 .251)" rx="3"/>
    <path fill="color(display-p3 .9098 .6667 0)" stroke="color(display-p3 .9098 .6667 0)" stroke-linecap="round" stroke-linejoin="round" stroke-miterlimit="10" stroke-width="2" d="m130.5 173.504-7-7c3.9-3.9 16-15.8 19.4-12.4 3.4 3.4-8.5 15.5-12.4 19.4Zm-10-2c-2 0-4.1 1.1-5 2-2 2-2 8-2 10 2 0 8 0 10-2 .9-.9 2-3 2-5l-5-5Zm3.031-4.967-3.998 3.997 7 7.001 3.998-3.998-7-7Z"/>
    <path fill="color(display-p3 .9373 .7451 .0314)" d="m130.5 169.5-7-7c3.9-3.9 16-15.8 19.4-12.4 3.4 3.4-8.5 15.5-12.4 19.4Z"/>
    <path fill="color(display-p3 .6941 .3529 0)" d="M142.9 150.1c.7.7.7 1.9.4 2.8-.3 1-.7 1.9-1.2 2.7-1 1.7-2.2 3.4-3.5 4.9-2.5 3.1-5.3 6-8.1 8.9-.6.6-1.5.6-2.1 0-.6-.6-.6-1.5 0-2.1 2.8-2.8 5.5-5.7 7.9-8.6 1.2-1.5 2.3-3 3.2-4.5.4-.7.8-1.5.9-2 .1-.3.1-.5.1-.4 0 0 .1.3.3.5-.6-.6-.6-1.5 0-2.1.5-.7 1.5-.7 2.1-.1Z" opacity=".2"/>
    <path fill="color(display-p3 .9765 .9529 .9451)" d="m123.582 162.481-4.03 4.031 7 7 4.031-4.03-7.001-7.001Z"/>
    <path fill="color(display-p3 .9098 .8627 .851)" d="m128.37 167.325-4.03 4.03 2.121 2.122 4.03-4.031-2.121-2.121Z"/>
    <path fill="color(display-p3 .9569 .8275 .251)" d="M123.5 162.5c2.5-2.5 5.1-5 7.9-7.3 1.4-1.1 2.8-2.3 4.3-3.3s3.1-1.9 4.8-2.3c.8-.2 1.6.3 1.8 1.1.2.8-.3 1.5-1 1.8l-.2.1c-.4.1-1 .3-1.7.7-.3.2-.7.3-1 .6-.3.2-.7.4-1 .6-1.4.9-2.7 2-4 3.1-2.6 2.2-5.2 4.6-7.7 7.1-.6.6-1.5.6-2.1 0-.6-.6-.7-1.6-.1-2.2Z"/>
    <path fill="#fff" d="m123.532 162.517-4.03 4.03 2.121 2.122 4.031-4.031-2.122-2.121Z"/>
    <path fill="color(display-p3 .9647 .6745 .5294)" d="M120.5 167.5c-2 0-4.1 1.1-5 2-2 2-2 8-2 10 2 0 8 0 10-2 .9-.9 2-3 2-5l-5-5Z"/>
    <path fill="color(display-p3 .6118 .0863 .0353)" d="M114.5 176.5c1.1 0 2.2-.1 3.2-.2s2-.3 2.8-.5c.4-.1.7-.3.8-.4l.1-.1c.1-.1.2-.2.2-.3.4-.6.7-1.4.8-2 .1-.8.9-1.4 1.7-1.3.8.1 1.4.9 1.3 1.7-.2 1.1-.6 2.2-1.3 3.2-.6 1-1.7 1.6-2.8 2-1.1.4-2.3.5-3.4.7-1.1.1-2.2.2-3.4.2-.8 0-1.5-.7-1.5-1.5s.6-1.5 1.5-1.5Z" opacity=".4"/>
    <path fill="color(display-p3 .9765 .851 .7725)" d="M120 170.5c-.6.1-1.4.4-2 .8-.1.1-.3.2-.3.2l-.1.1c-.1.1-.2.5-.4.8-.3.8-.4 1.8-.5 2.8-.1 1-.2 2.1-.2 3.2 0 .8-.7 1.5-1.5 1.5s-1.5-.7-1.5-1.5c0-1.2.1-2.3.2-3.5.1-1.1.3-2.3.7-3.4.3-1.1.9-2.2 2-2.8 1-.6 2.1-1.1 3.2-1.3.8-.1 1.6.4 1.7 1.2.1 1-.5 1.8-1.3 1.9Z"/>
    <path stroke="color(display-p3 .3098 .251 .2471)" stroke-linecap="round" stroke-linejoin="round" stroke-miterlimit="10" stroke-width="2" d="m123.531 162.533-3.998 3.998 7 7 3.998-3.998-7-7Z"/>
    <path stroke="color(display-p3 .6118 .0863 .0353)" stroke-linecap="round" stroke-linejoin="round" stroke-miterlimit="10" stroke-width="2" d="M120.5 167.5c-2 0-4.1 1.1-5 2-2 2-2 8-2 10 2 0 8 0 10-2 .9-.9 2-3 2-5l-5-5Z"/>
    <path stroke="color(display-p3 .6941 .3529 0)" stroke-linecap="round" stroke-linejoin="round" stroke-miterlimit="10" stroke-width="2" d="m130.5 169.5-7-7c3.9-3.9 16-15.8 19.4-12.4 3.4 3.4-8.5 15.5-12.4 19.4Z"/>
    <path fill="color(display-p3 .9373 .7451 .0314)" d="M68 122.5h236.5v13.572H89a8 8 0 0 0-8 8V397H68V122.5Z"/>
  </g>
  <rect width="121" height="83" x="68" y="123" stroke="color(display-p3 .7961 .4431 0)" stroke-width="2" rx="3"/>
  <g clip-path="url(#c)">
    <rect width="121" height="172" x="195" y="34" fill="color(display-p3 .7922 .9059 .8706)" rx="3"/>
    <path fill="color(display-p3 .5608 .7608 .702)" stroke="color(display-p3 .5608 .7608 .702)" stroke-linecap="round" stroke-linejoin="round" stroke-miterlimit="10" stroke-width="2" d="M267.5 121s-.3-6-8-6v18l4 1v5h-16v-5l4-1v-18c-7.7 0-8 6-8 6h-3v-12h30v12h-3Z"/>
    <path fill="color(display-p3 .6706 .8353 .7843)" d="M267.5 116s-.3-6-8-6v20l4 1v4h-16v-5l4-1v-19c-7.7 0-8 6-8 6h-3v-11h30v11h-3Z"/>
    <path fill="color(display-p3 .7922 .9059 .8706)" d="m247.9 129.9 3.6-.9c.8-.2 1.6.3 1.8 1.1.2.8-.3 1.6-1.1 1.8l-3.6.9c-.8.2-1.6-.3-1.8-1.1-.2-.8.3-1.6 1.1-1.8Zm11.6-.9 3.7.9c.8.2 1.3 1 1.1 1.8-.2.8-1 1.3-1.8 1.1l-3.7-.9c-.8-.2-1.3-1-1.1-1.8.2-.8 1-1.3 1.8-1.1Zm11-24h-30v3h30v-3Z"/>
    <path stroke="color(display-p3 .1098 .3255 .2667)" stroke-linecap="round" stroke-linejoin="round" stroke-miterlimit="10" stroke-width="2" d="M267.5 117s-.3-6-8-6v18l4 1v5h-16v-5l4-1v-18c-7.7 0-8 6-8 6h-3v-12h30v12h-3Z"/>
    <path fill="color(display-p3 .6706 .8353 .7843)" stroke="color(display-p3 .6706 .8353 .7843)" d="M195.5 34h120v12.572H216a8.5 8.5 0 0 0-8.5 8.5V205.5h-12V34Z"/>
  </g>
  <rect width="121" height="172" x="195" y="34" stroke="color(display-p3 .2196 .4706 .4039)" stroke-width="2" rx="3"/>
  <defs>
    <clipPath id="a">
      <rect width="121" height="83" x="68" y="34" fill="#fff" rx="3"/>
    </clipPath>
    <clipPath id="b">
      <rect width="121" height="83" x="68" y="123" fill="#fff" rx="3"/>
    </clipPath>
    <clipPath id="c">
      <rect width="121" height="172" x="195" y="34" fill="#fff" rx="3"/>
    </clipPath>
  </defs>
</svg>
