<svg xmlns="http://www.w3.org/2000/svg" width="800" height="480" fill="none"><path fill="url(#a)" d="M0 0h800v480H0z"/><path fill="#251B1B" fill-rule="evenodd" d="M51.084 55.703C58.445 54.265 64 47.781 64 40c0-8.837-7.163-16-16-16s-16 7.163-16 16c0 3.802 1.326 7.295 3.541 10.04 2.18-.9 2.86-3.255 2.86-4.44 2.4 0 8-2.4 8-10.391 0 3.991-3.6 8.65-9.695 8.65H35.2s2.167-5.837 2.135-11.034c0-.537.416-1 .95-1.042 3.427-.3 7.185-2.277 8.316-2.921a.534.534 0 0 1 .63.097l.64.644a.26.26 0 0 0 .31.054l1.484-.752a.52.52 0 0 1 .715.236l.705 1.429a.28.28 0 0 0 .363.118l1.452-.73a.53.53 0 0 1 .693.203l2.723 4.564h.01c.15.237.374.42.651.484.694.182 2.114.537 3.022.762.48.118.822.57.8 1.063-.224 5.96-2.946 9.88-8.519 9.88-.837.843-3.817 4.941-1.196 8.789Z" clip-rule="evenodd" style="fill:#251b1b;fill:color(display-p3 .1451 .1059 .1059);fill-opacity:1"/><path fill="#251B1B" d="M82.124 44H80.72v-8.52h1.404v3.552h4.188V35.48h1.404V44h-1.404v-3.792h-4.188V44Zm9.782.156c-1.849 0-3.049-1.272-3.049-3.156v-.18c0-1.884 1.2-3.144 3.049-3.144 1.86 0 3.06 1.26 3.06 3.144V41c0 1.884-1.2 3.156-3.06 3.156Zm0-1.068c1.127 0 1.715-.756 1.715-2.088v-.18c0-1.332-.587-2.076-1.715-2.076-1.117 0-1.705.744-1.705 2.076V41c0 1.332.589 2.088 1.705 2.088Zm5.46.912h-1.32v-6.18h1.273l.036.96c.312-.588.936-1.104 1.908-1.104.924 0 1.56.42 1.848 1.2.432-.756 1.128-1.2 2.04-1.2 1.416 0 2.064.912 2.064 2.34V44h-1.32v-3.72c0-1.02-.372-1.512-1.188-1.512-.888 0-1.404.66-1.404 1.8V44h-1.32v-3.708c0-1.008-.36-1.524-1.176-1.524-.888 0-1.44.648-1.44 1.812V44Zm11.954.156c-1.92 0-3.06-1.284-3.06-3.156v-.18c0-1.872 1.164-3.144 3.06-3.144 2.028 0 3.012 1.416 2.916 3.528h-4.62c.06 1.236.66 1.896 1.704 1.896.864 0 1.38-.408 1.56-1.032h1.32c-.3 1.296-1.332 2.088-2.88 2.088Zm-1.68-3.9h3.24c-.096-.96-.6-1.536-1.572-1.536-.96 0-1.524.528-1.668 1.536ZM137.22 44h-1.476l-.756-2.076h-3.66L130.56 44h-1.416l3.276-8.52h1.524L137.22 44Zm-4.056-7.032-1.404 3.792h2.796l-1.392-3.792Zm8.175 7.188c-1.044 0-1.74-.588-2.04-1.176l-.036 1.02h-1.236v-8.88h1.332v3.612c.36-.588 1.032-1.056 2.016-1.056 1.62 0 2.64 1.308 2.64 3.144V41c0 1.848-1.056 3.156-2.676 3.156Zm-.324-1.068c1.056 0 1.656-.768 1.656-2.088v-.18c0-1.332-.6-2.1-1.656-2.1-1.104 0-1.704.768-1.704 2.1V41c0 1.332.6 2.088 1.704 2.088Zm6.887 1.068c-1.848 0-3.048-1.272-3.048-3.156v-.18c0-1.884 1.2-3.144 3.048-3.144 1.86 0 3.06 1.26 3.06 3.144V41c0 1.884-1.2 3.156-3.06 3.156Zm0-1.068c1.128 0 1.716-.756 1.716-2.088v-.18c0-1.332-.588-2.076-1.716-2.076-1.116 0-1.704.744-1.704 2.076V41c0 1.332.588 2.088 1.704 2.088Zm6.182 1.068c-1.44 0-2.136-.912-2.136-2.364V37.82h1.332v3.72c0 .948.348 1.512 1.236 1.512.912 0 1.452-.696 1.452-1.8V37.82h1.332V44h-1.284l-.024-.936c-.36.6-1.02 1.092-1.908 1.092Zm7.233 0c-1.356 0-2.028-.624-2.028-1.824v-3.516h-1.2v-.996h1.2v-1.932h1.32v1.932h1.68v.996h-1.68v3.372c0 .612.228.888.96.888.264 0 .576-.06.756-.12v1.056a3.932 3.932 0 0 1-1.008.144ZM183.428 44.156c-2.412 0-3.984-1.74-3.984-4.272v-.288c0-2.508 1.584-4.272 3.996-4.272 2.052 0 3.432 1.296 3.6 3.252h-1.416c-.168-1.284-.984-2.052-2.196-2.052-1.596 0-2.544 1.26-2.544 3.072v.288c0 1.812.96 3.06 2.544 3.06 1.296 0 2.124-.864 2.184-2.16h1.428c-.132 1.944-1.488 3.372-3.612 3.372Zm7.431 0c-1.848 0-3.048-1.272-3.048-3.156v-.18c0-1.884 1.2-3.144 3.048-3.144 1.86 0 3.06 1.26 3.06 3.144V41c0 1.884-1.2 3.156-3.06 3.156Zm0-1.068c1.128 0 1.716-.756 1.716-2.088v-.18c0-1.332-.588-2.076-1.716-2.076-1.116 0-1.704.744-1.704 2.076V41c0 1.332.588 2.088 1.704 2.088Zm5.461.912H195v-6.18h1.272l.048.984c.324-.612.972-1.128 1.968-1.128 1.5 0 2.136.936 2.136 2.34V44h-1.308v-3.66c0-1.008-.372-1.572-1.272-1.572-.912 0-1.524.672-1.524 1.776V44Zm7.954.156c-1.356 0-2.028-.624-2.028-1.824v-3.516h-1.2v-.996h1.2v-1.932h1.32v1.932h1.68v.996h-1.68v3.372c0 .612.228.888.96.888.264 0 .576-.06.756-.12v1.056a3.932 3.932 0 0 1-1.008.144Zm3.799 0c-1.272 0-2.076-.768-2.076-1.824 0-.984.6-1.632 1.656-1.776l2.436-.36v-.444c0-.684-.468-1.044-1.248-1.044-.768 0-1.284.348-1.344.972h-1.26c.108-1.272 1.116-2.004 2.628-2.004 1.596 0 2.496.84 2.496 2.124V44h-1.212l-.048-.96c-.384.696-1.14 1.116-2.028 1.116Zm.3-1.044c.924 0 1.716-.576 1.716-1.38v-.564l-1.98.276c-.564.084-.828.348-.828.828 0 .516.396.84 1.092.84Zm7.011 1.044c-1.872 0-2.976-1.284-2.976-3.156v-.18c0-1.872 1.104-3.144 2.988-3.144 1.548 0 2.568.912 2.736 2.34h-1.296c-.132-.78-.588-1.272-1.464-1.272-1.068 0-1.62.744-1.62 2.076V41c0 1.332.552 2.088 1.62 2.088.876 0 1.344-.516 1.476-1.296h1.308c-.204 1.452-1.224 2.364-2.772 2.364Zm6.386 0c-1.356 0-2.028-.624-2.028-1.824v-3.516h-1.2v-.996h1.2v-1.932h1.32v1.932h1.68v.996h-1.68v3.372c0 .612.228.888.96.888.264 0 .576-.06.756-.12v1.056a3.932 3.932 0 0 1-1.008.144Z" style="fill:#251b1b;fill:color(display-p3 .1451 .1059 .1059);fill-opacity:1"/><rect width="64" height="32" x="704" y="24" fill="#fff" rx="8" style="fill:#fff;fill-opacity:1"/><rect width="65" height="33" x="703.5" y="23.5" stroke="#9C1609" stroke-opacity=".12" rx="8.5" style="stroke:#9c1609;stroke:color(display-p3 .6118 .0863 .0353);stroke-opacity:.12"/><path fill="#251B1B" d="M726.688 44h-4.968v-8.52h1.404v7.356h3.564V44Zm3.639.156c-1.848 0-3.048-1.272-3.048-3.156v-.18c0-1.884 1.2-3.144 3.048-3.144 1.86 0 3.06 1.26 3.06 3.144V41c0 1.884-1.2 3.156-3.06 3.156Zm0-1.068c1.128 0 1.716-.756 1.716-2.088v-.18c0-1.332-.588-2.076-1.716-2.076-1.116 0-1.704.744-1.704 2.076V41c0 1.332.588 2.088 1.704 2.088Zm6.854 3.108c-1.704 0-2.664-.756-2.796-1.836h1.44c.072.54.54.84 1.428.84 1.02 0 1.632-.504 1.632-1.476v-.912c-.324.6-1.02 1.092-1.98 1.092-1.644 0-2.676-1.296-2.676-3v-.24c0-1.716 1.02-2.988 2.64-2.988 1.056 0 1.764.576 2.076 1.164l.036-1.02h1.224v5.784c0 1.596-1.068 2.592-3.024 2.592Zm.048-3.348c1.092 0 1.704-.768 1.704-1.944v-.24c0-1.2-.6-1.944-1.704-1.944-1.068 0-1.656.744-1.656 1.944v.24c0 1.176.6 1.944 1.656 1.944Zm5.65-7.728v1.8h-1.38v-1.8h1.38Zm-1.356 2.7h1.32V44h-1.32v-6.18ZM745.48 44h-1.32v-6.18h1.272l.048.984c.324-.612.972-1.128 1.968-1.128 1.5 0 2.136.936 2.136 2.34V44h-1.308v-3.66c0-1.008-.372-1.572-1.272-1.572-.912 0-1.524.672-1.524 1.776V44ZM164.616 194v-31.584h12.096c9.888 0 15.984 5.712 15.984 15.744 0 10.128-5.76 15.84-14.976 15.84h-13.104Zm5.76-4.8h7.248c5.664 0 9.36-3.792 9.36-11.04 0-7.2-3.984-10.944-10.032-10.944h-6.576V189.2Zm47.54-7.92v1.92h-17.76c.288 4.56 2.832 7.008 6.864 7.008 3.456 0 5.808-1.536 6.048-4.32h4.848c-.192 5.28-4.512 8.496-10.992 8.496-7.488 0-12.192-4.608-12.192-12.048 0-7.68 4.704-12.432 12.192-12.432 6.72 0 10.992 3.984 10.992 11.376Zm-4.848-1.344v-.336c0-3.552-2.208-5.52-6.096-5.52-3.696 0-6.048 1.92-6.672 5.856h12.768Zm17.973 14.448c-8.16 0-11.088-3.648-11.088-8.304h4.848c0 2.736 1.584 4.416 6.192 4.416 4.368 0 6.288-1.344 6.288-3.504 0-.912-.336-1.728-1.584-2.16-1.152-.432-3.408-.672-6.048-.912-3.696-.336-6.192-.816-7.632-1.872-1.296-.96-2.064-2.688-2.064-4.512 0-4.752 4.608-7.632 11.04-7.632 7.392 0 10.656 3.072 10.656 8.448h-4.848c-.048-3.072-1.728-4.56-5.664-4.56-3.744 0-5.856 1.344-5.856 3.36 0 1.008.24 1.968 1.632 2.448 1.152.384 3.408.624 6.288.912 3.36.336 5.28.672 6.96 1.632 1.584.864 2.496 2.688 2.496 4.608 0 4.8-4.032 7.632-11.616 7.632Zm14.481-26.88v-5.28h5.52v5.28h-5.52ZM245.57 194v-23.712h5.376V194h-5.376Zm25.555-3.744c5.088 0 8.016 2.208 8.016 6 0 4.992-4.656 7.968-12.48 7.968-8.016 0-12.816-2.448-12.816-6.72 0-2.4 1.776-4.176 4.608-4.32v-.048c-1.344-.912-2.064-2.208-2.064-3.888 0-2.016.912-3.408 2.208-4.032v-.096c-2.352-1.44-3.648-3.792-3.648-6.768 0-5.184 4.032-8.448 10.56-8.448 2.688 0 4.896.528 6.624 1.536l.048-.048c-.72-.768-1.152-1.68-1.152-2.688 0-1.92 1.824-3.12 4.656-3.12 1.152 0 1.824.096 2.4.24v3.792c-.384-.144-.912-.24-1.584-.24-1.584 0-2.352.672-2.352 1.968 0 .672.24 1.488.528 2.4.912 1.248 1.392 2.832 1.392 4.608 0 5.232-4.032 8.448-10.56 8.448-1.536 0-2.928-.192-4.176-.528-.288.336-.576 1.008-.576 1.824 0 1.344.96 2.16 2.688 2.16h7.68Zm-5.616-16.512c-3.36 0-5.424 1.776-5.424 4.608s2.064 4.608 5.424 4.608c3.36 0 5.424-1.776 5.424-4.608s-2.064-4.608-5.424-4.608Zm1.104 26.688c5.04 0 7.152-1.44 7.152-3.552 0-1.584-1.2-2.448-3.744-2.448h-6.432c-2.688 0-4.416.816-4.416 2.64 0 2.256 2.88 3.36 7.44 3.36ZM281.429 194v-23.712h5.376l-.192 6.336h.048c1.296-4.272 4.368-6.72 9.888-6.72 6 0 9.696 3.408 9.696 9.264V194h-5.376v-13.632c0-3.744-2.112-5.856-6.384-5.856-4.704 0-7.68 2.832-7.68 8.016V194h-5.376Zm38.759 0v-19.344h-3.792v-4.368h3.792v-2.352c0-5.28 3.504-8.16 8.64-8.16 2.112 0 3.84.384 4.608.672v4.272a11.966 11.966 0 0 0-3.648-.576c-2.736 0-4.224 1.44-4.224 4.032v2.112h8.256v4.368h-8.256V194h-5.376Zm17.76 0v-33.264h5.376V194h-5.376Zm20.681.384c-7.536 0-12.384-4.656-12.384-12.192 0-7.584 4.848-12.288 12.384-12.288 7.584 0 12.432 4.704 12.432 12.288 0 7.536-4.848 12.192-12.432 12.192Zm0-4.416c4.368 0 7.056-2.976 7.056-7.776 0-4.848-2.688-7.872-7.056-7.872s-7.008 3.024-7.008 7.872c0 4.8 2.64 7.776 7.008 7.776ZM378.073 194l-6.864-23.712h5.712l4.848 18.336h.096l5.664-18.336h5.328l5.52 18.336h.096l4.992-18.336h5.088L401.689 194h-6.624l-5.136-17.424h-.144L384.457 194h-6.384Zm41.889.384c-8.16 0-11.088-3.648-11.088-8.304h4.848c0 2.736 1.584 4.416 6.192 4.416 4.368 0 6.288-1.344 6.288-3.504 0-.912-.336-1.728-1.584-2.16-1.152-.432-3.408-.672-6.048-.912-3.696-.336-6.192-.816-7.632-1.872-1.296-.96-2.064-2.688-2.064-4.512 0-4.752 4.608-7.632 11.04-7.632 7.392 0 10.656 3.072 10.656 8.448h-4.848c-.048-3.072-1.728-4.56-5.664-4.56-3.744 0-5.856 1.344-5.856 3.36 0 1.008.24 1.968 1.632 2.448 1.152.384 3.408.624 6.288.912 3.36.336 5.28.672 6.96 1.632 1.584.864 2.496 2.688 2.496 4.608 0 4.8-4.032 7.632-11.616 7.632Zm23.624-26.88v-5.28h5.52v5.28h-5.52Zm.048 26.496v-23.712h5.376V194h-5.376Zm9.091 0v-23.712h5.376l-.192 6.336h.048c1.296-4.272 4.368-6.72 9.888-6.72 6 0 9.696 3.408 9.696 9.264V194h-5.376v-13.632c0-3.744-2.112-5.856-6.384-5.856-4.704 0-7.68 2.832-7.68 8.016V194h-5.376Zm38.593.288c-6.48 0-9.024-3.504-9.024-8.736v-10.896h-3.744v-4.368h3.024c.912 0 1.248-.48 1.392-1.824l.24-3.552h4.464v5.376h8.16v4.368h-8.16v10.608c0 3.072 1.152 4.608 4.416 4.608 1.344 0 2.88-.24 3.552-.432v4.272c-.72.24-2.352.576-4.32.576Zm17.606.096c-7.536 0-12.384-4.656-12.384-12.192 0-7.584 4.848-12.288 12.384-12.288 7.584 0 12.432 4.704 12.432 12.288 0 7.536-4.848 12.192-12.432 12.192Zm0-4.416c4.368 0 7.056-2.976 7.056-7.776 0-4.848-2.688-7.872-7.056-7.872s-7.008 3.024-7.008 7.872c0 4.8 2.64 7.776 7.008 7.776Zm35.142 4.416c-6.96 0-11.616-4.656-11.616-12.24 0-7.584 4.752-12.24 11.904-12.24 6.624 0 10.944 3.84 10.944 10.128h-4.848c-.048-3.552-2.352-5.712-5.952-5.712-4.128 0-6.672 2.928-6.672 7.824 0 4.848 2.496 7.824 6.48 7.824 3.792 0 6.144-2.112 6.192-5.616h4.848c0 6.336-4.512 10.032-11.28 10.032Zm25.801 0c-7.536 0-12.384-4.656-12.384-12.192 0-7.584 4.848-12.288 12.384-12.288 7.584 0 12.432 4.704 12.432 12.288 0 7.536-4.848 12.192-12.432 12.192Zm0-4.416c4.368 0 7.056-2.976 7.056-7.776 0-4.848-2.688-7.872-7.056-7.872s-7.008 3.024-7.008 7.872c0 4.8 2.64 7.776 7.008 7.776Zm25.567 4.416c-6.864 0-11.184-4.992-11.184-12.384 0-7.152 4.464-12.096 11.52-12.096 4.464 0 7.248 1.776 8.208 4.56h.048v-13.728h5.376V194h-5.376c.096-1.392.144-3.456.24-5.76h-.096c-.912 3.744-3.888 6.144-8.736 6.144Zm1.104-4.416c4.512 0 7.488-2.976 7.488-7.584v-1.152c0-4.224-2.928-6.912-7.392-6.912-4.272 0-7.056 3.168-7.056 7.68 0 4.704 2.736 7.968 6.96 7.968Zm38.93-8.688v1.92h-17.76c.288 4.56 2.832 7.008 6.864 7.008 3.456 0 5.808-1.536 6.048-4.32h4.848c-.192 5.28-4.512 8.496-10.992 8.496-7.488 0-12.192-4.608-12.192-12.048 0-7.68 4.704-12.432 12.192-12.432 6.72 0 10.992 3.984 10.992 11.376Zm-4.848-1.344v-.336c0-3.552-2.208-5.52-6.096-5.52-3.696 0-6.048 1.92-6.672 5.856h12.768ZM249.163 232h-7.552v-11.36h7.472v1.184h-6.112v3.776h5.632v1.184h-5.632v4.032h6.192V232Zm5.019 0h-1.408l-3.12-8.208h1.36l2.48 6.848 2.432-6.848h1.328L254.182 232Zm7.525.192c-2.48 0-3.904-1.712-3.904-4.144v-.304c0-2.448 1.456-4.144 3.888-4.144 2.608 0 3.84 1.792 3.728 4.544h-6.304c.032 1.904.992 2.96 2.592 2.96 1.296 0 2.096-.592 2.368-1.648h1.296c-.4 1.728-1.712 2.736-3.664 2.736Zm-2.56-5.088h4.928c-.128-1.52-.928-2.416-2.384-2.416-1.472 0-2.368.848-2.544 2.416Zm9.038 4.896h-1.28v-8.208h1.248l.016 1.584c.496-1.136 1.408-1.776 2.544-1.776.128 0 .272 0 .432.032v1.28c-.176-.016-.288-.016-.464-.016-1.488 0-2.496.912-2.496 2.704v4.4Zm7.066 2.72h-1.312l1.056-2.736-3.2-8.192h1.376l2.496 6.72 2.384-6.72h1.328l-4.128 10.928Zm11.876.192c-2.08 0-3.376-.944-3.52-2.352h1.376c.112.848.848 1.312 2.192 1.312 1.408 0 2.448-.672 2.448-2.192v-1.344c-.432.832-1.376 1.536-2.768 1.536-2.144 0-3.52-1.68-3.52-3.92v-.448c0-2.32 1.376-3.904 3.52-3.904 1.44 0 2.432.8 2.848 1.664l.032-1.472h1.184v7.808c0 1.952-1.36 3.312-3.792 3.312Zm-.048-4.128c1.68 0 2.624-1.136 2.624-2.832v-.448c0-1.76-.928-2.816-2.624-2.816-1.552 0-2.432 1.072-2.432 2.816v.448c0 1.68.896 2.832 2.432 2.832Zm7.044 1.216h-1.28v-8.208h1.248l.016 1.584c.496-1.136 1.408-1.776 2.544-1.776.128 0 .272 0 .432.032v1.28c-.176-.016-.288-.016-.464-.016-1.488 0-2.496.912-2.496 2.704v4.4Zm7.444.192c-2.48 0-3.904-1.712-3.904-4.144v-.304c0-2.448 1.456-4.144 3.888-4.144 2.608 0 3.84 1.792 3.728 4.544h-6.304c.032 1.904.992 2.96 2.592 2.96 1.296 0 2.096-.592 2.368-1.648h1.296c-.4 1.728-1.712 2.736-3.664 2.736Zm-2.56-5.088h4.928c-.128-1.52-.928-2.416-2.384-2.416-1.472 0-2.368.848-2.544 2.416Zm10.094 5.088c-1.712 0-2.752-.96-2.752-2.336 0-1.184.704-2.08 2.016-2.272l3.456-.512v-.72c0-1.184-.832-1.712-1.888-1.712-1.136 0-1.92.56-2.016 1.552h-1.248c.144-1.632 1.376-2.592 3.28-2.592 2 0 3.136 1.136 3.136 2.832V232h-1.2l-.048-1.28c-.528.96-1.584 1.472-2.736 1.472Zm.128-1.072c1.376 0 2.592-.912 2.592-2.16v-.848l-3.04.448c-.784.112-1.136.56-1.136 1.264 0 .784.544 1.296 1.584 1.296Zm8.911 1.072c-1.632 0-2.496-.752-2.496-2.256v-5.12h-1.648v-1.024h1.648v-2.528h1.28v2.528h2.352v1.024h-2.352v4.944c0 .912.304 1.344 1.376 1.344.32 0 .768-.08 1.04-.16v1.088c-.336.08-.848.16-1.2.16Zm8.918-.192h-1.376l-2.512-8.208h1.296l1.92 6.64 1.952-6.64h1.264l1.984 6.688 1.936-6.688h1.296l-2.56 8.208h-1.36l-1.936-6.448-1.904 6.448Zm12.196.192c-2.48 0-3.904-1.712-3.904-4.144v-.304c0-2.448 1.456-4.144 3.888-4.144 2.608 0 3.84 1.792 3.728 4.544h-6.304c.032 1.904.992 2.96 2.592 2.96 1.296 0 2.096-.592 2.368-1.648h1.296c-.4 1.728-1.712 2.736-3.664 2.736Zm-2.56-5.088h4.928c-.128-1.52-.928-2.416-2.384-2.416-1.472 0-2.368.848-2.544 2.416Zm11.822 5.088c-1.44 0-2.416-.784-2.832-1.632l-.032 1.44h-1.2v-11.84h1.28v4.96c.448-.816 1.392-1.52 2.8-1.52 2.144 0 3.52 1.68 3.52 4.144v.304c0 2.464-1.424 4.144-3.536 4.144Zm-.208-1.088c1.536 0 2.432-1.168 2.432-3.056v-.304c0-1.904-.896-3.056-2.448-3.056-1.664 0-2.608 1.136-2.608 3.056v.304c0 1.904.928 3.056 2.624 3.056Zm8.136 1.088c-1.936 0-3.248-.944-3.408-2.704h1.232c.192 1.168.96 1.664 2.208 1.664 1.152 0 1.92-.464 1.92-1.36 0-.784-.544-1.152-2.192-1.44-1.904-.352-2.88-.928-2.88-2.384 0-1.424 1.232-2.368 3.008-2.368 1.824 0 3.008.896 3.184 2.496h-1.264c-.144-.96-.88-1.456-1.92-1.456-1.056 0-1.744.48-1.744 1.264 0 .768.496 1.12 2.112 1.376 1.904.32 2.992.944 2.992 2.384 0 1.536-1.328 2.528-3.248 2.528Zm6.102-12.032v2.304h-1.344v-2.304h1.344Zm-1.328 3.632h1.28V232h-1.28v-8.208Zm6.563 8.4c-1.632 0-2.496-.752-2.496-2.256v-5.12h-1.648v-1.024h1.648v-2.528h1.28v2.528h2.352v1.024h-2.352v4.944c0 .912.304 1.344 1.376 1.344.32 0 .768-.08 1.04-.16v1.088c-.336.08-.848.16-1.2.16Zm6.02 0c-2.48 0-3.904-1.712-3.904-4.144v-.304c0-2.448 1.456-4.144 3.888-4.144 2.608 0 3.84 1.792 3.728 4.544h-6.304c.032 1.904.992 2.96 2.592 2.96 1.296 0 2.096-.592 2.368-1.648h1.296c-.4 1.728-1.712 2.736-3.664 2.736Zm-2.56-5.088h4.928c-.128-1.52-.928-2.416-2.384-2.416-1.472 0-2.368.848-2.544 2.416Zm13.843 5.088c-1.936 0-3.248-.944-3.408-2.704h1.232c.192 1.168.96 1.664 2.208 1.664 1.152 0 1.92-.464 1.92-1.36 0-.784-.544-1.152-2.192-1.44-1.904-.352-2.88-.928-2.88-2.384 0-1.424 1.232-2.368 3.008-2.368 1.824 0 3.008.896 3.184 2.496h-1.264c-.144-.96-.88-1.456-1.92-1.456-1.056 0-1.744.48-1.744 1.264 0 .768.496 1.12 2.112 1.376 1.904.32 2.992.944 2.992 2.384 0 1.536-1.328 2.528-3.248 2.528Zm7.9 0c-1.632 0-2.496-.752-2.496-2.256v-5.12h-1.648v-1.024h1.648v-2.528h1.28v2.528h2.352v1.024h-2.352v4.944c0 .912.304 1.344 1.376 1.344.32 0 .768-.08 1.04-.16v1.088c-.336.08-.848.16-1.2.16Zm4.945 0c-1.712 0-2.752-.96-2.752-2.336 0-1.184.704-2.08 2.016-2.272l3.456-.512v-.72c0-1.184-.832-1.712-1.888-1.712-1.136 0-1.92.56-2.016 1.552h-1.248c.144-1.632 1.376-2.592 3.28-2.592 2 0 3.136 1.136 3.136 2.832V232h-1.2l-.048-1.28c-.528.96-1.584 1.472-2.736 1.472Zm.128-1.072c1.376 0 2.592-.912 2.592-2.16v-.848l-3.04.448c-.784.112-1.136.56-1.136 1.264 0 .784.544 1.296 1.584 1.296Zm6.988.88h-1.28v-8.208h1.248l.016 1.584c.496-1.136 1.408-1.776 2.544-1.776.128 0 .272 0 .432.032v1.28c-.176-.016-.288-.016-.464-.016-1.488 0-2.496.912-2.496 2.704v4.4Zm7.939.192c-1.632 0-2.496-.752-2.496-2.256v-5.12h-1.648v-1.024h1.648v-2.528h1.28v2.528h2.352v1.024h-2.352v4.944c0 .912.304 1.344 1.376 1.344.32 0 .768-.08 1.04-.16v1.088c-.336.08-.848.16-1.2.16Zm5.522 0c-1.936 0-3.248-.944-3.408-2.704h1.232c.192 1.168.96 1.664 2.208 1.664 1.152 0 1.92-.464 1.92-1.36 0-.784-.544-1.152-2.192-1.44-1.904-.352-2.88-.928-2.88-2.384 0-1.424 1.232-2.368 3.008-2.368 1.824 0 3.008.896 3.184 2.496h-1.264c-.144-.96-.88-1.456-1.92-1.456-1.056 0-1.744.48-1.744 1.264 0 .768.496 1.12 2.112 1.376 1.904.32 2.992.944 2.992 2.384 0 1.536-1.328 2.528-3.248 2.528Zm10.236 0c-1.712 0-2.752-.96-2.752-2.336 0-1.184.704-2.08 2.016-2.272l3.456-.512v-.72c0-1.184-.832-1.712-1.888-1.712-1.136 0-1.92.56-2.016 1.552h-1.248c.144-1.632 1.376-2.592 3.28-2.592 2 0 3.136 1.136 3.136 2.832V232h-1.2l-.048-1.28c-.528.96-1.584 1.472-2.736 1.472Zm.128-1.072c1.376 0 2.592-.912 2.592-2.16v-.848l-3.04.448c-.784.112-1.136.56-1.136 1.264 0 .784.544 1.296 1.584 1.296Zm8.683 1.072c-1.936 0-3.248-.944-3.408-2.704h1.232c.192 1.168.96 1.664 2.208 1.664 1.152 0 1.92-.464 1.92-1.36 0-.784-.544-1.152-2.192-1.44-1.904-.352-2.88-.928-2.88-2.384 0-1.424 1.232-2.368 3.008-2.368 1.824 0 3.008.896 3.184 2.496h-1.264c-.144-.96-.88-1.456-1.92-1.456-1.056 0-1.744.48-1.744 1.264 0 .768.496 1.12 2.112 1.376 1.904.32 2.992.944 2.992 2.384 0 1.536-1.328 2.528-3.248 2.528Zm10.236 0c-1.712 0-2.752-.96-2.752-2.336 0-1.184.704-2.08 2.016-2.272l3.456-.512v-.72c0-1.184-.832-1.712-1.888-1.712-1.136 0-1.92.56-2.016 1.552h-1.248c.144-1.632 1.376-2.592 3.28-2.592 2 0 3.136 1.136 3.136 2.832V232h-1.2l-.048-1.28c-.528.96-1.584 1.472-2.736 1.472Zm.128-1.072c1.376 0 2.592-.912 2.592-2.16v-.848l-3.04.448c-.784.112-1.136.56-1.136 1.264 0 .784.544 1.296 1.584 1.296Zm6.987.88h-1.28v-8.208h1.248l.032 1.328c.48-.88 1.344-1.52 2.656-1.52 1.952 0 2.848 1.2 2.848 3.088V232h-1.264v-5.008c0-1.472-.576-2.288-1.92-2.288-1.392 0-2.32 1.008-2.32 2.64V232Zm11.798-11.84v2.304h-1.344v-2.304h1.344Zm-1.328 3.632h1.28V232h-1.28v-8.208Zm6.371 8.4c-2.128 0-3.52-1.68-3.52-4.144v-.304c0-2.464 1.36-4.144 3.52-4.144 1.392 0 2.32.688 2.768 1.504v-4.944h1.296V232h-1.184l-.032-1.472c-.416.848-1.392 1.664-2.848 1.664Zm.224-1.088c1.696 0 2.624-1.152 2.624-3.056v-.304c0-1.92-.944-3.056-2.624-3.056-1.536 0-2.432 1.152-2.432 3.056v.304c0 1.888.88 3.056 2.432 3.056Zm9.316 1.088c-2.48 0-3.904-1.712-3.904-4.144v-.304c0-2.448 1.456-4.144 3.888-4.144 2.608 0 3.84 1.792 3.728 4.544h-6.304c.032 1.904.992 2.96 2.592 2.96 1.296 0 2.096-.592 2.368-1.648h1.296c-.4 1.728-1.712 2.736-3.664 2.736Zm-2.56-5.088h4.928c-.128-1.52-.928-2.416-2.384-2.416-1.472 0-2.368.848-2.544 2.416Zm10.095 5.088c-1.712 0-2.752-.96-2.752-2.336 0-1.184.704-2.08 2.016-2.272l3.456-.512v-.72c0-1.184-.832-1.712-1.888-1.712-1.136 0-1.92.56-2.016 1.552h-1.248c.144-1.632 1.376-2.592 3.28-2.592 2 0 3.136 1.136 3.136 2.832V232h-1.2l-.048-1.28c-.528.96-1.584 1.472-2.736 1.472Zm.128-1.072c1.376 0 2.592-.912 2.592-2.16v-.848l-3.04.448c-.784.112-1.136.56-1.136 1.264 0 .784.544 1.296 1.584 1.296Zm7.632.88h-1.504v-1.648h1.504V232Zm10.485 0h-4.704v-11.36h4.336c2.192 0 3.632.88 3.632 2.96v.144c0 1.008-.496 1.84-1.36 2.24 1.168.368 1.888 1.392 1.888 2.64v.24c0 2.064-1.6 3.136-3.792 3.136Zm-3.36-10.192v3.776h3.024c1.504 0 2.208-.704 2.208-1.824v-.144c0-1.36-.864-1.808-2.288-1.808h-2.944Zm0 4.928v4.096h3.312c1.424 0 2.448-.608 2.448-1.984v-.224c0-1.232-.8-1.888-2.288-1.888h-3.472Zm11.437 5.456c-1.888 0-2.816-1.184-2.816-3.104v-5.296h1.28v5.056c0 1.376.528 2.224 1.904 2.224 1.408 0 2.208-1.088 2.208-2.672v-4.608h1.28V232h-1.248l-.016-1.296c-.496.88-1.392 1.488-2.592 1.488Zm9.139 0c-1.632 0-2.496-.752-2.496-2.256v-5.12h-1.648v-1.024h1.648v-2.528h1.28v2.528h2.352v1.024h-2.352v4.944c0 .912.304 1.344 1.376 1.344.32 0 .768-.08 1.04-.16v1.088c-.336.08-.848.16-1.2.16Zm7.029-.192h-1.28v-11.84h1.28v4.944c.48-.88 1.36-1.504 2.656-1.504 1.952 0 2.848 1.2 2.848 3.088V232h-1.264v-5.008c0-1.472-.576-2.288-1.92-2.288-1.392 0-2.32 1.008-2.32 2.64V232Zm10.897.192c-2.384 0-3.888-1.632-3.888-4.144v-.304c0-2.512 1.504-4.144 3.888-4.144s3.904 1.632 3.904 4.144v.304c0 2.512-1.52 4.144-3.904 4.144Zm0-1.088c1.68 0 2.592-1.136 2.592-3.056v-.304c0-1.92-.912-3.056-2.592-3.056-1.664 0-2.576 1.136-2.576 3.056v.304c0 1.92.912 3.056 2.576 3.056Zm8.273.896h-1.376l-2.512-8.208h1.296l1.92 6.64 1.952-6.64h1.264l1.984 6.688 1.936-6.688h1.296L555.68 232h-1.36l-1.936-6.448L550.48 232Zm-273.961 24.192c-2.128 0-3.52-1.68-3.52-4.144v-.304c0-2.464 1.36-4.144 3.52-4.144 1.392 0 2.32.688 2.768 1.504v-4.944h1.296V256h-1.184l-.032-1.472c-.416.848-1.392 1.664-2.848 1.664Zm.224-1.088c1.696 0 2.624-1.152 2.624-3.056v-.304c0-1.92-.944-3.056-2.624-3.056-1.536 0-2.432 1.152-2.432 3.056v.304c0 1.888.88 3.056 2.432 3.056Zm9.3 1.088c-2.384 0-3.888-1.632-3.888-4.144v-.304c0-2.512 1.504-4.144 3.888-4.144s3.904 1.632 3.904 4.144v.304c0 2.512-1.52 4.144-3.904 4.144Zm0-1.088c1.68 0 2.592-1.136 2.592-3.056v-.304c0-1.92-.912-3.056-2.592-3.056-1.664 0-2.576 1.136-2.576 3.056v.304c0 1.92.912 3.056 2.576 3.056Zm11.325 3.616h-1.312l1.056-2.736-3.2-8.192h1.376l2.496 6.72 2.384-6.72h1.328l-4.128 10.928Zm8.566-2.528c-2.385 0-3.888-1.632-3.888-4.144v-.304c0-2.512 1.503-4.144 3.888-4.144 2.384 0 3.904 1.632 3.904 4.144v.304c0 2.512-1.52 4.144-3.904 4.144Zm0-1.088c1.68 0 2.592-1.136 2.592-3.056v-.304c0-1.92-.912-3.056-2.592-3.056-1.664 0-2.576 1.136-2.576 3.056v.304c0 1.92.912 3.056 2.576 3.056Zm8.153 1.088c-1.888 0-2.816-1.184-2.816-3.104v-5.296h1.28v5.056c0 1.376.528 2.224 1.904 2.224 1.408 0 2.208-1.088 2.208-2.672v-4.608h1.28V256h-1.248l-.016-1.296c-.496.88-1.392 1.488-2.592 1.488Zm12.249 0c-1.632 0-2.496-.752-2.496-2.256v-5.12h-1.648v-1.024h1.648v-2.528h1.28v2.528h2.352v1.024h-2.352v4.944c0 .912.304 1.344 1.376 1.344.32 0 .768-.08 1.04-.16v1.088c-.336.08-.848.16-1.2.16Zm4.945 0c-1.712 0-2.752-.96-2.752-2.336 0-1.184.704-2.08 2.016-2.272l3.456-.512v-.72c0-1.184-.832-1.712-1.888-1.712-1.136 0-1.92.56-2.016 1.552h-1.248c.144-1.632 1.376-2.592 3.28-2.592 2 0 3.136 1.136 3.136 2.832V256h-1.2l-.048-1.28c-.528.96-1.584 1.472-2.736 1.472Zm.128-1.072c1.376 0 2.592-.912 2.592-2.16v-.848l-3.04.448c-.784.112-1.136.56-1.136 1.264 0 .784.544 1.296 1.584 1.296Zm7.819-3.088-.832.864V256h-1.28v-11.84h1.28v7.28l3.536-3.648h1.6l-3.376 3.424 3.472 4.784h-1.52l-2.88-3.968Zm8.706 4.16c-2.48 0-3.904-1.712-3.904-4.144v-.304c0-2.448 1.456-4.144 3.888-4.144 2.608 0 3.84 1.792 3.728 4.544h-6.304c.032 1.904.992 2.96 2.592 2.96 1.296 0 2.096-.592 2.368-1.648h1.296c-.4 1.728-1.712 2.736-3.664 2.736Zm-2.56-5.088h4.928c-.128-1.52-.928-2.416-2.384-2.416-1.472 0-2.368.848-2.544 2.416Zm12.195-6.944v2.304h-1.344v-2.304h1.344Zm-1.328 3.632h1.28V256h-1.28v-8.208Zm6.563 8.4c-1.632 0-2.496-.752-2.496-2.256v-5.12h-1.648v-1.024h1.648v-2.528h1.28v2.528h2.352v1.024h-2.352v4.944c0 .912.304 1.344 1.376 1.344.32 0 .768-.08 1.04-.16v1.088c-.336.08-.848.16-1.2.16Zm7.894-.192h-1.28v-7.184h-1.648v-1.024h1.648v-1.568c0-1.504.864-2.256 2.496-2.256.352 0 .864.08 1.2.16v1.072c-.272-.064-.72-.16-1.04-.16-1.072 0-1.376.448-1.376 1.36v1.392h2.352v1.024h-2.352V256Zm4.901 0h-1.28v-8.208h1.248l.016 1.584c.496-1.136 1.408-1.776 2.544-1.776.128 0 .272 0 .432.032v1.28c-.176-.016-.288-.016-.464-.016-1.488 0-2.496.912-2.496 2.704v4.4Zm7.428.192c-2.384 0-3.888-1.632-3.888-4.144v-.304c0-2.512 1.504-4.144 3.888-4.144s3.904 1.632 3.904 4.144v.304c0 2.512-1.52 4.144-3.904 4.144Zm0-1.088c1.68 0 2.592-1.136 2.592-3.056v-.304c0-1.92-.912-3.056-2.592-3.056-1.664 0-2.576 1.136-2.576 3.056v.304c0 1.92.912 3.056 2.576 3.056Zm6.76.896h-1.28v-8.208h1.248l.016 1.296c.448-.816 1.296-1.488 2.592-1.488 1.248 0 2.08.592 2.464 1.632.576-1.04 1.504-1.632 2.736-1.632 1.808 0 2.72 1.152 2.72 3.056V256h-1.28v-5.072c0-1.472-.56-2.224-1.808-2.224-1.36 0-2.16 1.024-2.16 2.656V256h-1.28v-5.072c0-1.456-.528-2.224-1.776-2.224-1.36 0-2.192 1.024-2.192 2.688V256Zm18.91.192c-2.432 0-3.808-1.712-3.808-4.144v-.304c0-2.448 1.376-4.144 3.824-4.144 1.984 0 3.264 1.168 3.488 2.928h-1.28c-.224-1.136-.944-1.84-2.24-1.84-1.6 0-2.48 1.12-2.48 3.056v.304c0 1.936.88 3.056 2.496 3.056 1.28 0 2.048-.752 2.272-1.888h1.28c-.304 1.824-1.584 2.976-3.552 2.976Zm8.502 0c-2.384 0-3.888-1.632-3.888-4.144v-.304c0-2.512 1.504-4.144 3.888-4.144s3.904 1.632 3.904 4.144v.304c0 2.512-1.52 4.144-3.904 4.144Zm0-1.088c1.68 0 2.592-1.136 2.592-3.056v-.304c0-1.92-.912-3.056-2.592-3.056-1.664 0-2.576 1.136-2.576 3.056v.304c0 1.92.912 3.056 2.576 3.056Zm6.76.896h-1.28v-8.208h1.248l.032 1.328c.48-.88 1.344-1.52 2.656-1.52 1.952 0 2.848 1.2 2.848 3.088V256h-1.264v-5.008c0-1.472-.576-2.288-1.92-2.288-1.392 0-2.32 1.008-2.32 2.64V256Zm10.816.192c-2.432 0-3.808-1.712-3.808-4.144v-.304c0-2.448 1.376-4.144 3.824-4.144 1.984 0 3.264 1.168 3.488 2.928h-1.28c-.224-1.136-.944-1.84-2.24-1.84-1.6 0-2.48 1.12-2.48 3.056v.304c0 1.936.88 3.056 2.496 3.056 1.28 0 2.048-.752 2.272-1.888h1.28c-.304 1.824-1.584 2.976-3.552 2.976Zm8.518 0c-2.48 0-3.904-1.712-3.904-4.144v-.304c0-2.448 1.456-4.144 3.888-4.144 2.608 0 3.84 1.792 3.728 4.544h-6.304c.032 1.904.992 2.96 2.592 2.96 1.296 0 2.096-.592 2.368-1.648h1.296c-.4 1.728-1.712 2.736-3.664 2.736Zm-2.56-5.088h4.928c-.128-1.52-.928-2.416-2.384-2.416-1.472 0-2.368.848-2.544 2.416Zm9.038 7.616h-1.28v-10.928h1.2l.032 1.472c.416-.864 1.392-1.664 2.848-1.664 2.128 0 3.52 1.664 3.52 4.144v.304c0 2.464-1.392 4.144-3.536 4.144-1.392 0-2.336-.72-2.784-1.536v4.064Zm2.56-3.616c1.552 0 2.448-1.152 2.448-3.056v-.304c0-1.904-.896-3.056-2.432-3.056-1.696 0-2.624 1.152-2.624 3.056v.304c0 1.92.944 3.056 2.608 3.056Zm8.505 1.088c-1.632 0-2.496-.752-2.496-2.256v-5.12h-1.648v-1.024h1.648v-2.528h1.28v2.528h2.352v1.024h-2.352v4.944c0 .912.304 1.344 1.376 1.344.32 0 .768-.08 1.04-.16v1.088c-.336.08-.848.16-1.2.16Zm9.109 0c-1.632 0-2.496-.752-2.496-2.256v-5.12h-1.648v-1.024h1.648v-2.528h1.28v2.528h2.352v1.024h-2.352v4.944c0 .912.304 1.344 1.376 1.344.32 0 .768-.08 1.04-.16v1.088c-.336.08-.848.16-1.2.16Zm6.004 0c-2.384 0-3.888-1.632-3.888-4.144v-.304c0-2.512 1.504-4.144 3.888-4.144s3.904 1.632 3.904 4.144v.304c0 2.512-1.52 4.144-3.904 4.144Zm0-1.088c1.68 0 2.592-1.136 2.592-3.056v-.304c0-1.92-.912-3.056-2.592-3.056-1.664 0-2.576 1.136-2.576 3.056v.304c0 1.92.912 3.056 2.576 3.056Zm12.045 1.088c-2.432 0-3.808-1.712-3.808-4.144v-.304c0-2.448 1.376-4.144 3.824-4.144 1.984 0 3.264 1.168 3.488 2.928h-1.28c-.224-1.136-.944-1.84-2.24-1.84-1.6 0-2.48 1.12-2.48 3.056v.304c0 1.936.88 3.056 2.496 3.056 1.28 0 2.048-.752 2.272-1.888h1.28c-.304 1.824-1.584 2.976-3.552 2.976Zm8.502 0c-2.384 0-3.888-1.632-3.888-4.144v-.304c0-2.512 1.504-4.144 3.888-4.144s3.904 1.632 3.904 4.144v.304c0 2.512-1.52 4.144-3.904 4.144Zm0-1.088c1.68 0 2.592-1.136 2.592-3.056v-.304c0-1.92-.912-3.056-2.592-3.056-1.664 0-2.576 1.136-2.576 3.056v.304c0 1.92.912 3.056 2.576 3.056Zm8.648 1.088c-2.128 0-3.52-1.68-3.52-4.144v-.304c0-2.464 1.36-4.144 3.52-4.144 1.392 0 2.32.688 2.768 1.504v-4.944h1.296V256h-1.184l-.032-1.472c-.416.848-1.392 1.664-2.848 1.664Zm.224-1.088c1.696 0 2.624-1.152 2.624-3.056v-.304c0-1.92-.944-3.056-2.624-3.056-1.536 0-2.432 1.152-2.432 3.056v.304c0 1.888.88 3.056 2.432 3.056Zm9.316 1.088c-2.48 0-3.904-1.712-3.904-4.144v-.304c0-2.448 1.456-4.144 3.888-4.144 2.608 0 3.84 1.792 3.728 4.544h-6.304c.032 1.904.992 2.96 2.592 2.96 1.296 0 2.096-.592 2.368-1.648h1.296c-.4 1.728-1.712 2.736-3.664 2.736Zm-2.56-5.088h4.928c-.128-1.52-.928-2.416-2.384-2.416-1.472 0-2.368.848-2.544 2.416Zm10.736 1.696h-1.408v-.208c0-2.8 3.376-2.64 3.376-4.928v-.16c0-1.168-.96-1.888-2.256-1.888-1.456 0-2.448.752-2.608 2.32h-1.376c.224-2.368 1.92-3.488 4-3.488 2.176 0 3.616 1.376 3.616 3.088v.144c0 2.896-3.344 2.752-3.344 4.944v.176Zm.064 3.2h-1.504v-1.792h1.504V256Z" style="fill:#251b1b;fill:color(display-p3 .1451 .1059 .1059);fill-opacity:1"/><rect width="64" height="32" x="331.5" y="286" fill="#fff" rx="8" style="fill:#fff;fill-opacity:1"/><rect width="65" height="33" x="331" y="285.5" stroke="#9C1609" stroke-opacity=".12" rx="8.5" style="stroke:#9c1609;stroke:color(display-p3 .6118 .0863 .0353);stroke-opacity:.12"/><path fill="#251B1B" d="M354.188 306h-4.968v-8.52h1.404v7.356h3.564V306Zm3.639.156c-1.848 0-3.048-1.272-3.048-3.156v-.18c0-1.884 1.2-3.144 3.048-3.144 1.86 0 3.06 1.26 3.06 3.144v.18c0 1.884-1.2 3.156-3.06 3.156Zm0-1.068c1.128 0 1.716-.756 1.716-2.088v-.18c0-1.332-.588-2.076-1.716-2.076-1.116 0-1.704.744-1.704 2.076v.18c0 1.332.588 2.088 1.704 2.088Zm6.854 3.108c-1.704 0-2.664-.756-2.796-1.836h1.44c.072.54.54.84 1.428.84 1.02 0 1.632-.504 1.632-1.476v-.912c-.324.6-1.02 1.092-1.98 1.092-1.644 0-2.676-1.296-2.676-3v-.24c0-1.716 1.02-2.988 2.64-2.988 1.056 0 1.764.576 2.076 1.164l.036-1.02h1.224v5.784c0 1.596-1.068 2.592-3.024 2.592Zm.048-3.348c1.092 0 1.704-.768 1.704-1.944v-.24c0-1.2-.6-1.944-1.704-1.944-1.068 0-1.656.744-1.656 1.944v.24c0 1.176.6 1.944 1.656 1.944Zm5.65-7.728v1.8h-1.38v-1.8h1.38Zm-1.356 2.7h1.32V306h-1.32v-6.18Zm3.957 6.18h-1.32v-6.18h1.272l.048.984c.324-.612.972-1.128 1.968-1.128 1.5 0 2.136.936 2.136 2.34V306h-1.308v-3.66c0-1.008-.372-1.572-1.272-1.572-.912 0-1.524.672-1.524 1.776V306Z" style="fill:#251b1b;fill:color(display-p3 .1451 .1059 .1059);fill-opacity:1"/><rect width="64" height="32" x="403.5" y="286" fill="#9C1009" fill-opacity=".04" rx="8" style="fill:#9c1009;fill:color(display-p3 .6118 .0638 .0353);fill-opacity:.04"/><rect width="65" height="33" x="403" y="285.5" stroke="#9C1609" stroke-opacity=".12" rx="8.5" style="stroke:#9c1609;stroke:color(display-p3 .6118 .0863 .0353);stroke-opacity:.12"/><path fill="#251B1B" d="M419.364 306.156c-2.04 0-3.396-1.032-3.492-2.856h1.392c.12 1.188.984 1.692 2.16 1.692 1.068 0 1.836-.42 1.836-1.272v-.06c0-.732-.516-1.104-2.244-1.416-2.1-.372-2.844-1.152-2.844-2.424v-.084c0-1.392 1.212-2.412 3.072-2.412 1.788 0 3.084.888 3.252 2.628h-1.404c-.12-.984-.816-1.476-1.872-1.476s-1.68.48-1.68 1.224v.06c0 .66.36 1.032 2.052 1.32 2.04.348 3.048 1.056 3.048 2.448v.096c0 1.476-1.26 2.532-3.276 2.532Zm5.675-9.036v1.8h-1.38v-1.8h1.38Zm-1.356 2.7h1.32V306h-1.32v-6.18Zm5.349 8.376c-1.704 0-2.664-.756-2.796-1.836h1.44c.072.54.54.84 1.428.84 1.02 0 1.632-.504 1.632-1.476v-.912c-.324.6-1.02 1.092-1.98 1.092-1.644 0-2.676-1.296-2.676-3v-.24c0-1.716 1.02-2.988 2.64-2.988 1.056 0 1.764.576 2.076 1.164l.036-1.02h1.224v5.784c0 1.596-1.068 2.592-3.024 2.592Zm.048-3.348c1.092 0 1.704-.768 1.704-1.944v-.24c0-1.2-.6-1.944-1.704-1.944-1.068 0-1.656.744-1.656 1.944v.24c0 1.176.6 1.944 1.656 1.944Zm5.615 1.152h-1.32v-6.18h1.272l.048.984c.324-.612.972-1.128 1.968-1.128 1.5 0 2.136.936 2.136 2.34V306h-1.308v-3.66c0-1.008-.372-1.572-1.272-1.572-.912 0-1.524.672-1.524 1.776V306Zm9.698.156c-1.44 0-2.136-.912-2.136-2.364v-3.972h1.332v3.72c0 .948.348 1.512 1.236 1.512.912 0 1.452-.696 1.452-1.8v-3.432h1.332V306h-1.284l-.024-.936c-.36.6-1.02 1.092-1.908 1.092Zm5.865 1.884h-1.332v-8.22h1.236l.036 1.02c.3-.588 1.02-1.164 2.076-1.164 1.62 0 2.64 1.296 2.64 3.144v.18c0 1.848-1.044 3.156-2.676 3.156-.96 0-1.644-.504-1.98-1.092v2.976Zm1.656-2.952c1.056 0 1.656-.756 1.656-2.088v-.18c0-1.332-.6-2.1-1.656-2.1-1.104 0-1.704.768-1.704 2.1v.18c0 1.332.6 2.088 1.704 2.088Z" style="fill:#251b1b;fill:color(display-p3 .1451 .1059 .1059);fill-opacity:1"/><defs><radialGradient id="a" cx="0" cy="0" r="1" gradientTransform="matrix(0 629 -450 0 400 0)" gradientUnits="userSpaceOnUse"><stop stop-color="#F7C9E6" style="stop-color:#f7c9e6;stop-color:color(display-p3 .9686 .7882 .902);stop-opacity:1"/><stop offset=".575" stop-color="#F9D9C5" style="stop-color:#f9d9c5;stop-color:color(display-p3 .9765 .851 .7725);stop-opacity:1"/><stop offset="1" stop-color="#F9F3F1" style="stop-color:#f9f3f1;stop-color:color(display-p3 .9765 .9529 .9451);stop-opacity:1"/></radialGradient></defs></svg>