<svg xmlns="http://www.w3.org/2000/svg" width="592" height="368" fill="none"><rect width="298" height="12" x="135" y="186" fill="#F5B7E4" rx="3" style="fill:#f5b7e4;fill:color(display-p3 .9608 .7176 .8941);fill-opacity:1"/><g filter="url(#a)" opacity=".4" style="mix-blend-mode:multiply"><rect width="4" height="18" x="301" y="190" fill="#D66EDE" rx="2" style="fill:#d66ede;fill:color(display-p3 .8392 .4314 .8706);fill-opacity:1" transform="rotate(90 301 190)"/></g><g filter="url(#b)" opacity=".2"><rect width="4" height="19" x="300" y="190" fill="#EB88E7" rx="2" style="fill:#eb88e7;fill:color(display-p3 .9216 .5333 .9059);fill-opacity:1" transform="rotate(90 300 190)"/></g><g filter="url(#c)" opacity=".3"><rect width="4" height="18" x="301" y="190" fill="#D66EDE" rx="2" style="fill:#d66ede;fill:color(display-p3 .8392 .4314 .8706);fill-opacity:1" transform="rotate(90 301 190)"/></g><g filter="url(#d)"><rect width="2" height="16" x="300" y="191" fill="#D66EDE" rx="1" style="fill:#d66ede;fill:color(display-p3 .8392 .4314 .8706);fill-opacity:1" transform="rotate(90 300 191)"/></g><rect width="4" height="18" x="301" y="190" fill="#fff" rx="2" style="fill:#fff;fill-opacity:1" transform="rotate(90 301 190)"/><g filter="url(#e)"><rect width="2" height="16" x="300" y="191" fill="#CDB9F5" rx="1" style="fill:#cdb9f5;fill:color(display-p3 .8039 .7255 .9608);fill-opacity:1" transform="rotate(90 300 191)"/></g><g filter="url(#f)"><rect width="2" height="16" x="299" y="191" fill="#F7C9E6" rx="1" style="fill:#f7c9e6;fill:color(display-p3 .9686 .7882 .902);fill-opacity:1" transform="rotate(90 299 191)"/></g><g filter="url(#g)"><rect width="2" height="16" x="300" y="191" fill="#F9EFBD" rx="1" style="fill:#f9efbd;fill:color(display-p3 .9765 .9373 .7412);fill-opacity:1" transform="rotate(90 300 191)"/></g><rect width="2" height="16" x="300" y="191" fill="#EB88E7" rx="1" style="fill:#eb88e7;fill:color(display-p3 .9216 .5333 .9059);fill-opacity:1" transform="rotate(90 300 191)"/><g filter="url(#h)" opacity=".5"><rect width="1" height="16" x="300" y="192" fill="#B758C9" rx=".5" style="fill:#b758c9;fill:color(display-p3 .7176 .3451 .7882);fill-opacity:1" transform="rotate(90 300 192)"/></g><path fill="#ACCBF6" d="M168.5 176.5V135a2 2 0 0 1 2-2h6.181a2 2 0 0 1 1.838 1.212l20.195 47.121c.185.431.22.919.05 1.356-1.477 3.802-4.72 3.815-9.119 3.098a1.974 1.974 0 0 1-1.645-1.956V180.5a2 2 0 0 0-2-2h-15.5a2 2 0 0 1-2-2" style="fill:#accbf6;fill:color(display-p3 .6745 .7961 .9647);fill-opacity:1"/><g style="mix-blend-mode:multiply"><path fill="#CAE7DE" d="M194.024 251.736c-15.64 0-21.252-6.992-21.252-15.916h9.292c0 5.244 3.036 8.464 11.868 8.464 8.372 0 12.052-2.576 12.052-6.716 0-1.748-.644-3.312-3.036-4.14-2.208-.828-6.532-1.288-11.592-1.748-7.084-.644-11.868-1.564-14.628-3.588-2.484-1.84-3.956-5.152-3.956-8.648 0-9.108 8.832-14.628 21.16-14.628 14.168 0 20.424 5.888 20.424 16.192h-9.292c-.092-5.888-3.312-8.74-10.856-8.74-7.176 0-11.224 2.576-11.224 6.44 0 1.932.46 3.772 3.128 4.692 2.208.736 6.532 1.196 12.052 1.748 6.44.644 10.12 1.288 13.34 3.128 3.036 1.656 4.784 5.152 4.784 8.832 0 9.2-7.728 14.628-22.264 14.628m70.535-25.116v3.68h-34.04c.552 8.74 5.428 13.432 13.156 13.432 6.624 0 11.132-2.944 11.592-8.28h9.292c-.368 10.12-8.648 16.284-21.068 16.284-14.352 0-23.368-8.832-23.368-23.092 0-14.72 9.016-23.828 23.368-23.828 12.88 0 21.068 7.636 21.068 21.804m-9.292-2.576v-.644c0-6.808-4.232-10.58-11.684-10.58-7.084 0-11.592 3.68-12.788 11.224zm76.584-10.12h-15.64v20.332c0 5.888 2.208 8.832 8.464 8.832 2.576 0 5.52-.46 6.808-.828v8.188c-1.38.46-4.508 1.104-8.28 1.104-12.42 0-17.296-6.716-17.296-16.744v-20.884h-22.816v20.332c0 5.888 2.208 8.832 8.464 8.832 2.576 0 5.52-.46 6.808-.828v8.188c-1.38.46-4.508 1.104-8.28 1.104-12.42 0-17.296-6.716-17.296-16.744v-20.884h-7.176v-8.372h5.796c1.748 0 2.392-.92 2.668-3.496l.46-6.808h8.556v10.304h21.436c1.748 0 2.392-.92 2.668-3.496l.46-6.808h8.556v10.304h15.64zm4.756-13.708v-10.12h10.58v10.12zm.092 50.784v-45.448h10.304V251zm17.424 0v-45.448h10.304l-.368 12.144h.092c2.484-8.188 8.372-12.88 18.952-12.88 11.5 0 18.584 6.532 18.584 17.756V251h-10.304v-26.128c0-7.176-4.048-11.224-12.236-11.224-9.016 0-14.72 5.428-14.72 15.364V251zm85.287-7.176c9.752 0 15.364 4.232 15.364 11.5 0 9.568-8.924 15.272-23.92 15.272-15.364 0-24.564-4.692-24.564-12.88 0-4.6 3.404-8.004 8.832-8.28v-.092c-2.576-1.748-3.956-4.232-3.956-7.452 0-3.864 1.748-6.532 4.232-7.728v-.184c-4.508-2.76-6.992-7.268-6.992-12.972 0-9.936 7.728-16.192 20.24-16.192 5.152 0 9.384 1.012 12.696 2.944l.092-.092c-1.38-1.472-2.208-3.22-2.208-5.152 0-3.68 3.496-5.98 8.924-5.98 2.208 0 3.496.184 4.6.46v7.268c-.736-.276-1.748-.46-3.036-.46-3.036 0-4.508 1.288-4.508 3.772 0 1.288.46 2.852 1.012 4.6 1.748 2.392 2.668 5.428 2.668 8.832 0 10.028-7.728 16.192-20.24 16.192-2.944 0-5.612-.368-8.004-1.012-.552.644-1.104 1.932-1.104 3.496 0 2.576 1.84 4.14 5.152 4.14zm-10.764-31.648c-6.44 0-10.396 3.404-10.396 8.832s3.956 8.832 10.396 8.832 10.396-3.404 10.396-8.832-3.956-8.832-10.396-8.832m2.116 51.152c9.66 0 13.708-2.76 13.708-6.808 0-3.036-2.3-4.692-7.176-4.692h-12.328c-5.152 0-8.464 1.564-8.464 5.06 0 4.324 5.52 6.44 14.26 6.44" style="fill:#cae7de;fill:color(display-p3 .7922 .9059 .8706);fill-opacity:1"/></g><path fill="#1C5344" d="M169.772 232.82v-1a1 1 0 0 0-1 1zm9.292 0h1a1 1 0 0 0-1-1zm20.884-2.392-.351.936.024.009zm-11.592-1.748-.091.996zm-14.628-3.588-.595.804.004.002zm37.628-7.084v1a1 1 0 0 0 1-1zm-9.292 0-1 .016a1 1 0 0 0 1 .984zm-18.952 2.392-.326.945.01.004zm12.052 1.748.1-.995zm13.34 3.128-.496.868.017.01zm-17.48 22.46c-7.69 0-12.733-1.721-15.842-4.372-3.084-2.63-4.41-6.299-4.41-10.544h-2c0 4.679 1.48 8.968 5.112 12.065 3.607 3.076 9.19 4.851 17.14 4.851zm-21.252-13.916h9.292v-2h-9.292zm8.292-1c0 2.824.828 5.279 3.005 6.985 2.123 1.665 5.36 2.479 9.863 2.479v-2c-4.329 0-7.026-.796-8.629-2.052-1.549-1.215-2.239-2.992-2.239-5.412zm12.868 9.464q6.387-.002 9.674-1.944c2.264-1.338 3.378-3.34 3.378-5.772h-2c0 1.708-.726 3.064-2.395 4.049-1.741 1.029-4.544 1.667-8.657 1.667zm13.052-7.716c0-.991-.182-2.029-.781-2.957-.605-.939-1.568-1.657-2.928-2.128l-.654 1.89c1.032.357 1.587.835 1.902 1.322.321.498.461 1.116.461 1.873zm-3.685-5.076c-1.215-.456-2.943-.789-4.94-1.067-2.015-.279-4.382-.511-6.912-.741l-.182 1.992c2.53.23 4.855.458 6.819.731 1.982.274 3.52.585 4.513.957zm-11.852-1.808c-3.528-.321-6.441-.707-8.8-1.255-2.366-.549-4.103-1.246-5.328-2.143l-1.182 1.612c1.535 1.127 3.57 1.902 6.057 2.48 2.494.579 5.515.975 9.071 1.298zm-14.124-3.396c-2.182-1.616-3.551-4.602-3.551-7.844h-2c0 3.75 1.575 7.388 4.361 9.452zm-3.551-7.844c0-4.182 2.008-7.544 5.515-9.899 3.537-2.377 8.614-3.729 14.645-3.729v-2c-6.297 0-11.8 1.408-15.761 4.068-3.991 2.682-6.399 6.634-6.399 11.56zm20.16-13.628c6.97 0 11.806 1.452 14.887 4.002 3.046 2.521 4.537 6.249 4.537 11.19h2c0-5.363-1.637-9.731-5.261-12.73-3.589-2.97-8.965-4.462-16.163-4.462zm20.424 14.192h-9.292v2h9.292zm-8.292.984c-.049-3.122-.936-5.636-2.998-7.334-2.022-1.665-4.992-2.39-8.858-2.39v2c3.678 0 6.09.701 7.587 1.934 1.457 1.2 2.226 3.056 2.269 5.822zm-11.856-9.724c-3.687 0-6.692.659-8.811 1.91-2.158 1.274-3.413 3.184-3.413 5.53h2c0-1.518.769-2.828 2.429-3.808 1.699-1.003 4.306-1.632 7.795-1.632zm-12.224 7.44c0 1.028.118 2.172.687 3.207.587 1.069 1.587 1.904 3.115 2.43l.652-1.89c-1.14-.394-1.704-.939-2.014-1.503-.328-.598-.44-1.34-.44-2.244zm3.812 5.641c1.201.4 2.916.709 4.966.985 2.067.279 4.545.533 7.302.809l.2-1.99c-2.763-.276-5.207-.528-7.234-.801-2.044-.276-3.595-.565-4.602-.901zm12.268 1.794c6.451.645 9.93 1.279 12.944 3.001l.992-1.736c-3.426-1.958-7.307-2.612-13.736-3.255zm12.961 3.011c2.652 1.446 4.263 4.562 4.263 7.954h2c0-3.968-1.885-7.844-5.305-9.71zm4.263 7.954c0 4.274-1.772 7.615-5.237 9.933-3.519 2.353-8.86 3.695-16.027 3.695v2c7.369 0 13.16-1.372 17.139-4.033 4.033-2.696 6.125-6.669 6.125-11.595zm49.271-6.808v1a1 1 0 0 0 1-1zm-34.04 0v-1a1 1 0 0 0-.998 1.063zm24.748 5.152v-1a1 1 0 0 0-.996.914zm9.292 0 1 .036a1 1 0 0 0-1-1.036zm-9.292-11.408v1a1 1 0 0 0 1-1zm-24.472 0-.987-.157a1 1 0 0 0 .987 1.157zm32.764 2.576v3.68h2v-3.68zm1 2.68h-34.04v2h34.04zm-35.038 1.063c.287 4.538 1.706 8.152 4.176 10.636 2.479 2.491 5.906 3.733 9.978 3.733v-2c-3.656 0-6.531-1.104-8.56-3.144-2.037-2.047-3.332-5.149-3.598-9.351zm14.154 14.369c3.447 0 6.45-.764 8.68-2.319 2.258-1.574 3.653-3.914 3.909-6.875l-1.993-.172c-.205 2.375-1.293 4.175-3.06 5.407-1.796 1.251-4.359 1.959-7.536 1.959zm11.592-8.28h9.292v-2h-9.292zm8.293-1.036c-.173 4.768-2.197 8.559-5.623 11.179-3.449 2.638-8.391 4.141-14.446 4.141v2c6.365 0 11.773-1.579 15.661-4.553 3.912-2.992 6.212-7.343 6.407-12.695zm-20.069 15.32c-6.969 0-12.539-2.141-16.364-5.911-3.822-3.768-6.004-9.265-6.004-16.181h-2c0 7.344 2.327 13.393 6.6 17.606 4.272 4.211 10.386 6.486 17.768 6.486zm-22.368-22.092c0-7.155 2.188-12.84 6.015-16.733 3.826-3.891 9.393-6.095 16.353-6.095v-2c-7.391 0-13.509 2.35-17.779 6.693-4.268 4.341-6.589 10.57-6.589 18.135zm22.368-22.828c6.244 0 11.23 1.847 14.655 5.294s5.413 8.618 5.413 15.51h2c0-7.276-2.106-13.007-5.994-16.92s-9.437-5.884-16.074-5.884zm12.776 18.228v-.644h-2v.644zm0-.644c0-3.618-1.131-6.56-3.378-8.586-2.23-2.011-5.422-2.994-9.306-2.994v2c3.569 0 6.219.903 7.967 2.48 1.733 1.562 2.717 3.91 2.717 7.1zm-12.684-11.58c-3.715 0-6.866.968-9.255 3.025-2.387 2.057-3.896 5.105-4.52 9.042l1.975.314c.572-3.607 1.914-6.171 3.851-7.84 1.936-1.669 4.58-2.541 7.949-2.541zm-12.788 13.224h24.472v-2h-24.472zm101.056-11.12v1a1 1 0 0 0 1-1zm-15.64 0v-1a1 1 0 0 0-1 1zm15.272 28.336h1a1 1 0 0 0-1.275-.962zm0 8.188.316.949c.408-.136.684-.519.684-.949zm-25.576-36.524h1a1 1 0 0 0-1-1zm-22.816 0v-1a1 1 0 0 0-1 1zm15.272 28.336h1a1 1 0 0 0-1.275-.962zm0 8.188.316.949c.408-.136.684-.519.684-.949zm-25.576-36.524h1a1 1 0 0 0-1-1zm-7.176 0h-1a1 1 0 0 0 1 1zm0-8.372v-1a1 1 0 0 0-1 1zm8.464-3.496.994.107.004-.04zm.46-6.808v-1c-.526 0-.962.408-.998.933zm8.556 0h1a1 1 0 0 0-1-1zm0 10.304h-1a1 1 0 0 0 1 1zm24.104-3.496.994.107.004-.04zm.46-6.808v-1c-.526 0-.962.408-.998.933zm8.556 0h1a1 1 0 0 0-1-1zm0 10.304h-1a1 1 0 0 0 1 1zm15.64 0h1a1 1 0 0 0-1-1zm0 7.372h-15.64v2h15.64zm-16.64 1v20.332h2v-20.332zm0 20.332c0 3.033.562 5.549 2.145 7.296 1.603 1.769 4.054 2.536 7.319 2.536v-2c-2.992 0-4.772-.705-5.837-1.88-1.085-1.197-1.627-3.097-1.627-5.952zm9.464 9.832c2.658 0 5.695-.47 7.083-.866l-.55-1.924c-1.189.34-4.039.79-6.533.79zm5.808-1.828v8.188h2v-8.188zm.684 7.239c-1.267.423-4.287 1.053-7.964 1.053v2c3.867 0 7.103-.658 8.596-1.155zm-7.964 1.053c-6.035 0-10.055-1.628-12.579-4.298-2.533-2.681-3.717-6.579-3.717-11.446h-2c0 5.161 1.254 9.635 4.264 12.819 3.019 3.195 7.647 4.925 14.032 4.925zm-16.296-15.744v-20.884h-2v20.884zm-1-21.884h-22.816v2h22.816zm-23.816 1v20.332h2v-20.332zm0 20.332c0 3.033.562 5.549 2.145 7.296 1.603 1.769 4.054 2.536 7.319 2.536v-2c-2.992 0-4.772-.705-5.837-1.88-1.085-1.197-1.627-3.097-1.627-5.952zm9.464 9.832c2.658 0 5.695-.47 7.083-.866l-.55-1.924c-1.189.34-4.039.79-6.533.79zm5.808-1.828v8.188h2v-8.188zm.684 7.239c-1.267.423-4.287 1.053-7.964 1.053v2c3.867 0 7.103-.658 8.596-1.155zm-7.964 1.053c-6.035 0-10.055-1.628-12.579-4.298-2.533-2.681-3.717-6.579-3.717-11.446h-2c0 5.161 1.254 9.635 4.264 12.819 3.019 3.195 7.647 4.925 14.032 4.925zm-16.296-15.744v-20.884h-2v20.884zm-1-21.884h-7.176v2h7.176zm-6.176 1v-8.372h-2v8.372zm-1-7.372h5.796v-2h-5.796zm5.796 0c1.065 0 2.02-.294 2.686-1.182.59-.786.836-1.903.976-3.207l-1.989-.214c-.136 1.272-.349 1.903-.587 2.221-.162.216-.404.382-1.086.382zm3.666-4.429.46-6.808-1.996-.134-.46 6.808zm-.538-5.875h8.556v-2h-8.556zm7.556-1v10.304h2v-10.304zm1 11.304h21.436v-2h-21.436zm21.436 0c1.065 0 2.02-.294 2.686-1.182.59-.786.836-1.903.976-3.207l-1.989-.214c-.136 1.272-.349 1.903-.587 2.221-.162.216-.404.382-1.086.382zm3.666-4.429.46-6.808-1.996-.134-.46 6.808zm-.538-5.875h8.556v-2h-8.556zm7.556-1v10.304h2v-10.304zm1 11.304h15.64v-2h-15.64zm14.64-1v8.372h2v-8.372zm5.756-5.336h-1a1 1 0 0 0 1 1zm0-10.12v-1a1 1 0 0 0-1 1zm10.58 0h1a1 1 0 0 0-1-1zm0 10.12v1a1 1 0 0 0 1-1zM333.699 248h-1a1 1 0 0 0 1 1zm0-45.448v-1a1 1 0 0 0-1 1zm10.304 0h1a1 1 0 0 0-1-1zm0 45.448v1a1 1 0 0 0 1-1zm-9.396-50.784v-10.12h-2v10.12zm-1-9.12h10.58v-2h-10.58zm9.58-1v10.12h2v-10.12zm1 9.12h-10.58v2h10.58zM334.699 248v-45.448h-2V248zm-1-44.448h10.304v-2h-10.304zm9.304-1V248h2v-45.448zm1 44.448h-10.304v2h10.304zm7.12 1h-1a1 1 0 0 0 1 1zm0-45.448v-1a1 1 0 0 0-1 1zm10.304 0 1 .03a1 1 0 0 0-1-1.03zm-.368 12.144-.999-.03a.997.997 0 0 0 .999 1.03zm.092 0v1a1 1 0 0 0 .957-.71zM398.687 248v1a1 1 0 0 0 1-1zm-10.304 0h-1a1 1 0 0 0 1 1zm-26.956 0v1a1 1 0 0 0 1-1zm-9.304 0v-45.448h-2V248zm-1-44.448h10.304v-2h-10.304zm9.305-1.03-.368 12.144 1.999.06.368-12.144zm.631 13.174h.092v-2h-.092zm1.049-.71c1.193-3.93 3.175-6.942 6.061-8.984 2.892-2.046 6.79-3.186 11.934-3.186v-2c-5.435 0-9.771 1.206-13.089 3.553-3.324 2.351-5.528 5.779-6.82 10.037zm17.995-12.17c5.565 0 9.94 1.578 12.918 4.395 2.969 2.81 4.666 6.965 4.666 12.361h2c0-5.828-1.845-10.551-5.292-13.813-3.44-3.255-8.356-4.943-14.292-4.943zm17.584 16.756V248h2v-28.428zm1 27.428h-10.304v2h10.304zm-9.304 1v-26.128h-2V248zm0-26.128c0-3.774-1.068-6.88-3.363-9.032-2.284-2.142-5.627-3.192-9.873-3.192v2c3.943 0 6.718.974 8.505 2.65 1.776 1.666 2.731 4.172 2.731 7.574zm-13.236-12.224c-4.709 0-8.671 1.422-11.454 4.255-2.782 2.832-4.266 6.951-4.266 12.109h2c0-4.778 1.369-8.341 3.693-10.707 2.322-2.365 5.721-3.657 10.027-3.657zm-15.72 16.364V248h2v-21.988zm1 20.988h-10.304v2h10.304zm50.695-.564.05.999a1 1 0 0 0 .95-.999zm0-.092h1a1 1 0 0 0-.439-.827zm.276-15.18.433.901a1 1 0 0 0 .567-.901zm0-.184h1a1 1 0 0 0-.478-.853zm25.944-26.22-.504.864a1 1 0 0 0 1.211-.157zm.092-.092.707.707a1 1 0 0 0 .022-1.391zm11.316-10.672h1a1 1 0 0 0-.758-.97zm0 7.268-.352.936a1 1 0 0 0 1.352-.936zm-6.532 7.912-.954.301q.05.157.146.289zm-25.576 24.012.26-.966c-.372-.1-.769.023-1.02.315zm18.768 8.636c4.749 0 8.35 1.033 10.739 2.824 2.349 1.763 3.625 4.33 3.625 7.676h2c0-3.922-1.531-7.105-4.425-9.276-2.856-2.141-6.937-3.224-11.939-3.224zm14.364 10.5c0 4.418-2.036 7.929-5.875 10.381-3.886 2.482-9.653 3.891-17.045 3.891v2c7.603 0 13.796-1.443 18.121-4.205 4.372-2.792 6.799-6.917 6.799-12.067zm-22.92 14.272c-7.604 0-13.563-1.165-17.582-3.257-3.978-2.07-5.982-4.991-5.982-8.623h-2c0 4.556 2.595 8.075 7.058 10.398 4.422 2.301 10.746 3.482 18.506 3.482zm-23.564-11.88c0-2.041.749-3.776 2.071-5.038 1.328-1.268 3.295-2.115 5.811-2.243l-.101-1.998c-2.911.148-5.36 1.141-7.092 2.794-1.737 1.659-2.689 3.926-2.689 6.485zm8.832-8.28v-.092h-2v.092zm-.439-.919c-2.309-1.567-3.517-3.745-3.517-6.625h-2c0 3.56 1.551 6.35 4.394 8.279zm-3.517-6.625c0-3.543 1.581-5.823 3.665-6.827l-.867-1.802c-2.884 1.388-4.798 4.444-4.798 8.629zm4.232-7.728v-.184h-2v.184zm-.478-1.037c-4.193-2.567-6.514-6.741-6.514-12.119h-2c0 6.03 2.647 10.872 7.469 13.825zm-6.514-12.119c0-4.684 1.809-8.438 5.054-11.042 3.269-2.624 8.085-4.15 14.186-4.15v-2c-6.412 0-11.716 1.602-15.438 4.59-3.748 3.008-5.802 7.35-5.802 12.602zm19.24-15.192c5.025 0 9.071.987 12.192 2.808l1.007-1.728c-3.503-2.043-7.921-3.08-13.199-3.08zm13.403 2.651.092-.092-1.415-1.414-.092.092zm.114-1.483c-1.245-1.328-1.937-2.842-1.937-4.468h-2c0 2.238.963 4.22 2.478 5.836zm-1.937-4.468c0-1.474.679-2.67 1.981-3.538 1.336-.891 3.353-1.442 5.943-1.442v-2c-2.839 0-5.284.599-7.053 1.778-1.803 1.202-2.871 2.996-2.871 5.202zm7.924-4.98c2.145 0 3.349.178 4.357.43l.485-1.94c-1.2-.3-2.572-.49-4.842-.49zm3.6-.54v7.268h2v-7.268zm1.351 6.332c-.874-.328-2.011-.524-3.387-.524v2c1.199 0 2.087.172 2.684.396zm-3.387-.524c-1.636 0-3.037.344-4.039 1.191-1.033.875-1.469 2.136-1.469 3.581h2c0-1.039.3-1.664.761-2.054.493-.418 1.346-.718 2.747-.718zm-5.508 4.772c0 1.471.517 3.188 1.058 4.901l1.907-.602c-.563-1.783-.965-3.194-.965-4.299zm1.204 5.19c1.605 2.197 2.476 5.018 2.476 8.242h2c0-3.584-.97-6.835-2.861-9.422zm2.476 8.242c0 4.732-1.811 8.484-5.053 11.075-3.268 2.613-8.083 4.117-14.187 4.117v2c6.407 0 11.712-1.578 15.436-4.554 3.75-2.998 5.804-7.342 5.804-12.638zm-19.24 15.192c-2.861 0-5.441-.357-7.744-.978l-.52 1.932c2.48.667 5.236 1.046 8.264 1.046zm-8.764-.663c-.726.848-1.344 2.375-1.344 4.147h2c0-1.356.485-2.405.863-2.845zm-1.344 4.147c0 1.546.563 2.882 1.701 3.811 1.111.906 2.652 1.329 4.451 1.329v-2c-1.514 0-2.549-.359-3.186-.879-.61-.497-.966-1.231-.966-2.261zm6.152 5.14h14.72v-2h-14.72zm3.956-33.648c-3.388 0-6.24.896-8.262 2.62-2.041 1.739-3.134 4.238-3.134 7.212h2c0-2.454.884-4.371 2.431-5.691 1.566-1.335 3.912-2.141 6.965-2.141zm-11.396 9.832c0 2.974 1.093 5.473 3.134 7.212 2.022 1.724 4.874 2.62 8.262 2.62v-2c-3.053 0-5.399-.806-6.965-2.141-1.547-1.32-2.431-3.237-2.431-5.691zm11.396 9.832c3.387 0 6.239-.896 8.261-2.62 2.041-1.739 3.135-4.238 3.135-7.212h-2c0 2.454-.885 4.371-2.432 5.691-1.566 1.335-3.912 2.141-6.964 2.141zm11.396-9.832c0-2.974-1.094-5.473-3.135-7.212-2.022-1.724-4.874-2.62-8.261-2.62v2c3.052 0 5.398.806 6.964 2.141 1.547 1.32 2.432 3.237 2.432 5.691zm-9.28 43.32c4.896 0 8.518-.695 10.95-2.006 2.5-1.346 3.758-3.363 3.758-5.802h-2c0 1.609-.766 2.996-2.706 4.042-2.006 1.081-5.239 1.766-10.002 1.766zm14.708-7.808c0-1.812-.71-3.315-2.203-4.315-1.425-.954-3.453-1.377-5.973-1.377v2c2.355 0 3.915.405 4.86 1.038.875.587 1.316 1.43 1.316 2.654zm-8.176-5.692h-12.328v2h12.328zm-12.328 0c-2.649 0-4.965.397-6.655 1.347-1.759.99-2.809 2.573-2.809 4.713h2c0-1.356.605-2.303 1.79-2.969 1.255-.706 3.17-1.091 5.674-1.091zm-9.464 6.06c0 2.708 1.774 4.6 4.455 5.759 2.656 1.149 6.379 1.681 10.805 1.681v-2c-4.315 0-7.722-.526-10.011-1.516-2.264-.98-3.249-2.308-3.249-3.924z" style="fill:#1c5344;fill:color(display-p3 .1098 .3255 .2667);fill-opacity:1"/><g style="mix-blend-mode:multiply"><mask id="i" width="199" height="83" x="134" y="120" fill="#000" maskUnits="userSpaceOnUse"><path fill="#fff" d="M134 120h199v83H134z"/><path d="M154.608 182v-51.428H135.84v-9.108h48.576v9.108h-18.768V182zm41.123 19.228c-3.496 0-6.256-.736-7.544-1.196v-8.096c1.288.368 3.404.92 5.704.92 4.784 0 6.992-2.392 10.396-10.856h-2.484l-19.688-45.448h11.868l14.444 35.052h.184l12.788-35.052h10.12l-17.296 46.368c-5.06 13.616-9.476 18.308-18.492 18.308m39.478-1.012v-63.664h10.304l-.184 10.58h.092c1.84-6.9 7.912-11.316 16.928-11.316 12.972 0 21.16 8.924 21.16 22.632 0 14.72-8.28 24.288-21.344 24.288-9.016 0-14.904-4.048-16.836-9.936h-.092c.092 3.036.276 7.728.276 9.568v17.848zm24.932-25.944c7.912 0 13.064-6.072 13.064-15.548 0-8.74-5.06-14.444-13.248-14.444-8.556 0-14.26 5.796-14.444 14.904v2.392c0 7.728 5.796 12.696 14.628 12.696m71.668-16.652v3.68h-34.04c.552 8.74 5.428 13.432 13.156 13.432 6.624 0 11.132-2.944 11.592-8.28h9.292c-.368 10.12-8.648 16.284-21.068 16.284-14.352 0-23.368-8.832-23.368-23.092 0-14.72 9.016-23.828 23.368-23.828 12.88 0 21.068 7.636 21.068 21.804m-9.292-2.576v-.644c0-6.808-4.232-10.58-11.684-10.58-7.084 0-11.592 3.68-12.788 11.224z"/></mask><path fill="#CAE7DE" d="M154.608 182v-51.428H135.84v-9.108h48.576v9.108h-18.768V182zm41.123 19.228c-3.496 0-6.256-.736-7.544-1.196v-8.096c1.288.368 3.404.92 5.704.92 4.784 0 6.992-2.392 10.396-10.856h-2.484l-19.688-45.448h11.868l14.444 35.052h.184l12.788-35.052h10.12l-17.296 46.368c-5.06 13.616-9.476 18.308-18.492 18.308m39.478-1.012v-63.664h10.304l-.184 10.58h.092c1.84-6.9 7.912-11.316 16.928-11.316 12.972 0 21.16 8.924 21.16 22.632 0 14.72-8.28 24.288-21.344 24.288-9.016 0-14.904-4.048-16.836-9.936h-.092c.092 3.036.276 7.728.276 9.568v17.848zm24.932-25.944c7.912 0 13.064-6.072 13.064-15.548 0-8.74-5.06-14.444-13.248-14.444-8.556 0-14.26 5.796-14.444 14.904v2.392c0 7.728 5.796 12.696 14.628 12.696m71.668-16.652v3.68h-34.04c.552 8.74 5.428 13.432 13.156 13.432 6.624 0 11.132-2.944 11.592-8.28h9.292c-.368 10.12-8.648 16.284-21.068 16.284-14.352 0-23.368-8.832-23.368-23.092 0-14.72 9.016-23.828 23.368-23.828 12.88 0 21.068 7.636 21.068 21.804m-9.292-2.576v-.644c0-6.808-4.232-10.58-11.684-10.58-7.084 0-11.592 3.68-12.788 11.224z" style="fill:#cae7de;fill:color(display-p3 .7922 .9059 .8706);fill-opacity:1"/><path fill="#CAE7DE" d="M154.608 182h-1a1 1 0 0 0 1 1zm0-51.428h1a1 1 0 0 0-1-1zm-18.768 0h-1a1 1 0 0 0 1 1zm0-9.108v-1a1 1 0 0 0-1 1zm48.576 0h1a1 1 0 0 0-1-1zm0 9.108v1a1 1 0 0 0 1-1zm-18.768 0v-1a1 1 0 0 0-1 1zm0 51.428v1a1 1 0 0 0 1-1zm-10.04 0v-51.428h-2V182zm-1-52.428H135.84v2h18.768zm-17.768 1v-9.108h-2v9.108zm-1-8.108h48.576v-2H135.84zm47.576-1v9.108h2v-9.108zm1 8.108h-18.768v2h18.768zm-19.768 1V182h2v-51.428zm1 50.428h-11.04v2h11.04zm22.539 19.032h-1a1 1 0 0 0 .664.942zm0-8.096.275-.962a1 1 0 0 0-1.275.962zm16.1-9.936.928.373a1 1 0 0 0-.928-1.373zm-2.484 0-.917.398a1 1 0 0 0 .917.602zm-19.688-45.448v-1a1 1 0 0 0-.917 1.398zm11.868 0 .925-.381a1 1 0 0 0-.925-.619zm14.444 35.052-.924.381a1 1 0 0 0 .924.619zm.184 0v1c.42 0 .796-.263.94-.657zm12.788-35.052v-1a1 1 0 0 0-.939.657zm10.12 0 .937.349a1.001 1.001 0 0 0-.937-1.349zm-17.296 46.368-.937-.349v.001zm-18.492 17.308c-3.363 0-6.009-.71-7.207-1.138l-.673 1.884c1.378.492 4.252 1.254 7.88 1.254zm-6.544-.196v-8.096h-2v8.096zm-1.274-7.134c1.306.373 3.533.958 5.978.958v-2c-2.154 0-4.159-.519-5.429-.882zm5.978.958c2.605 0 4.638-.67 6.44-2.565 1.721-1.808 3.183-4.687 4.884-8.918l-1.855-.746c-1.703 4.233-3.047 6.782-4.478 8.286-1.348 1.417-2.812 1.943-4.991 1.943zM204.287 181h-2.484v2h2.484zm-1.566.602-19.688-45.448-1.835.796 19.688 45.448zm-20.606-44.05h11.868v-2h-11.868zm10.944-.619 14.444 35.052 1.849-.762-14.444-35.052zm15.368 35.671h.184v-2h-.184zm1.124-.657 12.788-35.052-1.879-.686-12.788 35.052zm11.848-34.395h10.12v-2h-10.12zm9.183-1.349-17.296 46.368 1.874.698 17.296-46.368zm-17.296 46.369c-2.523 6.788-4.832 11.189-7.534 13.902-2.638 2.649-5.72 3.754-10.021 3.754v2c4.716 0 8.349-1.241 11.438-4.342 3.025-3.037 5.454-7.79 7.992-14.618zm21.923 17.644h-1a1 1 0 0 0 1 1zm0-63.664v-1a1 1 0 0 0-1 1zm10.304 0 .999.017a.997.997 0 0 0-.999-1.017zm-.184 10.58-1-.017a.997.997 0 0 0 1 1.017zm.092 0v1a1 1 0 0 0 .966-.742zm-.092 25.668.95-.312a1 1 0 0 0-.95-.688zm-.092 0v-1a1 1 0 0 0-1 1.03zm.276 27.416v1a1 1 0 0 0 1-1zm0-41.032-1-.02v.02zm-9.304 41.032v-63.664h-2v63.664zm-1-62.664h10.304v-2h-10.304zm9.304-1.017-.184 10.58 1.999.034.184-10.58zm.816 11.597h.092v-2h-.092zm1.058-.742c1.7-6.376 7.303-10.574 15.962-10.574v-2c-9.373 0-15.915 4.634-17.895 12.058zm15.962-10.574c6.246 0 11.257 2.142 14.712 5.857 3.462 3.722 5.448 9.118 5.448 15.775h2c0-7.051-2.109-12.971-5.984-17.138-3.882-4.174-9.451-6.494-16.176-6.494zm20.16 21.632c0 7.178-2.018 12.997-5.526 17.005-3.495 3.995-8.547 6.283-14.818 6.283v2c6.792 0 12.413-2.496 16.323-6.965 3.898-4.456 6.021-10.781 6.021-18.323zm-20.344 23.288c-8.714 0-14.126-3.882-15.886-9.248l-1.901.624c2.104 6.41 8.469 10.624 17.787 10.624zm-16.836-9.936h-.092v2h.092zm-1.092 1.03c.093 3.062.276 7.718.276 9.538h2c0-1.86-.186-6.588-.277-9.598zm.276 9.538v17.848h2v-17.848zm1 16.848h-10.304v2h10.304zm14.628-23.944c4.231 0 7.784-1.634 10.263-4.576 2.465-2.925 3.801-7.06 3.801-11.972h-2c0 4.564-1.241 8.203-3.33 10.683-2.075 2.463-5.054 3.865-8.734 3.865zm14.064-16.548c0-4.559-1.322-8.43-3.814-11.172-2.502-2.753-6.096-4.272-10.434-4.272v2c3.849 0 6.879 1.333 8.954 3.617 2.085 2.295 3.294 5.646 3.294 9.827zm-14.248-15.444c-4.512 0-8.348 1.534-11.078 4.339-2.727 2.801-4.27 6.786-4.366 11.545l1.999.04c.088-4.349 1.489-7.816 3.8-10.19 2.306-2.37 5.6-3.734 9.645-3.734zm-15.444 15.904v2.392h2v-2.392zm0 2.392c0 4.132 1.558 7.59 4.347 10.002 2.775 2.4 6.683 3.694 11.281 3.694v-2c-4.235 0-7.641-1.19-9.972-3.206-2.317-2.004-3.656-4.894-3.656-8.49zm87.296-.276v1a1 1 0 0 0 1-1zm-34.04 0v-1a1 1 0 0 0-.729.316 1 1 0 0 0-.269.747zm24.748 5.152v-1a1 1 0 0 0-.997.914zm9.292 0 .999.036a1 1 0 0 0-.28-.73 1 1 0 0 0-.719-.306zm-9.292-11.408v1a1 1 0 0 0 1-1zm-24.472 0-.988-.157a1 1 0 0 0 .988 1.157zm32.764 2.576v3.68h2v-3.68zm1 2.68h-34.04v2h34.04zm-35.038 1.063c.286 4.538 1.705 8.152 4.176 10.636 2.479 2.491 5.906 3.733 9.978 3.733v-2c-3.656 0-6.531-1.104-8.56-3.144-2.038-2.047-3.333-5.149-3.598-9.351zm14.154 14.369c3.447 0 6.45-.764 8.679-2.319 2.258-1.574 3.654-3.914 3.909-6.875l-1.993-.172c-.204 2.375-1.293 4.175-3.06 5.407-1.795 1.251-4.358 1.959-7.535 1.959zm11.592-8.28h9.292v-2h-9.292zm8.292-1.036c-.173 4.768-2.197 8.559-5.622 11.179-3.449 2.638-8.391 4.141-14.446 4.141v2c6.365 0 11.773-1.579 15.661-4.553 3.911-2.992 6.211-7.343 6.406-12.695zm-20.068 15.32c-6.97 0-12.54-2.141-16.364-5.911-3.823-3.768-6.004-9.265-6.004-16.181h-2c0 7.344 2.326 13.393 6.6 17.606 4.271 4.211 10.385 6.486 17.768 6.486zm-22.368-22.092c0-7.155 2.187-12.84 6.015-16.733 3.826-3.891 9.392-6.095 16.353-6.095v-2c-7.392 0-13.509 2.35-17.779 6.693-4.269 4.341-6.589 10.57-6.589 18.135zm22.368-22.828c6.243 0 11.229 1.847 14.654 5.294s5.414 8.618 5.414 15.51h2c0-7.276-2.106-13.007-5.995-16.92s-9.437-5.884-16.073-5.884zm12.776 18.228v-.644h-2v.644zm0-.644c0-3.618-1.132-6.56-3.378-8.586-2.231-2.011-5.423-2.994-9.306-2.994v2c3.568 0 6.218.903 7.966 2.48 1.733 1.562 2.718 3.91 2.718 7.1zm-12.684-11.58c-3.716 0-6.867.968-9.255 3.025-2.387 2.057-3.897 5.105-4.521 9.042l1.975.314c.572-3.607 1.915-6.171 3.851-7.84s4.581-2.541 7.95-2.541zm-12.788 13.224h24.472v-2h-24.472z" mask="url(#i)" style="fill:#cae7de;fill:color(display-p3 .7922 .9059 .8706);fill-opacity:1"/></g><path fill="#1C5344" d="M154.608 178h-1a1 1 0 0 0 1 1zm0-51.428h1a1 1 0 0 0-1-1zm-18.768 0h-1a1 1 0 0 0 1 1zm0-9.108v-1a1 1 0 0 0-1 1zm48.576 0h1a1 1 0 0 0-1-1zm0 9.108v1a1 1 0 0 0 1-1zm-18.768 0v-1a1 1 0 0 0-1 1zm0 51.428v1a1 1 0 0 0 1-1zm-10.04 0v-51.428h-2V178zm-1-52.428H135.84v2h18.768zm-17.768 1v-9.108h-2v9.108zm-1-8.108h48.576v-2H135.84zm47.576-1v9.108h2v-9.108zm1 8.108h-18.768v2h18.768zm-19.768 1V178h2v-51.428zm1 50.428h-11.04v2h11.04zm22.539 19.032h-1a1 1 0 0 0 .664.942zm0-8.096.275-.962a1 1 0 0 0-1.275.962zm16.1-9.936.928.373a1 1 0 0 0-.928-1.373zm-2.484 0-.917.398a1 1 0 0 0 .917.602zm-19.688-45.448v-1a1 1 0 0 0-.917 1.398zm11.868 0 .925-.381a1 1 0 0 0-.925-.619zm14.444 35.052-.924.381a1 1 0 0 0 .924.619zm.184 0v1c.42 0 .796-.263.94-.657zm12.788-35.052v-1a1 1 0 0 0-.939.657zm10.12 0 .937.349a1.001 1.001 0 0 0-.937-1.349zm-17.296 46.368-.937-.349v.001zm-18.492 17.308c-3.363 0-6.009-.71-7.207-1.138l-.673 1.884c1.378.492 4.252 1.254 7.88 1.254zm-6.544-.196v-8.096h-2v8.096zm-1.274-7.134c1.306.373 3.533.958 5.978.958v-2c-2.154 0-4.159-.519-5.429-.882zm5.978.958c2.605 0 4.638-.67 6.44-2.565 1.721-1.808 3.183-4.687 4.884-8.918l-1.855-.746c-1.703 4.233-3.047 6.782-4.478 8.286-1.348 1.417-2.812 1.943-4.991 1.943zM204.287 177h-2.484v2h2.484zm-1.566.602-19.688-45.448-1.835.796 19.688 45.448zm-20.606-44.05h11.868v-2h-11.868zm10.944-.619 14.444 35.052 1.849-.762-14.444-35.052zm15.368 35.671h.184v-2h-.184zm1.124-.657 12.788-35.052-1.879-.686-12.788 35.052zm11.848-34.395h10.12v-2h-10.12zm9.183-1.349-17.296 46.368 1.874.698 17.296-46.368zm-17.296 46.369c-2.523 6.788-4.832 11.189-7.534 13.902-2.638 2.649-5.72 3.754-10.021 3.754v2c4.716 0 8.349-1.241 11.438-4.342 3.025-3.037 5.454-7.79 7.992-14.618zm21.923 17.644h-1a1 1 0 0 0 1 1zm0-63.664v-1a1 1 0 0 0-1 1zm10.304 0 .999.017a.997.997 0 0 0-.999-1.017zm-.184 10.58-1-.017a.997.997 0 0 0 1 1.017zm.092 0v1a1 1 0 0 0 .966-.742zm-.092 25.668.95-.312a1 1 0 0 0-.95-.688zm-.092 0v-1a1 1 0 0 0-1 1.03zm.276 27.416v1a1 1 0 0 0 1-1zm0-41.032-1-.02v.02zm-9.304 41.032v-63.664h-2v63.664zm-1-62.664h10.304v-2h-10.304zm9.304-1.017-.184 10.58 1.999.034.184-10.58zm.816 11.597h.092v-2h-.092zm1.058-.742c1.7-6.376 7.303-10.574 15.962-10.574v-2c-9.373 0-15.915 4.634-17.895 12.058zm15.962-10.574c6.246 0 11.257 2.142 14.712 5.857 3.462 3.722 5.448 9.118 5.448 15.775h2c0-7.051-2.109-12.971-5.984-17.138-3.882-4.174-9.451-6.494-16.176-6.494zm20.16 21.632c0 7.178-2.018 12.997-5.526 17.005-3.495 3.995-8.547 6.283-14.818 6.283v2c6.792 0 12.413-2.496 16.323-6.965 3.898-4.456 6.021-10.781 6.021-18.323zm-20.344 23.288c-8.714 0-14.126-3.882-15.886-9.248l-1.901.624c2.104 6.41 8.469 10.624 17.787 10.624zm-16.836-9.936h-.092v2h.092zm-1.092 1.03c.093 3.062.276 7.718.276 9.538h2c0-1.86-.186-6.588-.277-9.598zm.276 9.538v17.848h2v-17.848zm1 16.848h-10.304v2h10.304zm14.628-23.944c4.231 0 7.784-1.634 10.263-4.576 2.465-2.925 3.801-7.06 3.801-11.972h-2c0 4.564-1.241 8.203-3.33 10.683-2.075 2.463-5.054 3.865-8.734 3.865zm14.064-16.548c0-4.559-1.322-8.43-3.814-11.172-2.502-2.753-6.096-4.272-10.434-4.272v2c3.849 0 6.879 1.333 8.954 3.617 2.085 2.295 3.294 5.646 3.294 9.827zm-14.248-15.444c-4.512 0-8.348 1.534-11.078 4.339-2.727 2.801-4.27 6.786-4.366 11.545l1.999.04c.088-4.349 1.489-7.816 3.8-10.19 2.306-2.37 5.6-3.734 9.645-3.734zm-15.444 15.904v2.392h2v-2.392zm0 2.392c0 4.132 1.558 7.59 4.347 10.002 2.775 2.4 6.683 3.694 11.281 3.694v-2c-4.235 0-7.641-1.19-9.972-3.206-2.317-2.004-3.656-4.894-3.656-8.49zm87.296-.276v1a1 1 0 0 0 1-1zm-34.04 0v-1a1 1 0 0 0-.729.316 1 1 0 0 0-.269.747zm24.748 5.152v-1a1 1 0 0 0-.997.914zm9.292 0 .999.036a1 1 0 0 0-.28-.73 1 1 0 0 0-.719-.306zm-9.292-11.408v1a1 1 0 0 0 1-1zm-24.472 0-.988-.157a1 1 0 0 0 .988 1.157zm32.764 2.576v3.68h2v-3.68zm1 2.68h-34.04v2h34.04zm-35.038 1.063c.286 4.538 1.705 8.152 4.176 10.636 2.479 2.491 5.906 3.733 9.978 3.733v-2c-3.656 0-6.531-1.104-8.56-3.144-2.038-2.047-3.333-5.149-3.598-9.351zm14.154 14.369c3.447 0 6.45-.764 8.679-2.319 2.258-1.574 3.654-3.914 3.909-6.875l-1.993-.172c-.204 2.375-1.293 4.175-3.06 5.407-1.795 1.251-4.358 1.959-7.535 1.959zm11.592-8.28h9.292v-2h-9.292zm8.292-1.036c-.173 4.768-2.197 8.559-5.622 11.179-3.449 2.638-8.391 4.141-14.446 4.141v2c6.365 0 11.773-1.579 15.661-4.553 3.911-2.992 6.211-7.343 6.406-12.695zm-20.068 15.32c-6.97 0-12.54-2.141-16.364-5.911-3.823-3.768-6.004-9.265-6.004-16.181h-2c0 7.344 2.326 13.393 6.6 17.606 4.271 4.211 10.385 6.486 17.768 6.486zm-22.368-22.092c0-7.155 2.187-12.84 6.015-16.733 3.826-3.891 9.392-6.095 16.353-6.095v-2c-7.392 0-13.509 2.35-17.779 6.693-4.269 4.341-6.589 10.57-6.589 18.135zm22.368-22.828c6.243 0 11.229 1.847 14.654 5.294s5.414 8.618 5.414 15.51h2c0-7.276-2.106-13.007-5.995-16.92s-9.437-5.884-16.073-5.884zm12.776 18.228v-.644h-2v.644zm0-.644c0-3.618-1.132-6.56-3.378-8.586-2.231-2.011-5.423-2.994-9.306-2.994v2c3.568 0 6.218.903 7.966 2.48 1.733 1.562 2.718 3.91 2.718 7.1zm-12.684-11.58c-3.716 0-6.867.968-9.255 3.025-2.387 2.057-3.897 5.105-4.521 9.042l1.975.314c.572-3.607 1.915-6.171 3.851-7.84s4.581-2.541 7.95-2.541zm-12.788 13.224h24.472v-2h-24.472z" style="fill:#1c5344;fill:color(display-p3 .1098 .3255 .2667);fill-opacity:1"/><g filter="url(#j)" opacity=".4" style="mix-blend-mode:multiply"><rect width="4" height="18" x="175" y="150" fill="#4F7FDA" rx="2" style="fill:#4f7fda;fill:color(display-p3 .3098 .498 .8549);fill-opacity:1"/></g><g filter="url(#k)" opacity=".2"><rect width="4" height="19" x="175" y="151" fill="#6190E5" rx="2" style="fill:#6190e5;fill:color(display-p3 .3804 .5647 .898);fill-opacity:1"/></g><g filter="url(#l)" opacity=".3"><rect width="4" height="18" x="175" y="150" fill="#8E77E4" rx="2" style="fill:#8e77e4;fill:color(display-p3 .5569 .4667 .8941);fill-opacity:1"/></g><g filter="url(#m)"><rect width="2" height="16" x="176" y="151" fill="#4F7FDA" rx="1" style="fill:#4f7fda;fill:color(display-p3 .3098 .498 .8549);fill-opacity:1"/></g><rect width="4" height="18" x="175" y="150" fill="#fff" rx="2" style="fill:#fff;fill-opacity:1"/><g filter="url(#n)"><rect width="2" height="16" x="176" y="151" fill="#CDB9F5" rx="1" style="fill:#cdb9f5;fill:color(display-p3 .8039 .7255 .9608);fill-opacity:1"/></g><g filter="url(#o)"><rect width="2" height="16" x="176" y="152" fill="#F7C9E6" rx="1" style="fill:#f7c9e6;fill:color(display-p3 .9686 .7882 .902);fill-opacity:1"/></g><g filter="url(#p)"><rect width="2" height="16" x="176" y="151" fill="#F9EFBD" rx="1" style="fill:#f9efbd;fill:color(display-p3 .9765 .9373 .7412);fill-opacity:1"/></g><rect width="2" height="16" x="176" y="151" fill="#6190E5" rx="1" style="fill:#6190e5;fill:color(display-p3 .3804 .5647 .898);fill-opacity:1"/><g filter="url(#q)" opacity=".5"><rect width="1" height="16" x="177" y="151" fill="#ACCBF6" rx=".5" style="fill:#accbf6;fill:color(display-p3 .6745 .7961 .9647);fill-opacity:1"/></g><g style="mix-blend-mode:multiply"><path stroke="#A28F8C" stroke-dasharray="2 8" stroke-linecap="round" stroke-width="2" d="M135 114h201" style="stroke:#a28f8c;stroke:color(display-p3 .6353 .5608 .549);stroke-opacity:1"/></g><g style="mix-blend-mode:multiply"><path stroke="#A28F8C" stroke-dasharray="2 8" stroke-linecap="round" stroke-width="2" d="M192 129h144" style="stroke:#a28f8c;stroke:color(display-p3 .6353 .5608 .549);stroke-opacity:1"/></g><g style="mix-blend-mode:multiply"><path stroke="#A28F8C" stroke-dasharray="2 8" stroke-linecap="round" stroke-width="2" d="M169 271h289" style="stroke:#a28f8c;stroke:color(display-p3 .6353 .5608 .549);stroke-opacity:1"/></g><g style="mix-blend-mode:multiply"><path stroke="#A28F8C" stroke-dasharray="2 8" stroke-linecap="round" stroke-width="2" d="M169 252h230" style="stroke:#a28f8c;stroke:color(display-p3 .6353 .5608 .549);stroke-opacity:1"/></g><g style="mix-blend-mode:multiply"><path stroke="#A28F8C" stroke-dasharray="2 8" stroke-linecap="round" stroke-width="2" d="M135 182h49" style="stroke:#a28f8c;stroke:color(display-p3 .6353 .5608 .549);stroke-opacity:1"/></g><g style="mix-blend-mode:multiply"><path stroke="#A28F8C" stroke-dasharray="2 8" stroke-linecap="round" stroke-width="2" d="M217 182h15" style="stroke:#a28f8c;stroke:color(display-p3 .6353 .5608 .549);stroke-opacity:1"/></g><g style="mix-blend-mode:multiply"><path stroke="#A28F8C" stroke-dasharray="2 8" stroke-linecap="round" stroke-width="2" d="M249 182h87" style="stroke:#a28f8c;stroke:color(display-p3 .6353 .5608 .549);stroke-opacity:1"/></g><defs><filter id="a" width="26" height="12" x="279" y="186" color-interpolation-filters="sRGB" filterUnits="userSpaceOnUse"><feFlood flood-opacity="0" result="BackgroundImageFix"/><feBlend in="SourceGraphic" in2="BackgroundImageFix" result="shape"/><feGaussianBlur result="effect1_foregroundBlur_674_11014" stdDeviation="2"/></filter><filter id="b" width="25" height="10" x="278" y="187" color-interpolation-filters="sRGB" filterUnits="userSpaceOnUse"><feFlood flood-opacity="0" result="BackgroundImageFix"/><feBlend in="SourceGraphic" in2="BackgroundImageFix" result="shape"/><feGaussianBlur result="effect1_foregroundBlur_674_11014" stdDeviation="1.5"/></filter><filter id="c" width="22" height="8" x="281" y="188" color-interpolation-filters="sRGB" filterUnits="userSpaceOnUse"><feFlood flood-opacity="0" result="BackgroundImageFix"/><feBlend in="SourceGraphic" in2="BackgroundImageFix" result="shape"/><feGaussianBlur result="effect1_foregroundBlur_674_11014" stdDeviation="1"/></filter><filter id="d" width="32" height="18" x="276" y="183" color-interpolation-filters="sRGB" filterUnits="userSpaceOnUse"><feFlood flood-opacity="0" result="BackgroundImageFix"/><feBlend in="SourceGraphic" in2="BackgroundImageFix" result="shape"/><feGaussianBlur result="effect1_foregroundBlur_674_11014" stdDeviation="4"/></filter><filter id="e" width="18" height="4" x="283" y="190" color-interpolation-filters="sRGB" filterUnits="userSpaceOnUse"><feFlood flood-opacity="0" result="BackgroundImageFix"/><feBlend in="SourceGraphic" in2="BackgroundImageFix" result="shape"/><feGaussianBlur result="effect1_foregroundBlur_674_11014" stdDeviation=".5"/></filter><filter id="f" width="18" height="4" x="282" y="190" color-interpolation-filters="sRGB" filterUnits="userSpaceOnUse"><feFlood flood-opacity="0" result="BackgroundImageFix"/><feBlend in="SourceGraphic" in2="BackgroundImageFix" result="shape"/><feGaussianBlur result="effect1_foregroundBlur_674_11014" stdDeviation=".5"/></filter><filter id="g" width="18" height="4" x="283" y="190" color-interpolation-filters="sRGB" filterUnits="userSpaceOnUse"><feFlood flood-opacity="0" result="BackgroundImageFix"/><feBlend in="SourceGraphic" in2="BackgroundImageFix" result="shape"/><feGaussianBlur result="effect1_foregroundBlur_674_11014" stdDeviation=".5"/></filter><filter id="h" width="18" height="3" x="283" y="191" color-interpolation-filters="sRGB" filterUnits="userSpaceOnUse"><feFlood flood-opacity="0" result="BackgroundImageFix"/><feBlend in="SourceGraphic" in2="BackgroundImageFix" result="shape"/><feGaussianBlur result="effect1_foregroundBlur_674_11014" stdDeviation=".5"/></filter><filter id="j" width="12" height="26" x="171" y="146" color-interpolation-filters="sRGB" filterUnits="userSpaceOnUse"><feFlood flood-opacity="0" result="BackgroundImageFix"/><feBlend in="SourceGraphic" in2="BackgroundImageFix" result="shape"/><feGaussianBlur result="effect1_foregroundBlur_674_11014" stdDeviation="2"/></filter><filter id="k" width="10" height="25" x="172" y="148" color-interpolation-filters="sRGB" filterUnits="userSpaceOnUse"><feFlood flood-opacity="0" result="BackgroundImageFix"/><feBlend in="SourceGraphic" in2="BackgroundImageFix" result="shape"/><feGaussianBlur result="effect1_foregroundBlur_674_11014" stdDeviation="1.5"/></filter><filter id="l" width="8" height="22" x="173" y="148" color-interpolation-filters="sRGB" filterUnits="userSpaceOnUse"><feFlood flood-opacity="0" result="BackgroundImageFix"/><feBlend in="SourceGraphic" in2="BackgroundImageFix" result="shape"/><feGaussianBlur result="effect1_foregroundBlur_674_11014" stdDeviation="1"/></filter><filter id="m" width="18" height="32" x="168" y="143" color-interpolation-filters="sRGB" filterUnits="userSpaceOnUse"><feFlood flood-opacity="0" result="BackgroundImageFix"/><feBlend in="SourceGraphic" in2="BackgroundImageFix" result="shape"/><feGaussianBlur result="effect1_foregroundBlur_674_11014" stdDeviation="4"/></filter><filter id="n" width="4" height="18" x="175" y="150" color-interpolation-filters="sRGB" filterUnits="userSpaceOnUse"><feFlood flood-opacity="0" result="BackgroundImageFix"/><feBlend in="SourceGraphic" in2="BackgroundImageFix" result="shape"/><feGaussianBlur result="effect1_foregroundBlur_674_11014" stdDeviation=".5"/></filter><filter id="o" width="4" height="18" x="175" y="151" color-interpolation-filters="sRGB" filterUnits="userSpaceOnUse"><feFlood flood-opacity="0" result="BackgroundImageFix"/><feBlend in="SourceGraphic" in2="BackgroundImageFix" result="shape"/><feGaussianBlur result="effect1_foregroundBlur_674_11014" stdDeviation=".5"/></filter><filter id="p" width="4" height="18" x="175" y="150" color-interpolation-filters="sRGB" filterUnits="userSpaceOnUse"><feFlood flood-opacity="0" result="BackgroundImageFix"/><feBlend in="SourceGraphic" in2="BackgroundImageFix" result="shape"/><feGaussianBlur result="effect1_foregroundBlur_674_11014" stdDeviation=".5"/></filter><filter id="q" width="3" height="18" x="176" y="150" color-interpolation-filters="sRGB" filterUnits="userSpaceOnUse"><feFlood flood-opacity="0" result="BackgroundImageFix"/><feBlend in="SourceGraphic" in2="BackgroundImageFix" result="shape"/><feGaussianBlur result="effect1_foregroundBlur_674_11014" stdDeviation=".5"/></filter></defs></svg>