<svg xmlns="http://www.w3.org/2000/svg" width="800" height="480" fill="none"><path fill="#FAEEF3" d="M0 24C0 10.745 10.745 0 24 0h752c13.255 0 24 10.745 24 24v432c0 13.255-10.745 24-24 24H24c-13.255 0-24-10.745-24-24V24Z" style="fill:#faeef3;fill:color(display-p3 .9804 .9333 .9529);fill-opacity:1"/><path fill="#1C4526" d="M80.96 179v-22.36H72.8v-3.96h21.12v3.96h-8.16V179h-4.8Zm18.562.32c-4.52 0-7.52-2.16-7.52-6 0-3 2.12-5.36 7.4-5.36h7.32v-1.4c0-2.96-1.72-4.28-5.2-4.28-3.04 0-4.76 1.16-4.76 3.36 0 .12 0 .44.04.76h-4.12c-.04-.28-.08-.8-.08-1.16 0-3.96 3.44-6.32 9.08-6.32 6 0 9.52 2.84 9.52 8.04V179h-4.48c.08-.96.2-2.76.2-4.36h-.04c-.64 2.92-3 4.68-7.36 4.68Zm.92-3.36c3.88 0 6.28-1.88 6.28-4.92v-.36h-6.92c-2.56 0-3.68.88-3.68 2.44 0 1.8 1.6 2.84 4.32 2.84Zm13.57 3.04v-27.72h4.48v18.32h.04l10.64-10.36h5.8l-9.24 8.6 9.76 11.16h-6.08l-6.96-8.32-3.96 3.64V179h-4.48Zm23.009-22.08v-4.4h4.6v4.4h-4.6Zm.04 22.08v-19.76h4.48V179h-4.48Zm7.576 0v-19.76h4.48l-.16 5.28h.04c1.08-3.56 3.64-5.6 8.24-5.6 5 0 8.08 2.84 8.08 7.72V179h-4.48v-11.36c0-3.12-1.76-4.88-5.32-4.88-3.92 0-6.4 2.36-6.4 6.68V179h-4.48Zm37.081-3.12c4.24 0 6.68 1.84 6.68 5 0 4.16-3.88 6.64-10.4 6.64-6.68 0-10.68-2.04-10.68-5.6 0-2 1.48-3.48 3.84-3.6v-.04c-1.12-.76-1.72-1.84-1.72-3.24 0-1.68.76-2.84 1.84-3.36v-.08c-1.96-1.2-3.04-3.16-3.04-5.64 0-4.32 3.36-7.04 8.8-7.04 2.24 0 4.08.44 5.52 1.28l.04-.04c-.6-.64-.96-1.4-.96-2.24 0-1.6 1.52-2.6 3.88-2.6.96 0 1.52.08 2 .2v3.16c-.32-.12-.76-.2-1.32-.2-1.32 0-1.96.56-1.96 1.64 0 .56.2 1.24.44 2 .76 1.04 1.16 2.36 1.16 3.84 0 4.36-3.36 7.04-8.8 7.04-1.28 0-2.44-.16-3.48-.44-.24.28-.48.84-.48 1.52 0 1.12.8 1.8 2.24 1.8h6.4Zm-4.68-13.76c-2.8 0-4.52 1.48-4.52 3.84s1.72 3.84 4.52 3.84 4.52-1.48 4.52-3.84-1.72-3.84-4.52-3.84Zm.92 22.24c4.2 0 5.96-1.2 5.96-2.96 0-1.32-1-2.04-3.12-2.04h-5.36c-2.24 0-3.68.68-3.68 2.2 0 1.88 2.4 2.8 6.2 2.8Zm28.685-5.04c-5.72 0-9.32-4.16-9.32-10.32 0-5.96 3.72-10.08 9.6-10.08 3.72 0 6.04 1.48 6.84 3.8h.04v-11.44h4.48V179h-4.48c.08-1.16.12-2.88.2-4.8h-.08c-.76 3.12-3.24 5.12-7.28 5.12Zm.92-3.68c3.76 0 6.24-2.48 6.24-6.32v-.96c0-3.52-2.44-5.76-6.16-5.76-3.56 0-5.88 2.64-5.88 6.4 0 3.92 2.28 6.64 5.8 6.64Zm32.441-7.24v1.6h-14.8c.24 3.8 2.36 5.84 5.72 5.84 2.88 0 4.84-1.28 5.04-3.6h4.04c-.16 4.4-3.76 7.08-9.16 7.08-6.24 0-10.16-3.84-10.16-10.04 0-6.4 3.92-10.36 10.16-10.36 5.6 0 9.16 3.32 9.16 9.48Zm-4.04-1.12V167c0-2.96-1.84-4.6-5.08-4.6-3.08 0-5.04 1.6-5.56 4.88h10.64Zm14.977 12.04c-6.8 0-9.24-3.04-9.24-6.92h4.04c0 2.28 1.32 3.68 5.16 3.68 3.64 0 5.24-1.12 5.24-2.92 0-.76-.28-1.44-1.32-1.8-.96-.36-2.84-.56-5.04-.76-3.08-.28-5.16-.68-6.36-1.56-1.08-.8-1.72-2.24-1.72-3.76 0-3.96 3.84-6.36 9.2-6.36 6.16 0 8.88 2.56 8.88 7.04h-4.04c-.04-2.56-1.44-3.8-4.72-3.8-3.12 0-4.88 1.12-4.88 2.8 0 .84.2 1.64 1.36 2.04.96.32 2.84.52 5.24.76 2.8.28 4.4.56 5.8 1.36 1.32.72 2.08 2.24 2.08 3.84 0 4-3.36 6.36-9.68 6.36Zm12.067-22.4v-4.4h4.6v4.4h-4.6Zm.04 22.08v-19.76h4.48V179h-4.48Zm21.296-3.12c4.24 0 6.68 1.84 6.68 5 0 4.16-3.88 6.64-10.4 6.64-6.68 0-10.68-2.04-10.68-5.6 0-2 1.48-3.48 3.84-3.6v-.04c-1.12-.76-1.72-1.84-1.72-3.24 0-1.68.76-2.84 1.84-3.36v-.08c-1.96-1.2-3.04-3.16-3.04-5.64 0-4.32 3.36-7.04 8.8-7.04 2.24 0 4.08.44 5.52 1.28l.04-.04c-.6-.64-.96-1.4-.96-2.24 0-1.6 1.52-2.6 3.88-2.6.96 0 1.52.08 2 .2v3.16c-.32-.12-.76-.2-1.32-.2-1.32 0-1.96.56-1.96 1.64 0 .56.2 1.24.44 2 .76 1.04 1.16 2.36 1.16 3.84 0 4.36-3.36 7.04-8.8 7.04-1.28 0-2.44-.16-3.48-.44-.24.28-.48.84-.48 1.52 0 1.12.8 1.8 2.24 1.8h6.4Zm-4.68-13.76c-2.8 0-4.52 1.48-4.52 3.84s1.72 3.84 4.52 3.84 4.52-1.48 4.52-3.84-1.72-3.84-4.52-3.84Zm.92 22.24c4.2 0 5.96-1.2 5.96-2.96 0-1.32-1-2.04-3.12-2.04h-5.36c-2.24 0-3.68.68-3.68 2.2 0 1.88 2.4 2.8 6.2 2.8Zm12.347-5.36v-19.76h4.48l-.16 5.28h.04c1.08-3.56 3.64-5.6 8.24-5.6 5 0 8.08 2.84 8.08 7.72V179h-4.48v-11.36c0-3.12-1.76-4.88-5.32-4.88-3.92 0-6.4 2.36-6.4 6.68V179h-4.48Zm32.001.32c-6.8 0-9.24-3.04-9.24-6.92h4.04c0 2.28 1.32 3.68 5.16 3.68 3.64 0 5.24-1.12 5.24-2.92 0-.76-.28-1.44-1.32-1.8-.96-.36-2.84-.56-5.04-.76-3.08-.28-5.16-.68-6.36-1.56-1.08-.8-1.72-2.24-1.72-3.76 0-3.96 3.84-6.36 9.2-6.36 6.16 0 8.88 2.56 8.88 7.04h-4.04c-.04-2.56-1.44-3.8-4.72-3.8-3.12 0-4.88 1.12-4.88 2.8 0 .84.2 1.64 1.36 2.04.96.32 2.84.52 5.24.76 2.8.28 4.4.56 5.8 1.36 1.32.72 2.08 2.24 2.08 3.84 0 4-3.36 6.36-9.68 6.36Zm20.886-.32v-16.12h-3.16v-3.64h3.16v-1.96c0-4.4 2.92-6.8 7.2-6.8 1.76 0 3.2.32 3.84.56v3.56c-.64-.2-1.68-.48-3.04-.48-2.28 0-3.52 1.2-3.52 3.36v1.76h6.88v3.64h-6.88V179h-4.48Zm13.095 0v-19.76h4.48l-.16 5.68h.04c.92-3.56 2.96-6 7.04-6 4.28 0 6.64 2.8 6.64 7.72 0 1.24-.12 2.84-.2 3.68h-4.08c.08-.76.16-1.76.16-2.68 0-3.32-1.28-4.88-3.92-4.88-3.4 0-5.52 2.88-5.52 7.6V179h-4.48Zm29.995.32c-6.28 0-10.32-3.88-10.32-10.16 0-6.32 4.04-10.24 10.32-10.24 6.32 0 10.36 3.92 10.36 10.24 0 6.28-4.04 10.16-10.36 10.16Zm0-3.68c3.64 0 5.88-2.48 5.88-6.48 0-4.04-2.24-6.56-5.88-6.56-3.64 0-5.84 2.52-5.84 6.56 0 4 2.2 6.48 5.84 6.48Zm12.587 3.36v-19.76h4.48l-.16 5.2h.04c.88-3.4 3.28-5.52 6.88-5.52 3.84 0 6.32 2 6.8 5.2h.04c.72-3.2 3.12-5.2 6.88-5.2 4.4 0 6.92 2.84 6.92 7.48V179h-4.48v-11.6c0-2.88-1.4-4.64-4.08-4.64-3.12 0-5.12 2.32-5.12 6.44v9.8h-4.48v-11.68c0-2.8-1.48-4.56-4.16-4.56-3.04 0-5.08 2.36-5.08 6.6V179h-4.48ZM83.32 215.32c-5.8 0-9.68-3.88-9.68-10.2 0-6.32 3.96-10.2 9.92-10.2 5.52 0 9.12 3.2 9.12 8.44h-4.04c-.04-2.96-1.96-4.76-4.96-4.76-3.44 0-5.56 2.44-5.56 6.52 0 4.04 2.08 6.52 5.4 6.52 3.16 0 5.12-1.76 5.16-4.68h4.04c0 5.28-3.76 8.36-9.4 8.36Zm21.501 0c-6.28 0-10.32-3.88-10.32-10.16 0-6.32 4.04-10.24 10.32-10.24 6.32 0 10.36 3.92 10.36 10.24 0 6.28-4.04 10.16-10.36 10.16Zm0-3.68c3.64 0 5.88-2.48 5.88-6.48 0-4.04-2.24-6.56-5.88-6.56-3.64 0-5.84 2.52-5.84 6.56 0 4 2.2 6.48 5.84 6.48Zm12.586 3.36v-19.76h4.48l-.16 5.28h.04c1.08-3.56 3.64-5.6 8.24-5.6 5 0 8.08 2.84 8.08 7.72V215h-4.48v-11.36c0-3.12-1.76-4.88-5.32-4.88-3.92 0-6.4 2.36-6.4 6.68V215h-4.48Zm32.441.32c-5.8 0-9.68-3.88-9.68-10.2 0-6.32 3.96-10.2 9.92-10.2 5.52 0 9.12 3.2 9.12 8.44h-4.04c-.04-2.96-1.96-4.76-4.96-4.76-3.44 0-5.56 2.44-5.56 6.52 0 4.04 2.08 6.52 5.4 6.52 3.16 0 5.12-1.76 5.16-4.68h4.04c0 5.28-3.76 8.36-9.4 8.36Zm30.501-10.92v1.6h-14.8c.24 3.8 2.36 5.84 5.72 5.84 2.88 0 4.84-1.28 5.04-3.6h4.04c-.16 4.4-3.76 7.08-9.16 7.08-6.24 0-10.16-3.84-10.16-10.04 0-6.4 3.92-10.36 10.16-10.36 5.6 0 9.16 3.32 9.16 9.48Zm-4.04-1.12V203c0-2.96-1.84-4.6-5.08-4.6-3.08 0-5.04 1.6-5.56 4.88h10.64Zm6.457 19.64v-27.68h4.48l-.08 4.6h.04c.8-3 3.44-4.92 7.36-4.92 5.64 0 9.2 3.88 9.2 9.84 0 6.4-3.6 10.56-9.28 10.56-3.92 0-6.48-1.76-7.32-4.32h-.04c.04 1.32.12 3.36.12 4.16v7.76h-4.48Zm10.84-11.28c3.44 0 5.68-2.64 5.68-6.76 0-3.8-2.2-6.28-5.76-6.28-3.72 0-6.2 2.52-6.28 6.48v1.04c0 3.36 2.52 5.52 6.36 5.52Zm20.928 3.6c-5.4 0-7.52-2.92-7.52-7.28v-9.08h-3.12v-3.64h2.52c.76 0 1.04-.4 1.16-1.52l.2-2.96h3.72v4.48h6.8v3.64h-6.8v8.84c0 2.56.96 3.84 3.68 3.84 1.12 0 2.4-.2 2.96-.36v3.56c-.6.2-1.96.48-3.6.48Zm22.151 0c-5.4 0-7.52-2.92-7.52-7.28v-9.08h-3.12v-3.64h2.52c.76 0 1.04-.4 1.16-1.52l.2-2.96h3.72v4.48h6.8v3.64h-6.8v8.84c0 2.56.96 3.84 3.68 3.84 1.12 0 2.4-.2 2.96-.36v3.56c-.6.2-1.96.48-3.6.48Zm14.672.08c-6.28 0-10.32-3.88-10.32-10.16 0-6.32 4.04-10.24 10.32-10.24 6.32 0 10.36 3.92 10.36 10.24 0 6.28-4.04 10.16-10.36 10.16Zm0-3.68c3.64 0 5.88-2.48 5.88-6.48 0-4.04-2.24-6.56-5.88-6.56-3.64 0-5.84 2.52-5.84 6.56 0 4 2.2 6.48 5.84 6.48Zm29.285 3.68c-5.8 0-9.68-3.88-9.68-10.2 0-6.32 3.96-10.2 9.92-10.2 5.52 0 9.12 3.2 9.12 8.44h-4.04c-.04-2.96-1.96-4.76-4.96-4.76-3.44 0-5.56 2.44-5.56 6.52 0 4.04 2.08 6.52 5.4 6.52 3.16 0 5.12-1.76 5.16-4.68h4.04c0 5.28-3.76 8.36-9.4 8.36Zm21.501 0c-6.28 0-10.32-3.88-10.32-10.16 0-6.32 4.04-10.24 10.32-10.24 6.32 0 10.36 3.92 10.36 10.24 0 6.28-4.04 10.16-10.36 10.16Zm0-3.68c3.64 0 5.88-2.48 5.88-6.48 0-4.04-2.24-6.56-5.88-6.56-3.64 0-5.84 2.52-5.84 6.56 0 4 2.2 6.48 5.84 6.48Zm21.306 3.68c-5.72 0-9.32-4.16-9.32-10.32 0-5.96 3.72-10.08 9.6-10.08 3.72 0 6.04 1.48 6.84 3.8h.04v-11.44h4.48V215h-4.48c.08-1.16.12-2.88.2-4.8h-.08c-.76 3.12-3.24 5.12-7.28 5.12Zm.92-3.68c3.76 0 6.24-2.48 6.24-6.32v-.96c0-3.52-2.44-5.76-6.16-5.76-3.56 0-5.88 2.64-5.88 6.4 0 3.92 2.28 6.64 5.8 6.64Zm32.441-7.24v1.6h-14.8c.24 3.8 2.36 5.84 5.72 5.84 2.88 0 4.84-1.28 5.04-3.6h4.04c-.16 4.4-3.76 7.08-9.16 7.08-6.24 0-10.16-3.84-10.16-10.04 0-6.4 3.92-10.36 10.16-10.36 5.6 0 9.16 3.32 9.16 9.48Zm-4.04-1.12V203c0-2.96-1.84-4.6-5.08-4.6-3.08 0-5.04 1.6-5.56 4.88h10.64ZM74.432 249h-1.36v-11.36h1.36v4.912h6.224v-4.912h1.36V249h-1.36v-5.264h-6.224V249Zm13.174.192c-2.48 0-3.904-1.712-3.904-4.144v-.304c0-2.448 1.456-4.144 3.888-4.144 2.608 0 3.84 1.792 3.728 4.544h-6.304c.032 1.904.992 2.96 2.592 2.96 1.296 0 2.096-.592 2.368-1.648h1.296c-.4 1.728-1.712 2.736-3.664 2.736Zm-2.56-5.088h4.928c-.128-1.52-.928-2.416-2.384-2.416-1.472 0-2.368.848-2.544 2.416Zm7.758-6.944h1.28V249h-1.28v-11.84Zm4.483 14.56h-1.28v-10.928h1.2l.032 1.472c.416-.864 1.392-1.664 2.848-1.664 2.128 0 3.52 1.664 3.52 4.144v.304c0 2.464-1.392 4.144-3.536 4.144-1.392 0-2.336-.72-2.784-1.536v4.064Zm2.56-3.616c1.552 0 2.448-1.152 2.448-3.056v-.304c0-1.904-.896-3.056-2.432-3.056-1.696 0-2.624 1.152-2.624 3.056v.304c0 1.92.944 3.056 2.608 3.056Zm6.66-10.944v2.304h-1.344v-2.304h1.344Zm-1.328 3.632h1.28V249h-1.28v-8.208Zm4.483 8.208h-1.28v-8.208h1.248l.032 1.328c.48-.88 1.344-1.52 2.656-1.52 1.952 0 2.848 1.2 2.848 3.088V249h-1.264v-5.008c0-1.472-.576-2.288-1.92-2.288-1.392 0-2.32 1.008-2.32 2.64V249Zm10.801 2.912c-2.08 0-3.376-.944-3.52-2.352h1.376c.112.848.848 1.312 2.192 1.312 1.408 0 2.448-.672 2.448-2.192v-1.344c-.432.832-1.376 1.536-2.768 1.536-2.144 0-3.52-1.68-3.52-3.92v-.448c0-2.32 1.376-3.904 3.52-3.904 1.44 0 2.432.8 2.848 1.664l.032-1.472h1.184v7.808c0 1.952-1.36 3.312-3.792 3.312Zm-.048-4.128c1.68 0 2.624-1.136 2.624-2.832v-.448c0-1.76-.928-2.816-2.624-2.816-1.552 0-2.432 1.072-2.432 2.816v.448c0 1.68.896 2.832 2.432 2.832Zm12.041 1.408c-2.128 0-3.52-1.68-3.52-4.144v-.304c0-2.464 1.36-4.144 3.52-4.144 1.392 0 2.32.688 2.768 1.504v-4.944h1.296V249h-1.184l-.032-1.472c-.416.848-1.392 1.664-2.848 1.664Zm.224-1.088c1.696 0 2.624-1.152 2.624-3.056v-.304c0-1.92-.944-3.056-2.624-3.056-1.536 0-2.432 1.152-2.432 3.056v.304c0 1.888.88 3.056 2.432 3.056Zm9.316 1.088c-2.48 0-3.904-1.712-3.904-4.144v-.304c0-2.448 1.456-4.144 3.888-4.144 2.608 0 3.84 1.792 3.728 4.544h-6.304c.032 1.904.992 2.96 2.592 2.96 1.296 0 2.096-.592 2.368-1.648h1.296c-.4 1.728-1.712 2.736-3.664 2.736Zm-2.56-5.088h4.928c-.128-1.52-.928-2.416-2.384-2.416-1.472 0-2.368.848-2.544 2.416Zm10.578 5.088c-1.936 0-3.248-.944-3.408-2.704h1.232c.192 1.168.96 1.664 2.208 1.664 1.152 0 1.92-.464 1.92-1.36 0-.784-.544-1.152-2.192-1.44-1.904-.352-2.88-.928-2.88-2.384 0-1.424 1.232-2.368 3.008-2.368 1.824 0 3.008.896 3.184 2.496h-1.264c-.144-.96-.88-1.456-1.92-1.456-1.056 0-1.744.48-1.744 1.264 0 .768.496 1.12 2.112 1.376 1.904.32 2.992.944 2.992 2.384 0 1.536-1.328 2.528-3.248 2.528Zm6.102-12.032v2.304h-1.344v-2.304h1.344Zm-1.328 3.632h1.28V249h-1.28v-8.208Zm6.643 11.12c-2.08 0-3.376-.944-3.52-2.352h1.376c.112.848.848 1.312 2.192 1.312 1.408 0 2.448-.672 2.448-2.192v-1.344c-.432.832-1.376 1.536-2.768 1.536-2.144 0-3.52-1.68-3.52-3.92v-.448c0-2.32 1.376-3.904 3.52-3.904 1.44 0 2.432.8 2.848 1.664l.032-1.472h1.184v7.808c0 1.952-1.36 3.312-3.792 3.312Zm-.048-4.128c1.68 0 2.624-1.136 2.624-2.832v-.448c0-1.76-.928-2.816-2.624-2.816-1.552 0-2.432 1.072-2.432 2.816v.448c0 1.68.896 2.832 2.432 2.832Zm7.045 1.216h-1.28v-8.208h1.248l.032 1.328c.48-.88 1.344-1.52 2.656-1.52 1.952 0 2.848 1.2 2.848 3.088V249h-1.264v-5.008c0-1.472-.576-2.288-1.92-2.288-1.392 0-2.32 1.008-2.32 2.64V249Zm10.912.192c-2.48 0-3.904-1.712-3.904-4.144v-.304c0-2.448 1.456-4.144 3.888-4.144 2.608 0 3.84 1.792 3.728 4.544h-6.304c.032 1.904.992 2.96 2.592 2.96 1.296 0 2.096-.592 2.368-1.648h1.296c-.4 1.728-1.712 2.736-3.664 2.736Zm-2.56-5.088h4.928c-.128-1.52-.928-2.416-2.384-2.416-1.472 0-2.368.848-2.544 2.416Zm9.038 4.896h-1.28v-8.208h1.248l.016 1.584c.496-1.136 1.408-1.776 2.544-1.776.128 0 .272 0 .432.032v1.28c-.176-.016-.288-.016-.464-.016-1.488 0-2.496.912-2.496 2.704v4.4Zm6.899.192c-1.936 0-3.248-.944-3.408-2.704h1.232c.192 1.168.96 1.664 2.208 1.664 1.152 0 1.92-.464 1.92-1.36 0-.784-.544-1.152-2.192-1.44-1.904-.352-2.88-.928-2.88-2.384 0-1.424 1.232-2.368 3.008-2.368 1.824 0 3.008.896 3.184 2.496h-1.264c-.144-.96-.88-1.456-1.92-1.456-1.056 0-1.744.48-1.744 1.264 0 .768.496 1.12 2.112 1.376 1.904.32 2.992.944 2.992 2.384 0 1.536-1.328 2.528-3.248 2.528Zm11.244 0c-1.632 0-2.496-.752-2.496-2.256v-5.12h-1.648v-1.024h1.648v-2.528h1.28v2.528h2.352v1.024h-2.352v4.944c0 .912.304 1.344 1.376 1.344.32 0 .768-.08 1.04-.16v1.088c-.336.08-.848.16-1.2.16Zm3.92-.192h-1.28v-8.208h1.248l.016 1.584c.496-1.136 1.408-1.776 2.544-1.776.128 0 .272 0 .432.032v1.28c-.176-.016-.288-.016-.464-.016-1.488 0-2.496.912-2.496 2.704v4.4Zm6.244.192c-1.712 0-2.752-.96-2.752-2.336 0-1.184.704-2.08 2.016-2.272l3.456-.512v-.72c0-1.184-.832-1.712-1.888-1.712-1.136 0-1.92.56-2.016 1.552h-1.248c.144-1.632 1.376-2.592 3.28-2.592 2 0 3.136 1.136 3.136 2.832V249h-1.2l-.048-1.28c-.528.96-1.584 1.472-2.736 1.472Zm.128-1.072c1.376 0 2.592-.912 2.592-2.16v-.848l-3.04.448c-.784.112-1.136.56-1.136 1.264 0 .784.544 1.296 1.584 1.296Zm6.987.88h-1.28v-8.208h1.248l.032 1.328c.48-.88 1.344-1.52 2.656-1.52 1.952 0 2.848 1.2 2.848 3.088V249h-1.264v-5.008c0-1.472-.576-2.288-1.92-2.288-1.392 0-2.32 1.008-2.32 2.64V249Zm10.337.192c-1.936 0-3.248-.944-3.408-2.704h1.232c.192 1.168.96 1.664 2.208 1.664 1.152 0 1.92-.464 1.92-1.36 0-.784-.544-1.152-2.192-1.44-1.904-.352-2.88-.928-2.88-2.384 0-1.424 1.232-2.368 3.008-2.368 1.824 0 3.008.896 3.184 2.496h-1.264c-.144-.96-.88-1.456-1.92-1.456-1.056 0-1.744.48-1.744 1.264 0 .768.496 1.12 2.112 1.376 1.904.32 2.992.944 2.992 2.384 0 1.536-1.328 2.528-3.248 2.528Zm6.886-.192h-1.28v-7.184h-1.648v-1.024h1.648v-1.568c0-1.504.864-2.256 2.496-2.256.352 0 .864.08 1.2.16v1.072c-.272-.064-.72-.16-1.04-.16-1.072 0-1.376.448-1.376 1.36v1.392h2.352v1.024h-2.352V249Zm6.736.192c-2.384 0-3.888-1.632-3.888-4.144v-.304c0-2.512 1.504-4.144 3.888-4.144s3.904 1.632 3.904 4.144v.304c0 2.512-1.52 4.144-3.904 4.144Zm0-1.088c1.68 0 2.592-1.136 2.592-3.056v-.304c0-1.92-.912-3.056-2.592-3.056-1.664 0-2.576 1.136-2.576 3.056v.304c0 1.92.912 3.056 2.576 3.056Zm6.76.896h-1.28v-8.208h1.248l.016 1.584c.496-1.136 1.408-1.776 2.544-1.776.128 0 .272 0 .432.032v1.28c-.176-.016-.288-.016-.464-.016-1.488 0-2.496.912-2.496 2.704v4.4Zm5.578 0h-1.28v-8.208h1.248l.016 1.296c.448-.816 1.296-1.488 2.592-1.488 1.248 0 2.08.592 2.464 1.632.576-1.04 1.504-1.632 2.736-1.632 1.808 0 2.72 1.152 2.72 3.056V249h-1.28v-5.072c0-1.472-.56-2.224-1.808-2.224-1.36 0-2.16 1.024-2.16 2.656V249h-1.28v-5.072c0-1.456-.528-2.224-1.776-2.224-1.36 0-2.192 1.024-2.192 2.688V249Zm18.814.192c-1.632 0-2.496-.752-2.496-2.256v-5.12h-1.648v-1.024h1.648v-2.528h1.28v2.528h2.352v1.024h-2.352v4.944c0 .912.304 1.344 1.376 1.344.32 0 .768-.08 1.04-.16v1.088c-.336.08-.848.16-1.2.16Zm3.92-.192h-1.28v-11.84h1.28v4.944c.48-.88 1.36-1.504 2.656-1.504 1.952 0 2.848 1.2 2.848 3.088V249h-1.264v-5.008c0-1.472-.576-2.288-1.92-2.288-1.392 0-2.32 1.008-2.32 2.64V249Zm10.913.192c-2.48 0-3.904-1.712-3.904-4.144v-.304c0-2.448 1.456-4.144 3.888-4.144 2.608 0 3.84 1.792 3.728 4.544h-6.304c.032 1.904.992 2.96 2.592 2.96 1.296 0 2.096-.592 2.368-1.648h1.296c-.4 1.728-1.712 2.736-3.664 2.736Zm-2.56-5.088h4.928c-.128-1.52-.928-2.416-2.384-2.416-1.472 0-2.368.848-2.544 2.416Zm9.086-6.944v2.304h-1.344v-2.304h1.344Zm-1.328 3.632h1.28V249h-1.28v-8.208Zm4.483 8.208h-1.28v-8.208h1.248l.016 1.584c.496-1.136 1.408-1.776 2.544-1.776.128 0 .272 0 .432.032v1.28c-.176-.016-.288-.016-.464-.016-1.488 0-2.496.912-2.496 2.704v4.4Zm8.595-11.84v2.304h-1.344v-2.304h1.344Zm-1.328 3.632h1.28V249h-1.28v-8.208Zm6.371 8.4c-2.128 0-3.52-1.68-3.52-4.144v-.304c0-2.464 1.36-4.144 3.52-4.144 1.392 0 2.32.688 2.768 1.504v-4.944h1.296V249h-1.184l-.032-1.472c-.416.848-1.392 1.664-2.848 1.664Zm.224-1.088c1.696 0 2.624-1.152 2.624-3.056v-.304c0-1.92-.944-3.056-2.624-3.056-1.536 0-2.432 1.152-2.432 3.056v.304c0 1.888.88 3.056 2.432 3.056Zm9.316 1.088c-2.48 0-3.904-1.712-3.904-4.144v-.304c0-2.448 1.456-4.144 3.888-4.144 2.608 0 3.84 1.792 3.728 4.544h-6.304c.032 1.904.992 2.96 2.592 2.96 1.296 0 2.096-.592 2.368-1.648h1.296c-.4 1.728-1.712 2.736-3.664 2.736Zm-2.56-5.088h4.928c-.128-1.52-.928-2.416-2.384-2.416-1.472 0-2.368.848-2.544 2.416Zm10.095 5.088c-1.712 0-2.752-.96-2.752-2.336 0-1.184.704-2.08 2.016-2.272l3.456-.512v-.72c0-1.184-.832-1.712-1.888-1.712-1.136 0-1.92.56-2.016 1.552h-1.248c.144-1.632 1.376-2.592 3.28-2.592 2 0 3.136 1.136 3.136 2.832V249h-1.2l-.048-1.28c-.528.96-1.584 1.472-2.736 1.472Zm.128-1.072c1.376 0 2.592-.912 2.592-2.16v-.848l-3.04.448c-.784.112-1.136.56-1.136 1.264 0 .784.544 1.296 1.584 1.296Zm8.683 1.072c-1.936 0-3.248-.944-3.408-2.704h1.232c.192 1.168.96 1.664 2.208 1.664 1.152 0 1.92-.464 1.92-1.36 0-.784-.544-1.152-2.192-1.44-1.904-.352-2.88-.928-2.88-2.384 0-1.424 1.232-2.368 3.008-2.368 1.824 0 3.008.896 3.184 2.496h-1.264c-.144-.96-.88-1.456-1.92-1.456-1.056 0-1.744.48-1.744 1.264 0 .768.496 1.12 2.112 1.376 1.904.32 2.992.944 2.992 2.384 0 1.536-1.328 2.528-3.248 2.528Zm9.212-12.032v2.304h-1.344v-2.304h1.344Zm-1.328 3.632h1.28V249h-1.28v-8.208Zm4.483 8.208h-1.28v-8.208h1.248l.032 1.328c.48-.88 1.344-1.52 2.656-1.52 1.952 0 2.848 1.2 2.848 3.088V249h-1.264v-5.008c0-1.472-.576-2.288-1.92-2.288-1.392 0-2.32 1.008-2.32 2.64V249Zm10.564.192c-1.632 0-2.496-.752-2.496-2.256v-5.12h-1.648v-1.024h1.648v-2.528h1.28v2.528h2.352v1.024h-2.352v4.944c0 .912.304 1.344 1.376 1.344.32 0 .768-.08 1.04-.16v1.088c-.336.08-.848.16-1.2.16Zm6.004 0c-2.384 0-3.888-1.632-3.888-4.144v-.304c0-2.512 1.504-4.144 3.888-4.144s3.904 1.632 3.904 4.144v.304c0 2.512-1.52 4.144-3.904 4.144Zm0-1.088c1.68 0 2.592-1.136 2.592-3.056v-.304c0-1.92-.912-3.056-2.592-3.056-1.664 0-2.576 1.136-2.576 3.056v.304c0 1.92.912 3.056 2.576 3.056Zm9.869.896h-1.28v-8.208h1.248l.016 1.584c.496-1.136 1.408-1.776 2.544-1.776.128 0 .272 0 .432.032v1.28c-.176-.016-.288-.016-.464-.016-1.488 0-2.496.912-2.496 2.704v4.4Zm7.444.192c-2.48 0-3.904-1.712-3.904-4.144v-.304c0-2.448 1.456-4.144 3.888-4.144 2.608 0 3.84 1.792 3.728 4.544h-6.304c.032 1.904.992 2.96 2.592 2.96 1.296 0 2.096-.592 2.368-1.648h1.296c-.4 1.728-1.712 2.736-3.664 2.736Zm-2.56-5.088h4.928c-.128-1.52-.928-2.416-2.384-2.416-1.472 0-2.368.848-2.544 2.416Zm10.094 5.088c-1.712 0-2.752-.96-2.752-2.336 0-1.184.704-2.08 2.016-2.272l3.456-.512v-.72c0-1.184-.832-1.712-1.888-1.712-1.136 0-1.92.56-2.016 1.552h-1.248c.144-1.632 1.376-2.592 3.28-2.592 2 0 3.136 1.136 3.136 2.832V249h-1.2l-.048-1.28c-.528.96-1.584 1.472-2.736 1.472Zm.128-1.072c1.376 0 2.592-.912 2.592-2.16v-.848l-3.04.448c-.784.112-1.136.56-1.136 1.264 0 .784.544 1.296 1.584 1.296Zm5.708-10.96h1.28V249h-1.28v-11.84Zm3.171 14.48v-.8c.864 0 1.296-.464 1.296-1.376V249h-.64v-1.648h1.504v2.032c0 1.408-.832 2.256-2.16 2.256ZM76.128 273h-1.376l-2.512-8.208h1.296l1.92 6.64 1.952-6.64h1.264l1.984 6.688 1.936-6.688h1.296L81.328 273h-1.36l-1.936-6.448L76.128 273Zm12.18.192c-2.384 0-3.888-1.632-3.888-4.144v-.304c0-2.512 1.504-4.144 3.888-4.144s3.904 1.632 3.904 4.144v.304c0 2.512-1.52 4.144-3.904 4.144Zm0-1.088c1.68 0 2.592-1.136 2.592-3.056v-.304c0-1.92-.912-3.056-2.592-3.056-1.664 0-2.576 1.136-2.576 3.056v.304c0 1.92.912 3.056 2.576 3.056Zm6.76.896h-1.28v-8.208h1.248l.016 1.584c.496-1.136 1.408-1.776 2.544-1.776.128 0 .272 0 .432.032v1.28c-.176-.016-.288-.016-.464-.016-1.488 0-2.496.912-2.496 2.704v4.4Zm6.473-3.968-.832.864V273h-1.28v-11.84h1.28v7.28l3.536-3.648h1.6l-3.376 3.424 3.472 4.784h-1.52l-2.88-3.968Zm6.794-7.872v2.304h-1.344v-2.304h1.344Zm-1.328 3.632h1.28V273h-1.28v-8.208ZM111.49 273h-1.28v-8.208h1.248l.032 1.328c.48-.88 1.344-1.52 2.656-1.52 1.952 0 2.848 1.2 2.848 3.088V273h-1.264v-5.008c0-1.472-.576-2.288-1.92-2.288-1.392 0-2.32 1.008-2.32 2.64V273Zm10.801 2.912c-2.08 0-3.376-.944-3.52-2.352h1.376c.112.848.848 1.312 2.192 1.312 1.408 0 2.448-.672 2.448-2.192v-1.344c-.432.832-1.376 1.536-2.768 1.536-2.144 0-3.52-1.68-3.52-3.92v-.448c0-2.32 1.376-3.904 3.52-3.904 1.44 0 2.432.8 2.848 1.664l.032-1.472h1.184v7.808c0 1.952-1.36 3.312-3.792 3.312Zm-.048-4.128c1.68 0 2.624-1.136 2.624-2.832v-.448c0-1.76-.928-2.816-2.624-2.816-1.552 0-2.432 1.072-2.432 2.816v.448c0 1.68.896 2.832 2.432 2.832ZM134.284 273h-1.376l-2.512-8.208h1.296l1.92 6.64 1.952-6.64h1.264l1.984 6.688 1.936-6.688h1.296l-2.56 8.208h-1.36l-1.936-6.448-1.904 6.448Zm12.197.192c-2.48 0-3.904-1.712-3.904-4.144v-.304c0-2.448 1.456-4.144 3.888-4.144 2.608 0 3.84 1.792 3.728 4.544h-6.304c.032 1.904.992 2.96 2.592 2.96 1.296 0 2.096-.592 2.368-1.648h1.296c-.4 1.728-1.712 2.736-3.664 2.736Zm-2.56-5.088h4.928c-.128-1.52-.928-2.416-2.384-2.416-1.472 0-2.368.848-2.544 2.416Zm11.822 5.088c-1.44 0-2.416-.784-2.832-1.632l-.032 1.44h-1.2v-11.84h1.28v4.96c.448-.816 1.392-1.52 2.8-1.52 2.144 0 3.52 1.68 3.52 4.144v.304c0 2.464-1.424 4.144-3.536 4.144Zm-.208-1.088c1.536 0 2.432-1.168 2.432-3.056v-.304c0-1.904-.896-3.056-2.448-3.056-1.664 0-2.608 1.136-2.608 3.056v.304c0 1.904.928 3.056 2.624 3.056Zm11.977 1.088c-2.48 0-3.904-1.712-3.904-4.144v-.304c0-2.448 1.456-4.144 3.888-4.144 2.608 0 3.84 1.792 3.728 4.544h-6.304c.032 1.904.992 2.96 2.592 2.96 1.296 0 2.096-.592 2.368-1.648h1.296c-.4 1.728-1.712 2.736-3.664 2.736Zm-2.56-5.088h4.928c-.128-1.52-.928-2.416-2.384-2.416-1.472 0-2.368.848-2.544 2.416Zm8.009 4.896h-1.424l2.992-4.208-2.848-4h1.52l2.128 3.04 2.144-3.04h1.424l-2.848 3.952 3.04 4.256h-1.52l-2.32-3.312-2.288 3.312Zm8.592 2.72h-1.28v-10.928h1.2l.032 1.472c.416-.864 1.392-1.664 2.848-1.664 2.128 0 3.52 1.664 3.52 4.144v.304c0 2.464-1.392 4.144-3.536 4.144-1.392 0-2.336-.72-2.784-1.536v4.064Zm2.56-3.616c1.552 0 2.448-1.152 2.448-3.056v-.304c0-1.904-.896-3.056-2.432-3.056-1.696 0-2.624 1.152-2.624 3.056v.304c0 1.92.944 3.056 2.608 3.056Zm8.883 1.088c-2.48 0-3.904-1.712-3.904-4.144v-.304c0-2.448 1.456-4.144 3.888-4.144 2.608 0 3.84 1.792 3.728 4.544h-6.304c.032 1.904.992 2.96 2.592 2.96 1.296 0 2.096-.592 2.368-1.648h1.296c-.4 1.728-1.712 2.736-3.664 2.736Zm-2.56-5.088h4.928c-.128-1.52-.928-2.416-2.384-2.416-1.472 0-2.368.848-2.544 2.416Zm9.038 4.896h-1.28v-8.208h1.248l.016 1.584c.496-1.136 1.408-1.776 2.544-1.776.128 0 .272 0 .432.032v1.28c-.176-.016-.288-.016-.464-.016-1.488 0-2.496.912-2.496 2.704v4.4Zm5.486-11.84v2.304h-1.344v-2.304h1.344Zm-1.328 3.632h1.28V273h-1.28v-8.208Zm6.755 8.4c-2.48 0-3.904-1.712-3.904-4.144v-.304c0-2.448 1.456-4.144 3.888-4.144 2.608 0 3.84 1.792 3.728 4.544h-6.304c.032 1.904.992 2.96 2.592 2.96 1.296 0 2.096-.592 2.368-1.648h1.296c-.4 1.728-1.712 2.736-3.664 2.736Zm-2.56-5.088h4.928c-.128-1.52-.928-2.416-2.384-2.416-1.472 0-2.368.848-2.544 2.416Zm9.038 4.896h-1.28v-8.208h1.248l.032 1.328c.48-.88 1.344-1.52 2.656-1.52 1.952 0 2.848 1.2 2.848 3.088V273h-1.264v-5.008c0-1.472-.576-2.288-1.92-2.288-1.392 0-2.32 1.008-2.32 2.64V273Zm10.817.192c-2.432 0-3.808-1.712-3.808-4.144v-.304c0-2.448 1.376-4.144 3.824-4.144 1.984 0 3.264 1.168 3.488 2.928h-1.28c-.224-1.136-.944-1.84-2.24-1.84-1.6 0-2.48 1.12-2.48 3.056v.304c0 1.936.88 3.056 2.496 3.056 1.28 0 2.048-.752 2.272-1.888h1.28c-.304 1.824-1.584 2.976-3.552 2.976Zm8.518 0c-2.48 0-3.904-1.712-3.904-4.144v-.304c0-2.448 1.456-4.144 3.888-4.144 2.608 0 3.84 1.792 3.727 4.544h-6.303c.032 1.904.992 2.96 2.592 2.96 1.296 0 2.096-.592 2.368-1.648h1.296c-.4 1.728-1.712 2.736-3.664 2.736Zm-2.56-5.088h4.928c-.128-1.52-.928-2.416-2.384-2.416-1.472 0-2.368.848-2.544 2.416Zm10.577 5.088c-1.936 0-3.248-.944-3.408-2.704h1.232c.192 1.168.96 1.664 2.208 1.664 1.152 0 1.92-.464 1.92-1.36 0-.784-.544-1.152-2.192-1.44-1.904-.352-2.88-.928-2.88-2.384 0-1.424 1.232-2.368 3.008-2.368 1.824 0 3.008.896 3.184 2.496h-1.264c-.144-.96-.88-1.456-1.92-1.456-1.056 0-1.744.48-1.744 1.264 0 .768.496 1.12 2.112 1.376 1.904.32 2.992.944 2.992 2.384 0 1.536-1.328 2.528-3.248 2.528Zm6.199-.192h-1.504v-1.648h1.504V273Z" style="fill:#1c4526;fill:color(display-p3 .1098 .2706 .149);fill-opacity:1"/><rect width="107" height="32" x="72" y="297" fill="#fff" rx="8" style="fill:#fff;fill-opacity:1"/><rect width="108" height="33" x="71.5" y="296.5" stroke="#9042A6" stroke-opacity=".16" rx="8.5" style="stroke:#9042a6;stroke:color(display-p3 .5647 .2588 .651);stroke-opacity:.16"/><path fill="#1C4526" d="M90.1 317h-1.38v-8.52h3.588c1.716 0 2.916.888 2.916 2.544v.192c0 1.344-.78 2.172-2.004 2.436L95.404 317h-1.596l-2.064-3.24H90.1V317Zm0-7.344v2.928h2.1c.96 0 1.596-.432 1.596-1.368v-.192c0-.936-.636-1.368-1.596-1.368h-2.1Zm8.763 7.5c-1.92 0-3.06-1.284-3.06-3.156v-.18c0-1.872 1.164-3.144 3.06-3.144 2.028 0 3.012 1.416 2.916 3.528h-4.62c.06 1.236.66 1.896 1.704 1.896.864 0 1.38-.408 1.56-1.032h1.32c-.3 1.296-1.332 2.088-2.88 2.088Zm-1.68-3.9h3.24c-.096-.96-.6-1.536-1.572-1.536-.96 0-1.524.528-1.668 1.536Zm7.445 3.9c-1.272 0-2.076-.768-2.076-1.824 0-.984.6-1.632 1.656-1.776l2.436-.36v-.444c0-.684-.468-1.044-1.248-1.044-.768 0-1.284.348-1.344.972h-1.26c.108-1.272 1.116-2.004 2.628-2.004 1.596 0 2.496.84 2.496 2.124v4.2h-1.212l-.048-.96c-.384.696-1.14 1.116-2.028 1.116Zm.3-1.044c.924 0 1.716-.576 1.716-1.38v-.564l-1.98.276c-.564.084-.828.348-.828.828 0 .516.396.84 1.092.84Zm6.699 1.044c-1.62 0-2.664-1.308-2.664-3.156v-.18c0-1.836 1.008-3.144 2.64-3.144.984 0 1.656.468 2.016 1.044v-3.6h1.32V317h-1.224l-.036-1.032c-.3.588-.996 1.188-2.052 1.188Zm.336-1.068c1.104 0 1.704-.756 1.704-2.088v-.18c0-1.332-.612-2.1-1.704-2.1-1.056 0-1.656.768-1.656 2.1v.18c0 1.32.588 2.088 1.656 2.088Zm8.321 1.068c-1.272 0-2.076-.768-2.076-1.824 0-.984.6-1.632 1.656-1.776l2.436-.36v-.444c0-.684-.468-1.044-1.248-1.044-.768 0-1.284.348-1.344.972h-1.26c.108-1.272 1.116-2.004 2.628-2.004 1.596 0 2.496.84 2.496 2.124v4.2h-1.212l-.048-.96c-.384.696-1.14 1.116-2.028 1.116Zm.3-1.044c.924 0 1.716-.576 1.716-1.38v-.564l-1.98.276c-.564.084-.828.348-.828.828 0 .516.396.84 1.092.84Zm4.275-7.992h1.32V317h-1.32v-8.88Zm2.649 0h1.32V317h-1.32v-8.88Zm6.195 10.92h-1.332v-8.22h1.236l.036 1.02c.3-.588 1.02-1.164 2.076-1.164 1.62 0 2.64 1.296 2.64 3.144v.18c0 1.848-1.044 3.156-2.676 3.156-.96 0-1.644-.504-1.98-1.092v2.976Zm1.656-2.952c1.056 0 1.656-.756 1.656-2.088v-.18c0-1.332-.6-2.1-1.656-2.1-1.104 0-1.704.768-1.704 2.1v.18c0 1.332.6 2.088 1.704 2.088Zm6.886 1.068c-1.848 0-3.048-1.272-3.048-3.156v-.18c0-1.884 1.2-3.144 3.048-3.144 1.86 0 3.06 1.26 3.06 3.144v.18c0 1.884-1.2 3.156-3.06 3.156Zm0-1.068c1.128 0 1.716-.756 1.716-2.088v-.18c0-1.332-.588-2.076-1.716-2.076-1.116 0-1.704.744-1.704 2.076v.18c0 1.332.588 2.088 1.704 2.088Zm6.401 1.068c-1.596 0-2.592-.756-2.712-2.076h1.272c.108.732.636 1.08 1.452 1.08.744 0 1.248-.3 1.248-.852 0-.492-.348-.732-1.524-.948-1.5-.252-2.232-.732-2.232-1.836s.996-1.848 2.412-1.848c1.488 0 2.412.708 2.532 1.932h-1.26c-.096-.624-.576-.96-1.284-.96-.684 0-1.128.3-1.128.804 0 .48.348.708 1.476.888 1.56.252 2.316.768 2.316 1.848 0 1.176-1.02 1.968-2.568 1.968Zm6.136 0c-1.356 0-2.028-.624-2.028-1.824v-3.516h-1.2v-.996h1.2v-1.932h1.32v1.932h1.68v.996h-1.68v3.372c0 .612.228.888.96.888.264 0 .576-.06.756-.12v1.056a3.932 3.932 0 0 1-1.008.144Zm4.353 0c-1.596 0-2.592-.756-2.712-2.076h1.272c.108.732.636 1.08 1.451 1.08.745 0 1.249-.3 1.249-.852 0-.492-.348-.732-1.524-.948-1.5-.252-2.232-.732-2.232-1.836s.996-1.848 2.412-1.848c1.488 0 2.412.708 2.532 1.932h-1.26c-.096-.624-.576-.96-1.284-.96-.684 0-1.128.3-1.128.804 0 .48.348.708 1.476.888 1.56.252 2.316.768 2.316 1.848 0 1.176-1.02 1.968-2.568 1.968Z" style="fill:#1c4526;fill:color(display-p3 .1098 .2706 .149);fill-opacity:1"/><path fill="#1C4526" fill-rule="evenodd" d="M91.085 55.703C98.445 54.265 104 47.781 104 40c0-8.837-7.163-16-16-16s-16 7.163-16 16c0 3.802 1.326 7.295 3.541 10.04 2.18-.9 2.86-3.255 2.86-4.44 2.4 0 8-2.4 8-10.391 0 3.991-3.6 8.65-9.695 8.65H75.2s2.167-5.837 2.135-11.034c0-.537.416-1 .95-1.042 3.427-.3 7.185-2.277 8.316-2.921a.534.534 0 0 1 .63.097l.64.644a.26.26 0 0 0 .31.054l1.484-.752a.52.52 0 0 1 .715.236l.705 1.429a.28.28 0 0 0 .363.118l1.452-.73a.53.53 0 0 1 .693.203l2.723 4.564h.01c.15.237.374.42.652.484.693.182 2.113.537 3.02.762.481.118.823.57.801 1.063-.224 5.96-2.946 9.88-8.519 9.88-.837.843-3.817 4.941-1.195 8.789Z" clip-rule="evenodd" style="fill:#1c4526;fill:color(display-p3 .1098 .2706 .149);fill-opacity:1"/><path fill="#1C4526" d="M122.124 44h-1.404v-8.52h1.404v3.552h4.188V35.48h1.404V44h-1.404v-3.792h-4.188V44Zm9.782.156c-1.848 0-3.048-1.272-3.048-3.156v-.18c0-1.884 1.2-3.144 3.048-3.144 1.86 0 3.06 1.26 3.06 3.144V41c0 1.884-1.2 3.156-3.06 3.156Zm0-1.068c1.128 0 1.716-.756 1.716-2.088v-.18c0-1.332-.588-2.076-1.716-2.076-1.116 0-1.705.744-1.705 2.076V41c0 1.332.589 2.088 1.705 2.088Zm5.461.912h-1.32v-6.18h1.272l.036.96c.312-.588.936-1.104 1.908-1.104.924 0 1.56.42 1.848 1.2.432-.756 1.128-1.2 2.04-1.2 1.416 0 2.064.912 2.064 2.34V44h-1.32v-3.72c0-1.02-.372-1.512-1.188-1.512-.888 0-1.404.66-1.404 1.8V44h-1.32v-3.708c0-1.008-.36-1.524-1.176-1.524-.888 0-1.44.648-1.44 1.812V44Zm11.953.156c-1.92 0-3.06-1.284-3.06-3.156v-.18c0-1.872 1.164-3.144 3.06-3.144 2.028 0 3.012 1.416 2.916 3.528h-4.62c.06 1.236.66 1.896 1.704 1.896.864 0 1.38-.408 1.56-1.032h1.32c-.3 1.296-1.332 2.088-2.88 2.088Zm-1.68-3.9h3.24c-.096-.96-.6-1.536-1.572-1.536-.96 0-1.524.528-1.668 1.536ZM177.22 44h-1.476l-.756-2.076h-3.66L170.56 44h-1.416l3.276-8.52h1.524L177.22 44Zm-4.056-7.032-1.404 3.792h2.796l-1.392-3.792Zm8.175 7.188c-1.044 0-1.74-.588-2.04-1.176l-.036 1.02h-1.236v-8.88h1.332v3.612c.36-.588 1.032-1.056 2.016-1.056 1.62 0 2.64 1.308 2.64 3.144V41c0 1.848-1.056 3.156-2.676 3.156Zm-.324-1.068c1.056 0 1.656-.768 1.656-2.088v-.18c0-1.332-.6-2.1-1.656-2.1-1.104 0-1.704.768-1.704 2.1V41c0 1.332.6 2.088 1.704 2.088Zm6.887 1.068c-1.848 0-3.048-1.272-3.048-3.156v-.18c0-1.884 1.2-3.144 3.048-3.144 1.86 0 3.06 1.26 3.06 3.144V41c0 1.884-1.2 3.156-3.06 3.156Zm0-1.068c1.128 0 1.716-.756 1.716-2.088v-.18c0-1.332-.588-2.076-1.716-2.076-1.116 0-1.704.744-1.704 2.076V41c0 1.332.588 2.088 1.704 2.088Zm6.182 1.068c-1.44 0-2.136-.912-2.136-2.364V37.82h1.332v3.72c0 .948.348 1.512 1.236 1.512.912 0 1.452-.696 1.452-1.8V37.82h1.332V44h-1.284l-.024-.936c-.36.6-1.02 1.092-1.908 1.092Zm7.233 0c-1.356 0-2.028-.624-2.028-1.824v-3.516h-1.2v-.996h1.2v-1.932h1.32v1.932h1.68v.996h-1.68v3.372c0 .612.228.888.96.888.264 0 .576-.06.756-.12v1.056a3.932 3.932 0 0 1-1.008.144ZM223.428 44.156c-2.412 0-3.984-1.74-3.984-4.272v-.288c0-2.508 1.584-4.272 3.996-4.272 2.052 0 3.432 1.296 3.6 3.252h-1.416c-.168-1.284-.984-2.052-2.196-2.052-1.596 0-2.544 1.26-2.544 3.072v.288c0 1.812.96 3.06 2.544 3.06 1.296 0 2.124-.864 2.184-2.16h1.428c-.132 1.944-1.488 3.372-3.612 3.372Zm7.431 0c-1.848 0-3.048-1.272-3.048-3.156v-.18c0-1.884 1.2-3.144 3.048-3.144 1.86 0 3.06 1.26 3.06 3.144V41c0 1.884-1.2 3.156-3.06 3.156Zm0-1.068c1.128 0 1.716-.756 1.716-2.088v-.18c0-1.332-.588-2.076-1.716-2.076-1.116 0-1.704.744-1.704 2.076V41c0 1.332.588 2.088 1.704 2.088Zm5.461.912H235v-6.18h1.272l.048.984c.324-.612.972-1.128 1.968-1.128 1.5 0 2.136.936 2.136 2.34V44h-1.308v-3.66c0-1.008-.372-1.572-1.272-1.572-.912 0-1.524.672-1.524 1.776V44Zm7.954.156c-1.356 0-2.028-.624-2.028-1.824v-3.516h-1.2v-.996h1.2v-1.932h1.32v1.932h1.68v.996h-1.68v3.372c0 .612.228.888.96.888.264 0 .576-.06.756-.12v1.056a3.932 3.932 0 0 1-1.008.144Zm3.799 0c-1.272 0-2.076-.768-2.076-1.824 0-.984.6-1.632 1.656-1.776l2.436-.36v-.444c0-.684-.468-1.044-1.248-1.044-.768 0-1.284.348-1.344.972h-1.26c.108-1.272 1.116-2.004 2.628-2.004 1.596 0 2.496.84 2.496 2.124V44h-1.212l-.048-.96c-.384.696-1.14 1.116-2.028 1.116Zm.3-1.044c.924 0 1.716-.576 1.716-1.38v-.564l-1.98.276c-.564.084-.828.348-.828.828 0 .516.396.84 1.092.84Zm7.011 1.044c-1.872 0-2.976-1.284-2.976-3.156v-.18c0-1.872 1.104-3.144 2.988-3.144 1.548 0 2.568.912 2.736 2.34h-1.296c-.132-.78-.588-1.272-1.464-1.272-1.068 0-1.62.744-1.62 2.076V41c0 1.332.552 2.088 1.62 2.088.876 0 1.344-.516 1.476-1.296h1.308c-.204 1.452-1.224 2.364-2.772 2.364Zm6.386 0c-1.356 0-2.028-.624-2.028-1.824v-3.516h-1.2v-.996h1.2v-1.932h1.32v1.932h1.68v.996h-1.68v3.372c0 .612.228.888.96.888.264 0 .576-.06.756-.12v1.056a3.932 3.932 0 0 1-1.008.144Z" style="fill:#1c4526;fill:color(display-p3 .1098 .2706 .149);fill-opacity:1"/><rect width="64" height="32" x="664" y="24" fill="#fff" rx="8" style="fill:#fff;fill-opacity:1"/><rect width="65" height="33" x="663.5" y="23.5" stroke="#9042A6" stroke-opacity=".16" rx="8.5" style="stroke:#9042a6;stroke:color(display-p3 .5647 .2588 .651);stroke-opacity:.16"/><path fill="#1C4526" d="M686.688 44h-4.968v-8.52h1.404v7.356h3.564V44Zm3.639.156c-1.848 0-3.048-1.272-3.048-3.156v-.18c0-1.884 1.2-3.144 3.048-3.144 1.86 0 3.06 1.26 3.06 3.144V41c0 1.884-1.2 3.156-3.06 3.156Zm0-1.068c1.128 0 1.716-.756 1.716-2.088v-.18c0-1.332-.588-2.076-1.716-2.076-1.116 0-1.704.744-1.704 2.076V41c0 1.332.588 2.088 1.704 2.088Zm6.854 3.108c-1.704 0-2.664-.756-2.796-1.836h1.44c.072.54.54.84 1.428.84 1.02 0 1.632-.504 1.632-1.476v-.912c-.324.6-1.02 1.092-1.98 1.092-1.644 0-2.676-1.296-2.676-3v-.24c0-1.716 1.02-2.988 2.64-2.988 1.056 0 1.764.576 2.076 1.164l.036-1.02h1.224v5.784c0 1.596-1.068 2.592-3.024 2.592Zm.048-3.348c1.092 0 1.704-.768 1.704-1.944v-.24c0-1.2-.6-1.944-1.704-1.944-1.068 0-1.656.744-1.656 1.944v.24c0 1.176.6 1.944 1.656 1.944Zm5.65-7.728v1.8h-1.38v-1.8h1.38Zm-1.356 2.7h1.32V44h-1.32v-6.18ZM705.48 44h-1.32v-6.18h1.272l.048.984c.324-.612.972-1.128 1.968-1.128 1.5 0 2.136.936 2.136 2.34V44h-1.308v-3.66c0-1.008-.372-1.572-1.272-1.572-.912 0-1.524.672-1.524 1.776V44Z" style="fill:#1c4526;fill:color(display-p3 .1098 .2706 .149);fill-opacity:1"/><path fill="url(#a)" stroke="url(#b)" d="M75 179.5h395.5v15H75a2.5 2.5 0 0 1-2.5-2.5v-10a2.5 2.5 0 0 1 2.5-2.5Z"/><path fill="url(#c)" stroke="url(#d)" d="M75 248.5h395.5v15H75a2.5 2.5 0 0 1-2.5-2.5v-10a2.5 2.5 0 0 1 2.5-2.5Z"/><defs><linearGradient id="a" x1="72" x2="471" y1="187" y2="187" gradientUnits="userSpaceOnUse"><stop stop-color="#E5542B" stop-opacity=".2" style="stop-color:#e5542b;stop-color:color(display-p3 .898 .3294 .1686);stop-opacity:.2"/><stop offset=".43" stop-color="#E5542B" stop-opacity="0" style="stop-color:none;stop-opacity:0"/></linearGradient><linearGradient id="b" x1="471" x2="72" y1="187" y2="187" gradientUnits="userSpaceOnUse"><stop offset=".445" stop-color="#E5542B" stop-opacity="0" style="stop-color:none;stop-opacity:0"/><stop offset="1" stop-color="#E5542B" style="stop-color:#e5542b;stop-color:color(display-p3 .898 .3294 .1686);stop-opacity:1"/></linearGradient><linearGradient id="c" x1="72" x2="471" y1="256" y2="256" gradientUnits="userSpaceOnUse"><stop stop-color="#E5542B" stop-opacity=".2" style="stop-color:#e5542b;stop-color:color(display-p3 .898 .3294 .1686);stop-opacity:.2"/><stop offset=".43" stop-color="#E5542B" stop-opacity="0" style="stop-color:none;stop-opacity:0"/></linearGradient><linearGradient id="d" x1="471" x2="72" y1="256" y2="256" gradientUnits="userSpaceOnUse"><stop offset=".445" stop-color="#E5542B" stop-opacity="0" style="stop-color:none;stop-opacity:0"/><stop offset="1" stop-color="#E5542B" style="stop-color:#e5542b;stop-color:color(display-p3 .898 .3294 .1686);stop-opacity:1"/></linearGradient></defs></svg>