<svg xmlns="http://www.w3.org/2000/svg" width="864" height="540" fill="none"><path fill="#F9F3F1" d="M0 0h864v540H0z" style="fill:#f9f3f1;fill:color(display-p3 .9765 .9529 .9451);fill-opacity:1"/><g clip-path="url(#a)"><path fill="#F9F3F1" d="M0 0h800v480H0z" style="fill:#f9f3f1;fill:color(display-p3 .9765 .9529 .9451);fill-opacity:1" transform="translate(32 30)"/><g clip-path="url(#b)"><path fill="url(#c)" d="M56 74c0-11.046 8.954-20 20-20h324c11.046 0 20 8.954 20 20v440c0 11.046-8.954 20-20 20H76c-11.046 0-20-8.954-20-20z"/><path fill="#1C5344" d="M82.411 226v-21.056h6.144l5.632 15.904h.064l5.664-15.904h5.984V226h-3.84l.096-18.048h-.064L95.659 226h-3.2l-6.432-18.048h-.064L86.027 226zm31.626.256c-3.616 0-6.016-1.728-6.016-4.8 0-2.4 1.696-4.288 5.92-4.288h5.856v-1.12c0-2.368-1.376-3.424-4.16-3.424-2.432 0-3.808.928-3.808 2.688 0 .096 0 .352.032.608h-3.296a8 8 0 0 1-.064-.928c0-3.168 2.752-5.056 7.264-5.056 4.8 0 7.616 2.272 7.616 6.432V226h-3.584c.064-.768.16-2.208.16-3.488h-.032c-.512 2.336-2.4 3.744-5.888 3.744m.736-2.688c3.104 0 5.024-1.504 5.024-3.936v-.288h-5.536c-2.048 0-2.944.704-2.944 1.952 0 1.44 1.28 2.272 3.456 2.272M125.629 226v-22.176h3.584v14.656h.032l8.512-8.288h4.64l-7.392 6.88 7.808 8.928h-4.864l-5.568-6.656-3.168 2.912V226zm18.407-17.664v-3.52h3.68v3.52zm.032 17.664v-15.808h3.584V226zm6.061 0v-15.808h3.584l-.128 4.224h.032c.864-2.848 2.912-4.48 6.592-4.48 4 0 6.464 2.272 6.464 6.176V226h-3.584v-9.088c0-2.496-1.408-3.904-4.256-3.904-3.136 0-5.12 1.888-5.12 5.344V226zm29.665-2.496c3.392 0 5.344 1.472 5.344 4 0 3.328-3.104 5.312-8.32 5.312-5.344 0-8.544-1.632-8.544-4.48 0-1.6 1.184-2.784 3.072-2.88v-.032c-.896-.608-1.376-1.472-1.376-2.592 0-1.344.608-2.272 1.472-2.688v-.064c-1.568-.96-2.432-2.528-2.432-4.512 0-3.456 2.688-5.632 7.04-5.632 1.792 0 3.264.352 4.416 1.024l.032-.032c-.48-.512-.768-1.12-.768-1.792 0-1.28 1.216-2.08 3.104-2.08.768 0 1.216.064 1.6.16v2.528c-.256-.096-.608-.16-1.056-.16-1.056 0-1.568.448-1.568 1.312 0 .448.16.992.352 1.6.608.832.928 1.888.928 3.072 0 3.488-2.688 5.632-7.04 5.632-1.024 0-1.952-.128-2.784-.352-.192.224-.384.672-.384 1.216 0 .896.64 1.44 1.792 1.44zm-3.744-11.008c-2.24 0-3.616 1.184-3.616 3.072s1.376 3.072 3.616 3.072 3.616-1.184 3.616-3.072-1.376-3.072-3.616-3.072m.736 17.792c3.36 0 4.768-.96 4.768-2.368 0-1.056-.8-1.632-2.496-1.632h-4.288c-1.792 0-2.944.544-2.944 1.76 0 1.504 1.92 2.24 4.96 2.24m23.012-4.096c-4.32 0-6.016-2.336-6.016-5.824v-7.264h-2.496v-2.912h2.016c.608 0 .832-.32.928-1.216l.16-2.368h2.976v3.584h5.44v2.912h-5.44v7.072c0 2.048.768 3.072 2.944 3.072.896 0 1.92-.16 2.368-.288v2.848c-.48.16-1.568.384-2.88.384m4.682-.192v-22.176h3.584v7.168c0 .768-.064 2.592-.096 3.456H208c.832-2.88 2.88-4.512 6.592-4.512 4 0 6.464 2.272 6.464 6.176V226h-3.584v-9.088c0-2.496-1.408-3.904-4.256-3.904-3.168 0-5.152 1.952-5.152 5.504V226zm33.694-8.48v1.28h-11.84c.192 3.04 1.888 4.672 4.576 4.672 2.304 0 3.872-1.024 4.032-2.88h3.232c-.128 3.52-3.008 5.664-7.328 5.664-4.992 0-8.128-3.072-8.128-8.032 0-5.12 3.136-8.288 8.128-8.288 4.48 0 7.328 2.656 7.328 7.584m-3.232-.896v-.224c0-2.368-1.472-3.68-4.064-3.68-2.464 0-4.032 1.28-4.448 3.904zm14.62 9.376-4.576-15.808h3.808l3.232 12.224h.064l3.776-12.224h3.552l3.68 12.224h.064l3.328-12.224h3.392L265.306 226h-4.416l-3.424-11.616h-.096L253.818 226zm35.928-8.48v1.28h-11.84c.192 3.04 1.888 4.672 4.576 4.672 2.304 0 3.872-1.024 4.032-2.88h3.232c-.128 3.52-3.008 5.664-7.328 5.664-4.992 0-8.128-3.072-8.128-8.032 0-5.12 3.136-8.288 8.128-8.288 4.48 0 7.328 2.656 7.328 7.584m-3.232-.896v-.224c0-2.368-1.472-3.68-4.064-3.68-2.464 0-4.032 1.28-4.448 3.904zm14.734 9.632c-3.264 0-5.44-1.408-6.08-3.616h-.032c0 1.12.064 2.56.128 3.36h-3.584v-22.176h3.584v7.168c0 .672-.032 1.952-.064 2.72h.032c.672-2.304 2.848-3.776 5.984-3.776 4.544 0 7.264 3.008 7.264 7.872 0 5.216-2.784 8.448-7.232 8.448m-.928-2.944c2.816 0 4.576-2.048 4.576-5.408 0-3.104-1.696-5.024-4.512-5.024-3.136 0-5.12 1.984-5.12 5.184v.8c0 2.752 1.952 4.448 5.056 4.448M315.599 226l-4.576-15.808h3.808l3.232 12.224h.064l3.776-12.224h3.552l3.68 12.224h.064l3.328-12.224h3.392L331.343 226h-4.416l-3.424-11.616h-.096L319.855 226zm28.727.256c-5.024 0-8.256-3.104-8.256-8.128 0-5.056 3.232-8.192 8.256-8.192 5.056 0 8.288 3.136 8.288 8.192 0 5.024-3.232 8.128-8.288 8.128m0-2.944c2.912 0 4.704-1.984 4.704-5.184 0-3.232-1.792-5.248-4.704-5.248s-4.672 2.016-4.672 5.248c0 3.2 1.76 5.184 4.672 5.184M354.395 226v-15.808h3.584l-.128 4.544h.032c.736-2.848 2.368-4.8 5.632-4.8 3.424 0 5.312 2.24 5.312 6.176 0 .992-.096 2.272-.16 2.944h-3.264c.064-.608.128-1.408.128-2.144 0-2.656-1.024-3.904-3.136-3.904-2.72 0-4.416 2.304-4.416 6.08V226zm16.316 0v-22.176h3.584v14.656h.032l8.512-8.288h4.64l-7.392 6.88 7.808 8.928h-4.864l-5.568-6.656-3.168 2.912V226zm18.92 0v-4.16h3.616V226zM127.76 262h-4.704v-11.36h4.336c2.192 0 3.632.88 3.632 2.96v.144c0 1.008-.496 1.84-1.36 2.24 1.168.368 1.888 1.392 1.888 2.64v.24c0 2.064-1.6 3.136-3.792 3.136m-3.36-10.192v3.776h3.024c1.504 0 2.208-.704 2.208-1.824v-.144c0-1.36-.864-1.808-2.288-1.808zm0 4.928v4.096h3.312c1.424 0 2.448-.608 2.448-1.984v-.224c0-1.232-.8-1.888-2.288-1.888zm9.981 5.264h-1.28v-8.208h1.248l.016 1.584c.496-1.136 1.408-1.776 2.544-1.776.128 0 .272 0 .432.032v1.28c-.176-.016-.288-.016-.464-.016-1.488 0-2.496.912-2.496 2.704zm5.485-11.84v2.304h-1.344v-2.304zm-1.328 3.632h1.28V262h-1.28zm4.483 8.208h-1.28v-8.208h1.248l.032 1.328c.48-.88 1.344-1.52 2.656-1.52 1.952 0 2.848 1.2 2.848 3.088V262h-1.264v-5.008c0-1.472-.576-2.288-1.92-2.288-1.392 0-2.32 1.008-2.32 2.64zm10.801 2.912c-2.08 0-3.376-.944-3.52-2.352h1.376c.112.848.848 1.312 2.192 1.312 1.408 0 2.448-.672 2.448-2.192v-1.344c-.432.832-1.376 1.536-2.768 1.536-2.144 0-3.52-1.68-3.52-3.92v-.448c0-2.32 1.376-3.904 3.52-3.904 1.44 0 2.432.8 2.848 1.664l.032-1.472h1.184v7.808c0 1.952-1.36 3.312-3.792 3.312m-.048-4.128c1.68 0 2.624-1.136 2.624-2.832v-.448c0-1.76-.928-2.816-2.624-2.816-1.552 0-2.432 1.072-2.432 2.816v.448c0 1.68.896 2.832 2.432 2.832m7.092-10.624v2.304h-1.344v-2.304zm-1.328 3.632h1.28V262h-1.28zm4.483 8.208h-1.28v-8.208h1.248l.032 1.328c.48-.88 1.344-1.52 2.656-1.52 1.952 0 2.848 1.2 2.848 3.088V262h-1.264v-5.008c0-1.472-.576-2.288-1.92-2.288-1.392 0-2.32 1.008-2.32 2.64zm10.801 2.912c-2.08 0-3.376-.944-3.52-2.352h1.376c.112.848.848 1.312 2.192 1.312 1.408 0 2.448-.672 2.448-2.192v-1.344c-.432.832-1.376 1.536-2.768 1.536-2.144 0-3.52-1.68-3.52-3.92v-.448c0-2.32 1.376-3.904 3.52-3.904 1.44 0 2.432.8 2.848 1.664l.032-1.472h1.184v7.808c0 1.952-1.36 3.312-3.792 3.312m-.048-4.128c1.68 0 2.624-1.136 2.624-2.832v-.448c0-1.76-.928-2.816-2.624-2.816-1.552 0-2.432 1.072-2.432 2.816v.448c0 1.68.896 2.832 2.432 2.832m12.042 1.408c-2.128 0-3.52-1.68-3.52-4.144v-.304c0-2.464 1.36-4.144 3.52-4.144 1.392 0 2.32.688 2.768 1.504v-4.944h1.296V262h-1.184l-.032-1.472c-.416.848-1.392 1.664-2.848 1.664m.224-1.088c1.696 0 2.624-1.152 2.624-3.056v-.304c0-1.92-.944-3.056-2.624-3.056-1.536 0-2.432 1.152-2.432 3.056v.304c0 1.888.88 3.056 2.432 3.056m9.316 1.088c-2.48 0-3.904-1.712-3.904-4.144v-.304c0-2.448 1.456-4.144 3.888-4.144 2.608 0 3.84 1.792 3.728 4.544h-6.304c.032 1.904.992 2.96 2.592 2.96 1.296 0 2.096-.592 2.368-1.648h1.296c-.4 1.728-1.712 2.736-3.664 2.736m-2.56-5.088h4.928c-.128-1.52-.928-2.416-2.384-2.416-1.472 0-2.368.848-2.544 2.416m10.578 5.088c-1.936 0-3.248-.944-3.409-2.704h1.233c.192 1.168.96 1.664 2.208 1.664 1.152 0 1.92-.464 1.92-1.36 0-.784-.544-1.152-2.192-1.44-1.904-.352-2.88-.928-2.88-2.384 0-1.424 1.232-2.368 3.008-2.368 1.824 0 3.008.896 3.184 2.496h-1.264c-.144-.96-.88-1.456-1.92-1.456-1.056 0-1.744.48-1.744 1.264 0 .768.496 1.12 2.112 1.376 1.904.32 2.992.944 2.992 2.384 0 1.536-1.328 2.528-3.248 2.528m6.102-12.032v2.304h-1.344v-2.304zm-1.328 3.632h1.28V262h-1.28zm6.643 11.12c-2.08 0-3.376-.944-3.52-2.352h1.376c.112.848.848 1.312 2.192 1.312 1.408 0 2.448-.672 2.448-2.192v-1.344c-.432.832-1.376 1.536-2.768 1.536-2.144 0-3.52-1.68-3.52-3.92v-.448c0-2.32 1.376-3.904 3.52-3.904 1.44 0 2.432.8 2.848 1.664l.032-1.472h1.184v7.808c0 1.952-1.36 3.312-3.792 3.312m-.048-4.128c1.68 0 2.624-1.136 2.624-2.832v-.448c0-1.76-.928-2.816-2.624-2.816-1.552 0-2.432 1.072-2.432 2.816v.448c0 1.68.896 2.832 2.432 2.832m7.044 1.216h-1.28v-8.208h1.248l.032 1.328c.48-.88 1.344-1.52 2.656-1.52 1.952 0 2.848 1.2 2.848 3.088V262h-1.264v-5.008c0-1.472-.576-2.288-1.92-2.288-1.392 0-2.32 1.008-2.32 2.64zm10.337.192c-1.936 0-3.248-.944-3.409-2.704h1.233c.192 1.168.96 1.664 2.208 1.664 1.152 0 1.92-.464 1.92-1.36 0-.784-.544-1.152-2.192-1.44-1.904-.352-2.88-.928-2.88-2.384 0-1.424 1.232-2.368 3.008-2.368 1.824 0 3.008.896 3.184 2.496h-1.264c-.144-.96-.88-1.456-1.92-1.456-1.056 0-1.744.48-1.744 1.264 0 .768.496 1.12 2.112 1.376 1.904.32 2.992.944 2.992 2.384 0 1.536-1.328 2.528-3.248 2.528m11.243 0c-1.632 0-2.496-.752-2.496-2.256v-5.12h-1.648v-1.024h1.648v-2.528h1.28v2.528h2.352v1.024h-2.352v4.944c0 .912.304 1.344 1.376 1.344.32 0 .768-.08 1.04-.16v1.088c-.336.08-.848.16-1.2.16m6.004 0c-2.384 0-3.888-1.632-3.888-4.144v-.304c0-2.512 1.504-4.144 3.888-4.144s3.904 1.632 3.904 4.144v.304c0 2.512-1.52 4.144-3.904 4.144m0-1.088c1.68 0 2.592-1.136 2.592-3.056v-.304c0-1.92-.912-3.056-2.592-3.056-1.664 0-2.576 1.136-2.576 3.056v.304c0 1.92.912 3.056 2.576 3.056m8.589-10.944h1.28V262h-1.28zm4.531 0v2.304h-1.344v-2.304zm-1.328 3.632h1.28V262h-1.28zM267.51 262h-1.28v-7.184h-1.648v-1.024h1.648v-1.568c0-1.504.864-2.256 2.496-2.256.352 0 .864.08 1.2.16v1.072c-.272-.064-.72-.16-1.04-.16-1.072 0-1.376.448-1.376 1.36v1.392h2.352v1.024h-2.352zm6.752.192c-2.48 0-3.904-1.712-3.904-4.144v-.304c0-2.448 1.456-4.144 3.888-4.144 2.608 0 3.84 1.792 3.728 4.544h-6.304c.032 1.904.992 2.96 2.592 2.96 1.296 0 2.096-.592 2.368-1.648h1.296c-.4 1.728-1.712 2.736-3.664 2.736m-2.56-5.088h4.928c-.128-1.52-.928-2.416-2.384-2.416-1.472 0-2.368.848-2.544 2.416M285.737 262h-1.376l-2.512-8.208h1.296l1.92 6.64 1.952-6.64h1.264l1.984 6.688 1.936-6.688h1.296l-2.56 8.208h-1.36l-1.936-6.448zm10.27-11.84v2.304h-1.344v-2.304zm-1.328 3.632h1.28V262h-1.28zm6.563 8.4c-1.632 0-2.496-.752-2.496-2.256v-5.12h-1.648v-1.024h1.648v-2.528h1.28v2.528h2.352v1.024h-2.352v4.944c0 .912.304 1.344 1.376 1.344.32 0 .768-.08 1.04-.16v1.088c-.336.08-.848.16-1.2.16m3.92-.192h-1.28v-11.84h1.28v4.944c.48-.88 1.36-1.504 2.656-1.504 1.952 0 2.848 1.2 2.848 3.088V262h-1.264v-5.008c0-1.472-.576-2.288-1.92-2.288-1.392 0-2.32 1.008-2.32 2.64zm13.926.192c-2.432 0-3.808-1.712-3.808-4.144v-.304c0-2.448 1.376-4.144 3.824-4.144 1.984 0 3.264 1.168 3.488 2.928h-1.28c-.224-1.136-.944-1.84-2.24-1.84-1.6 0-2.48 1.12-2.48 3.056v.304c0 1.936.88 3.056 2.496 3.056 1.28 0 2.048-.752 2.272-1.888h1.28c-.304 1.824-1.584 2.976-3.552 2.976m8.502 0c-2.384 0-3.888-1.632-3.888-4.144v-.304c0-2.512 1.504-4.144 3.888-4.144s3.904 1.632 3.904 4.144v.304c0 2.512-1.52 4.144-3.904 4.144m0-1.088c1.68 0 2.592-1.136 2.592-3.056v-.304c0-1.92-.912-3.056-2.592-3.056-1.664 0-2.576 1.136-2.576 3.056v.304c0 1.92.912 3.056 2.576 3.056m8.647 1.088c-2.128 0-3.52-1.68-3.52-4.144v-.304c0-2.464 1.36-4.144 3.52-4.144 1.392 0 2.32.688 2.768 1.504v-4.944h1.296V262h-1.184l-.032-1.472c-.416.848-1.392 1.664-2.848 1.664m.224-1.088c1.696 0 2.624-1.152 2.624-3.056v-.304c0-1.92-.944-3.056-2.624-3.056-1.536 0-2.432 1.152-2.432 3.056v.304c0 1.888.88 3.056 2.432 3.056m9.317 1.088c-2.48 0-3.904-1.712-3.904-4.144v-.304c0-2.448 1.456-4.144 3.888-4.144 2.608 0 3.84 1.792 3.728 4.544h-6.304c.032 1.904.992 2.96 2.592 2.96 1.296 0 2.096-.592 2.368-1.648h1.296c-.4 1.728-1.712 2.736-3.664 2.736m-2.56-5.088h4.928c-.128-1.52-.928-2.416-2.384-2.416-1.472 0-2.368.848-2.544 2.416m7.038 7.536v-.8c.864 0 1.296-.464 1.296-1.376V262h-.64v-1.648h1.504v2.032c0 1.408-.832 2.256-2.16 2.256M114.737 286h-1.28v-7.184h-1.648v-1.024h1.648v-1.568c0-1.504.864-2.256 2.496-2.256.352 0 .864.08 1.2.16v1.072c-.272-.064-.72-.16-1.04-.16-1.072 0-1.376.448-1.376 1.36v1.392h2.352v1.024h-2.352zm4.901 0h-1.28v-8.208h1.248l.016 1.584c.496-1.136 1.408-1.776 2.544-1.776.128 0 .272 0 .432.032v1.28c-.176-.016-.288-.016-.464-.016-1.488 0-2.496.912-2.496 2.704zm7.428.192c-2.384 0-3.888-1.632-3.888-4.144v-.304c0-2.512 1.504-4.144 3.888-4.144s3.904 1.632 3.904 4.144v.304c0 2.512-1.52 4.144-3.904 4.144m0-1.088c1.68 0 2.592-1.136 2.592-3.056v-.304c0-1.92-.912-3.056-2.592-3.056-1.664 0-2.576 1.136-2.576 3.056v.304c0 1.92.912 3.056 2.576 3.056m6.76.896h-1.28v-8.208h1.248l.016 1.296c.448-.816 1.296-1.488 2.592-1.488 1.248 0 2.08.592 2.464 1.632.576-1.04 1.504-1.632 2.736-1.632 1.808 0 2.72 1.152 2.72 3.056V286h-1.28v-5.072c0-1.472-.56-2.224-1.808-2.224-1.36 0-2.16 1.024-2.16 2.656V286h-1.28v-5.072c0-1.456-.528-2.224-1.776-2.224-1.36 0-2.192 1.024-2.192 2.688zm18.814.192c-1.632 0-2.496-.752-2.496-2.256v-5.12h-1.648v-1.024h1.648v-2.528h1.28v2.528h2.352v1.024h-2.352v4.944c0 .912.304 1.344 1.376 1.344.32 0 .768-.08 1.04-.16v1.088c-.336.08-.848.16-1.2.16m3.92-.192h-1.28v-11.84h1.28v4.944c.48-.88 1.36-1.504 2.656-1.504 1.952 0 2.848 1.2 2.848 3.088V286H160.8v-5.008c0-1.472-.576-2.288-1.92-2.288-1.392 0-2.32 1.008-2.32 2.64zm10.913.192c-2.48 0-3.904-1.712-3.904-4.144v-.304c0-2.448 1.456-4.144 3.888-4.144 2.608 0 3.84 1.792 3.728 4.544h-6.304c.032 1.904.992 2.96 2.592 2.96 1.296 0 2.096-.592 2.368-1.648h1.296c-.4 1.728-1.712 2.736-3.664 2.736m-2.56-5.088h4.928c-.128-1.52-.928-2.416-2.384-2.416-1.472 0-2.368.848-2.544 2.416M177.924 286h-1.28v-7.184h-1.648v-1.024h1.648v-1.568c0-1.504.864-2.256 2.496-2.256.352 0 .864.08 1.2.16v1.072c-.272-.064-.72-.16-1.04-.16-1.072 0-1.376.448-1.376 1.36v1.392h2.352v1.024h-2.352zm4.944-9.536h-1.344v-2.304h1.344zm-.048 1.328V286h-1.28v-8.208zm3.193 8.208h-1.28v-8.208h1.248l.016 1.584c.496-1.136 1.408-1.776 2.544-1.776.128 0 .272 0 .432.032v1.28c-.176-.016-.288-.016-.464-.016-1.488 0-2.496.912-2.496 2.704zm6.9.192c-1.936 0-3.248-.944-3.408-2.704h1.232c.192 1.168.96 1.664 2.208 1.664 1.152 0 1.92-.464 1.92-1.36 0-.784-.544-1.152-2.192-1.44-1.904-.352-2.88-.928-2.88-2.384 0-1.424 1.232-2.368 3.008-2.368 1.824 0 3.008.896 3.184 2.496h-1.264c-.144-.96-.88-1.456-1.92-1.456-1.056 0-1.744.48-1.744 1.264 0 .768.496 1.12 2.112 1.376 1.904.32 2.992.944 2.992 2.384 0 1.536-1.328 2.528-3.248 2.528m7.899 0c-1.632 0-2.496-.752-2.496-2.256v-5.12h-1.648v-1.024h1.648v-2.528h1.28v2.528h2.352v1.024h-2.352v4.944c0 .912.304 1.344 1.376 1.344.32 0 .768-.08 1.04-.16v1.088c-.336.08-.848.16-1.2.16m7.03 2.528h-1.28v-10.928h1.2l.032 1.472c.416-.864 1.392-1.664 2.848-1.664 2.128 0 3.52 1.664 3.52 4.144v.304c0 2.464-1.392 4.144-3.536 4.144-1.392 0-2.336-.72-2.784-1.536zm2.56-3.616c1.552 0 2.448-1.152 2.448-3.056v-.304c0-1.904-.896-3.056-2.432-3.056-1.696 0-2.624 1.152-2.624 3.056v.304c0 1.92.944 3.056 2.608 3.056m6.659-10.944v2.304h-1.344v-2.304zm-1.328 3.632h1.28V286h-1.28zm3.908 8.208h-1.424l2.992-4.208-2.848-4h1.52l2.128 3.04 2.144-3.04h1.424l-2.848 3.952 3.04 4.256h-1.52l-2.32-3.312zm10.41.192c-2.48 0-3.904-1.712-3.904-4.144v-.304c0-2.448 1.456-4.144 3.888-4.144 2.608 0 3.84 1.792 3.728 4.544h-6.304c.032 1.904.992 2.96 2.592 2.96 1.296 0 2.096-.592 2.368-1.648h1.296c-.4 1.728-1.712 2.736-3.664 2.736m-2.56-5.088h4.928c-.128-1.52-.928-2.416-2.384-2.416-1.472 0-2.368.848-2.544 2.416m7.758-6.944h1.28V286h-1.28zm9.673 12.032c-1.632 0-2.496-.752-2.496-2.256v-5.12h-1.648v-1.024h1.648v-2.528h1.28v2.528h2.352v1.024h-2.352v4.944c0 .912.304 1.344 1.376 1.344.32 0 .768-.08 1.04-.16v1.088c-.336.08-.848.16-1.2.16m6.004 0c-2.384 0-3.888-1.632-3.888-4.144v-.304c0-2.512 1.504-4.144 3.888-4.144s3.904 1.632 3.904 4.144v.304c0 2.512-1.52 4.144-3.904 4.144m0-1.088c1.68 0 2.592-1.136 2.592-3.056v-.304c0-1.92-.912-3.056-2.592-3.056-1.664 0-2.576 1.136-2.576 3.056v.304c0 1.92.912 3.056 2.576 3.056m10.941 1.088c-1.712 0-2.752-.96-2.752-2.336 0-1.184.704-2.08 2.016-2.272l3.456-.512v-.72c0-1.184-.832-1.712-1.888-1.712-1.136 0-1.92.56-2.016 1.552h-1.248c.144-1.632 1.376-2.592 3.28-2.592 2 0 3.136 1.136 3.136 2.832V286h-1.2l-.048-1.28c-.528.96-1.584 1.472-2.736 1.472m.128-1.072c1.376 0 2.592-.912 2.592-2.16v-.848l-3.04.448c-.784.112-1.136.56-1.136 1.264 0 .784.544 1.296 1.584 1.296m10.961.88h-1.28v-7.184h-1.648v-1.024h1.648v-1.568c0-1.504.864-2.256 2.496-2.256.352 0 .864.08 1.2.16v1.072c-.272-.064-.72-.16-1.04-.16-1.072 0-1.376.448-1.376 1.36v1.392h2.352v1.024h-2.352zm6.264.192c-1.888 0-2.816-1.184-2.816-3.104v-5.296h1.28v5.056c0 1.376.528 2.224 1.904 2.224 1.408 0 2.208-1.088 2.208-2.672v-4.608h1.28V286h-1.248l-.016-1.296c-.496.88-1.392 1.488-2.592 1.488m5.779-12.032h1.28V286h-1.28zm3.203 0h1.28V286h-1.28zm5.939 14.56h-1.312l1.056-2.736-3.2-8.192h1.376l2.496 6.72 2.384-6.72h1.328zm12.5-2.528c-1.44 0-2.416-.784-2.832-1.632l-.032 1.44h-1.2v-11.84h1.28v4.96c.448-.816 1.392-1.52 2.8-1.52 2.144 0 3.52 1.68 3.52 4.144v.304c0 2.464-1.424 4.144-3.536 4.144m-.208-1.088c1.536 0 2.432-1.168 2.432-3.056v-.304c0-1.904-.896-3.056-2.448-3.056-1.664 0-2.608 1.136-2.608 3.056v.304c0 1.904.928 3.056 2.624 3.056m7.99 1.088c-1.888 0-2.816-1.184-2.816-3.104v-5.296h1.28v5.056c0 1.376.528 2.224 1.904 2.224 1.408 0 2.208-1.088 2.208-2.672v-4.608h1.28V286h-1.248l-.016-1.296c-.496.88-1.392 1.488-2.592 1.488m7.107-12.032v2.304h-1.344v-2.304zm-1.328 3.632h1.28V286h-1.28zm3.203-3.632h1.28V286h-1.28zm6.642 12.032c-1.632 0-2.496-.752-2.496-2.256v-5.12h-1.648v-1.024h1.648v-2.528h1.28v2.528h2.352v1.024h-2.352v4.944c0 .912.304 1.344 1.376 1.344.32 0 .768-.08 1.04-.16v1.088c-.336.08-.848.16-1.2.16m8.725 0c-1.936 0-3.248-.944-3.408-2.704h1.232c.192 1.168.96 1.664 2.208 1.664 1.152 0 1.92-.464 1.92-1.36 0-.784-.544-1.152-2.192-1.44-1.904-.352-2.88-.928-2.88-2.384 0-1.424 1.232-2.368 3.008-2.368 1.824 0 3.008.896 3.184 2.496h-1.264c-.144-.96-.88-1.456-1.92-1.456-1.056 0-1.744.48-1.744 1.264 0 .768.496 1.12 2.112 1.376 1.904.32 2.992.944 2.992 2.384 0 1.536-1.328 2.528-3.248 2.528m6.102-12.032v2.304h-1.344v-2.304zm-1.328 3.632h1.28V286h-1.28zm6.563 8.4c-1.632 0-2.496-.752-2.496-2.256v-5.12h-1.648v-1.024h1.648v-2.528h1.28v2.528h2.352v1.024h-2.352v4.944c0 .912.304 1.344 1.376 1.344.32 0 .768-.08 1.04-.16v1.088c-.336.08-.848.16-1.2.16m6.02 0c-2.48 0-3.904-1.712-3.904-4.144v-.304c0-2.448 1.456-4.144 3.888-4.144 2.608 0 3.84 1.792 3.728 4.544h-6.304c.032 1.904.992 2.96 2.592 2.96 1.296 0 2.096-.592 2.368-1.648h1.296c-.4 1.728-1.712 2.736-3.664 2.736m-2.56-5.088h4.928c-.128-1.52-.928-2.416-2.384-2.416-1.472 0-2.368.848-2.544 2.416m9.199 4.896h-1.504v-1.648h1.504z" style="fill:#1c5344;fill:color(display-p3 .1098 .3255 .2667);fill-opacity:1"/><rect width="64" height="32" x="170" y="312" fill="#fff" rx="8" style="fill:#fff;fill-opacity:1"/><rect width="65" height="33" x="169.5" y="311.5" stroke="#9C1609" stroke-opacity=".12" rx="8.5" style="stroke:#9c1609;stroke:color(display-p3 .6118 .0863 .0353);stroke-opacity:.12"/><path fill="#1C5344" d="M192.688 332h-4.968v-8.52h1.404v7.356h3.564zm3.639.156c-1.848 0-3.048-1.272-3.048-3.156v-.18c0-1.884 1.2-3.144 3.048-3.144 1.86 0 3.06 1.26 3.06 3.144v.18c0 1.884-1.2 3.156-3.06 3.156m0-1.068c1.128 0 1.716-.756 1.716-2.088v-.18c0-1.332-.588-2.076-1.716-2.076-1.116 0-1.704.744-1.704 2.076v.18c0 1.332.588 2.088 1.704 2.088m6.854 3.108c-1.704 0-2.664-.756-2.796-1.836h1.44c.072.54.54.84 1.428.84 1.02 0 1.632-.504 1.632-1.476v-.912c-.324.6-1.02 1.092-1.98 1.092-1.644 0-2.676-1.296-2.676-3v-.24c0-1.716 1.02-2.988 2.64-2.988 1.056 0 1.764.576 2.076 1.164l.036-1.02h1.224v5.784c0 1.596-1.068 2.592-3.024 2.592m.048-3.348c1.092 0 1.704-.768 1.704-1.944v-.24c0-1.2-.6-1.944-1.704-1.944-1.068 0-1.656.744-1.656 1.944v.24c0 1.176.6 1.944 1.656 1.944m5.65-7.728v1.8h-1.38v-1.8zm-1.356 2.7h1.32V332h-1.32zm3.957 6.18h-1.32v-6.18h1.272l.048.984c.324-.612.972-1.128 1.968-1.128 1.5 0 2.136.936 2.136 2.34V332h-1.308v-3.66c0-1.008-.372-1.572-1.272-1.572-.912 0-1.524.672-1.524 1.776z" style="fill:#1c5344;fill:color(display-p3 .1098 .3255 .2667);fill-opacity:1"/><rect width="64" height="32" x="242" y="312" fill="#9C1609" fill-opacity=".04" rx="8" style="fill:#9c1609;fill:color(display-p3 .6118 .0863 .0353);fill-opacity:.04"/><rect width="65" height="33" x="241.5" y="311.5" stroke="#9C1609" stroke-opacity=".12" rx="8.5" style="stroke:#9c1609;stroke:color(display-p3 .6118 .0863 .0353);stroke-opacity:.12"/><path fill="#1C5344" d="M257.864 332.156c-2.04 0-3.396-1.032-3.492-2.856h1.392c.12 1.188.984 1.692 2.16 1.692 1.068 0 1.836-.42 1.836-1.272v-.06c0-.732-.516-1.104-2.244-1.416-2.1-.372-2.844-1.152-2.844-2.424v-.084c0-1.392 1.212-2.412 3.072-2.412 1.788 0 3.084.888 3.252 2.628h-1.404c-.12-.984-.816-1.476-1.872-1.476s-1.68.48-1.68 1.224v.06c0 .66.36 1.032 2.052 1.32 2.04.348 3.048 1.056 3.048 2.448v.096c0 1.476-1.26 2.532-3.276 2.532m5.675-9.036v1.8h-1.38v-1.8zm-1.356 2.7h1.32V332h-1.32zm5.349 8.376c-1.704 0-2.664-.756-2.796-1.836h1.44c.072.54.54.84 1.428.84 1.02 0 1.632-.504 1.632-1.476v-.912c-.324.6-1.02 1.092-1.98 1.092-1.644 0-2.676-1.296-2.676-3v-.24c0-1.716 1.02-2.988 2.64-2.988 1.056 0 1.764.576 2.076 1.164l.036-1.02h1.224v5.784c0 1.596-1.068 2.592-3.024 2.592m.048-3.348c1.092 0 1.704-.768 1.704-1.944v-.24c0-1.2-.6-1.944-1.704-1.944-1.068 0-1.656.744-1.656 1.944v.24c0 1.176.6 1.944 1.656 1.944m5.615 1.152h-1.32v-6.18h1.272l.048.984c.324-.612.972-1.128 1.968-1.128 1.5 0 2.136.936 2.136 2.34V332h-1.308v-3.66c0-1.008-.372-1.572-1.272-1.572-.912 0-1.524.672-1.524 1.776zm9.698.156c-1.44 0-2.136-.912-2.136-2.364v-3.972h1.332v3.72c0 .948.348 1.512 1.236 1.512.912 0 1.452-.696 1.452-1.8v-3.432h1.332V332h-1.284l-.024-.936c-.36.6-1.02 1.092-1.908 1.092m5.865 1.884h-1.332v-8.22h1.236l.036 1.02c.3-.588 1.02-1.164 2.076-1.164 1.62 0 2.64 1.296 2.64 3.144v.18c0 1.848-1.044 3.156-2.676 3.156-.96 0-1.644-.504-1.98-1.092zm1.656-2.952c1.056 0 1.656-.756 1.656-2.088v-.18c0-1.332-.6-2.1-1.656-2.1-1.104 0-1.704.768-1.704 2.1v.18c0 1.332.6 2.088 1.704 2.088" style="fill:#1c5344;fill:color(display-p3 .1098 .3255 .2667);fill-opacity:1"/><path fill="#1C5344" fill-rule="evenodd" d="M91.085 101.703C98.445 100.265 104 93.781 104 86c0-8.837-7.163-16-16-16s-16 7.163-16 16c0 3.802 1.326 7.295 3.541 10.04 2.18-.9 2.86-3.256 2.86-4.44 2.4 0 8-2.4 8-10.391 0 3.991-3.6 8.65-9.695 8.65H75.2s2.167-5.837 2.135-11.034c0-.537.416-1 .95-1.042 3.427-.3 7.185-2.277 8.316-2.921a.53.53 0 0 1 .63.097l.64.644a.26.26 0 0 0 .31.054l1.484-.752a.52.52 0 0 1 .715.236l.705 1.428a.28.28 0 0 0 .363.119l1.452-.73a.53.53 0 0 1 .693.203l2.723 4.564h.01c.15.237.374.42.652.484.693.182 2.113.537 3.02.762.481.118.823.57.801 1.063-.224 5.96-2.946 9.88-8.519 9.88-.837.843-3.817 4.941-1.195 8.789" clip-rule="evenodd" style="fill:#1c5344;fill:color(display-p3 .1098 .3255 .2667);fill-opacity:1"/><rect width="64" height="32" x="340" y="70" fill="#fff" rx="8" style="fill:#fff;fill-opacity:1"/><rect width="65" height="33" x="339.5" y="69.5" stroke="#9C1609" stroke-opacity=".12" rx="8.5" style="stroke:#9c1609;stroke:color(display-p3 .6118 .0863 .0353);stroke-opacity:.12"/><path fill="#1C5344" d="M362.688 90h-4.968v-8.52h1.404v7.356h3.564zm3.639.156c-1.848 0-3.048-1.272-3.048-3.156v-.18c0-1.884 1.2-3.144 3.048-3.144 1.86 0 3.06 1.26 3.06 3.144V87c0 1.884-1.2 3.156-3.06 3.156m0-1.068c1.128 0 1.716-.756 1.716-2.088v-.18c0-1.332-.588-2.076-1.716-2.076-1.116 0-1.704.744-1.704 2.076V87c0 1.332.588 2.088 1.704 2.088m6.854 3.108c-1.704 0-2.664-.756-2.796-1.836h1.44c.072.54.54.84 1.428.84 1.02 0 1.632-.504 1.632-1.476v-.912c-.324.6-1.02 1.092-1.98 1.092-1.644 0-2.676-1.296-2.676-3v-.24c0-1.716 1.02-2.988 2.64-2.988 1.056 0 1.764.576 2.076 1.164l.036-1.02h1.224v5.784c0 1.596-1.068 2.592-3.024 2.592m.048-3.348c1.092 0 1.704-.768 1.704-1.944v-.24c0-1.2-.6-1.944-1.704-1.944-1.068 0-1.656.744-1.656 1.944v.24c0 1.176.6 1.944 1.656 1.944m5.65-7.728v1.8h-1.38v-1.8zm-1.356 2.7h1.32V90h-1.32zM381.48 90h-1.32v-6.18h1.272l.048.984c.324-.612.972-1.128 1.968-1.128 1.5 0 2.136.936 2.136 2.34V90h-1.308v-3.66c0-1.008-.372-1.572-1.272-1.572-.912 0-1.524.672-1.524 1.776z" style="fill:#1c5344;fill:color(display-p3 .1098 .3255 .2667);fill-opacity:1"/><path fill="url(#d)" d="M444 74c0-11.046 8.954-20 20-20h324c11.046 0 20 8.954 20 20v440c0 11.046-8.954 20-20 20H464c-11.046 0-20-8.954-20-20z"/><path fill="#1C5344" fill-rule="evenodd" d="M479.084 101.703C486.445 100.265 492 93.781 492 86c0-8.837-7.163-16-16-16s-16 7.163-16 16c0 3.802 1.326 7.295 3.541 10.04 2.179-.9 2.859-3.256 2.859-4.44 2.4 0 8-2.4 8-10.391 0 3.991-3.6 8.65-9.694 8.65H463.2s2.167-5.837 2.135-11.034c0-.537.416-1 .95-1.042 3.427-.3 7.185-2.277 8.316-2.921a.535.535 0 0 1 .63.097l.641.644a.26.26 0 0 0 .309.054l1.484-.752a.52.52 0 0 1 .715.236l.705 1.428a.28.28 0 0 0 .363.119l1.452-.73a.53.53 0 0 1 .693.203l2.723 4.564h.01c.15.237.374.42.651.484.694.182 2.114.537 3.022.762.48.118.822.57.8 1.063-.224 5.96-2.946 9.88-8.519 9.88-.837.843-3.817 4.941-1.196 8.789" clip-rule="evenodd" style="fill:#1c5344;fill:color(display-p3 .1098 .3255 .2667);fill-opacity:1"/><rect width="64" height="32" x="728" y="70" fill="#fff" rx="8" style="fill:#fff;fill-opacity:1"/><rect width="65" height="33" x="727.5" y="69.5" stroke="#9C1609" stroke-opacity=".12" rx="8.5" style="stroke:#9c1609;stroke:color(display-p3 .6118 .0863 .0353);stroke-opacity:.12"/><path fill="#1C5344" d="M750.688 90h-4.968v-8.52h1.404v7.356h3.564zm3.639.156c-1.848 0-3.048-1.272-3.048-3.156v-.18c0-1.884 1.2-3.144 3.048-3.144 1.86 0 3.06 1.26 3.06 3.144V87c0 1.884-1.2 3.156-3.06 3.156m0-1.068c1.128 0 1.716-.756 1.716-2.088v-.18c0-1.332-.588-2.076-1.716-2.076-1.116 0-1.704.744-1.704 2.076V87c0 1.332.588 2.088 1.704 2.088m6.854 3.108c-1.704 0-2.664-.756-2.796-1.836h1.44c.072.54.54.84 1.428.84 1.02 0 1.632-.504 1.632-1.476v-.912c-.324.6-1.02 1.092-1.98 1.092-1.644 0-2.676-1.296-2.676-3v-.24c0-1.716 1.02-2.988 2.64-2.988 1.056 0 1.764.576 2.076 1.164l.036-1.02h1.224v5.784c0 1.596-1.068 2.592-3.024 2.592m.048-3.348c1.092 0 1.704-.768 1.704-1.944v-.24c0-1.2-.6-1.944-1.704-1.944-1.068 0-1.656.744-1.656 1.944v.24c0 1.176.6 1.944 1.656 1.944m5.65-7.728v1.8h-1.38v-1.8zm-1.356 2.7h1.32V90h-1.32zM769.48 90h-1.32v-6.18h1.272l.048.984c.324-.612.972-1.128 1.968-1.128 1.5 0 2.136.936 2.136 2.34V90h-1.308v-3.66c0-1.008-.372-1.572-1.272-1.572-.912 0-1.524.672-1.524 1.776zM473.974 226v-21.056h6.144l5.632 15.904h.064l5.664-15.904h5.984V226h-3.84l.096-18.048h-.064L487.222 226h-3.2l-6.432-18.048h-.064L477.59 226zm31.626.256c-3.616 0-6.016-1.728-6.016-4.8 0-2.4 1.696-4.288 5.92-4.288h5.856v-1.12c0-2.368-1.376-3.424-4.16-3.424-2.432 0-3.808.928-3.808 2.688 0 .096 0 .352.032.608h-3.296a8 8 0 0 1-.064-.928c0-3.168 2.752-5.056 7.264-5.056 4.8 0 7.616 2.272 7.616 6.432V226h-3.584c.064-.768.16-2.208.16-3.488h-.032c-.512 2.336-2.4 3.744-5.888 3.744m.736-2.688c3.104 0 5.024-1.504 5.024-3.936v-.288h-5.536c-2.048 0-2.944.704-2.944 1.952 0 1.44 1.28 2.272 3.456 2.272M517.192 226v-22.176h3.584v14.656h.032l8.512-8.288h4.64l-7.392 6.88 7.808 8.928h-4.864l-5.568-6.656-3.168 2.912V226zm18.407-17.664v-3.52h3.68v3.52zm.032 17.664v-15.808h3.584V226zm6.061 0v-15.808h3.584l-.128 4.224h.032c.864-2.848 2.912-4.48 6.592-4.48 4 0 6.464 2.272 6.464 6.176V226h-3.584v-9.088c0-2.496-1.408-3.904-4.256-3.904-3.136 0-5.12 1.888-5.12 5.344V226zm29.665-2.496c3.392 0 5.344 1.472 5.344 4 0 3.328-3.104 5.312-8.32 5.312-5.344 0-8.544-1.632-8.544-4.48 0-1.6 1.184-2.784 3.072-2.88v-.032c-.896-.608-1.376-1.472-1.376-2.592 0-1.344.608-2.272 1.472-2.688v-.064c-1.568-.96-2.432-2.528-2.432-4.512 0-3.456 2.688-5.632 7.04-5.632 1.792 0 3.264.352 4.416 1.024l.032-.032c-.48-.512-.768-1.12-.768-1.792 0-1.28 1.216-2.08 3.104-2.08.768 0 1.216.064 1.6.16v2.528c-.256-.096-.608-.16-1.056-.16-1.056 0-1.568.448-1.568 1.312 0 .448.16.992.352 1.6.608.832.928 1.888.928 3.072 0 3.488-2.688 5.632-7.04 5.632-1.024 0-1.952-.128-2.784-.352-.192.224-.384.672-.384 1.216 0 .896.64 1.44 1.792 1.44zm-3.744-11.008c-2.24 0-3.616 1.184-3.616 3.072s1.376 3.072 3.616 3.072 3.616-1.184 3.616-3.072-1.376-3.072-3.616-3.072m.736 17.792c3.36 0 4.768-.96 4.768-2.368 0-1.056-.8-1.632-2.496-1.632h-4.288c-1.792 0-2.944.544-2.944 1.76 0 1.504 1.92 2.24 4.96 2.24m23.012-4.096c-4.32 0-6.016-2.336-6.016-5.824v-7.264h-2.496v-2.912h2.016c.608 0 .832-.32.928-1.216l.16-2.368h2.976v3.584h5.44v2.912h-5.44v7.072c0 2.048.768 3.072 2.944 3.072.896 0 1.92-.16 2.368-.288v2.848c-.48.16-1.568.384-2.88.384m4.682-.192v-22.176h3.584v7.168c0 .768-.064 2.592-.096 3.456h.032c.832-2.88 2.88-4.512 6.592-4.512 4 0 6.464 2.272 6.464 6.176V226h-3.584v-9.088c0-2.496-1.408-3.904-4.256-3.904-3.168 0-5.152 1.952-5.152 5.504V226zm33.694-8.48v1.28h-11.84c.192 3.04 1.888 4.672 4.576 4.672 2.304 0 3.872-1.024 4.032-2.88h3.232c-.128 3.52-3.008 5.664-7.328 5.664-4.992 0-8.128-3.072-8.128-8.032 0-5.12 3.136-8.288 8.128-8.288 4.48 0 7.328 2.656 7.328 7.584m-3.232-.896v-.224c0-2.368-1.472-3.68-4.064-3.68-2.464 0-4.032 1.28-4.448 3.904zM641.126 226l-4.576-15.808h3.808l3.232 12.224h.064l3.776-12.224h3.552l3.68 12.224h.064l3.328-12.224h3.392L656.87 226h-4.416l-3.424-11.616h-.096L645.382 226zm35.927-8.48v1.28h-11.84c.192 3.04 1.888 4.672 4.576 4.672 2.304 0 3.872-1.024 4.032-2.88h3.232c-.128 3.52-3.008 5.664-7.328 5.664-4.992 0-8.128-3.072-8.128-8.032 0-5.12 3.136-8.288 8.128-8.288 4.48 0 7.328 2.656 7.328 7.584m-3.232-.896v-.224c0-2.368-1.472-3.68-4.064-3.68-2.464 0-4.032 1.28-4.448 3.904zm14.734 9.632c-3.264 0-5.44-1.408-6.08-3.616h-.032c0 1.12.064 2.56.128 3.36h-3.584v-22.176h3.584v7.168c0 .672-.032 1.952-.064 2.72h.032c.672-2.304 2.848-3.776 5.984-3.776 4.544 0 7.264 3.008 7.264 7.872 0 5.216-2.784 8.448-7.232 8.448m-.928-2.944c2.816 0 4.576-2.048 4.576-5.408 0-3.104-1.696-5.024-4.512-5.024-3.136 0-5.12 1.984-5.12 5.184v.8c0 2.752 1.952 4.448 5.056 4.448M707.162 226l-4.576-15.808h3.808l3.232 12.224h.064l3.776-12.224h3.552l3.68 12.224h.064l3.328-12.224h3.392L722.906 226h-4.416l-3.424-11.616h-.096L711.418 226zm28.727.256c-5.024 0-8.256-3.104-8.256-8.128 0-5.056 3.232-8.192 8.256-8.192 5.056 0 8.288 3.136 8.288 8.192 0 5.024-3.232 8.128-8.288 8.128m0-2.944c2.912 0 4.704-1.984 4.704-5.184 0-3.232-1.792-5.248-4.704-5.248s-4.672 2.016-4.672 5.248c0 3.2 1.76 5.184 4.672 5.184M745.958 226v-15.808h3.584l-.128 4.544h.032c.736-2.848 2.368-4.8 5.632-4.8 3.424 0 5.312 2.24 5.312 6.176 0 .992-.096 2.272-.16 2.944h-3.264c.064-.608.128-1.408.128-2.144 0-2.656-1.024-3.904-3.136-3.904-2.72 0-4.416 2.304-4.416 6.08V226zm16.316 0v-22.176h3.584v14.656h.032l8.512-8.288h4.64l-7.392 6.88 7.808 8.928h-4.864l-5.568-6.656-3.168 2.912V226zM515.76 262h-4.704v-11.36h4.336c2.192 0 3.632.88 3.632 2.96v.144c0 1.008-.496 1.84-1.36 2.24 1.168.368 1.888 1.392 1.888 2.64v.24c0 2.064-1.6 3.136-3.792 3.136m-3.36-10.192v3.776h3.024c1.504 0 2.208-.704 2.208-1.824v-.144c0-1.36-.864-1.808-2.288-1.808zm0 4.928v4.096h3.312c1.424 0 2.448-.608 2.448-1.984v-.224c0-1.232-.8-1.888-2.288-1.888zm9.981 5.264h-1.28v-8.208h1.248l.016 1.584c.496-1.136 1.408-1.776 2.544-1.776.128 0 .272 0 .432.032v1.28c-.176-.016-.288-.016-.464-.016-1.488 0-2.496.912-2.496 2.704zm5.485-11.84v2.304h-1.344v-2.304zm-1.328 3.632h1.28V262h-1.28zm4.483 8.208h-1.28v-8.208h1.248l.032 1.328c.48-.88 1.344-1.52 2.656-1.52 1.952 0 2.848 1.2 2.848 3.088V262h-1.264v-5.008c0-1.472-.576-2.288-1.92-2.288-1.392 0-2.32 1.008-2.32 2.64zm10.801 2.912c-2.08 0-3.376-.944-3.52-2.352h1.376c.112.848.848 1.312 2.192 1.312 1.408 0 2.448-.672 2.448-2.192v-1.344c-.432.832-1.376 1.536-2.768 1.536-2.144 0-3.52-1.68-3.52-3.92v-.448c0-2.32 1.376-3.904 3.52-3.904 1.44 0 2.432.8 2.848 1.664l.032-1.472h1.184v7.808c0 1.952-1.36 3.312-3.792 3.312m-.048-4.128c1.68 0 2.624-1.136 2.624-2.832v-.448c0-1.76-.928-2.816-2.624-2.816-1.552 0-2.432 1.072-2.432 2.816v.448c0 1.68.896 2.832 2.432 2.832m7.092-10.624v2.304h-1.344v-2.304zm-1.328 3.632h1.28V262h-1.28zm4.483 8.208h-1.28v-8.208h1.248l.032 1.328c.48-.88 1.344-1.52 2.656-1.52 1.952 0 2.848 1.2 2.848 3.088V262h-1.264v-5.008c0-1.472-.576-2.288-1.92-2.288-1.392 0-2.32 1.008-2.32 2.64zm10.801 2.912c-2.08 0-3.376-.944-3.52-2.352h1.376c.112.848.848 1.312 2.192 1.312 1.408 0 2.448-.672 2.448-2.192v-1.344c-.432.832-1.376 1.536-2.768 1.536-2.144 0-3.52-1.68-3.52-3.92v-.448c0-2.32 1.376-3.904 3.52-3.904 1.44 0 2.432.8 2.848 1.664l.032-1.472h1.184v7.808c0 1.952-1.36 3.312-3.792 3.312m-.048-4.128c1.68 0 2.624-1.136 2.624-2.832v-.448c0-1.76-.928-2.816-2.624-2.816-1.552 0-2.432 1.072-2.432 2.816v.448c0 1.68.896 2.832 2.432 2.832m12.042 1.408c-2.128 0-3.52-1.68-3.52-4.144v-.304c0-2.464 1.36-4.144 3.52-4.144 1.392 0 2.32.688 2.768 1.504v-4.944h1.296V262h-1.184l-.032-1.472c-.416.848-1.392 1.664-2.848 1.664m.224-1.088c1.696 0 2.624-1.152 2.624-3.056v-.304c0-1.92-.944-3.056-2.624-3.056-1.536 0-2.432 1.152-2.432 3.056v.304c0 1.888.88 3.056 2.432 3.056m9.316 1.088c-2.48 0-3.904-1.712-3.904-4.144v-.304c0-2.448 1.456-4.144 3.888-4.144 2.608 0 3.84 1.792 3.728 4.544h-6.304c.032 1.904.992 2.96 2.592 2.96 1.296 0 2.096-.592 2.368-1.648h1.296c-.4 1.728-1.712 2.736-3.664 2.736m-2.56-5.088h4.928c-.128-1.52-.928-2.416-2.384-2.416-1.472 0-2.368.848-2.544 2.416m10.578 5.088c-1.936 0-3.248-.944-3.409-2.704h1.233c.192 1.168.96 1.664 2.208 1.664 1.152 0 1.92-.464 1.92-1.36 0-.784-.544-1.152-2.192-1.44-1.904-.352-2.88-.928-2.88-2.384 0-1.424 1.232-2.368 3.008-2.368 1.824 0 3.008.896 3.184 2.496h-1.264c-.144-.96-.88-1.456-1.92-1.456-1.056 0-1.744.48-1.744 1.264 0 .768.496 1.12 2.112 1.376 1.904.32 2.992.944 2.992 2.384 0 1.536-1.328 2.528-3.248 2.528m6.102-12.032v2.304h-1.344v-2.304zm-1.328 3.632h1.28V262h-1.28zm6.643 11.12c-2.08 0-3.376-.944-3.52-2.352h1.376c.112.848.848 1.312 2.192 1.312 1.408 0 2.448-.672 2.448-2.192v-1.344c-.432.832-1.376 1.536-2.768 1.536-2.144 0-3.52-1.68-3.52-3.92v-.448c0-2.32 1.376-3.904 3.52-3.904 1.44 0 2.432.8 2.848 1.664l.032-1.472h1.184v7.808c0 1.952-1.36 3.312-3.792 3.312m-.048-4.128c1.68 0 2.624-1.136 2.624-2.832v-.448c0-1.76-.928-2.816-2.624-2.816-1.552 0-2.432 1.072-2.432 2.816v.448c0 1.68.896 2.832 2.432 2.832m7.044 1.216h-1.28v-8.208h1.248l.032 1.328c.48-.88 1.344-1.52 2.656-1.52 1.952 0 2.848 1.2 2.848 3.088V262h-1.264v-5.008c0-1.472-.576-2.288-1.92-2.288-1.392 0-2.32 1.008-2.32 2.64zm10.337.192c-1.936 0-3.248-.944-3.409-2.704h1.233c.192 1.168.96 1.664 2.208 1.664 1.152 0 1.92-.464 1.92-1.36 0-.784-.544-1.152-2.192-1.44-1.904-.352-2.88-.928-2.88-2.384 0-1.424 1.232-2.368 3.008-2.368 1.824 0 3.008.896 3.184 2.496h-1.264c-.144-.96-.88-1.456-1.92-1.456-1.056 0-1.744.48-1.744 1.264 0 .768.496 1.12 2.112 1.376 1.904.32 2.992.944 2.992 2.384 0 1.536-1.328 2.528-3.248 2.528m11.243 0c-1.632 0-2.496-.752-2.496-2.256v-5.12h-1.648v-1.024h1.648v-2.528h1.28v2.528h2.352v1.024h-2.352v4.944c0 .912.304 1.344 1.376 1.344.32 0 .768-.08 1.04-.16v1.088c-.336.08-.848.16-1.2.16m6.004 0c-2.384 0-3.888-1.632-3.888-4.144v-.304c0-2.512 1.504-4.144 3.888-4.144s3.904 1.632 3.904 4.144v.304c0 2.512-1.52 4.144-3.904 4.144m0-1.088c1.68 0 2.592-1.136 2.592-3.056v-.304c0-1.92-.912-3.056-2.592-3.056-1.664 0-2.576 1.136-2.576 3.056v.304c0 1.92.912 3.056 2.576 3.056m8.589-10.944h1.28V262h-1.28zm4.531 0v2.304h-1.344v-2.304zm-1.328 3.632h1.28V262h-1.28zM655.51 262h-1.28v-7.184h-1.648v-1.024h1.648v-1.568c0-1.504.864-2.256 2.496-2.256.352 0 .864.08 1.2.16v1.072c-.272-.064-.72-.16-1.04-.16-1.072 0-1.376.448-1.376 1.36v1.392h2.352v1.024h-2.352zm6.752.192c-2.48 0-3.904-1.712-3.904-4.144v-.304c0-2.448 1.456-4.144 3.888-4.144 2.608 0 3.84 1.792 3.728 4.544h-6.304c.032 1.904.992 2.96 2.592 2.96 1.296 0 2.096-.592 2.368-1.648h1.296c-.4 1.728-1.712 2.736-3.664 2.736m-2.56-5.088h4.928c-.128-1.52-.928-2.416-2.384-2.416-1.472 0-2.368.848-2.544 2.416M673.737 262h-1.376l-2.512-8.208h1.296l1.92 6.64 1.952-6.64h1.264l1.984 6.688 1.936-6.688h1.296l-2.56 8.208h-1.36l-1.936-6.448zm10.27-11.84v2.304h-1.344v-2.304zm-1.328 3.632h1.28V262h-1.28zm6.563 8.4c-1.632 0-2.496-.752-2.496-2.256v-5.12h-1.648v-1.024h1.648v-2.528h1.28v2.528h2.352v1.024h-2.352v4.944c0 .912.304 1.344 1.376 1.344.32 0 .768-.08 1.04-.16v1.088c-.336.08-.848.16-1.2.16m3.92-.192h-1.28v-11.84h1.28v4.944c.48-.88 1.36-1.504 2.656-1.504 1.952 0 2.848 1.2 2.848 3.088V262h-1.264v-5.008c0-1.472-.576-2.288-1.92-2.288-1.392 0-2.32 1.008-2.32 2.64zm13.926.192c-2.432 0-3.808-1.712-3.808-4.144v-.304c0-2.448 1.376-4.144 3.824-4.144 1.984 0 3.264 1.168 3.488 2.928h-1.28c-.224-1.136-.944-1.84-2.24-1.84-1.6 0-2.48 1.12-2.48 3.056v.304c0 1.936.88 3.056 2.496 3.056 1.28 0 2.048-.752 2.272-1.888h1.28c-.304 1.824-1.584 2.976-3.552 2.976m8.502 0c-2.384 0-3.888-1.632-3.888-4.144v-.304c0-2.512 1.504-4.144 3.888-4.144s3.904 1.632 3.904 4.144v.304c0 2.512-1.52 4.144-3.904 4.144m0-1.088c1.68 0 2.592-1.136 2.592-3.056v-.304c0-1.92-.912-3.056-2.592-3.056-1.664 0-2.576 1.136-2.576 3.056v.304c0 1.92.912 3.056 2.576 3.056m8.647 1.088c-2.128 0-3.52-1.68-3.52-4.144v-.304c0-2.464 1.36-4.144 3.52-4.144 1.392 0 2.32.688 2.768 1.504v-4.944h1.296V262h-1.184l-.032-1.472c-.416.848-1.392 1.664-2.848 1.664m.224-1.088c1.696 0 2.624-1.152 2.624-3.056v-.304c0-1.92-.944-3.056-2.624-3.056-1.536 0-2.432 1.152-2.432 3.056v.304c0 1.888.88 3.056 2.432 3.056m9.317 1.088c-2.48 0-3.904-1.712-3.904-4.144v-.304c0-2.448 1.456-4.144 3.888-4.144 2.608 0 3.84 1.792 3.728 4.544h-6.304c.032 1.904.992 2.96 2.592 2.96 1.296 0 2.096-.592 2.368-1.648h1.296c-.4 1.728-1.712 2.736-3.664 2.736m-2.56-5.088h4.928c-.128-1.52-.928-2.416-2.384-2.416-1.472 0-2.368.848-2.544 2.416m7.038 7.536v-.8c.864 0 1.296-.464 1.296-1.376V262h-.64v-1.648h1.504v2.032c0 1.408-.832 2.256-2.16 2.256M504.737 286h-1.28v-7.184h-1.648v-1.024h1.648v-1.568c0-1.504.864-2.256 2.496-2.256.352 0 .864.08 1.2.16v1.072c-.272-.064-.72-.16-1.04-.16-1.072 0-1.376.448-1.376 1.36v1.392h2.352v1.024h-2.352zm4.901 0h-1.28v-8.208h1.248l.016 1.584c.496-1.136 1.408-1.776 2.544-1.776.128 0 .272 0 .432.032v1.28c-.176-.016-.288-.016-.464-.016-1.488 0-2.496.912-2.496 2.704zm7.428.192c-2.384 0-3.888-1.632-3.888-4.144v-.304c0-2.512 1.504-4.144 3.888-4.144s3.904 1.632 3.904 4.144v.304c0 2.512-1.52 4.144-3.904 4.144m0-1.088c1.68 0 2.592-1.136 2.592-3.056v-.304c0-1.92-.912-3.056-2.592-3.056-1.664 0-2.576 1.136-2.576 3.056v.304c0 1.92.912 3.056 2.576 3.056m6.76.896h-1.28v-8.208h1.248l.016 1.296c.448-.816 1.296-1.488 2.592-1.488 1.248 0 2.08.592 2.464 1.632.576-1.04 1.504-1.632 2.736-1.632 1.808 0 2.72 1.152 2.72 3.056V286h-1.28v-5.072c0-1.472-.56-2.224-1.808-2.224-1.36 0-2.16 1.024-2.16 2.656V286h-1.28v-5.072c0-1.456-.528-2.224-1.776-2.224-1.36 0-2.192 1.024-2.192 2.688zm18.814.192c-1.632 0-2.496-.752-2.496-2.256v-5.12h-1.648v-1.024h1.648v-2.528h1.28v2.528h2.352v1.024h-2.352v4.944c0 .912.304 1.344 1.376 1.344.32 0 .768-.08 1.04-.16v1.088c-.336.08-.848.16-1.2.16m3.92-.192h-1.28v-11.84h1.28v4.944c.48-.88 1.36-1.504 2.656-1.504 1.952 0 2.848 1.2 2.848 3.088V286H550.8v-5.008c0-1.472-.576-2.288-1.92-2.288-1.392 0-2.32 1.008-2.32 2.64zm10.913.192c-2.48 0-3.904-1.712-3.904-4.144v-.304c0-2.448 1.456-4.144 3.888-4.144 2.608 0 3.84 1.792 3.728 4.544h-6.304c.032 1.904.992 2.96 2.592 2.96 1.296 0 2.096-.592 2.368-1.648h1.296c-.4 1.728-1.712 2.736-3.664 2.736m-2.56-5.088h4.928c-.128-1.52-.928-2.416-2.384-2.416-1.472 0-2.368.848-2.544 2.416M567.924 286h-1.28v-7.184h-1.648v-1.024h1.648v-1.568c0-1.504.864-2.256 2.496-2.256.352 0 .864.08 1.2.16v1.072c-.272-.064-.72-.16-1.04-.16-1.072 0-1.376.448-1.376 1.36v1.392h2.352v1.024h-2.352zm4.944-9.536h-1.344v-2.304h1.344zm-.048 1.328V286h-1.28v-8.208zm3.193 8.208h-1.28v-8.208h1.248l.016 1.584c.496-1.136 1.408-1.776 2.544-1.776.128 0 .272 0 .432.032v1.28c-.176-.016-.288-.016-.464-.016-1.488 0-2.496.912-2.496 2.704zm6.9.192c-1.936 0-3.248-.944-3.408-2.704h1.232c.192 1.168.96 1.664 2.208 1.664 1.152 0 1.92-.464 1.92-1.36 0-.784-.544-1.152-2.192-1.44-1.904-.352-2.88-.928-2.88-2.384 0-1.424 1.232-2.368 3.008-2.368 1.824 0 3.008.896 3.184 2.496h-1.264c-.144-.96-.88-1.456-1.92-1.456-1.056 0-1.744.48-1.744 1.264 0 .768.496 1.12 2.112 1.376 1.904.32 2.992.944 2.992 2.384 0 1.536-1.328 2.528-3.248 2.528m7.899 0c-1.632 0-2.496-.752-2.496-2.256v-5.12h-1.648v-1.024h1.648v-2.528h1.28v2.528h2.352v1.024h-2.352v4.944c0 .912.304 1.344 1.376 1.344.32 0 .768-.08 1.04-.16v1.088c-.336.08-.848.16-1.2.16m7.03 2.528h-1.28v-10.928h1.2l.032 1.472c.416-.864 1.392-1.664 2.848-1.664 2.128 0 3.52 1.664 3.52 4.144v.304c0 2.464-1.392 4.144-3.536 4.144-1.392 0-2.336-.72-2.784-1.536zm2.56-3.616c1.552 0 2.448-1.152 2.448-3.056v-.304c0-1.904-.896-3.056-2.432-3.056-1.696 0-2.624 1.152-2.624 3.056v.304c0 1.92.944 3.056 2.608 3.056m6.659-10.944v2.304h-1.344v-2.304zm-1.328 3.632h1.28V286h-1.28zm3.908 8.208h-1.424l2.992-4.208-2.848-4h1.52l2.128 3.04 2.144-3.04h1.424l-2.848 3.952 3.04 4.256h-1.52l-2.32-3.312zm10.41.192c-2.48 0-3.904-1.712-3.904-4.144v-.304c0-2.448 1.456-4.144 3.888-4.144 2.608 0 3.84 1.792 3.728 4.544h-6.304c.032 1.904.992 2.96 2.592 2.96 1.296 0 2.096-.592 2.368-1.648h1.296c-.4 1.728-1.712 2.736-3.664 2.736m-2.56-5.088h4.928c-.128-1.52-.928-2.416-2.384-2.416-1.472 0-2.368.848-2.544 2.416m7.758-6.944h1.28V286h-1.28zm9.673 12.032c-1.632 0-2.496-.752-2.496-2.256v-5.12h-1.648v-1.024h1.648v-2.528h1.28v2.528h2.352v1.024h-2.352v4.944c0 .912.304 1.344 1.376 1.344.32 0 .768-.08 1.04-.16v1.088c-.336.08-.848.16-1.2.16m6.004 0c-2.384 0-3.888-1.632-3.888-4.144v-.304c0-2.512 1.504-4.144 3.888-4.144s3.904 1.632 3.904 4.144v.304c0 2.512-1.52 4.144-3.904 4.144m0-1.088c1.68 0 2.592-1.136 2.592-3.056v-.304c0-1.92-.912-3.056-2.592-3.056-1.664 0-2.576 1.136-2.576 3.056v.304c0 1.92.912 3.056 2.576 3.056m10.941 1.088c-1.712 0-2.752-.96-2.752-2.336 0-1.184.704-2.08 2.016-2.272l3.456-.512v-.72c0-1.184-.832-1.712-1.888-1.712-1.136 0-1.92.56-2.016 1.552h-1.248c.144-1.632 1.376-2.592 3.28-2.592 2 0 3.136 1.136 3.136 2.832V286h-1.2l-.048-1.28c-.528.96-1.584 1.472-2.736 1.472m.128-1.072c1.376 0 2.592-.912 2.592-2.16v-.848l-3.04.448c-.784.112-1.136.56-1.136 1.264 0 .784.544 1.296 1.584 1.296m10.961.88h-1.28v-7.184h-1.648v-1.024h1.648v-1.568c0-1.504.864-2.256 2.496-2.256.352 0 .864.08 1.2.16v1.072c-.272-.064-.72-.16-1.04-.16-1.072 0-1.376.448-1.376 1.36v1.392h2.352v1.024h-2.352zm6.264.192c-1.888 0-2.816-1.184-2.816-3.104v-5.296h1.28v5.056c0 1.376.528 2.224 1.904 2.224 1.408 0 2.208-1.088 2.208-2.672v-4.608h1.28V286h-1.248l-.016-1.296c-.496.88-1.392 1.488-2.592 1.488m5.779-12.032h1.28V286h-1.28zm3.203 0h1.28V286h-1.28zm5.939 14.56h-1.312l1.056-2.736-3.2-8.192h1.376l2.496 6.72 2.384-6.72h1.328zm12.5-2.528c-1.44 0-2.416-.784-2.832-1.632l-.032 1.44h-1.2v-11.84h1.28v4.96c.448-.816 1.392-1.52 2.8-1.52 2.144 0 3.52 1.68 3.52 4.144v.304c0 2.464-1.424 4.144-3.536 4.144m-.208-1.088c1.536 0 2.432-1.168 2.432-3.056v-.304c0-1.904-.896-3.056-2.448-3.056-1.664 0-2.608 1.136-2.608 3.056v.304c0 1.904.928 3.056 2.624 3.056m7.99 1.088c-1.888 0-2.816-1.184-2.816-3.104v-5.296h1.28v5.056c0 1.376.528 2.224 1.904 2.224 1.408 0 2.208-1.088 2.208-2.672v-4.608h1.28V286h-1.248l-.016-1.296c-.496.88-1.392 1.488-2.592 1.488m7.107-12.032v2.304h-1.344v-2.304zm-1.328 3.632h1.28V286h-1.28zm3.203-3.632h1.28V286h-1.28zm6.642 12.032c-1.632 0-2.496-.752-2.496-2.256v-5.12h-1.648v-1.024h1.648v-2.528h1.28v2.528h2.352v1.024h-2.352v4.944c0 .912.304 1.344 1.376 1.344.32 0 .768-.08 1.04-.16v1.088c-.336.08-.848.16-1.2.16m8.725 0c-1.936 0-3.248-.944-3.408-2.704h1.232c.192 1.168.96 1.664 2.208 1.664 1.152 0 1.92-.464 1.92-1.36 0-.784-.544-1.152-2.192-1.44-1.904-.352-2.88-.928-2.88-2.384 0-1.424 1.232-2.368 3.008-2.368 1.824 0 3.008.896 3.184 2.496h-1.264c-.144-.96-.88-1.456-1.92-1.456-1.056 0-1.744.48-1.744 1.264 0 .768.496 1.12 2.112 1.376 1.904.32 2.992.944 2.992 2.384 0 1.536-1.328 2.528-3.248 2.528m6.102-12.032v2.304h-1.344v-2.304zm-1.328 3.632h1.28V286h-1.28zm6.563 8.4c-1.632 0-2.496-.752-2.496-2.256v-5.12h-1.648v-1.024h1.648v-2.528h1.28v2.528h2.352v1.024h-2.352v4.944c0 .912.304 1.344 1.376 1.344.32 0 .768-.08 1.04-.16v1.088c-.336.08-.848.16-1.2.16m6.02 0c-2.48 0-3.904-1.712-3.904-4.144v-.304c0-2.448 1.456-4.144 3.888-4.144 2.608 0 3.84 1.792 3.728 4.544h-6.304c.032 1.904.992 2.96 2.592 2.96 1.296 0 2.096-.592 2.368-1.648h1.296c-.4 1.728-1.712 2.736-3.664 2.736m-2.56-5.088h4.928c-.128-1.52-.928-2.416-2.384-2.416-1.472 0-2.368.848-2.544 2.416" style="fill:#1c5344;fill:color(display-p3 .1098 .3255 .2667);fill-opacity:1"/><rect width="64" height="32" x="558" y="312" fill="#fff" rx="8" style="fill:#fff;fill-opacity:1"/><rect width="65" height="33" x="557.5" y="311.5" stroke="#9C1609" stroke-opacity=".12" rx="8.5" style="stroke:#9c1609;stroke:color(display-p3 .6118 .0863 .0353);stroke-opacity:.12"/><path fill="#1C5344" d="M580.688 332h-4.968v-8.52h1.404v7.356h3.564zm3.639.156c-1.848 0-3.048-1.272-3.048-3.156v-.18c0-1.884 1.2-3.144 3.048-3.144 1.86 0 3.06 1.26 3.06 3.144v.18c0 1.884-1.2 3.156-3.06 3.156m0-1.068c1.128 0 1.716-.756 1.716-2.088v-.18c0-1.332-.588-2.076-1.716-2.076-1.116 0-1.704.744-1.704 2.076v.18c0 1.332.588 2.088 1.704 2.088m6.854 3.108c-1.704 0-2.664-.756-2.796-1.836h1.44c.072.54.54.84 1.428.84 1.02 0 1.632-.504 1.632-1.476v-.912c-.324.6-1.02 1.092-1.98 1.092-1.644 0-2.676-1.296-2.676-3v-.24c0-1.716 1.02-2.988 2.64-2.988 1.056 0 1.764.576 2.076 1.164l.036-1.02h1.224v5.784c0 1.596-1.068 2.592-3.024 2.592m.048-3.348c1.092 0 1.704-.768 1.704-1.944v-.24c0-1.2-.6-1.944-1.704-1.944-1.068 0-1.656.744-1.656 1.944v.24c0 1.176.6 1.944 1.656 1.944m5.65-7.728v1.8h-1.38v-1.8zm-1.356 2.7h1.32V332h-1.32zm3.957 6.18h-1.32v-6.18h1.272l.048.984c.324-.612.972-1.128 1.968-1.128 1.5 0 2.136.936 2.136 2.34V332h-1.308v-3.66c0-1.008-.372-1.572-1.272-1.572-.912 0-1.524.672-1.524 1.776z" style="fill:#1c5344;fill:color(display-p3 .1098 .3255 .2667);fill-opacity:1"/><rect width="64" height="32" x="630" y="312" fill="#9C1609" fill-opacity=".04" rx="8" style="fill:#9c1609;fill:color(display-p3 .6118 .0863 .0353);fill-opacity:.04"/><rect width="65" height="33" x="629.5" y="311.5" stroke="#9C1609" stroke-opacity=".12" rx="8.5" style="stroke:#9c1609;stroke:color(display-p3 .6118 .0863 .0353);stroke-opacity:.12"/><path fill="#1C5344" d="M645.864 332.156c-2.04 0-3.396-1.032-3.492-2.856h1.392c.12 1.188.984 1.692 2.16 1.692 1.068 0 1.836-.42 1.836-1.272v-.06c0-.732-.516-1.104-2.244-1.416-2.1-.372-2.844-1.152-2.844-2.424v-.084c0-1.392 1.212-2.412 3.072-2.412 1.788 0 3.084.888 3.252 2.628h-1.404c-.12-.984-.816-1.476-1.872-1.476s-1.68.48-1.68 1.224v.06c0 .66.36 1.032 2.052 1.32 2.04.348 3.048 1.056 3.048 2.448v.096c0 1.476-1.26 2.532-3.276 2.532m5.675-9.036v1.8h-1.38v-1.8zm-1.356 2.7h1.32V332h-1.32zm5.349 8.376c-1.704 0-2.664-.756-2.796-1.836h1.44c.072.54.54.84 1.428.84 1.02 0 1.632-.504 1.632-1.476v-.912c-.324.6-1.02 1.092-1.98 1.092-1.644 0-2.676-1.296-2.676-3v-.24c0-1.716 1.02-2.988 2.64-2.988 1.056 0 1.764.576 2.076 1.164l.036-1.02h1.224v5.784c0 1.596-1.068 2.592-3.024 2.592m.048-3.348c1.092 0 1.704-.768 1.704-1.944v-.24c0-1.2-.6-1.944-1.704-1.944-1.068 0-1.656.744-1.656 1.944v.24c0 1.176.6 1.944 1.656 1.944m5.615 1.152h-1.32v-6.18h1.272l.048.984c.324-.612.972-1.128 1.968-1.128 1.5 0 2.136.936 2.136 2.34V332h-1.308v-3.66c0-1.008-.372-1.572-1.272-1.572-.912 0-1.524.672-1.524 1.776zm9.698.156c-1.44 0-2.136-.912-2.136-2.364v-3.972h1.332v3.72c0 .948.348 1.512 1.236 1.512.912 0 1.452-.696 1.452-1.8v-3.432h1.332V332h-1.284l-.024-.936c-.36.6-1.02 1.092-1.908 1.092m5.865 1.884h-1.332v-8.22h1.236l.036 1.02c.3-.588 1.02-1.164 2.076-1.164 1.62 0 2.64 1.296 2.64 3.144v.18c0 1.848-1.044 3.156-2.676 3.156-.96 0-1.644-.504-1.98-1.092zm1.656-2.952c1.056 0 1.656-.756 1.656-2.088v-.18c0-1.332-.6-2.1-1.656-2.1-1.104 0-1.704.768-1.704 2.1v.18c0 1.332.6 2.088 1.704 2.088" style="fill:#1c5344;fill:color(display-p3 .1098 .3255 .2667);fill-opacity:1"/></g></g><defs><radialGradient id="c" cx="0" cy="0" r="1" gradientTransform="matrix(0 480 -443.452 0 238 54)" gradientUnits="userSpaceOnUse"><stop offset=".275" stop-color="#F8DBEB" style="stop-color:#f8dbeb;stop-color:color(display-p3 .9725 .8588 .9216);stop-opacity:1"/><stop offset=".644" stop-color="#EBF2FA" style="stop-color:#ebf2fa;stop-color:color(display-p3 .9216 .949 .9804);stop-opacity:1"/><stop offset="1" stop-color="#F9F3F1" style="stop-color:#f9f3f1;stop-color:color(display-p3 .9765 .9529 .9451);stop-opacity:1"/></radialGradient><radialGradient id="d" cx="0" cy="0" r="1" gradientTransform="matrix(0 480 -443.452 0 626 54)" gradientUnits="userSpaceOnUse"><stop offset=".275" stop-color="#F8DBEB" style="stop-color:#f8dbeb;stop-color:color(display-p3 .9725 .8588 .9216);stop-opacity:1"/><stop offset=".644" stop-color="#EBF2FA" style="stop-color:#ebf2fa;stop-color:color(display-p3 .9216 .949 .9804);stop-opacity:1"/><stop offset="1" stop-color="#F9F3F1" style="stop-color:#f9f3f1;stop-color:color(display-p3 .9765 .9529 .9451);stop-opacity:1"/></radialGradient><clipPath id="a"><path fill="#fff" d="M0 0h800v480H0z" style="fill:#fff;fill-opacity:1" transform="translate(32 30)"/></clipPath><clipPath id="b"><path fill="#fff" d="M0 0h800v480H0z" style="fill:#fff;fill-opacity:1" transform="translate(32 30)"/></clipPath></defs></svg>