<svg xmlns="http://www.w3.org/2000/svg" width="864" height="540" fill="none" viewBox="0 0 864 540">
  <g clip-path="url(#a)">
    <path fill="url(#b)" d="M0 0h864v540H0z"/>
    <g clip-path="url(#c)">
      <path fill="color(display-p3 .1373 0 .3216)" fill-opacity=".04" d="M-9 78h882v1H-9zm0 24h882v1H-9zm0 24h882v1H-9zm0 24h882v1H-9zm0 24h882v1H-9zm0 24h882v1H-9zm0 24h882v1H-9zm0 24h882v1H-9zm0 24h882v1H-9zm0 24h882v1H-9zm0 24h882v1H-9zm0 24h882v1H-9zm0 24h882v1H-9zm0 24h882v1H-9zm0 24h882v1H-9zm0 24h882v1H-9zm0 24h882v1H-9zm0 24h882v1H-9zm0 24h882v1H-9zm0 24h882v1H-9z"/>
    </g>
    <path fill="color(display-p3 .9098 .6667 0)" d="m126.76 223.04-1.904-12.32v-1.568h5.88v1.568l-1.904 12.32h-2.072Zm9.408 0-1.904-12.32v-1.568h5.936v1.568l-1.904 12.32h-2.128Zm180.355 0-1.904-12.32v-1.568h5.88v1.568l-1.904 12.32h-2.072Zm9.408 0-1.904-12.32v-1.568h5.936v1.568l-1.904 12.32h-2.128Z"/>
    <path fill="color(display-p3 .0353 .1804 .1412)" d="M144.959 246v-36.848h14.112c11.536 0 18.648 6.664 18.648 18.368 0 11.816-6.72 18.48-17.472 18.48h-15.288Zm6.72-5.6h8.456c6.608 0 10.92-4.424 10.92-12.88 0-8.4-4.648-12.768-11.704-12.768h-7.672V240.4Zm56.024-9.24v2.24h-20.72c.336 5.32 3.304 8.176 8.008 8.176 4.032 0 6.776-1.792 7.056-5.04h5.656c-.224 6.16-5.264 9.912-12.824 9.912-8.736 0-14.224-5.376-14.224-14.056 0-8.96 5.488-14.504 14.224-14.504 7.84 0 12.824 4.648 12.824 13.272Zm-5.656-1.568v-.392c0-4.144-2.576-6.44-7.112-6.44-4.312 0-7.056 2.24-7.784 6.832h14.896Zm21.528 16.856c-9.52 0-12.936-4.256-12.936-9.688h5.656c0 3.192 1.848 5.152 7.224 5.152 5.096 0 7.336-1.568 7.336-4.088 0-1.064-.392-2.016-1.848-2.52-1.344-.504-3.976-.784-7.056-1.064-4.312-.392-7.224-.952-8.904-2.184-1.512-1.12-2.408-3.136-2.408-5.264 0-5.544 5.376-8.904 12.88-8.904 8.624 0 12.432 3.584 12.432 9.856h-5.656c-.056-3.584-2.016-5.32-6.608-5.32-4.368 0-6.832 1.568-6.832 3.92 0 1.176.28 2.296 1.904 2.856 1.344.448 3.976.728 7.336 1.064 3.92.392 6.16.784 8.12 1.904 1.848 1.008 2.912 3.136 2.912 5.376 0 5.6-4.704 8.904-13.552 8.904Zm17.454-31.36v-6.16h6.44v6.16h-6.44Zm.056 30.912v-27.664h6.272V246h-6.272Zm30.375-4.368c5.936 0 9.352 2.576 9.352 7 0 5.824-5.432 9.296-14.56 9.296-9.352 0-14.952-2.856-14.952-7.84 0-2.8 2.072-4.872 5.376-5.04v-.056c-1.568-1.064-2.408-2.576-2.408-4.536 0-2.352 1.064-3.976 2.576-4.704v-.112c-2.744-1.68-4.256-4.424-4.256-7.896 0-6.048 4.704-9.856 12.32-9.856 3.136 0 5.712.616 7.728 1.792l.056-.056c-.84-.896-1.344-1.96-1.344-3.136 0-2.24 2.128-3.64 5.432-3.64 1.344 0 2.128.112 2.8.28v4.424c-.448-.168-1.064-.28-1.848-.28-1.848 0-2.744.784-2.744 2.296 0 .784.28 1.736.616 2.8 1.064 1.456 1.624 3.304 1.624 5.376 0 6.104-4.704 9.856-12.32 9.856-1.792 0-3.416-.224-4.872-.616-.336.392-.672 1.176-.672 2.128 0 1.568 1.12 2.52 3.136 2.52h8.96Zm-6.552-19.264c-3.92 0-6.328 2.072-6.328 5.376 0 3.304 2.408 5.376 6.328 5.376 3.92 0 6.328-2.072 6.328-5.376 0-3.304-2.408-5.376-6.328-5.376Zm1.288 31.136c5.88 0 8.344-1.68 8.344-4.144 0-1.848-1.4-2.856-4.368-2.856h-7.504c-3.136 0-5.152.952-5.152 3.08 0 2.632 3.36 3.92 8.68 3.92ZM284.04 246v-27.664h6.272l-.224 7.392h.056c1.512-4.984 5.096-7.84 11.536-7.84 7 0 11.312 3.976 11.312 10.808V246h-6.272v-15.904c0-4.368-2.464-6.832-7.448-6.832-5.488 0-8.96 3.304-8.96 9.352V246h-6.272Z"/>
    <path fill="color(display-p3 .9098 .6667 0)" d="m155.76 295.04-1.904-12.32v-1.568h5.88v1.568l-1.904 12.32h-2.072Zm140.514 0-1.904-12.32v-1.568h5.88v1.568l-1.904 12.32h-2.072Z"/>
    <path fill="color(display-p3 .0353 .1804 .1412)" d="M180.825 318.56c-10.976 0-18.928-7.224-18.928-18.928 0-11.76 7.84-19.04 18.928-19.04 9.688 0 16.576 5.768 16.576 14.28 0 .392-.056 1.12-.112 1.792h-5.936c.056-.504.056-.952.056-1.232 0-5.656-4.424-9.24-10.36-9.24-7.168 0-12.32 5.208-12.32 13.44s5.376 13.328 12.32 13.328c6.16 0 10.472-3.528 10.472-8.848v-.896h5.992v1.288c0 8.344-6.944 14.056-16.688 14.056Zm34.2-.112c-8.792 0-14.448-5.432-14.448-14.224 0-8.848 5.656-14.336 14.448-14.336 8.848 0 14.504 5.488 14.504 14.336 0 8.792-5.656 14.224-14.504 14.224Zm0-5.152c5.096 0 8.232-3.472 8.232-9.072 0-5.656-3.136-9.184-8.232-9.184-5.096 0-8.176 3.528-8.176 9.184 0 5.6 3.08 9.072 8.176 9.072Zm30.388 5.152c-8.008 0-13.048-5.824-13.048-14.448 0-8.344 5.208-14.112 13.44-14.112 5.208 0 8.456 2.072 9.576 5.32h.056v-16.016h6.272V318h-6.272c.112-1.624.168-4.032.28-6.72h-.112c-1.064 4.368-4.536 7.168-10.192 7.168Zm1.288-5.152c5.264 0 8.736-3.472 8.736-8.848v-1.344c0-4.928-3.416-8.064-8.624-8.064-4.984 0-8.232 3.696-8.232 8.96 0 5.488 3.192 9.296 8.12 9.296Zm45.978-10.136v2.24h-20.72c.336 5.32 3.304 8.176 8.008 8.176 4.032 0 6.776-1.792 7.056-5.04h5.656c-.224 6.16-5.264 9.912-12.824 9.912-8.736 0-14.224-5.376-14.224-14.056 0-8.96 5.488-14.504 14.224-14.504 7.84 0 12.824 4.648 12.824 13.272Zm-5.656-1.568v-.392c0-4.144-2.576-6.44-7.112-6.44-4.312 0-7.056 2.24-7.784 6.832h14.896Z"/>
    <path fill="color(display-p3 .9098 .6667 0)" d="M541.248 208.648v3.248c-2.576.224-3.64 1.568-3.64 4.312v.168h2.632v7.28h-6.328v-5.264c0-6.608 2.464-9.352 7.336-9.744Zm10.024 0v3.248c-2.576.224-3.64 1.568-3.64 4.312v.168h2.632v7.28h-6.328v-5.264c0-6.608 2.464-9.352 7.336-9.744Zm175.465 15.512v-3.248c2.576-.224 3.64-1.568 3.64-4.312v-.168h-2.632v-7.28h6.328v5.264c0 6.608-2.464 9.352-7.336 9.744Zm10.08 0v-3.248c2.576-.224 3.64-1.568 3.64-4.312v-.168h-2.632v-7.28h6.328v5.264c0 6.608-2.464 9.352-7.336 9.744Z"/>
    <path fill="color(display-p3 .0353 .1804 .1412)" d="M556.037 246v-36.848h14.112c11.536 0 18.648 6.664 18.648 18.368 0 11.816-6.72 18.48-17.472 18.48h-15.288Zm6.72-5.6h8.456c6.608 0 10.92-4.424 10.92-12.88 0-8.4-4.648-12.768-11.704-12.768h-7.672V240.4Zm56.024-9.24v2.24h-20.72c.336 5.32 3.304 8.176 8.008 8.176 4.032 0 6.776-1.792 7.056-5.04h5.656c-.224 6.16-5.264 9.912-12.824 9.912-8.736 0-14.224-5.376-14.224-14.056 0-8.96 5.488-14.504 14.224-14.504 7.84 0 12.824 4.648 12.824 13.272Zm-5.656-1.568v-.392c0-4.144-2.576-6.44-7.112-6.44-4.312 0-7.056 2.24-7.784 6.832h14.896Zm21.528 16.856c-9.52 0-12.936-4.256-12.936-9.688h5.656c0 3.192 1.848 5.152 7.224 5.152 5.096 0 7.336-1.568 7.336-4.088 0-1.064-.392-2.016-1.848-2.52-1.344-.504-3.976-.784-7.056-1.064-4.312-.392-7.224-.952-8.904-2.184-1.512-1.12-2.408-3.136-2.408-5.264 0-5.544 5.376-8.904 12.88-8.904 8.624 0 12.432 3.584 12.432 9.856h-5.656c-.056-3.584-2.016-5.32-6.608-5.32-4.368 0-6.832 1.568-6.832 3.92 0 1.176.28 2.296 1.904 2.856 1.344.448 3.976.728 7.336 1.064 3.92.392 6.16.784 8.12 1.904 1.848 1.008 2.912 3.136 2.912 5.376 0 5.6-4.704 8.904-13.552 8.904Zm17.454-31.36v-6.16h6.44v6.16h-6.44Zm.056 30.912v-27.664h6.272V246h-6.272Zm30.375-4.368c5.936 0 9.352 2.576 9.352 7 0 5.824-5.432 9.296-14.56 9.296-9.352 0-14.952-2.856-14.952-7.84 0-2.8 2.072-4.872 5.376-5.04v-.056c-1.568-1.064-2.408-2.576-2.408-4.536 0-2.352 1.064-3.976 2.576-4.704v-.112c-2.744-1.68-4.256-4.424-4.256-7.896 0-6.048 4.704-9.856 12.32-9.856 3.136 0 5.712.616 7.728 1.792l.056-.056c-.84-.896-1.344-1.96-1.344-3.136 0-2.24 2.128-3.64 5.432-3.64 1.344 0 2.128.112 2.8.28v4.424c-.448-.168-1.064-.28-1.848-.28-1.848 0-2.744.784-2.744 2.296 0 .784.28 1.736.616 2.8 1.064 1.456 1.624 3.304 1.624 5.376 0 6.104-4.704 9.856-12.32 9.856-1.792 0-3.416-.224-4.872-.616-.336.392-.672 1.176-.672 2.128 0 1.568 1.12 2.52 3.136 2.52h8.96Zm-6.552-19.264c-3.92 0-6.328 2.072-6.328 5.376 0 3.304 2.408 5.376 6.328 5.376 3.92 0 6.328-2.072 6.328-5.376 0-3.304-2.408-5.376-6.328-5.376Zm1.288 31.136c5.88 0 8.344-1.68 8.344-4.144 0-1.848-1.4-2.856-4.368-2.856h-7.504c-3.136 0-5.152.952-5.152 3.08 0 2.632 3.36 3.92 8.68 3.92ZM695.118 246v-27.664h6.272l-.224 7.392h.056c1.512-4.984 5.096-7.84 11.536-7.84 7 0 11.312 3.976 11.312 10.808V246h-6.272v-15.904c0-4.368-2.464-6.832-7.448-6.832-5.488 0-8.96 3.304-8.96 9.352V246h-6.272Z"/>
    <path fill="color(display-p3 .9098 .6667 0)" d="M571.248 280.648v3.248c-2.576.224-3.64 1.568-3.64 4.312v.168h2.632v7.28h-6.328v-5.264c0-6.608 2.464-9.352 7.336-9.744Zm135.638 15.512v-3.248c2.576-.224 3.64-1.568 3.64-4.312v-.168h-2.632v-7.28h6.328v5.264c0 6.608-2.464 9.352-7.336 9.744Z"/>
    <path fill="color(display-p3 .0353 .1804 .1412)" d="M592.466 318.56c-10.976 0-18.928-7.224-18.928-18.928 0-11.76 7.84-19.04 18.928-19.04 9.688 0 16.576 5.768 16.576 14.28 0 .392-.056 1.12-.112 1.792h-5.936c.056-.504.056-.952.056-1.232 0-5.656-4.424-9.24-10.36-9.24-7.168 0-12.32 5.208-12.32 13.44s5.376 13.328 12.32 13.328c6.16 0 10.472-3.528 10.472-8.848v-.896h5.992v1.288c0 8.344-6.944 14.056-16.688 14.056Zm34.199-.112c-8.792 0-14.448-5.432-14.448-14.224 0-8.848 5.656-14.336 14.448-14.336 8.848 0 14.504 5.488 14.504 14.336 0 8.792-5.656 14.224-14.504 14.224Zm0-5.152c5.096 0 8.232-3.472 8.232-9.072 0-5.656-3.136-9.184-8.232-9.184-5.096 0-8.176 3.528-8.176 9.184 0 5.6 3.08 9.072 8.176 9.072Zm30.389 5.152c-8.008 0-13.048-5.824-13.048-14.448 0-8.344 5.208-14.112 13.44-14.112 5.208 0 8.456 2.072 9.576 5.32h.056v-16.016h6.272V318h-6.272c.112-1.624.168-4.032.28-6.72h-.112c-1.064 4.368-4.536 7.168-10.192 7.168Zm1.288-5.152c5.264 0 8.736-3.472 8.736-8.848v-1.344c0-4.928-3.416-8.064-8.624-8.064-4.984 0-8.232 3.696-8.232 8.96 0 5.488 3.192 9.296 8.12 9.296Zm45.977-10.136v2.24h-20.72c.336 5.32 3.304 8.176 8.008 8.176 4.032 0 6.776-1.792 7.056-5.04h5.656c-.224 6.16-5.264 9.912-12.824 9.912-8.736 0-14.224-5.376-14.224-14.056 0-8.96 5.488-14.504 14.224-14.504 7.84 0 12.824 4.648 12.824 13.272Zm-5.656-1.568v-.392c0-4.144-2.576-6.44-7.112-6.44-4.312 0-7.056 2.24-7.784 6.832h14.896Z"/>
    <path fill="color(display-p3 .851 .7961 .7843)" fill-opacity=".32" d="M433-45h-2v630h2z"/>
    <g filter="url(#d)">
      <path fill="color(display-p3 .851 .7961 .7843)" fill-opacity=".16" d="M449-45h-34v630h34z"/>
    </g>
    <g filter="url(#e)">
      <path fill="color(display-p3 .851 .7961 .7843)" fill-opacity=".16" d="M438-45h-12v630h12z"/>
    </g>
  </g>
  <defs>
    <clipPath id="a">
      <path fill="#fff" d="M0 0h864v540H0z"/>
    </clipPath>
    <clipPath id="c">
      <path fill="#fff" d="M-9 6h882v552H-9z"/>
    </clipPath>
    <filter id="d" width="114" height="710" x="375" y="-85" color-interpolation-filters="sRGB" filterUnits="userSpaceOnUse">
      <feFlood flood-opacity="0" result="BackgroundImageFix"/>
      <feBlend in="SourceGraphic" in2="BackgroundImageFix" result="shape"/>
      <feGaussianBlur result="effect1_foregroundBlur_639_8863" stdDeviation="20"/>
    </filter>
    <filter id="e" width="36" height="654" x="414" y="-57" color-interpolation-filters="sRGB" filterUnits="userSpaceOnUse">
      <feFlood flood-opacity="0" result="BackgroundImageFix"/>
      <feBlend in="SourceGraphic" in2="BackgroundImageFix" result="shape"/>
      <feGaussianBlur result="effect1_foregroundBlur_639_8863" stdDeviation="6"/>
    </filter>
    <linearGradient id="b" x1="432" x2="432" y1="0" y2="540" gradientUnits="userSpaceOnUse">
      <stop stop-color="color(display-p3 .9804 .9373 .9098)"/>
      <stop offset="1" stop-color="#fff"/>
    </linearGradient>
  </defs>
</svg>
