<svg xmlns="http://www.w3.org/2000/svg" width="864" height="540" fill="none"><path fill="url(#a)" d="M0 0h864v540H0z"/><path fill="#251B1B" fill-rule="evenodd" d="M51.085 55.703C58.445 54.266 64 47.781 64 40c0-8.837-7.163-16-16-16s-16 7.163-16 16c0 3.802 1.326 7.295 3.541 10.04 2.18-.9 2.86-3.255 2.86-4.44 2.4 0 8-2.4 8-10.391 0 3.991-3.6 8.65-9.695 8.65H35.2s2.167-5.837 2.135-11.034c0-.537.416-1 .95-1.042 3.427-.3 7.185-2.277 8.316-2.921a.53.53 0 0 1 .63.097l.64.644a.26.26 0 0 0 .31.054l1.484-.752a.52.52 0 0 1 .715.236l.705 1.429a.28.28 0 0 0 .363.118l1.452-.73a.53.53 0 0 1 .693.203l2.723 4.564h.01c.15.237.374.42.651.484.694.182 2.114.537 3.022.762.48.118.822.57.8 1.063-.224 5.96-2.946 9.88-8.519 9.88-.837.843-3.817 4.941-1.196 8.789" clip-rule="evenodd" style="fill:#251b1b;fill:color(display-p3 .1451 .1059 .1059);fill-opacity:1"/><path fill="#251B1B" d="M82.124 44H80.72v-8.52h1.404v3.552h4.188V35.48h1.404V44h-1.404v-3.792h-4.188zm9.782.156c-1.849 0-3.049-1.272-3.049-3.156v-.18c0-1.884 1.2-3.144 3.049-3.144 1.86 0 3.06 1.26 3.06 3.144V41c0 1.884-1.2 3.156-3.06 3.156m0-1.068c1.127 0 1.715-.756 1.715-2.088v-.18c0-1.332-.587-2.076-1.715-2.076-1.117 0-1.705.744-1.705 2.076V41c0 1.332.589 2.088 1.705 2.088m5.46.912h-1.32v-6.18h1.273l.036.96c.312-.588.936-1.104 1.908-1.104.924 0 1.56.42 1.848 1.2.432-.756 1.128-1.2 2.04-1.2 1.416 0 2.064.912 2.064 2.34V44h-1.32v-3.72c0-1.02-.372-1.512-1.188-1.512-.888 0-1.404.66-1.404 1.8V44h-1.32v-3.708c0-1.008-.36-1.524-1.176-1.524-.888 0-1.44.648-1.44 1.812zm11.954.156c-1.92 0-3.06-1.284-3.06-3.156v-.18c0-1.872 1.164-3.144 3.06-3.144 2.028 0 3.012 1.416 2.916 3.528h-4.62c.06 1.236.66 1.896 1.704 1.896.864 0 1.38-.408 1.56-1.032h1.32c-.3 1.296-1.332 2.088-2.88 2.088m-1.68-3.9h3.24c-.096-.96-.6-1.536-1.572-1.536-.96 0-1.524.528-1.668 1.536M137.22 44h-1.476l-.756-2.076h-3.66L130.56 44h-1.416l3.276-8.52h1.524zm-4.056-7.032-1.404 3.792h2.796zm8.175 7.188c-1.044 0-1.74-.588-2.04-1.176l-.036 1.02h-1.236v-8.88h1.332v3.612c.36-.588 1.032-1.056 2.016-1.056 1.62 0 2.64 1.308 2.64 3.144V41c0 1.848-1.056 3.156-2.676 3.156m-.324-1.068c1.056 0 1.656-.768 1.656-2.088v-.18c0-1.332-.6-2.1-1.656-2.1-1.104 0-1.704.768-1.704 2.1V41c0 1.332.6 2.088 1.704 2.088m6.887 1.068c-1.848 0-3.048-1.272-3.048-3.156v-.18c0-1.884 1.2-3.144 3.048-3.144 1.86 0 3.06 1.26 3.06 3.144V41c0 1.884-1.2 3.156-3.06 3.156m0-1.068c1.128 0 1.716-.756 1.716-2.088v-.18c0-1.332-.588-2.076-1.716-2.076-1.116 0-1.704.744-1.704 2.076V41c0 1.332.588 2.088 1.704 2.088m6.182 1.068c-1.44 0-2.136-.912-2.136-2.364V37.82h1.332v3.72c0 .948.348 1.512 1.236 1.512.912 0 1.452-.696 1.452-1.8V37.82h1.332V44h-1.284l-.024-.936c-.36.6-1.02 1.092-1.908 1.092m7.233 0c-1.356 0-2.028-.624-2.028-1.824v-3.516h-1.2v-.996h1.2v-1.932h1.32v1.932h1.68v.996h-1.68v3.372c0 .612.228.888.96.888.264 0 .576-.06.756-.12v1.056a4 4 0 0 1-1.008.144M183.428 44.156c-2.412 0-3.984-1.74-3.984-4.272v-.288c0-2.508 1.584-4.272 3.996-4.272 2.052 0 3.432 1.296 3.6 3.252h-1.416c-.168-1.284-.984-2.052-2.196-2.052-1.596 0-2.544 1.26-2.544 3.072v.288c0 1.812.96 3.06 2.544 3.06 1.296 0 2.124-.864 2.184-2.16h1.428c-.132 1.944-1.488 3.372-3.612 3.372m7.431 0c-1.848 0-3.048-1.272-3.048-3.156v-.18c0-1.884 1.2-3.144 3.048-3.144 1.86 0 3.06 1.26 3.06 3.144V41c0 1.884-1.2 3.156-3.06 3.156m0-1.068c1.128 0 1.716-.756 1.716-2.088v-.18c0-1.332-.588-2.076-1.716-2.076-1.116 0-1.704.744-1.704 2.076V41c0 1.332.588 2.088 1.704 2.088m5.461.912H195v-6.18h1.272l.048.984c.324-.612.972-1.128 1.968-1.128 1.5 0 2.136.936 2.136 2.34V44h-1.308v-3.66c0-1.008-.372-1.572-1.272-1.572-.912 0-1.524.672-1.524 1.776zm7.954.156c-1.356 0-2.028-.624-2.028-1.824v-3.516h-1.2v-.996h1.2v-1.932h1.32v1.932h1.68v.996h-1.68v3.372c0 .612.228.888.96.888.264 0 .576-.06.756-.12v1.056a4 4 0 0 1-1.008.144m3.799 0c-1.272 0-2.076-.768-2.076-1.824 0-.984.6-1.632 1.656-1.776l2.436-.36v-.444c0-.684-.468-1.044-1.248-1.044-.768 0-1.284.348-1.344.972h-1.26c.108-1.272 1.116-2.004 2.628-2.004 1.596 0 2.496.84 2.496 2.124V44h-1.212l-.048-.96c-.384.696-1.14 1.116-2.028 1.116m.3-1.044c.924 0 1.716-.576 1.716-1.38v-.564l-1.98.276c-.564.084-.828.348-.828.828 0 .516.396.84 1.092.84m7.011 1.044c-1.872 0-2.976-1.284-2.976-3.156v-.18c0-1.872 1.104-3.144 2.988-3.144 1.548 0 2.568.912 2.736 2.34h-1.296c-.132-.78-.588-1.272-1.464-1.272-1.068 0-1.62.744-1.62 2.076V41c0 1.332.552 2.088 1.62 2.088.876 0 1.344-.516 1.476-1.296h1.308c-.204 1.452-1.224 2.364-2.772 2.364m6.386 0c-1.356 0-2.028-.624-2.028-1.824v-3.516h-1.2v-.996h1.2v-1.932h1.32v1.932h1.68v.996h-1.68v3.372c0 .612.228.888.96.888.264 0 .576-.06.756-.12v1.056a4 4 0 0 1-1.008.144" style="fill:#251b1b;fill:color(display-p3 .1451 .1059 .1059);fill-opacity:1"/><rect width="64" height="32" x="768" y="24" fill="#fff" rx="8" style="fill:#fff;fill-opacity:1"/><rect width="65" height="33" x="767.5" y="23.5" stroke="#9C1609" stroke-opacity=".12" rx="8.5" style="stroke:#9c1609;stroke:color(display-p3 .6118 .0863 .0353);stroke-opacity:.12"/><path fill="#251B1B" d="M790.688 44h-4.968v-8.52h1.404v7.356h3.564zm3.639.156c-1.848 0-3.048-1.272-3.048-3.156v-.18c0-1.884 1.2-3.144 3.048-3.144 1.86 0 3.06 1.26 3.06 3.144V41c0 1.884-1.2 3.156-3.06 3.156m0-1.068c1.128 0 1.716-.756 1.716-2.088v-.18c0-1.332-.588-2.076-1.716-2.076-1.116 0-1.704.744-1.704 2.076V41c0 1.332.588 2.088 1.704 2.088m6.854 3.108c-1.704 0-2.664-.756-2.796-1.836h1.44c.072.54.54.84 1.428.84 1.02 0 1.632-.504 1.632-1.476v-.912c-.324.6-1.02 1.092-1.98 1.092-1.644 0-2.676-1.296-2.676-3v-.24c0-1.716 1.02-2.988 2.64-2.988 1.056 0 1.764.576 2.076 1.164l.036-1.02h1.224v5.784c0 1.596-1.068 2.592-3.024 2.592m.048-3.348c1.092 0 1.704-.768 1.704-1.944v-.24c0-1.2-.6-1.944-1.704-1.944-1.068 0-1.656.744-1.656 1.944v.24c0 1.176.6 1.944 1.656 1.944m5.65-7.728v1.8h-1.38v-1.8zm-1.356 2.7h1.32V44h-1.32zM809.48 44h-1.32v-6.18h1.272l.048.984c.324-.612.972-1.128 1.968-1.128 1.5 0 2.136.936 2.136 2.34V44h-1.308v-3.66c0-1.008-.372-1.572-1.272-1.572-.912 0-1.524.672-1.524 1.776zM196.616 254v-31.584h12.096c9.888 0 15.984 5.712 15.984 15.744 0 10.128-5.76 15.84-14.976 15.84zm5.76-4.8h7.248c5.664 0 9.36-3.792 9.36-11.04 0-7.2-3.984-10.944-10.032-10.944h-6.576zm47.54-7.92v1.92h-17.76c.288 4.56 2.832 7.008 6.864 7.008 3.456 0 5.808-1.536 6.048-4.32h4.848c-.192 5.28-4.512 8.496-10.992 8.496-7.488 0-12.192-4.608-12.192-12.048 0-7.68 4.704-12.432 12.192-12.432 6.72 0 10.992 3.984 10.992 11.376m-4.848-1.344v-.336c0-3.552-2.208-5.52-6.096-5.52-3.696 0-6.048 1.92-6.672 5.856zm17.973 14.448c-8.16 0-11.088-3.648-11.088-8.304h4.848c0 2.736 1.584 4.416 6.192 4.416 4.368 0 6.288-1.344 6.288-3.504 0-.912-.336-1.728-1.584-2.16-1.152-.432-3.408-.672-6.048-.912-3.696-.336-6.192-.816-7.632-1.872-1.296-.96-2.064-2.688-2.064-4.512 0-4.752 4.608-7.632 11.04-7.632 7.392 0 10.656 3.072 10.656 8.448h-4.848c-.048-3.072-1.728-4.56-5.664-4.56-3.744 0-5.856 1.344-5.856 3.36 0 1.008.24 1.968 1.632 2.448 1.152.384 3.408.624 6.288.912 3.36.336 5.28.672 6.96 1.632 1.584.864 2.496 2.688 2.496 4.608 0 4.8-4.032 7.632-11.616 7.632m14.481-26.88v-5.28h5.52v5.28zM277.57 254v-23.712h5.376V254zm25.555-3.744c5.088 0 8.016 2.208 8.016 6 0 4.992-4.656 7.968-12.48 7.968-8.016 0-12.816-2.448-12.816-6.72 0-2.4 1.776-4.176 4.608-4.32v-.048c-1.344-.912-2.064-2.208-2.064-3.888 0-2.016.912-3.408 2.208-4.032v-.096c-2.352-1.44-3.648-3.792-3.648-6.768 0-5.184 4.032-8.448 10.56-8.448 2.688 0 4.896.528 6.624 1.536l.048-.048c-.72-.768-1.152-1.68-1.152-2.688 0-1.92 1.824-3.12 4.656-3.12 1.152 0 1.824.096 2.4.24v3.792c-.384-.144-.912-.24-1.584-.24-1.584 0-2.352.672-2.352 1.968 0 .672.24 1.488.528 2.4.912 1.248 1.392 2.832 1.392 4.608 0 5.232-4.032 8.448-10.56 8.448-1.536 0-2.928-.192-4.176-.528-.288.336-.576 1.008-.576 1.824 0 1.344.96 2.16 2.688 2.16zm-5.616-16.512c-3.36 0-5.424 1.776-5.424 4.608s2.064 4.608 5.424 4.608 5.424-1.776 5.424-4.608-2.064-4.608-5.424-4.608m1.104 26.688c5.04 0 7.152-1.44 7.152-3.552 0-1.584-1.2-2.448-3.744-2.448h-6.432c-2.688 0-4.416.816-4.416 2.64 0 2.256 2.88 3.36 7.44 3.36M313.429 254v-23.712h5.376l-.192 6.336h.048c1.296-4.272 4.368-6.72 9.888-6.72 6 0 9.696 3.408 9.696 9.264V254h-5.376v-13.632c0-3.744-2.112-5.856-6.384-5.856-4.704 0-7.68 2.832-7.68 8.016V254zm38.759 0v-19.344h-3.792v-4.368h3.792v-2.352c0-5.28 3.504-8.16 8.64-8.16 2.112 0 3.84.384 4.608.672v4.272a12 12 0 0 0-3.648-.576c-2.736 0-4.224 1.44-4.224 4.032v2.112h8.256v4.368h-8.256V254zm17.76 0v-33.264h5.376V254zm20.681.384c-7.536 0-12.384-4.656-12.384-12.192 0-7.584 4.848-12.288 12.384-12.288 7.584 0 12.432 4.704 12.432 12.288 0 7.536-4.848 12.192-12.432 12.192m0-4.416c4.368 0 7.056-2.976 7.056-7.776 0-4.848-2.688-7.872-7.056-7.872s-7.008 3.024-7.008 7.872c0 4.8 2.64 7.776 7.008 7.776M410.073 254l-6.864-23.712h5.712l4.848 18.336h.096l5.664-18.336h5.328l5.52 18.336h.096l4.992-18.336h5.088L433.689 254h-6.624l-5.136-17.424h-.144L416.457 254zm41.889.384c-8.16 0-11.088-3.648-11.088-8.304h4.848c0 2.736 1.584 4.416 6.192 4.416 4.368 0 6.288-1.344 6.288-3.504 0-.912-.336-1.728-1.584-2.16-1.152-.432-3.408-.672-6.048-.912-3.696-.336-6.192-.816-7.632-1.872-1.296-.96-2.064-2.688-2.064-4.512 0-4.752 4.608-7.632 11.04-7.632 7.392 0 10.656 3.072 10.656 8.448h-4.848c-.048-3.072-1.728-4.56-5.664-4.56-3.744 0-5.856 1.344-5.856 3.36 0 1.008.24 1.968 1.632 2.448 1.152.384 3.408.624 6.288.912 3.36.336 5.28.672 6.96 1.632 1.584.864 2.496 2.688 2.496 4.608 0 4.8-4.032 7.632-11.616 7.632m23.624-26.88v-5.28h5.52v5.28zm.048 26.496v-23.712h5.376V254zm9.091 0v-23.712h5.376l-.192 6.336h.048c1.296-4.272 4.368-6.72 9.888-6.72 6 0 9.696 3.408 9.696 9.264V254h-5.376v-13.632c0-3.744-2.112-5.856-6.384-5.856-4.704 0-7.68 2.832-7.68 8.016V254zm38.593.288c-6.48 0-9.024-3.504-9.024-8.736v-10.896h-3.744v-4.368h3.024c.912 0 1.248-.48 1.392-1.824l.24-3.552h4.464v5.376h8.16v4.368h-8.16v10.608c0 3.072 1.152 4.608 4.416 4.608 1.344 0 2.88-.24 3.552-.432v4.272c-.72.24-2.352.576-4.32.576m17.606.096c-7.536 0-12.384-4.656-12.384-12.192 0-7.584 4.848-12.288 12.384-12.288 7.584 0 12.432 4.704 12.432 12.288 0 7.536-4.848 12.192-12.432 12.192m0-4.416c4.368 0 7.056-2.976 7.056-7.776 0-4.848-2.688-7.872-7.056-7.872s-7.008 3.024-7.008 7.872c0 4.8 2.64 7.776 7.008 7.776m35.142 4.416c-6.96 0-11.616-4.656-11.616-12.24s4.752-12.24 11.904-12.24c6.624 0 10.944 3.84 10.944 10.128h-4.848c-.048-3.552-2.352-5.712-5.952-5.712-4.128 0-6.672 2.928-6.672 7.824 0 4.848 2.496 7.824 6.48 7.824 3.792 0 6.144-2.112 6.192-5.616h4.848c0 6.336-4.512 10.032-11.28 10.032m25.801 0c-7.536 0-12.384-4.656-12.384-12.192 0-7.584 4.848-12.288 12.384-12.288 7.584 0 12.432 4.704 12.432 12.288 0 7.536-4.848 12.192-12.432 12.192m0-4.416c4.368 0 7.056-2.976 7.056-7.776 0-4.848-2.688-7.872-7.056-7.872s-7.008 3.024-7.008 7.872c0 4.8 2.64 7.776 7.008 7.776m25.567 4.416c-6.864 0-11.184-4.992-11.184-12.384 0-7.152 4.464-12.096 11.52-12.096 4.464 0 7.248 1.776 8.208 4.56h.048v-13.728h5.376V254h-5.376c.096-1.392.144-3.456.24-5.76h-.096c-.912 3.744-3.888 6.144-8.736 6.144m1.104-4.416c4.512 0 7.488-2.976 7.488-7.584v-1.152c0-4.224-2.928-6.912-7.392-6.912-4.272 0-7.056 3.168-7.056 7.68 0 4.704 2.736 7.968 6.96 7.968m38.93-8.688v1.92h-17.76c.288 4.56 2.832 7.008 6.864 7.008 3.456 0 5.808-1.536 6.048-4.32h4.848c-.192 5.28-4.512 8.496-10.992 8.496-7.488 0-12.192-4.608-12.192-12.048 0-7.68 4.704-12.432 12.192-12.432 6.72 0 10.992 3.984 10.992 11.376m-4.848-1.344v-.336c0-3.552-2.208-5.52-6.096-5.52-3.696 0-6.048 1.92-6.672 5.856z" style="fill:#251b1b;fill:color(display-p3 .1451 .1059 .1059);fill-opacity:1"/><rect width="64" height="32" x="363.5" y="286" fill="#fff" rx="8" style="fill:#fff;fill-opacity:1"/><rect width="65" height="33" x="363" y="285.5" stroke="#9C1609" stroke-opacity=".12" rx="8.5" style="stroke:#9c1609;stroke:color(display-p3 .6118 .0863 .0353);stroke-opacity:.12"/><path fill="#251B1B" d="M386.188 306h-4.968v-8.52h1.404v7.356h3.564zm3.639.156c-1.848 0-3.048-1.272-3.048-3.156v-.18c0-1.884 1.2-3.144 3.048-3.144 1.86 0 3.06 1.26 3.06 3.144v.18c0 1.884-1.2 3.156-3.06 3.156m0-1.068c1.128 0 1.716-.756 1.716-2.088v-.18c0-1.332-.588-2.076-1.716-2.076-1.116 0-1.704.744-1.704 2.076v.18c0 1.332.588 2.088 1.704 2.088m6.854 3.108c-1.704 0-2.664-.756-2.796-1.836h1.44c.072.54.54.84 1.428.84 1.02 0 1.632-.504 1.632-1.476v-.912c-.324.6-1.02 1.092-1.98 1.092-1.644 0-2.676-1.296-2.676-3v-.24c0-1.716 1.02-2.988 2.64-2.988 1.056 0 1.764.576 2.076 1.164l.036-1.02h1.224v5.784c0 1.596-1.068 2.592-3.024 2.592m.048-3.348c1.092 0 1.704-.768 1.704-1.944v-.24c0-1.2-.6-1.944-1.704-1.944-1.068 0-1.656.744-1.656 1.944v.24c0 1.176.6 1.944 1.656 1.944m5.65-7.728v1.8h-1.38v-1.8zm-1.356 2.7h1.32V306h-1.32zm3.957 6.18h-1.32v-6.18h1.272l.048.984c.324-.612.972-1.128 1.968-1.128 1.5 0 2.136.936 2.136 2.34V306h-1.308v-3.66c0-1.008-.372-1.572-1.272-1.572-.912 0-1.524.672-1.524 1.776z" style="fill:#251b1b;fill:color(display-p3 .1451 .1059 .1059);fill-opacity:1"/><rect width="64" height="32" x="435.5" y="286" fill="#9C1009" fill-opacity=".04" rx="8" style="fill:#9c1009;fill:color(display-p3 .6118 .0638 .0353);fill-opacity:.04"/><rect width="65" height="33" x="435" y="285.5" stroke="#9C1609" stroke-opacity=".12" rx="8.5" style="stroke:#9c1609;stroke:color(display-p3 .6118 .0863 .0353);stroke-opacity:.12"/><path fill="#251B1B" d="M451.364 306.156c-2.04 0-3.396-1.032-3.492-2.856h1.392c.12 1.188.984 1.692 2.16 1.692 1.068 0 1.836-.42 1.836-1.272v-.06c0-.732-.516-1.104-2.244-1.416-2.1-.372-2.844-1.152-2.844-2.424v-.084c0-1.392 1.212-2.412 3.072-2.412 1.788 0 3.084.888 3.252 2.628h-1.404c-.12-.984-.816-1.476-1.872-1.476s-1.68.48-1.68 1.224v.06c0 .66.36 1.032 2.052 1.32 2.04.348 3.048 1.056 3.048 2.448v.096c0 1.476-1.26 2.532-3.276 2.532m5.675-9.036v1.8h-1.38v-1.8zm-1.356 2.7h1.32V306h-1.32zm5.349 8.376c-1.704 0-2.664-.756-2.796-1.836h1.44c.072.54.54.84 1.428.84 1.02 0 1.632-.504 1.632-1.476v-.912c-.324.6-1.02 1.092-1.98 1.092-1.644 0-2.676-1.296-2.676-3v-.24c0-1.716 1.02-2.988 2.64-2.988 1.056 0 1.764.576 2.076 1.164l.036-1.02h1.224v5.784c0 1.596-1.068 2.592-3.024 2.592m.048-3.348c1.092 0 1.704-.768 1.704-1.944v-.24c0-1.2-.6-1.944-1.704-1.944-1.068 0-1.656.744-1.656 1.944v.24c0 1.176.6 1.944 1.656 1.944m5.615 1.152h-1.32v-6.18h1.272l.048.984c.324-.612.972-1.128 1.968-1.128 1.5 0 2.136.936 2.136 2.34V306h-1.308v-3.66c0-1.008-.372-1.572-1.272-1.572-.912 0-1.524.672-1.524 1.776zm9.698.156c-1.44 0-2.136-.912-2.136-2.364v-3.972h1.332v3.72c0 .948.348 1.512 1.236 1.512.912 0 1.452-.696 1.452-1.8v-3.432h1.332V306h-1.284l-.024-.936c-.36.6-1.02 1.092-1.908 1.092m5.865 1.884h-1.332v-8.22h1.236l.036 1.02c.3-.588 1.02-1.164 2.076-1.164 1.62 0 2.64 1.296 2.64 3.144v.18c0 1.848-1.044 3.156-2.676 3.156-.96 0-1.644-.504-1.98-1.092zm1.656-2.952c1.056 0 1.656-.756 1.656-2.088v-.18c0-1.332-.6-2.1-1.656-2.1-1.104 0-1.704.768-1.704 2.1v.18c0 1.332.6 2.088 1.704 2.088" style="fill:#251b1b;fill:color(display-p3 .1451 .1059 .1059);fill-opacity:1"/><defs><radialGradient id="a" cx="0" cy="0" r="1" gradientTransform="matrix(0 707.625 -486 0 432 0)" gradientUnits="userSpaceOnUse"><stop stop-color="#F7C9E6" style="stop-color:#f7c9e6;stop-color:color(display-p3 .9686 .7882 .902);stop-opacity:1"/><stop offset=".575" stop-color="#F9D9C5" style="stop-color:#f9d9c5;stop-color:color(display-p3 .9765 .851 .7725);stop-opacity:1"/><stop offset="1" stop-color="#F9F3F1" style="stop-color:#f9f3f1;stop-color:color(display-p3 .9765 .9529 .9451);stop-opacity:1"/></radialGradient></defs></svg>