<svg xmlns="http://www.w3.org/2000/svg" width="384" height="240" fill="none"><g clip-path="url(#a)"><mask id="c" width="604" height="335" x="-110" y="-22" maskUnits="userSpaceOnUse" style="mask-type:alpha"><path fill="url(#b)" d="M-110-22h604v335h-604z"/></mask><g stroke-linecap="round" stroke-linejoin="round" stroke-width="2" mask="url(#c)"><path stroke="url(#d)" d="M19.632 312V-12"/><path stroke="url(#e)" d="M50.789 312V-12"/><path stroke="url(#f)" d="M81.947 312V-12"/><path stroke="url(#g)" d="M113.105 312V-12"/><path stroke="url(#h)" d="M144.263 312V-12"/><path stroke="url(#i)" d="M175.421 312V-12"/><path stroke="url(#j)" d="M206.579 312V-12"/><path stroke="url(#k)" d="M237.737 312V-12"/><path stroke="url(#l)" d="M268.895 312V-12"/><path stroke="url(#m)" d="M300.053 312V-12"/><path stroke="url(#n)" d="M331.211 312V-12"/><path stroke="url(#o)" d="M362.368 312V-12"/></g><path fill="url(#p)" stroke="#4F7FDA" stroke-linejoin="round" stroke-width="2" d="M-110 104.415c0-1.66 1.904-2.597 3.22-1.585l30.971 23.828c.315.243.55.573.677.949l30.405 90.648a2 2 0 0 0 2.76 1.168l29.278-14.029 30.999-69.718a2 2 0 0 1 2.78-.946l27.045 14.66a2 2 0 0 0 2.74-.86l30.7-61.017a2 2 0 0 1 2.496-.971l28.307 10.74a2 2 0 0 1 1.108 1.037l31.267 68.14c.175.382.465.698.83.905l30.758 17.467 31.878-16.118 30.2-50.576 31.318 15.562 31.878-60.58 31.318 18.341 31.319 56.689 31.878 11.116 30.2-5.002 31.877-81.143L494 52v311.5h-604z" style="stroke:#4f7fda;stroke:color(display-p3 .3098 .498 .8549);stroke-opacity:1"/></g><defs><linearGradient id="b" x1="192" x2="192" y1="-22" y2="313" gradientUnits="userSpaceOnUse"><stop style="stop-color:black;stop-opacity:1"/><stop offset=".795" stop-opacity="0" style="stop-color:none;stop-opacity:0"/></linearGradient><linearGradient id="d" x1="20.632" x2="21.632" y1="150" y2="150" gradientUnits="userSpaceOnUse"><stop stop-color="#F1E8E4" style="stop-color:#f1e8e4;stop-color:color(display-p3 .9451 .9098 .8941);stop-opacity:1"/><stop offset="1" stop-color="#F9F3F1" style="stop-color:#f9f3f1;stop-color:color(display-p3 .9765 .9529 .9451);stop-opacity:1"/></linearGradient><linearGradient id="e" x1="51.789" x2="52.789" y1="150" y2="150" gradientUnits="userSpaceOnUse"><stop stop-color="#F1E8E4" style="stop-color:#f1e8e4;stop-color:color(display-p3 .9451 .9098 .8941);stop-opacity:1"/><stop offset="1" stop-color="#F9F3F1" style="stop-color:#f9f3f1;stop-color:color(display-p3 .9765 .9529 .9451);stop-opacity:1"/></linearGradient><linearGradient id="f" x1="82.947" x2="83.947" y1="150" y2="150" gradientUnits="userSpaceOnUse"><stop stop-color="#F1E8E4" style="stop-color:#f1e8e4;stop-color:color(display-p3 .9451 .9098 .8941);stop-opacity:1"/><stop offset="1" stop-color="#F9F3F1" style="stop-color:#f9f3f1;stop-color:color(display-p3 .9765 .9529 .9451);stop-opacity:1"/></linearGradient><linearGradient id="g" x1="114.105" x2="115.105" y1="150" y2="150" gradientUnits="userSpaceOnUse"><stop stop-color="#F1E8E4" style="stop-color:#f1e8e4;stop-color:color(display-p3 .9451 .9098 .8941);stop-opacity:1"/><stop offset="1" stop-color="#F9F3F1" style="stop-color:#f9f3f1;stop-color:color(display-p3 .9765 .9529 .9451);stop-opacity:1"/></linearGradient><linearGradient id="h" x1="145.263" x2="146.263" y1="150" y2="150" gradientUnits="userSpaceOnUse"><stop stop-color="#F1E8E4" style="stop-color:#f1e8e4;stop-color:color(display-p3 .9451 .9098 .8941);stop-opacity:1"/><stop offset="1" stop-color="#F9F3F1" style="stop-color:#f9f3f1;stop-color:color(display-p3 .9765 .9529 .9451);stop-opacity:1"/></linearGradient><linearGradient id="i" x1="176.421" x2="177.421" y1="150" y2="150" gradientUnits="userSpaceOnUse"><stop stop-color="#F1E8E4" style="stop-color:#f1e8e4;stop-color:color(display-p3 .9451 .9098 .8941);stop-opacity:1"/><stop offset="1" stop-color="#F9F3F1" style="stop-color:#f9f3f1;stop-color:color(display-p3 .9765 .9529 .9451);stop-opacity:1"/></linearGradient><linearGradient id="j" x1="207.579" x2="208.579" y1="150" y2="150" gradientUnits="userSpaceOnUse"><stop stop-color="#F1E8E4" style="stop-color:#f1e8e4;stop-color:color(display-p3 .9451 .9098 .8941);stop-opacity:1"/><stop offset="1" stop-color="#F9F3F1" style="stop-color:#f9f3f1;stop-color:color(display-p3 .9765 .9529 .9451);stop-opacity:1"/></linearGradient><linearGradient id="k" x1="238.737" x2="239.737" y1="150" y2="150" gradientUnits="userSpaceOnUse"><stop stop-color="#F1E8E4" style="stop-color:#f1e8e4;stop-color:color(display-p3 .9451 .9098 .8941);stop-opacity:1"/><stop offset="1" stop-color="#F9F3F1" style="stop-color:#f9f3f1;stop-color:color(display-p3 .9765 .9529 .9451);stop-opacity:1"/></linearGradient><linearGradient id="l" x1="269.895" x2="270.895" y1="150" y2="150" gradientUnits="userSpaceOnUse"><stop stop-color="#F1E8E4" style="stop-color:#f1e8e4;stop-color:color(display-p3 .9451 .9098 .8941);stop-opacity:1"/><stop offset="1" stop-color="#F9F3F1" style="stop-color:#f9f3f1;stop-color:color(display-p3 .9765 .9529 .9451);stop-opacity:1"/></linearGradient><linearGradient id="m" x1="301.053" x2="302.053" y1="150" y2="150" gradientUnits="userSpaceOnUse"><stop stop-color="#F1E8E4" style="stop-color:#f1e8e4;stop-color:color(display-p3 .9451 .9098 .8941);stop-opacity:1"/><stop offset="1" stop-color="#F9F3F1" style="stop-color:#f9f3f1;stop-color:color(display-p3 .9765 .9529 .9451);stop-opacity:1"/></linearGradient><linearGradient id="n" x1="332.211" x2="333.211" y1="150" y2="150" gradientUnits="userSpaceOnUse"><stop stop-color="#F1E8E4" style="stop-color:#f1e8e4;stop-color:color(display-p3 .9451 .9098 .8941);stop-opacity:1"/><stop offset="1" stop-color="#F9F3F1" style="stop-color:#f9f3f1;stop-color:color(display-p3 .9765 .9529 .9451);stop-opacity:1"/></linearGradient><linearGradient id="o" x1="363.368" x2="364.368" y1="150" y2="150" gradientUnits="userSpaceOnUse"><stop stop-color="#F1E8E4" style="stop-color:#f1e8e4;stop-color:color(display-p3 .9451 .9098 .8941);stop-opacity:1"/><stop offset="1" stop-color="#F9F3F1" style="stop-color:#f9f3f1;stop-color:color(display-p3 .9765 .9529 .9451);stop-opacity:1"/></linearGradient><linearGradient id="p" x1="192" x2="192" y1="52" y2="364" gradientUnits="userSpaceOnUse"><stop stop-color="#CBDFF8" style="stop-color:#cbdff8;stop-color:color(display-p3 .7961 .8745 .9725);stop-opacity:1"/><stop offset="1" stop-color="#CBDFF8" stop-opacity="0" style="stop-color:none;stop-opacity:0"/></linearGradient><clipPath id="a"><path fill="#fff" d="M0 0h384v240H0z" style="fill:#fff;fill-opacity:1"/></clipPath></defs></svg>