<svg xmlns="http://www.w3.org/2000/svg" width="592" height="368" fill="none"><g clip-path="url(#a)"><mask id="c" width="604" height="335" x="-6" y="-9" maskUnits="userSpaceOnUse" style="mask-type:alpha"><path fill="url(#b)" d="M-6-9h604v335H-6z"/></mask><g stroke-linecap="round" stroke-linejoin="round" stroke-width="2" mask="url(#c)"><path stroke="url(#d)" d="M30.158 325V1"/><path stroke="url(#e)" d="M61.316 325V1"/><path stroke="url(#f)" d="M92.474 325V1"/><path stroke="url(#g)" d="M123.632 325V1"/><path stroke="url(#h)" d="M154.789 325V1"/><path stroke="url(#i)" d="M185.947 325V1"/><path stroke="url(#j)" d="M217.105 325V1"/><path stroke="url(#k)" d="M248.263 325V1"/><path stroke="url(#l)" d="M279.421 325V1"/><path stroke="url(#m)" d="M310.579 325V1"/><path stroke="url(#n)" d="M341.737 325V1"/><path stroke="url(#o)" d="M372.895 325V1"/><path stroke="url(#p)" d="M404.053 325V1"/><path stroke="url(#q)" d="M435.211 325V1"/><path stroke="url(#r)" d="M466.368 325V1"/><path stroke="url(#s)" d="M497.526 325V1"/><path stroke="url(#t)" d="M528.684 325V1"/><path stroke="url(#u)" d="M559.842 325V1"/></g><path fill="url(#v)" stroke="#4F7FDA" stroke-linejoin="round" stroke-width="2" d="M-6 117.415c0-1.66 1.904-2.597 3.22-1.585l30.971 23.828c.315.243.55.573.677.949l30.405 90.648a2 2 0 0 0 2.76 1.168l29.278-14.029 30.999-69.718a2 2 0 0 1 2.781-.946l27.044 14.66a2 2 0 0 0 2.74-.86l30.7-61.017a2 2 0 0 1 2.496-.971l28.307 10.741c.491.186.889.558 1.108 1.036l31.267 68.14c.175.382.465.698.83.905l30.758 17.467 31.878-16.118 30.2-50.576 31.318 15.562 31.878-60.58 31.318 18.341 31.319 56.689 31.878 11.116 30.2-5.002 31.877-81.143L598 65v311.5H-6z" style="stroke:#4f7fda;stroke:color(display-p3 .3098 .498 .8549);stroke-opacity:1"/><g filter="url(#w)" style="mix-blend-mode:overlay"><path stroke="#FAEEF3" stroke-linecap="round" stroke-linejoin="round" stroke-width="4" d="M216 353V13" style="stroke:#faeef3;stroke:color(display-p3 .9804 .9333 .9529);stroke-opacity:1"/></g><g style="mix-blend-mode:overlay"><path stroke="#F8DBEB" stroke-linecap="round" stroke-linejoin="round" stroke-width="4" d="M217 354V12" style="stroke:#f8dbeb;stroke:color(display-p3 .9725 .8588 .9216);stroke-opacity:1"/></g><g style="mix-blend-mode:multiply"><path stroke="#EB88E7" stroke-linecap="round" stroke-linejoin="round" stroke-width="2" d="M217 354V12" style="stroke:#eb88e7;stroke:color(display-p3 .9216 .5333 .9059);stroke-opacity:1"/></g><g filter="url(#x)"><rect width="110" height="53" x="225" y="100" fill="#1C4053" fill-opacity=".08" rx="8" style="fill:#1c4053;fill:color(display-p3 .1098 .25 .3255);fill-opacity:.08"/></g><g filter="url(#y)"><rect width="108" height="53" x="226" y="101" fill="#1C4053" fill-opacity=".08" rx="8" style="fill:#1c4053;fill:color(display-p3 .1098 .25 .3255);fill-opacity:.08"/></g><rect width="112" height="56" x="224" y="97" fill="url(#z)" rx="9"/><path fill="#fff" d="M225 106a8 8 0 0 1 8-8h94a8 8 0 0 1 8 8v38a8 8 0 0 1-8 8h-94a8 8 0 0 1-8-8z" style="fill:#fff;fill-opacity:1"/></g><defs><linearGradient id="b" x1="296" x2="296" y1="-9" y2="326" gradientUnits="userSpaceOnUse"><stop style="stop-color:black;stop-opacity:1"/><stop offset=".795" stop-opacity="0" style="stop-color:none;stop-opacity:0"/></linearGradient><linearGradient id="d" x1="31.158" x2="32.158" y1="163" y2="163" gradientUnits="userSpaceOnUse"><stop stop-color="#F1E8E4" style="stop-color:#f1e8e4;stop-color:color(display-p3 .9451 .9098 .8941);stop-opacity:1"/><stop offset="1" stop-color="#F9F3F1" style="stop-color:#f9f3f1;stop-color:color(display-p3 .9765 .9529 .9451);stop-opacity:1"/></linearGradient><linearGradient id="e" x1="62.316" x2="63.316" y1="163" y2="163" gradientUnits="userSpaceOnUse"><stop stop-color="#F1E8E4" style="stop-color:#f1e8e4;stop-color:color(display-p3 .9451 .9098 .8941);stop-opacity:1"/><stop offset="1" stop-color="#F9F3F1" style="stop-color:#f9f3f1;stop-color:color(display-p3 .9765 .9529 .9451);stop-opacity:1"/></linearGradient><linearGradient id="f" x1="93.474" x2="94.474" y1="163" y2="163" gradientUnits="userSpaceOnUse"><stop stop-color="#F1E8E4" style="stop-color:#f1e8e4;stop-color:color(display-p3 .9451 .9098 .8941);stop-opacity:1"/><stop offset="1" stop-color="#F9F3F1" style="stop-color:#f9f3f1;stop-color:color(display-p3 .9765 .9529 .9451);stop-opacity:1"/></linearGradient><linearGradient id="g" x1="124.632" x2="125.632" y1="163" y2="163" gradientUnits="userSpaceOnUse"><stop stop-color="#F1E8E4" style="stop-color:#f1e8e4;stop-color:color(display-p3 .9451 .9098 .8941);stop-opacity:1"/><stop offset="1" stop-color="#F9F3F1" style="stop-color:#f9f3f1;stop-color:color(display-p3 .9765 .9529 .9451);stop-opacity:1"/></linearGradient><linearGradient id="h" x1="155.789" x2="156.789" y1="163" y2="163" gradientUnits="userSpaceOnUse"><stop stop-color="#F1E8E4" style="stop-color:#f1e8e4;stop-color:color(display-p3 .9451 .9098 .8941);stop-opacity:1"/><stop offset="1" stop-color="#F9F3F1" style="stop-color:#f9f3f1;stop-color:color(display-p3 .9765 .9529 .9451);stop-opacity:1"/></linearGradient><linearGradient id="i" x1="186.947" x2="187.947" y1="163" y2="163" gradientUnits="userSpaceOnUse"><stop stop-color="#F1E8E4" style="stop-color:#f1e8e4;stop-color:color(display-p3 .9451 .9098 .8941);stop-opacity:1"/><stop offset="1" stop-color="#F9F3F1" style="stop-color:#f9f3f1;stop-color:color(display-p3 .9765 .9529 .9451);stop-opacity:1"/></linearGradient><linearGradient id="j" x1="218.105" x2="219.105" y1="163" y2="163" gradientUnits="userSpaceOnUse"><stop stop-color="#F1E8E4" style="stop-color:#f1e8e4;stop-color:color(display-p3 .9451 .9098 .8941);stop-opacity:1"/><stop offset="1" stop-color="#F9F3F1" style="stop-color:#f9f3f1;stop-color:color(display-p3 .9765 .9529 .9451);stop-opacity:1"/></linearGradient><linearGradient id="k" x1="249.263" x2="250.263" y1="163" y2="163" gradientUnits="userSpaceOnUse"><stop stop-color="#F1E8E4" style="stop-color:#f1e8e4;stop-color:color(display-p3 .9451 .9098 .8941);stop-opacity:1"/><stop offset="1" stop-color="#F9F3F1" style="stop-color:#f9f3f1;stop-color:color(display-p3 .9765 .9529 .9451);stop-opacity:1"/></linearGradient><linearGradient id="l" x1="280.421" x2="281.421" y1="163" y2="163" gradientUnits="userSpaceOnUse"><stop stop-color="#F1E8E4" style="stop-color:#f1e8e4;stop-color:color(display-p3 .9451 .9098 .8941);stop-opacity:1"/><stop offset="1" stop-color="#F9F3F1" style="stop-color:#f9f3f1;stop-color:color(display-p3 .9765 .9529 .9451);stop-opacity:1"/></linearGradient><linearGradient id="m" x1="311.579" x2="312.579" y1="163" y2="163" gradientUnits="userSpaceOnUse"><stop stop-color="#F1E8E4" style="stop-color:#f1e8e4;stop-color:color(display-p3 .9451 .9098 .8941);stop-opacity:1"/><stop offset="1" stop-color="#F9F3F1" style="stop-color:#f9f3f1;stop-color:color(display-p3 .9765 .9529 .9451);stop-opacity:1"/></linearGradient><linearGradient id="n" x1="342.737" x2="343.737" y1="163" y2="163" gradientUnits="userSpaceOnUse"><stop stop-color="#F1E8E4" style="stop-color:#f1e8e4;stop-color:color(display-p3 .9451 .9098 .8941);stop-opacity:1"/><stop offset="1" stop-color="#F9F3F1" style="stop-color:#f9f3f1;stop-color:color(display-p3 .9765 .9529 .9451);stop-opacity:1"/></linearGradient><linearGradient id="o" x1="373.895" x2="374.895" y1="163" y2="163" gradientUnits="userSpaceOnUse"><stop stop-color="#F1E8E4" style="stop-color:#f1e8e4;stop-color:color(display-p3 .9451 .9098 .8941);stop-opacity:1"/><stop offset="1" stop-color="#F9F3F1" style="stop-color:#f9f3f1;stop-color:color(display-p3 .9765 .9529 .9451);stop-opacity:1"/></linearGradient><linearGradient id="p" x1="405.053" x2="406.053" y1="163" y2="163" gradientUnits="userSpaceOnUse"><stop stop-color="#F1E8E4" style="stop-color:#f1e8e4;stop-color:color(display-p3 .9451 .9098 .8941);stop-opacity:1"/><stop offset="1" stop-color="#F9F3F1" style="stop-color:#f9f3f1;stop-color:color(display-p3 .9765 .9529 .9451);stop-opacity:1"/></linearGradient><linearGradient id="q" x1="436.211" x2="437.211" y1="163" y2="163" gradientUnits="userSpaceOnUse"><stop stop-color="#F1E8E4" style="stop-color:#f1e8e4;stop-color:color(display-p3 .9451 .9098 .8941);stop-opacity:1"/><stop offset="1" stop-color="#F9F3F1" style="stop-color:#f9f3f1;stop-color:color(display-p3 .9765 .9529 .9451);stop-opacity:1"/></linearGradient><linearGradient id="r" x1="467.368" x2="468.368" y1="163" y2="163" gradientUnits="userSpaceOnUse"><stop stop-color="#F1E8E4" style="stop-color:#f1e8e4;stop-color:color(display-p3 .9451 .9098 .8941);stop-opacity:1"/><stop offset="1" stop-color="#F9F3F1" style="stop-color:#f9f3f1;stop-color:color(display-p3 .9765 .9529 .9451);stop-opacity:1"/></linearGradient><linearGradient id="s" x1="498.526" x2="499.526" y1="163" y2="163" gradientUnits="userSpaceOnUse"><stop stop-color="#F1E8E4" style="stop-color:#f1e8e4;stop-color:color(display-p3 .9451 .9098 .8941);stop-opacity:1"/><stop offset="1" stop-color="#F9F3F1" style="stop-color:#f9f3f1;stop-color:color(display-p3 .9765 .9529 .9451);stop-opacity:1"/></linearGradient><linearGradient id="t" x1="529.684" x2="530.684" y1="163" y2="163" gradientUnits="userSpaceOnUse"><stop stop-color="#F1E8E4" style="stop-color:#f1e8e4;stop-color:color(display-p3 .9451 .9098 .8941);stop-opacity:1"/><stop offset="1" stop-color="#F9F3F1" style="stop-color:#f9f3f1;stop-color:color(display-p3 .9765 .9529 .9451);stop-opacity:1"/></linearGradient><linearGradient id="u" x1="560.842" x2="561.842" y1="163" y2="163" gradientUnits="userSpaceOnUse"><stop stop-color="#F1E8E4" style="stop-color:#f1e8e4;stop-color:color(display-p3 .9451 .9098 .8941);stop-opacity:1"/><stop offset="1" stop-color="#F9F3F1" style="stop-color:#f9f3f1;stop-color:color(display-p3 .9765 .9529 .9451);stop-opacity:1"/></linearGradient><linearGradient id="v" x1="296" x2="296" y1="65" y2="377" gradientUnits="userSpaceOnUse"><stop stop-color="#CBDFF8" style="stop-color:#cbdff8;stop-color:color(display-p3 .7961 .8745 .9725);stop-opacity:1"/><stop offset="1" stop-color="#CBDFF8" stop-opacity="0" style="stop-color:none;stop-opacity:0"/></linearGradient><linearGradient id="z" x1="280" x2="280" y1="97" y2="153" gradientUnits="userSpaceOnUse"><stop offset=".703" stop-color="#1C4053" stop-opacity=".08" style="stop-color:#1c4053;stop-color:color(display-p3 .1098 .251 .3255);stop-opacity:.08"/><stop offset="1" stop-color="#1C4053" stop-opacity=".24" style="stop-color:#1c4053;stop-color:color(display-p3 .1098 .251 .3255);stop-opacity:.24"/></linearGradient><filter id="w" width="60" height="400" x="186" y="-17" color-interpolation-filters="sRGB" filterUnits="userSpaceOnUse"><feFlood flood-opacity="0" result="BackgroundImageFix"/><feBlend in="SourceGraphic" in2="BackgroundImageFix" result="shape"/><feGaussianBlur result="effect1_foregroundBlur_619_2383" stdDeviation="14"/></filter><filter id="x" width="116" height="59" x="222" y="97" color-interpolation-filters="sRGB" filterUnits="userSpaceOnUse"><feFlood flood-opacity="0" result="BackgroundImageFix"/><feBlend in="SourceGraphic" in2="BackgroundImageFix" result="shape"/><feGaussianBlur result="effect1_foregroundBlur_619_2383" stdDeviation="1.5"/></filter><filter id="y" width="116" height="61" x="222" y="97" color-interpolation-filters="sRGB" filterUnits="userSpaceOnUse"><feFlood flood-opacity="0" result="BackgroundImageFix"/><feBlend in="SourceGraphic" in2="BackgroundImageFix" result="shape"/><feGaussianBlur result="effect1_foregroundBlur_619_2383" stdDeviation="2"/></filter><clipPath id="a"><path fill="#fff" d="M0 0h592v368H0z" style="fill:#fff;fill-opacity:1"/></clipPath></defs></svg>