<svg xmlns="http://www.w3.org/2000/svg" width="1216" height="774" fill="none"><g clip-path="url(#a)"><g clip-path="url(#b)"><path stroke="#DD8E00" stroke-linecap="round" stroke-linejoin="round" stroke-width="2" d="M273 555v-12l6-10-6-10v-12l72.188 14.438L383 533l-37.812 7.563L273 555Z"/><path fill="#FAF8EC" d="M273 555v-12l6-10-6-10v-12l110 22-110 22Z"/><path fill="#F9EFBD" d="M273 511v12l49 10-49 10v12l110-22-110-22Z"/><path fill="#4F403F" stroke="#4F403F" stroke-linecap="round" stroke-linejoin="round" stroke-width="2" d="m383 533-36-7.2v14.4l36-7.2Z"/><path stroke="#E8AA00" stroke-linecap="round" stroke-linejoin="bevel" stroke-width="2" d="M273 555v-12l6-10-6-10v-12l110 22-110 22Z"/><path fill="#CBBAB7" d="M347 536.19v4.08l35.98-7.27-10.1-2.04-25.88 5.23Z" opacity=".3"/><path stroke="#342828" stroke-linecap="round" stroke-linejoin="round" stroke-width="2" d="m383 533-36-7.2v14.4l36-7.2Z"/><path fill="#F4D340" d="M-443 511v43.91l716 .09 5-7-5-5 6-10-6-10 5-5-5-6.91-716-.09Z"/><path fill="#DD8E00" d="M273 511h-716v12h716l5-5-5-7ZM-443 543v12h716l5-7-5-5h-716Z" opacity=".3"/><path fill="#F8E58E" d="M273 543h-716v-2h717.2l-1.2 2ZM274.2 525H-443v-2h716l1.2 2Z"/><path stroke="#DD8E00" stroke-linejoin="round" stroke-width="2" d="M-443 511v44h716l5-7-4.5-5 6-10-6.5-10 5-5-5-7h-716Z"/><rect width="594" height="122" x="896" y="316" fill="#F4D340" rx="18"/><path stroke="#DD8E00" stroke-miterlimit="10" stroke-width="2" d="M929 437v-24M967 437v-24M1005 437v-24M1043 437v-24M1081 437v-24M1119 437v-24M1157 437v-24M1195 437v-24M929 437v-16M948 437v-16M967 437v-16M986 437v-16M1005 437v-16M1024 437v-16M1043 437v-16M1062 437v-16M1081 437v-16M1100 437v-16M1119 437v-16M1138 437v-16M1157 437v-16M1176 437v-16M1195 437v-16M1214 437v-16M929 317v24M967 317v24M1005 317v24M1043 317v24M1081 317v24M1119 317v24M1157 317v24M1195 317v24M929 317v16M948 317v16M967 317v16M986 317v16M1005 317v16M1024 317v16M1043 317v16M1062 317v16M1081 317v16M1100 317v16M1119 317v16M1138 317v16M1157 317v16M1176 317v16M1195 317v16M1214 317v16"/><path fill="#DD8E00" fill-rule="evenodd" d="M913 437c-8.837 0-16-7.163-16-16v-4c0-.677.042-1.345.124-2 .984 7.893 7.717 14 15.876 14h561c6.87 0 12.74-4.335 15-10.42V421c0 8.837-7.16 16-16 16H913Z" clip-rule="evenodd" opacity=".2"/><path fill="#F9EFBD" fill-rule="evenodd" d="M913 317c-8.837 0-16 7.163-16 16v4c0 .677.042 1.345.124 2 .984-7.893 7.717-14 15.876-14h560c8.16 0 14.89 6.107 15.88 14a16.5 16.5 0 0 0 .12-2v-4c0-8.837-7.16-16-16-16H913Z" clip-rule="evenodd" opacity=".2"/><rect width="592" height="120" x="897" y="317" stroke="#DD8E00" stroke-width="2" rx="16"/><path fill="#68B664" d="M624 666c0-8.284 6.716-15 15-15h15v15c0 8.284-6.716 15-15 15-8.284 0-15-6.716-15-15Z"/><path fill="#255B32" fill-rule="evenodd" d="M624.132 664a15.166 15.166 0 0 0-.132 2c0 8.284 6.716 15 15 15 8.284 0 15-6.716 15-15v-4c0 8.284-6.716 15-15 15-7.606 0-13.89-5.661-14.868-13Z" clip-rule="evenodd" opacity=".3"/><path fill="#C0E3B0" fill-rule="evenodd" d="M639 651c-8.284 0-15 6.716-15 15 0 .678.045 1.346.132 2 .978-7.339 7.262-13 14.868-13h15v-4h-15Z" clip-rule="evenodd" opacity=".2"/><path stroke="#255B32" stroke-width="2" d="M624 666c0-8.284 6.716-15 15-15h15v15c0 8.284-6.716 15-15 15-8.284 0-15-6.716-15-15Z"/><path fill="#EE7244" d="M624 606c0-8.284 6.716-15 15-15h15v30h-15c-8.284 0-15-6.716-15-15Z"/><path fill="#BE270F" fill-rule="evenodd" d="M624.132 604a15.166 15.166 0 0 0-.132 2c0 8.284 6.716 15 15 15h15v-4h-15c-7.606 0-13.89-5.661-14.868-13Z" clip-rule="evenodd" opacity=".3"/><path fill="#F7C1A3" fill-rule="evenodd" d="M639 591c-8.284 0-15 6.716-15 15 0 .678.045 1.346.132 2 .978-7.339 7.262-13 14.868-13h15v-4h-15Z" clip-rule="evenodd" opacity=".2"/><path stroke="#9C1609" stroke-width="2" d="M624 606c0-8.284 6.716-15 15-15h15v30h-15c-8.284 0-15-6.716-15-15Z"/><path fill="#F7C1A3" d="M684 606c0-8.284-6.716-15-15-15h-15v30h15c8.284 0 15-6.716 15-15Z"/><path fill="#BE270F" fill-rule="evenodd" d="M683.868 604c.087.654.132 1.322.132 2 0 8.284-6.716 15-15 15h-15v-4h15c7.606 0 13.89-5.661 14.868-13Z" clip-rule="evenodd" opacity=".15"/><path fill="#FAEFE8" fill-rule="evenodd" d="M669 591c8.284 0 15 6.716 15 15 0 .678-.045 1.346-.132 2-.978-7.339-7.262-13-14.868-13h-15v-4h15Z" clip-rule="evenodd" opacity=".3"/><path stroke="#9C1609" stroke-width="2" d="M684 606c0-8.284-6.716-15-15-15h-15v30h15c8.284 0 15-6.716 15-15Z"/><path fill="#8E77E4" d="M624 636c0-8.284 6.716-15 15-15h15v30h-15c-8.284 0-15-6.716-15-15Z"/><path fill="#37368D" fill-rule="evenodd" d="M624.132 634a15.166 15.166 0 0 0-.132 2c0 8.284 6.716 15 15 15h15v-4h-15c-7.606 0-13.89-5.661-14.868-13Z" clip-rule="evenodd" opacity=".3"/><path fill="#CDB9F5" fill-rule="evenodd" d="M639 621c-8.284 0-15 6.716-15 15 0 .678.045 1.346.132 2 .978-7.339 7.262-13 14.868-13h15v-4h-15Z" clip-rule="evenodd" opacity=".2"/><path stroke="#37368D" stroke-width="2" d="M624 636c0-8.284 6.716-15 15-15h15v30h-15c-8.284 0-15-6.716-15-15Z"/><path fill="#6190E5" d="M654 636c0-8.284 6.716-15 15-15 8.284 0 15 6.716 15 15 0 8.284-6.716 15-15 15-8.284 0-15-6.716-15-15Z"/><path fill="#22468E" fill-rule="evenodd" d="M654.132 634a15.166 15.166 0 0 0-.132 2c0 8.284 6.716 15 15 15 8.284 0 15-6.716 15-15 0-.678-.045-1.346-.132-2-.978 7.339-7.262 13-14.868 13-7.606 0-13.89-5.661-14.868-13Z" clip-rule="evenodd" opacity=".3"/><path fill="#ACCBF6" fill-rule="evenodd" d="M669 621c-8.284 0-15 6.716-15 15 0 .678.045 1.346.132 2 .978-7.339 7.262-13 14.868-13 7.606 0 13.89 5.661 14.868 13 .087-.654.132-1.322.132-2 0-8.284-6.716-15-15-15Z" clip-rule="evenodd" opacity=".2"/><rect width="30" height="30" x="654" y="621" stroke="#22468E" stroke-width="2" rx="15"/><circle cx="464" cy="576" r="44" fill="#CAE7DE"/><circle cx="464" cy="576" r="39" stroke="#fff" stroke-miterlimit="10" stroke-width="4"/><path stroke="#5F9D8B" stroke-miterlimit="10" stroke-width="4" d="M503 576a39 39 0 0 0-78 0h78Z"/><circle cx="464" cy="576" r="37" fill="#114034"/><path stroke="#E8AA00" stroke-linecap="round" stroke-linejoin="round" stroke-width="2" d="M495 577h-6M485.213 598.627l-4.243-4.242M439 577h-6M445.615 559.029l-4.243-4.242M463 607v-6M463 551v-6M441.373 597.213l4.243-4.243M480.971 557.615l4.242-4.243"/><path stroke="#8FC2B3" stroke-linecap="round" stroke-linejoin="round" stroke-width="2" d="m437.153 592.5 1.732-1M489.114 562.5l1.732-1M434.057 585.023l1.932-.517M492.012 569.494l1.932-.517M434.057 568.976l1.932.518M492.012 584.506l1.932.517M437.153 561.5l1.732 1M489.114 591.5l1.732 1M471.023 605.944l-.517-1.932M455.494 547.988l-.518-1.932M478.501 602.847l-1-1.732M448.501 550.885l-1-1.732M447.501 602.847l1-1.732M477.501 550.885l1-1.732M454.976 605.944l.518-1.932M470.506 547.988l.517-1.932"/><path stroke="#092E24" stroke-linecap="round" stroke-linejoin="round" stroke-miterlimit="10" stroke-width="8" d="m442 601 20-20"/><path stroke="#092E24" stroke-linecap="round" stroke-linejoin="round" stroke-width="8" d="m462 581 23-23"/><path stroke="#FAEFE8" stroke-linecap="round" stroke-linejoin="round" stroke-miterlimit="10" stroke-width="6" d="m442 598 22-22"/><path stroke="#EE7244" stroke-linecap="round" stroke-linejoin="round" stroke-width="6" d="m464 576 22-22"/><circle cx="464" cy="576" r="37" stroke="#092E24" stroke-miterlimit="10" stroke-width="4"/><circle cx="464" cy="576" r="44" stroke="#296655" stroke-width="2"/><rect width="84" height="84" x="851.348" y="516.089" fill="#F4D340" stroke="#DD8E00" stroke-width="2" rx="16" transform="rotate(-15 851.348 516.089)"/><rect width="84" height="84" x="851.348" y="516.089" fill="#E8AA00" stroke="#CB7100" stroke-width="2" rx="16" transform="rotate(-15 851.348 516.089)"/><rect width="84" height="78" x="851.348" y="516.089" fill="#E8AA00" stroke="#CB7100" stroke-width="2" rx="16" transform="rotate(-15 851.348 516.089)"/><rect width="84" height="72" x="851.348" y="516.089" fill="#F4D340" stroke="#CB7100" stroke-width="2" rx="16" transform="rotate(-15 851.348 516.089)"/><g fill="#CB7100" opacity=".4"><path fill-rule="evenodd" d="m925.041 570.883 10.625-2.847c8.535-2.287 13.601-11.06 11.314-19.596l-2.847-10.625a9.001 9.001 0 0 1-6.364 11.023 9 9 0 0 0-6.364 11.023 9 9 0 0 1-6.364 11.022Z" clip-rule="evenodd"/><path d="m935.537 567.553-10.626 2.847.259.966 10.625-2.847-.258-.966Zm10.96-18.983c2.215 8.268-2.692 16.768-10.96 18.983l.258.966c8.803-2.358 14.026-11.406 11.668-20.208l-.966.259Zm-2.847-10.625 2.847 10.625.966-.259-2.847-10.625-.966.259Zm0 0a8.5 8.5 0 0 1-6.011 10.41l.259.966c5.068-1.358 8.076-6.567 6.718-11.635l-.966.259Zm-6.011 10.41a9.5 9.5 0 0 0-6.717 11.635l.966-.259a8.5 8.5 0 0 1 6.01-10.41l-.259-.966Zm-6.717 11.635a8.5 8.5 0 0 1-6.011 10.41l.259.966c5.068-1.358 8.076-6.567 6.718-11.635l-.966.259Z"/></g><path fill="#F4D340" d="M855.489 531.544c-2.287-8.535 2.778-17.309 11.313-19.596l50.229-13.458c8.535-2.288 17.308 2.778 19.596 11.313l6.211 23.182c4.574 17.071-5.556 34.618-22.627 39.192l-34.774 9.318c-8.535 2.287-17.308-2.778-19.595-11.314l-10.353-38.637Z"/><path fill="#F8E58E" stroke="#CB7100" stroke-width="2" d="M855.489 531.544c-2.287-8.535 2.778-17.309 11.313-19.596l50.781-13.606c8.23-2.206 16.69 2.679 18.896 10.909l7.653 28.564a9 9 0 0 1-6.364 11.023 9 9 0 0 0-6.364 11.023 8.998 8.998 0 0 1-6.364 11.022l-39.603 10.612c-8.535 2.287-17.308-2.778-19.595-11.314l-10.353-38.637Z"/><rect width="84" height="84" x="851.348" y="516.089" stroke="#CB7100" stroke-width="2" rx="16" transform="rotate(-15 851.348 516.089)"/><path fill="#F4D340" fill-rule="evenodd" d="m562.678 465.749 20.506 55.861s19.717-2.91 31.112 8.486l19.799-19.799c-11.395-11.396-8.485-31.113-8.485-31.113l-55.861-20.506-2.122 2.121 30.647 30.647a6 6 0 1 1-2.828 2.829l-30.647-30.647-2.121 2.121Z" clip-rule="evenodd"/><path fill="#EFBE08" d="M583.184 521.61s19.718-2.91 31.113 8.486l19.799-19.799c-11.395-11.396-8.485-31.113-8.485-31.113l-8.486-2.829 2.217 21.425c1.044 10.1-7.462 18.606-17.562 17.561l-21.424-2.216 2.828 8.485Z"/><path stroke="#DD8E00" stroke-linejoin="round" stroke-width="2" d="m562.678 465.749 20.506 55.861s19.717-2.91 31.112 8.486l19.799-19.799c-11.395-11.396-8.485-31.113-8.485-31.113l-55.861-20.506-2.122 2.121 30.647 30.647a6 6 0 1 1-2.828 2.829l-30.647-30.647-2.121 2.121Z"/><rect width="34" height="16" x="612.176" y="532.217" fill="#296655" rx="2" transform="rotate(-45 612.176 532.217)"/><path fill="#387867" d="m616.418 527.974 1.414-1.414 11.314 11.313-1.414 1.415zM630.561 513.832l1.414-1.414 11.314 11.313-1.414 1.415z"/><path fill="#1C5344" d="m612.176 532.217 4.243-4.243 11.313 11.314-4.242 4.243zM631.975 512.418l4.243-4.243 11.313 11.314-4.242 4.243z"/><rect width="34" height="16" x="612.176" y="532.217" stroke="#092E24" stroke-linejoin="round" stroke-width="2" rx="2" transform="rotate(-45 612.176 532.217)"/><rect width="90" height="82" x="713" y="479" fill="#EBFAF5" rx="8"/><path stroke="#ABD5C8" stroke-miterlimit="10" stroke-width="2" d="M715 552v1a6 6 0 0 0 6 6h74a6 6 0 0 0 6-6v-1"/><path stroke="#fff" stroke-miterlimit="10" stroke-width="2" d="M801 490v-3a6 6 0 0 0-6-6h-74a6 6 0 0 0-6 6v3"/><rect width="80" height="72" x="718" y="484" fill="#114034" rx="3"/><rect width="80" height="72" x="718" y="484" stroke="#092E24" stroke-width="4" rx="3"/><rect width="90" height="82" x="713" y="479" stroke="#1C5344" stroke-width="2" rx="8"/><path stroke="#EE7244" stroke-linecap="round" stroke-linejoin="round" stroke-miterlimit="10" stroke-width="2" d="m728 538 4 4-4 4M737 546h8"/><rect width="16" height="2" x="736" y="496" fill="#EBFAF5" rx="1"/><rect width="4" height="2" x="728" y="496" fill="#EE7244" rx="1"/><rect width="8" height="2" x="728" y="502" fill="#EFBE08" rx="1"/><rect width="16" height="2" x="740" y="502" fill="#EE7244" rx="1"/><rect width="2" height="2" x="756" y="496" fill="#EBFAF5" rx="1"/><rect width="4" height="2" x="728" y="508" fill="#EBFAF5" rx="1"/><rect width="2" height="2" x="760" y="502" fill="#EFBE08" rx="1"/><path fill="#FAF8EC" d="m843.912 706.539 7.071-7.071 7.071-1.414 1.415-7.071 7.071-7.071 16.97 39.598-39.598-16.971Z"/><path fill="#F9EFBD" d="m866.54 683.912-4.041 4.04 10.404 24.951-24.95-10.405-4.041 4.041 39.598 16.971-16.97-39.598Z"/><path stroke="#EFBE08" stroke-linecap="round" stroke-linejoin="round" stroke-width="2" d="m843.912 706.539 6.869-6.869 7.096-1.793 1.793-7.096 6.87-6.869 16.97 39.598-39.598-16.971Z"/><path fill="#4F403F" stroke="#4F403F" stroke-linecap="round" stroke-linejoin="round" stroke-width="2" d="m883.509 723.509-4.243-9.899-5.657 5.657 9.9 4.242Z"/><path stroke="#342828" stroke-linecap="round" stroke-linejoin="round" stroke-width="2" d="m883.509 723.509-4.243-9.899-5.657 5.657 9.9 4.242Z"/><path fill="#EE7244" d="m807.143 669.77 22.627-22.628 36.77 36.77-1.415 5.657-4.949.707-2.122 7.778-7.778 2.121v4.243l-6.364 2.121-36.769-36.769Z"/><path fill="#E5542B" d="m824.113 652.799 5.657-5.657 36.77 36.77-1.414 5.656-3.536.708-37.477-37.477Z"/><path fill="#F4966B" d="m823.406 654.92 1.414-1.414 36.77 36.77-2.022.806-36.162-36.162Z"/><path fill="#D63C1A" d="m807.143 669.77 5.656-5.657 37.477 37.476v2.829l-6.364 2.121-36.769-36.769Z"/><path fill="#F4966B" d="m812.799 664.113 1.414-1.415 37.477 37.477-1.415 1.414-37.476-37.476Z"/><path fill="#F4D340" d="M797.243 659.87a5.998 5.998 0 0 1 0-8.485l14.142-14.142a6 6 0 0 1 8.485 0l9.9 9.899-22.628 22.628-9.899-9.9Z"/><path fill="#E8AA00" d="M797.243 659.87a5.998 5.998 0 0 1 0-8.485l1.414-1.414 14.142 14.142-5.657 5.657-9.899-9.9Z"/><path fill="#EFBE08" d="m809.971 638.657 1.414-1.414a6 6 0 0 1 8.485 0l9.9 9.899-5.657 5.657-14.142-14.142Z"/><path fill="#F8E58E" d="m809.264 640.778 1.414-1.414 12.728 12.728-1.414 1.414zM799.363 650.678l1.414-1.414 12.728 12.728-1.414 1.414z"/><path stroke="#DD8E00" stroke-linejoin="round" stroke-width="2" d="M797.243 659.87a5.998 5.998 0 0 1 0-8.485l14.142-14.142a6 6 0 0 1 8.485 0l9.9 9.899-22.628 22.628-9.899-9.9Z"/><path stroke="#9C1609" stroke-linejoin="round" stroke-width="2" d="m807.143 669.77 22.627-22.628 36.77 36.77-1.415 5.657-4.949.707-2.122 7.778-7.778 2.121v4.243l-6.364 2.121-36.769-36.769Z"/><path fill="#EFBE08" d="m352 592 12.237 29.529L396 624.085l-24.2 20.806L379.194 676 352 659.329 324.807 676l7.393-31.109-24.2-20.806 31.763-2.556L352 592Z"/><path fill="#DD8E00" d="m396 624.085-24.2 20.806L379.193 676 352 659.329 324.807 676l7.393-31.109-24.2-20.806 44 18.415 44-18.415Z"/><path stroke="#F4D340" stroke-width="2" d="M352 592v50"/><path stroke="#EFBE08" stroke-width="2" d="m352 642-26 32M352 642l26 32"/><path stroke="#F4D340" stroke-width="2" d="m396 624.085-24.2 20.806L379.193 676 352 659.329 324.807 676l7.393-31.109-24.2-20.806 44 18.415 44-18.415Z"/><path stroke="#B15A00" stroke-width="2" d="m352 592 12.237 29.529L396 624.085l-24.2 20.806L379.194 676 352 659.329 324.807 676l7.393-31.109-24.2-20.806 31.763-2.556L352 592Z"/><path fill="#F4D340" stroke="#B15A00" d="M569 607.5h.5v-15h-15v15H569Zm-15-18h16c1.424 0 2.5 1.076 2.5 2.5v16c0 1.424-1.076 2.5-2.5 2.5h-16c-1.424 0-2.5-1.076-2.5-2.5v-16c0-1.424 1.076-2.5 2.5-2.5Z"/><path fill="#F4D340" stroke="#B15A00" stroke-linecap="round" stroke-linejoin="round" stroke-miterlimit="10" stroke-width="2" d="M570 589h-16c-1.7 0-3 1.3-3 3v16c0 1.7 1.3 3 3 3h16c1.7 0 3-1.3 3-3v-16c0-1.7-1.3-3-3-3Zm-1 18h-14v-14h14v14Z"/><path fill="#EE7244" d="M562 603h-16c-1.7 0-3-1.3-3-3v-16c0-1.7 1.3-3 3-3h16c1.7 0 3 1.3 3 3v16c0 1.7-1.3 3-3 3Z"/><path fill="#F4966B" d="M562 581h-16c-1.7 0-3 1.3-3 3v3c0-1.7 1.3-3 3-3h16c1.7 0 3 1.3 3 3v-3c0-1.7-1.3-3-3-3Z"/><path fill="#9C1609" d="M562 600h-16c-1.7 0-3-1.3-3-3v3c0 1.7 1.3 3 3 3h16c1.7 0 3-1.3 3-3v-3c0 1.7-1.3 3-3 3Z" opacity=".2"/><path stroke="#9C1609" stroke-linecap="round" stroke-linejoin="round" stroke-miterlimit="10" stroke-width="2" d="M562 603h-16c-1.7 0-3-1.3-3-3v-16c0-1.7 1.3-3 3-3h16c1.7 0 3 1.3 3 3v16c0 1.7-1.3 3-3 3Z"/><path fill="#EFBE08" d="m946 647-7-7c3.9-3.9 16-15.8 19.4-12.4 3.4 3.4-8.5 15.5-12.4 19.4Z"/><path fill="#B15A00" d="M958.399 627.6c.7.7.7 1.9.4 2.8-.3 1-.7 1.9-1.2 2.7-1 1.7-2.2 3.4-3.5 4.9-2.5 3.1-5.3 6-8.1 8.9-.6.6-1.5.6-2.1 0-.6-.6-.6-1.5 0-2.1 2.8-2.8 5.5-5.7 7.9-8.6 1.2-1.5 2.3-3 3.2-4.5.4-.7.8-1.5.9-2 .1-.3.1-.5.1-.4 0 0 .1.3.3.5-.6-.6-.6-1.5 0-2.1.5-.7 1.5-.7 2.1-.1Z" opacity=".2"/><path fill="#F9F3F1" d="m939.083 639.981-4.03 4.031 7 7 4.03-4.03-7-7.001Z"/><path fill="#E8DCD9" d="m943.87 644.825-4.03 4.03 2.121 2.122 4.031-4.031-2.122-2.121Z"/><path fill="#F4D340" d="M939.001 640c2.5-2.5 5.1-5 7.9-7.3 1.4-1.1 2.8-2.3 4.3-3.3s3.1-1.9 4.8-2.3c.8-.2 1.6.3 1.8 1.1.2.8-.3 1.5-1 1.8l-.2.1c-.4.1-1 .3-1.7.7-.3.2-.7.3-1 .6-.3.2-.7.4-1 .6-1.4.9-2.7 2-4 3.1-2.6 2.2-5.2 4.6-7.7 7.1-.6.6-1.5.6-2.1 0-.6-.6-.7-1.6-.1-2.2Z"/><path fill="#fff" d="m939.032 640.017-4.03 4.03 2.121 2.122 4.031-4.031-2.122-2.121Z"/><path fill="#EE7244" d="M936 645c-2 0-4.1 1.1-5 2-2 2-2 8-2 10 2 0 8 0 10-2 .9-.9 2-3 2-5l-5-5Z"/><path fill="#E5542B" d="M930 654c1.1 0 2.2-.1 3.2-.2s2-.3 2.8-.5c.4-.1.7-.3.8-.4l.1-.1c.1-.1.2-.2.2-.3.4-.6.7-1.4.8-2 .1-.8.9-1.4 1.7-1.3.8.1 1.4.9 1.3 1.7-.2 1.1-.6 2.2-1.3 3.2-.6 1-1.7 1.6-2.8 2-1.1.4-2.3.5-3.4.7-1.1.1-2.2.2-3.4.2-.8 0-1.5-.7-1.5-1.5s.6-1.5 1.5-1.5Z" opacity=".4"/><path fill="#F4966B" d="M935.5 648c-.6.1-1.4.4-2 .8-.1.1-.3.2-.3.2l-.1.1c-.1.1-.2.5-.4.8-.3.8-.4 1.8-.5 2.8-.1 1-.2 2.1-.2 3.2 0 .8-.7 1.5-1.5 1.5s-1.5-.7-1.5-1.5c0-1.2.1-2.3.2-3.5.1-1.1.3-2.3.7-3.4.3-1.1.9-2.2 2-2.8 1-.6 2.1-1.1 3.2-1.3.8-.1 1.6.4 1.7 1.2.1 1-.5 1.8-1.3 1.9Z"/><path stroke="#756362" stroke-linecap="round" stroke-linejoin="round" stroke-miterlimit="10" stroke-width="2" d="m939.031 640.033-3.998 3.998 7 7 3.998-3.998-7-7Z"/><path stroke="#9C1609" stroke-linecap="round" stroke-linejoin="round" stroke-miterlimit="10" stroke-width="2" d="M936 645c-2 0-4.1 1.1-5 2-2 2-2 8-2 10 2 0 8 0 10-2 .9-.9 2-3 2-5l-5-5Z"/><path stroke="#B15A00" stroke-linecap="round" stroke-linejoin="round" stroke-miterlimit="10" stroke-width="2" d="m946 647-7-7c3.9-3.9 16-15.8 19.4-12.4 3.4 3.4-8.5 15.5-12.4 19.4Z"/><path fill="#F4D340" d="M450 480s-.3-6-8-6v20l4 1v4h-16v-5l4-1v-19c-7.7 0-8 6-8 6h-3v-11h30v11h-3Z"/><path fill="#F8E58E" d="m430.4 493.9 3.6-.9c.8-.2 1.6.3 1.8 1.1.2.8-.3 1.6-1.1 1.8l-3.6.9c-.8.2-1.6-.3-1.8-1.1-.2-.8.3-1.6 1.1-1.8ZM442 493l3.7.9c.8.2 1.3 1 1.1 1.8-.2.8-1 1.3-1.8 1.1l-3.7-.9c-.8-.2-1.3-1-1.1-1.8.2-.8 1-1.3 1.8-1.1ZM453 469h-30v3h30v-3Z"/><path stroke="#B15A00" stroke-linecap="round" stroke-linejoin="round" stroke-miterlimit="10" stroke-width="2" d="M450 481s-.3-6-8-6v18l4 1v5h-16v-5l4-1v-18c-7.7 0-8 6-8 6h-3v-12h30v12h-3Z"/><path fill="#EE7244" d="m469 657 11 30 5-14 14-6.4-30-9.6Z"/><path stroke="#F6AC87" stroke-linecap="square" stroke-linejoin="round" stroke-miterlimit="10" stroke-width="2" d="m495.25 667.5-24.375-7.8"/><path fill="#9C1609" stroke="#9C1609" d="m478.667 683.376.003-.008 4-11.2.004-.01c.328-.985 1.329-1.658 2.325-1.658h1c.524 0 1 .476 1 1s-.476 1-1 1H484.647l-.119.332-3.998 11.196c-.211.559-.734.799-1.255.604l-.027-.01-.028-.007c-.463-.116-.765-.672-.553-1.239Z" opacity=".2"/><path stroke="#9C1609" stroke-linecap="round" stroke-linejoin="round" stroke-miterlimit="10" stroke-width="2" d="m469 657 11 30 5-14 14-6.4-30-9.6Z"/><path fill="#8E77E4" d="m740 619.858 5.657 5.657-5.657 5.657-5.657-5.657zM731.516 628.343l5.657 5.657-5.657 5.657-5.657-5.657zM748.484 628.343l5.657 5.657-5.657 5.657-5.657-5.657zM740 636.828l5.657 5.657-5.657 5.657-5.657-5.657z"/><path fill="#CDB9F5" d="m731.5 628.5 5.5 5.5h-11l5.5-5.5ZM740.5 620l5.5 5.5h-11l5.5-5.5ZM748.5 628.5l5.5 5.5h-11l5.5-5.5ZM739.5 637l5.5 5.5h-11l5.5-5.5Z" opacity=".6"/><path stroke="#37368D" stroke-linejoin="round" stroke-width="2" d="m740 619.858 5.657 5.657-5.657 5.657-5.657-5.657zM731.516 628.343l5.657 5.657-5.657 5.657-5.657-5.657zM748.484 628.343l5.657 5.657-5.657 5.657-5.657-5.657zM740 636.828l5.657 5.657-5.657 5.657-5.657-5.657z"/><path stroke="#305AAF" stroke-linejoin="round" stroke-width="2" d="M291.385 373.869a4 4 0 0 1 4.899-2.829l54.091 14.494a4 4 0 0 1 2.829 4.899l-3.994 14.906a4.152 4.152 0 0 1-.433 1.031c-1.409 2.408-7.668 13.427-10.307 23.597-2.614 10.069-2.48 22.595-2.404 25.605a4.18 4.18 0 0 1-.174 1.32l-3.309 10.967a4 4 0 0 1-4.865 2.708l-54.21-14.525a4 4 0 0 1-2.829-4.899l2.963-11.057c.095-.355.234-.687.417-1.005 1.381-2.392 7.608-13.49 10.319-23.608 2.711-10.119 2.867-22.843 2.868-25.605 0-.367.046-.725.141-1.079l3.998-14.92Z"/><path fill="#4F7FDA" stroke="#22468E" stroke-linejoin="round" stroke-width="2" d="M291.385 373.869a4 4 0 0 1 4.899-2.829l54.091 14.494a4 4 0 0 1 2.829 4.899l-3.994 14.906a4.152 4.152 0 0 1-.433 1.031c-1.409 2.408-7.668 13.427-10.307 23.597-2.614 10.069-2.48 22.595-2.404 25.605a4.18 4.18 0 0 1-.174 1.32l-3.309 10.967a4 4 0 0 1-4.865 2.708l-54.21-14.525a4 4 0 0 1-2.829-4.899l2.963-11.057c.095-.355.234-.687.417-1.005 1.381-2.392 7.608-13.49 10.319-23.608 2.711-10.119 2.867-22.843 2.868-25.605 0-.367.046-.725.141-1.079l3.998-14.92Z"/><path fill="#F1F4F9" d="m307.875 374.146 30.91 8.282-15.53 57.956c-2.287 8.535-11.06 13.6-19.595 11.313-8.536-2.287-13.601-11.06-11.314-19.596l15.529-57.955Z"/><path fill="#fff" d="m321.397 377.769-5.795-1.553-19.153 71.479 5.278 3.485 19.67-73.411Z"/><path fill="#22468E" d="m293.121 429.204 30.91 8.282-.518 1.932c-2.287 8.535-11.06 13.601-19.596 11.313-8.535-2.287-13.601-11.06-11.314-19.595l.518-1.932Z" opacity=".1"/><path fill="#fff" d="M318.773 418.477a4.999 4.999 0 0 0 6.123-3.536 5 5 0 1 0-6.123 3.536Z"/><path stroke="#D9DFE8" stroke-width="2" d="m315.236 412.353 9.66 2.588M321.361 408.818l-2.588 9.659M318.773 418.477a4.999 4.999 0 0 0 6.123-3.536 5 5 0 1 0-6.123 3.536Z"/><path fill="#fff" d="m337.342 387.81-25.105.964 3.365-12.558 23.182 6.212-1.442 5.382Z"/><path stroke="#163167" stroke-linejoin="round" stroke-width="2" d="m307.875 374.146 30.91 8.282-15.53 57.956c-2.287 8.535-11.06 13.6-19.595 11.313-8.536-2.287-13.601-11.06-11.314-19.596l15.529-57.955Z"/><path fill="#163167" fill-rule="evenodd" d="m315.602 376.216-7.727-2.07-15.529 57.955c-1.533 5.721.237 11.548 4.14 15.458l19.116-71.343Z" clip-rule="evenodd"/></g><path fill="#092E24" d="M346.115 186.704c-5.456 0-10.032-.909-13.728-2.728-3.637-1.877-6.336-4.429-8.096-7.656-1.76-3.285-2.64-7.157-2.64-11.616 0-4.928.997-9.093 2.992-12.496 1.995-3.461 4.811-6.043 8.448-7.744 3.696-1.76 8.096-2.64 13.2-2.64 4.635 0 8.595.792 11.88 2.376 3.344 1.525 5.896 3.843 7.656 6.952 1.76 3.109 2.64 6.952 2.64 11.528v4.048h-40.744l.44-7.128h25.432v-1.144c0-1.349-.264-2.464-.792-3.344-.528-.88-1.291-1.525-2.288-1.936-.997-.469-2.2-.704-3.608-.704-1.877 0-3.403.381-4.576 1.144-1.115.763-1.936 2.024-2.464 3.784-.528 1.76-.792 4.195-.792 7.304 0 2.581.264 4.664.792 6.248.587 1.525 1.437 2.64 2.552 3.344 1.173.704 2.669 1.056 4.488 1.056 1.349 0 2.493-.176 3.432-.528.997-.352 1.76-.909 2.288-1.672.528-.821.851-1.848.968-3.08h14.872c-.059 3.461-.939 6.424-2.64 8.888-1.701 2.464-4.224 4.371-7.568 5.72-3.344 1.349-7.392 2.024-12.144 2.024Zm32.4-22.792-13.112-21.384h20.504l6.248 13.024 5.808-13.024h17.688l-13.024 21.384L416.443 186h-20.592l-6.336-13.2-6.072 13.2h-18.832l13.904-22.088Zm38.992-21.384h17.424l-.264 8.272h.088c.587-1.877 1.526-3.491 2.816-4.84 1.35-1.349 2.963-2.376 4.84-3.08 1.936-.704 4.166-1.056 6.688-1.056 3.872 0 7.216.88 10.032 2.64 2.875 1.701 5.075 4.165 6.6 7.392 1.526 3.227 2.288 7.04 2.288 11.44 0 4.869-.792 9.064-2.376 12.584-1.584 3.52-3.813 6.219-6.688 8.096-2.874 1.819-6.277 2.728-10.208 2.728-2.522 0-4.722-.323-6.6-.968-1.818-.645-3.344-1.555-4.576-2.728-1.232-1.173-2.2-2.581-2.904-4.224h-.088c.118 1.291.176 2.611.176 3.96.059 1.349.118 2.845.176 4.488v16.192h-17.424v-60.896Zm25.784 31.768c1.467 0 2.758-.411 3.872-1.232 1.115-.821 1.966-1.995 2.552-3.52.646-1.525.968-3.403.968-5.632 0-1.995-.322-3.725-.968-5.192-.586-1.467-1.437-2.581-2.552-3.344-1.114-.763-2.434-1.144-3.96-1.144-1.642 0-3.08.381-4.312 1.144-1.232.763-2.2 1.907-2.904 3.432-.704 1.467-1.056 3.227-1.056 5.28v1.936c.059 1.701.44 3.168 1.144 4.4a7.67 7.67 0 0 0 2.904 2.904c1.291.645 2.728.968 4.312.968Zm26.474-49.28h17.424V186h-17.424v-60.984Zm44.229 61.688c-5.338 0-9.885-.909-13.64-2.728-3.754-1.819-6.6-4.4-8.536-7.744-1.877-3.344-2.816-7.304-2.816-11.88 0-4.576.939-8.536 2.816-11.88 1.936-3.403 4.782-6.013 8.536-7.832 3.755-1.877 8.302-2.816 13.64-2.816 5.28 0 9.798.939 13.552 2.816 3.755 1.819 6.571 4.429 8.448 7.832 1.936 3.344 2.904 7.304 2.904 11.88 0 4.576-.968 8.536-2.904 11.88-1.877 3.344-4.693 5.925-8.448 7.744-3.696 1.819-8.213 2.728-13.552 2.728Zm0-12.408c1.643 0 2.992-.381 4.048-1.144 1.115-.763 1.966-1.877 2.552-3.344.587-1.525.88-3.344.88-5.456 0-2.229-.293-4.077-.88-5.544-.586-1.525-1.437-2.669-2.552-3.432-1.056-.763-2.405-1.144-4.048-1.144-1.642 0-3.021.381-4.136 1.144-1.114.763-1.965 1.907-2.552 3.432-.586 1.467-.88 3.315-.88 5.544 0 2.112.294 3.931.88 5.456.587 1.467 1.438 2.581 2.552 3.344 1.115.763 2.494 1.144 4.136 1.144Zm26.597-31.768h17.424l-.528 12.144h.176c.646-2.699 1.526-4.987 2.64-6.864 1.174-1.877 2.699-3.344 4.576-4.4 1.936-1.056 4.283-1.584 7.04-1.584 3.051 0 5.574.645 7.568 1.936 1.995 1.232 3.491 3.139 4.488 5.72.998 2.523 1.496 5.749 1.496 9.68 0 2.581-.146 5.925-.44 10.032h-14.96c.118-2.053.176-3.96.176-5.72 0-2.405-.44-4.165-1.32-5.28-.88-1.173-2.141-1.76-3.784-1.76-1.466 0-2.757.411-3.872 1.232-1.056.821-1.877 2.083-2.464 3.784-.528 1.701-.792 3.813-.792 6.336V186h-17.424v-43.472Zm46.59 0h17.424V186h-17.424v-43.472Zm0-15.84h17.512v11.88h-17.512v-11.88Zm20.113 15.84h17.424l-.528 11.616h.176c1.115-3.989 2.963-7.04 5.544-9.152 2.64-2.112 6.278-3.168 10.912-3.168 5.339 0 9.416 1.467 12.232 4.4 2.816 2.875 4.224 7.069 4.224 12.584V186h-17.424v-22.792c0-1.525-.293-2.787-.88-3.784-.528-1.056-1.29-1.819-2.288-2.288-.997-.528-2.229-.792-3.696-.792-1.701 0-3.197.352-4.488 1.056-1.232.704-2.17 1.76-2.816 3.168-.645 1.408-.968 3.139-.968 5.192V186h-17.424v-43.472Zm74.616 30.36c-4.752 0-8.8-.616-12.144-1.848-3.285-1.232-5.778-2.992-7.48-5.28-1.642-2.347-2.464-5.133-2.464-8.36 0-3.168.822-5.925 2.464-8.272 1.702-2.347 4.195-4.136 7.48-5.368 3.344-1.291 7.392-1.936 12.144-1.936s8.771.616 12.056 1.848c3.344 1.232 5.838 3.021 7.48 5.368 1.702 2.347 2.552 5.133 2.552 8.36 0 3.168-.85 5.925-2.552 8.272-1.642 2.288-4.106 4.077-7.392 5.368-3.285 1.232-7.333 1.848-12.144 1.848Zm0-9.152c1.174 0 2.2-.235 3.08-.704a4.702 4.702 0 0 0 1.936-2.2c.47-.939.704-2.083.704-3.432 0-1.408-.234-2.581-.704-3.52-.41-.939-1.056-1.643-1.936-2.112-.821-.469-1.848-.704-3.08-.704-1.173 0-2.2.235-3.08.704-.88.469-1.554 1.173-2.024 2.112-.41.939-.616 2.112-.616 3.52 0 1.349.206 2.493.616 3.432a5.245 5.245 0 0 0 2.024 2.2c.88.469 1.907.704 3.08.704Zm2.024 41.184c-5.808 0-10.618-.469-14.432-1.408-3.813-.88-6.658-2.141-8.536-3.784-1.818-1.643-2.728-3.579-2.728-5.808 0-2.053.646-3.725 1.936-5.016 1.291-1.232 3.139-1.965 5.544-2.2v-.88l13.816 3.52c-1.29 0-2.317.264-3.08.792-.762.587-1.144 1.379-1.144 2.376 0 1.291.734 2.259 2.2 2.904 1.467.704 3.55 1.056 6.248 1.056 2.699 0 4.723-.352 6.072-1.056 1.408-.704 2.112-1.731 2.112-3.08 0-.997-.44-1.76-1.32-2.288-.88-.469-2.288-.704-4.224-.704h-7.48c-4.282-.059-7.744-.587-10.384-1.584-2.581-.939-4.429-2.171-5.544-3.696-1.114-1.525-1.672-3.227-1.672-5.104 0-2.171.558-3.989 1.672-5.456 1.115-1.525 2.758-2.581 4.928-3.168v-.44l7.48 2.288c0 .059-.029.117-.088.176l-.088.176a5.897 5.897 0 0 0-.352.968 3.331 3.331 0 0 0-.176 1.056c0 .528.118.997.352 1.408.294.352.675.645 1.144.88a5.544 5.544 0 0 0 1.76.264h14.344c3.755 0 6.894.499 9.416 1.496 2.523.939 4.4 2.317 5.632 4.136 1.232 1.76 1.848 3.872 1.848 6.336 0 4.987-2.141 8.859-6.424 11.616-4.282 2.816-10.56 4.224-18.832 4.224Zm10.912-60.192.264-.704c-.938-.645-1.672-1.379-2.2-2.2-.469-.88-.704-1.789-.704-2.728 0-1.76.851-3.139 2.552-4.136 1.702-1.056 4.224-1.584 7.568-1.584 2.171 0 3.902.117 5.192.352V144.2a8.067 8.067 0 0 0-1.144-.088 7.538 7.538 0 0 0-1.232-.088c-1.29 0-2.258.235-2.904.704-.645.469-.968 1.173-.968 2.112 0 .411.059.88.176 1.408.176.528.352 1.085.528 1.672a.667.667 0 0 1 .088.264c.059 0 .088.059.088.176l-7.304-5.632Zm30.343-2.2h18.48l5.72 27.456h.176l6.424-27.456h16.368l6.16 27.456h.176l5.984-27.456h15.312L788.813 186h-21.12l-5.544-24.552h-.176L756.165 186h-19.8l-11.176-43.472Zm97.621 44.176c-5.456 0-10.032-.909-13.728-2.728-3.637-1.877-6.336-4.429-8.096-7.656-1.76-3.285-2.64-7.157-2.64-11.616 0-4.928.997-9.093 2.992-12.496 1.995-3.461 4.811-6.043 8.448-7.744 3.696-1.76 8.096-2.64 13.2-2.64 4.635 0 8.595.792 11.88 2.376 3.344 1.525 5.896 3.843 7.656 6.952 1.76 3.109 2.64 6.952 2.64 11.528v4.048h-40.744l.44-7.128h25.432v-1.144c0-1.349-.264-2.464-.792-3.344-.528-.88-1.291-1.525-2.288-1.936-.997-.469-2.2-.704-3.608-.704-1.877 0-3.403.381-4.576 1.144-1.115.763-1.936 2.024-2.464 3.784-.528 1.76-.792 4.195-.792 7.304 0 2.581.264 4.664.792 6.248.587 1.525 1.437 2.64 2.552 3.344 1.173.704 2.669 1.056 4.488 1.056 1.349 0 2.493-.176 3.432-.528.997-.352 1.76-.909 2.288-1.672.528-.821.851-1.848.968-3.08h14.872c-.059 3.461-.939 6.424-2.64 8.888-1.701 2.464-4.224 4.371-7.568 5.72-3.344 1.349-7.392 2.024-12.144 2.024Zm55.625 0c-2.64 0-4.957-.381-6.952-1.144-1.936-.763-3.549-1.819-4.84-3.168-1.232-1.349-2.141-2.933-2.728-4.752h-.088c.059.88.088 1.819.088 2.816l.176 2.992c.059.939.118 1.789.176 2.552h-17.424v-60.984h17.424v17.248c0 1.584-.088 4.253-.264 8.008h.176c.587-1.76 1.526-3.256 2.816-4.488 1.35-1.291 2.963-2.259 4.84-2.904 1.936-.704 4.166-1.056 6.688-1.056 3.931 0 7.304.851 10.12 2.552 2.816 1.643 4.958 4.077 6.424 7.304 1.526 3.168 2.288 7.069 2.288 11.704 0 5.045-.792 9.328-2.376 12.848-1.525 3.461-3.725 6.072-6.6 7.832-2.816 1.76-6.13 2.64-9.944 2.64Zm-5.808-12.408c1.584 0 2.904-.381 3.96-1.144 1.056-.821 1.878-1.995 2.464-3.52.587-1.525.88-3.432.88-5.72 0-2.053-.293-3.784-.88-5.192-.528-1.467-1.349-2.581-2.464-3.344-1.114-.763-2.434-1.144-3.96-1.144-1.76 0-3.256.381-4.488 1.144-1.232.704-2.2 1.789-2.904 3.256-.645 1.408-.968 3.139-.968 5.192v2.288c.059 1.76.411 3.256 1.056 4.488a7.061 7.061 0 0 0 2.904 2.816c1.291.587 2.758.88 4.4.88Zm-494.913 84.408c-4.048 0-7.539-.909-10.472-2.728-2.875-1.877-5.075-4.517-6.6-7.92-1.525-3.403-2.288-7.451-2.288-12.144 0-4.459.821-8.36 2.464-11.704 1.643-3.344 3.96-5.896 6.952-7.656 2.992-1.819 6.483-2.728 10.472-2.728 2.347 0 4.371.264 6.072.792 1.701.528 3.139 1.261 4.312 2.2 1.173.939 2.083 2.053 2.728 3.344h.088v-23.144h17.424V258h-17.424c.235-3.051.411-6.072.528-9.064h-.176c-.645 1.936-1.555 3.637-2.728 5.104-1.173 1.408-2.728 2.552-4.664 3.432-1.877.821-4.107 1.232-6.688 1.232Zm5.544-12.408c1.643 0 3.08-.352 4.312-1.056 1.232-.763 2.171-1.848 2.816-3.256.704-1.467 1.056-3.227 1.056-5.28v-2.552c0-1.525-.352-2.875-1.056-4.048a6.524 6.524 0 0 0-2.816-2.816c-1.173-.704-2.552-1.056-4.136-1.056s-2.963.411-4.136 1.232c-1.173.763-2.083 1.877-2.728 3.344-.587 1.408-.88 3.168-.88 5.28s.293 3.931.88 5.456c.645 1.525 1.525 2.699 2.64 3.52 1.173.821 2.523 1.232 4.048 1.232Zm51.818 12.408c-5.456 0-10.032-.909-13.728-2.728-3.638-1.877-6.336-4.429-8.096-7.656-1.76-3.285-2.64-7.157-2.64-11.616 0-4.928.997-9.093 2.992-12.496 1.994-3.461 4.81-6.043 8.448-7.744 3.696-1.76 8.096-2.64 13.2-2.64 4.634 0 8.594.792 11.88 2.376 3.344 1.525 5.896 3.843 7.656 6.952 1.76 3.109 2.64 6.952 2.64 11.528v4.048h-40.744l.44-7.128h25.432v-1.144c0-1.349-.264-2.464-.792-3.344-.528-.88-1.291-1.525-2.288-1.936-.998-.469-2.2-.704-3.608-.704-1.878 0-3.403.381-4.576 1.144-1.115.763-1.936 2.024-2.464 3.784-.528 1.76-.792 4.195-.792 7.304 0 2.581.264 4.664.792 6.248.586 1.525 1.437 2.64 2.552 3.344 1.173.704 2.669 1.056 4.488 1.056 1.349 0 2.493-.176 3.432-.528.997-.352 1.76-.909 2.288-1.672.528-.821.85-1.848.968-3.08h14.872c-.059 3.461-.939 6.424-2.64 8.888-1.702 2.464-4.224 4.371-7.568 5.72-3.344 1.349-7.392 2.024-12.144 2.024Zm45.769 0c-5.456 0-9.885-.645-13.288-1.936-3.344-1.349-5.749-3.168-7.216-5.456-1.408-2.288-2.112-4.928-2.112-7.92h14.784c0 1.232.235 2.288.704 3.168.469.821 1.232 1.467 2.288 1.936 1.056.411 2.493.616 4.312.616 1.643 0 2.963-.176 3.96-.528.997-.352 1.731-.851 2.2-1.496.469-.645.704-1.408.704-2.288 0-.939-.323-1.643-.968-2.112-.587-.528-1.701-.909-3.344-1.144-1.584-.293-4.195-.587-7.832-.88-3.696-.293-6.747-.821-9.152-1.584-2.405-.763-4.283-1.936-5.632-3.52-1.349-1.643-2.024-3.872-2.024-6.688 0-3.109.939-5.779 2.816-8.008 1.877-2.288 4.547-4.019 8.008-5.192 3.461-1.232 7.421-1.848 11.88-1.848 5.163 0 9.357.616 12.584 1.848 3.285 1.173 5.661 2.904 7.128 5.192 1.467 2.288 2.2 5.133 2.2 8.536h-14.696c0-1.349-.235-2.464-.704-3.344-.411-.88-1.085-1.525-2.024-1.936-.939-.469-2.171-.704-3.696-.704-1.467 0-2.669.176-3.608.528-.939.352-1.643.851-2.112 1.496-.411.645-.616 1.408-.616 2.288 0 1.056.264 1.848.792 2.376.587.528 1.643.939 3.168 1.232 1.584.293 4.165.587 7.744.88 3.755.293 6.864.821 9.328 1.584 2.523.704 4.517 1.848 5.984 3.432 1.467 1.584 2.2 3.784 2.2 6.6 0 3.051-.821 5.691-2.464 7.92-1.584 2.171-4.136 3.872-7.656 5.104-3.52 1.232-8.067 1.848-13.64 1.848Zm25.625-44.176h17.424V258H506.47v-43.472Zm0-15.84h17.512v11.88H506.47v-11.88Zm42.729 46.2c-4.752 0-8.8-.616-12.144-1.848-3.285-1.232-5.778-2.992-7.48-5.28-1.642-2.347-2.464-5.133-2.464-8.36 0-3.168.822-5.925 2.464-8.272 1.702-2.347 4.195-4.136 7.48-5.368 3.344-1.291 7.392-1.936 12.144-1.936s8.771.616 12.056 1.848c3.344 1.232 5.838 3.021 7.48 5.368 1.702 2.347 2.552 5.133 2.552 8.36 0 3.168-.85 5.925-2.552 8.272-1.642 2.288-4.106 4.077-7.392 5.368-3.285 1.232-7.333 1.848-12.144 1.848Zm0-9.152c1.174 0 2.2-.235 3.08-.704a4.702 4.702 0 0 0 1.936-2.2c.47-.939.704-2.083.704-3.432 0-1.408-.234-2.581-.704-3.52-.41-.939-1.056-1.643-1.936-2.112-.821-.469-1.848-.704-3.08-.704-1.173 0-2.2.235-3.08.704-.88.469-1.554 1.173-2.024 2.112-.41.939-.616 2.112-.616 3.52 0 1.349.206 2.493.616 3.432a5.245 5.245 0 0 0 2.024 2.2c.88.469 1.907.704 3.08.704Zm2.024 41.184c-5.808 0-10.618-.469-14.432-1.408-3.813-.88-6.658-2.141-8.536-3.784-1.818-1.643-2.728-3.579-2.728-5.808 0-2.053.646-3.725 1.936-5.016 1.291-1.232 3.139-1.965 5.544-2.2v-.88l13.816 3.52c-1.29 0-2.317.264-3.08.792-.762.587-1.144 1.379-1.144 2.376 0 1.291.734 2.259 2.2 2.904 1.467.704 3.55 1.056 6.248 1.056 2.699 0 4.723-.352 6.072-1.056 1.408-.704 2.112-1.731 2.112-3.08 0-.997-.44-1.76-1.32-2.288-.88-.469-2.288-.704-4.224-.704h-7.48c-4.282-.059-7.744-.587-10.384-1.584-2.581-.939-4.429-2.171-5.544-3.696-1.114-1.525-1.672-3.227-1.672-5.104 0-2.171.558-3.989 1.672-5.456 1.115-1.525 2.758-2.581 4.928-3.168v-.44l7.48 2.288c0 .059-.029.117-.088.176l-.088.176a5.897 5.897 0 0 0-.352.968 3.331 3.331 0 0 0-.176 1.056c0 .528.118.997.352 1.408.294.352.675.645 1.144.88a5.544 5.544 0 0 0 1.76.264h14.344c3.755 0 6.894.499 9.416 1.496 2.523.939 4.4 2.317 5.632 4.136 1.232 1.76 1.848 3.872 1.848 6.336 0 4.987-2.141 8.859-6.424 11.616-4.282 2.816-10.56 4.224-18.832 4.224Zm10.912-60.192.264-.704c-.938-.645-1.672-1.379-2.2-2.2-.469-.88-.704-1.789-.704-2.728 0-1.76.851-3.139 2.552-4.136 1.702-1.056 4.224-1.584 7.568-1.584 2.171 0 3.902.117 5.192.352V216.2a8.067 8.067 0 0 0-1.144-.088 7.538 7.538 0 0 0-1.232-.088c-1.29 0-2.258.235-2.904.704-.645.469-.968 1.173-.968 2.112 0 .411.059.88.176 1.408.176.528.352 1.085.528 1.672a.667.667 0 0 1 .088.264c.059 0 .088.059.088.176l-7.304-5.632Zm15.245-2.2h17.424l-.528 11.616h.176c1.115-3.989 2.963-7.04 5.544-9.152 2.64-2.112 6.278-3.168 10.912-3.168 5.339 0 9.416 1.467 12.232 4.4 2.816 2.875 4.224 7.069 4.224 12.584V258H609.94v-22.792c0-1.525-.293-2.787-.88-3.784-.528-1.056-1.29-1.819-2.288-2.288-.997-.528-2.229-.792-3.696-.792-1.701 0-3.197.352-4.488 1.056-1.232.704-2.17 1.76-2.816 3.168-.645 1.408-.968 3.139-.968 5.192V258H577.38v-43.472Zm91.122 44.176c-4.928 0-9.152-.939-12.672-2.816-3.461-1.877-6.101-4.488-7.92-7.832-1.819-3.344-2.728-7.245-2.728-11.704 0-4.576.968-8.565 2.904-11.968 1.936-3.403 4.693-6.013 8.272-7.832 3.579-1.819 7.803-2.728 12.672-2.728 4.869 0 8.976.792 12.32 2.376 3.344 1.525 5.867 3.784 7.568 6.776 1.701 2.992 2.552 6.6 2.552 10.824h-14.96c0-1.701-.264-3.109-.792-4.224-.528-1.115-1.291-1.936-2.288-2.464-.997-.587-2.171-.88-3.52-.88-1.584 0-2.933.381-4.048 1.144-1.056.704-1.877 1.819-2.464 3.344-.528 1.467-.792 3.315-.792 5.544 0 2.229.264 4.107.792 5.632.587 1.467 1.408 2.581 2.464 3.344 1.056.704 2.317 1.056 3.784 1.056 1.408 0 2.611-.264 3.608-.792a6.227 6.227 0 0 0 2.464-2.464c.587-1.115.88-2.493.88-4.136h14.872c0 4.283-.88 7.891-2.64 10.824-1.701 2.933-4.283 5.163-7.744 6.688-3.403 1.525-7.597 2.288-12.584 2.288Zm24.66-44.176h17.424l-.528 12.144h.176c.645-2.699 1.525-4.987 2.64-6.864 1.173-1.877 2.698-3.344 4.576-4.4 1.936-1.056 4.282-1.584 7.04-1.584 3.05 0 5.573.645 7.568 1.936 1.994 1.232 3.49 3.139 4.488 5.72.997 2.523 1.496 5.749 1.496 9.68 0 2.581-.147 5.925-.44 10.032h-14.96c.117-2.053.176-3.96.176-5.72 0-2.405-.44-4.165-1.32-5.28-.88-1.173-2.142-1.76-3.784-1.76-1.467 0-2.758.411-3.872 1.232-1.056.821-1.878 2.083-2.464 3.784-.528 1.701-.792 3.813-.792 6.336V258h-17.424v-43.472Zm45.886 31.504c0-2.347.557-4.4 1.672-6.16 1.114-1.819 2.816-3.227 5.104-4.224 2.288-.997 5.192-1.496 8.712-1.496h13.904v-3.168c0-1.349-.235-2.435-.704-3.256-.47-.88-1.203-1.525-2.2-1.936-.939-.411-2.2-.616-3.784-.616-1.936 0-3.432.411-4.488 1.232-.998.821-1.496 1.995-1.496 3.52.058.528.088 1.115.088 1.76h-15.224a16.696 16.696 0 0 1-.264-2.904c0-3.109.821-5.779 2.464-8.008 1.642-2.229 4.106-3.931 7.392-5.104 3.344-1.232 7.48-1.848 12.408-1.848 5.162 0 9.474.733 12.936 2.2 3.461 1.467 6.042 3.608 7.744 6.424 1.701 2.757 2.552 6.072 2.552 9.944V258H768.44c.176-1.467.293-2.875.352-4.224.117-1.349.176-2.699.176-4.048h-.088c-.411 1.877-1.203 3.491-2.376 4.84-1.174 1.291-2.699 2.317-4.576 3.08-1.878.704-4.136 1.056-6.776 1.056-3.462 0-6.424-.528-8.888-1.584-2.406-1.056-4.224-2.523-5.456-4.4-1.174-1.936-1.76-4.165-1.76-6.688Zm21.472 2.816c1.642 0 3.05-.235 4.224-.704 1.173-.528 2.082-1.291 2.728-2.288.645-.997.968-2.171.968-3.52v-1.144h-8.976c-.939 0-1.76.147-2.464.44-.704.293-1.232.704-1.584 1.232-.352.528-.528 1.144-.528 1.848 0 1.291.498 2.317 1.496 3.08.997.704 2.376 1.056 4.136 1.056Zm31.232-21.208h-5.984v-13.112h5.984v-3.784c0-3.403.763-6.277 2.288-8.624 1.584-2.347 3.784-4.107 6.6-5.28 2.875-1.173 6.219-1.76 10.032-1.76 2.171 0 4.224.176 6.16.528 1.936.293 3.403.616 4.4.968v11.792c-.88-.235-1.848-.44-2.904-.616-1.056-.176-2.229-.264-3.52-.264-1.877 0-3.285.411-4.224 1.232-.938.763-1.408 1.907-1.408 3.432v2.376h12.76v13.112h-12.76V258h-17.424v-30.36Zm55.384 31.064c-7.04 0-12.085-1.379-15.136-4.136-3.05-2.757-4.576-6.717-4.576-11.88V227.64h-5.984v-13.112h4.752c1.232 0 2.112-.323 2.64-.968.587-.645.939-1.76 1.056-3.344l.616-5.544h14.344v9.856h12.848v13.112h-12.848v13.376c0 1.232.206 2.2.616 2.904.411.645 1.086 1.115 2.024 1.408.939.293 2.259.44 3.96.44 1.056 0 2.083-.059 3.08-.176a50.344 50.344 0 0 0 2.64-.352v12.496c-.938.235-2.317.44-4.136.616-1.818.235-3.784.352-5.896.352Z"/><path fill="#092E24" d="M452.586 316v-15.516h-6.34v-2.097h15.106v2.097h-6.34V316h-2.426Zm12.117-14.836a1.565 1.565 0 0 1-1.558-1.559c0-.855.703-1.558 1.558-1.558.856 0 1.559.703 1.559 1.558 0 .856-.703 1.559-1.559 1.559ZM463.578 316v-12.234h2.25V316h-2.25Zm8.438-.926v6.305h-2.25v-17.613h1.851l.141 1.945.047.012c.902-1.524 2.437-2.297 4.347-2.297 3.61 0 5.309 2.777 5.309 6.304 0 3.481-1.664 6.61-5.649 6.61-1.558 0-2.847-.481-3.75-1.278l-.046.012Zm0-2.367c.75.961 1.863 1.887 3.632 1.887 2.649 0 3.516-2.063 3.516-4.629 0-2.403-.762-4.793-3.457-4.793-2.297 0-3.691 1.723-3.691 3.984v3.551Zm11.812-.047c0-.246.024-.551.094-.808l2.062-.293a5.306 5.306 0 0 0-.035.586c0 1.933 1.571 2.449 3.422 2.449 1.242 0 3.117-.235 3.117-1.957 0-1.301-1.054-1.524-3.269-1.922-2.824-.516-5.028-.938-5.028-3.539 0-3 2.942-3.75 5.157-3.75 2.027 0 5.086.633 5.086 3.375 0 .258-.024.504-.071.726l-2.074.282a3.27 3.27 0 0 0 .035-.481c0-1.664-1.512-2.156-3.047-2.156-1.265 0-2.789.34-2.789 1.816 0 1.196.985 1.477 3.129 1.852 2.567.457 5.168.785 5.168 3.633 0 3.047-2.988 3.867-5.555 3.867-2.414 0-5.402-.727-5.402-3.68Zm19.512.094c0-3.129 3.117-3.867 5.707-3.867.973 0 2.004.105 2.965.258v-.926c0-1.711-.469-3.047-3.117-3.047-1.395 0-2.672.375-2.672 1.851 0 .223.023.481.093.704l-2.168.105a3.274 3.274 0 0 1-.175-1.09c0-2.297 2.179-3.316 5.121-3.316 3.761 0 5.168 1.676 5.168 4.605v5.625c0 .586.176.867.726.867.27 0 .657-.07.938-.152l.164 1.652a4 4 0 0 1-1.617.317c-1.02 0-2.274-.328-2.438-2.156l-.047-.012c-.75 1.195-2.203 2.168-4.371 2.168-2.285 0-4.277-1.078-4.277-3.586Zm2.297-.117c0 1.418.972 1.957 2.367 1.957 2.32 0 3.902-1.489 4.008-3.821a15.045 15.045 0 0 0-2.907-.293c-2.039 0-3.468.446-3.468 2.157ZM518.398 316v-12.234h1.852l.117 2.015.035.012c.938-1.699 2.532-2.367 4.325-2.367 2.695 0 4.523 1.5 4.523 4.371V316H527v-7.887c0-1.617-.809-2.941-2.707-2.941-2.32 0-3.645 1.969-3.645 4.16V316h-2.25Zm14.063-5.918c0-3.516 1.699-6.656 5.672-6.656 1.523 0 2.801.457 3.75 1.324l.047-.023v-6.34h2.25V316h-1.864l-.128-1.91-.047-.012c-.903 1.488-2.473 2.262-4.383 2.262-3.621 0-5.297-2.778-5.297-6.258Zm2.297-.199c0 2.133.621 4.711 3.469 4.711 2.367 0 3.703-1.77 3.703-4.125v-3.34c-.75-1.031-1.875-1.957-3.621-1.957-2.661 0-3.551 2.156-3.551 4.711Zm20.191 2.754v-7.184h-1.887v-1.687h1.887v-2.977l2.25-.269v3.246h3.973v1.687h-3.973v6.891c0 1.265.129 2.25 1.735 2.25.832 0 1.734-.27 2.472-.539l.188 1.746c-.703.281-1.899.539-3.071.539-2.543 0-3.574-1.207-3.574-3.703Zm8.918-.692v-8.179h2.25v7.886c0 1.828.844 2.942 2.731 2.942 2.472 0 3.621-1.922 3.621-4.371v-6.457h2.25V316h-1.852l-.117-1.887-.047-.011c-1.043 1.699-2.648 2.238-4.324 2.238-2.836 0-4.512-1.535-4.512-4.395Zm15.363.692v-7.184h-1.886v-1.687h1.886v-2.977l2.25-.269v3.246h3.973v1.687h-3.973v6.891c0 1.265.129 2.25 1.735 2.25.832 0 1.734-.27 2.473-.539l.187 1.746c-.703.281-1.898.539-3.07.539-2.543 0-3.575-1.207-3.575-3.703Zm8.051-2.649c0-3.832 1.957-6.562 6.211-6.562 3.926 0 6.082 2.332 6.082 6.351 0 3.832-1.957 6.563-6.211 6.563-3.925 0-6.082-2.332-6.082-6.352Zm2.297-.211c0 2.649.996 4.817 3.926 4.817 2.836 0 3.773-2.039 3.773-4.606 0-2.648-.996-4.816-3.925-4.816-2.836 0-3.774 2.039-3.774 4.605ZM602.797 316v-12.234h1.851l.141 2.027h.047c.855-1.57 2.004-2.367 3.562-2.367.633 0 1.383.129 2.004.469l-.363 2.191c-.598-.398-1.301-.645-2.016-.645-2.378 0-2.976 2.637-2.976 4.454V316h-2.25Zm11.25-14.836a1.565 1.565 0 0 1-1.559-1.559c0-.855.703-1.558 1.559-1.558.855 0 1.558.703 1.558 1.558 0 .856-.703 1.559-1.558 1.559ZM612.922 316v-12.234h2.25V316h-2.25Zm5.379-3.246c0-3.129 3.117-3.867 5.707-3.867.972 0 2.004.105 2.965.258v-.926c0-1.711-.469-3.047-3.118-3.047-1.394 0-2.671.375-2.671 1.851 0 .223.023.481.093.704l-2.168.105a3.274 3.274 0 0 1-.175-1.09c0-2.297 2.179-3.316 5.121-3.316 3.761 0 5.168 1.676 5.168 4.605v5.625c0 .586.175.867.726.867.27 0 .656-.07.938-.152l.164 1.652a4 4 0 0 1-1.617.317c-1.02 0-2.274-.328-2.438-2.156l-.047-.012c-.75 1.195-2.203 2.168-4.371 2.168-2.285 0-4.277-1.078-4.277-3.586Zm2.297-.117c0 1.418.972 1.957 2.367 1.957 2.32 0 3.902-1.489 4.008-3.821a15.045 15.045 0 0 0-2.907-.293c-2.039 0-3.468.446-3.468 2.157ZM633.359 316v-17.613h2.25V316h-2.25Zm5.297-3.34c0-.246.024-.551.094-.808l2.062-.293a5.306 5.306 0 0 0-.035.586c0 1.933 1.571 2.449 3.422 2.449 1.242 0 3.117-.235 3.117-1.957 0-1.301-1.054-1.524-3.269-1.922-2.824-.516-5.027-.938-5.027-3.539 0-3 2.941-3.75 5.156-3.75 2.027 0 5.086.633 5.086 3.375 0 .258-.024.504-.071.726l-2.074.282c.024-.153.035-.317.035-.481 0-1.664-1.511-2.156-3.047-2.156-1.265 0-2.789.34-2.789 1.816 0 1.196.985 1.477 3.129 1.852 2.567.457 5.168.785 5.168 3.633 0 3.047-2.988 3.867-5.554 3.867-2.414 0-5.403-.727-5.403-3.68Zm19.512.094c0-3.129 3.117-3.867 5.707-3.867.973 0 2.004.105 2.965.258v-.926c0-1.711-.469-3.047-3.117-3.047-1.395 0-2.672.375-2.672 1.851 0 .223.023.481.094.704l-2.168.105a3.25 3.25 0 0 1-.176-1.09c0-2.297 2.179-3.316 5.121-3.316 3.762 0 5.168 1.676 5.168 4.605v5.625c0 .586.176.867.726.867.27 0 .657-.07.938-.152l.164 1.652a4 4 0 0 1-1.617.317c-1.02 0-2.274-.328-2.438-2.156l-.047-.012c-.75 1.195-2.203 2.168-4.371 2.168-2.285 0-4.277-1.078-4.277-3.586Zm2.297-.117c0 1.418.973 1.957 2.367 1.957 2.32 0 3.902-1.489 4.008-3.821a15.034 15.034 0 0 0-2.906-.293c-2.039 0-3.469.446-3.469 2.157ZM673.227 316v-17.613h2.25v6.949l.046.012c.95-1.278 2.332-1.922 4.09-1.922 3.645 0 5.309 2.777 5.309 6.304 0 3.458-1.606 6.61-5.66 6.61-1.758 0-3.211-.586-4.324-1.852l-.036.012-.468 1.5h-1.207Zm2.25-3.316c.738.972 1.875 1.91 3.644 1.91 2.707 0 3.504-2.18 3.504-4.676 0-2.813-1.008-4.746-3.445-4.746-2.203 0-3.703 1.582-3.703 3.984v3.528Zm12-2.696c0-3.832 1.957-6.562 6.211-6.562 3.925 0 6.082 2.332 6.082 6.351 0 3.832-1.958 6.563-6.211 6.563-3.926 0-6.082-2.332-6.082-6.352Zm2.296-.211c0 2.649.997 4.817 3.926 4.817 2.836 0 3.774-2.039 3.774-4.606 0-2.648-.996-4.816-3.926-4.816-2.836 0-3.774 2.039-3.774 4.605Zm13.172 2.168v-8.179h2.25v7.886c0 1.828.844 2.942 2.731 2.942 2.472 0 3.621-1.922 3.621-4.371v-6.457h2.25V316h-1.852l-.117-1.887-.047-.011c-1.043 1.699-2.648 2.238-4.324 2.238-2.836 0-4.512-1.535-4.512-4.395Zm15.364.692v-7.184h-1.887v-1.687h1.887v-2.977l2.25-.269v3.246h3.972v1.687h-3.972v6.891c0 1.265.129 2.25 1.734 2.25.832 0 1.734-.27 2.473-.539l.187 1.746c-.703.281-1.898.539-3.07.539-2.543 0-3.574-1.207-3.574-3.703Zm15.82 0v-7.184h-1.887v-1.687h1.887v-2.977l2.25-.269v3.246h3.973v1.687h-3.973v6.891c0 1.265.129 2.25 1.734 2.25.832 0 1.735-.27 2.473-.539l.187 1.746c-.703.281-1.898.539-3.07.539-2.543 0-3.574-1.207-3.574-3.703Zm8.965 3.363v-17.613h2.25v6.937l.047.012c.902-1.313 2.32-1.91 4.019-1.91 2.707 0 4.535 1.5 4.535 4.371V316h-2.25v-7.887c0-1.617-.808-2.941-2.707-2.941-2.32 0-3.644 1.969-3.644 4.16V316h-2.25Zm14.039-5.977c0-3.75 1.887-6.597 6-6.597 3.187 0 5.215 1.699 5.215 5.086a11.1 11.1 0 0 1-.176 1.875h-8.742c.117 2.461 1.3 4.207 3.925 4.207 1.723 0 2.954-.75 3.118-2.52l1.957.469c-.153 2.73-2.532 3.797-5.215 3.797-4.113 0-6.082-2.485-6.082-6.317Zm2.344-1.324h6.597c.024-.187.035-.375.035-.562 0-1.711-.984-2.965-3.047-2.965-2.238 0-3.328 1.476-3.585 3.527Zm-350.004 37.383c0-3.516 1.699-6.656 5.672-6.656 1.523 0 2.8.457 3.75 1.324l.046-.023v-6.34h2.25V352h-1.863l-.129-1.91-.047-.012c-.902 1.488-2.472 2.262-4.382 2.262-3.622 0-5.297-2.778-5.297-6.258Zm2.297-.199c0 2.133.621 4.711 3.468 4.711 2.367 0 3.703-1.77 3.703-4.125v-3.34c-.75-1.031-1.875-1.957-3.621-1.957-2.66 0-3.55 2.156-3.55 4.711Zm12.632.14c0-3.75 1.887-6.597 6-6.597 3.188 0 5.215 1.699 5.215 5.086 0 .633-.07 1.265-.176 1.875h-8.742c.117 2.461 1.301 4.207 3.926 4.207 1.723 0 2.953-.75 3.117-2.52l1.957.469c-.152 2.73-2.531 3.797-5.215 3.797-4.113 0-6.082-2.485-6.082-6.317Zm2.344-1.324h6.598c.023-.187.035-.375.035-.562 0-1.711-.984-2.965-3.047-2.965-2.238 0-3.328 1.476-3.586 3.527Zm11.602 3.961c0-.246.023-.551.093-.808l2.063-.293a5.072 5.072 0 0 0-.035.586c0 1.933 1.57 2.449 3.422 2.449 1.242 0 3.117-.235 3.117-1.957 0-1.301-1.055-1.524-3.27-1.922-2.824-.516-5.027-.938-5.027-3.539 0-3 2.941-3.75 5.156-3.75 2.028 0 5.086.633 5.086 3.375 0 .258-.023.504-.07.726l-2.074.282a3.27 3.27 0 0 0 .035-.481c0-1.664-1.512-2.156-3.047-2.156-1.266 0-2.789.34-2.789 1.816 0 1.196.984 1.477 3.129 1.852 2.566.457 5.168.785 5.168 3.633 0 3.047-2.989 3.867-5.555 3.867-2.414 0-5.402-.727-5.402-3.68Zm15.164-11.496a1.565 1.565 0 0 1-1.559-1.559c0-.855.703-1.558 1.559-1.558.855 0 1.558.703 1.558 1.558 0 .856-.703 1.559-1.558 1.559ZM452.387 352v-12.234h2.25V352h-2.25Zm5.133 2.355c0-1.183.714-2.238 1.792-2.882l.012-.047c-.679-.41-1.148-1.09-1.148-1.887 0-1.16.949-1.969 1.687-2.273l.012-.047c-1.125-.832-1.57-2.004-1.57-3.293 0-3 2.414-4.5 5.367-4.5.984 0 1.933.164 2.66.457l.023-.024c.024-1.687.704-3 2.532-3 .621 0 1.207.153 1.687.364l-.269 1.957c-.422-.258-.938-.422-1.383-.422-.938 0-1.324.726-1.488 1.758 1.019.773 1.535 1.875 1.535 3.269 0 3.211-2.707 4.5-5.367 4.5-.809 0-1.7-.14-2.403-.375-.668.293-.855.727-.855 1.067 0 .339.199.691.726.902.645.258 1.582.269 3.106.269 2.039 0 3.422.118 4.406.727.844.527 1.395 1.406 1.395 2.672 0 3.269-3.657 4.172-6.411 4.172-2.121 0-6.046-.539-6.046-3.364Zm6.199-7.781c1.922 0 3.047-.715 3.047-2.66 0-1.945-1.137-2.777-3.211-2.777-1.922 0-3.047.715-3.047 2.66 0 1.945 1.137 2.777 3.211 2.777Zm-3.949 7.242c0 1.875 2.425 2.133 3.925 2.133 1.313 0 4.032-.187 4.032-2.144 0-1.629-1.899-1.653-3.539-1.664-2.086-.012-2.485-.036-3.387-.188-.703.469-1.031 1.16-1.031 1.863ZM472.637 352v-12.234h1.851l.117 2.015.036.012c.937-1.699 2.531-2.367 4.324-2.367 2.695 0 4.523 1.5 4.523 4.371V352h-2.25v-7.887c0-1.617-.808-2.941-2.707-2.941-2.32 0-3.644 1.969-3.644 4.16V352h-2.25Zm20.215-3.246c0-3.129 3.117-3.867 5.707-3.867.972 0 2.003.105 2.964.258v-.926c0-1.711-.468-3.047-3.117-3.047-1.394 0-2.672.375-2.672 1.851 0 .223.024.481.094.704l-2.168.105a3.274 3.274 0 0 1-.176-1.09c0-2.297 2.18-3.316 5.121-3.316 3.762 0 5.168 1.676 5.168 4.605v5.625c0 .586.176.867.727.867.27 0 .656-.07.938-.152l.164 1.652a4.001 4.001 0 0 1-1.618.317c-1.019 0-2.273-.328-2.437-2.156l-.047-.012c-.75 1.195-2.203 2.168-4.371 2.168-2.285 0-4.277-1.078-4.277-3.586Zm2.296-.117c0 1.418.973 1.957 2.368 1.957 2.32 0 3.902-1.489 4.007-3.821a15.026 15.026 0 0 0-2.906-.293c-2.039 0-3.469.446-3.469 2.157ZM507.91 352v-12.234h1.852l.117 2.015.035.012c.938-1.699 2.531-2.367 4.324-2.367 2.696 0 4.524 1.5 4.524 4.371V352h-2.25v-7.887c0-1.617-.809-2.941-2.707-2.941-2.321 0-3.645 1.969-3.645 4.16V352h-2.25Zm14.063-5.918c0-3.516 1.699-6.656 5.672-6.656 1.523 0 2.8.457 3.75 1.324l.046-.023v-6.34h2.25V352h-1.863l-.129-1.91-.047-.012c-.902 1.488-2.472 2.262-4.382 2.262-3.622 0-5.297-2.778-5.297-6.258Zm2.297-.199c0 2.133.621 4.711 3.468 4.711 2.367 0 3.703-1.77 3.703-4.125v-3.34c-.75-1.031-1.875-1.957-3.621-1.957-2.66 0-3.55 2.156-3.55 4.711ZM543.887 352v-17.613h2.25v6.949l.047.012c.949-1.278 2.332-1.922 4.089-1.922 3.645 0 5.309 2.777 5.309 6.304 0 3.458-1.605 6.61-5.66 6.61-1.758 0-3.211-.586-4.324-1.852l-.036.012-.468 1.5h-1.207Zm2.25-3.316c.738.972 1.875 1.91 3.644 1.91 2.707 0 3.504-2.18 3.504-4.676 0-2.813-1.008-4.746-3.445-4.746-2.203 0-3.703 1.582-3.703 3.984v3.528Zm12.679-.739v-8.179h2.25v7.886c0 1.828.844 2.942 2.731 2.942 2.473 0 3.621-1.922 3.621-4.371v-6.457h2.25V352h-1.852l-.117-1.887-.047-.011c-1.043 1.699-2.648 2.238-4.324 2.238-2.836 0-4.512-1.535-4.512-4.395Zm15.914-10.781a1.565 1.565 0 0 1-1.558-1.559c0-.855.703-1.558 1.558-1.558.856 0 1.559.703 1.559 1.558 0 .856-.703 1.559-1.559 1.559ZM573.605 352v-12.234h2.25V352h-2.25Zm6.188 0v-17.613h2.25V352h-2.25Zm5.508-5.918c0-3.516 1.699-6.656 5.672-6.656 1.523 0 2.8.457 3.75 1.324l.047-.023v-6.34h2.25V352h-1.864l-.129-1.91-.047-.012c-.902 1.488-2.472 2.262-4.382 2.262-3.621 0-5.297-2.778-5.297-6.258Zm2.297-.199c0 2.133.621 4.711 3.468 4.711 2.368 0 3.704-1.77 3.704-4.125v-3.34c-.75-1.031-1.875-1.957-3.622-1.957-2.66 0-3.55 2.156-3.55 4.711Zm18.89.105c0-3.832 1.957-6.562 6.211-6.562 3.926 0 6.082 2.332 6.082 6.351 0 3.832-1.957 6.563-6.211 6.563-3.925 0-6.082-2.332-6.082-6.352Zm2.297-.211c0 2.649.996 4.817 3.926 4.817 2.836 0 3.773-2.039 3.773-4.606 0-2.648-.996-4.816-3.925-4.816-2.836 0-3.774 2.039-3.774 4.605Zm13.77 6.223v-10.547h-1.887v-1.687h1.887v-1.348c0-2.613 1.218-4.371 4.148-4.371.75 0 1.5.117 2.098.316l-.176 1.723c-.609-.176-1.207-.293-1.793-.293-1.746 0-2.027 1.043-2.027 2.602v1.371h3.422v1.687h-3.422V352h-2.25Zm16.816 0-3.996-12.234h2.379l1.922 6.398c.363 1.219.703 2.367 1.136 3.949h.047c.399-1.57.715-2.73 1.067-4.008l1.769-6.339h1.946l1.769 6.339a171.4 171.4 0 0 1 1.067 4.008h.046c.411-1.488.774-2.742 1.137-3.949l1.922-6.398h2.285L649.871 352h-2.812l-1.383-4.957c-.434-1.559-.75-2.789-1.02-3.867h-.047c-.269 1.078-.621 2.39-1.043 3.914l-1.371 4.91h-2.824Zm16.008-5.977c0-3.75 1.887-6.597 6-6.597 3.187 0 5.215 1.699 5.215 5.086a11.1 11.1 0 0 1-.176 1.875h-8.742c.117 2.461 1.301 4.207 3.926 4.207 1.722 0 2.953-.75 3.117-2.52l1.957.469c-.153 2.73-2.531 3.797-5.215 3.797-4.113 0-6.082-2.485-6.082-6.317Zm2.344-1.324h6.597c.024-.187.035-.375.035-.562 0-1.711-.984-2.965-3.046-2.965-2.239 0-3.329 1.476-3.586 3.527ZM670.215 352v-17.613h2.25v6.949l.047.012c.949-1.278 2.332-1.922 4.09-1.922 3.644 0 5.308 2.777 5.308 6.304 0 3.458-1.605 6.61-5.66 6.61-1.758 0-3.211-.586-4.324-1.852l-.035.012-.469 1.5h-1.207Zm2.25-3.316c.738.972 1.875 1.91 3.644 1.91 2.707 0 3.504-2.18 3.504-4.676 0-2.813-1.008-4.746-3.445-4.746-2.203 0-3.703 1.582-3.703 3.984v3.528Zm20.133-11.52a1.565 1.565 0 0 1-1.559-1.559c0-.855.703-1.558 1.559-1.558.855 0 1.558.703 1.558 1.558 0 .856-.703 1.559-1.558 1.559ZM691.473 352v-12.234h2.25V352h-2.25Zm6.187 0v-12.234h1.852l.117 2.015.035.012c.938-1.699 2.531-2.367 4.324-2.367 2.696 0 4.524 1.5 4.524 4.371V352h-2.25v-7.887c0-1.617-.809-2.941-2.707-2.941-2.321 0-3.645 1.969-3.645 4.16V352h-2.25Zm15.199-3.363v-7.184h-1.886v-1.687h1.886v-2.977l2.25-.269v3.246h3.973v1.687h-3.973v6.891c0 1.265.129 2.25 1.735 2.25.832 0 1.734-.27 2.472-.539l.188 1.746c-.703.281-1.899.539-3.07.539-2.543 0-3.575-1.207-3.575-3.703Zm8.075-2.614c0-3.75 1.886-6.597 6-6.597 3.187 0 5.214 1.699 5.214 5.086a11.1 11.1 0 0 1-.175 1.875h-8.743c.118 2.461 1.301 4.207 3.926 4.207 1.723 0 2.953-.75 3.117-2.52l1.957.469c-.152 2.73-2.531 3.797-5.214 3.797-4.114 0-6.082-2.485-6.082-6.317Zm2.343-1.324h6.598c.023-.187.035-.375.035-.562 0-1.711-.984-2.965-3.047-2.965-2.238 0-3.328 1.476-3.586 3.527ZM735.77 352v-12.234h1.851l.141 2.027h.047c.855-1.57 2.003-2.367 3.562-2.367.633 0 1.383.129 2.004.469l-.363 2.191c-.598-.398-1.301-.645-2.016-.645-2.379 0-2.976 2.637-2.976 4.454V352h-2.25Zm10.98 0v-10.547h-1.887v-1.687h1.887v-1.348c0-2.613 1.219-4.371 4.148-4.371.75 0 1.5.117 2.098.316l-.176 1.723c-.609-.176-1.207-.293-1.793-.293-1.746 0-2.027 1.043-2.027 2.602v1.371h3.422v1.687H749V352h-2.25Zm6.961-3.246c0-3.129 3.117-3.867 5.707-3.867.973 0 2.004.105 2.965.258v-.926c0-1.711-.469-3.047-3.117-3.047-1.395 0-2.672.375-2.672 1.851 0 .223.023.481.094.704l-2.168.105a3.25 3.25 0 0 1-.176-1.09c0-2.297 2.179-3.316 5.121-3.316 3.762 0 5.168 1.676 5.168 4.605v5.625c0 .586.176.867.726.867.27 0 .657-.07.938-.152l.164 1.652a4 4 0 0 1-1.617.317c-1.02 0-2.274-.328-2.438-2.156l-.047-.012c-.75 1.195-2.203 2.168-4.371 2.168-2.285 0-4.277-1.078-4.277-3.586Zm2.297-.117c0 1.418.972 1.957 2.367 1.957 2.32 0 3.902-1.489 4.008-3.821a15.042 15.042 0 0 0-2.906-.293c-2.039 0-3.469.446-3.469 2.157Zm12.035-2.66c0-3.973 2.133-6.551 6.141-6.551 2.296 0 5.062.844 5.062 3.691 0 .375-.047.727-.117 1.008l-2.156.258c.023-.235.058-.528.058-.785 0-1.688-1.219-2.426-2.906-2.426-2.766 0-3.785 2.004-3.785 4.629 0 2.332.808 4.793 3.937 4.793 1.957 0 3.118-.961 3.176-3.012l1.981.398c.011.094.011.153.011.247 0 2.812-2.578 4.113-5.425 4.113-3.926 0-5.977-2.473-5.977-6.363Zm13.758.046c0-3.75 1.887-6.597 6-6.597 3.187 0 5.215 1.699 5.215 5.086a11.1 11.1 0 0 1-.176 1.875h-8.742c.117 2.461 1.3 4.207 3.925 4.207 1.723 0 2.954-.75 3.118-2.52l1.957.469c-.153 2.73-2.532 3.797-5.215 3.797-4.113 0-6.082-2.485-6.082-6.317Zm2.344-1.324h6.597c.024-.187.035-.375.035-.562 0-1.711-.984-2.965-3.047-2.965-2.238 0-3.328 1.476-3.585 3.527Zm11.601 3.961c0-.246.024-.551.094-.808l2.062-.293a5.306 5.306 0 0 0-.035.586c0 1.933 1.571 2.449 3.422 2.449 1.242 0 3.117-.235 3.117-1.957 0-1.301-1.054-1.524-3.269-1.922-2.825-.516-5.028-.938-5.028-3.539 0-3 2.942-3.75 5.157-3.75 2.027 0 5.086.633 5.086 3.375 0 .258-.024.504-.071.726l-2.074.282a3.27 3.27 0 0 0 .035-.481c0-1.664-1.512-2.156-3.047-2.156-1.265 0-2.789.34-2.789 1.816 0 1.196.985 1.477 3.129 1.852 2.567.457 5.168.785 5.168 3.633 0 3.047-2.988 3.867-5.555 3.867-2.414 0-5.402-.727-5.402-3.68Z" opacity=".7"/><rect width="32" height="32" x="439.5" y="384" fill="#EE7244" rx="16"/><path fill="#fff" stroke="#092E24" stroke-linecap="round" stroke-linejoin="round" stroke-miterlimit="10" stroke-width="2" d="M459.5 410h-8c0-3-4-7-4-7l8-13 8 13s-4 4-4 7Z"/><path fill="#fff" stroke="#092E24" stroke-linecap="round" stroke-linejoin="round" stroke-miterlimit="10" stroke-width="2" d="M459.5 410h-8c0-3-4-7-4-7l8-13 8 13s-4 4-4 7Z"/><path stroke="#092E24" stroke-linecap="round" stroke-linejoin="round" stroke-miterlimit="10" stroke-width="2" d="M455.5 390v12"/><circle cx="455.5" cy="402" r="1" fill="#092E24" stroke="#092E24"/><path stroke="#092E24" stroke-linecap="square" stroke-linejoin="round" stroke-miterlimit="10" stroke-width="2" d="M450.5 410h10"/><path fill="#092E24" d="M488.932 400.23v.72h-6.66c.108 1.71 1.062 2.628 2.574 2.628 1.296 0 2.178-.576 2.268-1.62h1.818c-.072 1.98-1.692 3.186-4.122 3.186-2.808 0-4.572-1.728-4.572-4.518 0-2.88 1.764-4.662 4.572-4.662 2.52 0 4.122 1.494 4.122 4.266Zm-1.818-.504v-.126c0-1.332-.828-2.07-2.286-2.07-1.386 0-2.268.72-2.502 2.196h4.788Zm2.274 5.274 3.366-4.554-3.222-4.338h2.556l2.196 3.204 2.124-3.204h2.286l-3.258 4.338 3.42 4.554H496.3l-2.304-3.33-2.214 3.33h-2.394Zm10.914 3.564v-12.456h2.016l-.036 2.07h.018c.36-1.35 1.548-2.214 3.312-2.214 2.538 0 4.14 1.746 4.14 4.428 0 2.88-1.62 4.752-4.176 4.752-1.764 0-2.916-.792-3.294-1.944h-.018c.018.594.054 1.512.054 1.872v3.492h-2.016Zm4.878-5.076c1.548 0 2.556-1.188 2.556-3.042 0-1.71-.99-2.826-2.592-2.826-1.674 0-2.79 1.134-2.826 2.916v.468c0 1.512 1.134 2.484 2.862 2.484Zm6.372 1.512v-12.474h2.016V405h-2.016Zm8.486.144c-2.826 0-4.644-1.746-4.644-4.572 0-2.844 1.818-4.608 4.644-4.608 2.844 0 4.662 1.764 4.662 4.608 0 2.826-1.818 4.572-4.662 4.572Zm0-1.656c1.638 0 2.646-1.116 2.646-2.916 0-1.818-1.008-2.952-2.646-2.952s-2.628 1.134-2.628 2.952c0 1.8.99 2.916 2.628 2.916Zm6.384 1.512v-8.892h2.016l-.072 2.556h.018c.414-1.602 1.332-2.7 3.168-2.7 1.926 0 2.988 1.26 2.988 3.474 0 .558-.054 1.278-.09 1.656h-1.836c.036-.342.072-.792.072-1.206 0-1.494-.576-2.196-1.764-2.196-1.53 0-2.484 1.296-2.484 3.42V405h-2.016Zm18.268-4.77v.72h-6.66c.108 1.71 1.062 2.628 2.574 2.628 1.296 0 2.178-.576 2.268-1.62h1.818c-.072 1.98-1.692 3.186-4.122 3.186-2.808 0-4.572-1.728-4.572-4.518 0-2.88 1.764-4.662 4.572-4.662 2.52 0 4.122 1.494 4.122 4.266Zm-1.818-.504v-.126c0-1.332-.828-2.07-2.286-2.07-1.386 0-2.268.72-2.502 2.196h4.788Zm11.644 5.418c-2.574 0-4.194-1.872-4.194-4.644 0-2.682 1.674-4.536 4.32-4.536 1.674 0 2.718.666 3.078 1.71h.018v-5.148h2.016V405h-2.016c.036-.522.054-1.296.09-2.16h-.036c-.342 1.404-1.458 2.304-3.276 2.304Zm.414-1.656c1.692 0 2.808-1.116 2.808-2.844v-.432c0-1.584-1.098-2.592-2.772-2.592-1.602 0-2.646 1.188-2.646 2.88 0 1.764 1.026 2.988 2.61 2.988Zm15.318-3.258v.72h-6.66c.108 1.71 1.062 2.628 2.574 2.628 1.296 0 2.178-.576 2.268-1.62h1.818c-.072 1.98-1.692 3.186-4.122 3.186-2.808 0-4.572-1.728-4.572-4.518 0-2.88 1.764-4.662 4.572-4.662 2.52 0 4.122 1.494 4.122 4.266Zm-1.818-.504v-.126c0-1.332-.828-2.07-2.286-2.07-1.386 0-2.268.72-2.502 2.196h4.788Zm7.46 5.418c-3.06 0-4.158-1.368-4.158-3.114h1.818c0 1.026.594 1.656 2.322 1.656 1.638 0 2.358-.504 2.358-1.314 0-.342-.126-.648-.594-.81-.432-.162-1.278-.252-2.268-.342-1.386-.126-2.322-.306-2.862-.702-.486-.36-.774-1.008-.774-1.692 0-1.782 1.728-2.862 4.14-2.862 2.772 0 3.996 1.152 3.996 3.168h-1.818c-.018-1.152-.648-1.71-2.124-1.71-1.404 0-2.196.504-2.196 1.26 0 .378.09.738.612.918.432.144 1.278.234 2.358.342 1.26.126 1.98.252 2.61.612.594.324.936 1.008.936 1.728 0 1.8-1.512 2.862-4.356 2.862Zm6.151-10.08v-1.98h2.07v1.98h-2.07Zm.018 9.936v-8.892h2.016V405h-2.016Zm10.303-1.404c1.908 0 3.006.828 3.006 2.25 0 1.872-1.746 2.988-4.68 2.988-3.006 0-4.806-.918-4.806-2.52 0-.9.666-1.566 1.728-1.62v-.018c-.504-.342-.774-.828-.774-1.458 0-.756.342-1.278.828-1.512v-.036c-.882-.54-1.368-1.422-1.368-2.538 0-1.944 1.512-3.168 3.96-3.168 1.008 0 1.836.198 2.484.576l.018-.018c-.27-.288-.432-.63-.432-1.008 0-.72.684-1.17 1.746-1.17.432 0 .684.036.9.09v1.422a1.717 1.717 0 0 0-.594-.09c-.594 0-.882.252-.882.738 0 .252.09.558.198.9.342.468.522 1.062.522 1.728 0 1.962-1.512 3.168-3.96 3.168a6.01 6.01 0 0 1-1.566-.198c-.108.126-.216.378-.216.684 0 .504.36.81 1.008.81h2.88Zm-2.106-6.192c-1.26 0-2.034.666-2.034 1.728 0 1.062.774 1.728 2.034 1.728 1.26 0 2.034-.666 2.034-1.728 0-1.062-.774-1.728-2.034-1.728Zm.414 10.008c1.89 0 2.682-.54 2.682-1.332 0-.594-.45-.918-1.404-.918h-2.412c-1.008 0-1.656.306-1.656.99 0 .846 1.08 1.26 2.79 1.26Zm6.276-2.412v-8.892h2.016l-.072 2.376h.018c.486-1.602 1.638-2.52 3.708-2.52 2.25 0 3.636 1.278 3.636 3.474V405h-2.016v-5.112c0-1.404-.792-2.196-2.394-2.196-1.764 0-2.88 1.062-2.88 3.006V405h-2.016Z"/><rect width="32" height="32" x="623.5" y="384" fill="#EFBE08" rx="16"/><path fill="#fff" stroke="#092E24" stroke-linecap="round" stroke-linejoin="round" stroke-miterlimit="10" stroke-width="2" d="M631.493 408a.994.994 0 0 1-.993-1v-14a1 1 0 0 1 1-1h16a1 1 0 0 1 1 1v14c0 .552-.442 1-.995 1h-16.012Z"/><path stroke="#092E24" stroke-linecap="round" stroke-linejoin="round" stroke-miterlimit="10" stroke-width="2" d="m634.5 400 2 2-2 2M639.5 404h3"/><path fill="#092E24" d="M672.932 400.23v.72h-6.66c.108 1.71 1.062 2.628 2.574 2.628 1.296 0 2.178-.576 2.268-1.62h1.818c-.072 1.98-1.692 3.186-4.122 3.186-2.808 0-4.572-1.728-4.572-4.518 0-2.88 1.764-4.662 4.572-4.662 2.52 0 4.122 1.494 4.122 4.266Zm-1.818-.504v-.126c0-1.332-.828-2.07-2.286-2.07-1.386 0-2.268.72-2.502 2.196h4.788Zm2.274 5.274 3.366-4.554-3.222-4.338h2.556l2.196 3.204 2.124-3.204h2.286l-3.258 4.338 3.42 4.554H680.3l-2.304-3.33-2.214 3.33h-2.394Zm10.914 3.564v-12.456h2.016l-.036 2.07h.018c.36-1.35 1.548-2.214 3.312-2.214 2.538 0 4.14 1.746 4.14 4.428 0 2.88-1.62 4.752-4.176 4.752-1.764 0-2.916-.792-3.294-1.944h-.018c.018.594.054 1.512.054 1.872v3.492h-2.016Zm4.878-5.076c1.548 0 2.556-1.188 2.556-3.042 0-1.71-.99-2.826-2.592-2.826-1.674 0-2.79 1.134-2.826 2.916v.468c0 1.512 1.134 2.484 2.862 2.484Zm6.372 1.512v-12.474h2.016V405h-2.016Zm8.486.144c-2.826 0-4.644-1.746-4.644-4.572 0-2.844 1.818-4.608 4.644-4.608 2.844 0 4.662 1.764 4.662 4.608 0 2.826-1.818 4.572-4.662 4.572Zm0-1.656c1.638 0 2.646-1.116 2.646-2.916 0-1.818-1.008-2.952-2.646-2.952s-2.628 1.134-2.628 2.952c0 1.8.99 2.916 2.628 2.916Zm6.384 1.512v-8.892h2.016l-.072 2.556h.018c.414-1.602 1.332-2.7 3.168-2.7 1.926 0 2.988 1.26 2.988 3.474 0 .558-.054 1.278-.09 1.656h-1.836c.036-.342.072-.792.072-1.206 0-1.494-.576-2.196-1.764-2.196-1.53 0-2.484 1.296-2.484 3.42V405h-2.016Zm18.268-4.77v.72h-6.66c.108 1.71 1.062 2.628 2.574 2.628 1.296 0 2.178-.576 2.268-1.62h1.818c-.072 1.98-1.692 3.186-4.122 3.186-2.808 0-4.572-1.728-4.572-4.518 0-2.88 1.764-4.662 4.572-4.662 2.52 0 4.122 1.494 4.122 4.266Zm-1.818-.504v-.126c0-1.332-.828-2.07-2.286-2.07-1.386 0-2.268.72-2.502 2.196h4.788Zm11.806 5.418c-2.61 0-4.356-1.746-4.356-4.59s1.782-4.59 4.464-4.59c2.484 0 4.104 1.44 4.104 3.798h-1.818c-.018-1.332-.882-2.142-2.232-2.142-1.548 0-2.502 1.098-2.502 2.934 0 1.818.936 2.934 2.43 2.934 1.422 0 2.304-.792 2.322-2.106h1.818c0 2.376-1.692 3.762-4.23 3.762Zm10.395 0c-2.826 0-4.644-1.746-4.644-4.572 0-2.844 1.818-4.608 4.644-4.608 2.844 0 4.662 1.764 4.662 4.608 0 2.826-1.818 4.572-4.662 4.572Zm0-1.656c1.638 0 2.646-1.116 2.646-2.916 0-1.818-1.008-2.952-2.646-2.952s-2.628 1.134-2.628 2.952c0 1.8.99 2.916 2.628 2.916Zm10.308 1.656c-2.574 0-4.194-1.872-4.194-4.644 0-2.682 1.674-4.536 4.32-4.536 1.674 0 2.718.666 3.078 1.71h.018v-5.148h2.016V405h-2.016c.036-.522.054-1.296.09-2.16h-.036c-.342 1.404-1.458 2.304-3.276 2.304Zm.414-1.656c1.692 0 2.808-1.116 2.808-2.844v-.432c0-1.584-1.098-2.592-2.772-2.592-1.602 0-2.646 1.188-2.646 2.88 0 1.764 1.026 2.988 2.61 2.988Zm15.319-3.258v.72h-6.66c.108 1.71 1.062 2.628 2.574 2.628 1.296 0 2.178-.576 2.268-1.62h1.818c-.072 1.98-1.692 3.186-4.122 3.186-2.808 0-4.572-1.728-4.572-4.518 0-2.88 1.764-4.662 4.572-4.662 2.52 0 4.122 1.494 4.122 4.266Zm-1.818-.504v-.126c0-1.332-.828-2.07-2.286-2.07-1.386 0-2.268.72-2.502 2.196h4.788Z"/></g><defs><clipPath id="a"><path fill="#fff" d="M0 0h1216v774H0z"/></clipPath><clipPath id="b"><path fill="#fff" d="M-208 32h1632v774H-208z"/></clipPath></defs></svg>