<svg width="1216" height="774" viewBox="0 0 1216 774" fill="none" xmlns="http://www.w3.org/2000/svg">
<g clip-path="url(#clip0_281_16819)">
<g clip-path="url(#clip1_281_16819)">
<path d="M346.115 186.704C340.659 186.704 336.083 185.795 332.387 183.976C328.75 182.099 326.051 179.547 324.291 176.32C322.531 173.035 321.651 169.163 321.651 164.704C321.651 159.776 322.648 155.611 324.643 152.208C326.638 148.747 329.454 146.165 333.091 144.464C336.787 142.704 341.187 141.824 346.291 141.824C350.926 141.824 354.886 142.616 358.171 144.2C361.515 145.725 364.067 148.043 365.827 151.152C367.587 154.261 368.467 158.104 368.467 162.68V166.728H327.723L328.163 159.6H353.595V158.456C353.595 157.107 353.331 155.992 352.803 155.112C352.275 154.232 351.512 153.587 350.515 153.176C349.518 152.707 348.315 152.472 346.907 152.472C345.03 152.472 343.504 152.853 342.331 153.616C341.216 154.379 340.395 155.64 339.867 157.4C339.339 159.16 339.075 161.595 339.075 164.704C339.075 167.285 339.339 169.368 339.867 170.952C340.454 172.477 341.304 173.592 342.419 174.296C343.592 175 345.088 175.352 346.907 175.352C348.256 175.352 349.4 175.176 350.339 174.824C351.336 174.472 352.099 173.915 352.627 173.152C353.155 172.331 353.478 171.304 353.595 170.072H368.467C368.408 173.533 367.528 176.496 365.827 178.96C364.126 181.424 361.603 183.331 358.259 184.68C354.915 186.029 350.867 186.704 346.115 186.704ZM378.515 163.912L365.403 142.528H385.907L392.155 155.552L397.963 142.528H415.651L402.627 163.912L416.443 186H395.851L389.515 172.8L383.443 186H364.611L378.515 163.912ZM417.507 142.528H434.931L434.667 150.8H434.755C435.342 148.923 436.281 147.309 437.571 145.96C438.921 144.611 440.534 143.584 442.411 142.88C444.347 142.176 446.577 141.824 449.099 141.824C452.971 141.824 456.315 142.704 459.131 144.464C462.006 146.165 464.206 148.629 465.731 151.856C467.257 155.083 468.019 158.896 468.019 163.296C468.019 168.165 467.227 172.36 465.643 175.88C464.059 179.4 461.83 182.099 458.955 183.976C456.081 185.795 452.678 186.704 448.747 186.704C446.225 186.704 444.025 186.381 442.147 185.736C440.329 185.091 438.803 184.181 437.571 183.008C436.339 181.835 435.371 180.427 434.667 178.784H434.579C434.697 180.075 434.755 181.395 434.755 182.744C434.814 184.093 434.873 185.589 434.931 187.232V203.424H417.507V142.528ZM443.291 174.296C444.758 174.296 446.049 173.885 447.163 173.064C448.278 172.243 449.129 171.069 449.715 169.544C450.361 168.019 450.683 166.141 450.683 163.912C450.683 161.917 450.361 160.187 449.715 158.72C449.129 157.253 448.278 156.139 447.163 155.376C446.049 154.613 444.729 154.232 443.203 154.232C441.561 154.232 440.123 154.613 438.891 155.376C437.659 156.139 436.691 157.283 435.987 158.808C435.283 160.275 434.931 162.035 434.931 164.088V166.024C434.99 167.725 435.371 169.192 436.075 170.424C436.779 171.656 437.747 172.624 438.979 173.328C440.27 173.973 441.707 174.296 443.291 174.296ZM469.765 125.016H487.189V186H469.765V125.016ZM513.994 186.704C508.656 186.704 504.109 185.795 500.354 183.976C496.6 182.157 493.754 179.576 491.818 176.232C489.941 172.888 489.002 168.928 489.002 164.352C489.002 159.776 489.941 155.816 491.818 152.472C493.754 149.069 496.6 146.459 500.354 144.64C504.109 142.763 508.656 141.824 513.994 141.824C519.274 141.824 523.792 142.763 527.546 144.64C531.301 146.459 534.117 149.069 535.994 152.472C537.93 155.816 538.898 159.776 538.898 164.352C538.898 168.928 537.93 172.888 535.994 176.232C534.117 179.576 531.301 182.157 527.546 183.976C523.85 185.795 519.333 186.704 513.994 186.704ZM513.994 174.296C515.637 174.296 516.986 173.915 518.042 173.152C519.157 172.389 520.008 171.275 520.594 169.808C521.181 168.283 521.474 166.464 521.474 164.352C521.474 162.123 521.181 160.275 520.594 158.808C520.008 157.283 519.157 156.139 518.042 155.376C516.986 154.613 515.637 154.232 513.994 154.232C512.352 154.232 510.973 154.613 509.858 155.376C508.744 156.139 507.893 157.283 507.306 158.808C506.72 160.275 506.426 162.123 506.426 164.352C506.426 166.464 506.72 168.283 507.306 169.808C507.893 171.275 508.744 172.389 509.858 173.152C510.973 173.915 512.352 174.296 513.994 174.296ZM540.591 142.528H558.015L557.487 154.672H557.663C558.309 151.973 559.189 149.685 560.303 147.808C561.477 145.931 563.002 144.464 564.879 143.408C566.815 142.352 569.162 141.824 571.919 141.824C574.97 141.824 577.493 142.469 579.487 143.76C581.482 144.992 582.978 146.899 583.975 149.48C584.973 152.003 585.471 155.229 585.471 159.16C585.471 161.741 585.325 165.085 585.031 169.192H570.071C570.189 167.139 570.247 165.232 570.247 163.472C570.247 161.067 569.807 159.307 568.927 158.192C568.047 157.019 566.786 156.432 565.143 156.432C563.677 156.432 562.386 156.843 561.271 157.664C560.215 158.485 559.394 159.747 558.807 161.448C558.279 163.149 558.015 165.261 558.015 167.784V186H540.591V142.528ZM587.181 142.528H604.605V186H587.181V142.528ZM587.181 126.688H604.693V138.568H587.181V126.688ZM607.294 142.528H624.718L624.19 154.144H624.366C625.481 150.155 627.329 147.104 629.91 144.992C632.55 142.88 636.188 141.824 640.822 141.824C646.161 141.824 650.238 143.291 653.054 146.224C655.87 149.099 657.278 153.293 657.278 158.808V186H639.854V163.208C639.854 161.683 639.561 160.421 638.974 159.424C638.446 158.368 637.684 157.605 636.686 157.136C635.689 156.608 634.457 156.344 632.99 156.344C631.289 156.344 629.793 156.696 628.502 157.4C627.27 158.104 626.332 159.16 625.686 160.568C625.041 161.976 624.718 163.707 624.718 165.76V186H607.294V142.528ZM681.91 172.888C677.158 172.888 673.11 172.272 669.766 171.04C666.481 169.808 663.988 168.048 662.286 165.76C660.644 163.413 659.822 160.627 659.822 157.4C659.822 154.232 660.644 151.475 662.286 149.128C663.988 146.781 666.481 144.992 669.766 143.76C673.11 142.469 677.158 141.824 681.91 141.824C686.662 141.824 690.681 142.44 693.966 143.672C697.31 144.904 699.804 146.693 701.446 149.04C703.148 151.387 703.998 154.173 703.998 157.4C703.998 160.568 703.148 163.325 701.446 165.672C699.804 167.96 697.34 169.749 694.054 171.04C690.769 172.272 686.721 172.888 681.91 172.888ZM681.91 163.736C683.084 163.736 684.11 163.501 684.99 163.032C685.87 162.504 686.516 161.771 686.926 160.832C687.396 159.893 687.63 158.749 687.63 157.4C687.63 155.992 687.396 154.819 686.926 153.88C686.516 152.941 685.87 152.237 684.99 151.768C684.169 151.299 683.142 151.064 681.91 151.064C680.737 151.064 679.71 151.299 678.83 151.768C677.95 152.237 677.276 152.941 676.806 153.88C676.396 154.819 676.19 155.992 676.19 157.4C676.19 158.749 676.396 159.893 676.806 160.832C677.276 161.771 677.95 162.504 678.83 163.032C679.71 163.501 680.737 163.736 681.91 163.736ZM683.934 204.92C678.126 204.92 673.316 204.451 669.502 203.512C665.689 202.632 662.844 201.371 660.966 199.728C659.148 198.085 658.238 196.149 658.238 193.92C658.238 191.867 658.884 190.195 660.174 188.904C661.465 187.672 663.313 186.939 665.718 186.704V185.824L679.534 189.344C678.244 189.344 677.217 189.608 676.454 190.136C675.692 190.723 675.31 191.515 675.31 192.512C675.31 193.803 676.044 194.771 677.51 195.416C678.977 196.12 681.06 196.472 683.758 196.472C686.457 196.472 688.481 196.12 689.83 195.416C691.238 194.712 691.942 193.685 691.942 192.336C691.942 191.339 691.502 190.576 690.622 190.048C689.742 189.579 688.334 189.344 686.398 189.344H678.918C674.636 189.285 671.174 188.757 668.534 187.76C665.953 186.821 664.105 185.589 662.99 184.064C661.876 182.539 661.318 180.837 661.318 178.96C661.318 176.789 661.876 174.971 662.99 173.504C664.105 171.979 665.748 170.923 667.918 170.336V169.896L675.398 172.184C675.398 172.243 675.369 172.301 675.31 172.36C675.31 172.36 675.281 172.419 675.222 172.536C675.105 172.771 674.988 173.093 674.87 173.504C674.753 173.856 674.694 174.208 674.694 174.56C674.694 175.088 674.812 175.557 675.046 175.968C675.34 176.32 675.721 176.613 676.19 176.848C676.718 177.024 677.305 177.112 677.95 177.112H692.294C696.049 177.112 699.188 177.611 701.71 178.608C704.233 179.547 706.11 180.925 707.342 182.744C708.574 184.504 709.19 186.616 709.19 189.08C709.19 194.067 707.049 197.939 702.766 200.696C698.484 203.512 692.206 204.92 683.934 204.92ZM694.846 144.728L695.11 144.024C694.172 143.379 693.438 142.645 692.91 141.824C692.441 140.944 692.206 140.035 692.206 139.096C692.206 137.336 693.057 135.957 694.758 134.96C696.46 133.904 698.982 133.376 702.326 133.376C704.497 133.376 706.228 133.493 707.518 133.728V144.2C707.108 144.141 706.726 144.112 706.374 144.112C706.022 144.053 705.612 144.024 705.142 144.024C703.852 144.024 702.884 144.259 702.238 144.728C701.593 145.197 701.27 145.901 701.27 146.84C701.27 147.251 701.329 147.72 701.446 148.248C701.622 148.776 701.798 149.333 701.974 149.92C702.033 150.037 702.062 150.125 702.062 150.184C702.121 150.184 702.15 150.243 702.15 150.36L694.846 144.728ZM725.189 142.528H743.669L749.389 169.984H749.565L755.989 142.528H772.357L778.517 169.984H778.693L784.677 142.528H799.989L788.813 186H767.693L762.149 161.448H761.973L756.165 186H736.365L725.189 142.528ZM822.81 186.704C817.354 186.704 812.778 185.795 809.082 183.976C805.445 182.099 802.746 179.547 800.986 176.32C799.226 173.035 798.346 169.163 798.346 164.704C798.346 159.776 799.343 155.611 801.338 152.208C803.333 148.747 806.149 146.165 809.786 144.464C813.482 142.704 817.882 141.824 822.986 141.824C827.621 141.824 831.581 142.616 834.866 144.2C838.21 145.725 840.762 148.043 842.522 151.152C844.282 154.261 845.162 158.104 845.162 162.68V166.728H804.418L804.858 159.6H830.29V158.456C830.29 157.107 830.026 155.992 829.498 155.112C828.97 154.232 828.207 153.587 827.21 153.176C826.213 152.707 825.01 152.472 823.602 152.472C821.725 152.472 820.199 152.853 819.026 153.616C817.911 154.379 817.09 155.64 816.562 157.4C816.034 159.16 815.77 161.595 815.77 164.704C815.77 167.285 816.034 169.368 816.562 170.952C817.149 172.477 817.999 173.592 819.114 174.296C820.287 175 821.783 175.352 823.602 175.352C824.951 175.352 826.095 175.176 827.034 174.824C828.031 174.472 828.794 173.915 829.322 173.152C829.85 172.331 830.173 171.304 830.29 170.072H845.162C845.103 173.533 844.223 176.496 842.522 178.96C840.821 181.424 838.298 183.331 834.954 184.68C831.61 186.029 827.562 186.704 822.81 186.704ZM878.435 186.704C875.795 186.704 873.478 186.323 871.483 185.56C869.547 184.797 867.934 183.741 866.643 182.392C865.411 181.043 864.502 179.459 863.915 177.64H863.827C863.886 178.52 863.915 179.459 863.915 180.456C863.974 181.453 864.033 182.451 864.091 183.448C864.15 184.387 864.209 185.237 864.267 186H846.843V125.016H864.267V142.264C864.267 143.848 864.179 146.517 864.003 150.272H864.179C864.766 148.512 865.705 147.016 866.995 145.784C868.345 144.493 869.958 143.525 871.835 142.88C873.771 142.176 876.001 141.824 878.523 141.824C882.454 141.824 885.827 142.675 888.643 144.376C891.459 146.019 893.601 148.453 895.067 151.68C896.593 154.848 897.355 158.749 897.355 163.384C897.355 168.429 896.563 172.712 894.979 176.232C893.454 179.693 891.254 182.304 888.379 184.064C885.563 185.824 882.249 186.704 878.435 186.704ZM872.627 174.296C874.211 174.296 875.531 173.915 876.587 173.152C877.643 172.331 878.465 171.157 879.051 169.632C879.638 168.107 879.931 166.2 879.931 163.912C879.931 161.859 879.638 160.128 879.051 158.72C878.523 157.253 877.702 156.139 876.587 155.376C875.473 154.613 874.153 154.232 872.627 154.232C870.867 154.232 869.371 154.613 868.139 155.376C866.907 156.08 865.939 157.165 865.235 158.632C864.59 160.04 864.267 161.771 864.267 163.824V166.112C864.326 167.872 864.678 169.368 865.323 170.6C866.027 171.832 866.995 172.771 868.227 173.416C869.518 174.003 870.985 174.296 872.627 174.296ZM377.714 258.704C373.666 258.704 370.175 257.795 367.242 255.976C364.367 254.099 362.167 251.459 360.642 248.056C359.117 244.653 358.354 240.605 358.354 235.912C358.354 231.453 359.175 227.552 360.818 224.208C362.461 220.864 364.778 218.312 367.77 216.552C370.762 214.733 374.253 213.824 378.242 213.824C380.589 213.824 382.613 214.088 384.314 214.616C386.015 215.144 387.453 215.877 388.626 216.816C389.799 217.755 390.709 218.869 391.354 220.16H391.442V197.016H408.866V258H391.442C391.677 254.949 391.853 251.928 391.97 248.936H391.794C391.149 250.872 390.239 252.573 389.066 254.04C387.893 255.448 386.338 256.592 384.402 257.472C382.525 258.293 380.295 258.704 377.714 258.704ZM383.258 246.296C384.901 246.296 386.338 245.944 387.57 245.24C388.802 244.477 389.741 243.392 390.386 241.984C391.09 240.517 391.442 238.757 391.442 236.704V234.152C391.442 232.627 391.09 231.277 390.386 230.104C389.741 228.872 388.802 227.933 387.57 227.288C386.397 226.584 385.018 226.232 383.434 226.232C381.85 226.232 380.471 226.643 379.298 227.464C378.125 228.227 377.215 229.341 376.57 230.808C375.983 232.216 375.69 233.976 375.69 236.088C375.69 238.2 375.983 240.019 376.57 241.544C377.215 243.069 378.095 244.243 379.21 245.064C380.383 245.885 381.733 246.296 383.258 246.296ZM435.076 258.704C429.62 258.704 425.044 257.795 421.348 255.976C417.71 254.099 415.012 251.547 413.252 248.32C411.492 245.035 410.612 241.163 410.612 236.704C410.612 231.776 411.609 227.611 413.604 224.208C415.598 220.747 418.414 218.165 422.052 216.464C425.748 214.704 430.148 213.824 435.252 213.824C439.886 213.824 443.846 214.616 447.132 216.2C450.476 217.725 453.028 220.043 454.788 223.152C456.548 226.261 457.428 230.104 457.428 234.68V238.728H416.684L417.124 231.6H442.556V230.456C442.556 229.107 442.292 227.992 441.764 227.112C441.236 226.232 440.473 225.587 439.476 225.176C438.478 224.707 437.276 224.472 435.868 224.472C433.99 224.472 432.465 224.853 431.292 225.616C430.177 226.379 429.356 227.64 428.828 229.4C428.3 231.16 428.036 233.595 428.036 236.704C428.036 239.285 428.3 241.368 428.828 242.952C429.414 244.477 430.265 245.592 431.38 246.296C432.553 247 434.049 247.352 435.868 247.352C437.217 247.352 438.361 247.176 439.3 246.824C440.297 246.472 441.06 245.915 441.588 245.152C442.116 244.331 442.438 243.304 442.556 242.072H457.428C457.369 245.533 456.489 248.496 454.788 250.96C453.086 253.424 450.564 255.331 447.22 256.68C443.876 258.029 439.828 258.704 435.076 258.704ZM480.845 258.704C475.389 258.704 470.96 258.059 467.557 256.768C464.213 255.419 461.808 253.6 460.341 251.312C458.933 249.024 458.229 246.384 458.229 243.392H473.013C473.013 244.624 473.248 245.68 473.717 246.56C474.186 247.381 474.949 248.027 476.005 248.496C477.061 248.907 478.498 249.112 480.317 249.112C481.96 249.112 483.28 248.936 484.277 248.584C485.274 248.232 486.008 247.733 486.477 247.088C486.946 246.443 487.181 245.68 487.181 244.8C487.181 243.861 486.858 243.157 486.213 242.688C485.626 242.16 484.512 241.779 482.869 241.544C481.285 241.251 478.674 240.957 475.037 240.664C471.341 240.371 468.29 239.843 465.885 239.08C463.48 238.317 461.602 237.144 460.253 235.56C458.904 233.917 458.229 231.688 458.229 228.872C458.229 225.763 459.168 223.093 461.045 220.864C462.922 218.576 465.592 216.845 469.053 215.672C472.514 214.44 476.474 213.824 480.933 213.824C486.096 213.824 490.29 214.44 493.517 215.672C496.802 216.845 499.178 218.576 500.645 220.864C502.112 223.152 502.845 225.997 502.845 229.4H488.149C488.149 228.051 487.914 226.936 487.445 226.056C487.034 225.176 486.36 224.531 485.421 224.12C484.482 223.651 483.25 223.416 481.725 223.416C480.258 223.416 479.056 223.592 478.117 223.944C477.178 224.296 476.474 224.795 476.005 225.44C475.594 226.085 475.389 226.848 475.389 227.728C475.389 228.784 475.653 229.576 476.181 230.104C476.768 230.632 477.824 231.043 479.349 231.336C480.933 231.629 483.514 231.923 487.093 232.216C490.848 232.509 493.957 233.037 496.421 233.8C498.944 234.504 500.938 235.648 502.405 237.232C503.872 238.816 504.605 241.016 504.605 243.832C504.605 246.883 503.784 249.523 502.141 251.752C500.557 253.923 498.005 255.624 494.485 256.856C490.965 258.088 486.418 258.704 480.845 258.704ZM506.47 214.528H523.894V258H506.47V214.528ZM506.47 198.688H523.982V210.568H506.47V198.688ZM549.199 244.888C544.447 244.888 540.399 244.272 537.055 243.04C533.77 241.808 531.277 240.048 529.575 237.76C527.933 235.413 527.111 232.627 527.111 229.4C527.111 226.232 527.933 223.475 529.575 221.128C531.277 218.781 533.77 216.992 537.055 215.76C540.399 214.469 544.447 213.824 549.199 213.824C553.951 213.824 557.97 214.44 561.255 215.672C564.599 216.904 567.093 218.693 568.735 221.04C570.437 223.387 571.287 226.173 571.287 229.4C571.287 232.568 570.437 235.325 568.735 237.672C567.093 239.96 564.629 241.749 561.343 243.04C558.058 244.272 554.01 244.888 549.199 244.888ZM549.199 235.736C550.373 235.736 551.399 235.501 552.279 235.032C553.159 234.504 553.805 233.771 554.215 232.832C554.685 231.893 554.919 230.749 554.919 229.4C554.919 227.992 554.685 226.819 554.215 225.88C553.805 224.941 553.159 224.237 552.279 223.768C551.458 223.299 550.431 223.064 549.199 223.064C548.026 223.064 546.999 223.299 546.119 223.768C545.239 224.237 544.565 224.941 544.095 225.88C543.685 226.819 543.479 227.992 543.479 229.4C543.479 230.749 543.685 231.893 544.095 232.832C544.565 233.771 545.239 234.504 546.119 235.032C546.999 235.501 548.026 235.736 549.199 235.736ZM551.223 276.92C545.415 276.92 540.605 276.451 536.791 275.512C532.978 274.632 530.133 273.371 528.255 271.728C526.437 270.085 525.527 268.149 525.527 265.92C525.527 263.867 526.173 262.195 527.463 260.904C528.754 259.672 530.602 258.939 533.007 258.704V257.824L546.823 261.344C545.533 261.344 544.506 261.608 543.743 262.136C542.981 262.723 542.599 263.515 542.599 264.512C542.599 265.803 543.333 266.771 544.799 267.416C546.266 268.12 548.349 268.472 551.047 268.472C553.746 268.472 555.77 268.12 557.119 267.416C558.527 266.712 559.231 265.685 559.231 264.336C559.231 263.339 558.791 262.576 557.911 262.048C557.031 261.579 555.623 261.344 553.687 261.344H546.207C541.925 261.285 538.463 260.757 535.823 259.76C533.242 258.821 531.394 257.589 530.279 256.064C529.165 254.539 528.607 252.837 528.607 250.96C528.607 248.789 529.165 246.971 530.279 245.504C531.394 243.979 533.037 242.923 535.207 242.336V241.896L542.687 244.184C542.687 244.243 542.658 244.301 542.599 244.36C542.599 244.36 542.57 244.419 542.511 244.536C542.394 244.771 542.277 245.093 542.159 245.504C542.042 245.856 541.983 246.208 541.983 246.56C541.983 247.088 542.101 247.557 542.335 247.968C542.629 248.32 543.01 248.613 543.479 248.848C544.007 249.024 544.594 249.112 545.239 249.112H559.583C563.338 249.112 566.477 249.611 568.999 250.608C571.522 251.547 573.399 252.925 574.631 254.744C575.863 256.504 576.479 258.616 576.479 261.08C576.479 266.067 574.338 269.939 570.055 272.696C565.773 275.512 559.495 276.92 551.223 276.92ZM562.135 216.728L562.399 216.024C561.461 215.379 560.727 214.645 560.199 213.824C559.73 212.944 559.495 212.035 559.495 211.096C559.495 209.336 560.346 207.957 562.047 206.96C563.749 205.904 566.271 205.376 569.615 205.376C571.786 205.376 573.517 205.493 574.807 205.728V216.2C574.397 216.141 574.015 216.112 573.663 216.112C573.311 216.053 572.901 216.024 572.431 216.024C571.141 216.024 570.173 216.259 569.527 216.728C568.882 217.197 568.559 217.901 568.559 218.84C568.559 219.251 568.618 219.72 568.735 220.248C568.911 220.776 569.087 221.333 569.263 221.92C569.322 222.037 569.351 222.125 569.351 222.184C569.41 222.184 569.439 222.243 569.439 222.36L562.135 216.728ZM577.38 214.528H594.804L594.276 226.144H594.452C595.567 222.155 597.415 219.104 599.996 216.992C602.636 214.88 606.274 213.824 610.908 213.824C616.247 213.824 620.324 215.291 623.14 218.224C625.956 221.099 627.364 225.293 627.364 230.808V258H609.94V235.208C609.94 233.683 609.647 232.421 609.06 231.424C608.532 230.368 607.77 229.605 606.772 229.136C605.775 228.608 604.543 228.344 603.076 228.344C601.375 228.344 599.879 228.696 598.588 229.4C597.356 230.104 596.418 231.16 595.772 232.568C595.127 233.976 594.804 235.707 594.804 237.76V258H577.38V214.528ZM668.502 258.704C663.574 258.704 659.35 257.765 655.83 255.888C652.369 254.011 649.729 251.4 647.91 248.056C646.091 244.712 645.182 240.811 645.182 236.352C645.182 231.776 646.15 227.787 648.086 224.384C650.022 220.981 652.779 218.371 656.358 216.552C659.937 214.733 664.161 213.824 669.03 213.824C673.899 213.824 678.006 214.616 681.35 216.2C684.694 217.725 687.217 219.984 688.918 222.976C690.619 225.968 691.47 229.576 691.47 233.8H676.51C676.51 232.099 676.246 230.691 675.718 229.576C675.19 228.461 674.427 227.64 673.43 227.112C672.433 226.525 671.259 226.232 669.91 226.232C668.326 226.232 666.977 226.613 665.862 227.376C664.806 228.08 663.985 229.195 663.398 230.72C662.87 232.187 662.606 234.035 662.606 236.264C662.606 238.493 662.87 240.371 663.398 241.896C663.985 243.363 664.806 244.477 665.862 245.24C666.918 245.944 668.179 246.296 669.646 246.296C671.054 246.296 672.257 246.032 673.254 245.504C674.31 244.917 675.131 244.096 675.718 243.04C676.305 241.925 676.598 240.547 676.598 238.904H691.47C691.47 243.187 690.59 246.795 688.83 249.728C687.129 252.661 684.547 254.891 681.086 256.416C677.683 257.941 673.489 258.704 668.502 258.704ZM693.162 214.528H710.586L710.058 226.672H710.234C710.879 223.973 711.759 221.685 712.874 219.808C714.047 217.931 715.572 216.464 717.45 215.408C719.386 214.352 721.732 213.824 724.49 213.824C727.54 213.824 730.063 214.469 732.058 215.76C734.052 216.992 735.548 218.899 736.546 221.48C737.543 224.003 738.042 227.229 738.042 231.16C738.042 233.741 737.895 237.085 737.602 241.192H722.642C722.759 239.139 722.818 237.232 722.818 235.472C722.818 233.067 722.378 231.307 721.498 230.192C720.618 229.019 719.356 228.432 717.714 228.432C716.247 228.432 714.956 228.843 713.842 229.664C712.786 230.485 711.964 231.747 711.378 233.448C710.85 235.149 710.586 237.261 710.586 239.784V258H693.162V214.528ZM739.048 246.032C739.048 243.685 739.605 241.632 740.72 239.872C741.834 238.053 743.536 236.645 745.824 235.648C748.112 234.651 751.016 234.152 754.536 234.152H768.44V230.984C768.44 229.635 768.205 228.549 767.736 227.728C767.266 226.848 766.533 226.203 765.536 225.792C764.597 225.381 763.336 225.176 761.752 225.176C759.816 225.176 758.32 225.587 757.264 226.408C756.266 227.229 755.768 228.403 755.768 229.928C755.826 230.456 755.856 231.043 755.856 231.688H740.632C740.456 230.691 740.368 229.723 740.368 228.784C740.368 225.675 741.189 223.005 742.832 220.776C744.474 218.547 746.938 216.845 750.224 215.672C753.568 214.44 757.704 213.824 762.632 213.824C767.794 213.824 772.106 214.557 775.568 216.024C779.029 217.491 781.61 219.632 783.312 222.448C785.013 225.205 785.864 228.52 785.864 232.392V258H768.44C768.616 256.533 768.733 255.125 768.792 253.776C768.909 252.427 768.968 251.077 768.968 249.728H768.88C768.469 251.605 767.677 253.219 766.504 254.568C765.33 255.859 763.805 256.885 761.928 257.648C760.05 258.352 757.792 258.704 755.152 258.704C751.69 258.704 748.728 258.176 746.264 257.12C743.858 256.064 742.04 254.597 740.808 252.72C739.634 250.784 739.048 248.555 739.048 246.032ZM760.52 248.848C762.162 248.848 763.57 248.613 764.744 248.144C765.917 247.616 766.826 246.853 767.472 245.856C768.117 244.859 768.44 243.685 768.44 242.336V241.192H759.464C758.525 241.192 757.704 241.339 757 241.632C756.296 241.925 755.768 242.336 755.416 242.864C755.064 243.392 754.888 244.008 754.888 244.712C754.888 246.003 755.386 247.029 756.384 247.792C757.381 248.496 758.76 248.848 760.52 248.848ZM791.752 227.64H785.768V214.528H791.752V210.744C791.752 207.341 792.515 204.467 794.04 202.12C795.624 199.773 797.824 198.013 800.64 196.84C803.515 195.667 806.859 195.08 810.672 195.08C812.843 195.08 814.896 195.256 816.832 195.608C818.768 195.901 820.235 196.224 821.232 196.576V208.368C820.352 208.133 819.384 207.928 818.328 207.752C817.272 207.576 816.099 207.488 814.808 207.488C812.931 207.488 811.523 207.899 810.584 208.72C809.646 209.483 809.176 210.627 809.176 212.152V214.528H821.936V227.64H809.176V258H791.752V227.64ZM847.136 258.704C840.096 258.704 835.051 257.325 832 254.568C828.95 251.811 827.424 247.851 827.424 242.688V227.64H821.44V214.528H826.192C827.424 214.528 828.304 214.205 828.832 213.56C829.419 212.915 829.771 211.8 829.888 210.216L830.504 204.672H844.848V214.528H857.696V227.64H844.848V241.016C844.848 242.248 845.054 243.216 845.464 243.92C845.875 244.565 846.55 245.035 847.488 245.328C848.427 245.621 849.747 245.768 851.448 245.768C852.504 245.768 853.531 245.709 854.528 245.592C855.584 245.475 856.464 245.357 857.168 245.24V257.736C856.23 257.971 854.851 258.176 853.032 258.352C851.214 258.587 849.248 258.704 847.136 258.704Z" fill="#092E24"/>
<path opacity="0.7" d="M418.434 315H416.898V299.304H411.522V297.96H423.81V299.304H418.434V315ZM427.286 297.24V300.6H425.774V297.24H427.286ZM425.822 302.712H427.262V315H425.822V302.712ZM431.832 319.08H430.392V302.712H431.736L431.784 305.208C432.336 303.84 433.776 302.424 436.224 302.424C439.44 302.424 441.504 304.872 441.504 308.616V309.096C441.504 312.84 439.44 315.288 436.2 315.288C433.848 315.288 432.456 313.968 431.832 312.648V319.08ZM435.984 314.016C438.576 314.016 440.016 312.144 440.016 309.096V308.616C440.016 305.544 438.576 303.696 436.008 303.696C433.296 303.696 431.784 305.544 431.784 308.616V309.096C431.784 312.168 433.32 314.016 435.984 314.016ZM448.118 315.288C445.382 315.288 443.39 313.944 443.102 311.304H444.542C444.83 313.224 446.174 314.064 448.166 314.064C450.086 314.064 451.382 313.272 451.382 311.712C451.382 310.296 450.23 309.792 447.854 309.36C445.214 308.88 443.606 308.112 443.606 305.88C443.606 303.816 445.406 302.424 447.95 302.424C450.566 302.424 452.294 303.72 452.582 306.096H451.142C450.878 304.44 449.678 303.624 447.95 303.624C446.222 303.624 445.022 304.488 445.022 305.832C445.022 307.224 446.03 307.728 448.382 308.136C451.094 308.592 452.846 309.384 452.846 311.592C452.846 313.896 450.926 315.288 448.118 315.288ZM463.238 315.288C460.742 315.288 459.206 313.872 459.206 311.88C459.206 310.176 460.214 308.928 462.182 308.592L467.534 307.704V306.504C467.534 304.656 466.262 303.624 464.39 303.624C462.566 303.624 461.246 304.56 461.054 306.24H459.638C459.902 303.864 461.678 302.424 464.414 302.424C467.342 302.424 468.95 304.176 468.95 306.576V315H467.582L467.558 312.888C466.766 314.424 465.11 315.288 463.238 315.288ZM463.334 314.04C465.59 314.04 467.534 312.552 467.534 310.464V308.928L462.638 309.744C461.27 309.96 460.67 310.704 460.67 311.856C460.67 313.152 461.606 314.04 463.334 314.04ZM473.41 315H471.97V302.712H473.362L473.41 304.944C474.058 303.48 475.45 302.424 477.466 302.424C480.346 302.424 481.762 304.176 481.762 307.032V315H480.346V307.368C480.346 305.016 479.314 303.696 477.154 303.696C474.874 303.696 473.41 305.376 473.41 307.992V315ZM489.47 315.288C486.254 315.288 484.166 312.84 484.166 309.096V308.616C484.166 304.896 486.206 302.424 489.47 302.424C491.798 302.424 493.214 303.696 493.838 305.04V297.24H495.278V315H493.934L493.91 312.504C493.334 313.872 491.894 315.288 489.47 315.288ZM489.662 314.016C492.374 314.016 493.91 312.144 493.91 309.096V308.616C493.91 305.544 492.35 303.696 489.662 303.696C487.118 303.696 485.654 305.544 485.654 308.616V309.096C485.654 312.144 487.094 314.016 489.662 314.016ZM507.636 315.288C505.332 315.288 504.132 314.208 504.132 312.072V303.912H501.588V302.712H504.132V298.92H505.572V302.712H509.196V303.912H505.572V311.856C505.572 313.296 506.076 314.04 507.804 314.04C508.236 314.04 508.884 313.92 509.316 313.8V315.048C508.836 315.168 508.14 315.288 507.636 315.288ZM515.731 315.288C512.923 315.288 511.507 313.536 511.507 310.656V302.712H512.947V310.392C512.947 312.648 513.883 314.016 516.091 314.016C518.395 314.016 519.691 312.24 519.691 309.672V302.712H521.131V315H519.715L519.691 312.792C519.043 314.232 517.627 315.288 515.731 315.288ZM528.988 315.288C526.684 315.288 525.484 314.208 525.484 312.072V303.912H522.94V302.712H525.484V298.92H526.924V302.712H530.548V303.912H526.924V311.856C526.924 313.296 527.428 314.04 529.156 314.04C529.588 314.04 530.236 313.92 530.668 313.8V315.048C530.188 315.168 529.492 315.288 528.988 315.288ZM537.785 315.288C534.281 315.288 532.073 312.864 532.073 309.096V308.616C532.073 304.848 534.281 302.424 537.785 302.424C541.265 302.424 543.473 304.848 543.473 308.616V309.096C543.473 312.864 541.265 315.288 537.785 315.288ZM537.785 314.016C540.473 314.016 541.985 312.168 541.985 309.096V308.616C541.985 305.544 540.473 303.696 537.785 303.696C535.073 303.696 533.561 305.544 533.561 308.616V309.096C533.561 312.168 535.073 314.016 537.785 314.016ZM547.402 315H545.962V302.712H547.354L547.378 305.208C548.05 303.48 549.466 302.424 551.29 302.424C551.458 302.424 551.65 302.424 551.866 302.472V303.912C551.626 303.888 551.482 303.888 551.266 303.888C548.986 303.888 547.402 305.352 547.402 308.232V315ZM555.231 297.24V300.6H553.719V297.24H555.231ZM553.767 302.712H555.207V315H553.767V302.712ZM561.745 315.288C559.249 315.288 557.713 313.872 557.713 311.88C557.713 310.176 558.721 308.928 560.689 308.592L566.041 307.704V306.504C566.041 304.656 564.769 303.624 562.897 303.624C561.073 303.624 559.753 304.56 559.561 306.24H558.145C558.409 303.864 560.185 302.424 562.921 302.424C565.849 302.424 567.457 304.176 567.457 306.576V315H566.089L566.065 312.888C565.273 314.424 563.617 315.288 561.745 315.288ZM561.841 314.04C564.097 314.04 566.041 312.552 566.041 310.464V308.928L561.145 309.744C559.777 309.96 559.177 310.704 559.177 311.856C559.177 313.152 560.113 314.04 561.841 314.04ZM570.478 297.24H571.918V315H570.478V297.24ZM579.344 315.288C576.608 315.288 574.616 313.944 574.328 311.304H575.768C576.056 313.224 577.4 314.064 579.392 314.064C581.312 314.064 582.608 313.272 582.608 311.712C582.608 310.296 581.456 309.792 579.08 309.36C576.44 308.88 574.832 308.112 574.832 305.88C574.832 303.816 576.632 302.424 579.176 302.424C581.792 302.424 583.52 303.72 583.808 306.096H582.368C582.104 304.44 580.904 303.624 579.176 303.624C577.448 303.624 576.248 304.488 576.248 305.832C576.248 307.224 577.256 307.728 579.608 308.136C582.32 308.592 584.072 309.384 584.072 311.592C584.072 313.896 582.152 315.288 579.344 315.288ZM594.464 315.288C591.968 315.288 590.432 313.872 590.432 311.88C590.432 310.176 591.44 308.928 593.408 308.592L598.76 307.704V306.504C598.76 304.656 597.488 303.624 595.616 303.624C593.792 303.624 592.472 304.56 592.28 306.24H590.864C591.128 303.864 592.904 302.424 595.64 302.424C598.568 302.424 600.176 304.176 600.176 306.576V315H598.808L598.784 312.888C597.992 314.424 596.336 315.288 594.464 315.288ZM594.56 314.04C596.816 314.04 598.76 312.552 598.76 310.464V308.928L593.864 309.744C592.496 309.96 591.896 310.704 591.896 311.856C591.896 313.152 592.832 314.04 594.56 314.04ZM609.005 315.288C606.605 315.288 605.141 313.896 604.589 312.528L604.541 315H603.197V297.24H604.637V305.064C605.261 303.72 606.653 302.424 609.029 302.424C612.269 302.424 614.309 304.896 614.309 308.616V309.096C614.309 312.84 612.221 315.288 609.005 315.288ZM608.813 314.016C611.381 314.016 612.821 312.144 612.821 309.096V308.616C612.821 305.544 611.381 303.696 608.789 303.696C606.125 303.696 604.589 305.544 604.589 308.616V309.096C604.589 312.144 606.101 314.016 608.813 314.016ZM621.902 315.288C618.398 315.288 616.19 312.864 616.19 309.096V308.616C616.19 304.848 618.398 302.424 621.902 302.424C625.382 302.424 627.59 304.848 627.59 308.616V309.096C627.59 312.864 625.382 315.288 621.902 315.288ZM621.902 314.016C624.59 314.016 626.102 312.168 626.102 309.096V308.616C626.102 305.544 624.59 303.696 621.902 303.696C619.19 303.696 617.678 305.544 617.678 308.616V309.096C617.678 312.168 619.19 314.016 621.902 314.016ZM634.067 315.288C631.259 315.288 629.843 313.536 629.843 310.656V302.712H631.283V310.392C631.283 312.648 632.219 314.016 634.427 314.016C636.731 314.016 638.027 312.24 638.027 309.672V302.712H639.467V315H638.051L638.027 312.792C637.379 314.232 635.963 315.288 634.067 315.288ZM647.324 315.288C645.02 315.288 643.82 314.208 643.82 312.072V303.912H641.276V302.712H643.82V298.92H645.26V302.712H648.884V303.912H645.26V311.856C645.26 313.296 645.764 314.04 647.492 314.04C647.924 314.04 648.572 313.92 649.004 313.8V315.048C648.524 315.168 647.828 315.288 647.324 315.288ZM660.519 315.288C658.215 315.288 657.015 314.208 657.015 312.072V303.912H654.471V302.712H657.015V298.92H658.455V302.712H662.079V303.912H658.455V311.856C658.455 313.296 658.959 314.04 660.687 314.04C661.119 314.04 661.767 313.92 662.199 313.8V315.048C661.719 315.168 661.023 315.288 660.519 315.288ZM665.926 315H664.486V297.24H665.926V304.896C666.55 303.456 667.966 302.424 669.982 302.424C672.862 302.424 674.278 304.176 674.278 307.032V315H672.862V307.368C672.862 305.016 671.83 303.696 669.67 303.696C667.39 303.696 665.926 305.376 665.926 307.992V315ZM682.37 315.288C678.77 315.288 676.682 312.768 676.682 309.096V308.616C676.682 304.92 678.794 302.424 682.37 302.424C686.042 302.424 687.914 304.944 687.746 309.096H678.17V309.192C678.218 312.24 679.73 314.016 682.37 314.016C684.458 314.016 685.754 313.008 686.186 311.256H687.65C687.074 313.752 685.202 315.288 682.37 315.288ZM678.218 307.872H686.234V307.848C686.09 305.208 684.77 303.696 682.37 303.696C679.898 303.696 678.41 305.208 678.218 307.872ZM699.306 315.288C696.09 315.288 694.002 312.84 694.002 309.096V308.616C694.002 304.896 696.042 302.424 699.306 302.424C701.634 302.424 703.05 303.696 703.674 305.04V297.24H705.114V315H703.77L703.746 312.504C703.17 313.872 701.73 315.288 699.306 315.288ZM699.498 314.016C702.21 314.016 703.746 312.144 703.746 309.096V308.616C703.746 305.544 702.186 303.696 699.498 303.696C696.954 303.696 695.49 305.544 695.49 308.616V309.096C695.49 312.144 696.93 314.016 699.498 314.016ZM713.308 315.288C709.708 315.288 707.62 312.768 707.62 309.096V308.616C707.62 304.92 709.732 302.424 713.308 302.424C716.98 302.424 718.852 304.944 718.684 309.096H709.108V309.192C709.156 312.24 710.668 314.016 713.308 314.016C715.396 314.016 716.692 313.008 717.124 311.256H718.588C718.012 313.752 716.14 315.288 713.308 315.288ZM709.156 307.872H717.172V307.848C717.028 305.208 715.708 303.696 713.308 303.696C710.836 303.696 709.348 305.208 709.156 307.872ZM725.196 315.288C722.46 315.288 720.468 313.944 720.18 311.304H721.62C721.908 313.224 723.252 314.064 725.244 314.064C727.164 314.064 728.46 313.272 728.46 311.712C728.46 310.296 727.308 309.792 724.932 309.36C722.292 308.88 720.684 308.112 720.684 305.88C720.684 303.816 722.484 302.424 725.028 302.424C727.644 302.424 729.372 303.72 729.66 306.096H728.22C727.956 304.44 726.756 303.624 725.028 303.624C723.3 303.624 722.1 304.488 722.1 305.832C722.1 307.224 723.108 307.728 725.46 308.136C728.172 308.592 729.924 309.384 729.924 311.592C729.924 313.896 728.004 315.288 725.196 315.288ZM733.895 297.24V300.6H732.383V297.24H733.895ZM732.431 302.712H733.871V315H732.431V302.712ZM741.993 319.368C738.921 319.368 737.097 317.976 736.833 315.864H738.369C738.585 317.352 739.809 318.144 742.017 318.144C744.561 318.144 746.049 316.896 746.049 314.568V312.216C745.425 313.608 744.009 314.88 741.681 314.88C738.417 314.88 736.377 312.408 736.377 308.952V308.352C736.377 304.776 738.441 302.424 741.681 302.424C744.081 302.424 745.545 303.84 746.121 305.208L746.145 302.712H747.489V314.496C747.489 317.304 745.641 319.368 741.993 319.368ZM741.873 313.608C744.561 313.608 746.121 311.76 746.121 308.952V308.352C746.121 305.448 744.585 303.696 741.873 303.696C739.305 303.696 737.865 305.472 737.865 308.352V308.952C737.865 311.736 739.329 313.608 741.873 313.608ZM752.059 315H750.619V302.712H752.011L752.059 304.944C752.707 303.48 754.099 302.424 756.115 302.424C758.995 302.424 760.411 304.176 760.411 307.032V315H758.995V307.368C758.995 305.016 757.963 303.696 755.803 303.696C753.523 303.696 752.059 305.376 752.059 307.992V315ZM771.323 315.288C768.827 315.288 767.291 313.872 767.291 311.88C767.291 310.176 768.299 308.928 770.267 308.592L775.619 307.704V306.504C775.619 304.656 774.347 303.624 772.475 303.624C770.651 303.624 769.331 304.56 769.139 306.24H767.723C767.987 303.864 769.763 302.424 772.499 302.424C775.427 302.424 777.035 304.176 777.035 306.576V315H775.667L775.643 312.888C774.851 314.424 773.195 315.288 771.323 315.288ZM771.419 314.04C773.675 314.04 775.619 312.552 775.619 310.464V308.928L770.723 309.744C769.355 309.96 768.755 310.704 768.755 311.856C768.755 313.152 769.691 314.04 771.419 314.04ZM781.496 315H780.056V302.712H781.448L781.496 304.944C782.144 303.48 783.536 302.424 785.552 302.424C788.432 302.424 789.848 304.176 789.848 307.032V315H788.432V307.368C788.432 305.016 787.4 303.696 785.24 303.696C782.96 303.696 781.496 305.376 781.496 307.992V315ZM797.556 315.288C794.34 315.288 792.252 312.84 792.252 309.096V308.616C792.252 304.896 794.292 302.424 797.556 302.424C799.884 302.424 801.3 303.696 801.924 305.04V297.24H803.364V315H802.02L801.996 312.504C801.42 313.872 799.98 315.288 797.556 315.288ZM797.748 314.016C800.46 314.016 801.996 312.144 801.996 309.096V308.616C801.996 305.544 800.436 303.696 797.748 303.696C795.204 303.696 793.74 305.544 793.74 308.616V309.096C793.74 312.144 795.18 314.016 797.748 314.016ZM500.02 351.288C497.62 351.288 496.156 349.896 495.604 348.528L495.556 351H494.212V333.24H495.652V341.064C496.276 339.72 497.668 338.424 500.044 338.424C503.284 338.424 505.324 340.896 505.324 344.616V345.096C505.324 348.84 503.236 351.288 500.02 351.288ZM499.828 350.016C502.396 350.016 503.836 348.144 503.836 345.096V344.616C503.836 341.544 502.396 339.696 499.804 339.696C497.14 339.696 495.604 341.544 495.604 344.616V345.096C495.604 348.144 497.116 350.016 499.828 350.016ZM511.817 351.288C509.009 351.288 507.593 349.536 507.593 346.656V338.712H509.033V346.392C509.033 348.648 509.969 350.016 512.177 350.016C514.481 350.016 515.777 348.24 515.777 345.672V338.712H517.217V351H515.801L515.777 348.792C515.129 350.232 513.713 351.288 511.817 351.288ZM521.786 333.24V336.6H520.274V333.24H521.786ZM520.322 338.712H521.762V351H520.322V338.712ZM524.892 333.24H526.332V351H524.892V333.24ZM534.142 351.288C530.926 351.288 528.838 348.84 528.838 345.096V344.616C528.838 340.896 530.878 338.424 534.142 338.424C536.47 338.424 537.886 339.696 538.51 341.04V333.24H539.95V351H538.606L538.582 348.504C538.006 349.872 536.566 351.288 534.142 351.288ZM534.334 350.016C537.046 350.016 538.582 348.144 538.582 345.096V344.616C538.582 341.544 537.022 339.696 534.334 339.696C531.79 339.696 530.326 341.544 530.326 344.616V345.096C530.326 348.144 531.766 350.016 534.334 350.016ZM552.644 351.288C549.14 351.288 546.932 348.864 546.932 345.096V344.616C546.932 340.848 549.14 338.424 552.644 338.424C556.124 338.424 558.332 340.848 558.332 344.616V345.096C558.332 348.864 556.124 351.288 552.644 351.288ZM552.644 350.016C555.332 350.016 556.844 348.168 556.844 345.096V344.616C556.844 341.544 555.332 339.696 552.644 339.696C549.932 339.696 548.42 341.544 548.42 344.616V345.096C548.42 348.168 549.932 350.016 552.644 350.016ZM563.299 351H561.859V339.912H559.315V338.712H561.859V336.168C561.859 334.032 563.059 332.952 565.363 332.952C565.867 332.952 566.563 333.072 567.043 333.192V334.44C566.611 334.32 565.963 334.2 565.531 334.2C563.803 334.2 563.299 334.944 563.299 336.384V338.712H566.923V339.912H563.299V351ZM577.655 351H576.095L572.255 338.712H573.767L576.887 349.128L580.055 338.712H581.447L584.663 349.128L587.783 338.712H589.271L585.407 351H583.919L580.751 340.824L577.655 351ZM595.909 351.288C592.309 351.288 590.221 348.768 590.221 345.096V344.616C590.221 340.92 592.333 338.424 595.909 338.424C599.581 338.424 601.453 340.944 601.285 345.096H591.709V345.192C591.757 348.24 593.269 350.016 595.909 350.016C597.997 350.016 599.293 349.008 599.725 347.256H601.189C600.613 349.752 598.741 351.288 595.909 351.288ZM591.757 343.872H599.773V343.848C599.629 341.208 598.309 339.696 595.909 339.696C593.437 339.696 591.949 341.208 591.757 343.872ZM609.497 351.288C607.097 351.288 605.633 349.896 605.081 348.528L605.033 351H603.689V333.24H605.129V341.064C605.753 339.72 607.145 338.424 609.521 338.424C612.761 338.424 614.801 340.896 614.801 344.616V345.096C614.801 348.84 612.713 351.288 609.497 351.288ZM609.305 350.016C611.873 350.016 613.313 348.144 613.313 345.096V344.616C613.313 341.544 611.873 339.696 609.281 339.696C606.617 339.696 605.081 341.544 605.081 344.616V345.096C605.081 348.144 606.593 350.016 609.305 350.016ZM623.247 333.24V336.6H621.735V333.24H623.247ZM621.783 338.712H623.223V351H621.783V338.712ZM627.793 351H626.353V338.712H627.745L627.793 340.944C628.441 339.48 629.833 338.424 631.849 338.424C634.729 338.424 636.145 340.176 636.145 343.032V351H634.729V343.368C634.729 341.016 633.697 339.696 631.537 339.696C629.257 339.696 627.793 341.376 627.793 343.992V351ZM643.691 351.288C641.387 351.288 640.187 350.208 640.187 348.072V339.912H637.643V338.712H640.187V334.92H641.627V338.712H645.251V339.912H641.627V347.856C641.627 349.296 642.131 350.04 643.859 350.04C644.291 350.04 644.939 349.92 645.371 349.8V351.048C644.891 351.168 644.195 351.288 643.691 351.288ZM652.464 351.288C648.864 351.288 646.776 348.768 646.776 345.096V344.616C646.776 340.92 648.888 338.424 652.464 338.424C656.136 338.424 658.008 340.944 657.84 345.096H648.264V345.192C648.312 348.24 649.824 350.016 652.464 350.016C654.552 350.016 655.848 349.008 656.28 347.256H657.744C657.168 349.752 655.296 351.288 652.464 351.288ZM648.312 343.872H656.328V343.848C656.184 341.208 654.864 339.696 652.464 339.696C649.992 339.696 648.504 341.208 648.312 343.872ZM661.684 351H660.244V338.712H661.636L661.66 341.208C662.332 339.48 663.748 338.424 665.572 338.424C665.74 338.424 665.932 338.424 666.148 338.472V339.912C665.908 339.888 665.764 339.888 665.548 339.888C663.268 339.888 661.684 341.352 661.684 344.232V351ZM671.064 351H669.624V339.912H667.08V338.712H669.624V336.168C669.624 334.032 670.824 332.952 673.128 332.952C673.632 332.952 674.328 333.072 674.808 333.192V334.44C674.376 334.32 673.728 334.2 673.296 334.2C671.568 334.2 671.064 334.944 671.064 336.384V338.712H674.688V339.912H671.064V351ZM679.542 351.288C677.046 351.288 675.51 349.872 675.51 347.88C675.51 346.176 676.518 344.928 678.486 344.592L683.838 343.704V342.504C683.838 340.656 682.566 339.624 680.694 339.624C678.87 339.624 677.55 340.56 677.358 342.24H675.942C676.206 339.864 677.982 338.424 680.718 338.424C683.646 338.424 685.254 340.176 685.254 342.576V351H683.886L683.862 348.888C683.07 350.424 681.414 351.288 679.542 351.288ZM679.638 350.04C681.894 350.04 683.838 348.552 683.838 346.464V344.928L678.942 345.744C677.574 345.96 676.974 346.704 676.974 347.856C676.974 349.152 677.91 350.04 679.638 350.04ZM693.267 351.288C689.715 351.288 687.651 348.768 687.651 345.096V344.616C687.651 340.92 689.715 338.424 693.291 338.424C696.195 338.424 698.019 340.128 698.355 342.624H696.915C696.579 340.824 695.331 339.696 693.267 339.696C690.627 339.696 689.139 341.52 689.139 344.616V345.096C689.139 348.192 690.627 350.016 693.267 350.016C695.355 350.016 696.627 348.816 696.987 346.992H698.451C697.971 349.608 696.123 351.288 693.267 351.288ZM705.784 351.288C702.184 351.288 700.096 348.768 700.096 345.096V344.616C700.096 340.92 702.208 338.424 705.784 338.424C709.456 338.424 711.328 340.944 711.16 345.096H701.584V345.192C701.632 348.24 703.144 350.016 705.784 350.016C707.872 350.016 709.168 349.008 709.6 347.256H711.064C710.488 349.752 708.616 351.288 705.784 351.288ZM701.632 343.872H709.648V343.848C709.504 341.208 708.184 339.696 705.784 339.696C703.312 339.696 701.824 341.208 701.632 343.872ZM717.672 351.288C714.936 351.288 712.944 349.944 712.656 347.304H714.096C714.384 349.224 715.728 350.064 717.72 350.064C719.64 350.064 720.936 349.272 720.936 347.712C720.936 346.296 719.784 345.792 717.408 345.36C714.768 344.88 713.16 344.112 713.16 341.88C713.16 339.816 714.96 338.424 717.504 338.424C720.12 338.424 721.848 339.72 722.136 342.096H720.696C720.432 340.44 719.232 339.624 717.504 339.624C715.776 339.624 714.576 340.488 714.576 341.832C714.576 343.224 715.584 343.728 717.936 344.136C720.648 344.592 722.4 345.384 722.4 347.592C722.4 349.896 720.48 351.288 717.672 351.288Z" fill="#092E24"/>
<rect x="439.5" y="383" width="32" height="32" rx="16" fill="#EE7244"/>
<path d="M459.5 409H451.5C451.5 406 447.5 402 447.5 402L455.5 389L463.5 402C463.5 402 459.5 406 459.5 409Z" fill="white" stroke="#092E24" stroke-width="2" stroke-miterlimit="10" stroke-linecap="round" stroke-linejoin="round"/>
<path d="M459.5 409H451.5C451.5 406 447.5 402 447.5 402L455.5 389L463.5 402C463.5 402 459.5 406 459.5 409Z" fill="white" stroke="#092E24" stroke-width="2" stroke-miterlimit="10" stroke-linecap="round" stroke-linejoin="round"/>
<path d="M455.5 389V401" stroke="#092E24" stroke-width="2" stroke-miterlimit="10" stroke-linecap="round" stroke-linejoin="round"/>
<circle cx="455.5" cy="401" r="1" fill="#092E24" stroke="#092E24"/>
<path d="M450.5 409H460.5" stroke="#092E24" stroke-width="2" stroke-miterlimit="10" stroke-linecap="square" stroke-linejoin="round"/>
<path d="M488.932 399.23V399.95H482.272C482.38 401.66 483.334 402.578 484.846 402.578C486.142 402.578 487.024 402.002 487.114 400.958H488.932C488.86 402.938 487.24 404.144 484.81 404.144C482.002 404.144 480.238 402.416 480.238 399.626C480.238 396.746 482.002 394.964 484.81 394.964C487.33 394.964 488.932 396.458 488.932 399.23ZM487.114 398.726V398.6C487.114 397.268 486.286 396.53 484.828 396.53C483.442 396.53 482.56 397.25 482.326 398.726H487.114ZM489.388 404L492.754 399.446L489.532 395.108H492.088L494.284 398.312L496.408 395.108H498.694L495.436 399.446L498.856 404H496.3L493.996 400.67L491.782 404H489.388ZM500.302 407.564V395.108H502.318L502.282 397.178H502.3C502.66 395.828 503.848 394.964 505.612 394.964C508.15 394.964 509.752 396.71 509.752 399.392C509.752 402.272 508.132 404.144 505.576 404.144C503.812 404.144 502.66 403.352 502.282 402.2H502.264C502.282 402.794 502.318 403.712 502.318 404.072V407.564H500.302ZM505.18 402.488C506.728 402.488 507.736 401.3 507.736 399.446C507.736 397.736 506.746 396.62 505.144 396.62C503.47 396.62 502.354 397.754 502.318 399.536V400.004C502.318 401.516 503.452 402.488 505.18 402.488ZM511.552 404V391.526H513.568V404H511.552ZM520.038 404.144C517.212 404.144 515.394 402.398 515.394 399.572C515.394 396.728 517.212 394.964 520.038 394.964C522.882 394.964 524.7 396.728 524.7 399.572C524.7 402.398 522.882 404.144 520.038 404.144ZM520.038 402.488C521.676 402.488 522.684 401.372 522.684 399.572C522.684 397.754 521.676 396.62 520.038 396.62C518.4 396.62 517.41 397.754 517.41 399.572C517.41 401.372 518.4 402.488 520.038 402.488ZM526.422 404V395.108H528.438L528.366 397.664H528.384C528.798 396.062 529.716 394.964 531.552 394.964C533.478 394.964 534.54 396.224 534.54 398.438C534.54 398.996 534.486 399.716 534.45 400.094H532.614C532.65 399.752 532.686 399.302 532.686 398.888C532.686 397.394 532.11 396.692 530.922 396.692C529.392 396.692 528.438 397.988 528.438 400.112V404H526.422ZM544.69 399.23V399.95H538.03C538.138 401.66 539.092 402.578 540.604 402.578C541.9 402.578 542.782 402.002 542.872 400.958H544.69C544.618 402.938 542.998 404.144 540.568 404.144C537.76 404.144 535.996 402.416 535.996 399.626C535.996 396.746 537.76 394.964 540.568 394.964C543.088 394.964 544.69 396.458 544.69 399.23ZM542.872 398.726V398.6C542.872 397.268 542.044 396.53 540.586 396.53C539.2 396.53 538.318 397.25 538.084 398.726H542.872ZM554.516 404.144C551.942 404.144 550.322 402.272 550.322 399.5C550.322 396.818 551.996 394.964 554.642 394.964C556.316 394.964 557.36 395.63 557.72 396.674H557.738V391.526H559.754V404H557.738C557.774 403.478 557.792 402.704 557.828 401.84H557.792C557.45 403.244 556.334 404.144 554.516 404.144ZM554.93 402.488C556.622 402.488 557.738 401.372 557.738 399.644V399.212C557.738 397.628 556.64 396.62 554.966 396.62C553.364 396.62 552.32 397.808 552.32 399.5C552.32 401.264 553.346 402.488 554.93 402.488ZM570.248 399.23V399.95H563.588C563.696 401.66 564.65 402.578 566.162 402.578C567.458 402.578 568.34 402.002 568.43 400.958H570.248C570.176 402.938 568.556 404.144 566.126 404.144C563.318 404.144 561.554 402.416 561.554 399.626C561.554 396.746 563.318 394.964 566.126 394.964C568.646 394.964 570.248 396.458 570.248 399.23ZM568.43 398.726V398.6C568.43 397.268 567.602 396.53 566.144 396.53C564.758 396.53 563.876 397.25 563.642 398.726H568.43ZM575.89 404.144C572.83 404.144 571.732 402.776 571.732 401.03H573.55C573.55 402.056 574.144 402.686 575.872 402.686C577.51 402.686 578.23 402.182 578.23 401.372C578.23 401.03 578.104 400.724 577.636 400.562C577.204 400.4 576.358 400.31 575.368 400.22C573.982 400.094 573.046 399.914 572.506 399.518C572.02 399.158 571.732 398.51 571.732 397.826C571.732 396.044 573.46 394.964 575.872 394.964C578.644 394.964 579.868 396.116 579.868 398.132H578.05C578.032 396.98 577.402 396.422 575.926 396.422C574.522 396.422 573.73 396.926 573.73 397.682C573.73 398.06 573.82 398.42 574.342 398.6C574.774 398.744 575.62 398.834 576.7 398.942C577.96 399.068 578.68 399.194 579.31 399.554C579.904 399.878 580.246 400.562 580.246 401.282C580.246 403.082 578.734 404.144 575.89 404.144ZM582.041 394.064V392.084H584.111V394.064H582.041ZM582.059 404V395.108H584.075V404H582.059ZM592.362 402.596C594.27 402.596 595.368 403.424 595.368 404.846C595.368 406.718 593.622 407.834 590.688 407.834C587.682 407.834 585.882 406.916 585.882 405.314C585.882 404.414 586.548 403.748 587.61 403.694V403.676C587.106 403.334 586.836 402.848 586.836 402.218C586.836 401.462 587.178 400.94 587.664 400.706V400.67C586.782 400.13 586.296 399.248 586.296 398.132C586.296 396.188 587.808 394.964 590.256 394.964C591.264 394.964 592.092 395.162 592.74 395.54L592.758 395.522C592.488 395.234 592.326 394.892 592.326 394.514C592.326 393.794 593.01 393.344 594.072 393.344C594.504 393.344 594.756 393.38 594.972 393.434V394.856C594.828 394.802 594.63 394.766 594.378 394.766C593.784 394.766 593.496 395.018 593.496 395.504C593.496 395.756 593.586 396.062 593.694 396.404C594.036 396.872 594.216 397.466 594.216 398.132C594.216 400.094 592.704 401.3 590.256 401.3C589.68 401.3 589.158 401.228 588.69 401.102C588.582 401.228 588.474 401.48 588.474 401.786C588.474 402.29 588.834 402.596 589.482 402.596H592.362ZM590.256 396.404C588.996 396.404 588.222 397.07 588.222 398.132C588.222 399.194 588.996 399.86 590.256 399.86C591.516 399.86 592.29 399.194 592.29 398.132C592.29 397.07 591.516 396.404 590.256 396.404ZM590.67 406.412C592.56 406.412 593.352 405.872 593.352 405.08C593.352 404.486 592.902 404.162 591.948 404.162H589.536C588.528 404.162 587.88 404.468 587.88 405.152C587.88 405.998 588.96 406.412 590.67 406.412ZM596.946 404V395.108H598.962L598.89 397.484H598.908C599.394 395.882 600.546 394.964 602.616 394.964C604.866 394.964 606.252 396.242 606.252 398.438V404H604.236V398.888C604.236 397.484 603.444 396.692 601.842 396.692C600.078 396.692 598.962 397.754 598.962 399.698V404H596.946Z" fill="#092E24"/>
<rect x="623.5" y="383" width="32" height="32" rx="16" fill="#EFBE08"/>
<path d="M631.493 407C630.941 407 630.5 406.552 630.5 406V392C630.5 391.448 630.948 391 631.5 391C636.833 391 642.167 391 647.5 391C648.052 391 648.5 391.448 648.5 392V406C648.5 406.552 648.058 407 647.505 407C644.389 407 634.823 407 631.493 407Z" fill="white" stroke="#092E24" stroke-width="2" stroke-miterlimit="10" stroke-linecap="round" stroke-linejoin="round"/>
<path d="M634.5 399L636.5 401L634.5 403" stroke="#092E24" stroke-width="2" stroke-miterlimit="10" stroke-linecap="round" stroke-linejoin="round"/>
<path d="M639.5 403H642.5" stroke="#092E24" stroke-width="2" stroke-miterlimit="10" stroke-linecap="round" stroke-linejoin="round"/>
<path d="M672.932 399.23V399.95H666.272C666.38 401.66 667.334 402.578 668.846 402.578C670.142 402.578 671.024 402.002 671.114 400.958H672.932C672.86 402.938 671.24 404.144 668.81 404.144C666.002 404.144 664.238 402.416 664.238 399.626C664.238 396.746 666.002 394.964 668.81 394.964C671.33 394.964 672.932 396.458 672.932 399.23ZM671.114 398.726V398.6C671.114 397.268 670.286 396.53 668.828 396.53C667.442 396.53 666.56 397.25 666.326 398.726H671.114ZM673.388 404L676.754 399.446L673.532 395.108H676.088L678.284 398.312L680.408 395.108H682.694L679.436 399.446L682.856 404H680.3L677.996 400.67L675.782 404H673.388ZM684.302 407.564V395.108H686.318L686.282 397.178H686.3C686.66 395.828 687.848 394.964 689.612 394.964C692.15 394.964 693.752 396.71 693.752 399.392C693.752 402.272 692.132 404.144 689.576 404.144C687.812 404.144 686.66 403.352 686.282 402.2H686.264C686.282 402.794 686.318 403.712 686.318 404.072V407.564H684.302ZM689.18 402.488C690.728 402.488 691.736 401.3 691.736 399.446C691.736 397.736 690.746 396.62 689.144 396.62C687.47 396.62 686.354 397.754 686.318 399.536V400.004C686.318 401.516 687.452 402.488 689.18 402.488ZM695.552 404V391.526H697.568V404H695.552ZM704.038 404.144C701.212 404.144 699.394 402.398 699.394 399.572C699.394 396.728 701.212 394.964 704.038 394.964C706.882 394.964 708.7 396.728 708.7 399.572C708.7 402.398 706.882 404.144 704.038 404.144ZM704.038 402.488C705.676 402.488 706.684 401.372 706.684 399.572C706.684 397.754 705.676 396.62 704.038 396.62C702.4 396.62 701.41 397.754 701.41 399.572C701.41 401.372 702.4 402.488 704.038 402.488ZM710.422 404V395.108H712.438L712.366 397.664H712.384C712.798 396.062 713.716 394.964 715.552 394.964C717.478 394.964 718.54 396.224 718.54 398.438C718.54 398.996 718.486 399.716 718.45 400.094H716.614C716.65 399.752 716.686 399.302 716.686 398.888C716.686 397.394 716.11 396.692 714.922 396.692C713.392 396.692 712.438 397.988 712.438 400.112V404H710.422ZM728.69 399.23V399.95H722.03C722.138 401.66 723.092 402.578 724.604 402.578C725.9 402.578 726.782 402.002 726.872 400.958H728.69C728.618 402.938 726.998 404.144 724.568 404.144C721.76 404.144 719.996 402.416 719.996 399.626C719.996 396.746 721.76 394.964 724.568 394.964C727.088 394.964 728.69 396.458 728.69 399.23ZM726.872 398.726V398.6C726.872 397.268 726.044 396.53 724.586 396.53C723.2 396.53 722.318 397.25 722.084 398.726H726.872ZM738.678 404.144C736.068 404.144 734.322 402.398 734.322 399.554C734.322 396.71 736.104 394.964 738.786 394.964C741.27 394.964 742.89 396.404 742.89 398.762H741.072C741.054 397.43 740.19 396.62 738.84 396.62C737.292 396.62 736.338 397.718 736.338 399.554C736.338 401.372 737.274 402.488 738.768 402.488C740.19 402.488 741.072 401.696 741.09 400.382H742.908C742.908 402.758 741.216 404.144 738.678 404.144ZM749.073 404.144C746.247 404.144 744.429 402.398 744.429 399.572C744.429 396.728 746.247 394.964 749.073 394.964C751.917 394.964 753.735 396.728 753.735 399.572C753.735 402.398 751.917 404.144 749.073 404.144ZM749.073 402.488C750.711 402.488 751.719 401.372 751.719 399.572C751.719 397.754 750.711 396.62 749.073 396.62C747.435 396.62 746.445 397.754 746.445 399.572C746.445 401.372 747.435 402.488 749.073 402.488ZM759.381 404.144C756.807 404.144 755.187 402.272 755.187 399.5C755.187 396.818 756.861 394.964 759.507 394.964C761.181 394.964 762.225 395.63 762.585 396.674H762.603V391.526H764.619V404H762.603C762.639 403.478 762.657 402.704 762.693 401.84H762.657C762.315 403.244 761.199 404.144 759.381 404.144ZM759.795 402.488C761.487 402.488 762.603 401.372 762.603 399.644V399.212C762.603 397.628 761.505 396.62 759.831 396.62C758.229 396.62 757.185 397.808 757.185 399.5C757.185 401.264 758.211 402.488 759.795 402.488ZM775.114 399.23V399.95H768.454C768.562 401.66 769.516 402.578 771.028 402.578C772.324 402.578 773.206 402.002 773.296 400.958H775.114C775.042 402.938 773.422 404.144 770.992 404.144C768.184 404.144 766.42 402.416 766.42 399.626C766.42 396.746 768.184 394.964 770.992 394.964C773.512 394.964 775.114 396.458 775.114 399.23ZM773.296 398.726V398.6C773.296 397.268 772.468 396.53 771.01 396.53C769.624 396.53 768.742 397.25 768.508 398.726H773.296Z" fill="#092E24"/>
<path d="M272.115 555L272.115 543L278.109 533L272.115 523L272.115 511L344.228 525.438L382.001 533L344.228 540.563L272.115 555Z" stroke="#E8DCD9" stroke-width="2" stroke-linecap="round" stroke-linejoin="round"/>
<path d="M272.115 555L272.115 543L278.109 533L272.115 523L272.115 511L382.001 533L272.115 555Z" fill="white"/>
<path d="M272.115 511L272.115 523L321.064 533L272.115 543L272.115 555L382.001 533L272.115 511Z" fill="#F9F3F1"/>
<path d="M382.002 533L346.039 525.8L346.039 540.2L382.002 533Z" fill="#D9CBC8" stroke="#F9F3F1" stroke-width="2" stroke-linecap="round" stroke-linejoin="round"/>
<path d="M272.115 555L272.115 543L278.109 533L272.115 523L272.115 511L382.001 533L272.115 555Z" stroke="#A28F8C" stroke-width="2" stroke-linecap="round" stroke-linejoin="bevel"/>
<path d="M346.039 536.19L346.039 540.27L381.982 533L371.892 530.96L346.039 536.19Z" fill="#CBBAB7"/>
<path d="M382.002 533L346.039 525.8L346.039 540.2L382.002 533Z" stroke="#A28F8C" stroke-width="2" stroke-linecap="round" stroke-linejoin="round"/>
<path d="M-443.141 511L-443.141 554.91L272.115 555L277.11 548L272.115 543L278.109 533L272.115 523L277.11 518L272.115 511.09L-443.141 511Z" fill="#FCF9F8"/>
<path d="M272.115 511L-443.141 511L-443.141 523L272.115 523L277.11 518L272.115 511Z" fill="#F1E8E4"/>
<path d="M-443.141 543L-443.141 555L272.115 555L277.11 548L272.115 543L-443.141 543Z" fill="#E8DCD9"/>
<path d="M272.115 543L-443.141 543L-443.141 541L273.314 541L272.115 543Z" fill="white"/>
<path d="M273.314 525L-443.141 525L-443.141 523L272.115 523L273.314 525Z" fill="white"/>
<path d="M-443.141 511L-443.141 555L272.115 555L277.11 548L272.615 543L278.608 533L272.115 523L277.11 518L272.115 511L-443.141 511Z" stroke="#A28F8C" stroke-width="2" stroke-linejoin="round"/>
<path d="M624 666C624 657.716 630.716 651 639 651H654V666C654 674.284 647.284 681 639 681C630.716 681 624 674.284 624 666Z" fill="white"/>
<path fill-rule="evenodd" clip-rule="evenodd" d="M624.132 664C624.045 664.654 624 665.322 624 666C624 674.284 630.716 681 639 681C647.284 681 654 674.284 654 666V662C654 670.284 647.284 677 639 677C631.394 677 625.11 671.339 624.132 664Z" fill="#F1E8E4"/>
<path fill-rule="evenodd" clip-rule="evenodd" d="M639 651C630.716 651 624 657.716 624 666C624 666.678 624.045 667.346 624.132 668C625.11 660.661 631.394 655 639 655H654V651H639Z" fill="white"/>
<path d="M624 666C624 657.716 630.716 651 639 651H654V666C654 674.284 647.284 681 639 681V681C630.716 681 624 674.284 624 666V666Z" stroke="#A28F8C" stroke-width="2"/>
<path d="M624 606C624 597.716 630.716 591 639 591H654V621H639C630.716 621 624 614.284 624 606Z" fill="white"/>
<path fill-rule="evenodd" clip-rule="evenodd" d="M624.132 604C624.045 604.654 624 605.322 624 606C624 614.284 630.716 621 639 621H654V617H639C631.394 617 625.11 611.339 624.132 604Z" fill="#F1E8E4"/>
<path fill-rule="evenodd" clip-rule="evenodd" d="M639 591C630.716 591 624 597.716 624 606C624 606.678 624.045 607.346 624.132 608C625.11 600.661 631.394 595 639 595H654V591H639Z" fill="white"/>
<path d="M624 606C624 597.716 630.716 591 639 591H654V621H639C630.716 621 624 614.284 624 606V606Z" stroke="#A28F8C" stroke-width="2"/>
<path d="M684 606C684 597.716 677.284 591 669 591H654V621H669C677.284 621 684 614.284 684 606Z" fill="white"/>
<path fill-rule="evenodd" clip-rule="evenodd" d="M683.868 604C683.955 604.654 684 605.322 684 606C684 614.284 677.284 621 669 621H654V617H669C676.606 617 682.89 611.339 683.868 604Z" fill="#F1E8E4"/>
<path fill-rule="evenodd" clip-rule="evenodd" d="M669 591C677.284 591 684 597.716 684 606C684 606.678 683.955 607.346 683.868 608C682.89 600.661 676.606 595 669 595H654V591H669Z" fill="white"/>
<path d="M684 606C684 597.716 677.284 591 669 591H654V621H669C677.284 621 684 614.284 684 606V606Z" stroke="#A28F8C" stroke-width="2"/>
<path d="M624 636C624 627.716 630.716 621 639 621H654V651H639C630.716 651 624 644.284 624 636Z" fill="white"/>
<path fill-rule="evenodd" clip-rule="evenodd" d="M624.132 634C624.045 634.654 624 635.322 624 636C624 644.284 630.716 651 639 651H654V647H639C631.394 647 625.11 641.339 624.132 634Z" fill="#F1E8E4"/>
<path fill-rule="evenodd" clip-rule="evenodd" d="M639 621C630.716 621 624 627.716 624 636C624 636.678 624.045 637.346 624.132 638C625.11 630.661 631.394 625 639 625H654V621H639Z" fill="white"/>
<path d="M624 636C624 627.716 630.716 621 639 621H654V651H639C630.716 651 624 644.284 624 636V636Z" stroke="#A28F8C" stroke-width="2"/>
<path d="M654 636C654 627.716 660.716 621 669 621C677.284 621 684 627.716 684 636C684 644.284 677.284 651 669 651C660.716 651 654 644.284 654 636Z" fill="white"/>
<path fill-rule="evenodd" clip-rule="evenodd" d="M654.132 634C654.045 634.654 654 635.322 654 636C654 644.284 660.716 651 669 651C677.284 651 684 644.284 684 636C684 635.322 683.955 634.654 683.868 634C682.89 641.339 676.606 647 669 647C661.394 647 655.11 641.339 654.132 634Z" fill="#F1E8E4"/>
<path fill-rule="evenodd" clip-rule="evenodd" d="M669 621C660.716 621 654 627.716 654 636C654 636.678 654.045 637.346 654.132 638C655.11 630.661 661.394 625 669 625C676.606 625 682.89 630.661 683.868 638C683.955 637.346 684 636.678 684 636C684 627.716 677.284 621 669 621Z" fill="white"/>
<rect x="654" y="621" width="30" height="30" rx="15" stroke="#A28F8C" stroke-width="2"/>
<circle cx="464" cy="576" r="44" fill="#F9F3F1"/>
<circle cx="464" cy="576" r="39" stroke="white" stroke-width="3" stroke-miterlimit="10"/>
<path d="M503 576C503 565.657 498.891 555.737 491.577 548.423C484.263 541.109 474.343 537 464 537C453.657 537 443.737 541.109 436.423 548.423C429.109 555.737 425 565.657 425 576L464 576H503Z" stroke="#E8DCD9" stroke-width="3" stroke-miterlimit="10"/>
<circle cx="464" cy="576" r="37" fill="white" stroke="#A28F8C" stroke-width="2" stroke-miterlimit="10"/>
<line x1="495" y1="577" x2="489" y2="577" stroke="#A28F8C" stroke-width="2" stroke-linecap="round" stroke-linejoin="round"/>
<line x1="485.213" y1="598.627" x2="480.97" y2="594.385" stroke="#A28F8C" stroke-width="2" stroke-linecap="round" stroke-linejoin="round"/>
<line x1="439" y1="577" x2="433" y2="577" stroke="#A28F8C" stroke-width="2" stroke-linecap="round" stroke-linejoin="round"/>
<line x1="445.615" y1="559.029" x2="441.372" y2="554.787" stroke="#A28F8C" stroke-width="2" stroke-linecap="round" stroke-linejoin="round"/>
<line x1="463" y1="607" x2="463" y2="601" stroke="#A28F8C" stroke-width="2" stroke-linecap="round" stroke-linejoin="round"/>
<line x1="463" y1="551" x2="463" y2="545" stroke="#A28F8C" stroke-width="2" stroke-linecap="round" stroke-linejoin="round"/>
<line x1="441.373" y1="597.213" x2="445.616" y2="592.97" stroke="#A28F8C" stroke-width="2" stroke-linecap="round" stroke-linejoin="round"/>
<line x1="480.971" y1="557.615" x2="485.213" y2="553.372" stroke="#A28F8C" stroke-width="2" stroke-linecap="round" stroke-linejoin="round"/>
<line x1="437.153" y1="592.5" x2="438.885" y2="591.5" stroke="#D9CBC8" stroke-width="2" stroke-linecap="round" stroke-linejoin="round"/>
<line x1="489.114" y1="562.5" x2="490.846" y2="561.5" stroke="#D9CBC8" stroke-width="2" stroke-linecap="round" stroke-linejoin="round"/>
<line x1="434.057" y1="585.023" x2="435.989" y2="584.506" stroke="#D9CBC8" stroke-width="2" stroke-linecap="round" stroke-linejoin="round"/>
<line x1="492.012" y1="569.494" x2="493.944" y2="568.977" stroke="#D9CBC8" stroke-width="2" stroke-linecap="round" stroke-linejoin="round"/>
<line x1="434.057" y1="568.977" x2="435.989" y2="569.494" stroke="#D9CBC8" stroke-width="2" stroke-linecap="round" stroke-linejoin="round"/>
<line x1="492.012" y1="584.506" x2="493.944" y2="585.023" stroke="#D9CBC8" stroke-width="2" stroke-linecap="round" stroke-linejoin="round"/>
<line x1="437.153" y1="561.5" x2="438.885" y2="562.5" stroke="#D9CBC8" stroke-width="2" stroke-linecap="round" stroke-linejoin="round"/>
<line x1="489.114" y1="591.5" x2="490.846" y2="592.5" stroke="#D9CBC8" stroke-width="2" stroke-linecap="round" stroke-linejoin="round"/>
<line x1="471.023" y1="605.944" x2="470.506" y2="604.012" stroke="#D9CBC8" stroke-width="2" stroke-linecap="round" stroke-linejoin="round"/>
<line x1="455.494" y1="547.988" x2="454.976" y2="546.056" stroke="#D9CBC8" stroke-width="2" stroke-linecap="round" stroke-linejoin="round"/>
<line x1="478.501" y1="602.847" x2="477.501" y2="601.115" stroke="#D9CBC8" stroke-width="2" stroke-linecap="round" stroke-linejoin="round"/>
<line x1="448.501" y1="550.885" x2="447.501" y2="549.153" stroke="#D9CBC8" stroke-width="2" stroke-linecap="round" stroke-linejoin="round"/>
<line x1="447.501" y1="602.847" x2="448.501" y2="601.115" stroke="#D9CBC8" stroke-width="2" stroke-linecap="round" stroke-linejoin="round"/>
<line x1="477.501" y1="550.885" x2="478.501" y2="549.153" stroke="#D9CBC8" stroke-width="2" stroke-linecap="round" stroke-linejoin="round"/>
<line x1="454.976" y1="605.944" x2="455.494" y2="604.012" stroke="#D9CBC8" stroke-width="2" stroke-linecap="round" stroke-linejoin="round"/>
<line x1="470.506" y1="547.988" x2="471.023" y2="546.056" stroke="#D9CBC8" stroke-width="2" stroke-linecap="round" stroke-linejoin="round"/>
<path d="M442 598L464 576" stroke="#E8DCD9" stroke-width="6" stroke-miterlimit="10" stroke-linecap="round" stroke-linejoin="round"/>
<path d="M464 576L486 554" stroke="#CBBAB7" stroke-width="6" stroke-linecap="round" stroke-linejoin="round"/>
<circle cx="464" cy="576" r="37" stroke="#A28F8C" stroke-width="2" stroke-miterlimit="10"/>
<circle cx="464" cy="576" r="44" stroke="#A28F8C" stroke-width="2"/>
<rect x="851.348" y="516.089" width="84" height="84" rx="16" transform="rotate(-15 851.348 516.089)" fill="#F4D340" stroke="#DD8E00" stroke-width="2"/>
<rect x="851.348" y="516.089" width="84" height="84" rx="16" transform="rotate(-15 851.348 516.089)" fill="#E8DCD9" stroke="#CB7100" stroke-width="2"/>
<rect x="851.348" y="516.089" width="84" height="78" rx="16" transform="rotate(-15 851.348 516.089)" fill="#E8DCD9" stroke="#A28F8C" stroke-width="2"/>
<rect x="851.348" y="516.089" width="84" height="72" rx="16" transform="rotate(-15 851.348 516.089)" fill="#E8DCD9" stroke="#A28F8C" stroke-width="2"/>
<g opacity="0.4">
<path fill-rule="evenodd" clip-rule="evenodd" d="M925.041 570.883L935.666 568.036C944.201 565.749 949.267 556.976 946.98 548.44L944.133 537.815C945.419 542.616 942.57 547.551 937.769 548.838C932.968 550.124 930.118 555.059 931.405 559.861C932.691 564.662 929.842 569.597 925.041 570.883Z" fill="#A28F8C"/>
<path d="M935.537 567.553L924.911 570.4L925.17 571.366L935.795 568.519L935.537 567.553ZM946.497 548.57C948.712 556.839 943.805 565.338 935.537 567.553L935.795 568.519C944.598 566.161 949.821 557.113 947.463 548.311L946.497 548.57ZM943.65 537.945L946.497 548.57L947.463 548.311L944.616 537.686L943.65 537.945ZM943.65 537.945C944.865 542.479 942.174 547.14 937.639 548.355L937.898 549.321C942.966 547.963 945.974 542.754 944.616 537.686L943.65 537.945ZM937.639 548.355C932.571 549.713 929.564 554.922 930.922 559.99L931.888 559.731C930.673 555.197 933.364 550.536 937.898 549.321L937.639 548.355ZM930.922 559.99C932.137 564.525 929.446 569.185 924.911 570.4L925.17 571.366C930.238 570.008 933.246 564.799 931.888 559.731L930.922 559.99Z" fill="#A28F8C"/>
</g>
<path d="M855.489 531.544C853.202 523.009 858.267 514.235 866.802 511.948L917.031 498.49C925.566 496.203 934.339 501.268 936.627 509.803L942.838 532.986C947.412 550.057 937.282 567.603 920.211 572.177L885.437 581.495C876.902 583.782 868.129 578.717 865.842 570.181L855.489 531.544Z" fill="#E8DCD9"/>
<path d="M855.489 531.544C853.202 523.009 858.267 514.235 866.802 511.948L917.583 498.342C925.813 496.136 934.273 501.021 936.479 509.251L944.132 537.815C945.419 542.616 942.57 547.551 937.768 548.838C932.967 550.124 930.118 555.059 931.404 559.861C932.691 564.662 929.842 569.597 925.04 570.883L885.437 581.495C876.902 583.782 868.129 578.717 865.842 570.181L855.489 531.544Z" fill="white" stroke="#A28F8C" stroke-width="2"/>
<rect x="851.348" y="516.089" width="84" height="84" rx="16" transform="rotate(-15 851.348 516.089)" stroke="#A28F8C" stroke-width="2"/>
<path fill-rule="evenodd" clip-rule="evenodd" d="M562.678 465.749L583.184 521.61C583.184 521.61 602.901 518.7 614.296 530.096L634.095 510.297C622.7 498.901 625.61 479.184 625.61 479.184L569.749 458.678L567.627 460.799L598.274 491.446C600.505 490.381 603.257 490.772 605.104 492.619C607.447 494.962 607.447 498.761 605.104 501.104C602.761 503.447 598.962 503.447 596.619 501.104C594.772 499.257 594.381 496.505 595.446 494.275L564.799 463.628L562.678 465.749Z" fill="white"/>
<path d="M583.184 521.61C583.184 521.61 602.902 518.7 614.297 530.096L634.096 510.297C622.701 498.901 625.611 479.184 625.611 479.184L617.125 476.355L619.342 497.78C620.386 507.88 611.88 516.386 601.78 515.341L580.356 513.125L583.184 521.61Z" fill="#F9F3F1"/>
<path d="M562.678 465.749L583.184 521.61C583.184 521.61 602.901 518.7 614.296 530.096L634.095 510.297C622.7 498.901 625.61 479.184 625.61 479.184L569.749 458.678L567.627 460.799L598.274 491.446C600.505 490.381 603.257 490.772 605.104 492.619C607.447 494.962 607.447 498.761 605.104 501.104C602.761 503.447 598.962 503.447 596.619 501.104C594.772 499.257 594.381 496.505 595.446 494.275L564.799 463.628L562.678 465.749Z" stroke="#A28F8C" stroke-width="2" stroke-linejoin="round"/>
<rect x="612.176" y="532.217" width="34" height="16" rx="2" transform="rotate(-45 612.176 532.217)" fill="#E8DCD9"/>
<rect x="616.418" y="527.974" width="2" height="16" transform="rotate(-45 616.418 527.974)" fill="#F1E8E4"/>
<rect x="630.561" y="513.832" width="2" height="16" transform="rotate(-45 630.561 513.832)" fill="#F1E8E4"/>
<rect x="612.176" y="532.217" width="6" height="16" transform="rotate(-45 612.176 532.217)" fill="#D9CBC8"/>
<rect x="631.975" y="512.418" width="6" height="16" transform="rotate(-45 631.975 512.418)" fill="#D9CBC8"/>
<rect x="612.176" y="532.217" width="34" height="16" rx="2" transform="rotate(-45 612.176 532.217)" stroke="#A28F8C" stroke-width="2" stroke-linejoin="round"/>
<rect x="713" y="479" width="90" height="82" rx="8" fill="#FCF9F8"/>
<path d="M715 552V553C715 556.314 717.686 559 721 559H795C798.314 559 801 556.314 801 553V552" stroke="#F1E8E4" stroke-width="4" stroke-miterlimit="10"/>
<path d="M801 490V487C801 483.686 798.314 481 795 481H721C717.686 481 715 483.686 715 487V490" stroke="white" stroke-width="4" stroke-miterlimit="10"/>
<rect x="718" y="484" width="80" height="72" rx="3" fill="white"/>
<rect x="718" y="484" width="80" height="72" rx="3" stroke="#A28F8C" stroke-width="2"/>
<rect x="713" y="479" width="90" height="82" rx="8" stroke="#A28F8C" stroke-width="2"/>
<path d="M728 538L732 542L728 546" stroke="#756362" stroke-width="2" stroke-miterlimit="10" stroke-linecap="round" stroke-linejoin="round"/>
<path d="M737 546H745" stroke="#756362" stroke-width="2" stroke-miterlimit="10" stroke-linecap="round" stroke-linejoin="round"/>
<rect x="736" y="496" width="16" height="2" rx="1" fill="#E8DCD9"/>
<rect x="728" y="496" width="4" height="2" rx="1" fill="#CBBAB7"/>
<rect x="728" y="502" width="8" height="2" rx="1" fill="#A28F8C"/>
<rect x="740" y="502" width="16" height="2" rx="1" fill="#CBBAB7"/>
<rect x="756" y="496" width="2" height="2" rx="1" fill="#E8DCD9"/>
<rect x="728" y="508" width="4" height="2" rx="1" fill="#E8DCD9"/>
<rect x="760" y="502" width="2" height="2" rx="1" fill="#A28F8C"/>
<path d="M843.912 706.539L850.983 699.468L858.054 698.054L859.469 690.983L866.54 683.912L883.51 723.51L843.912 706.539Z" fill="white"/>
<path d="M866.54 683.912L862.499 687.952L872.903 712.903L847.953 702.498L843.912 706.539L883.51 723.51L866.54 683.912Z" fill="#F9F3F1"/>
<path d="M843.912 706.539L850.781 699.67L857.877 697.877L859.67 690.781L866.54 683.912L883.51 723.51L843.912 706.539Z" stroke="#A28F8C" stroke-width="2" stroke-linecap="round" stroke-linejoin="round"/>
<path d="M883.509 723.509L879.266 713.61L873.609 719.267L883.509 723.509Z" fill="#D9CBC8" stroke="#A28F8C" stroke-width="2" stroke-linecap="round" stroke-linejoin="round"/>
<path d="M883.509 723.509L879.266 713.61L873.609 719.267L883.509 723.509Z" stroke="#A28F8C" stroke-width="2" stroke-linecap="round" stroke-linejoin="round"/>
<path d="M807.143 669.77L829.77 647.142L866.54 683.912L865.125 689.569L860.176 690.276L858.054 698.054L850.276 700.175L850.276 704.418L843.912 706.539L807.143 669.77Z" fill="#FCF9F8"/>
<path d="M824.113 652.799L829.77 647.142L866.54 683.912L865.126 689.568L861.59 690.276L824.113 652.799Z" fill="#F1E8E4"/>
<path d="M823.406 654.92L824.82 653.506L861.59 690.276L859.568 691.082L823.406 654.92Z" fill="white"/>
<path d="M807.143 669.77L812.799 664.113L850.276 701.589L850.276 704.418L843.912 706.539L807.143 669.77Z" fill="#F1E8E4"/>
<path d="M812.799 664.113L814.213 662.698L851.69 700.175L850.275 701.589L812.799 664.113Z" fill="white"/>
<path d="M797.243 659.87C794.899 657.527 794.899 653.728 797.243 651.385L811.385 637.243C813.728 634.9 817.527 634.9 819.87 637.243L829.77 647.142L807.142 669.77L797.243 659.87Z" fill="#F1E8E4"/>
<path d="M797.243 659.87C794.899 657.527 794.899 653.728 797.243 651.385L798.657 649.971L812.799 664.113L807.142 669.77L797.243 659.87Z" fill="#E8DCD9"/>
<path d="M809.971 638.657L811.385 637.243C813.728 634.9 817.527 634.9 819.87 637.243L829.77 647.142L824.113 652.799L809.971 638.657Z" fill="#E8DCD9"/>
<rect x="809.264" y="640.778" width="2" height="18" transform="rotate(-45 809.264 640.778)" fill="#F9F3F1"/>
<rect x="799.363" y="650.678" width="2" height="18" transform="rotate(-45 799.363 650.678)" fill="#F9F3F1"/>
<path d="M797.243 659.87C794.899 657.527 794.899 653.728 797.243 651.385L811.385 637.243C813.728 634.9 817.527 634.9 819.87 637.243L829.77 647.142L807.142 669.77L797.243 659.87Z" stroke="#A28F8C" stroke-width="2" stroke-linejoin="round"/>
<path d="M807.143 669.77L829.77 647.142L866.54 683.912L865.125 689.569L860.176 690.276L858.054 698.054L850.276 700.175V704.418L843.912 706.539L807.143 669.77Z" stroke="#A28F8C" stroke-width="2" stroke-linejoin="round"/>
<path d="M352 592L364.237 621.529L396 624.085L371.8 644.891L379.193 676L352 659.329L324.807 676L332.2 644.891L308 624.085L339.763 621.529L352 592Z" fill="#F9F3F1"/>
<path d="M396 624.085L371.8 644.891L379.193 676L352 659.329L324.807 676L332.2 644.891L308 624.085L352 642.5L396 624.085Z" fill="#E8DCD9"/>
<path d="M352 592L352 642" stroke="white" stroke-width="2"/>
<path d="M352 642L326 674" stroke="#FCF9F8" stroke-width="2"/>
<path d="M352 642L378 674" stroke="#FCF9F8" stroke-width="2"/>
<path d="M396 624.085L371.8 644.891L379.193 676L352 659.329L324.807 676L332.2 644.891L308 624.085L352 642.5L396 624.085Z" stroke="white" stroke-width="2"/>
<path d="M352 592L364.237 621.529L396 624.085L371.8 644.891L379.194 676L352 659.329L324.807 676L332.2 644.891L308 624.085L339.763 621.529L352 592Z" stroke="#A28F8C" stroke-width="2"/>
<path d="M569 607.5H569.5V607V593V592.5H569H555H554.5V593V607V607.5H555H569ZM554 589.5H570C571.424 589.5 572.5 590.576 572.5 592V608C572.5 609.424 571.424 610.5 570 610.5H554C552.576 610.5 551.5 609.424 551.5 608V592C551.5 590.576 552.576 589.5 554 589.5Z" fill="#F4D340" stroke="#B15A00"/>
<path d="M570 589H554C552.3 589 551 590.3 551 592V608C551 609.7 552.3 611 554 611H570C571.7 611 573 609.7 573 608V592C573 590.3 571.7 589 570 589ZM569 607H555V593H569V607Z" fill="white" stroke="#A28F8C" stroke-width="2" stroke-miterlimit="10" stroke-linecap="round" stroke-linejoin="round"/>
<path d="M562 603H546C544.3 603 543 601.7 543 600V584C543 582.3 544.3 581 546 581H562C563.7 581 565 582.3 565 584V600C565 601.7 563.7 603 562 603Z" fill="#F9F3F1"/>
<path d="M562 581H546C544.3 581 543 582.3 543 584V587C543 585.3 544.3 584 546 584H562C563.7 584 565 585.3 565 587V584C565 582.3 563.7 581 562 581Z" fill="white"/>
<path d="M562 600H546C544.3 600 543 598.7 543 597V600C543 601.7 544.3 603 546 603H562C563.7 603 565 601.7 565 600V597C565 598.7 563.7 600 562 600Z" fill="#E8DCD9"/>
<path d="M562 603H546C544.3 603 543 601.7 543 600V584C543 582.3 544.3 581 546 581H562C563.7 581 565 582.3 565 584V600C565 601.7 563.7 603 562 603Z" stroke="#A28F8C" stroke-width="2" stroke-miterlimit="10" stroke-linecap="round" stroke-linejoin="round"/>
<path d="M946 647L939 640C942.9 636.1 955 624.2 958.4 627.6C961.8 631 949.9 643.1 946 647Z" fill="#F9F3F1"/>
<path d="M958.399 627.6C959.099 628.3 959.099 629.5 958.799 630.4C958.499 631.4 958.099 632.3 957.599 633.1C956.599 634.8 955.399 636.5 954.099 638C951.599 641.1 948.799 644 945.999 646.9C945.399 647.5 944.499 647.5 943.899 646.9C943.299 646.3 943.299 645.4 943.899 644.8C946.699 642 949.399 639.1 951.799 636.2C952.999 634.7 954.099 633.2 954.999 631.7C955.399 631 955.799 630.2 955.899 629.7C955.999 629.4 955.999 629.2 955.999 629.3C955.999 629.3 956.099 629.6 956.299 629.8C955.699 629.2 955.699 628.3 956.299 627.7C956.799 627 957.799 627 958.399 627.6Z" fill="#E8DCD9"/>
<path d="M939.083 639.981L935.053 644.012L942.053 651.012L946.083 646.982L939.083 639.981Z" fill="#F9F3F1"/>
<path d="M943.87 644.825L939.84 648.855L941.961 650.977L945.992 646.946L943.87 644.825Z" fill="#E8DCD9"/>
<path d="M939.001 640C941.501 637.5 944.101 635 946.901 632.7C948.301 631.6 949.701 630.4 951.201 629.4C952.701 628.4 954.301 627.5 956.001 627.1C956.801 626.9 957.601 627.4 957.801 628.2C958.001 629 957.501 629.7 956.801 630L956.601 630.1C956.201 630.2 955.601 630.4 954.901 630.8C954.601 631 954.201 631.1 953.901 631.4C953.601 631.6 953.201 631.8 952.901 632C951.501 632.9 950.201 634 948.901 635.1C946.301 637.3 943.701 639.7 941.201 642.2C940.601 642.8 939.701 642.8 939.101 642.2C938.501 641.6 938.401 640.6 939.001 640Z" fill="white"/>
<path d="M939.032 640.017L935.002 644.047L937.123 646.169L941.154 642.138L939.032 640.017Z" fill="white"/>
<path d="M936 645C934 645 931.9 646.1 931 647C929 649 929 655 929 657C931 657 937 657 939 655C939.9 654.1 941 652 941 650L936 645Z" fill="#F9F3F1"/>
<path d="M930 654C931.1 654 932.2 653.9 933.2 653.8C934.2 653.7 935.2 653.5 936 653.3C936.4 653.2 936.7 653 936.8 652.9C936.9 652.8 936.8 652.9 936.9 652.8C937 652.7 937.1 652.6 937.1 652.5C937.5 651.9 937.8 651.1 937.9 650.5C938 649.7 938.8 649.1 939.6 649.2C940.4 649.3 941 650.1 940.9 650.9C940.7 652 940.3 653.1 939.6 654.1C939 655.1 937.9 655.7 936.8 656.1C935.7 656.5 934.5 656.6 933.4 656.8C932.3 656.9 931.2 657 930 657C929.2 657 928.5 656.3 928.5 655.5C928.5 654.7 929.1 654 930 654Z" fill="#E8DCD9"/>
<path d="M935.5 648C934.9 648.1 934.1 648.4 933.5 648.8C933.4 648.9 933.2 649 933.2 649C933.1 649.1 933.2 649 933.1 649.1C933 649.2 932.9 649.6 932.7 649.9C932.4 650.7 932.3 651.7 932.2 652.7C932.1 653.7 932 654.8 932 655.9C932 656.7 931.3 657.4 930.5 657.4C929.7 657.4 929 656.7 929 655.9C929 654.7 929.1 653.6 929.2 652.4C929.3 651.3 929.5 650.1 929.9 649C930.2 647.9 930.8 646.8 931.9 646.2C932.9 645.6 934 645.1 935.1 644.9C935.9 644.8 936.7 645.3 936.8 646.1C936.9 647.1 936.3 647.9 935.5 648Z" fill="white"/>
<path d="M939.031 640.033L935.033 644.031L942.033 651.031L946.031 647.033L939.031 640.033Z" stroke="#A28F8C" stroke-width="2" stroke-miterlimit="10" stroke-linecap="round" stroke-linejoin="round"/>
<path d="M936 645C934 645 931.9 646.1 931 647C929 649 929 655 929 657C931 657 937 657 939 655C939.9 654.1 941 652 941 650L936 645Z" stroke="#A28F8C" stroke-width="2" stroke-miterlimit="10" stroke-linecap="round" stroke-linejoin="round"/>
<path d="M946 647L939 640C942.9 636.1 955 624.2 958.4 627.6C961.8 631 949.9 643.1 946 647Z" stroke="#A28F8C" stroke-width="2" stroke-miterlimit="10" stroke-linecap="round" stroke-linejoin="round"/>
<path d="M450 480C450 480 449.7 474 442 474C442 475.9 442 494 442 494L446 495V499H430V494L434 493C434 493 434 475.9 434 474C426.3 474 426 480 426 480H423V469H453V480H450Z" fill="#F9F3F1"/>
<path d="M430.4 493.9L434 493C434.8 492.8 435.6 493.3 435.8 494.1C436 494.9 435.5 495.7 434.7 495.9L431.1 496.8C430.3 497 429.5 496.5 429.3 495.7C429.1 494.9 429.6 494.1 430.4 493.9Z" fill="white"/>
<path d="M442 493L445.7 493.9C446.5 494.1 447 494.9 446.8 495.7C446.6 496.5 445.8 497 445 496.8L441.3 495.9C440.5 495.7 440 494.9 440.2 494.1C440.4 493.3 441.2 492.8 442 493Z" fill="white"/>
<path d="M453 469H423V472H453V469Z" fill="white"/>
<path d="M450 481C450 481 449.7 475 442 475C442 476.9 442 493 442 493L446 494V499H430V494L434 493C434 493 434 476.9 434 475C426.3 475 426 481 426 481H423V469H453V481H450Z" stroke="#A28F8C" stroke-width="2" stroke-miterlimit="10" stroke-linecap="round" stroke-linejoin="round"/>
<path d="M469 657L480 687L485 673L499 666.6L469 657Z" fill="#F9F3F1"/>
<path d="M495.25 667.5L470.875 659.7" stroke="white" stroke-width="2" stroke-miterlimit="10" stroke-linecap="square" stroke-linejoin="round"/>
<path d="M478.199 683.2L482.199 672C482.599 670.8 483.799 670 484.999 670H485.999C486.799 670 487.499 670.7 487.499 671.5C487.499 672.3 486.799 673 485.999 673H484.999L480.999 684.2C480.699 685 479.899 685.4 479.099 685.1C478.299 684.9 477.899 684 478.199 683.2Z" fill="#E8DCD9"/>
<path d="M469 657L480 687L485 673L499 666.6L469 657Z" stroke="#A28F8C" stroke-width="2" stroke-miterlimit="10" stroke-linecap="round" stroke-linejoin="round"/>
<rect x="740" y="619.858" width="8" height="8" transform="rotate(45 740 619.858)" fill="#F1E8E4" stroke="#A28F8C" stroke-width="2" stroke-linejoin="round"/>
<rect x="731.516" y="628.343" width="8" height="8" transform="rotate(45 731.516 628.343)" fill="#F1E8E4" stroke="#A28F8C" stroke-width="2" stroke-linejoin="round"/>
<rect x="748.484" y="628.343" width="8" height="8" transform="rotate(45 748.484 628.343)" fill="#F1E8E4" stroke="#A28F8C" stroke-width="2" stroke-linejoin="round"/>
<rect x="740" y="636.828" width="8" height="8" transform="rotate(45 740 636.828)" fill="#F1E8E4" stroke="#A28F8C" stroke-width="2" stroke-linejoin="round"/>
<path d="M731.5 628.5L737 634H726L731.5 628.5Z" fill="white"/>
<path d="M740.5 620L746 625.5H735L740.5 620Z" fill="white"/>
<path d="M748.5 628.5L754 634H743L748.5 628.5Z" fill="white"/>
<path d="M739.5 637L745 642.5H734L739.5 637Z" fill="white"/>
<rect x="740" y="619.858" width="8" height="8" transform="rotate(45 740 619.858)" stroke="#A28F8C" stroke-width="2" stroke-linejoin="round"/>
<rect x="731.516" y="628.343" width="8" height="8" transform="rotate(45 731.516 628.343)" stroke="#A28F8C" stroke-width="2" stroke-linejoin="round"/>
<rect x="748.484" y="628.343" width="8" height="8" transform="rotate(45 748.484 628.343)" stroke="#A28F8C" stroke-width="2" stroke-linejoin="round"/>
<rect x="740" y="636.828" width="8" height="8" transform="rotate(45 740 636.828)" stroke="#A28F8C" stroke-width="2" stroke-linejoin="round"/>
<rect x="896" y="316" width="594" height="122" rx="18" fill="#FCF9F8"/>
<path d="M929 437V413" stroke="#D9CBC8" stroke-width="2" stroke-miterlimit="10"/>
<path d="M967 437V413" stroke="#D9CBC8" stroke-width="2" stroke-miterlimit="10"/>
<path d="M1005 437V413" stroke="#D9CBC8" stroke-width="2" stroke-miterlimit="10"/>
<path d="M1043 437V413" stroke="#D9CBC8" stroke-width="2" stroke-miterlimit="10"/>
<path d="M1081 437V413" stroke="#D9CBC8" stroke-width="2" stroke-miterlimit="10"/>
<path d="M1119 437V413" stroke="#D9CBC8" stroke-width="2" stroke-miterlimit="10"/>
<path d="M1157 437V413" stroke="#D9CBC8" stroke-width="2" stroke-miterlimit="10"/>
<path d="M1195 437V413" stroke="#D9CBC8" stroke-width="2" stroke-miterlimit="10"/>
<path d="M929 437V421" stroke="#D9CBC8" stroke-width="2" stroke-miterlimit="10"/>
<path d="M948 437V421" stroke="#D9CBC8" stroke-width="2" stroke-miterlimit="10"/>
<path d="M967 437V421" stroke="#D9CBC8" stroke-width="2" stroke-miterlimit="10"/>
<path d="M986 437V421" stroke="#D9CBC8" stroke-width="2" stroke-miterlimit="10"/>
<path d="M1005 437V421" stroke="#D9CBC8" stroke-width="2" stroke-miterlimit="10"/>
<path d="M1024 437V421" stroke="#D9CBC8" stroke-width="2" stroke-miterlimit="10"/>
<path d="M1043 437V421" stroke="#D9CBC8" stroke-width="2" stroke-miterlimit="10"/>
<path d="M1062 437V421" stroke="#D9CBC8" stroke-width="2" stroke-miterlimit="10"/>
<path d="M1081 437V421" stroke="#D9CBC8" stroke-width="2" stroke-miterlimit="10"/>
<path d="M1100 437V421" stroke="#D9CBC8" stroke-width="2" stroke-miterlimit="10"/>
<path d="M1119 437V421" stroke="#D9CBC8" stroke-width="2" stroke-miterlimit="10"/>
<path d="M1138 437V421" stroke="#D9CBC8" stroke-width="2" stroke-miterlimit="10"/>
<path d="M1157 437V421" stroke="#D9CBC8" stroke-width="2" stroke-miterlimit="10"/>
<path d="M1176 437V421" stroke="#D9CBC8" stroke-width="2" stroke-miterlimit="10"/>
<path d="M1195 437V421" stroke="#D9CBC8" stroke-width="2" stroke-miterlimit="10"/>
<path d="M1214 437V421" stroke="#D9CBC8" stroke-width="2" stroke-miterlimit="10"/>
<path d="M929 317V341" stroke="#D9CBC8" stroke-width="2" stroke-miterlimit="10"/>
<path d="M967 317V341" stroke="#D9CBC8" stroke-width="2" stroke-miterlimit="10"/>
<path d="M1005 317V341" stroke="#D9CBC8" stroke-width="2" stroke-miterlimit="10"/>
<path d="M1043 317V341" stroke="#D9CBC8" stroke-width="2" stroke-miterlimit="10"/>
<path d="M1081 317V341" stroke="#D9CBC8" stroke-width="2" stroke-miterlimit="10"/>
<path d="M1119 317V341" stroke="#D9CBC8" stroke-width="2" stroke-miterlimit="10"/>
<path d="M1157 317V341" stroke="#D9CBC8" stroke-width="2" stroke-miterlimit="10"/>
<path d="M1195 317V341" stroke="#D9CBC8" stroke-width="2" stroke-miterlimit="10"/>
<path d="M929 317V333" stroke="#D9CBC8" stroke-width="2" stroke-miterlimit="10"/>
<path d="M948 317V333" stroke="#D9CBC8" stroke-width="2" stroke-miterlimit="10"/>
<path d="M967 317V333" stroke="#D9CBC8" stroke-width="2" stroke-miterlimit="10"/>
<path d="M986 317V333" stroke="#D9CBC8" stroke-width="2" stroke-miterlimit="10"/>
<path d="M1005 317V333" stroke="#D9CBC8" stroke-width="2" stroke-miterlimit="10"/>
<path d="M1024 317V333" stroke="#D9CBC8" stroke-width="2" stroke-miterlimit="10"/>
<path d="M1043 317V333" stroke="#D9CBC8" stroke-width="2" stroke-miterlimit="10"/>
<path d="M1062 317V333" stroke="#D9CBC8" stroke-width="2" stroke-miterlimit="10"/>
<path d="M1081 317V333" stroke="#D9CBC8" stroke-width="2" stroke-miterlimit="10"/>
<path d="M1100 317V333" stroke="#D9CBC8" stroke-width="2" stroke-miterlimit="10"/>
<path d="M1119 317V333" stroke="#D9CBC8" stroke-width="2" stroke-miterlimit="10"/>
<path d="M1138 317V333" stroke="#D9CBC8" stroke-width="2" stroke-miterlimit="10"/>
<path d="M1157 317V333" stroke="#D9CBC8" stroke-width="2" stroke-miterlimit="10"/>
<path d="M1176 317V333" stroke="#D9CBC8" stroke-width="2" stroke-miterlimit="10"/>
<path d="M1195 317V333" stroke="#D9CBC8" stroke-width="2" stroke-miterlimit="10"/>
<path d="M1214 317V333" stroke="#D9CBC8" stroke-width="2" stroke-miterlimit="10"/>
<path opacity="0.6" fill-rule="evenodd" clip-rule="evenodd" d="M913 437C904.163 437 897 429.837 897 421V417C897 416.323 897.042 415.655 897.124 415C898.108 422.893 904.841 429 913 429L1474 429C1480.87 429 1486.74 424.665 1489 418.58V421C1489 429.837 1481.84 437 1473 437L913 437Z" fill="#D9CBC8"/>
<path opacity="0.7" fill-rule="evenodd" clip-rule="evenodd" d="M913 317C904.163 317 897 324.163 897 333V337C897 337.677 897.042 338.345 897.124 339C898.108 331.107 904.841 325 913 325L1473 325C1481.16 325 1487.89 331.107 1488.88 339C1488.96 338.345 1489 337.677 1489 337V333C1489 324.163 1481.84 317 1473 317L913 317Z" fill="white"/>
<rect x="897" y="317" width="592" height="120" rx="16" stroke="#A28F8C" stroke-width="2"/>
<path d="M291.385 373.868C291.956 371.735 294.15 370.468 296.284 371.04L350.375 385.534C352.509 386.106 353.776 388.299 353.204 390.433L349.21 405.339C349.112 405.703 348.968 406.044 348.777 406.37C347.368 408.778 341.109 419.797 338.47 429.966C335.856 440.036 335.99 452.562 336.066 455.572C336.078 456.019 336.021 456.464 335.892 456.892L332.583 467.859C331.959 469.927 329.805 471.126 327.718 470.567L273.508 456.042C271.374 455.47 270.107 453.276 270.679 451.143L273.642 440.086C273.737 439.731 273.876 439.399 274.059 439.081C275.44 436.688 281.667 425.591 284.378 415.473C287.089 405.354 287.245 392.63 287.246 389.868C287.246 389.501 287.292 389.143 287.387 388.789L291.385 373.868Z" stroke="#756362" stroke-width="2" stroke-linejoin="round"/>
<path d="M291.385 373.868C291.956 371.735 294.15 370.468 296.284 371.04L350.375 385.534C352.509 386.106 353.776 388.299 353.204 390.433L349.21 405.339C349.112 405.703 348.968 406.044 348.777 406.37C347.368 408.778 341.109 419.797 338.47 429.966C335.856 440.036 335.99 452.562 336.066 455.572C336.078 456.019 336.021 456.464 335.892 456.891L332.583 467.859C331.959 469.927 329.805 471.126 327.718 470.567L273.508 456.042C271.374 455.47 270.107 453.276 270.679 451.143L273.642 440.086C273.737 439.731 273.876 439.399 274.059 439.081C275.44 436.688 281.667 425.591 284.378 415.473C287.089 405.354 287.245 392.63 287.246 389.868C287.246 389.501 287.292 389.143 287.387 388.789L291.385 373.868Z" fill="white" stroke="#A28F8C" stroke-width="2" stroke-linejoin="round"/>
<path d="M307.875 374.146L338.785 382.428L323.255 440.384C320.968 448.919 312.195 453.984 303.66 451.697C295.124 449.41 290.059 440.637 292.346 432.101L307.875 374.146Z" fill="#F9F3F1"/>
<path d="M321.397 377.769L315.602 376.216L296.449 447.695L301.727 451.18L321.397 377.769Z" fill="white"/>
<path opacity="0.1" d="M293.121 429.204L324.031 437.486L323.513 439.418C321.226 447.953 312.453 453.019 303.917 450.732C295.382 448.444 290.316 439.671 292.603 431.136L293.121 429.204Z" fill="#D9CBC8"/>
<path d="M318.773 418.477C321.44 419.192 324.182 417.609 324.896 414.941C325.611 412.274 324.028 409.532 321.361 408.818C318.694 408.103 315.952 409.686 315.237 412.353C314.522 415.021 316.105 417.762 318.773 418.477Z" fill="white"/>
<path d="M315.236 412.353L324.896 414.941" stroke="#E8DCD9" stroke-width="2"/>
<path d="M321.361 408.818L318.773 418.477" stroke="#E8DCD9" stroke-width="2"/>
<path d="M318.773 418.477C321.44 419.192 324.182 417.609 324.896 414.941C325.611 412.274 324.028 409.532 321.361 408.818C318.694 408.103 315.952 409.686 315.237 412.353C314.522 415.021 316.105 417.762 318.773 418.477Z" stroke="#E8DCD9" stroke-width="2"/>
<path d="M337.342 387.81L312.237 388.773L315.602 376.216L338.784 382.428L337.342 387.81Z" fill="white"/>
<path d="M307.875 374.146L338.785 382.428L323.255 440.384C320.968 448.919 312.195 453.984 303.66 451.697V451.697C295.124 449.41 290.059 440.637 292.346 432.101L307.875 374.146Z" stroke="#A28F8C" stroke-width="2" stroke-linejoin="round"/>
<path fill-rule="evenodd" clip-rule="evenodd" d="M315.602 376.216L307.875 374.146L292.346 432.101C290.813 437.822 292.583 443.649 296.486 447.559L315.602 376.216Z" fill="#A28F8C"/>
</g>
</g>
<defs>
<clipPath id="clip0_281_16819">
<rect width="1216" height="774" fill="white"/>
</clipPath>
<clipPath id="clip1_281_16819">
<rect width="1633" height="774" fill="white" transform="translate(-208 32)"/>
</clipPath>
</defs>
</svg>
