<svg xmlns="http://www.w3.org/2000/svg" width="384" height="240" fill="none"><g filter="url(#a)"><rect width="160" height="80" x="112" y="80" fill="url(#b)" rx="40"/></g><rect width="158" height="78" x="113" y="81" stroke="#DD8E00" stroke-width="2" rx="39"/><rect width="158" height="78" x="113" y="81" stroke="url(#c)" stroke-width="2" rx="39"/><g filter="url(#d)"><path fill="#CB7100" fill-rule="evenodd" d="M166.635 129.97c.158-2.205.85-4.07 2.077-5.594 1.451-1.749 3.435-2.88 5.952-3.392v-.064a8.641 8.641 0 0 1-2.57-1.116 9.392 9.392 0 0 0-3.382 2.572c-1.408 1.749-2.112 3.947-2.112 6.592 0 .34.012.674.035 1.002Zm1.857-18.891a13.367 13.367 0 0 1-.036-.991c0-2.475.619-4.587 1.856-6.336 1.28-1.749 3.093-3.093 5.44-4.032 2.389-.939 5.248-1.408 8.576-1.408 3.328 0 6.165.47 8.512 1.408 2.389.939 4.203 2.283 5.44 4.032 1.28 1.749 1.92 3.861 1.92 6.336 0 .337-.012.667-.037.99-.153-2.044-.781-3.82-1.883-5.326-1.237-1.749-3.051-3.093-5.44-4.032-2.347-.939-5.184-1.408-8.512-1.408-3.328 0-6.187.469-8.576 1.408-2.347.939-4.16 2.283-5.44 4.032-1.066 1.507-1.672 3.282-1.82 5.327Zm28.018 8.717c1.354.612 2.478 1.472 3.37 2.58 1.451 1.749 2.176 3.947 2.176 6.592 0 .343-.012.679-.035 1.009-.162-2.208-.876-4.075-2.141-5.601-1.408-1.749-3.392-2.88-5.952-3.392v-.064a8.627 8.627 0 0 0 2.582-1.124Zm-8.15 13.46c-1.109.469-2.453.704-4.032.704-1.579 0-2.944-.235-4.096-.704-1.109-.469-1.963-1.131-2.56-1.984a5.25 5.25 0 0 1-.815-2.1 5.556 5.556 0 0 0-.081.964c0 1.195.299 2.24.896 3.136.597.853 1.451 1.515 2.56 1.984 1.152.469 2.517.704 4.096.704 1.579 0 2.923-.235 4.032-.704 1.152-.469 2.027-1.131 2.624-1.984.597-.896.896-1.941.896-3.136 0-.333-.027-.652-.082-.956a5.263 5.263 0 0 1-.814 2.092c-.597.853-1.472 1.515-2.624 1.984Zm-.384-17.408c-1.024.384-2.24.576-3.648.576s-2.624-.192-3.648-.576c-1.024-.427-1.813-1.003-2.368-1.728a4.52 4.52 0 0 1-.692-1.789 6.762 6.762 0 0 0-.076 1.037c0 1.067.256 1.984.768 2.752.555.725 1.344 1.301 2.368 1.728 1.024.384 2.24.576 3.648.576s2.624-.192 3.648-.576c1.024-.427 1.792-1.003 2.304-1.728.555-.768.832-1.685.832-2.752a6.28 6.28 0 0 0-.082-1.037 4.322 4.322 0 0 1-.75 1.789c-.512.725-1.28 1.301-2.304 1.728Zm-43.44-2.512h-10.64l.826 2h9.814l6.72 19.376h.112l6.832-19.376h8.482l.814-2H158.2l-6.832 19.376h-.112l-6.72-19.376Zm59.496 18.064h9.472v2h-9.472v-2Zm44.949-10.644c-.092-4.056-.749-7.564-1.973-10.524-1.323-3.2-3.307-5.653-5.952-7.36-2.645-1.707-5.909-2.56-9.792-2.56-3.84 0-7.083.853-9.728 2.56-2.603 1.707-4.565 4.16-5.888 7.36-1.224 2.962-1.882 6.473-1.973 10.532a48.253 48.253 0 0 1-.011-1.012c0-4.48.661-8.32 1.984-11.52 1.323-3.2 3.285-5.653 5.888-7.36 2.645-1.707 5.888-2.56 9.728-2.56 3.883 0 7.147.853 9.792 2.56 2.645 1.707 4.629 4.16 5.952 7.36 1.323 3.2 1.984 7.04 1.984 11.52 0 .338-.004.673-.011 1.004Zm-13.493 11.028c-1.109 1.024-2.517 1.536-4.224 1.536-1.664 0-3.051-.512-4.16-1.536-1.109-1.067-1.941-2.603-2.496-4.608-.45-1.764-.703-3.875-.757-6.333-.007.319-.011.643-.011.973 0 2.901.256 5.355.768 7.36.555 2.005 1.387 3.541 2.496 4.608 1.109 1.024 2.496 1.536 4.16 1.536 1.707 0 3.115-.512 4.224-1.536 1.152-1.067 1.984-2.603 2.496-4.608.555-2.005.832-4.459.832-7.36 0-.331-.004-.655-.012-.974-.059 2.458-.332 4.569-.82 6.334-.512 2.005-1.344 3.541-2.496 4.608Z" clip-rule="evenodd"/></g><g fill="#F8E58E" filter="url(#e)" opacity=".6"><path d="M133.896 115.336h10.64l6.72 19.376h.112l6.832-19.376h9.296L156.24 143h-10.92l-11.424-27.664ZM184.328 143.576c-3.712 0-6.891-.491-9.536-1.472-2.645-1.024-4.672-2.475-6.08-4.352-1.408-1.877-2.112-4.139-2.112-6.784 0-2.645.704-4.843 2.112-6.592 1.451-1.749 3.435-2.88 5.952-3.392v-.064c-1.963-.512-3.499-1.536-4.608-3.072-1.067-1.579-1.6-3.499-1.6-5.76 0-2.475.619-4.587 1.856-6.336 1.28-1.749 3.093-3.093 5.44-4.032 2.389-.939 5.248-1.408 8.576-1.408 3.328 0 6.165.469 8.512 1.408 2.389.939 4.203 2.283 5.44 4.032 1.28 1.749 1.92 3.861 1.92 6.336 0 2.261-.555 4.181-1.664 5.76-1.109 1.536-2.645 2.56-4.608 3.072v.064c2.56.512 4.544 1.643 5.952 3.392 1.451 1.749 2.176 3.947 2.176 6.592 0 2.645-.704 4.907-2.112 6.784-1.408 1.877-3.435 3.328-6.08 4.352-2.645.981-5.824 1.472-9.536 1.472Zm0-7.616c1.579 0 2.923-.235 4.032-.704 1.152-.469 2.027-1.131 2.624-1.984.597-.896.896-1.941.896-3.136 0-1.664-.683-2.965-2.048-3.904-1.323-.939-3.157-1.408-5.504-1.408-2.347 0-4.203.469-5.568 1.408-1.323.939-1.984 2.24-1.984 3.904 0 1.195.299 2.24.896 3.136.597.853 1.451 1.515 2.56 1.984 1.152.469 2.517.704 4.096.704Zm0-17.536c1.408 0 2.624-.192 3.648-.576 1.024-.427 1.792-1.003 2.304-1.728.555-.768.832-1.685.832-2.752 0-1.152-.277-2.133-.832-2.944-.512-.811-1.28-1.429-2.304-1.856-1.024-.427-2.24-.64-3.648-.64s-2.624.213-3.648.64c-1.024.427-1.813 1.045-2.368 1.856-.512.811-.768 1.792-.768 2.944 0 1.067.256 1.984.768 2.752.555.725 1.344 1.301 2.368 1.728 1.024.384 2.24.576 3.648.576ZM204.032 133.4h9.472v9.6h-9.472v-9.6ZM231.264 143.576c-3.968 0-7.275-.896-9.92-2.688-2.603-1.792-4.544-4.309-5.824-7.552-1.237-3.285-1.856-7.147-1.856-11.584 0-4.48.661-8.32 1.984-11.52 1.323-3.2 3.285-5.653 5.888-7.36 2.645-1.707 5.888-2.56 9.728-2.56 3.883 0 7.147.853 9.792 2.56 2.645 1.707 4.629 4.16 5.952 7.36 1.323 3.2 1.984 7.04 1.984 11.52 0 4.437-.64 8.299-1.92 11.584-1.237 3.243-3.179 5.76-5.824 7.552-2.645 1.792-5.973 2.688-9.984 2.688Zm0-8.256c1.707 0 3.115-.512 4.224-1.536 1.152-1.067 1.984-2.603 2.496-4.608.555-2.005.832-4.459.832-7.36 0-2.859-.299-5.269-.896-7.232-.555-2.005-1.408-3.499-2.56-4.48-1.109-1.024-2.475-1.536-4.096-1.536s-2.987.512-4.096 1.536c-1.109.981-1.941 2.475-2.496 4.48-.555 1.963-.832 4.373-.832 7.232 0 2.901.256 5.355.768 7.36.555 2.005 1.387 3.541 2.496 4.608 1.109 1.024 2.496 1.536 4.16 1.536Z"/></g><g fill="#F8E58E" filter="url(#f)" opacity=".8"><path d="M133.896 114.336h10.64l6.72 19.376h.112l6.832-19.376h9.296L156.24 142h-10.92l-11.424-27.664ZM184.328 142.576c-3.712 0-6.891-.491-9.536-1.472-2.645-1.024-4.672-2.475-6.08-4.352-1.408-1.877-2.112-4.139-2.112-6.784 0-2.645.704-4.843 2.112-6.592 1.451-1.749 3.435-2.88 5.952-3.392v-.064c-1.963-.512-3.499-1.536-4.608-3.072-1.067-1.579-1.6-3.499-1.6-5.76 0-2.475.619-4.587 1.856-6.336 1.28-1.749 3.093-3.093 5.44-4.032 2.389-.939 5.248-1.408 8.576-1.408 3.328 0 6.165.47 8.512 1.408 2.389.939 4.203 2.283 5.44 4.032 1.28 1.749 1.92 3.861 1.92 6.336 0 2.261-.555 4.181-1.664 5.76-1.109 1.536-2.645 2.56-4.608 3.072v.064c2.56.512 4.544 1.643 5.952 3.392 1.451 1.749 2.176 3.947 2.176 6.592 0 2.645-.704 4.907-2.112 6.784-1.408 1.877-3.435 3.328-6.08 4.352-2.645.981-5.824 1.472-9.536 1.472Zm0-7.616c1.579 0 2.923-.235 4.032-.704 1.152-.469 2.027-1.131 2.624-1.984.597-.896.896-1.941.896-3.136 0-1.664-.683-2.965-2.048-3.904-1.323-.939-3.157-1.408-5.504-1.408-2.347 0-4.203.469-5.568 1.408-1.323.939-1.984 2.24-1.984 3.904 0 1.195.299 2.24.896 3.136.597.853 1.451 1.515 2.56 1.984 1.152.469 2.517.704 4.096.704Zm0-17.536c1.408 0 2.624-.192 3.648-.576 1.024-.427 1.792-1.003 2.304-1.728.555-.768.832-1.685.832-2.752 0-1.152-.277-2.133-.832-2.944-.512-.811-1.28-1.429-2.304-1.856-1.024-.427-2.24-.64-3.648-.64s-2.624.213-3.648.64c-1.024.427-1.813 1.045-2.368 1.856-.512.811-.768 1.792-.768 2.944 0 1.067.256 1.984.768 2.752.555.725 1.344 1.301 2.368 1.728 1.024.384 2.24.576 3.648.576ZM204.032 132.4h9.472v9.6h-9.472v-9.6ZM231.264 142.576c-3.968 0-7.275-.896-9.92-2.688-2.603-1.792-4.544-4.309-5.824-7.552-1.237-3.285-1.856-7.147-1.856-11.584 0-4.48.661-8.32 1.984-11.52 1.323-3.2 3.285-5.653 5.888-7.36 2.645-1.707 5.888-2.56 9.728-2.56 3.883 0 7.147.853 9.792 2.56 2.645 1.707 4.629 4.16 5.952 7.36 1.323 3.2 1.984 7.04 1.984 11.52 0 4.437-.64 8.299-1.92 11.584-1.237 3.243-3.179 5.76-5.824 7.552-2.645 1.792-5.973 2.688-9.984 2.688Zm0-8.256c1.707 0 3.115-.512 4.224-1.536 1.152-1.067 1.984-2.603 2.496-4.608.555-2.005.832-4.459.832-7.36 0-2.859-.299-5.269-.896-7.232-.555-2.005-1.408-3.499-2.56-4.48-1.109-1.024-2.475-1.536-4.096-1.536s-2.987.512-4.096 1.536c-1.109.981-1.941 2.475-2.496 4.48-.555 1.963-.832 4.373-.832 7.232 0 2.901.256 5.355.768 7.36.555 2.005 1.387 3.541 2.496 4.608 1.109 1.024 2.496 1.536 4.16 1.536Z"/></g><path fill="#CB7100" d="M133.896 113.336h10.64l6.72 19.376h.112l6.832-19.376h9.296L156.24 141h-10.92l-11.424-27.664ZM184.328 141.576c-3.712 0-6.891-.491-9.536-1.472-2.645-1.024-4.672-2.475-6.08-4.352-1.408-1.877-2.112-4.139-2.112-6.784 0-2.645.704-4.843 2.112-6.592 1.451-1.749 3.435-2.88 5.952-3.392v-.064c-1.963-.512-3.499-1.536-4.608-3.072-1.067-1.579-1.6-3.499-1.6-5.76 0-2.475.619-4.587 1.856-6.336 1.28-1.749 3.093-3.093 5.44-4.032 2.389-.939 5.248-1.408 8.576-1.408 3.328 0 6.165.47 8.512 1.408 2.389.939 4.203 2.283 5.44 4.032 1.28 1.749 1.92 3.861 1.92 6.336 0 2.261-.555 4.181-1.664 5.76-1.109 1.536-2.645 2.56-4.608 3.072v.064c2.56.512 4.544 1.643 5.952 3.392 1.451 1.749 2.176 3.947 2.176 6.592 0 2.645-.704 4.907-2.112 6.784-1.408 1.877-3.435 3.328-6.08 4.352-2.645.981-5.824 1.472-9.536 1.472Zm0-7.616c1.579 0 2.923-.235 4.032-.704 1.152-.469 2.027-1.131 2.624-1.984.597-.896.896-1.941.896-3.136 0-1.664-.683-2.965-2.048-3.904-1.323-.939-3.157-1.408-5.504-1.408-2.347 0-4.203.469-5.568 1.408-1.323.939-1.984 2.24-1.984 3.904 0 1.195.299 2.24.896 3.136.597.853 1.451 1.515 2.56 1.984 1.152.469 2.517.704 4.096.704Zm0-17.536c1.408 0 2.624-.192 3.648-.576 1.024-.427 1.792-1.003 2.304-1.728.555-.768.832-1.685.832-2.752 0-1.152-.277-2.133-.832-2.944-.512-.811-1.28-1.429-2.304-1.856-1.024-.427-2.24-.64-3.648-.64s-2.624.213-3.648.64c-1.024.427-1.813 1.045-2.368 1.856-.512.811-.768 1.792-.768 2.944 0 1.067.256 1.984.768 2.752.555.725 1.344 1.301 2.368 1.728 1.024.384 2.24.576 3.648.576ZM204.032 131.4h9.472v9.6h-9.472v-9.6ZM231.264 141.576c-3.968 0-7.275-.896-9.92-2.688-2.603-1.792-4.544-4.309-5.824-7.552-1.237-3.285-1.856-7.147-1.856-11.584 0-4.48.661-8.32 1.984-11.52 1.323-3.2 3.285-5.653 5.888-7.36 2.645-1.707 5.888-2.56 9.728-2.56 3.883 0 7.147.853 9.792 2.56 2.645 1.707 4.629 4.16 5.952 7.36 1.323 3.2 1.984 7.04 1.984 11.52 0 4.437-.64 8.299-1.92 11.584-1.237 3.243-3.179 5.76-5.824 7.552-2.645 1.792-5.973 2.688-9.984 2.688Zm0-8.256c1.707 0 3.115-.512 4.224-1.536 1.152-1.067 1.984-2.603 2.496-4.608.555-2.005.832-4.459.832-7.36 0-2.859-.299-5.269-.896-7.232-.555-2.005-1.408-3.499-2.56-4.48-1.109-1.024-2.475-1.536-4.096-1.536s-2.987.512-4.096 1.536c-1.109.981-1.941 2.475-2.496 4.48-.555 1.963-.832 4.373-.832 7.232 0 2.901.256 5.355.768 7.36.555 2.005 1.387 3.541 2.496 4.608 1.109 1.024 2.496 1.536 4.16 1.536Z"/><path fill="url(#g)" d="M133.896 113.336h10.64l6.72 19.376h.112l6.832-19.376h9.296L156.24 141h-10.92l-11.424-27.664Z"/><path fill="url(#h)" d="M184.328 141.576c-3.712 0-6.891-.491-9.536-1.472-2.645-1.024-4.672-2.475-6.08-4.352-1.408-1.877-2.112-4.139-2.112-6.784 0-2.645.704-4.843 2.112-6.592 1.451-1.749 3.435-2.88 5.952-3.392v-.064c-1.963-.512-3.499-1.536-4.608-3.072-1.067-1.579-1.6-3.499-1.6-5.76 0-2.475.619-4.587 1.856-6.336 1.28-1.749 3.093-3.093 5.44-4.032 2.389-.939 5.248-1.408 8.576-1.408 3.328 0 6.165.47 8.512 1.408 2.389.939 4.203 2.283 5.44 4.032 1.28 1.749 1.92 3.861 1.92 6.336 0 2.261-.555 4.181-1.664 5.76-1.109 1.536-2.645 2.56-4.608 3.072v.064c2.56.512 4.544 1.643 5.952 3.392 1.451 1.749 2.176 3.947 2.176 6.592 0 2.645-.704 4.907-2.112 6.784-1.408 1.877-3.435 3.328-6.08 4.352-2.645.981-5.824 1.472-9.536 1.472Zm0-7.616c1.579 0 2.923-.235 4.032-.704 1.152-.469 2.027-1.131 2.624-1.984.597-.896.896-1.941.896-3.136 0-1.664-.683-2.965-2.048-3.904-1.323-.939-3.157-1.408-5.504-1.408-2.347 0-4.203.469-5.568 1.408-1.323.939-1.984 2.24-1.984 3.904 0 1.195.299 2.24.896 3.136.597.853 1.451 1.515 2.56 1.984 1.152.469 2.517.704 4.096.704Zm0-17.536c1.408 0 2.624-.192 3.648-.576 1.024-.427 1.792-1.003 2.304-1.728.555-.768.832-1.685.832-2.752 0-1.152-.277-2.133-.832-2.944-.512-.811-1.28-1.429-2.304-1.856-1.024-.427-2.24-.64-3.648-.64s-2.624.213-3.648.64c-1.024.427-1.813 1.045-2.368 1.856-.512.811-.768 1.792-.768 2.944 0 1.067.256 1.984.768 2.752.555.725 1.344 1.301 2.368 1.728 1.024.384 2.24.576 3.648.576Z"/><path fill="url(#i)" d="M204.032 131.4h9.472v9.6h-9.472v-9.6Z"/><path fill="url(#j)" d="M231.264 141.576c-3.968 0-7.275-.896-9.92-2.688-2.603-1.792-4.544-4.309-5.824-7.552-1.237-3.285-1.856-7.147-1.856-11.584 0-4.48.661-8.32 1.984-11.52 1.323-3.2 3.285-5.653 5.888-7.36 2.645-1.707 5.888-2.56 9.728-2.56 3.883 0 7.147.853 9.792 2.56 2.645 1.707 4.629 4.16 5.952 7.36 1.323 3.2 1.984 7.04 1.984 11.52 0 4.437-.64 8.299-1.92 11.584-1.237 3.243-3.179 5.76-5.824 7.552-2.645 1.792-5.973 2.688-9.984 2.688Zm0-8.256c1.707 0 3.115-.512 4.224-1.536 1.152-1.067 1.984-2.603 2.496-4.608.555-2.005.832-4.459.832-7.36 0-2.859-.299-5.269-.896-7.232-.555-2.005-1.408-3.499-2.56-4.48-1.109-1.024-2.475-1.536-4.096-1.536s-2.987.512-4.096 1.536c-1.109.981-1.941 2.475-2.496 4.48-.555 1.963-.832 4.373-.832 7.232 0 2.901.256 5.355.768 7.36.555 2.005 1.387 3.541 2.496 4.608 1.109 1.024 2.496 1.536 4.16 1.536Z"/><g filter="url(#k)" opacity=".4"><path fill="#612E00" fill-rule="evenodd" d="M166.635 129.97c.158-2.205.85-4.07 2.077-5.594 1.451-1.749 3.435-2.88 5.952-3.392v-.064a8.641 8.641 0 0 1-2.57-1.116 9.392 9.392 0 0 0-3.382 2.572c-1.408 1.749-2.112 3.947-2.112 6.592 0 .34.012.674.035 1.002Zm1.857-18.891a13.367 13.367 0 0 1-.036-.991c0-2.475.619-4.587 1.856-6.336 1.28-1.749 3.093-3.093 5.44-4.032 2.389-.939 5.248-1.408 8.576-1.408 3.328 0 6.165.47 8.512 1.408 2.389.939 4.203 2.283 5.44 4.032 1.28 1.749 1.92 3.861 1.92 6.336 0 .337-.012.667-.037.99-.153-2.044-.781-3.82-1.883-5.326-1.237-1.749-3.051-3.093-5.44-4.032-2.347-.939-5.184-1.408-8.512-1.408-3.328 0-6.187.469-8.576 1.408-2.347.939-4.16 2.283-5.44 4.032-1.066 1.507-1.672 3.282-1.82 5.327Zm28.018 8.717c1.354.612 2.478 1.472 3.37 2.58 1.451 1.749 2.176 3.947 2.176 6.592 0 .343-.012.679-.035 1.009-.162-2.208-.876-4.075-2.141-5.601-1.408-1.749-3.392-2.88-5.952-3.392v-.064a8.627 8.627 0 0 0 2.582-1.124Zm-8.15 13.46c-1.109.469-2.453.704-4.032.704-1.579 0-2.944-.235-4.096-.704-1.109-.469-1.963-1.131-2.56-1.984a5.25 5.25 0 0 1-.815-2.1 5.556 5.556 0 0 0-.081.964c0 1.195.299 2.24.896 3.136.597.853 1.451 1.515 2.56 1.984 1.152.469 2.517.704 4.096.704 1.579 0 2.923-.235 4.032-.704 1.152-.469 2.027-1.131 2.624-1.984.597-.896.896-1.941.896-3.136 0-.333-.027-.652-.082-.956a5.263 5.263 0 0 1-.814 2.092c-.597.853-1.472 1.515-2.624 1.984Zm-.384-17.408c-1.024.384-2.24.576-3.648.576s-2.624-.192-3.648-.576c-1.024-.427-1.813-1.003-2.368-1.728a4.52 4.52 0 0 1-.692-1.789 6.762 6.762 0 0 0-.076 1.037c0 1.067.256 1.984.768 2.752.555.725 1.344 1.301 2.368 1.728 1.024.384 2.24.576 3.648.576s2.624-.192 3.648-.576c1.024-.427 1.792-1.003 2.304-1.728.555-.768.832-1.685.832-2.752a6.28 6.28 0 0 0-.082-1.037 4.322 4.322 0 0 1-.75 1.789c-.512.725-1.28 1.301-2.304 1.728Zm-43.44-2.512h-10.64l.826 2h9.814l6.72 19.376h.112l6.832-19.376h8.482l.814-2H158.2l-6.832 19.376h-.112l-6.72-19.376Zm59.496 18.064h9.472v2h-9.472v-2Zm44.949-10.644c-.092-4.056-.749-7.564-1.973-10.524-1.323-3.2-3.307-5.653-5.952-7.36-2.645-1.707-5.909-2.56-9.792-2.56-3.84 0-7.083.853-9.728 2.56-2.603 1.707-4.565 4.16-5.888 7.36-1.224 2.962-1.882 6.473-1.973 10.532a48.253 48.253 0 0 1-.011-1.012c0-4.48.661-8.32 1.984-11.52 1.323-3.2 3.285-5.653 5.888-7.36 2.645-1.707 5.888-2.56 9.728-2.56 3.883 0 7.147.853 9.792 2.56 2.645 1.707 4.629 4.16 5.952 7.36 1.323 3.2 1.984 7.04 1.984 11.52 0 .338-.004.673-.011 1.004Zm-13.493 11.028c-1.109 1.024-2.517 1.536-4.224 1.536-1.664 0-3.051-.512-4.16-1.536-1.109-1.067-1.941-2.603-2.496-4.608-.45-1.764-.703-3.875-.757-6.333-.007.319-.011.643-.011.973 0 2.901.256 5.355.768 7.36.555 2.005 1.387 3.541 2.496 4.608 1.109 1.024 2.496 1.536 4.16 1.536 1.707 0 3.115-.512 4.224-1.536 1.152-1.067 1.984-2.603 2.496-4.608.555-2.005.832-4.459.832-7.36 0-.331-.004-.655-.012-.974-.059 2.458-.332 4.569-.82 6.334-.512 2.005-1.344 3.541-2.496 4.608Z" clip-rule="evenodd"/></g><g filter="url(#l)" opacity=".5"><path fill="#612E00" fill-rule="evenodd" d="M166.635 129.97c.158-2.205.85-4.07 2.077-5.594 1.451-1.749 3.435-2.88 5.952-3.392v-.064a8.641 8.641 0 0 1-2.57-1.116 9.392 9.392 0 0 0-3.382 2.572c-1.408 1.749-2.112 3.947-2.112 6.592 0 .34.012.674.035 1.002Zm1.857-18.891a13.367 13.367 0 0 1-.036-.991c0-2.475.619-4.587 1.856-6.336 1.28-1.749 3.093-3.093 5.44-4.032 2.389-.939 5.248-1.408 8.576-1.408 3.328 0 6.165.47 8.512 1.408 2.389.939 4.203 2.283 5.44 4.032 1.28 1.749 1.92 3.861 1.92 6.336 0 .337-.012.667-.037.99-.153-2.044-.781-3.82-1.883-5.326-1.237-1.749-3.051-3.093-5.44-4.032-2.347-.939-5.184-1.408-8.512-1.408-3.328 0-6.187.469-8.576 1.408-2.347.939-4.16 2.283-5.44 4.032-1.066 1.507-1.672 3.282-1.82 5.327Zm28.018 8.717c1.354.612 2.478 1.472 3.37 2.58 1.451 1.749 2.176 3.947 2.176 6.592 0 .343-.012.679-.035 1.009-.162-2.208-.876-4.075-2.141-5.601-1.408-1.749-3.392-2.88-5.952-3.392v-.064a8.627 8.627 0 0 0 2.582-1.124Zm-8.15 13.46c-1.109.469-2.453.704-4.032.704-1.579 0-2.944-.235-4.096-.704-1.109-.469-1.963-1.131-2.56-1.984a5.25 5.25 0 0 1-.815-2.1 5.556 5.556 0 0 0-.081.964c0 1.195.299 2.24.896 3.136.597.853 1.451 1.515 2.56 1.984 1.152.469 2.517.704 4.096.704 1.579 0 2.923-.235 4.032-.704 1.152-.469 2.027-1.131 2.624-1.984.597-.896.896-1.941.896-3.136 0-.333-.027-.652-.082-.956a5.263 5.263 0 0 1-.814 2.092c-.597.853-1.472 1.515-2.624 1.984Zm-.384-17.408c-1.024.384-2.24.576-3.648.576s-2.624-.192-3.648-.576c-1.024-.427-1.813-1.003-2.368-1.728a4.52 4.52 0 0 1-.692-1.789 6.762 6.762 0 0 0-.076 1.037c0 1.067.256 1.984.768 2.752.555.725 1.344 1.301 2.368 1.728 1.024.384 2.24.576 3.648.576s2.624-.192 3.648-.576c1.024-.427 1.792-1.003 2.304-1.728.555-.768.832-1.685.832-2.752a6.28 6.28 0 0 0-.082-1.037 4.322 4.322 0 0 1-.75 1.789c-.512.725-1.28 1.301-2.304 1.728Zm-43.44-2.512h-10.64l.826 2h9.814l6.72 19.376h.112l6.832-19.376h8.482l.814-2H158.2l-6.832 19.376h-.112l-6.72-19.376Zm59.496 18.064h9.472v2h-9.472v-2Zm44.949-10.644c-.092-4.056-.749-7.564-1.973-10.524-1.323-3.2-3.307-5.653-5.952-7.36-2.645-1.707-5.909-2.56-9.792-2.56-3.84 0-7.083.853-9.728 2.56-2.603 1.707-4.565 4.16-5.888 7.36-1.224 2.962-1.882 6.473-1.973 10.532a48.253 48.253 0 0 1-.011-1.012c0-4.48.661-8.32 1.984-11.52 1.323-3.2 3.285-5.653 5.888-7.36 2.645-1.707 5.888-2.56 9.728-2.56 3.883 0 7.147.853 9.792 2.56 2.645 1.707 4.629 4.16 5.952 7.36 1.323 3.2 1.984 7.04 1.984 11.52 0 .338-.004.673-.011 1.004Zm-13.493 11.028c-1.109 1.024-2.517 1.536-4.224 1.536-1.664 0-3.051-.512-4.16-1.536-1.109-1.067-1.941-2.603-2.496-4.608-.45-1.764-.703-3.875-.757-6.333-.007.319-.011.643-.011.973 0 2.901.256 5.355.768 7.36.555 2.005 1.387 3.541 2.496 4.608 1.109 1.024 2.496 1.536 4.16 1.536 1.707 0 3.115-.512 4.224-1.536 1.152-1.067 1.984-2.603 2.496-4.608.555-2.005.832-4.459.832-7.36 0-.331-.004-.655-.012-.974-.059 2.458-.332 4.569-.82 6.334-.512 2.005-1.344 3.541-2.496 4.608Z" clip-rule="evenodd"/></g><defs><linearGradient id="b" x1="192" x2="192" y1="80" y2="160" gradientUnits="userSpaceOnUse"><stop stop-color="#F4D340"/><stop offset="1" stop-color="#EFBE08"/></linearGradient><linearGradient id="c" x1="192" x2="192" y1="80" y2="160" gradientUnits="userSpaceOnUse"><stop offset=".44" stop-color="#CB7100" stop-opacity="0"/><stop offset="1" stop-color="#CB7100"/></linearGradient><linearGradient id="g" x1="151" x2="151" y1="104" y2="141" gradientUnits="userSpaceOnUse"><stop stop-color="#B15A00"/><stop offset="1" stop-color="#B15A00" stop-opacity="0"/></linearGradient><linearGradient id="h" x1="184.5" x2="184.5" y1="99" y2="141" gradientUnits="userSpaceOnUse"><stop stop-color="#B15A00"/><stop offset="1" stop-color="#B15A00" stop-opacity="0"/></linearGradient><linearGradient id="i" x1="209" x2="209" y1="99" y2="141" gradientUnits="userSpaceOnUse"><stop stop-color="#B15A00"/><stop offset="1" stop-color="#B15A00" stop-opacity="0"/></linearGradient><linearGradient id="j" x1="231.5" x2="231.5" y1="99" y2="141" gradientUnits="userSpaceOnUse"><stop stop-color="#B15A00"/><stop offset="1" stop-color="#B15A00" stop-opacity="0"/></linearGradient><filter id="a" width="172" height="95" x="106" y="77" color-interpolation-filters="sRGB" filterUnits="userSpaceOnUse"><feFlood flood-opacity="0" result="BackgroundImageFix"/><feColorMatrix in="SourceAlpha" result="hardAlpha" values="0 0 0 0 0 0 0 0 0 0 0 0 0 0 0 0 0 0 127 0"/><feMorphology in="SourceAlpha" radius=".5" result="effect1_dropShadow_259_4368"/><feOffset dy="1"/><feGaussianBlur stdDeviation=".5"/><feComposite in2="hardAlpha" operator="out"/><feColorMatrix values="0 0 0 0 0.796078 0 0 0 0 0.443137 0 0 0 0 0 0 0 0 0.1 0"/><feBlend in2="BackgroundImageFix" result="effect1_dropShadow_259_4368"/><feColorMatrix in="SourceAlpha" result="hardAlpha" values="0 0 0 0 0 0 0 0 0 0 0 0 0 0 0 0 0 0 127 0"/><feMorphology in="SourceAlpha" radius="1.5" result="effect2_dropShadow_259_4368"/><feOffset dy="1"/><feGaussianBlur stdDeviation="1.5"/><feComposite in2="hardAlpha" operator="out"/><feColorMatrix values="0 0 0 0 0.796078 0 0 0 0 0.443137 0 0 0 0 0 0 0 0 0.1 0"/><feBlend in2="effect1_dropShadow_259_4368" result="effect2_dropShadow_259_4368"/><feColorMatrix in="SourceAlpha" result="hardAlpha" values="0 0 0 0 0 0 0 0 0 0 0 0 0 0 0 0 0 0 127 0"/><feMorphology in="SourceAlpha" radius="2" result="effect3_dropShadow_259_4368"/><feOffset dy="2"/><feGaussianBlur stdDeviation="2"/><feComposite in2="hardAlpha" operator="out"/><feColorMatrix values="0 0 0 0 0.796078 0 0 0 0 0.443137 0 0 0 0 0 0 0 0 0.1 0"/><feBlend in2="effect2_dropShadow_259_4368" result="effect3_dropShadow_259_4368"/><feColorMatrix in="SourceAlpha" result="hardAlpha" values="0 0 0 0 0 0 0 0 0 0 0 0 0 0 0 0 0 0 127 0"/><feMorphology in="SourceAlpha" radius="3" result="effect4_dropShadow_259_4368"/><feOffset dy="3"/><feGaussianBlur stdDeviation="3"/><feComposite in2="hardAlpha" operator="out"/><feColorMatrix values="0 0 0 0 0.796078 0 0 0 0 0.443137 0 0 0 0 0 0 0 0 0.1 0"/><feBlend in2="effect3_dropShadow_259_4368" result="effect4_dropShadow_259_4368"/><feColorMatrix in="SourceAlpha" result="hardAlpha" values="0 0 0 0 0 0 0 0 0 0 0 0 0 0 0 0 0 0 127 0"/><feMorphology in="SourceAlpha" radius="4" result="effect5_dropShadow_259_4368"/><feOffset dy="4"/><feGaussianBlur stdDeviation="4"/><feComposite in2="hardAlpha" operator="out"/><feColorMatrix values="0 0 0 0 0.796078 0 0 0 0 0.443137 0 0 0 0 0 0 0 0 0.1 0"/><feBlend in2="effect4_dropShadow_259_4368" result="effect5_dropShadow_259_4368"/><feColorMatrix in="SourceAlpha" result="hardAlpha" values="0 0 0 0 0 0 0 0 0 0 0 0 0 0 0 0 0 0 127 0"/><feMorphology in="SourceAlpha" radius="6" result="effect6_dropShadow_259_4368"/><feOffset dy="6"/><feGaussianBlur stdDeviation="6"/><feComposite in2="hardAlpha" operator="out"/><feColorMatrix values="0 0 0 0 0.796078 0 0 0 0 0.443137 0 0 0 0 0 0 0 0 0.1 0"/><feBlend in2="effect5_dropShadow_259_4368" result="effect6_dropShadow_259_4368"/><feBlend in="SourceGraphic" in2="effect6_dropShadow_259_4368" result="shape"/><feColorMatrix in="SourceAlpha" result="hardAlpha" values="0 0 0 0 0 0 0 0 0 0 0 0 0 0 0 0 0 0 127 0"/><feMorphology in="SourceAlpha" radius="3" result="effect7_innerShadow_259_4368"/><feOffset dy="-3"/><feGaussianBlur stdDeviation="3"/><feComposite in2="hardAlpha" k2="-1" k3="1" operator="arithmetic"/><feColorMatrix values="0 0 0 0 0.972549 0 0 0 0 0.898039 0 0 0 0 0.556863 0 0 0 1 0"/><feBlend in2="shape" result="effect7_innerShadow_259_4368"/><feColorMatrix in="SourceAlpha" result="hardAlpha" values="0 0 0 0 0 0 0 0 0 0 0 0 0 0 0 0 0 0 127 0"/><feMorphology in="SourceAlpha" radius="2" result="effect8_innerShadow_259_4368"/><feOffset dy="2"/><feGaussianBlur stdDeviation=".5"/><feComposite in2="hardAlpha" k2="-1" k3="1" operator="arithmetic"/><feColorMatrix values="0 0 0 0 0.972549 0 0 0 0 0.898039 0 0 0 0 0.556863 0 0 0 1 0"/><feBlend in2="effect7_innerShadow_259_4368" result="effect8_innerShadow_259_4368"/><feColorMatrix in="SourceAlpha" result="hardAlpha" values="0 0 0 0 0 0 0 0 0 0 0 0 0 0 0 0 0 0 127 0"/><feMorphology in="SourceAlpha" radius="1" result="effect9_innerShadow_259_4368"/><feOffset dy="1"/><feGaussianBlur stdDeviation=".5"/><feComposite in2="hardAlpha" k2="-1" k3="1" operator="arithmetic"/><feColorMatrix values="0 0 0 0 0.972549 0 0 0 0 0.898039 0 0 0 0 0.556863 0 0 0 1 0"/><feBlend in2="effect8_innerShadow_259_4368" result="effect9_innerShadow_259_4368"/><feColorMatrix in="SourceAlpha" result="hardAlpha" values="0 0 0 0 0 0 0 0 0 0 0 0 0 0 0 0 0 0 127 0"/><feMorphology in="SourceAlpha" radius="2" result="effect10_innerShadow_259_4368"/><feOffset dy="-2"/><feGaussianBlur stdDeviation="1"/><feComposite in2="hardAlpha" k2="-1" k3="1" operator="arithmetic"/><feColorMatrix values="0 0 0 0 0.972549 0 0 0 0 0.898039 0 0 0 0 0.556863 0 0 0 1 0"/><feBlend in2="effect9_innerShadow_259_4368" result="effect10_innerShadow_259_4368"/></filter><filter id="d" width="119.096" height="41.648" x="131.896" y="96.312" color-interpolation-filters="sRGB" filterUnits="userSpaceOnUse"><feFlood flood-opacity="0" result="BackgroundImageFix"/><feBlend in="SourceGraphic" in2="BackgroundImageFix" result="shape"/><feGaussianBlur result="effect1_foregroundBlur_259_4368" stdDeviation="1"/></filter><filter id="e" width="122" height="47.264" x="131" y="98.312" color-interpolation-filters="sRGB" filterUnits="userSpaceOnUse"><feFlood flood-opacity="0" result="BackgroundImageFix"/><feBlend in="SourceGraphic" in2="BackgroundImageFix" result="shape"/><feGaussianBlur result="effect1_foregroundBlur_259_4368" stdDeviation="1"/></filter><filter id="f" width="119" height="44.264" x="132.5" y="98.812" color-interpolation-filters="sRGB" filterUnits="userSpaceOnUse"><feFlood flood-opacity="0" result="BackgroundImageFix"/><feBlend in="SourceGraphic" in2="BackgroundImageFix" result="shape"/><feGaussianBlur result="effect1_foregroundBlur_259_4368" stdDeviation=".25"/></filter><filter id="k" width="119.096" height="41.648" x="131.896" y="96.312" color-interpolation-filters="sRGB" filterUnits="userSpaceOnUse"><feFlood flood-opacity="0" result="BackgroundImageFix"/><feBlend in="SourceGraphic" in2="BackgroundImageFix" result="shape"/><feGaussianBlur result="effect1_foregroundBlur_259_4368" stdDeviation="1"/></filter><filter id="l" width="116.096" height="38.648" x="133.396" y="97.812" color-interpolation-filters="sRGB" filterUnits="userSpaceOnUse"><feFlood flood-opacity="0" result="BackgroundImageFix"/><feBlend in="SourceGraphic" in2="BackgroundImageFix" result="shape"/><feGaussianBlur result="effect1_foregroundBlur_259_4368" stdDeviation=".25"/></filter></defs></svg>