<svg width="592" height="368" viewBox="0 0 592 368" fill="none" xmlns="http://www.w3.org/2000/svg">
<rect x="98" y="42" width="396" height="284" rx="16" fill="url(#paint0_linear_251_572)"/>
<path d="M100 58C100 50.268 106.268 44 114 44H478C485.732 44 492 50.268 492 58V74C492 75.1046 491.105 76 490 76H102C100.895 76 100 75.1046 100 74V58Z" fill="white"/>
<circle cx="116" cy="60" r="5" fill="#EE7244"/>
<circle cx="129" cy="60" r="5" fill="#F4D340"/>
<circle cx="142" cy="60" r="5" fill="#7EB52F"/>
<path d="M100 80C100 78.8954 100.895 78 102 78H490C491.105 78 492 78.8954 492 80V310C492 317.732 485.732 324 478 324H114C106.268 324 100 317.732 100 310V80Z" fill="#FCF9F8"/>
<g filter="url(#filter0_ddddddiiii_251_572)">
<rect x="216" y="161" width="160" height="80" rx="40" fill="url(#paint1_linear_251_572)"/>
</g>
<rect x="217" y="162" width="158" height="78" rx="39" stroke="#DD8E00" stroke-width="2"/>
<rect x="217" y="162" width="158" height="78" rx="39" stroke="url(#paint2_linear_251_572)" stroke-width="2"/>
<g filter="url(#filter1_f_251_572)">
<path fill-rule="evenodd" clip-rule="evenodd" d="M270.635 210.97C270.793 208.765 271.485 206.9 272.712 205.376C274.163 203.627 276.147 202.496 278.664 201.984V201.92C277.706 201.67 276.849 201.298 276.094 200.804C274.755 201.415 273.627 202.272 272.712 203.376C271.304 205.125 270.6 207.323 270.6 209.968C270.6 210.308 270.612 210.642 270.635 210.97ZM272.492 192.079C272.468 191.756 272.456 191.426 272.456 191.088C272.456 188.613 273.075 186.501 274.312 184.752C275.592 183.003 277.405 181.659 279.752 180.72C282.141 179.781 285 179.312 288.328 179.312C291.656 179.312 294.493 179.781 296.84 180.72C299.229 181.659 301.043 183.003 302.28 184.752C303.56 186.501 304.2 188.613 304.2 191.088C304.2 191.425 304.188 191.755 304.163 192.078C304.01 190.034 303.382 188.258 302.28 186.752C301.043 185.003 299.229 183.659 296.84 182.72C294.493 181.781 291.656 181.312 288.328 181.312C285 181.312 282.141 181.781 279.752 182.72C277.405 183.659 275.592 185.003 274.312 186.752C273.246 188.259 272.64 190.034 272.492 192.079ZM300.51 200.796C301.864 201.408 302.988 202.268 303.88 203.376C305.331 205.125 306.056 207.323 306.056 209.968C306.056 210.311 306.044 210.647 306.021 210.977C305.859 208.769 305.145 206.902 303.88 205.376C302.472 203.627 300.488 202.496 297.928 201.984V201.92C298.891 201.669 299.752 201.294 300.51 200.796ZM292.36 214.256C291.251 214.725 289.907 214.96 288.328 214.96C286.749 214.96 285.384 214.725 284.232 214.256C283.123 213.787 282.269 213.125 281.672 212.272C281.254 211.645 280.982 210.945 280.857 210.172C280.803 210.479 280.776 210.8 280.776 211.136C280.776 212.331 281.075 213.376 281.672 214.272C282.269 215.125 283.123 215.787 284.232 216.256C285.384 216.725 286.749 216.96 288.328 216.96C289.907 216.96 291.251 216.725 292.36 216.256C293.512 215.787 294.387 215.125 294.984 214.272C295.581 213.376 295.88 212.331 295.88 211.136C295.88 210.803 295.853 210.484 295.798 210.18C295.672 210.95 295.4 211.647 294.984 212.272C294.387 213.125 293.512 213.787 292.36 214.256ZM291.976 196.848C290.952 197.232 289.736 197.424 288.328 197.424C286.92 197.424 285.704 197.232 284.68 196.848C283.656 196.421 282.867 195.845 282.312 195.12C281.961 194.594 281.731 193.997 281.62 193.331C281.569 193.66 281.544 194.005 281.544 194.368C281.544 195.435 281.8 196.352 282.312 197.12C282.867 197.845 283.656 198.421 284.68 198.848C285.704 199.232 286.92 199.424 288.328 199.424C289.736 199.424 290.952 199.232 291.976 198.848C293 198.421 293.768 197.845 294.28 197.12C294.835 196.352 295.112 195.435 295.112 194.368C295.112 194.005 295.085 193.66 295.03 193.331C294.91 193.997 294.66 194.594 294.28 195.12C293.768 195.845 293 196.421 291.976 196.848ZM248.536 194.336H237.896L238.722 196.336H248.536L255.256 215.712H255.368L262.2 196.336H270.682L271.496 194.336H262.2L255.368 213.712H255.256L248.536 194.336ZM308.032 212.4H317.504V214.4H308.032V212.4ZM352.981 201.756C352.889 197.7 352.232 194.192 351.008 191.232C349.685 188.032 347.701 185.579 345.056 183.872C342.411 182.165 339.147 181.312 335.264 181.312C331.424 181.312 328.181 182.165 325.536 183.872C322.933 185.579 320.971 188.032 319.648 191.232C318.424 194.194 317.766 197.705 317.675 201.764C317.668 201.43 317.664 201.093 317.664 200.752C317.664 196.272 318.325 192.432 319.648 189.232C320.971 186.032 322.933 183.579 325.536 181.872C328.181 180.165 331.424 179.312 335.264 179.312C339.147 179.312 342.411 180.165 345.056 181.872C347.701 183.579 349.685 186.032 351.008 189.232C352.331 192.432 352.992 196.272 352.992 200.752C352.992 201.09 352.988 201.425 352.981 201.756ZM339.488 212.784C338.379 213.808 336.971 214.32 335.264 214.32C333.6 214.32 332.213 213.808 331.104 212.784C329.995 211.717 329.163 210.181 328.608 208.176C328.158 206.412 327.905 204.301 327.851 201.843C327.844 202.161 327.84 202.486 327.84 202.816C327.84 205.717 328.096 208.171 328.608 210.176C329.163 212.181 329.995 213.717 331.104 214.784C332.213 215.808 333.6 216.32 335.264 216.32C336.971 216.32 338.379 215.808 339.488 214.784C340.64 213.717 341.472 212.181 341.984 210.176C342.539 208.171 342.816 205.717 342.816 202.816C342.816 202.485 342.812 202.16 342.804 201.842C342.745 204.3 342.472 206.411 341.984 208.176C341.472 210.181 340.64 211.717 339.488 212.784Z" fill="#CB7100"/>
</g>
<g opacity="0.6" filter="url(#filter2_f_251_572)">
<path d="M237.896 196.336H248.536L255.256 215.712H255.368L262.2 196.336H271.496L260.24 224H249.32L237.896 196.336Z" fill="#F8E58E"/>
<path d="M288.328 224.576C284.616 224.576 281.437 224.085 278.792 223.104C276.147 222.08 274.12 220.629 272.712 218.752C271.304 216.875 270.6 214.613 270.6 211.968C270.6 209.323 271.304 207.125 272.712 205.376C274.163 203.627 276.147 202.496 278.664 201.984V201.92C276.701 201.408 275.165 200.384 274.056 198.848C272.989 197.269 272.456 195.349 272.456 193.088C272.456 190.613 273.075 188.501 274.312 186.752C275.592 185.003 277.405 183.659 279.752 182.72C282.141 181.781 285 181.312 288.328 181.312C291.656 181.312 294.493 181.781 296.84 182.72C299.229 183.659 301.043 185.003 302.28 186.752C303.56 188.501 304.2 190.613 304.2 193.088C304.2 195.349 303.645 197.269 302.536 198.848C301.427 200.384 299.891 201.408 297.928 201.92V201.984C300.488 202.496 302.472 203.627 303.88 205.376C305.331 207.125 306.056 209.323 306.056 211.968C306.056 214.613 305.352 216.875 303.944 218.752C302.536 220.629 300.509 222.08 297.864 223.104C295.219 224.085 292.04 224.576 288.328 224.576ZM288.328 216.96C289.907 216.96 291.251 216.725 292.36 216.256C293.512 215.787 294.387 215.125 294.984 214.272C295.581 213.376 295.88 212.331 295.88 211.136C295.88 209.472 295.197 208.171 293.832 207.232C292.509 206.293 290.675 205.824 288.328 205.824C285.981 205.824 284.125 206.293 282.76 207.232C281.437 208.171 280.776 209.472 280.776 211.136C280.776 212.331 281.075 213.376 281.672 214.272C282.269 215.125 283.123 215.787 284.232 216.256C285.384 216.725 286.749 216.96 288.328 216.96ZM288.328 199.424C289.736 199.424 290.952 199.232 291.976 198.848C293 198.421 293.768 197.845 294.28 197.12C294.835 196.352 295.112 195.435 295.112 194.368C295.112 193.216 294.835 192.235 294.28 191.424C293.768 190.613 293 189.995 291.976 189.568C290.952 189.141 289.736 188.928 288.328 188.928C286.92 188.928 285.704 189.141 284.68 189.568C283.656 189.995 282.867 190.613 282.312 191.424C281.8 192.235 281.544 193.216 281.544 194.368C281.544 195.435 281.8 196.352 282.312 197.12C282.867 197.845 283.656 198.421 284.68 198.848C285.704 199.232 286.92 199.424 288.328 199.424Z" fill="#F8E58E"/>
<path d="M308.032 214.4H317.504V224H308.032V214.4Z" fill="#F8E58E"/>
<path d="M335.264 224.576C331.296 224.576 327.989 223.68 325.344 221.888C322.741 220.096 320.8 217.579 319.52 214.336C318.283 211.051 317.664 207.189 317.664 202.752C317.664 198.272 318.325 194.432 319.648 191.232C320.971 188.032 322.933 185.579 325.536 183.872C328.181 182.165 331.424 181.312 335.264 181.312C339.147 181.312 342.411 182.165 345.056 183.872C347.701 185.579 349.685 188.032 351.008 191.232C352.331 194.432 352.992 198.272 352.992 202.752C352.992 207.189 352.352 211.051 351.072 214.336C349.835 217.579 347.893 220.096 345.248 221.888C342.603 223.68 339.275 224.576 335.264 224.576ZM335.264 216.32C336.971 216.32 338.379 215.808 339.488 214.784C340.64 213.717 341.472 212.181 341.984 210.176C342.539 208.171 342.816 205.717 342.816 202.816C342.816 199.957 342.517 197.547 341.92 195.584C341.365 193.579 340.512 192.085 339.36 191.104C338.251 190.08 336.885 189.568 335.264 189.568C333.643 189.568 332.277 190.08 331.168 191.104C330.059 192.085 329.227 193.579 328.672 195.584C328.117 197.547 327.84 199.957 327.84 202.816C327.84 205.717 328.096 208.171 328.608 210.176C329.163 212.181 329.995 213.717 331.104 214.784C332.213 215.808 333.6 216.32 335.264 216.32Z" fill="#F8E58E"/>
</g>
<g opacity="0.8" filter="url(#filter3_f_251_572)">
<path d="M237.896 195.336H248.536L255.256 214.712H255.368L262.2 195.336H271.496L260.24 223H249.32L237.896 195.336Z" fill="#F8E58E"/>
<path d="M288.328 223.576C284.616 223.576 281.437 223.085 278.792 222.104C276.147 221.08 274.12 219.629 272.712 217.752C271.304 215.875 270.6 213.613 270.6 210.968C270.6 208.323 271.304 206.125 272.712 204.376C274.163 202.627 276.147 201.496 278.664 200.984V200.92C276.701 200.408 275.165 199.384 274.056 197.848C272.989 196.269 272.456 194.349 272.456 192.088C272.456 189.613 273.075 187.501 274.312 185.752C275.592 184.003 277.405 182.659 279.752 181.72C282.141 180.781 285 180.312 288.328 180.312C291.656 180.312 294.493 180.781 296.84 181.72C299.229 182.659 301.043 184.003 302.28 185.752C303.56 187.501 304.2 189.613 304.2 192.088C304.2 194.349 303.645 196.269 302.536 197.848C301.427 199.384 299.891 200.408 297.928 200.92V200.984C300.488 201.496 302.472 202.627 303.88 204.376C305.331 206.125 306.056 208.323 306.056 210.968C306.056 213.613 305.352 215.875 303.944 217.752C302.536 219.629 300.509 221.08 297.864 222.104C295.219 223.085 292.04 223.576 288.328 223.576ZM288.328 215.96C289.907 215.96 291.251 215.725 292.36 215.256C293.512 214.787 294.387 214.125 294.984 213.272C295.581 212.376 295.88 211.331 295.88 210.136C295.88 208.472 295.197 207.171 293.832 206.232C292.509 205.293 290.675 204.824 288.328 204.824C285.981 204.824 284.125 205.293 282.76 206.232C281.437 207.171 280.776 208.472 280.776 210.136C280.776 211.331 281.075 212.376 281.672 213.272C282.269 214.125 283.123 214.787 284.232 215.256C285.384 215.725 286.749 215.96 288.328 215.96ZM288.328 198.424C289.736 198.424 290.952 198.232 291.976 197.848C293 197.421 293.768 196.845 294.28 196.12C294.835 195.352 295.112 194.435 295.112 193.368C295.112 192.216 294.835 191.235 294.28 190.424C293.768 189.613 293 188.995 291.976 188.568C290.952 188.141 289.736 187.928 288.328 187.928C286.92 187.928 285.704 188.141 284.68 188.568C283.656 188.995 282.867 189.613 282.312 190.424C281.8 191.235 281.544 192.216 281.544 193.368C281.544 194.435 281.8 195.352 282.312 196.12C282.867 196.845 283.656 197.421 284.68 197.848C285.704 198.232 286.92 198.424 288.328 198.424Z" fill="#F8E58E"/>
<path d="M308.032 213.4H317.504V223H308.032V213.4Z" fill="#F8E58E"/>
<path d="M335.264 223.576C331.296 223.576 327.989 222.68 325.344 220.888C322.741 219.096 320.8 216.579 319.52 213.336C318.283 210.051 317.664 206.189 317.664 201.752C317.664 197.272 318.325 193.432 319.648 190.232C320.971 187.032 322.933 184.579 325.536 182.872C328.181 181.165 331.424 180.312 335.264 180.312C339.147 180.312 342.411 181.165 345.056 182.872C347.701 184.579 349.685 187.032 351.008 190.232C352.331 193.432 352.992 197.272 352.992 201.752C352.992 206.189 352.352 210.051 351.072 213.336C349.835 216.579 347.893 219.096 345.248 220.888C342.603 222.68 339.275 223.576 335.264 223.576ZM335.264 215.32C336.971 215.32 338.379 214.808 339.488 213.784C340.64 212.717 341.472 211.181 341.984 209.176C342.539 207.171 342.816 204.717 342.816 201.816C342.816 198.957 342.517 196.547 341.92 194.584C341.365 192.579 340.512 191.085 339.36 190.104C338.251 189.08 336.885 188.568 335.264 188.568C333.643 188.568 332.277 189.08 331.168 190.104C330.059 191.085 329.227 192.579 328.672 194.584C328.117 196.547 327.84 198.957 327.84 201.816C327.84 204.717 328.096 207.171 328.608 209.176C329.163 211.181 329.995 212.717 331.104 213.784C332.213 214.808 333.6 215.32 335.264 215.32Z" fill="#F8E58E"/>
</g>
<path d="M237.896 194.336H248.536L255.256 213.712H255.368L262.2 194.336H271.496L260.24 222H249.32L237.896 194.336Z" fill="#CB7100"/>
<path d="M288.328 222.576C284.616 222.576 281.437 222.085 278.792 221.104C276.147 220.08 274.12 218.629 272.712 216.752C271.304 214.875 270.6 212.613 270.6 209.968C270.6 207.323 271.304 205.125 272.712 203.376C274.163 201.627 276.147 200.496 278.664 199.984V199.92C276.701 199.408 275.165 198.384 274.056 196.848C272.989 195.269 272.456 193.349 272.456 191.088C272.456 188.613 273.075 186.501 274.312 184.752C275.592 183.003 277.405 181.659 279.752 180.72C282.141 179.781 285 179.312 288.328 179.312C291.656 179.312 294.493 179.781 296.84 180.72C299.229 181.659 301.043 183.003 302.28 184.752C303.56 186.501 304.2 188.613 304.2 191.088C304.2 193.349 303.645 195.269 302.536 196.848C301.427 198.384 299.891 199.408 297.928 199.92V199.984C300.488 200.496 302.472 201.627 303.88 203.376C305.331 205.125 306.056 207.323 306.056 209.968C306.056 212.613 305.352 214.875 303.944 216.752C302.536 218.629 300.509 220.08 297.864 221.104C295.219 222.085 292.04 222.576 288.328 222.576ZM288.328 214.96C289.907 214.96 291.251 214.725 292.36 214.256C293.512 213.787 294.387 213.125 294.984 212.272C295.581 211.376 295.88 210.331 295.88 209.136C295.88 207.472 295.197 206.171 293.832 205.232C292.509 204.293 290.675 203.824 288.328 203.824C285.981 203.824 284.125 204.293 282.76 205.232C281.437 206.171 280.776 207.472 280.776 209.136C280.776 210.331 281.075 211.376 281.672 212.272C282.269 213.125 283.123 213.787 284.232 214.256C285.384 214.725 286.749 214.96 288.328 214.96ZM288.328 197.424C289.736 197.424 290.952 197.232 291.976 196.848C293 196.421 293.768 195.845 294.28 195.12C294.835 194.352 295.112 193.435 295.112 192.368C295.112 191.216 294.835 190.235 294.28 189.424C293.768 188.613 293 187.995 291.976 187.568C290.952 187.141 289.736 186.928 288.328 186.928C286.92 186.928 285.704 187.141 284.68 187.568C283.656 187.995 282.867 188.613 282.312 189.424C281.8 190.235 281.544 191.216 281.544 192.368C281.544 193.435 281.8 194.352 282.312 195.12C282.867 195.845 283.656 196.421 284.68 196.848C285.704 197.232 286.92 197.424 288.328 197.424Z" fill="#CB7100"/>
<path d="M308.032 212.4H317.504V222H308.032V212.4Z" fill="#CB7100"/>
<path d="M335.264 222.576C331.296 222.576 327.989 221.68 325.344 219.888C322.741 218.096 320.8 215.579 319.52 212.336C318.283 209.051 317.664 205.189 317.664 200.752C317.664 196.272 318.325 192.432 319.648 189.232C320.971 186.032 322.933 183.579 325.536 181.872C328.181 180.165 331.424 179.312 335.264 179.312C339.147 179.312 342.411 180.165 345.056 181.872C347.701 183.579 349.685 186.032 351.008 189.232C352.331 192.432 352.992 196.272 352.992 200.752C352.992 205.189 352.352 209.051 351.072 212.336C349.835 215.579 347.893 218.096 345.248 219.888C342.603 221.68 339.275 222.576 335.264 222.576ZM335.264 214.32C336.971 214.32 338.379 213.808 339.488 212.784C340.64 211.717 341.472 210.181 341.984 208.176C342.539 206.171 342.816 203.717 342.816 200.816C342.816 197.957 342.517 195.547 341.92 193.584C341.365 191.579 340.512 190.085 339.36 189.104C338.251 188.08 336.885 187.568 335.264 187.568C333.643 187.568 332.277 188.08 331.168 189.104C330.059 190.085 329.227 191.579 328.672 193.584C328.117 195.547 327.84 197.957 327.84 200.816C327.84 203.717 328.096 206.171 328.608 208.176C329.163 210.181 329.995 211.717 331.104 212.784C332.213 213.808 333.6 214.32 335.264 214.32Z" fill="#CB7100"/>
<path d="M237.896 194.336H248.536L255.256 213.712H255.368L262.2 194.336H271.496L260.24 222H249.32L237.896 194.336Z" fill="url(#paint3_linear_251_572)"/>
<path d="M288.328 222.576C284.616 222.576 281.437 222.085 278.792 221.104C276.147 220.08 274.12 218.629 272.712 216.752C271.304 214.875 270.6 212.613 270.6 209.968C270.6 207.323 271.304 205.125 272.712 203.376C274.163 201.627 276.147 200.496 278.664 199.984V199.92C276.701 199.408 275.165 198.384 274.056 196.848C272.989 195.269 272.456 193.349 272.456 191.088C272.456 188.613 273.075 186.501 274.312 184.752C275.592 183.003 277.405 181.659 279.752 180.72C282.141 179.781 285 179.312 288.328 179.312C291.656 179.312 294.493 179.781 296.84 180.72C299.229 181.659 301.043 183.003 302.28 184.752C303.56 186.501 304.2 188.613 304.2 191.088C304.2 193.349 303.645 195.269 302.536 196.848C301.427 198.384 299.891 199.408 297.928 199.92V199.984C300.488 200.496 302.472 201.627 303.88 203.376C305.331 205.125 306.056 207.323 306.056 209.968C306.056 212.613 305.352 214.875 303.944 216.752C302.536 218.629 300.509 220.08 297.864 221.104C295.219 222.085 292.04 222.576 288.328 222.576ZM288.328 214.96C289.907 214.96 291.251 214.725 292.36 214.256C293.512 213.787 294.387 213.125 294.984 212.272C295.581 211.376 295.88 210.331 295.88 209.136C295.88 207.472 295.197 206.171 293.832 205.232C292.509 204.293 290.675 203.824 288.328 203.824C285.981 203.824 284.125 204.293 282.76 205.232C281.437 206.171 280.776 207.472 280.776 209.136C280.776 210.331 281.075 211.376 281.672 212.272C282.269 213.125 283.123 213.787 284.232 214.256C285.384 214.725 286.749 214.96 288.328 214.96ZM288.328 197.424C289.736 197.424 290.952 197.232 291.976 196.848C293 196.421 293.768 195.845 294.28 195.12C294.835 194.352 295.112 193.435 295.112 192.368C295.112 191.216 294.835 190.235 294.28 189.424C293.768 188.613 293 187.995 291.976 187.568C290.952 187.141 289.736 186.928 288.328 186.928C286.92 186.928 285.704 187.141 284.68 187.568C283.656 187.995 282.867 188.613 282.312 189.424C281.8 190.235 281.544 191.216 281.544 192.368C281.544 193.435 281.8 194.352 282.312 195.12C282.867 195.845 283.656 196.421 284.68 196.848C285.704 197.232 286.92 197.424 288.328 197.424Z" fill="url(#paint4_linear_251_572)"/>
<path d="M308.032 212.4H317.504V222H308.032V212.4Z" fill="url(#paint5_linear_251_572)"/>
<path d="M335.264 222.576C331.296 222.576 327.989 221.68 325.344 219.888C322.741 218.096 320.8 215.579 319.52 212.336C318.283 209.051 317.664 205.189 317.664 200.752C317.664 196.272 318.325 192.432 319.648 189.232C320.971 186.032 322.933 183.579 325.536 181.872C328.181 180.165 331.424 179.312 335.264 179.312C339.147 179.312 342.411 180.165 345.056 181.872C347.701 183.579 349.685 186.032 351.008 189.232C352.331 192.432 352.992 196.272 352.992 200.752C352.992 205.189 352.352 209.051 351.072 212.336C349.835 215.579 347.893 218.096 345.248 219.888C342.603 221.68 339.275 222.576 335.264 222.576ZM335.264 214.32C336.971 214.32 338.379 213.808 339.488 212.784C340.64 211.717 341.472 210.181 341.984 208.176C342.539 206.171 342.816 203.717 342.816 200.816C342.816 197.957 342.517 195.547 341.92 193.584C341.365 191.579 340.512 190.085 339.36 189.104C338.251 188.08 336.885 187.568 335.264 187.568C333.643 187.568 332.277 188.08 331.168 189.104C330.059 190.085 329.227 191.579 328.672 193.584C328.117 195.547 327.84 197.957 327.84 200.816C327.84 203.717 328.096 206.171 328.608 208.176C329.163 210.181 329.995 211.717 331.104 212.784C332.213 213.808 333.6 214.32 335.264 214.32Z" fill="url(#paint6_linear_251_572)"/>
<g opacity="0.4" filter="url(#filter4_f_251_572)">
<path fill-rule="evenodd" clip-rule="evenodd" d="M270.635 210.97C270.793 208.765 271.485 206.9 272.712 205.376C274.163 203.627 276.147 202.496 278.664 201.984V201.92C277.706 201.67 276.849 201.298 276.094 200.804C274.755 201.415 273.627 202.272 272.712 203.376C271.304 205.125 270.6 207.323 270.6 209.968C270.6 210.308 270.612 210.642 270.635 210.97ZM272.492 192.079C272.468 191.756 272.456 191.426 272.456 191.088C272.456 188.613 273.075 186.501 274.312 184.752C275.592 183.003 277.405 181.659 279.752 180.72C282.141 179.781 285 179.312 288.328 179.312C291.656 179.312 294.493 179.781 296.84 180.72C299.229 181.659 301.043 183.003 302.28 184.752C303.56 186.501 304.2 188.613 304.2 191.088C304.2 191.425 304.188 191.755 304.163 192.078C304.01 190.034 303.382 188.258 302.28 186.752C301.043 185.003 299.229 183.659 296.84 182.72C294.493 181.781 291.656 181.312 288.328 181.312C285 181.312 282.141 181.781 279.752 182.72C277.405 183.659 275.592 185.003 274.312 186.752C273.246 188.259 272.64 190.034 272.492 192.079ZM300.51 200.796C301.864 201.408 302.988 202.268 303.88 203.376C305.331 205.125 306.056 207.323 306.056 209.968C306.056 210.311 306.044 210.647 306.021 210.977C305.859 208.769 305.145 206.902 303.88 205.376C302.472 203.627 300.488 202.496 297.928 201.984V201.92C298.891 201.669 299.752 201.294 300.51 200.796ZM292.36 214.256C291.251 214.725 289.907 214.96 288.328 214.96C286.749 214.96 285.384 214.725 284.232 214.256C283.123 213.787 282.269 213.125 281.672 212.272C281.254 211.645 280.982 210.945 280.857 210.172C280.803 210.479 280.776 210.8 280.776 211.136C280.776 212.331 281.075 213.376 281.672 214.272C282.269 215.125 283.123 215.787 284.232 216.256C285.384 216.725 286.749 216.96 288.328 216.96C289.907 216.96 291.251 216.725 292.36 216.256C293.512 215.787 294.387 215.125 294.984 214.272C295.581 213.376 295.88 212.331 295.88 211.136C295.88 210.803 295.853 210.484 295.798 210.18C295.672 210.95 295.4 211.647 294.984 212.272C294.387 213.125 293.512 213.787 292.36 214.256ZM291.976 196.848C290.952 197.232 289.736 197.424 288.328 197.424C286.92 197.424 285.704 197.232 284.68 196.848C283.656 196.421 282.867 195.845 282.312 195.12C281.961 194.594 281.731 193.997 281.62 193.331C281.569 193.66 281.544 194.005 281.544 194.368C281.544 195.435 281.8 196.352 282.312 197.12C282.867 197.845 283.656 198.421 284.68 198.848C285.704 199.232 286.92 199.424 288.328 199.424C289.736 199.424 290.952 199.232 291.976 198.848C293 198.421 293.768 197.845 294.28 197.12C294.835 196.352 295.112 195.435 295.112 194.368C295.112 194.005 295.085 193.66 295.03 193.331C294.91 193.997 294.66 194.594 294.28 195.12C293.768 195.845 293 196.421 291.976 196.848ZM248.536 194.336H237.896L238.722 196.336H248.536L255.256 215.712H255.368L262.2 196.336H270.682L271.496 194.336H262.2L255.368 213.712H255.256L248.536 194.336ZM308.032 212.4H317.504V214.4H308.032V212.4ZM352.981 201.756C352.889 197.7 352.232 194.192 351.008 191.232C349.685 188.032 347.701 185.579 345.056 183.872C342.411 182.165 339.147 181.312 335.264 181.312C331.424 181.312 328.181 182.165 325.536 183.872C322.933 185.579 320.971 188.032 319.648 191.232C318.424 194.194 317.766 197.705 317.675 201.764C317.668 201.43 317.664 201.093 317.664 200.752C317.664 196.272 318.325 192.432 319.648 189.232C320.971 186.032 322.933 183.579 325.536 181.872C328.181 180.165 331.424 179.312 335.264 179.312C339.147 179.312 342.411 180.165 345.056 181.872C347.701 183.579 349.685 186.032 351.008 189.232C352.331 192.432 352.992 196.272 352.992 200.752C352.992 201.09 352.988 201.425 352.981 201.756ZM339.488 212.784C338.379 213.808 336.971 214.32 335.264 214.32C333.6 214.32 332.213 213.808 331.104 212.784C329.995 211.717 329.163 210.181 328.608 208.176C328.158 206.412 327.905 204.301 327.851 201.843C327.844 202.161 327.84 202.486 327.84 202.816C327.84 205.717 328.096 208.171 328.608 210.176C329.163 212.181 329.995 213.717 331.104 214.784C332.213 215.808 333.6 216.32 335.264 216.32C336.971 216.32 338.379 215.808 339.488 214.784C340.64 213.717 341.472 212.181 341.984 210.176C342.539 208.171 342.816 205.717 342.816 202.816C342.816 202.485 342.812 202.16 342.804 201.842C342.745 204.3 342.472 206.411 341.984 208.176C341.472 210.181 340.64 211.717 339.488 212.784Z" fill="#612E00"/>
</g>
<g opacity="0.5" filter="url(#filter5_f_251_572)">
<path fill-rule="evenodd" clip-rule="evenodd" d="M270.635 210.97C270.793 208.765 271.485 206.9 272.712 205.376C274.163 203.627 276.147 202.496 278.664 201.984V201.92C277.706 201.67 276.849 201.298 276.094 200.804C274.755 201.415 273.627 202.272 272.712 203.376C271.304 205.125 270.6 207.323 270.6 209.968C270.6 210.308 270.612 210.642 270.635 210.97ZM272.492 192.079C272.468 191.756 272.456 191.426 272.456 191.088C272.456 188.613 273.075 186.501 274.312 184.752C275.592 183.003 277.405 181.659 279.752 180.72C282.141 179.781 285 179.312 288.328 179.312C291.656 179.312 294.493 179.781 296.84 180.72C299.229 181.659 301.043 183.003 302.28 184.752C303.56 186.501 304.2 188.613 304.2 191.088C304.2 191.425 304.188 191.755 304.163 192.078C304.01 190.034 303.382 188.258 302.28 186.752C301.043 185.003 299.229 183.659 296.84 182.72C294.493 181.781 291.656 181.312 288.328 181.312C285 181.312 282.141 181.781 279.752 182.72C277.405 183.659 275.592 185.003 274.312 186.752C273.246 188.259 272.64 190.034 272.492 192.079ZM300.51 200.796C301.864 201.408 302.988 202.268 303.88 203.376C305.331 205.125 306.056 207.323 306.056 209.968C306.056 210.311 306.044 210.647 306.021 210.977C305.859 208.769 305.145 206.902 303.88 205.376C302.472 203.627 300.488 202.496 297.928 201.984V201.92C298.891 201.669 299.752 201.294 300.51 200.796ZM292.36 214.256C291.251 214.725 289.907 214.96 288.328 214.96C286.749 214.96 285.384 214.725 284.232 214.256C283.123 213.787 282.269 213.125 281.672 212.272C281.254 211.645 280.982 210.945 280.857 210.172C280.803 210.479 280.776 210.8 280.776 211.136C280.776 212.331 281.075 213.376 281.672 214.272C282.269 215.125 283.123 215.787 284.232 216.256C285.384 216.725 286.749 216.96 288.328 216.96C289.907 216.96 291.251 216.725 292.36 216.256C293.512 215.787 294.387 215.125 294.984 214.272C295.581 213.376 295.88 212.331 295.88 211.136C295.88 210.803 295.853 210.484 295.798 210.18C295.672 210.95 295.4 211.647 294.984 212.272C294.387 213.125 293.512 213.787 292.36 214.256ZM291.976 196.848C290.952 197.232 289.736 197.424 288.328 197.424C286.92 197.424 285.704 197.232 284.68 196.848C283.656 196.421 282.867 195.845 282.312 195.12C281.961 194.594 281.731 193.997 281.62 193.331C281.569 193.66 281.544 194.005 281.544 194.368C281.544 195.435 281.8 196.352 282.312 197.12C282.867 197.845 283.656 198.421 284.68 198.848C285.704 199.232 286.92 199.424 288.328 199.424C289.736 199.424 290.952 199.232 291.976 198.848C293 198.421 293.768 197.845 294.28 197.12C294.835 196.352 295.112 195.435 295.112 194.368C295.112 194.005 295.085 193.66 295.03 193.331C294.91 193.997 294.66 194.594 294.28 195.12C293.768 195.845 293 196.421 291.976 196.848ZM248.536 194.336H237.896L238.722 196.336H248.536L255.256 215.712H255.368L262.2 196.336H270.682L271.496 194.336H262.2L255.368 213.712H255.256L248.536 194.336ZM308.032 212.4H317.504V214.4H308.032V212.4ZM352.981 201.756C352.889 197.7 352.232 194.192 351.008 191.232C349.685 188.032 347.701 185.579 345.056 183.872C342.411 182.165 339.147 181.312 335.264 181.312C331.424 181.312 328.181 182.165 325.536 183.872C322.933 185.579 320.971 188.032 319.648 191.232C318.424 194.194 317.766 197.705 317.675 201.764C317.668 201.43 317.664 201.093 317.664 200.752C317.664 196.272 318.325 192.432 319.648 189.232C320.971 186.032 322.933 183.579 325.536 181.872C328.181 180.165 331.424 179.312 335.264 179.312C339.147 179.312 342.411 180.165 345.056 181.872C347.701 183.579 349.685 186.032 351.008 189.232C352.331 192.432 352.992 196.272 352.992 200.752C352.992 201.09 352.988 201.425 352.981 201.756ZM339.488 212.784C338.379 213.808 336.971 214.32 335.264 214.32C333.6 214.32 332.213 213.808 331.104 212.784C329.995 211.717 329.163 210.181 328.608 208.176C328.158 206.412 327.905 204.301 327.851 201.843C327.844 202.161 327.84 202.486 327.84 202.816C327.84 205.717 328.096 208.171 328.608 210.176C329.163 212.181 329.995 213.717 331.104 214.784C332.213 215.808 333.6 216.32 335.264 216.32C336.971 216.32 338.379 215.808 339.488 214.784C340.64 213.717 341.472 212.181 341.984 210.176C342.539 208.171 342.816 205.717 342.816 202.816C342.816 202.485 342.812 202.16 342.804 201.842C342.745 204.3 342.472 206.411 341.984 208.176C341.472 210.181 340.64 211.717 339.488 212.784Z" fill="#612E00"/>
</g>
<defs>
<filter id="filter0_ddddddiiii_251_572" x="210" y="158" width="172" height="95" filterUnits="userSpaceOnUse" color-interpolation-filters="sRGB">
<feFlood flood-opacity="0" result="BackgroundImageFix"/>
<feColorMatrix in="SourceAlpha" type="matrix" values="0 0 0 0 0 0 0 0 0 0 0 0 0 0 0 0 0 0 127 0" result="hardAlpha"/>
<feMorphology radius="0.5" operator="erode" in="SourceAlpha" result="effect1_dropShadow_251_572"/>
<feOffset dy="1"/>
<feGaussianBlur stdDeviation="0.5"/>
<feComposite in2="hardAlpha" operator="out"/>
<feColorMatrix type="matrix" values="0 0 0 0 0.796078 0 0 0 0 0.443137 0 0 0 0 0 0 0 0 0.1 0"/>
<feBlend mode="normal" in2="BackgroundImageFix" result="effect1_dropShadow_251_572"/>
<feColorMatrix in="SourceAlpha" type="matrix" values="0 0 0 0 0 0 0 0 0 0 0 0 0 0 0 0 0 0 127 0" result="hardAlpha"/>
<feMorphology radius="1.5" operator="erode" in="SourceAlpha" result="effect2_dropShadow_251_572"/>
<feOffset dy="1"/>
<feGaussianBlur stdDeviation="1.5"/>
<feComposite in2="hardAlpha" operator="out"/>
<feColorMatrix type="matrix" values="0 0 0 0 0.796078 0 0 0 0 0.443137 0 0 0 0 0 0 0 0 0.1 0"/>
<feBlend mode="normal" in2="effect1_dropShadow_251_572" result="effect2_dropShadow_251_572"/>
<feColorMatrix in="SourceAlpha" type="matrix" values="0 0 0 0 0 0 0 0 0 0 0 0 0 0 0 0 0 0 127 0" result="hardAlpha"/>
<feMorphology radius="2" operator="erode" in="SourceAlpha" result="effect3_dropShadow_251_572"/>
<feOffset dy="2"/>
<feGaussianBlur stdDeviation="2"/>
<feComposite in2="hardAlpha" operator="out"/>
<feColorMatrix type="matrix" values="0 0 0 0 0.796078 0 0 0 0 0.443137 0 0 0 0 0 0 0 0 0.1 0"/>
<feBlend mode="normal" in2="effect2_dropShadow_251_572" result="effect3_dropShadow_251_572"/>
<feColorMatrix in="SourceAlpha" type="matrix" values="0 0 0 0 0 0 0 0 0 0 0 0 0 0 0 0 0 0 127 0" result="hardAlpha"/>
<feMorphology radius="3" operator="erode" in="SourceAlpha" result="effect4_dropShadow_251_572"/>
<feOffset dy="3"/>
<feGaussianBlur stdDeviation="3"/>
<feComposite in2="hardAlpha" operator="out"/>
<feColorMatrix type="matrix" values="0 0 0 0 0.796078 0 0 0 0 0.443137 0 0 0 0 0 0 0 0 0.1 0"/>
<feBlend mode="normal" in2="effect3_dropShadow_251_572" result="effect4_dropShadow_251_572"/>
<feColorMatrix in="SourceAlpha" type="matrix" values="0 0 0 0 0 0 0 0 0 0 0 0 0 0 0 0 0 0 127 0" result="hardAlpha"/>
<feMorphology radius="4" operator="erode" in="SourceAlpha" result="effect5_dropShadow_251_572"/>
<feOffset dy="4"/>
<feGaussianBlur stdDeviation="4"/>
<feComposite in2="hardAlpha" operator="out"/>
<feColorMatrix type="matrix" values="0 0 0 0 0.796078 0 0 0 0 0.443137 0 0 0 0 0 0 0 0 0.1 0"/>
<feBlend mode="normal" in2="effect4_dropShadow_251_572" result="effect5_dropShadow_251_572"/>
<feColorMatrix in="SourceAlpha" type="matrix" values="0 0 0 0 0 0 0 0 0 0 0 0 0 0 0 0 0 0 127 0" result="hardAlpha"/>
<feMorphology radius="6" operator="erode" in="SourceAlpha" result="effect6_dropShadow_251_572"/>
<feOffset dy="6"/>
<feGaussianBlur stdDeviation="6"/>
<feComposite in2="hardAlpha" operator="out"/>
<feColorMatrix type="matrix" values="0 0 0 0 0.796078 0 0 0 0 0.443137 0 0 0 0 0 0 0 0 0.1 0"/>
<feBlend mode="normal" in2="effect5_dropShadow_251_572" result="effect6_dropShadow_251_572"/>
<feBlend mode="normal" in="SourceGraphic" in2="effect6_dropShadow_251_572" result="shape"/>
<feColorMatrix in="SourceAlpha" type="matrix" values="0 0 0 0 0 0 0 0 0 0 0 0 0 0 0 0 0 0 127 0" result="hardAlpha"/>
<feMorphology radius="3" operator="erode" in="SourceAlpha" result="effect7_innerShadow_251_572"/>
<feOffset dy="-3"/>
<feGaussianBlur stdDeviation="3"/>
<feComposite in2="hardAlpha" operator="arithmetic" k2="-1" k3="1"/>
<feColorMatrix type="matrix" values="0 0 0 0 0.972549 0 0 0 0 0.898039 0 0 0 0 0.556863 0 0 0 1 0"/>
<feBlend mode="normal" in2="shape" result="effect7_innerShadow_251_572"/>
<feColorMatrix in="SourceAlpha" type="matrix" values="0 0 0 0 0 0 0 0 0 0 0 0 0 0 0 0 0 0 127 0" result="hardAlpha"/>
<feMorphology radius="2" operator="erode" in="SourceAlpha" result="effect8_innerShadow_251_572"/>
<feOffset dy="2"/>
<feGaussianBlur stdDeviation="0.5"/>
<feComposite in2="hardAlpha" operator="arithmetic" k2="-1" k3="1"/>
<feColorMatrix type="matrix" values="0 0 0 0 0.972549 0 0 0 0 0.898039 0 0 0 0 0.556863 0 0 0 1 0"/>
<feBlend mode="normal" in2="effect7_innerShadow_251_572" result="effect8_innerShadow_251_572"/>
<feColorMatrix in="SourceAlpha" type="matrix" values="0 0 0 0 0 0 0 0 0 0 0 0 0 0 0 0 0 0 127 0" result="hardAlpha"/>
<feMorphology radius="1" operator="erode" in="SourceAlpha" result="effect9_innerShadow_251_572"/>
<feOffset dy="1"/>
<feGaussianBlur stdDeviation="0.5"/>
<feComposite in2="hardAlpha" operator="arithmetic" k2="-1" k3="1"/>
<feColorMatrix type="matrix" values="0 0 0 0 0.972549 0 0 0 0 0.898039 0 0 0 0 0.556863 0 0 0 1 0"/>
<feBlend mode="normal" in2="effect8_innerShadow_251_572" result="effect9_innerShadow_251_572"/>
<feColorMatrix in="SourceAlpha" type="matrix" values="0 0 0 0 0 0 0 0 0 0 0 0 0 0 0 0 0 0 127 0" result="hardAlpha"/>
<feMorphology radius="2" operator="erode" in="SourceAlpha" result="effect10_innerShadow_251_572"/>
<feOffset dy="-2"/>
<feGaussianBlur stdDeviation="1"/>
<feComposite in2="hardAlpha" operator="arithmetic" k2="-1" k3="1"/>
<feColorMatrix type="matrix" values="0 0 0 0 0.972549 0 0 0 0 0.898039 0 0 0 0 0.556863 0 0 0 1 0"/>
<feBlend mode="normal" in2="effect9_innerShadow_251_572" result="effect10_innerShadow_251_572"/>
</filter>
<filter id="filter1_f_251_572" x="235.896" y="177.312" width="119.096" height="41.648" filterUnits="userSpaceOnUse" color-interpolation-filters="sRGB">
<feFlood flood-opacity="0" result="BackgroundImageFix"/>
<feBlend mode="normal" in="SourceGraphic" in2="BackgroundImageFix" result="shape"/>
<feGaussianBlur stdDeviation="1" result="effect1_foregroundBlur_251_572"/>
</filter>
<filter id="filter2_f_251_572" x="235" y="179.312" width="122" height="47.264" filterUnits="userSpaceOnUse" color-interpolation-filters="sRGB">
<feFlood flood-opacity="0" result="BackgroundImageFix"/>
<feBlend mode="normal" in="SourceGraphic" in2="BackgroundImageFix" result="shape"/>
<feGaussianBlur stdDeviation="1" result="effect1_foregroundBlur_251_572"/>
</filter>
<filter id="filter3_f_251_572" x="236.5" y="179.812" width="119" height="44.264" filterUnits="userSpaceOnUse" color-interpolation-filters="sRGB">
<feFlood flood-opacity="0" result="BackgroundImageFix"/>
<feBlend mode="normal" in="SourceGraphic" in2="BackgroundImageFix" result="shape"/>
<feGaussianBlur stdDeviation="0.25" result="effect1_foregroundBlur_251_572"/>
</filter>
<filter id="filter4_f_251_572" x="235.896" y="177.312" width="119.096" height="41.648" filterUnits="userSpaceOnUse" color-interpolation-filters="sRGB">
<feFlood flood-opacity="0" result="BackgroundImageFix"/>
<feBlend mode="normal" in="SourceGraphic" in2="BackgroundImageFix" result="shape"/>
<feGaussianBlur stdDeviation="1" result="effect1_foregroundBlur_251_572"/>
</filter>
<filter id="filter5_f_251_572" x="237.396" y="178.812" width="116.096" height="38.648" filterUnits="userSpaceOnUse" color-interpolation-filters="sRGB">
<feFlood flood-opacity="0" result="BackgroundImageFix"/>
<feBlend mode="normal" in="SourceGraphic" in2="BackgroundImageFix" result="shape"/>
<feGaussianBlur stdDeviation="0.25" result="effect1_foregroundBlur_251_572"/>
</filter>
<linearGradient id="paint0_linear_251_572" x1="296" y1="42" x2="296" y2="326" gradientUnits="userSpaceOnUse">
<stop stop-color="#4F403F" stop-opacity="0.12"/>
<stop offset="0.203125" stop-color="#4F403F" stop-opacity="0.2"/>
<stop offset="0.8125" stop-color="#4F403F" stop-opacity="0.2"/>
<stop offset="1" stop-color="#4F403F" stop-opacity="0.32"/>
</linearGradient>
<linearGradient id="paint1_linear_251_572" x1="296" y1="161" x2="296" y2="241" gradientUnits="userSpaceOnUse">
<stop stop-color="#F4D340"/>
<stop offset="1" stop-color="#EFBE08"/>
</linearGradient>
<linearGradient id="paint2_linear_251_572" x1="296" y1="161" x2="296" y2="241" gradientUnits="userSpaceOnUse">
<stop offset="0.44" stop-color="#CB7100" stop-opacity="0"/>
<stop offset="1" stop-color="#CB7100"/>
</linearGradient>
<linearGradient id="paint3_linear_251_572" x1="255" y1="185" x2="255" y2="222" gradientUnits="userSpaceOnUse">
<stop stop-color="#B15A00"/>
<stop offset="1" stop-color="#B15A00" stop-opacity="0"/>
</linearGradient>
<linearGradient id="paint4_linear_251_572" x1="288.5" y1="180" x2="288.5" y2="222" gradientUnits="userSpaceOnUse">
<stop stop-color="#B15A00"/>
<stop offset="1" stop-color="#B15A00" stop-opacity="0"/>
</linearGradient>
<linearGradient id="paint5_linear_251_572" x1="313" y1="180" x2="313" y2="222" gradientUnits="userSpaceOnUse">
<stop stop-color="#B15A00"/>
<stop offset="1" stop-color="#B15A00" stop-opacity="0"/>
</linearGradient>
<linearGradient id="paint6_linear_251_572" x1="335.5" y1="180" x2="335.5" y2="222" gradientUnits="userSpaceOnUse">
<stop stop-color="#B15A00"/>
<stop offset="1" stop-color="#B15A00" stop-opacity="0"/>
</linearGradient>
</defs>
</svg>
