<svg width="384" height="240" viewBox="0 0 384 240" fill="none" xmlns="http://www.w3.org/2000/svg">
<g filter="url(#filter0_ddddddiiii_259_4368)">
<rect x="112" y="80" width="160" height="80" rx="40" fill="url(#paint0_linear_259_4368)"/>
</g>
<rect x="113" y="81" width="158" height="78" rx="39" stroke="#DD8E00" stroke-width="2"/>
<rect x="113" y="81" width="158" height="78" rx="39" stroke="url(#paint1_linear_259_4368)" stroke-width="2"/>
<g filter="url(#filter1_f_259_4368)">
<path fill-rule="evenodd" clip-rule="evenodd" d="M166.635 129.97C166.793 127.765 167.485 125.9 168.712 124.376C170.163 122.627 172.147 121.496 174.664 120.984V120.92C173.706 120.67 172.849 120.298 172.094 119.804C170.755 120.415 169.627 121.272 168.712 122.376C167.304 124.125 166.6 126.323 166.6 128.968C166.6 129.308 166.612 129.642 166.635 129.97ZM168.492 111.079C168.468 110.756 168.456 110.426 168.456 110.088C168.456 107.613 169.075 105.501 170.312 103.752C171.592 102.003 173.405 100.659 175.752 99.72C178.141 98.7813 181 98.312 184.328 98.312C187.656 98.312 190.493 98.7813 192.84 99.72C195.229 100.659 197.043 102.003 198.28 103.752C199.56 105.501 200.2 107.613 200.2 110.088C200.2 110.425 200.188 110.755 200.163 111.078C200.01 109.034 199.382 107.258 198.28 105.752C197.043 104.003 195.229 102.659 192.84 101.72C190.493 100.781 187.656 100.312 184.328 100.312C181 100.312 178.141 100.781 175.752 101.72C173.405 102.659 171.592 104.003 170.312 105.752C169.246 107.259 168.64 109.034 168.492 111.079ZM196.51 119.796C197.864 120.408 198.988 121.268 199.88 122.376C201.331 124.125 202.056 126.323 202.056 128.968C202.056 129.311 202.044 129.647 202.021 129.977C201.859 127.769 201.145 125.902 199.88 124.376C198.472 122.627 196.488 121.496 193.928 120.984V120.92C194.891 120.669 195.752 120.294 196.51 119.796ZM188.36 133.256C187.251 133.725 185.907 133.96 184.328 133.96C182.749 133.96 181.384 133.725 180.232 133.256C179.123 132.787 178.269 132.125 177.672 131.272C177.254 130.645 176.982 129.945 176.857 129.172C176.803 129.479 176.776 129.8 176.776 130.136C176.776 131.331 177.075 132.376 177.672 133.272C178.269 134.125 179.123 134.787 180.232 135.256C181.384 135.725 182.749 135.96 184.328 135.96C185.907 135.96 187.251 135.725 188.36 135.256C189.512 134.787 190.387 134.125 190.984 133.272C191.581 132.376 191.88 131.331 191.88 130.136C191.88 129.803 191.853 129.484 191.798 129.18C191.672 129.95 191.4 130.647 190.984 131.272C190.387 132.125 189.512 132.787 188.36 133.256ZM187.976 115.848C186.952 116.232 185.736 116.424 184.328 116.424C182.92 116.424 181.704 116.232 180.68 115.848C179.656 115.421 178.867 114.845 178.312 114.12C177.961 113.594 177.731 112.997 177.62 112.331C177.569 112.66 177.544 113.005 177.544 113.368C177.544 114.435 177.8 115.352 178.312 116.12C178.867 116.845 179.656 117.421 180.68 117.848C181.704 118.232 182.92 118.424 184.328 118.424C185.736 118.424 186.952 118.232 187.976 117.848C189 117.421 189.768 116.845 190.28 116.12C190.835 115.352 191.112 114.435 191.112 113.368C191.112 113.005 191.085 112.66 191.03 112.331C190.91 112.997 190.66 113.594 190.28 114.12C189.768 114.845 189 115.421 187.976 115.848ZM144.536 113.336H133.896L134.722 115.336H144.536L151.256 134.712H151.368L158.2 115.336H166.682L167.496 113.336H158.2L151.368 132.712H151.256L144.536 113.336ZM204.032 131.4H213.504V133.4H204.032V131.4ZM248.981 120.756C248.889 116.7 248.232 113.192 247.008 110.232C245.685 107.032 243.701 104.579 241.056 102.872C238.411 101.165 235.147 100.312 231.264 100.312C227.424 100.312 224.181 101.165 221.536 102.872C218.933 104.579 216.971 107.032 215.648 110.232C214.424 113.194 213.766 116.705 213.675 120.764C213.668 120.43 213.664 120.093 213.664 119.752C213.664 115.272 214.325 111.432 215.648 108.232C216.971 105.032 218.933 102.579 221.536 100.872C224.181 99.1653 227.424 98.312 231.264 98.312C235.147 98.312 238.411 99.1653 241.056 100.872C243.701 102.579 245.685 105.032 247.008 108.232C248.331 111.432 248.992 115.272 248.992 119.752C248.992 120.09 248.988 120.425 248.981 120.756ZM235.488 131.784C234.379 132.808 232.971 133.32 231.264 133.32C229.6 133.32 228.213 132.808 227.104 131.784C225.995 130.717 225.163 129.181 224.608 127.176C224.158 125.412 223.905 123.301 223.851 120.843C223.844 121.162 223.84 121.486 223.84 121.816C223.84 124.717 224.096 127.171 224.608 129.176C225.163 131.181 225.995 132.717 227.104 133.784C228.213 134.808 229.6 135.32 231.264 135.32C232.971 135.32 234.379 134.808 235.488 133.784C236.64 132.717 237.472 131.181 237.984 129.176C238.539 127.171 238.816 124.717 238.816 121.816C238.816 121.485 238.812 121.161 238.804 120.842C238.745 123.3 238.472 125.411 237.984 127.176C237.472 129.181 236.64 130.717 235.488 131.784Z" fill="#CB7100"/>
</g>
<g opacity="0.6" filter="url(#filter2_f_259_4368)">
<path d="M133.896 115.336H144.536L151.256 134.712H151.368L158.2 115.336H167.496L156.24 143H145.32L133.896 115.336Z" fill="#F8E58E"/>
<path d="M184.328 143.576C180.616 143.576 177.437 143.085 174.792 142.104C172.147 141.08 170.12 139.629 168.712 137.752C167.304 135.875 166.6 133.613 166.6 130.968C166.6 128.323 167.304 126.125 168.712 124.376C170.163 122.627 172.147 121.496 174.664 120.984V120.92C172.701 120.408 171.165 119.384 170.056 117.848C168.989 116.269 168.456 114.349 168.456 112.088C168.456 109.613 169.075 107.501 170.312 105.752C171.592 104.003 173.405 102.659 175.752 101.72C178.141 100.781 181 100.312 184.328 100.312C187.656 100.312 190.493 100.781 192.84 101.72C195.229 102.659 197.043 104.003 198.28 105.752C199.56 107.501 200.2 109.613 200.2 112.088C200.2 114.349 199.645 116.269 198.536 117.848C197.427 119.384 195.891 120.408 193.928 120.92V120.984C196.488 121.496 198.472 122.627 199.88 124.376C201.331 126.125 202.056 128.323 202.056 130.968C202.056 133.613 201.352 135.875 199.944 137.752C198.536 139.629 196.509 141.08 193.864 142.104C191.219 143.085 188.04 143.576 184.328 143.576ZM184.328 135.96C185.907 135.96 187.251 135.725 188.36 135.256C189.512 134.787 190.387 134.125 190.984 133.272C191.581 132.376 191.88 131.331 191.88 130.136C191.88 128.472 191.197 127.171 189.832 126.232C188.509 125.293 186.675 124.824 184.328 124.824C181.981 124.824 180.125 125.293 178.76 126.232C177.437 127.171 176.776 128.472 176.776 130.136C176.776 131.331 177.075 132.376 177.672 133.272C178.269 134.125 179.123 134.787 180.232 135.256C181.384 135.725 182.749 135.96 184.328 135.96ZM184.328 118.424C185.736 118.424 186.952 118.232 187.976 117.848C189 117.421 189.768 116.845 190.28 116.12C190.835 115.352 191.112 114.435 191.112 113.368C191.112 112.216 190.835 111.235 190.28 110.424C189.768 109.613 189 108.995 187.976 108.568C186.952 108.141 185.736 107.928 184.328 107.928C182.92 107.928 181.704 108.141 180.68 108.568C179.656 108.995 178.867 109.613 178.312 110.424C177.8 111.235 177.544 112.216 177.544 113.368C177.544 114.435 177.8 115.352 178.312 116.12C178.867 116.845 179.656 117.421 180.68 117.848C181.704 118.232 182.92 118.424 184.328 118.424Z" fill="#F8E58E"/>
<path d="M204.032 133.4H213.504V143H204.032V133.4Z" fill="#F8E58E"/>
<path d="M231.264 143.576C227.296 143.576 223.989 142.68 221.344 140.888C218.741 139.096 216.8 136.579 215.52 133.336C214.283 130.051 213.664 126.189 213.664 121.752C213.664 117.272 214.325 113.432 215.648 110.232C216.971 107.032 218.933 104.579 221.536 102.872C224.181 101.165 227.424 100.312 231.264 100.312C235.147 100.312 238.411 101.165 241.056 102.872C243.701 104.579 245.685 107.032 247.008 110.232C248.331 113.432 248.992 117.272 248.992 121.752C248.992 126.189 248.352 130.051 247.072 133.336C245.835 136.579 243.893 139.096 241.248 140.888C238.603 142.68 235.275 143.576 231.264 143.576ZM231.264 135.32C232.971 135.32 234.379 134.808 235.488 133.784C236.64 132.717 237.472 131.181 237.984 129.176C238.539 127.171 238.816 124.717 238.816 121.816C238.816 118.957 238.517 116.547 237.92 114.584C237.365 112.579 236.512 111.085 235.36 110.104C234.251 109.08 232.885 108.568 231.264 108.568C229.643 108.568 228.277 109.08 227.168 110.104C226.059 111.085 225.227 112.579 224.672 114.584C224.117 116.547 223.84 118.957 223.84 121.816C223.84 124.717 224.096 127.171 224.608 129.176C225.163 131.181 225.995 132.717 227.104 133.784C228.213 134.808 229.6 135.32 231.264 135.32Z" fill="#F8E58E"/>
</g>
<g opacity="0.8" filter="url(#filter3_f_259_4368)">
<path d="M133.896 114.336H144.536L151.256 133.712H151.368L158.2 114.336H167.496L156.24 142H145.32L133.896 114.336Z" fill="#F8E58E"/>
<path d="M184.328 142.576C180.616 142.576 177.437 142.085 174.792 141.104C172.147 140.08 170.12 138.629 168.712 136.752C167.304 134.875 166.6 132.613 166.6 129.968C166.6 127.323 167.304 125.125 168.712 123.376C170.163 121.627 172.147 120.496 174.664 119.984V119.92C172.701 119.408 171.165 118.384 170.056 116.848C168.989 115.269 168.456 113.349 168.456 111.088C168.456 108.613 169.075 106.501 170.312 104.752C171.592 103.003 173.405 101.659 175.752 100.72C178.141 99.7813 181 99.312 184.328 99.312C187.656 99.312 190.493 99.7813 192.84 100.72C195.229 101.659 197.043 103.003 198.28 104.752C199.56 106.501 200.2 108.613 200.2 111.088C200.2 113.349 199.645 115.269 198.536 116.848C197.427 118.384 195.891 119.408 193.928 119.92V119.984C196.488 120.496 198.472 121.627 199.88 123.376C201.331 125.125 202.056 127.323 202.056 129.968C202.056 132.613 201.352 134.875 199.944 136.752C198.536 138.629 196.509 140.08 193.864 141.104C191.219 142.085 188.04 142.576 184.328 142.576ZM184.328 134.96C185.907 134.96 187.251 134.725 188.36 134.256C189.512 133.787 190.387 133.125 190.984 132.272C191.581 131.376 191.88 130.331 191.88 129.136C191.88 127.472 191.197 126.171 189.832 125.232C188.509 124.293 186.675 123.824 184.328 123.824C181.981 123.824 180.125 124.293 178.76 125.232C177.437 126.171 176.776 127.472 176.776 129.136C176.776 130.331 177.075 131.376 177.672 132.272C178.269 133.125 179.123 133.787 180.232 134.256C181.384 134.725 182.749 134.96 184.328 134.96ZM184.328 117.424C185.736 117.424 186.952 117.232 187.976 116.848C189 116.421 189.768 115.845 190.28 115.12C190.835 114.352 191.112 113.435 191.112 112.368C191.112 111.216 190.835 110.235 190.28 109.424C189.768 108.613 189 107.995 187.976 107.568C186.952 107.141 185.736 106.928 184.328 106.928C182.92 106.928 181.704 107.141 180.68 107.568C179.656 107.995 178.867 108.613 178.312 109.424C177.8 110.235 177.544 111.216 177.544 112.368C177.544 113.435 177.8 114.352 178.312 115.12C178.867 115.845 179.656 116.421 180.68 116.848C181.704 117.232 182.92 117.424 184.328 117.424Z" fill="#F8E58E"/>
<path d="M204.032 132.4H213.504V142H204.032V132.4Z" fill="#F8E58E"/>
<path d="M231.264 142.576C227.296 142.576 223.989 141.68 221.344 139.888C218.741 138.096 216.8 135.579 215.52 132.336C214.283 129.051 213.664 125.189 213.664 120.752C213.664 116.272 214.325 112.432 215.648 109.232C216.971 106.032 218.933 103.579 221.536 101.872C224.181 100.165 227.424 99.312 231.264 99.312C235.147 99.312 238.411 100.165 241.056 101.872C243.701 103.579 245.685 106.032 247.008 109.232C248.331 112.432 248.992 116.272 248.992 120.752C248.992 125.189 248.352 129.051 247.072 132.336C245.835 135.579 243.893 138.096 241.248 139.888C238.603 141.68 235.275 142.576 231.264 142.576ZM231.264 134.32C232.971 134.32 234.379 133.808 235.488 132.784C236.64 131.717 237.472 130.181 237.984 128.176C238.539 126.171 238.816 123.717 238.816 120.816C238.816 117.957 238.517 115.547 237.92 113.584C237.365 111.579 236.512 110.085 235.36 109.104C234.251 108.08 232.885 107.568 231.264 107.568C229.643 107.568 228.277 108.08 227.168 109.104C226.059 110.085 225.227 111.579 224.672 113.584C224.117 115.547 223.84 117.957 223.84 120.816C223.84 123.717 224.096 126.171 224.608 128.176C225.163 130.181 225.995 131.717 227.104 132.784C228.213 133.808 229.6 134.32 231.264 134.32Z" fill="#F8E58E"/>
</g>
<path d="M133.896 113.336H144.536L151.256 132.712H151.368L158.2 113.336H167.496L156.24 141H145.32L133.896 113.336Z" fill="#CB7100"/>
<path d="M184.328 141.576C180.616 141.576 177.437 141.085 174.792 140.104C172.147 139.08 170.12 137.629 168.712 135.752C167.304 133.875 166.6 131.613 166.6 128.968C166.6 126.323 167.304 124.125 168.712 122.376C170.163 120.627 172.147 119.496 174.664 118.984V118.92C172.701 118.408 171.165 117.384 170.056 115.848C168.989 114.269 168.456 112.349 168.456 110.088C168.456 107.613 169.075 105.501 170.312 103.752C171.592 102.003 173.405 100.659 175.752 99.72C178.141 98.7813 181 98.312 184.328 98.312C187.656 98.312 190.493 98.7813 192.84 99.72C195.229 100.659 197.043 102.003 198.28 103.752C199.56 105.501 200.2 107.613 200.2 110.088C200.2 112.349 199.645 114.269 198.536 115.848C197.427 117.384 195.891 118.408 193.928 118.92V118.984C196.488 119.496 198.472 120.627 199.88 122.376C201.331 124.125 202.056 126.323 202.056 128.968C202.056 131.613 201.352 133.875 199.944 135.752C198.536 137.629 196.509 139.08 193.864 140.104C191.219 141.085 188.04 141.576 184.328 141.576ZM184.328 133.96C185.907 133.96 187.251 133.725 188.36 133.256C189.512 132.787 190.387 132.125 190.984 131.272C191.581 130.376 191.88 129.331 191.88 128.136C191.88 126.472 191.197 125.171 189.832 124.232C188.509 123.293 186.675 122.824 184.328 122.824C181.981 122.824 180.125 123.293 178.76 124.232C177.437 125.171 176.776 126.472 176.776 128.136C176.776 129.331 177.075 130.376 177.672 131.272C178.269 132.125 179.123 132.787 180.232 133.256C181.384 133.725 182.749 133.96 184.328 133.96ZM184.328 116.424C185.736 116.424 186.952 116.232 187.976 115.848C189 115.421 189.768 114.845 190.28 114.12C190.835 113.352 191.112 112.435 191.112 111.368C191.112 110.216 190.835 109.235 190.28 108.424C189.768 107.613 189 106.995 187.976 106.568C186.952 106.141 185.736 105.928 184.328 105.928C182.92 105.928 181.704 106.141 180.68 106.568C179.656 106.995 178.867 107.613 178.312 108.424C177.8 109.235 177.544 110.216 177.544 111.368C177.544 112.435 177.8 113.352 178.312 114.12C178.867 114.845 179.656 115.421 180.68 115.848C181.704 116.232 182.92 116.424 184.328 116.424Z" fill="#CB7100"/>
<path d="M204.032 131.4H213.504V141H204.032V131.4Z" fill="#CB7100"/>
<path d="M231.264 141.576C227.296 141.576 223.989 140.68 221.344 138.888C218.741 137.096 216.8 134.579 215.52 131.336C214.283 128.051 213.664 124.189 213.664 119.752C213.664 115.272 214.325 111.432 215.648 108.232C216.971 105.032 218.933 102.579 221.536 100.872C224.181 99.1653 227.424 98.312 231.264 98.312C235.147 98.312 238.411 99.1653 241.056 100.872C243.701 102.579 245.685 105.032 247.008 108.232C248.331 111.432 248.992 115.272 248.992 119.752C248.992 124.189 248.352 128.051 247.072 131.336C245.835 134.579 243.893 137.096 241.248 138.888C238.603 140.68 235.275 141.576 231.264 141.576ZM231.264 133.32C232.971 133.32 234.379 132.808 235.488 131.784C236.64 130.717 237.472 129.181 237.984 127.176C238.539 125.171 238.816 122.717 238.816 119.816C238.816 116.957 238.517 114.547 237.92 112.584C237.365 110.579 236.512 109.085 235.36 108.104C234.251 107.08 232.885 106.568 231.264 106.568C229.643 106.568 228.277 107.08 227.168 108.104C226.059 109.085 225.227 110.579 224.672 112.584C224.117 114.547 223.84 116.957 223.84 119.816C223.84 122.717 224.096 125.171 224.608 127.176C225.163 129.181 225.995 130.717 227.104 131.784C228.213 132.808 229.6 133.32 231.264 133.32Z" fill="#CB7100"/>
<path d="M133.896 113.336H144.536L151.256 132.712H151.368L158.2 113.336H167.496L156.24 141H145.32L133.896 113.336Z" fill="url(#paint2_linear_259_4368)"/>
<path d="M184.328 141.576C180.616 141.576 177.437 141.085 174.792 140.104C172.147 139.08 170.12 137.629 168.712 135.752C167.304 133.875 166.6 131.613 166.6 128.968C166.6 126.323 167.304 124.125 168.712 122.376C170.163 120.627 172.147 119.496 174.664 118.984V118.92C172.701 118.408 171.165 117.384 170.056 115.848C168.989 114.269 168.456 112.349 168.456 110.088C168.456 107.613 169.075 105.501 170.312 103.752C171.592 102.003 173.405 100.659 175.752 99.72C178.141 98.7813 181 98.312 184.328 98.312C187.656 98.312 190.493 98.7813 192.84 99.72C195.229 100.659 197.043 102.003 198.28 103.752C199.56 105.501 200.2 107.613 200.2 110.088C200.2 112.349 199.645 114.269 198.536 115.848C197.427 117.384 195.891 118.408 193.928 118.92V118.984C196.488 119.496 198.472 120.627 199.88 122.376C201.331 124.125 202.056 126.323 202.056 128.968C202.056 131.613 201.352 133.875 199.944 135.752C198.536 137.629 196.509 139.08 193.864 140.104C191.219 141.085 188.04 141.576 184.328 141.576ZM184.328 133.96C185.907 133.96 187.251 133.725 188.36 133.256C189.512 132.787 190.387 132.125 190.984 131.272C191.581 130.376 191.88 129.331 191.88 128.136C191.88 126.472 191.197 125.171 189.832 124.232C188.509 123.293 186.675 122.824 184.328 122.824C181.981 122.824 180.125 123.293 178.76 124.232C177.437 125.171 176.776 126.472 176.776 128.136C176.776 129.331 177.075 130.376 177.672 131.272C178.269 132.125 179.123 132.787 180.232 133.256C181.384 133.725 182.749 133.96 184.328 133.96ZM184.328 116.424C185.736 116.424 186.952 116.232 187.976 115.848C189 115.421 189.768 114.845 190.28 114.12C190.835 113.352 191.112 112.435 191.112 111.368C191.112 110.216 190.835 109.235 190.28 108.424C189.768 107.613 189 106.995 187.976 106.568C186.952 106.141 185.736 105.928 184.328 105.928C182.92 105.928 181.704 106.141 180.68 106.568C179.656 106.995 178.867 107.613 178.312 108.424C177.8 109.235 177.544 110.216 177.544 111.368C177.544 112.435 177.8 113.352 178.312 114.12C178.867 114.845 179.656 115.421 180.68 115.848C181.704 116.232 182.92 116.424 184.328 116.424Z" fill="url(#paint3_linear_259_4368)"/>
<path d="M204.032 131.4H213.504V141H204.032V131.4Z" fill="url(#paint4_linear_259_4368)"/>
<path d="M231.264 141.576C227.296 141.576 223.989 140.68 221.344 138.888C218.741 137.096 216.8 134.579 215.52 131.336C214.283 128.051 213.664 124.189 213.664 119.752C213.664 115.272 214.325 111.432 215.648 108.232C216.971 105.032 218.933 102.579 221.536 100.872C224.181 99.1653 227.424 98.312 231.264 98.312C235.147 98.312 238.411 99.1653 241.056 100.872C243.701 102.579 245.685 105.032 247.008 108.232C248.331 111.432 248.992 115.272 248.992 119.752C248.992 124.189 248.352 128.051 247.072 131.336C245.835 134.579 243.893 137.096 241.248 138.888C238.603 140.68 235.275 141.576 231.264 141.576ZM231.264 133.32C232.971 133.32 234.379 132.808 235.488 131.784C236.64 130.717 237.472 129.181 237.984 127.176C238.539 125.171 238.816 122.717 238.816 119.816C238.816 116.957 238.517 114.547 237.92 112.584C237.365 110.579 236.512 109.085 235.36 108.104C234.251 107.08 232.885 106.568 231.264 106.568C229.643 106.568 228.277 107.08 227.168 108.104C226.059 109.085 225.227 110.579 224.672 112.584C224.117 114.547 223.84 116.957 223.84 119.816C223.84 122.717 224.096 125.171 224.608 127.176C225.163 129.181 225.995 130.717 227.104 131.784C228.213 132.808 229.6 133.32 231.264 133.32Z" fill="url(#paint5_linear_259_4368)"/>
<g opacity="0.4" filter="url(#filter4_f_259_4368)">
<path fill-rule="evenodd" clip-rule="evenodd" d="M166.635 129.97C166.793 127.765 167.485 125.9 168.712 124.376C170.163 122.627 172.147 121.496 174.664 120.984V120.92C173.706 120.67 172.849 120.298 172.094 119.804C170.755 120.415 169.627 121.272 168.712 122.376C167.304 124.125 166.6 126.323 166.6 128.968C166.6 129.308 166.612 129.642 166.635 129.97ZM168.492 111.079C168.468 110.756 168.456 110.426 168.456 110.088C168.456 107.613 169.075 105.501 170.312 103.752C171.592 102.003 173.405 100.659 175.752 99.72C178.141 98.7813 181 98.312 184.328 98.312C187.656 98.312 190.493 98.7813 192.84 99.72C195.229 100.659 197.043 102.003 198.28 103.752C199.56 105.501 200.2 107.613 200.2 110.088C200.2 110.425 200.188 110.755 200.163 111.078C200.01 109.034 199.382 107.258 198.28 105.752C197.043 104.003 195.229 102.659 192.84 101.72C190.493 100.781 187.656 100.312 184.328 100.312C181 100.312 178.141 100.781 175.752 101.72C173.405 102.659 171.592 104.003 170.312 105.752C169.246 107.259 168.64 109.034 168.492 111.079ZM196.51 119.796C197.864 120.408 198.988 121.268 199.88 122.376C201.331 124.125 202.056 126.323 202.056 128.968C202.056 129.311 202.044 129.647 202.021 129.977C201.859 127.769 201.145 125.902 199.88 124.376C198.472 122.627 196.488 121.496 193.928 120.984V120.92C194.891 120.669 195.752 120.294 196.51 119.796ZM188.36 133.256C187.251 133.725 185.907 133.96 184.328 133.96C182.749 133.96 181.384 133.725 180.232 133.256C179.123 132.787 178.269 132.125 177.672 131.272C177.254 130.645 176.982 129.945 176.857 129.172C176.803 129.479 176.776 129.8 176.776 130.136C176.776 131.331 177.075 132.376 177.672 133.272C178.269 134.125 179.123 134.787 180.232 135.256C181.384 135.725 182.749 135.96 184.328 135.96C185.907 135.96 187.251 135.725 188.36 135.256C189.512 134.787 190.387 134.125 190.984 133.272C191.581 132.376 191.88 131.331 191.88 130.136C191.88 129.803 191.853 129.484 191.798 129.18C191.672 129.95 191.4 130.647 190.984 131.272C190.387 132.125 189.512 132.787 188.36 133.256ZM187.976 115.848C186.952 116.232 185.736 116.424 184.328 116.424C182.92 116.424 181.704 116.232 180.68 115.848C179.656 115.421 178.867 114.845 178.312 114.12C177.961 113.594 177.731 112.997 177.62 112.331C177.569 112.66 177.544 113.005 177.544 113.368C177.544 114.435 177.8 115.352 178.312 116.12C178.867 116.845 179.656 117.421 180.68 117.848C181.704 118.232 182.92 118.424 184.328 118.424C185.736 118.424 186.952 118.232 187.976 117.848C189 117.421 189.768 116.845 190.28 116.12C190.835 115.352 191.112 114.435 191.112 113.368C191.112 113.005 191.085 112.66 191.03 112.331C190.91 112.997 190.66 113.594 190.28 114.12C189.768 114.845 189 115.421 187.976 115.848ZM144.536 113.336H133.896L134.722 115.336H144.536L151.256 134.712H151.368L158.2 115.336H166.682L167.496 113.336H158.2L151.368 132.712H151.256L144.536 113.336ZM204.032 131.4H213.504V133.4H204.032V131.4ZM248.981 120.756C248.889 116.7 248.232 113.192 247.008 110.232C245.685 107.032 243.701 104.579 241.056 102.872C238.411 101.165 235.147 100.312 231.264 100.312C227.424 100.312 224.181 101.165 221.536 102.872C218.933 104.579 216.971 107.032 215.648 110.232C214.424 113.194 213.766 116.705 213.675 120.764C213.668 120.43 213.664 120.093 213.664 119.752C213.664 115.272 214.325 111.432 215.648 108.232C216.971 105.032 218.933 102.579 221.536 100.872C224.181 99.1653 227.424 98.312 231.264 98.312C235.147 98.312 238.411 99.1653 241.056 100.872C243.701 102.579 245.685 105.032 247.008 108.232C248.331 111.432 248.992 115.272 248.992 119.752C248.992 120.09 248.988 120.425 248.981 120.756ZM235.488 131.784C234.379 132.808 232.971 133.32 231.264 133.32C229.6 133.32 228.213 132.808 227.104 131.784C225.995 130.717 225.163 129.181 224.608 127.176C224.158 125.412 223.905 123.301 223.851 120.843C223.844 121.162 223.84 121.486 223.84 121.816C223.84 124.717 224.096 127.171 224.608 129.176C225.163 131.181 225.995 132.717 227.104 133.784C228.213 134.808 229.6 135.32 231.264 135.32C232.971 135.32 234.379 134.808 235.488 133.784C236.64 132.717 237.472 131.181 237.984 129.176C238.539 127.171 238.816 124.717 238.816 121.816C238.816 121.485 238.812 121.161 238.804 120.842C238.745 123.3 238.472 125.411 237.984 127.176C237.472 129.181 236.64 130.717 235.488 131.784Z" fill="#612E00"/>
</g>
<g opacity="0.5" filter="url(#filter5_f_259_4368)">
<path fill-rule="evenodd" clip-rule="evenodd" d="M166.635 129.97C166.793 127.765 167.485 125.9 168.712 124.376C170.163 122.627 172.147 121.496 174.664 120.984V120.92C173.706 120.67 172.849 120.298 172.094 119.804C170.755 120.415 169.627 121.272 168.712 122.376C167.304 124.125 166.6 126.323 166.6 128.968C166.6 129.308 166.612 129.642 166.635 129.97ZM168.492 111.079C168.468 110.756 168.456 110.426 168.456 110.088C168.456 107.613 169.075 105.501 170.312 103.752C171.592 102.003 173.405 100.659 175.752 99.72C178.141 98.7813 181 98.312 184.328 98.312C187.656 98.312 190.493 98.7813 192.84 99.72C195.229 100.659 197.043 102.003 198.28 103.752C199.56 105.501 200.2 107.613 200.2 110.088C200.2 110.425 200.188 110.755 200.163 111.078C200.01 109.034 199.382 107.258 198.28 105.752C197.043 104.003 195.229 102.659 192.84 101.72C190.493 100.781 187.656 100.312 184.328 100.312C181 100.312 178.141 100.781 175.752 101.72C173.405 102.659 171.592 104.003 170.312 105.752C169.246 107.259 168.64 109.034 168.492 111.079ZM196.51 119.796C197.864 120.408 198.988 121.268 199.88 122.376C201.331 124.125 202.056 126.323 202.056 128.968C202.056 129.311 202.044 129.647 202.021 129.977C201.859 127.769 201.145 125.902 199.88 124.376C198.472 122.627 196.488 121.496 193.928 120.984V120.92C194.891 120.669 195.752 120.294 196.51 119.796ZM188.36 133.256C187.251 133.725 185.907 133.96 184.328 133.96C182.749 133.96 181.384 133.725 180.232 133.256C179.123 132.787 178.269 132.125 177.672 131.272C177.254 130.645 176.982 129.945 176.857 129.172C176.803 129.479 176.776 129.8 176.776 130.136C176.776 131.331 177.075 132.376 177.672 133.272C178.269 134.125 179.123 134.787 180.232 135.256C181.384 135.725 182.749 135.96 184.328 135.96C185.907 135.96 187.251 135.725 188.36 135.256C189.512 134.787 190.387 134.125 190.984 133.272C191.581 132.376 191.88 131.331 191.88 130.136C191.88 129.803 191.853 129.484 191.798 129.18C191.672 129.95 191.4 130.647 190.984 131.272C190.387 132.125 189.512 132.787 188.36 133.256ZM187.976 115.848C186.952 116.232 185.736 116.424 184.328 116.424C182.92 116.424 181.704 116.232 180.68 115.848C179.656 115.421 178.867 114.845 178.312 114.12C177.961 113.594 177.731 112.997 177.62 112.331C177.569 112.66 177.544 113.005 177.544 113.368C177.544 114.435 177.8 115.352 178.312 116.12C178.867 116.845 179.656 117.421 180.68 117.848C181.704 118.232 182.92 118.424 184.328 118.424C185.736 118.424 186.952 118.232 187.976 117.848C189 117.421 189.768 116.845 190.28 116.12C190.835 115.352 191.112 114.435 191.112 113.368C191.112 113.005 191.085 112.66 191.03 112.331C190.91 112.997 190.66 113.594 190.28 114.12C189.768 114.845 189 115.421 187.976 115.848ZM144.536 113.336H133.896L134.722 115.336H144.536L151.256 134.712H151.368L158.2 115.336H166.682L167.496 113.336H158.2L151.368 132.712H151.256L144.536 113.336ZM204.032 131.4H213.504V133.4H204.032V131.4ZM248.981 120.756C248.889 116.7 248.232 113.192 247.008 110.232C245.685 107.032 243.701 104.579 241.056 102.872C238.411 101.165 235.147 100.312 231.264 100.312C227.424 100.312 224.181 101.165 221.536 102.872C218.933 104.579 216.971 107.032 215.648 110.232C214.424 113.194 213.766 116.705 213.675 120.764C213.668 120.43 213.664 120.093 213.664 119.752C213.664 115.272 214.325 111.432 215.648 108.232C216.971 105.032 218.933 102.579 221.536 100.872C224.181 99.1653 227.424 98.312 231.264 98.312C235.147 98.312 238.411 99.1653 241.056 100.872C243.701 102.579 245.685 105.032 247.008 108.232C248.331 111.432 248.992 115.272 248.992 119.752C248.992 120.09 248.988 120.425 248.981 120.756ZM235.488 131.784C234.379 132.808 232.971 133.32 231.264 133.32C229.6 133.32 228.213 132.808 227.104 131.784C225.995 130.717 225.163 129.181 224.608 127.176C224.158 125.412 223.905 123.301 223.851 120.843C223.844 121.162 223.84 121.486 223.84 121.816C223.84 124.717 224.096 127.171 224.608 129.176C225.163 131.181 225.995 132.717 227.104 133.784C228.213 134.808 229.6 135.32 231.264 135.32C232.971 135.32 234.379 134.808 235.488 133.784C236.64 132.717 237.472 131.181 237.984 129.176C238.539 127.171 238.816 124.717 238.816 121.816C238.816 121.485 238.812 121.161 238.804 120.842C238.745 123.3 238.472 125.411 237.984 127.176C237.472 129.181 236.64 130.717 235.488 131.784Z" fill="#612E00"/>
</g>
<defs>
<filter id="filter0_ddddddiiii_259_4368" x="106" y="77" width="172" height="95" filterUnits="userSpaceOnUse" color-interpolation-filters="sRGB">
<feFlood flood-opacity="0" result="BackgroundImageFix"/>
<feColorMatrix in="SourceAlpha" type="matrix" values="0 0 0 0 0 0 0 0 0 0 0 0 0 0 0 0 0 0 127 0" result="hardAlpha"/>
<feMorphology radius="0.5" operator="erode" in="SourceAlpha" result="effect1_dropShadow_259_4368"/>
<feOffset dy="1"/>
<feGaussianBlur stdDeviation="0.5"/>
<feComposite in2="hardAlpha" operator="out"/>
<feColorMatrix type="matrix" values="0 0 0 0 0.796078 0 0 0 0 0.443137 0 0 0 0 0 0 0 0 0.1 0"/>
<feBlend mode="normal" in2="BackgroundImageFix" result="effect1_dropShadow_259_4368"/>
<feColorMatrix in="SourceAlpha" type="matrix" values="0 0 0 0 0 0 0 0 0 0 0 0 0 0 0 0 0 0 127 0" result="hardAlpha"/>
<feMorphology radius="1.5" operator="erode" in="SourceAlpha" result="effect2_dropShadow_259_4368"/>
<feOffset dy="1"/>
<feGaussianBlur stdDeviation="1.5"/>
<feComposite in2="hardAlpha" operator="out"/>
<feColorMatrix type="matrix" values="0 0 0 0 0.796078 0 0 0 0 0.443137 0 0 0 0 0 0 0 0 0.1 0"/>
<feBlend mode="normal" in2="effect1_dropShadow_259_4368" result="effect2_dropShadow_259_4368"/>
<feColorMatrix in="SourceAlpha" type="matrix" values="0 0 0 0 0 0 0 0 0 0 0 0 0 0 0 0 0 0 127 0" result="hardAlpha"/>
<feMorphology radius="2" operator="erode" in="SourceAlpha" result="effect3_dropShadow_259_4368"/>
<feOffset dy="2"/>
<feGaussianBlur stdDeviation="2"/>
<feComposite in2="hardAlpha" operator="out"/>
<feColorMatrix type="matrix" values="0 0 0 0 0.796078 0 0 0 0 0.443137 0 0 0 0 0 0 0 0 0.1 0"/>
<feBlend mode="normal" in2="effect2_dropShadow_259_4368" result="effect3_dropShadow_259_4368"/>
<feColorMatrix in="SourceAlpha" type="matrix" values="0 0 0 0 0 0 0 0 0 0 0 0 0 0 0 0 0 0 127 0" result="hardAlpha"/>
<feMorphology radius="3" operator="erode" in="SourceAlpha" result="effect4_dropShadow_259_4368"/>
<feOffset dy="3"/>
<feGaussianBlur stdDeviation="3"/>
<feComposite in2="hardAlpha" operator="out"/>
<feColorMatrix type="matrix" values="0 0 0 0 0.796078 0 0 0 0 0.443137 0 0 0 0 0 0 0 0 0.1 0"/>
<feBlend mode="normal" in2="effect3_dropShadow_259_4368" result="effect4_dropShadow_259_4368"/>
<feColorMatrix in="SourceAlpha" type="matrix" values="0 0 0 0 0 0 0 0 0 0 0 0 0 0 0 0 0 0 127 0" result="hardAlpha"/>
<feMorphology radius="4" operator="erode" in="SourceAlpha" result="effect5_dropShadow_259_4368"/>
<feOffset dy="4"/>
<feGaussianBlur stdDeviation="4"/>
<feComposite in2="hardAlpha" operator="out"/>
<feColorMatrix type="matrix" values="0 0 0 0 0.796078 0 0 0 0 0.443137 0 0 0 0 0 0 0 0 0.1 0"/>
<feBlend mode="normal" in2="effect4_dropShadow_259_4368" result="effect5_dropShadow_259_4368"/>
<feColorMatrix in="SourceAlpha" type="matrix" values="0 0 0 0 0 0 0 0 0 0 0 0 0 0 0 0 0 0 127 0" result="hardAlpha"/>
<feMorphology radius="6" operator="erode" in="SourceAlpha" result="effect6_dropShadow_259_4368"/>
<feOffset dy="6"/>
<feGaussianBlur stdDeviation="6"/>
<feComposite in2="hardAlpha" operator="out"/>
<feColorMatrix type="matrix" values="0 0 0 0 0.796078 0 0 0 0 0.443137 0 0 0 0 0 0 0 0 0.1 0"/>
<feBlend mode="normal" in2="effect5_dropShadow_259_4368" result="effect6_dropShadow_259_4368"/>
<feBlend mode="normal" in="SourceGraphic" in2="effect6_dropShadow_259_4368" result="shape"/>
<feColorMatrix in="SourceAlpha" type="matrix" values="0 0 0 0 0 0 0 0 0 0 0 0 0 0 0 0 0 0 127 0" result="hardAlpha"/>
<feMorphology radius="3" operator="erode" in="SourceAlpha" result="effect7_innerShadow_259_4368"/>
<feOffset dy="-3"/>
<feGaussianBlur stdDeviation="3"/>
<feComposite in2="hardAlpha" operator="arithmetic" k2="-1" k3="1"/>
<feColorMatrix type="matrix" values="0 0 0 0 0.972549 0 0 0 0 0.898039 0 0 0 0 0.556863 0 0 0 1 0"/>
<feBlend mode="normal" in2="shape" result="effect7_innerShadow_259_4368"/>
<feColorMatrix in="SourceAlpha" type="matrix" values="0 0 0 0 0 0 0 0 0 0 0 0 0 0 0 0 0 0 127 0" result="hardAlpha"/>
<feMorphology radius="2" operator="erode" in="SourceAlpha" result="effect8_innerShadow_259_4368"/>
<feOffset dy="2"/>
<feGaussianBlur stdDeviation="0.5"/>
<feComposite in2="hardAlpha" operator="arithmetic" k2="-1" k3="1"/>
<feColorMatrix type="matrix" values="0 0 0 0 0.972549 0 0 0 0 0.898039 0 0 0 0 0.556863 0 0 0 1 0"/>
<feBlend mode="normal" in2="effect7_innerShadow_259_4368" result="effect8_innerShadow_259_4368"/>
<feColorMatrix in="SourceAlpha" type="matrix" values="0 0 0 0 0 0 0 0 0 0 0 0 0 0 0 0 0 0 127 0" result="hardAlpha"/>
<feMorphology radius="1" operator="erode" in="SourceAlpha" result="effect9_innerShadow_259_4368"/>
<feOffset dy="1"/>
<feGaussianBlur stdDeviation="0.5"/>
<feComposite in2="hardAlpha" operator="arithmetic" k2="-1" k3="1"/>
<feColorMatrix type="matrix" values="0 0 0 0 0.972549 0 0 0 0 0.898039 0 0 0 0 0.556863 0 0 0 1 0"/>
<feBlend mode="normal" in2="effect8_innerShadow_259_4368" result="effect9_innerShadow_259_4368"/>
<feColorMatrix in="SourceAlpha" type="matrix" values="0 0 0 0 0 0 0 0 0 0 0 0 0 0 0 0 0 0 127 0" result="hardAlpha"/>
<feMorphology radius="2" operator="erode" in="SourceAlpha" result="effect10_innerShadow_259_4368"/>
<feOffset dy="-2"/>
<feGaussianBlur stdDeviation="1"/>
<feComposite in2="hardAlpha" operator="arithmetic" k2="-1" k3="1"/>
<feColorMatrix type="matrix" values="0 0 0 0 0.972549 0 0 0 0 0.898039 0 0 0 0 0.556863 0 0 0 1 0"/>
<feBlend mode="normal" in2="effect9_innerShadow_259_4368" result="effect10_innerShadow_259_4368"/>
</filter>
<filter id="filter1_f_259_4368" x="131.896" y="96.312" width="119.096" height="41.648" filterUnits="userSpaceOnUse" color-interpolation-filters="sRGB">
<feFlood flood-opacity="0" result="BackgroundImageFix"/>
<feBlend mode="normal" in="SourceGraphic" in2="BackgroundImageFix" result="shape"/>
<feGaussianBlur stdDeviation="1" result="effect1_foregroundBlur_259_4368"/>
</filter>
<filter id="filter2_f_259_4368" x="131" y="98.312" width="122" height="47.264" filterUnits="userSpaceOnUse" color-interpolation-filters="sRGB">
<feFlood flood-opacity="0" result="BackgroundImageFix"/>
<feBlend mode="normal" in="SourceGraphic" in2="BackgroundImageFix" result="shape"/>
<feGaussianBlur stdDeviation="1" result="effect1_foregroundBlur_259_4368"/>
</filter>
<filter id="filter3_f_259_4368" x="132.5" y="98.812" width="119" height="44.264" filterUnits="userSpaceOnUse" color-interpolation-filters="sRGB">
<feFlood flood-opacity="0" result="BackgroundImageFix"/>
<feBlend mode="normal" in="SourceGraphic" in2="BackgroundImageFix" result="shape"/>
<feGaussianBlur stdDeviation="0.25" result="effect1_foregroundBlur_259_4368"/>
</filter>
<filter id="filter4_f_259_4368" x="131.896" y="96.312" width="119.096" height="41.648" filterUnits="userSpaceOnUse" color-interpolation-filters="sRGB">
<feFlood flood-opacity="0" result="BackgroundImageFix"/>
<feBlend mode="normal" in="SourceGraphic" in2="BackgroundImageFix" result="shape"/>
<feGaussianBlur stdDeviation="1" result="effect1_foregroundBlur_259_4368"/>
</filter>
<filter id="filter5_f_259_4368" x="133.396" y="97.812" width="116.096" height="38.648" filterUnits="userSpaceOnUse" color-interpolation-filters="sRGB">
<feFlood flood-opacity="0" result="BackgroundImageFix"/>
<feBlend mode="normal" in="SourceGraphic" in2="BackgroundImageFix" result="shape"/>
<feGaussianBlur stdDeviation="0.25" result="effect1_foregroundBlur_259_4368"/>
</filter>
<linearGradient id="paint0_linear_259_4368" x1="192" y1="80" x2="192" y2="160" gradientUnits="userSpaceOnUse">
<stop stop-color="#F4D340"/>
<stop offset="1" stop-color="#EFBE08"/>
</linearGradient>
<linearGradient id="paint1_linear_259_4368" x1="192" y1="80" x2="192" y2="160" gradientUnits="userSpaceOnUse">
<stop offset="0.44" stop-color="#CB7100" stop-opacity="0"/>
<stop offset="1" stop-color="#CB7100"/>
</linearGradient>
<linearGradient id="paint2_linear_259_4368" x1="151" y1="104" x2="151" y2="141" gradientUnits="userSpaceOnUse">
<stop stop-color="#B15A00"/>
<stop offset="1" stop-color="#B15A00" stop-opacity="0"/>
</linearGradient>
<linearGradient id="paint3_linear_259_4368" x1="184.5" y1="99" x2="184.5" y2="141" gradientUnits="userSpaceOnUse">
<stop stop-color="#B15A00"/>
<stop offset="1" stop-color="#B15A00" stop-opacity="0"/>
</linearGradient>
<linearGradient id="paint4_linear_259_4368" x1="209" y1="99" x2="209" y2="141" gradientUnits="userSpaceOnUse">
<stop stop-color="#B15A00"/>
<stop offset="1" stop-color="#B15A00" stop-opacity="0"/>
</linearGradient>
<linearGradient id="paint5_linear_259_4368" x1="231.5" y1="99" x2="231.5" y2="141" gradientUnits="userSpaceOnUse">
<stop stop-color="#B15A00"/>
<stop offset="1" stop-color="#B15A00" stop-opacity="0"/>
</linearGradient>
</defs>
</svg>
