<svg width="592" height="368" viewBox="0 0 592 368" fill="none" xmlns="http://www.w3.org/2000/svg">
<rect x="98" y="42" width="396" height="284" rx="16" fill="url(#paint0_linear_234_1339)"/>
<path d="M100 58C100 50.268 106.268 44 114 44H478C485.732 44 492 50.268 492 58V74C492 75.1046 491.105 76 490 76H102C100.895 76 100 75.1046 100 74V58Z" fill="white"/>
<circle cx="116" cy="60" r="5" fill="#EE7244"/>
<circle cx="129" cy="60" r="5" fill="#F4D340"/>
<circle cx="142" cy="60" r="5" fill="#7EB52F"/>
<path d="M100 80C100 78.8954 100.895 78 102 78H490C491.105 78 492 78.8954 492 80V310C492 317.732 485.732 324 478 324H114C106.268 324 100 317.732 100 310V80Z" fill="#FCF9F8"/>
<g filter="url(#filter0_ddddddiiii_234_1339)">
<rect x="216" y="161" width="160" height="80" rx="40" fill="url(#paint1_linear_234_1339)"/>
</g>
<rect x="217" y="162" width="158" height="78" rx="39" stroke="#B758C9" stroke-width="2"/>
<rect x="217" y="162" width="158" height="78" rx="39" stroke="url(#paint2_linear_234_1339)" stroke-width="2"/>
<g filter="url(#filter1_f_234_1339)">
<path fill-rule="evenodd" clip-rule="evenodd" d="M345.984 201.599C345.906 197.478 345.247 193.918 344.008 190.92C342.685 187.72 340.701 185.267 338.056 183.56C335.411 181.853 332.147 181 328.264 181C324.424 181 321.181 181.853 318.536 183.56C315.933 185.267 313.971 187.72 312.648 190.92C311.408 193.92 310.749 197.482 310.672 201.606C310.667 201.324 310.664 201.039 310.664 200.752C310.664 196.272 311.325 192.432 312.648 189.232C313.971 186.032 315.933 183.579 318.536 181.872C321.181 180.165 324.424 179.312 328.264 179.312C332.147 179.312 335.411 180.165 338.056 181.872C340.701 183.579 342.685 186.032 344.008 189.232C345.331 192.432 345.992 196.272 345.992 200.752C345.992 201.037 345.989 201.319 345.984 201.599ZM332.488 212.784C331.379 213.808 329.971 214.32 328.264 214.32C326.6 214.32 325.213 213.808 324.104 212.784C322.995 211.717 322.163 210.181 321.608 208.176C321.148 206.374 320.894 204.209 320.848 201.683C320.843 201.952 320.84 202.226 320.84 202.504C320.84 205.405 321.096 207.859 321.608 209.864C322.163 211.869 322.995 213.405 324.104 214.472C325.213 215.496 326.6 216.008 328.264 216.008C329.971 216.008 331.379 215.496 332.488 214.472C333.64 213.405 334.472 211.869 334.984 209.864C335.539 207.859 335.816 205.405 335.816 202.504C335.816 202.226 335.813 201.952 335.808 201.682C335.757 204.209 335.483 206.373 334.984 208.176C334.472 210.181 333.64 211.717 332.488 212.784ZM279.136 208.688C277.429 212.741 276.192 217.179 275.424 222H275.715C276.49 217.826 277.63 213.952 279.136 210.376C280.885 206.323 283.04 202.653 285.6 199.368C288.16 196.083 291.125 193.096 294.496 190.408V190.344H292.55C289.972 192.597 287.655 195.042 285.6 197.68C283.04 200.965 280.885 204.635 279.136 208.688ZM269.408 181.576H304.928V179.888H269.408V181.576ZM255.536 194.336H244.896L245.593 196.024H255.536L262.256 215.4H262.368L269.2 196.024H277.809L278.496 194.336H269.2L262.368 213.712H262.256L255.536 194.336ZM298.032 212.4H307.504V214.088H298.032V212.4Z" fill="#9042A6"/>
</g>
<g filter="url(#filter2_f_234_1339)">
<path d="M244.896 196.336H255.536L262.256 215.712H262.368L269.2 196.336H278.496L267.24 224H256.32L244.896 196.336Z" fill="#F7C9E6" fill-opacity="0.6"/>
<path d="M275.424 224C276.192 219.179 277.429 214.741 279.136 210.688C280.885 206.635 283.04 202.965 285.6 199.68C288.16 196.395 291.125 193.408 294.496 190.72V190.656H269.408V181.888H304.928V190.144C301.6 193.131 298.763 196.352 296.416 199.808C294.069 203.264 292.171 206.997 290.72 211.008C289.312 215.019 288.288 219.349 287.648 224H275.424Z" fill="#F7C9E6" fill-opacity="0.6"/>
<path d="M298.032 214.4H307.504V224H298.032V214.4Z" fill="#F7C9E6" fill-opacity="0.6"/>
<path d="M328.264 224.576C324.296 224.576 320.989 223.68 318.344 221.888C315.741 220.096 313.8 217.579 312.52 214.336C311.283 211.051 310.664 207.189 310.664 202.752C310.664 198.272 311.325 194.432 312.648 191.232C313.971 188.032 315.933 185.579 318.536 183.872C321.181 182.165 324.424 181.312 328.264 181.312C332.147 181.312 335.411 182.165 338.056 183.872C340.701 185.579 342.685 188.032 344.008 191.232C345.331 194.432 345.992 198.272 345.992 202.752C345.992 207.189 345.352 211.051 344.072 214.336C342.835 217.579 340.893 220.096 338.248 221.888C335.603 223.68 332.275 224.576 328.264 224.576ZM328.264 216.32C329.971 216.32 331.379 215.808 332.488 214.784C333.64 213.717 334.472 212.181 334.984 210.176C335.539 208.171 335.816 205.717 335.816 202.816C335.816 199.957 335.517 197.547 334.92 195.584C334.365 193.579 333.512 192.085 332.36 191.104C331.251 190.08 329.885 189.568 328.264 189.568C326.643 189.568 325.277 190.08 324.168 191.104C323.059 192.085 322.227 193.579 321.672 195.584C321.117 197.547 320.84 199.957 320.84 202.816C320.84 205.717 321.096 208.171 321.608 210.176C322.163 212.181 322.995 213.717 324.104 214.784C325.213 215.808 326.6 216.32 328.264 216.32Z" fill="#F7C9E6" fill-opacity="0.6"/>
</g>
<g filter="url(#filter3_f_234_1339)">
<path d="M244.896 195.336H255.536L262.256 214.712H262.368L269.2 195.336H278.496L267.24 223H256.32L244.896 195.336Z" fill="#F7C9E6" fill-opacity="0.8"/>
<path d="M275.424 223C276.192 218.179 277.429 213.741 279.136 209.688C280.885 205.635 283.04 201.965 285.6 198.68C288.16 195.395 291.125 192.408 294.496 189.72V189.656H269.408V180.888H304.928V189.144C301.6 192.131 298.763 195.352 296.416 198.808C294.069 202.264 292.171 205.997 290.72 210.008C289.312 214.019 288.288 218.349 287.648 223H275.424Z" fill="#F7C9E6" fill-opacity="0.8"/>
<path d="M298.032 213.4H307.504V223H298.032V213.4Z" fill="#F7C9E6" fill-opacity="0.8"/>
<path d="M328.264 223.576C324.296 223.576 320.989 222.68 318.344 220.888C315.741 219.096 313.8 216.579 312.52 213.336C311.283 210.051 310.664 206.189 310.664 201.752C310.664 197.272 311.325 193.432 312.648 190.232C313.971 187.032 315.933 184.579 318.536 182.872C321.181 181.165 324.424 180.312 328.264 180.312C332.147 180.312 335.411 181.165 338.056 182.872C340.701 184.579 342.685 187.032 344.008 190.232C345.331 193.432 345.992 197.272 345.992 201.752C345.992 206.189 345.352 210.051 344.072 213.336C342.835 216.579 340.893 219.096 338.248 220.888C335.603 222.68 332.275 223.576 328.264 223.576ZM328.264 215.32C329.971 215.32 331.379 214.808 332.488 213.784C333.64 212.717 334.472 211.181 334.984 209.176C335.539 207.171 335.816 204.717 335.816 201.816C335.816 198.957 335.517 196.547 334.92 194.584C334.365 192.579 333.512 191.085 332.36 190.104C331.251 189.08 329.885 188.568 328.264 188.568C326.643 188.568 325.277 189.08 324.168 190.104C323.059 191.085 322.227 192.579 321.672 194.584C321.117 196.547 320.84 198.957 320.84 201.816C320.84 204.717 321.096 207.171 321.608 209.176C322.163 211.181 322.995 212.717 324.104 213.784C325.213 214.808 326.6 215.32 328.264 215.32Z" fill="#F7C9E6" fill-opacity="0.8"/>
</g>
<path d="M244.896 194.336H255.536L262.256 213.712H262.368L269.2 194.336H278.496L267.24 222H256.32L244.896 194.336Z" fill="#9042A6"/>
<path d="M275.424 222C276.192 217.179 277.429 212.741 279.136 208.688C280.885 204.635 283.04 200.965 285.6 197.68C288.16 194.395 291.125 191.408 294.496 188.72V188.656H269.408V179.888H304.928V188.144C301.6 191.131 298.763 194.352 296.416 197.808C294.069 201.264 292.171 204.997 290.72 209.008C289.312 213.019 288.288 217.349 287.648 222H275.424Z" fill="#9042A6"/>
<path d="M298.032 212.4H307.504V222H298.032V212.4Z" fill="#9042A6"/>
<path d="M328.264 222.576C324.296 222.576 320.989 221.68 318.344 219.888C315.741 218.096 313.8 215.579 312.52 212.336C311.283 209.051 310.664 205.189 310.664 200.752C310.664 196.272 311.325 192.432 312.648 189.232C313.971 186.032 315.933 183.579 318.536 181.872C321.181 180.165 324.424 179.312 328.264 179.312C332.147 179.312 335.411 180.165 338.056 181.872C340.701 183.579 342.685 186.032 344.008 189.232C345.331 192.432 345.992 196.272 345.992 200.752C345.992 205.189 345.352 209.051 344.072 212.336C342.835 215.579 340.893 218.096 338.248 219.888C335.603 221.68 332.275 222.576 328.264 222.576ZM328.264 214.32C329.971 214.32 331.379 213.808 332.488 212.784C333.64 211.717 334.472 210.181 334.984 208.176C335.539 206.171 335.816 203.717 335.816 200.816C335.816 197.957 335.517 195.547 334.92 193.584C334.365 191.579 333.512 190.085 332.36 189.104C331.251 188.08 329.885 187.568 328.264 187.568C326.643 187.568 325.277 188.08 324.168 189.104C323.059 190.085 322.227 191.579 321.672 193.584C321.117 195.547 320.84 197.957 320.84 200.816C320.84 203.717 321.096 206.171 321.608 208.176C322.163 210.181 322.995 211.717 324.104 212.784C325.213 213.808 326.6 214.32 328.264 214.32Z" fill="#9042A6"/>
<path d="M244.896 194.336H255.536L262.256 213.712H262.368L269.2 194.336H278.496L267.24 222H256.32L244.896 194.336Z" fill="url(#paint3_linear_234_1339)"/>
<path d="M275.424 222C276.192 217.179 277.429 212.741 279.136 208.688C280.885 204.635 283.04 200.965 285.6 197.68C288.16 194.395 291.125 191.408 294.496 188.72V188.656H269.408V179.888H304.928V188.144C301.6 191.131 298.763 194.352 296.416 197.808C294.069 201.264 292.171 204.997 290.72 209.008C289.312 213.019 288.288 217.349 287.648 222H275.424Z" fill="url(#paint4_linear_234_1339)"/>
<path d="M298.032 212.4H307.504V222H298.032V212.4Z" fill="url(#paint5_linear_234_1339)"/>
<path d="M328.264 222.576C324.296 222.576 320.989 221.68 318.344 219.888C315.741 218.096 313.8 215.579 312.52 212.336C311.283 209.051 310.664 205.189 310.664 200.752C310.664 196.272 311.325 192.432 312.648 189.232C313.971 186.032 315.933 183.579 318.536 181.872C321.181 180.165 324.424 179.312 328.264 179.312C332.147 179.312 335.411 180.165 338.056 181.872C340.701 183.579 342.685 186.032 344.008 189.232C345.331 192.432 345.992 196.272 345.992 200.752C345.992 205.189 345.352 209.051 344.072 212.336C342.835 215.579 340.893 218.096 338.248 219.888C335.603 221.68 332.275 222.576 328.264 222.576ZM328.264 214.32C329.971 214.32 331.379 213.808 332.488 212.784C333.64 211.717 334.472 210.181 334.984 208.176C335.539 206.171 335.816 203.717 335.816 200.816C335.816 197.957 335.517 195.547 334.92 193.584C334.365 191.579 333.512 190.085 332.36 189.104C331.251 188.08 329.885 187.568 328.264 187.568C326.643 187.568 325.277 188.08 324.168 189.104C323.059 190.085 322.227 191.579 321.672 193.584C321.117 195.547 320.84 197.957 320.84 200.816C320.84 203.717 321.096 206.171 321.608 208.176C322.163 210.181 322.995 211.717 324.104 212.784C325.213 213.808 326.6 214.32 328.264 214.32Z" fill="url(#paint6_linear_234_1339)"/>
<g filter="url(#filter4_f_234_1339)">
<path fill-rule="evenodd" clip-rule="evenodd" d="M345.984 201.599C345.906 197.478 345.247 193.918 344.008 190.92C342.685 187.72 340.701 185.267 338.056 183.56C335.411 181.853 332.147 181 328.264 181C324.424 181 321.181 181.853 318.536 183.56C315.933 185.267 313.971 187.72 312.648 190.92C311.408 193.92 310.749 197.482 310.672 201.606C310.667 201.324 310.664 201.039 310.664 200.752C310.664 196.272 311.325 192.432 312.648 189.232C313.971 186.032 315.933 183.579 318.536 181.872C321.181 180.165 324.424 179.312 328.264 179.312C332.147 179.312 335.411 180.165 338.056 181.872C340.701 183.579 342.685 186.032 344.008 189.232C345.331 192.432 345.992 196.272 345.992 200.752C345.992 201.037 345.989 201.319 345.984 201.599ZM332.488 212.784C331.379 213.808 329.971 214.32 328.264 214.32C326.6 214.32 325.213 213.808 324.104 212.784C322.995 211.717 322.163 210.181 321.608 208.176C321.148 206.374 320.894 204.209 320.848 201.683C320.843 201.952 320.84 202.226 320.84 202.504C320.84 205.405 321.096 207.859 321.608 209.864C322.163 211.869 322.995 213.405 324.104 214.472C325.213 215.496 326.6 216.008 328.264 216.008C329.971 216.008 331.379 215.496 332.488 214.472C333.64 213.405 334.472 211.869 334.984 209.864C335.539 207.859 335.816 205.405 335.816 202.504C335.816 202.226 335.813 201.952 335.808 201.682C335.757 204.209 335.483 206.373 334.984 208.176C334.472 210.181 333.64 211.717 332.488 212.784ZM279.136 208.688C277.429 212.741 276.192 217.179 275.424 222H275.715C276.49 217.826 277.63 213.952 279.136 210.376C280.885 206.323 283.04 202.653 285.6 199.368C288.16 196.083 291.125 193.096 294.496 190.408V190.344H292.55C289.972 192.597 287.655 195.042 285.6 197.68C283.04 200.965 280.885 204.635 279.136 208.688ZM269.408 181.576H304.928V179.888H269.408V181.576ZM255.536 194.336H244.896L245.593 196.024H255.536L262.256 215.4H262.368L269.2 196.024H277.809L278.496 194.336H269.2L262.368 213.712H262.256L255.536 194.336ZM298.032 212.4H307.504V214.088H298.032V212.4Z" fill="#33163D" fill-opacity="0.5"/>
</g>
<g filter="url(#filter5_f_234_1339)">
<path fill-rule="evenodd" clip-rule="evenodd" d="M345.972 202.101C345.852 198.19 345.197 194.797 344.008 191.92C342.685 188.72 340.701 186.267 338.056 184.56C335.411 182.853 332.147 182 328.264 182C324.424 182 321.181 182.853 318.536 184.56C315.933 186.267 313.971 188.72 312.648 191.92C311.458 194.799 310.803 198.197 310.684 202.113C310.671 201.665 310.664 201.212 310.664 200.752C310.664 196.272 311.325 192.432 312.648 189.232C313.971 186.032 315.933 183.579 318.536 181.872C321.181 180.165 324.424 179.312 328.264 179.312C332.147 179.312 335.411 180.165 338.056 181.872C340.701 183.579 342.685 186.032 344.008 189.232C345.331 192.432 345.992 196.272 345.992 200.752C345.992 201.208 345.985 201.658 345.972 202.101ZM332.488 212.784C331.379 213.808 329.971 214.32 328.264 214.32C326.6 214.32 325.213 213.808 324.104 212.784C322.995 211.717 322.163 210.181 321.608 208.176C321.179 206.497 320.93 204.504 320.86 202.196C320.847 202.621 320.84 203.057 320.84 203.504C320.84 206.405 321.096 208.859 321.608 210.864C322.163 212.869 322.995 214.405 324.104 215.472C325.213 216.496 326.6 217.008 328.264 217.008C329.971 217.008 331.379 216.496 332.488 215.472C333.64 214.405 334.472 212.869 334.984 210.864C335.539 208.859 335.816 206.405 335.816 203.504C335.816 203.057 335.809 202.62 335.794 202.194C335.719 204.503 335.449 206.496 334.984 208.176C334.472 210.181 333.64 211.717 332.488 212.784ZM279.136 208.688C277.429 212.741 276.192 217.179 275.424 222H275.909C276.676 218.206 277.751 214.665 279.136 211.376C280.885 207.323 283.04 203.653 285.6 200.368C288.16 197.083 291.125 194.096 294.496 191.408V191.344H291.437C289.301 193.316 287.355 195.428 285.6 197.68C283.04 200.965 280.885 204.635 279.136 208.688ZM269.408 182.576H304.928V179.888H269.408V182.576ZM255.536 194.336H244.896L246.006 197.024H255.536L262.256 216.4H262.368L269.2 197.024H277.402L278.496 194.336H269.2L262.368 213.712H262.256L255.536 194.336ZM298.032 212.4H307.504V215.088H298.032V212.4Z" fill="#33163D" fill-opacity="0.4"/>
</g>
<defs>
<filter id="filter0_ddddddiiii_234_1339" x="210" y="158" width="172" height="95" filterUnits="userSpaceOnUse" color-interpolation-filters="sRGB">
<feFlood flood-opacity="0" result="BackgroundImageFix"/>
<feColorMatrix in="SourceAlpha" type="matrix" values="0 0 0 0 0 0 0 0 0 0 0 0 0 0 0 0 0 0 127 0" result="hardAlpha"/>
<feMorphology radius="0.5" operator="erode" in="SourceAlpha" result="effect1_dropShadow_234_1339"/>
<feOffset dy="1"/>
<feGaussianBlur stdDeviation="0.5"/>
<feComposite in2="hardAlpha" operator="out"/>
<feColorMatrix type="matrix" values="0 0 0 0 0.564706 0 0 0 0 0.258824 0 0 0 0 0.65098 0 0 0 0.1 0"/>
<feBlend mode="normal" in2="BackgroundImageFix" result="effect1_dropShadow_234_1339"/>
<feColorMatrix in="SourceAlpha" type="matrix" values="0 0 0 0 0 0 0 0 0 0 0 0 0 0 0 0 0 0 127 0" result="hardAlpha"/>
<feMorphology radius="1.5" operator="erode" in="SourceAlpha" result="effect2_dropShadow_234_1339"/>
<feOffset dy="1"/>
<feGaussianBlur stdDeviation="1.5"/>
<feComposite in2="hardAlpha" operator="out"/>
<feColorMatrix type="matrix" values="0 0 0 0 0.564706 0 0 0 0 0.258824 0 0 0 0 0.65098 0 0 0 0.1 0"/>
<feBlend mode="normal" in2="effect1_dropShadow_234_1339" result="effect2_dropShadow_234_1339"/>
<feColorMatrix in="SourceAlpha" type="matrix" values="0 0 0 0 0 0 0 0 0 0 0 0 0 0 0 0 0 0 127 0" result="hardAlpha"/>
<feMorphology radius="2" operator="erode" in="SourceAlpha" result="effect3_dropShadow_234_1339"/>
<feOffset dy="2"/>
<feGaussianBlur stdDeviation="2"/>
<feComposite in2="hardAlpha" operator="out"/>
<feColorMatrix type="matrix" values="0 0 0 0 0.564706 0 0 0 0 0.258824 0 0 0 0 0.65098 0 0 0 0.1 0"/>
<feBlend mode="normal" in2="effect2_dropShadow_234_1339" result="effect3_dropShadow_234_1339"/>
<feColorMatrix in="SourceAlpha" type="matrix" values="0 0 0 0 0 0 0 0 0 0 0 0 0 0 0 0 0 0 127 0" result="hardAlpha"/>
<feMorphology radius="3" operator="erode" in="SourceAlpha" result="effect4_dropShadow_234_1339"/>
<feOffset dy="3"/>
<feGaussianBlur stdDeviation="3"/>
<feComposite in2="hardAlpha" operator="out"/>
<feColorMatrix type="matrix" values="0 0 0 0 0.564706 0 0 0 0 0.258824 0 0 0 0 0.65098 0 0 0 0.1 0"/>
<feBlend mode="normal" in2="effect3_dropShadow_234_1339" result="effect4_dropShadow_234_1339"/>
<feColorMatrix in="SourceAlpha" type="matrix" values="0 0 0 0 0 0 0 0 0 0 0 0 0 0 0 0 0 0 127 0" result="hardAlpha"/>
<feMorphology radius="4" operator="erode" in="SourceAlpha" result="effect5_dropShadow_234_1339"/>
<feOffset dy="4"/>
<feGaussianBlur stdDeviation="4"/>
<feComposite in2="hardAlpha" operator="out"/>
<feColorMatrix type="matrix" values="0 0 0 0 0.564706 0 0 0 0 0.258824 0 0 0 0 0.65098 0 0 0 0.1 0"/>
<feBlend mode="normal" in2="effect4_dropShadow_234_1339" result="effect5_dropShadow_234_1339"/>
<feColorMatrix in="SourceAlpha" type="matrix" values="0 0 0 0 0 0 0 0 0 0 0 0 0 0 0 0 0 0 127 0" result="hardAlpha"/>
<feMorphology radius="6" operator="erode" in="SourceAlpha" result="effect6_dropShadow_234_1339"/>
<feOffset dy="6"/>
<feGaussianBlur stdDeviation="6"/>
<feComposite in2="hardAlpha" operator="out"/>
<feColorMatrix type="matrix" values="0 0 0 0 0.564706 0 0 0 0 0.258824 0 0 0 0 0.65098 0 0 0 0.1 0"/>
<feBlend mode="normal" in2="effect5_dropShadow_234_1339" result="effect6_dropShadow_234_1339"/>
<feBlend mode="normal" in="SourceGraphic" in2="effect6_dropShadow_234_1339" result="shape"/>
<feColorMatrix in="SourceAlpha" type="matrix" values="0 0 0 0 0 0 0 0 0 0 0 0 0 0 0 0 0 0 127 0" result="hardAlpha"/>
<feMorphology radius="3" operator="erode" in="SourceAlpha" result="effect7_innerShadow_234_1339"/>
<feOffset dy="-3"/>
<feGaussianBlur stdDeviation="3"/>
<feComposite in2="hardAlpha" operator="arithmetic" k2="-1" k3="1"/>
<feColorMatrix type="matrix" values="0 0 0 0 0.921569 0 0 0 0 0.533333 0 0 0 0 0.905882 0 0 0 0.9 0"/>
<feBlend mode="normal" in2="shape" result="effect7_innerShadow_234_1339"/>
<feColorMatrix in="SourceAlpha" type="matrix" values="0 0 0 0 0 0 0 0 0 0 0 0 0 0 0 0 0 0 127 0" result="hardAlpha"/>
<feMorphology radius="2" operator="erode" in="SourceAlpha" result="effect8_innerShadow_234_1339"/>
<feOffset dy="2"/>
<feGaussianBlur stdDeviation="0.5"/>
<feComposite in2="hardAlpha" operator="arithmetic" k2="-1" k3="1"/>
<feColorMatrix type="matrix" values="0 0 0 0 0.968627 0 0 0 0 0.788235 0 0 0 0 0.901961 0 0 0 1 0"/>
<feBlend mode="normal" in2="effect7_innerShadow_234_1339" result="effect8_innerShadow_234_1339"/>
<feColorMatrix in="SourceAlpha" type="matrix" values="0 0 0 0 0 0 0 0 0 0 0 0 0 0 0 0 0 0 127 0" result="hardAlpha"/>
<feMorphology radius="1" operator="erode" in="SourceAlpha" result="effect9_innerShadow_234_1339"/>
<feOffset dy="1"/>
<feGaussianBlur stdDeviation="0.5"/>
<feComposite in2="hardAlpha" operator="arithmetic" k2="-1" k3="1"/>
<feColorMatrix type="matrix" values="0 0 0 0 0.972549 0 0 0 0 0.858824 0 0 0 0 0.921569 0 0 0 1 0"/>
<feBlend mode="normal" in2="effect8_innerShadow_234_1339" result="effect9_innerShadow_234_1339"/>
<feColorMatrix in="SourceAlpha" type="matrix" values="0 0 0 0 0 0 0 0 0 0 0 0 0 0 0 0 0 0 127 0" result="hardAlpha"/>
<feMorphology radius="2" operator="erode" in="SourceAlpha" result="effect10_innerShadow_234_1339"/>
<feOffset dy="-2"/>
<feGaussianBlur stdDeviation="1"/>
<feComposite in2="hardAlpha" operator="arithmetic" k2="-1" k3="1"/>
<feColorMatrix type="matrix" values="0 0 0 0 0.960784 0 0 0 0 0.717647 0 0 0 0 0.894118 0 0 0 1 0"/>
<feBlend mode="normal" in2="effect9_innerShadow_234_1339" result="effect10_innerShadow_234_1339"/>
</filter>
<filter id="filter1_f_234_1339" x="242.896" y="177.312" width="105.096" height="46.688" filterUnits="userSpaceOnUse" color-interpolation-filters="sRGB">
<feFlood flood-opacity="0" result="BackgroundImageFix"/>
<feBlend mode="normal" in="SourceGraphic" in2="BackgroundImageFix" result="shape"/>
<feGaussianBlur stdDeviation="1" result="effect1_foregroundBlur_234_1339"/>
</filter>
<filter id="filter2_f_234_1339" x="242" y="179.312" width="108" height="47.264" filterUnits="userSpaceOnUse" color-interpolation-filters="sRGB">
<feFlood flood-opacity="0" result="BackgroundImageFix"/>
<feBlend mode="normal" in="SourceGraphic" in2="BackgroundImageFix" result="shape"/>
<feGaussianBlur stdDeviation="1" result="effect1_foregroundBlur_234_1339"/>
</filter>
<filter id="filter3_f_234_1339" x="243.5" y="179.812" width="105" height="44.264" filterUnits="userSpaceOnUse" color-interpolation-filters="sRGB">
<feFlood flood-opacity="0" result="BackgroundImageFix"/>
<feBlend mode="normal" in="SourceGraphic" in2="BackgroundImageFix" result="shape"/>
<feGaussianBlur stdDeviation="0.25" result="effect1_foregroundBlur_234_1339"/>
</filter>
<filter id="filter4_f_234_1339" x="244.396" y="178.812" width="102.096" height="43.688" filterUnits="userSpaceOnUse" color-interpolation-filters="sRGB">
<feFlood flood-opacity="0" result="BackgroundImageFix"/>
<feBlend mode="normal" in="SourceGraphic" in2="BackgroundImageFix" result="shape"/>
<feGaussianBlur stdDeviation="0.25" result="effect1_foregroundBlur_234_1339"/>
</filter>
<filter id="filter5_f_234_1339" x="242.896" y="177.312" width="105.096" height="46.688" filterUnits="userSpaceOnUse" color-interpolation-filters="sRGB">
<feFlood flood-opacity="0" result="BackgroundImageFix"/>
<feBlend mode="normal" in="SourceGraphic" in2="BackgroundImageFix" result="shape"/>
<feGaussianBlur stdDeviation="1" result="effect1_foregroundBlur_234_1339"/>
</filter>
<linearGradient id="paint0_linear_234_1339" x1="296" y1="42" x2="296" y2="326" gradientUnits="userSpaceOnUse">
<stop stop-color="#4F403F" stop-opacity="0.12"/>
<stop offset="0.203125" stop-color="#4F403F" stop-opacity="0.2"/>
<stop offset="0.8125" stop-color="#4F403F" stop-opacity="0.2"/>
<stop offset="1" stop-color="#4F403F" stop-opacity="0.32"/>
</linearGradient>
<linearGradient id="paint1_linear_234_1339" x1="296" y1="161" x2="296" y2="241" gradientUnits="userSpaceOnUse">
<stop stop-color="#F5B7E4"/>
<stop offset="1" stop-color="#F3A6E4"/>
</linearGradient>
<linearGradient id="paint2_linear_234_1339" x1="296" y1="161" x2="296" y2="241" gradientUnits="userSpaceOnUse">
<stop offset="0.44" stop-color="#9042A6" stop-opacity="0"/>
<stop offset="1" stop-color="#9042A6"/>
</linearGradient>
<linearGradient id="paint3_linear_234_1339" x1="262" y1="185" x2="262" y2="222" gradientUnits="userSpaceOnUse">
<stop stop-color="#4B2159" stop-opacity="0.5"/>
<stop offset="1" stop-color="#4B2159" stop-opacity="0"/>
</linearGradient>
<linearGradient id="paint4_linear_234_1339" x1="287.5" y1="180" x2="287.5" y2="222" gradientUnits="userSpaceOnUse">
<stop stop-color="#4B2159" stop-opacity="0.5"/>
<stop offset="1" stop-color="#4B2159" stop-opacity="0"/>
</linearGradient>
<linearGradient id="paint5_linear_234_1339" x1="303" y1="180" x2="303" y2="222" gradientUnits="userSpaceOnUse">
<stop stop-color="#4B2159" stop-opacity="0.5"/>
<stop offset="1" stop-color="#4B2159" stop-opacity="0"/>
</linearGradient>
<linearGradient id="paint6_linear_234_1339" x1="328.5" y1="180" x2="328.5" y2="222" gradientUnits="userSpaceOnUse">
<stop stop-color="#4B2159" stop-opacity="0.5"/>
<stop offset="1" stop-color="#4B2159" stop-opacity="0"/>
</linearGradient>
</defs>
</svg>
