<svg width="384" height="240" viewBox="0 0 384 240" fill="none" xmlns="http://www.w3.org/2000/svg">
<g filter="url(#filter0_ddddddiiii_256_1179)">
<rect x="112" y="80" width="160" height="80" rx="40" fill="url(#paint0_linear_256_1179)"/>
</g>
<rect x="113" y="81" width="158" height="78" rx="39" stroke="#B758C9" stroke-width="2"/>
<rect x="113" y="81" width="158" height="78" rx="39" stroke="url(#paint1_linear_256_1179)" stroke-width="2"/>
<g filter="url(#filter1_f_256_1179)">
<path fill-rule="evenodd" clip-rule="evenodd" d="M241.984 120.599C241.906 116.478 241.247 112.918 240.008 109.92C238.685 106.72 236.701 104.267 234.056 102.56C231.411 100.853 228.147 100 224.264 100C220.424 100 217.181 100.853 214.536 102.56C211.933 104.267 209.971 106.72 208.648 109.92C207.408 112.92 206.749 116.482 206.672 120.606C206.667 120.324 206.664 120.039 206.664 119.752C206.664 115.272 207.325 111.432 208.648 108.232C209.971 105.032 211.933 102.579 214.536 100.872C217.181 99.1653 220.424 98.312 224.264 98.312C228.147 98.312 231.411 99.1653 234.056 100.872C236.701 102.579 238.685 105.032 240.008 108.232C241.331 111.432 241.992 115.272 241.992 119.752C241.992 120.037 241.989 120.319 241.984 120.599ZM228.488 131.784C227.379 132.808 225.971 133.32 224.264 133.32C222.6 133.32 221.213 132.808 220.104 131.784C218.995 130.717 218.163 129.181 217.608 127.176C217.148 125.374 216.894 123.209 216.848 120.683C216.843 120.952 216.84 121.226 216.84 121.504C216.84 124.405 217.096 126.859 217.608 128.864C218.163 130.869 218.995 132.405 220.104 133.472C221.213 134.496 222.6 135.008 224.264 135.008C225.971 135.008 227.379 134.496 228.488 133.472C229.64 132.405 230.472 130.869 230.984 128.864C231.539 126.859 231.816 124.405 231.816 121.504C231.816 121.226 231.813 120.952 231.808 120.682C231.757 123.209 231.483 125.373 230.984 127.176C230.472 129.181 229.64 130.717 228.488 131.784ZM175.136 127.688C173.429 131.741 172.192 136.179 171.424 141H171.715C172.49 136.826 173.63 132.952 175.136 129.376C176.885 125.323 179.04 121.653 181.6 118.368C184.16 115.083 187.125 112.096 190.496 109.408V109.344H188.55C185.972 111.597 183.655 114.042 181.6 116.68C179.04 119.965 176.885 123.635 175.136 127.688ZM165.408 100.576H200.928V98.888H165.408V100.576ZM151.536 113.336H140.896L141.593 115.024H151.536L158.256 134.4H158.368L165.2 115.024H173.809L174.496 113.336H165.2L158.368 132.712H158.256L151.536 113.336ZM194.032 131.4H203.504V133.088H194.032V131.4Z" fill="#9042A6"/>
</g>
<g filter="url(#filter2_f_256_1179)">
<path d="M140.896 115.336H151.536L158.256 134.712H158.368L165.2 115.336H174.496L163.24 143H152.32L140.896 115.336Z" fill="#F7C9E6" fill-opacity="0.6"/>
<path d="M171.424 143C172.192 138.179 173.429 133.741 175.136 129.688C176.885 125.635 179.04 121.965 181.6 118.68C184.16 115.395 187.125 112.408 190.496 109.72V109.656H165.408V100.888H200.928V109.144C197.6 112.131 194.763 115.352 192.416 118.808C190.069 122.264 188.171 125.997 186.72 130.008C185.312 134.019 184.288 138.349 183.648 143H171.424Z" fill="#F7C9E6" fill-opacity="0.6"/>
<path d="M194.032 133.4H203.504V143H194.032V133.4Z" fill="#F7C9E6" fill-opacity="0.6"/>
<path d="M224.264 143.576C220.296 143.576 216.989 142.68 214.344 140.888C211.741 139.096 209.8 136.579 208.52 133.336C207.283 130.051 206.664 126.189 206.664 121.752C206.664 117.272 207.325 113.432 208.648 110.232C209.971 107.032 211.933 104.579 214.536 102.872C217.181 101.165 220.424 100.312 224.264 100.312C228.147 100.312 231.411 101.165 234.056 102.872C236.701 104.579 238.685 107.032 240.008 110.232C241.331 113.432 241.992 117.272 241.992 121.752C241.992 126.189 241.352 130.051 240.072 133.336C238.835 136.579 236.893 139.096 234.248 140.888C231.603 142.68 228.275 143.576 224.264 143.576ZM224.264 135.32C225.971 135.32 227.379 134.808 228.488 133.784C229.64 132.717 230.472 131.181 230.984 129.176C231.539 127.171 231.816 124.717 231.816 121.816C231.816 118.957 231.517 116.547 230.92 114.584C230.365 112.579 229.512 111.085 228.36 110.104C227.251 109.08 225.885 108.568 224.264 108.568C222.643 108.568 221.277 109.08 220.168 110.104C219.059 111.085 218.227 112.579 217.672 114.584C217.117 116.547 216.84 118.957 216.84 121.816C216.84 124.717 217.096 127.171 217.608 129.176C218.163 131.181 218.995 132.717 220.104 133.784C221.213 134.808 222.6 135.32 224.264 135.32Z" fill="#F7C9E6" fill-opacity="0.6"/>
</g>
<g filter="url(#filter3_f_256_1179)">
<path d="M140.896 114.336H151.536L158.256 133.712H158.368L165.2 114.336H174.496L163.24 142H152.32L140.896 114.336Z" fill="#F7C9E6" fill-opacity="0.8"/>
<path d="M171.424 142C172.192 137.179 173.429 132.741 175.136 128.688C176.885 124.635 179.04 120.965 181.6 117.68C184.16 114.395 187.125 111.408 190.496 108.72V108.656H165.408V99.888H200.928V108.144C197.6 111.131 194.763 114.352 192.416 117.808C190.069 121.264 188.171 124.997 186.72 129.008C185.312 133.019 184.288 137.349 183.648 142H171.424Z" fill="#F7C9E6" fill-opacity="0.8"/>
<path d="M194.032 132.4H203.504V142H194.032V132.4Z" fill="#F7C9E6" fill-opacity="0.8"/>
<path d="M224.264 142.576C220.296 142.576 216.989 141.68 214.344 139.888C211.741 138.096 209.8 135.579 208.52 132.336C207.283 129.051 206.664 125.189 206.664 120.752C206.664 116.272 207.325 112.432 208.648 109.232C209.971 106.032 211.933 103.579 214.536 101.872C217.181 100.165 220.424 99.312 224.264 99.312C228.147 99.312 231.411 100.165 234.056 101.872C236.701 103.579 238.685 106.032 240.008 109.232C241.331 112.432 241.992 116.272 241.992 120.752C241.992 125.189 241.352 129.051 240.072 132.336C238.835 135.579 236.893 138.096 234.248 139.888C231.603 141.68 228.275 142.576 224.264 142.576ZM224.264 134.32C225.971 134.32 227.379 133.808 228.488 132.784C229.64 131.717 230.472 130.181 230.984 128.176C231.539 126.171 231.816 123.717 231.816 120.816C231.816 117.957 231.517 115.547 230.92 113.584C230.365 111.579 229.512 110.085 228.36 109.104C227.251 108.08 225.885 107.568 224.264 107.568C222.643 107.568 221.277 108.08 220.168 109.104C219.059 110.085 218.227 111.579 217.672 113.584C217.117 115.547 216.84 117.957 216.84 120.816C216.84 123.717 217.096 126.171 217.608 128.176C218.163 130.181 218.995 131.717 220.104 132.784C221.213 133.808 222.6 134.32 224.264 134.32Z" fill="#F7C9E6" fill-opacity="0.8"/>
</g>
<path d="M140.896 113.336H151.536L158.256 132.712H158.368L165.2 113.336H174.496L163.24 141H152.32L140.896 113.336Z" fill="#9042A6"/>
<path d="M171.424 141C172.192 136.179 173.429 131.741 175.136 127.688C176.885 123.635 179.04 119.965 181.6 116.68C184.16 113.395 187.125 110.408 190.496 107.72V107.656H165.408V98.888H200.928V107.144C197.6 110.131 194.763 113.352 192.416 116.808C190.069 120.264 188.171 123.997 186.72 128.008C185.312 132.019 184.288 136.349 183.648 141H171.424Z" fill="#9042A6"/>
<path d="M194.032 131.4H203.504V141H194.032V131.4Z" fill="#9042A6"/>
<path d="M224.264 141.576C220.296 141.576 216.989 140.68 214.344 138.888C211.741 137.096 209.8 134.579 208.52 131.336C207.283 128.051 206.664 124.189 206.664 119.752C206.664 115.272 207.325 111.432 208.648 108.232C209.971 105.032 211.933 102.579 214.536 100.872C217.181 99.1653 220.424 98.312 224.264 98.312C228.147 98.312 231.411 99.1653 234.056 100.872C236.701 102.579 238.685 105.032 240.008 108.232C241.331 111.432 241.992 115.272 241.992 119.752C241.992 124.189 241.352 128.051 240.072 131.336C238.835 134.579 236.893 137.096 234.248 138.888C231.603 140.68 228.275 141.576 224.264 141.576ZM224.264 133.32C225.971 133.32 227.379 132.808 228.488 131.784C229.64 130.717 230.472 129.181 230.984 127.176C231.539 125.171 231.816 122.717 231.816 119.816C231.816 116.957 231.517 114.547 230.92 112.584C230.365 110.579 229.512 109.085 228.36 108.104C227.251 107.08 225.885 106.568 224.264 106.568C222.643 106.568 221.277 107.08 220.168 108.104C219.059 109.085 218.227 110.579 217.672 112.584C217.117 114.547 216.84 116.957 216.84 119.816C216.84 122.717 217.096 125.171 217.608 127.176C218.163 129.181 218.995 130.717 220.104 131.784C221.213 132.808 222.6 133.32 224.264 133.32Z" fill="#9042A6"/>
<path d="M140.896 113.336H151.536L158.256 132.712H158.368L165.2 113.336H174.496L163.24 141H152.32L140.896 113.336Z" fill="url(#paint2_linear_256_1179)"/>
<path d="M171.424 141C172.192 136.179 173.429 131.741 175.136 127.688C176.885 123.635 179.04 119.965 181.6 116.68C184.16 113.395 187.125 110.408 190.496 107.72V107.656H165.408V98.888H200.928V107.144C197.6 110.131 194.763 113.352 192.416 116.808C190.069 120.264 188.171 123.997 186.72 128.008C185.312 132.019 184.288 136.349 183.648 141H171.424Z" fill="url(#paint3_linear_256_1179)"/>
<path d="M194.032 131.4H203.504V141H194.032V131.4Z" fill="url(#paint4_linear_256_1179)"/>
<path d="M224.264 141.576C220.296 141.576 216.989 140.68 214.344 138.888C211.741 137.096 209.8 134.579 208.52 131.336C207.283 128.051 206.664 124.189 206.664 119.752C206.664 115.272 207.325 111.432 208.648 108.232C209.971 105.032 211.933 102.579 214.536 100.872C217.181 99.1653 220.424 98.312 224.264 98.312C228.147 98.312 231.411 99.1653 234.056 100.872C236.701 102.579 238.685 105.032 240.008 108.232C241.331 111.432 241.992 115.272 241.992 119.752C241.992 124.189 241.352 128.051 240.072 131.336C238.835 134.579 236.893 137.096 234.248 138.888C231.603 140.68 228.275 141.576 224.264 141.576ZM224.264 133.32C225.971 133.32 227.379 132.808 228.488 131.784C229.64 130.717 230.472 129.181 230.984 127.176C231.539 125.171 231.816 122.717 231.816 119.816C231.816 116.957 231.517 114.547 230.92 112.584C230.365 110.579 229.512 109.085 228.36 108.104C227.251 107.08 225.885 106.568 224.264 106.568C222.643 106.568 221.277 107.08 220.168 108.104C219.059 109.085 218.227 110.579 217.672 112.584C217.117 114.547 216.84 116.957 216.84 119.816C216.84 122.717 217.096 125.171 217.608 127.176C218.163 129.181 218.995 130.717 220.104 131.784C221.213 132.808 222.6 133.32 224.264 133.32Z" fill="url(#paint5_linear_256_1179)"/>
<g filter="url(#filter4_f_256_1179)">
<path fill-rule="evenodd" clip-rule="evenodd" d="M241.984 120.599C241.906 116.478 241.247 112.918 240.008 109.92C238.685 106.72 236.701 104.267 234.056 102.56C231.411 100.853 228.147 100 224.264 100C220.424 100 217.181 100.853 214.536 102.56C211.933 104.267 209.971 106.72 208.648 109.92C207.408 112.92 206.749 116.482 206.672 120.606C206.667 120.324 206.664 120.039 206.664 119.752C206.664 115.272 207.325 111.432 208.648 108.232C209.971 105.032 211.933 102.579 214.536 100.872C217.181 99.1653 220.424 98.312 224.264 98.312C228.147 98.312 231.411 99.1653 234.056 100.872C236.701 102.579 238.685 105.032 240.008 108.232C241.331 111.432 241.992 115.272 241.992 119.752C241.992 120.037 241.989 120.319 241.984 120.599ZM228.488 131.784C227.379 132.808 225.971 133.32 224.264 133.32C222.6 133.32 221.213 132.808 220.104 131.784C218.995 130.717 218.163 129.181 217.608 127.176C217.148 125.374 216.894 123.209 216.848 120.683C216.843 120.952 216.84 121.226 216.84 121.504C216.84 124.405 217.096 126.859 217.608 128.864C218.163 130.869 218.995 132.405 220.104 133.472C221.213 134.496 222.6 135.008 224.264 135.008C225.971 135.008 227.379 134.496 228.488 133.472C229.64 132.405 230.472 130.869 230.984 128.864C231.539 126.859 231.816 124.405 231.816 121.504C231.816 121.226 231.813 120.952 231.808 120.682C231.757 123.209 231.483 125.373 230.984 127.176C230.472 129.181 229.64 130.717 228.488 131.784ZM175.136 127.688C173.429 131.741 172.192 136.179 171.424 141H171.715C172.49 136.826 173.63 132.952 175.136 129.376C176.885 125.323 179.04 121.653 181.6 118.368C184.16 115.083 187.125 112.096 190.496 109.408V109.344H188.55C185.972 111.597 183.655 114.042 181.6 116.68C179.04 119.965 176.885 123.635 175.136 127.688ZM165.408 100.576H200.928V98.888H165.408V100.576ZM151.536 113.336H140.896L141.593 115.024H151.536L158.256 134.4H158.368L165.2 115.024H173.809L174.496 113.336H165.2L158.368 132.712H158.256L151.536 113.336ZM194.032 131.4H203.504V133.088H194.032V131.4Z" fill="#33163D" fill-opacity="0.5"/>
</g>
<g filter="url(#filter5_f_256_1179)">
<path fill-rule="evenodd" clip-rule="evenodd" d="M241.972 121.101C241.852 117.19 241.197 113.797 240.008 110.92C238.685 107.72 236.701 105.267 234.056 103.56C231.411 101.853 228.147 101 224.264 101C220.424 101 217.181 101.853 214.536 103.56C211.933 105.267 209.971 107.72 208.648 110.92C207.458 113.799 206.803 117.197 206.684 121.113C206.671 120.665 206.664 120.212 206.664 119.752C206.664 115.272 207.325 111.432 208.648 108.232C209.971 105.032 211.933 102.579 214.536 100.872C217.181 99.1653 220.424 98.312 224.264 98.312C228.147 98.312 231.411 99.1653 234.056 100.872C236.701 102.579 238.685 105.032 240.008 108.232C241.331 111.432 241.992 115.272 241.992 119.752C241.992 120.208 241.985 120.658 241.972 121.101ZM228.488 131.784C227.379 132.808 225.971 133.32 224.264 133.32C222.6 133.32 221.213 132.808 220.104 131.784C218.995 130.717 218.163 129.181 217.608 127.176C217.179 125.497 216.93 123.504 216.86 121.196C216.847 121.621 216.84 122.057 216.84 122.504C216.84 125.405 217.096 127.859 217.608 129.864C218.163 131.869 218.995 133.405 220.104 134.472C221.213 135.496 222.6 136.008 224.264 136.008C225.971 136.008 227.379 135.496 228.488 134.472C229.64 133.405 230.472 131.869 230.984 129.864C231.539 127.859 231.816 125.405 231.816 122.504C231.816 122.057 231.809 121.62 231.794 121.194C231.719 123.503 231.449 125.496 230.984 127.176C230.472 129.181 229.64 130.717 228.488 131.784ZM175.136 127.688C173.429 131.741 172.192 136.179 171.424 141H171.909C172.676 137.206 173.751 133.665 175.136 130.376C176.885 126.323 179.04 122.653 181.6 119.368C184.16 116.083 187.125 113.096 190.496 110.408V110.344H187.437C185.301 112.316 183.355 114.428 181.6 116.68C179.04 119.965 176.885 123.635 175.136 127.688ZM165.408 101.576H200.928V98.888H165.408V101.576ZM151.536 113.336H140.896L142.006 116.024H151.536L158.256 135.4H158.368L165.2 116.024H173.402L174.496 113.336H165.2L158.368 132.712H158.256L151.536 113.336ZM194.032 131.4H203.504V134.088H194.032V131.4Z" fill="#33163D" fill-opacity="0.4"/>
</g>
<defs>
<filter id="filter0_ddddddiiii_256_1179" x="106" y="77" width="172" height="95" filterUnits="userSpaceOnUse" color-interpolation-filters="sRGB">
<feFlood flood-opacity="0" result="BackgroundImageFix"/>
<feColorMatrix in="SourceAlpha" type="matrix" values="0 0 0 0 0 0 0 0 0 0 0 0 0 0 0 0 0 0 127 0" result="hardAlpha"/>
<feMorphology radius="0.5" operator="erode" in="SourceAlpha" result="effect1_dropShadow_256_1179"/>
<feOffset dy="1"/>
<feGaussianBlur stdDeviation="0.5"/>
<feComposite in2="hardAlpha" operator="out"/>
<feColorMatrix type="matrix" values="0 0 0 0 0.564706 0 0 0 0 0.258824 0 0 0 0 0.65098 0 0 0 0.1 0"/>
<feBlend mode="normal" in2="BackgroundImageFix" result="effect1_dropShadow_256_1179"/>
<feColorMatrix in="SourceAlpha" type="matrix" values="0 0 0 0 0 0 0 0 0 0 0 0 0 0 0 0 0 0 127 0" result="hardAlpha"/>
<feMorphology radius="1.5" operator="erode" in="SourceAlpha" result="effect2_dropShadow_256_1179"/>
<feOffset dy="1"/>
<feGaussianBlur stdDeviation="1.5"/>
<feComposite in2="hardAlpha" operator="out"/>
<feColorMatrix type="matrix" values="0 0 0 0 0.564706 0 0 0 0 0.258824 0 0 0 0 0.65098 0 0 0 0.1 0"/>
<feBlend mode="normal" in2="effect1_dropShadow_256_1179" result="effect2_dropShadow_256_1179"/>
<feColorMatrix in="SourceAlpha" type="matrix" values="0 0 0 0 0 0 0 0 0 0 0 0 0 0 0 0 0 0 127 0" result="hardAlpha"/>
<feMorphology radius="2" operator="erode" in="SourceAlpha" result="effect3_dropShadow_256_1179"/>
<feOffset dy="2"/>
<feGaussianBlur stdDeviation="2"/>
<feComposite in2="hardAlpha" operator="out"/>
<feColorMatrix type="matrix" values="0 0 0 0 0.564706 0 0 0 0 0.258824 0 0 0 0 0.65098 0 0 0 0.1 0"/>
<feBlend mode="normal" in2="effect2_dropShadow_256_1179" result="effect3_dropShadow_256_1179"/>
<feColorMatrix in="SourceAlpha" type="matrix" values="0 0 0 0 0 0 0 0 0 0 0 0 0 0 0 0 0 0 127 0" result="hardAlpha"/>
<feMorphology radius="3" operator="erode" in="SourceAlpha" result="effect4_dropShadow_256_1179"/>
<feOffset dy="3"/>
<feGaussianBlur stdDeviation="3"/>
<feComposite in2="hardAlpha" operator="out"/>
<feColorMatrix type="matrix" values="0 0 0 0 0.564706 0 0 0 0 0.258824 0 0 0 0 0.65098 0 0 0 0.1 0"/>
<feBlend mode="normal" in2="effect3_dropShadow_256_1179" result="effect4_dropShadow_256_1179"/>
<feColorMatrix in="SourceAlpha" type="matrix" values="0 0 0 0 0 0 0 0 0 0 0 0 0 0 0 0 0 0 127 0" result="hardAlpha"/>
<feMorphology radius="4" operator="erode" in="SourceAlpha" result="effect5_dropShadow_256_1179"/>
<feOffset dy="4"/>
<feGaussianBlur stdDeviation="4"/>
<feComposite in2="hardAlpha" operator="out"/>
<feColorMatrix type="matrix" values="0 0 0 0 0.564706 0 0 0 0 0.258824 0 0 0 0 0.65098 0 0 0 0.1 0"/>
<feBlend mode="normal" in2="effect4_dropShadow_256_1179" result="effect5_dropShadow_256_1179"/>
<feColorMatrix in="SourceAlpha" type="matrix" values="0 0 0 0 0 0 0 0 0 0 0 0 0 0 0 0 0 0 127 0" result="hardAlpha"/>
<feMorphology radius="6" operator="erode" in="SourceAlpha" result="effect6_dropShadow_256_1179"/>
<feOffset dy="6"/>
<feGaussianBlur stdDeviation="6"/>
<feComposite in2="hardAlpha" operator="out"/>
<feColorMatrix type="matrix" values="0 0 0 0 0.564706 0 0 0 0 0.258824 0 0 0 0 0.65098 0 0 0 0.1 0"/>
<feBlend mode="normal" in2="effect5_dropShadow_256_1179" result="effect6_dropShadow_256_1179"/>
<feBlend mode="normal" in="SourceGraphic" in2="effect6_dropShadow_256_1179" result="shape"/>
<feColorMatrix in="SourceAlpha" type="matrix" values="0 0 0 0 0 0 0 0 0 0 0 0 0 0 0 0 0 0 127 0" result="hardAlpha"/>
<feMorphology radius="3" operator="erode" in="SourceAlpha" result="effect7_innerShadow_256_1179"/>
<feOffset dy="-3"/>
<feGaussianBlur stdDeviation="3"/>
<feComposite in2="hardAlpha" operator="arithmetic" k2="-1" k3="1"/>
<feColorMatrix type="matrix" values="0 0 0 0 0.921569 0 0 0 0 0.533333 0 0 0 0 0.905882 0 0 0 0.9 0"/>
<feBlend mode="normal" in2="shape" result="effect7_innerShadow_256_1179"/>
<feColorMatrix in="SourceAlpha" type="matrix" values="0 0 0 0 0 0 0 0 0 0 0 0 0 0 0 0 0 0 127 0" result="hardAlpha"/>
<feMorphology radius="2" operator="erode" in="SourceAlpha" result="effect8_innerShadow_256_1179"/>
<feOffset dy="2"/>
<feGaussianBlur stdDeviation="0.5"/>
<feComposite in2="hardAlpha" operator="arithmetic" k2="-1" k3="1"/>
<feColorMatrix type="matrix" values="0 0 0 0 0.968627 0 0 0 0 0.788235 0 0 0 0 0.901961 0 0 0 1 0"/>
<feBlend mode="normal" in2="effect7_innerShadow_256_1179" result="effect8_innerShadow_256_1179"/>
<feColorMatrix in="SourceAlpha" type="matrix" values="0 0 0 0 0 0 0 0 0 0 0 0 0 0 0 0 0 0 127 0" result="hardAlpha"/>
<feMorphology radius="1" operator="erode" in="SourceAlpha" result="effect9_innerShadow_256_1179"/>
<feOffset dy="1"/>
<feGaussianBlur stdDeviation="0.5"/>
<feComposite in2="hardAlpha" operator="arithmetic" k2="-1" k3="1"/>
<feColorMatrix type="matrix" values="0 0 0 0 0.972549 0 0 0 0 0.858824 0 0 0 0 0.921569 0 0 0 1 0"/>
<feBlend mode="normal" in2="effect8_innerShadow_256_1179" result="effect9_innerShadow_256_1179"/>
<feColorMatrix in="SourceAlpha" type="matrix" values="0 0 0 0 0 0 0 0 0 0 0 0 0 0 0 0 0 0 127 0" result="hardAlpha"/>
<feMorphology radius="2" operator="erode" in="SourceAlpha" result="effect10_innerShadow_256_1179"/>
<feOffset dy="-2"/>
<feGaussianBlur stdDeviation="1"/>
<feComposite in2="hardAlpha" operator="arithmetic" k2="-1" k3="1"/>
<feColorMatrix type="matrix" values="0 0 0 0 0.960784 0 0 0 0 0.717647 0 0 0 0 0.894118 0 0 0 1 0"/>
<feBlend mode="normal" in2="effect9_innerShadow_256_1179" result="effect10_innerShadow_256_1179"/>
</filter>
<filter id="filter1_f_256_1179" x="138.896" y="96.312" width="105.096" height="46.688" filterUnits="userSpaceOnUse" color-interpolation-filters="sRGB">
<feFlood flood-opacity="0" result="BackgroundImageFix"/>
<feBlend mode="normal" in="SourceGraphic" in2="BackgroundImageFix" result="shape"/>
<feGaussianBlur stdDeviation="1" result="effect1_foregroundBlur_256_1179"/>
</filter>
<filter id="filter2_f_256_1179" x="138" y="98.312" width="108" height="47.264" filterUnits="userSpaceOnUse" color-interpolation-filters="sRGB">
<feFlood flood-opacity="0" result="BackgroundImageFix"/>
<feBlend mode="normal" in="SourceGraphic" in2="BackgroundImageFix" result="shape"/>
<feGaussianBlur stdDeviation="1" result="effect1_foregroundBlur_256_1179"/>
</filter>
<filter id="filter3_f_256_1179" x="139.5" y="98.812" width="105" height="44.264" filterUnits="userSpaceOnUse" color-interpolation-filters="sRGB">
<feFlood flood-opacity="0" result="BackgroundImageFix"/>
<feBlend mode="normal" in="SourceGraphic" in2="BackgroundImageFix" result="shape"/>
<feGaussianBlur stdDeviation="0.25" result="effect1_foregroundBlur_256_1179"/>
</filter>
<filter id="filter4_f_256_1179" x="140.396" y="97.812" width="102.096" height="43.688" filterUnits="userSpaceOnUse" color-interpolation-filters="sRGB">
<feFlood flood-opacity="0" result="BackgroundImageFix"/>
<feBlend mode="normal" in="SourceGraphic" in2="BackgroundImageFix" result="shape"/>
<feGaussianBlur stdDeviation="0.25" result="effect1_foregroundBlur_256_1179"/>
</filter>
<filter id="filter5_f_256_1179" x="138.896" y="96.312" width="105.096" height="46.688" filterUnits="userSpaceOnUse" color-interpolation-filters="sRGB">
<feFlood flood-opacity="0" result="BackgroundImageFix"/>
<feBlend mode="normal" in="SourceGraphic" in2="BackgroundImageFix" result="shape"/>
<feGaussianBlur stdDeviation="1" result="effect1_foregroundBlur_256_1179"/>
</filter>
<linearGradient id="paint0_linear_256_1179" x1="192" y1="80" x2="192" y2="160" gradientUnits="userSpaceOnUse">
<stop stop-color="#F5B7E4"/>
<stop offset="1" stop-color="#F3A6E4"/>
</linearGradient>
<linearGradient id="paint1_linear_256_1179" x1="192" y1="80" x2="192" y2="160" gradientUnits="userSpaceOnUse">
<stop offset="0.44" stop-color="#9042A6" stop-opacity="0"/>
<stop offset="1" stop-color="#9042A6"/>
</linearGradient>
<linearGradient id="paint2_linear_256_1179" x1="158" y1="104" x2="158" y2="141" gradientUnits="userSpaceOnUse">
<stop stop-color="#4B2159" stop-opacity="0.5"/>
<stop offset="1" stop-color="#4B2159" stop-opacity="0"/>
</linearGradient>
<linearGradient id="paint3_linear_256_1179" x1="183.5" y1="99" x2="183.5" y2="141" gradientUnits="userSpaceOnUse">
<stop stop-color="#4B2159" stop-opacity="0.5"/>
<stop offset="1" stop-color="#4B2159" stop-opacity="0"/>
</linearGradient>
<linearGradient id="paint4_linear_256_1179" x1="199" y1="99" x2="199" y2="141" gradientUnits="userSpaceOnUse">
<stop stop-color="#4B2159" stop-opacity="0.5"/>
<stop offset="1" stop-color="#4B2159" stop-opacity="0"/>
</linearGradient>
<linearGradient id="paint5_linear_256_1179" x1="224.5" y1="99" x2="224.5" y2="141" gradientUnits="userSpaceOnUse">
<stop stop-color="#4B2159" stop-opacity="0.5"/>
<stop offset="1" stop-color="#4B2159" stop-opacity="0"/>
</linearGradient>
</defs>
</svg>
