<svg
  width="384"
  height="240"
  viewBox="0 0 384 240"
  fill="none"
  xmlns="http://www.w3.org/2000/svg"
>
  <g clip-path="url(#clip0_690_2340)">
    <circle cx="192" cy="175" r="160" fill="#E8DCD9" />
    <g clip-path="url(#clip1_690_2340)">
      <mask id="path-2-inside-1_690_2340" fill="white">
        <path
          fill-rule="evenodd"
          clip-rule="evenodd"
          d="M99 41C92.3726 41 87 46.3726 87 53V305C87 311.627 92.3726 317 99 317H165C171.627 317 177 311.627 177 305V53C177 46.3726 171.627 41 165 41H99ZM132 65C135.314 65 138 62.3137 138 59C138 55.6863 135.314 53 132 53C128.686 53 126 55.6863 126 59C126 62.3137 128.686 65 132 65Z"
        />
      </mask>
      <path
        fill-rule="evenodd"
        clip-rule="evenodd"
        d="M99 41C92.3726 41 87 46.3726 87 53V305C87 311.627 92.3726 317 99 317H165C171.627 317 177 311.627 177 305V53C177 46.3726 171.627 41 165 41H99ZM132 65C135.314 65 138 62.3137 138 59C138 55.6863 135.314 53 132 53C128.686 53 126 55.6863 126 59C126 62.3137 128.686 65 132 65Z"
        fill="white"
      />
      <path
        d="M89 53C89 47.4772 93.4772 43 99 43V39C91.268 39 85 45.268 85 53H89ZM89 305V53H85V305H89ZM99 315C93.4772 315 89 310.523 89 305H85C85 312.732 91.268 319 99 319V315ZM165 315H99V319H165V315ZM175 305C175 310.523 170.523 315 165 315V319C172.732 319 179 312.732 179 305H175ZM175 53V305H179V53H175ZM165 43C170.523 43 175 47.4772 175 53H179C179 45.268 172.732 39 165 39V43ZM99 43H165V39H99V43ZM136 59C136 61.2091 134.209 63 132 63V67C136.418 67 140 63.4183 140 59H136ZM132 55C134.209 55 136 56.7909 136 59H140C140 54.5817 136.418 51 132 51V55ZM128 59C128 56.7909 129.791 55 132 55V51C127.582 51 124 54.5817 124 59H128ZM132 63C129.791 63 128 61.2091 128 59H124C124 63.4183 127.582 67 132 67V63Z"
        fill="#756362"
        mask="url(#path-2-inside-1_690_2340)"
      />
      <rect x="93.75" y="77" width="76.5" height="54" rx="6" fill="#E8AA00" />
      <rect
        x="94.75"
        y="78"
        width="74.5"
        height="52"
        rx="5"
        stroke="#8D4400"
        stroke-width="2"
      />
      <rect
        x="93.75"
        y="136.625"
        width="76.5"
        height="54"
        rx="6"
        fill="#1C5344"
      />
      <rect
        x="94.75"
        y="137.625"
        width="74.5"
        height="52"
        rx="5"
        stroke="#092E24"
        stroke-width="2"
      />
      <rect
        x="93.75"
        y="196.25"
        width="76.5"
        height="54"
        rx="6"
        fill="#B7CBC5"
      />
      <rect
        x="94.75"
        y="197.25"
        width="74.5"
        height="52"
        rx="5"
        stroke="#627570"
        stroke-width="2"
      />
    </g>
    <g clip-path="url(#clip2_690_2340)">
      <mask id="path-10-inside-2_690_2340" fill="white">
        <path
          fill-rule="evenodd"
          clip-rule="evenodd"
          d="M219 41C212.373 41 207 46.3726 207 53V305C207 311.627 212.373 317 219 317H285C291.627 317 297 311.627 297 305V53C297 46.3726 291.627 41 285 41H219ZM252 65C255.314 65 258 62.3137 258 59C258 55.6863 255.314 53 252 53C248.686 53 246 55.6863 246 59C246 62.3137 248.686 65 252 65Z"
        />
      </mask>
      <path
        fill-rule="evenodd"
        clip-rule="evenodd"
        d="M219 41C212.373 41 207 46.3726 207 53V305C207 311.627 212.373 317 219 317H285C291.627 317 297 311.627 297 305V53C297 46.3726 291.627 41 285 41H219ZM252 65C255.314 65 258 62.3137 258 59C258 55.6863 255.314 53 252 53C248.686 53 246 55.6863 246 59C246 62.3137 248.686 65 252 65Z"
        fill="white"
      />
      <path
        d="M209 53C209 47.4772 213.477 43 219 43V39C211.268 39 205 45.268 205 53H209ZM209 305V53H205V305H209ZM219 315C213.477 315 209 310.523 209 305H205C205 312.732 211.268 319 219 319V315ZM285 315H219V319H285V315ZM295 305C295 310.523 290.523 315 285 315V319C292.732 319 299 312.732 299 305H295ZM295 53V305H299V53H295ZM285 43C290.523 43 295 47.4772 295 53H299C299 45.268 292.732 39 285 39V43ZM219 43H285V39H219V43ZM256 59C256 61.2091 254.209 63 252 63V67C256.418 67 260 63.4183 260 59H256ZM252 55C254.209 55 256 56.7909 256 59H260C260 54.5817 256.418 51 252 51V55ZM248 59C248 56.7909 249.791 55 252 55V51C247.582 51 244 54.5817 244 59H248ZM252 63C249.791 63 248 61.2091 248 59H244C244 63.4183 247.582 67 252 67V63Z"
        fill="#756362"
        mask="url(#path-10-inside-2_690_2340)"
      />
      <rect x="213.75" y="77" width="76.5" height="54" rx="6" fill="#5F9D8B" />
      <rect
        x="214.75"
        y="78"
        width="74.5"
        height="52"
        rx="5"
        stroke="#092E24"
        stroke-width="2"
      />
      <rect
        x="213.75"
        y="136.625"
        width="76.5"
        height="54"
        rx="6"
        fill="#1C5344"
      />
      <rect
        x="214.75"
        y="137.625"
        width="74.5"
        height="52"
        rx="5"
        stroke="#092E24"
        stroke-width="2"
      />
      <rect
        x="213.75"
        y="196.25"
        width="76.5"
        height="54"
        rx="6"
        fill="#FAEFE8"
      />
      <rect
        x="214.75"
        y="197.25"
        width="74.5"
        height="52"
        rx="5"
        stroke="#756362"
        stroke-width="2"
      />
    </g>
    <g clip-path="url(#clip3_690_2340)">
      <mask id="path-18-inside-3_690_2340" fill="white">
        <path
          fill-rule="evenodd"
          clip-rule="evenodd"
          d="M159 33.5C152.373 33.5 147 38.8726 147 45.5V297.5C147 304.127 152.373 309.5 159 309.5H225C231.627 309.5 237 304.127 237 297.5V45.5C237 38.8726 231.627 33.5 225 33.5H159ZM192 57.5C195.314 57.5 198 54.8137 198 51.5C198 48.1863 195.314 45.5 192 45.5C188.686 45.5 186 48.1863 186 51.5C186 54.8137 188.686 57.5 192 57.5Z"
        />
      </mask>
      <path
        fill-rule="evenodd"
        clip-rule="evenodd"
        d="M159 33.5C152.373 33.5 147 38.8726 147 45.5V297.5C147 304.127 152.373 309.5 159 309.5H225C231.627 309.5 237 304.127 237 297.5V45.5C237 38.8726 231.627 33.5 225 33.5H159ZM192 57.5C195.314 57.5 198 54.8137 198 51.5C198 48.1863 195.314 45.5 192 45.5C188.686 45.5 186 48.1863 186 51.5C186 54.8137 188.686 57.5 192 57.5Z"
        fill="white"
      />
      <path
        d="M149 45.5C149 39.9772 153.477 35.5 159 35.5V31.5C151.268 31.5 145 37.768 145 45.5H149ZM149 297.5V45.5H145V297.5H149ZM159 307.5C153.477 307.5 149 303.023 149 297.5H145C145 305.232 151.268 311.5 159 311.5V307.5ZM225 307.5H159V311.5H225V307.5ZM235 297.5C235 303.023 230.523 307.5 225 307.5V311.5C232.732 311.5 239 305.232 239 297.5H235ZM235 45.5V297.5H239V45.5H235ZM225 35.5C230.523 35.5 235 39.9772 235 45.5H239C239 37.768 232.732 31.5 225 31.5V35.5ZM159 35.5H225V31.5H159V35.5ZM196 51.5C196 53.7091 194.209 55.5 192 55.5V59.5C196.418 59.5 200 55.9183 200 51.5H196ZM192 47.5C194.209 47.5 196 49.2909 196 51.5H200C200 47.0817 196.418 43.5 192 43.5V47.5ZM188 51.5C188 49.2909 189.791 47.5 192 47.5V43.5C187.582 43.5 184 47.0817 184 51.5H188ZM192 55.5C189.791 55.5 188 53.7091 188 51.5H184C184 55.9183 187.582 59.5 192 59.5V55.5Z"
        fill="#756362"
        mask="url(#path-18-inside-3_690_2340)"
      />
      <rect
        x="153.75"
        y="69.5"
        width="76.5"
        height="54"
        rx="6"
        fill="#EE7244"
      />
      <rect
        x="154.75"
        y="70.5"
        width="74.5"
        height="52"
        rx="5"
        stroke="#8D4400"
        stroke-width="2"
      />
      <rect
        x="153.75"
        y="129.125"
        width="76.5"
        height="54"
        rx="6"
        fill="#E8AA00"
      />
      <rect
        x="154.75"
        y="130.125"
        width="74.5"
        height="52"
        rx="5"
        stroke="#8D4400"
        stroke-width="2"
      />
      <rect
        x="153.75"
        y="188.75"
        width="76.5"
        height="54"
        rx="6"
        fill="#FAEFE8"
      />
      <rect
        x="154.75"
        y="189.75"
        width="74.5"
        height="52"
        rx="5"
        stroke="#756362"
        stroke-width="2"
      />
    </g>
  </g>
  <defs>
    <clipPath id="clip0_690_2340">
      <rect width="384" height="240" fill="white" />
    </clipPath>
    <clipPath id="clip1_690_2340">
      <rect width="90" height="276" fill="white" transform="translate(87 41)" />
    </clipPath>
    <clipPath id="clip2_690_2340">
      <rect
        width="90"
        height="276"
        fill="white"
        transform="translate(207 41)"
      />
    </clipPath>
    <clipPath id="clip3_690_2340">
      <rect
        width="90"
        height="276"
        fill="white"
        transform="translate(147 33.5)"
      />
    </clipPath>
  </defs>
</svg>
