<svg width="592" height="368" viewBox="0 0 592 368" fill="none" xmlns="http://www.w3.org/2000/svg">
<g clip-path="url(#clip0_1174_201)">
<circle cx="296" cy="247" r="239" fill="#E8DCD9"/>
<g clip-path="url(#clip1_1174_201)">
<mask id="path-2-inside-1_1174_201" fill="white">
<path fill-rule="evenodd" clip-rule="evenodd" d="M172 29C163.163 29 156 36.1634 156 45V381C156 389.837 163.163 397 172 397H260C268.837 397 276 389.837 276 381V45C276 36.1634 268.837 29 260 29H172ZM216 61C220.418 61 224 57.4183 224 53C224 48.5817 220.418 45 216 45C211.582 45 208 48.5817 208 53C208 57.4183 211.582 61 216 61Z"/>
</mask>
<path fill-rule="evenodd" clip-rule="evenodd" d="M172 29C163.163 29 156 36.1634 156 45V381C156 389.837 163.163 397 172 397H260C268.837 397 276 389.837 276 381V45C276 36.1634 268.837 29 260 29H172ZM216 61C220.418 61 224 57.4183 224 53C224 48.5817 220.418 45 216 45C211.582 45 208 48.5817 208 53C208 57.4183 211.582 61 216 61Z" fill="white"/>
<path d="M158 45C158 37.268 164.268 31 172 31V27C162.059 27 154 35.0589 154 45H158ZM158 381V45H154V381H158ZM172 395C164.268 395 158 388.732 158 381H154C154 390.941 162.059 399 172 399V395ZM260 395H172V399H260V395ZM274 381C274 388.732 267.732 395 260 395V399C269.941 399 278 390.941 278 381H274ZM274 45V381H278V45H274ZM260 31C267.732 31 274 37.268 274 45H278C278 35.0589 269.941 27 260 27V31ZM172 31H260V27H172V31ZM222 53C222 56.3137 219.314 59 216 59V63C221.523 63 226 58.5228 226 53H222ZM216 47C219.314 47 222 49.6863 222 53H226C226 47.4772 221.523 43 216 43V47ZM210 53C210 49.6863 212.686 47 216 47V43C210.477 43 206 47.4772 206 53H210ZM216 59C212.686 59 210 56.3137 210 53H206C206 58.5228 210.477 63 216 63V59Z" fill="#756362" mask="url(#path-2-inside-1_1174_201)"/>
<rect x="165" y="77" width="102" height="72" rx="8" fill="#E8AA00"/>
<rect x="166" y="78" width="100" height="70" rx="7" stroke="#8D4400" stroke-width="2"/>
<rect x="165" y="156.5" width="102" height="72" rx="8" fill="#1C5344"/>
<rect x="166" y="157.5" width="100" height="70" rx="7" stroke="#092E24" stroke-width="2"/>
<rect x="165" y="236" width="102" height="72" rx="8" fill="#B7CBC5"/>
<rect x="166" y="237" width="100" height="70" rx="7" stroke="#627570" stroke-width="2"/>
<rect x="165" y="315.5" width="102" height="72" rx="8" fill="#E4F1ED"/>
<rect x="166" y="316.5" width="100" height="70" rx="7" stroke="#627570" stroke-width="2"/>
</g>
<g clip-path="url(#clip2_1174_201)">
<mask id="path-12-inside-2_1174_201" fill="white">
<path fill-rule="evenodd" clip-rule="evenodd" d="M332 29C323.163 29 316 36.1634 316 45V381C316 389.837 323.163 397 332 397H420C428.837 397 436 389.837 436 381V45C436 36.1634 428.837 29 420 29H332ZM376 61C380.418 61 384 57.4183 384 53C384 48.5817 380.418 45 376 45C371.582 45 368 48.5817 368 53C368 57.4183 371.582 61 376 61Z"/>
</mask>
<path fill-rule="evenodd" clip-rule="evenodd" d="M332 29C323.163 29 316 36.1634 316 45V381C316 389.837 323.163 397 332 397H420C428.837 397 436 389.837 436 381V45C436 36.1634 428.837 29 420 29H332ZM376 61C380.418 61 384 57.4183 384 53C384 48.5817 380.418 45 376 45C371.582 45 368 48.5817 368 53C368 57.4183 371.582 61 376 61Z" fill="white"/>
<path d="M318 45C318 37.268 324.268 31 332 31V27C322.059 27 314 35.0589 314 45H318ZM318 381V45H314V381H318ZM332 395C324.268 395 318 388.732 318 381H314C314 390.941 322.059 399 332 399V395ZM420 395H332V399H420V395ZM434 381C434 388.732 427.732 395 420 395V399C429.941 399 438 390.941 438 381H434ZM434 45V381H438V45H434ZM420 31C427.732 31 434 37.268 434 45H438C438 35.0589 429.941 27 420 27V31ZM332 31H420V27H332V31ZM382 53C382 56.3137 379.314 59 376 59V63C381.523 63 386 58.5228 386 53H382ZM376 47C379.314 47 382 49.6863 382 53H386C386 47.4772 381.523 43 376 43V47ZM370 53C370 49.6863 372.686 47 376 47V43C370.477 43 366 47.4772 366 53H370ZM376 59C372.686 59 370 56.3137 370 53H366C366 58.5228 370.477 63 376 63V59Z" fill="#756362" mask="url(#path-12-inside-2_1174_201)"/>
<rect x="325" y="77" width="102" height="72" rx="8" fill="#5F9D8B"/>
<rect x="326" y="78" width="100" height="70" rx="7" stroke="#092E24" stroke-width="2"/>
<rect x="325" y="156.5" width="102" height="72" rx="8" fill="#1C5344"/>
<rect x="326" y="157.5" width="100" height="70" rx="7" stroke="#092E24" stroke-width="2"/>
<rect x="325" y="236" width="102" height="72" rx="8" fill="#FAEFE8"/>
<rect x="326" y="237" width="100" height="70" rx="7" stroke="#756362" stroke-width="2"/>
<rect x="325" y="315.5" width="102" height="72" rx="8" fill="#F7C1A3"/>
<rect x="326" y="316.5" width="100" height="70" rx="7" stroke="#756362" stroke-width="2"/>
</g>
<g clip-path="url(#clip3_1174_201)">
<mask id="path-22-inside-3_1174_201" fill="white">
<path fill-rule="evenodd" clip-rule="evenodd" d="M252 19C243.163 19 236 26.1634 236 35V371C236 379.837 243.163 387 252 387H340C348.837 387 356 379.837 356 371V35C356 26.1634 348.837 19 340 19H252ZM296 51C300.418 51 304 47.4183 304 43C304 38.5817 300.418 35 296 35C291.582 35 288 38.5817 288 43C288 47.4183 291.582 51 296 51Z"/>
</mask>
<path fill-rule="evenodd" clip-rule="evenodd" d="M252 19C243.163 19 236 26.1634 236 35V371C236 379.837 243.163 387 252 387H340C348.837 387 356 379.837 356 371V35C356 26.1634 348.837 19 340 19H252ZM296 51C300.418 51 304 47.4183 304 43C304 38.5817 300.418 35 296 35C291.582 35 288 38.5817 288 43C288 47.4183 291.582 51 296 51Z" fill="white"/>
<path d="M238 35C238 27.268 244.268 21 252 21V17C242.059 17 234 25.0589 234 35H238ZM238 371V35H234V371H238ZM252 385C244.268 385 238 378.732 238 371H234C234 380.941 242.059 389 252 389V385ZM340 385H252V389H340V385ZM354 371C354 378.732 347.732 385 340 385V389C349.941 389 358 380.941 358 371H354ZM354 35V371H358V35H354ZM340 21C347.732 21 354 27.268 354 35H358C358 25.0589 349.941 17 340 17V21ZM252 21H340V17H252V21ZM302 43C302 46.3137 299.314 49 296 49V53C301.523 53 306 48.5228 306 43H302ZM296 37C299.314 37 302 39.6863 302 43H306C306 37.4772 301.523 33 296 33V37ZM290 43C290 39.6863 292.686 37 296 37V33C290.477 33 286 37.4772 286 43H290ZM296 49C292.686 49 290 46.3137 290 43H286C286 48.5228 290.477 53 296 53V49Z" fill="#756362" mask="url(#path-22-inside-3_1174_201)"/>
<rect x="245" y="67" width="102" height="72" rx="8" fill="#EE7244"/>
<rect x="246" y="68" width="100" height="70" rx="7" stroke="#8D4400" stroke-width="2"/>
<rect x="245" y="146.5" width="102" height="72" rx="8" fill="#E8AA00"/>
<rect x="246" y="147.5" width="100" height="70" rx="7" stroke="#8D4400" stroke-width="2"/>
<rect x="245" y="226" width="102" height="72" rx="8" fill="#FAEFE8"/>
<rect x="246" y="227" width="100" height="70" rx="7" stroke="#756362" stroke-width="2"/>
<rect x="245" y="305.5" width="102" height="72" rx="8" fill="#F7C1A3"/>
<rect x="246" y="306.5" width="100" height="70" rx="7" stroke="#756362" stroke-width="2"/>
</g>
</g>
<defs>
<clipPath id="clip0_1174_201">
<rect width="592" height="368" fill="white"/>
</clipPath>
<clipPath id="clip1_1174_201">
<rect width="120" height="368" fill="white" transform="translate(156 29)"/>
</clipPath>
<clipPath id="clip2_1174_201">
<rect width="120" height="368" fill="white" transform="translate(316 29)"/>
</clipPath>
<clipPath id="clip3_1174_201">
<rect width="120" height="368" fill="white" transform="translate(236 19)"/>
</clipPath>
</defs>
</svg>
