<svg xmlns="http://www.w3.org/2000/svg" width="592" height="368" fill="none"><path fill="#F7C9E6" d="M0 0h592v368H0z"/><path fill="#700A05" d="M180.609 176.936c-2.4 0-4.464-.456-6.192-1.368-1.728-.96-3.144-2.304-4.248-4.032-1.056-1.728-1.824-3.792-2.304-6.192h-1.296l.072 10.656h-7.632V124.88h9.072v12.168c0 1.152-.072 2.4-.216 3.744a72.243 72.243 0 0 1-.576 4.176c-.24 1.392-.504 2.808-.792 4.248h1.512c.624-2.304 1.44-4.32 2.448-6.048 1.056-1.776 2.424-3.168 4.104-4.176 1.68-1.008 3.744-1.512 6.192-1.512 3.12 0 5.808.84 8.064 2.52 2.304 1.632 4.08 3.936 5.328 6.912 1.248 2.928 1.872 6.408 1.872 10.44 0 3.936-.624 7.368-1.872 10.296-1.2 2.928-2.952 5.208-5.256 6.84-2.256 1.632-5.016 2.448-8.28 2.448Zm-2.88-7.488c1.776 0 3.336-.504 4.68-1.512 1.344-1.008 2.352-2.424 3.024-4.248.72-1.824 1.08-3.984 1.08-6.48 0-2.4-.336-4.512-1.008-6.336-.672-1.824-1.656-3.264-2.952-4.32-1.296-1.056-2.88-1.584-4.752-1.584-1.248 0-2.4.264-3.456.792a8.111 8.111 0 0 0-2.736 2.016 12.294 12.294 0 0 0-1.944 2.736 14.924 14.924 0 0 0-1.224 3.168c-.24 1.056-.36 2.04-.36 2.952v1.224c0 1.2.192 2.496.576 3.888a12.262 12.262 0 0 0 1.8 3.744 10.81 10.81 0 0 0 3.024 2.88c1.2.72 2.616 1.08 4.248 1.08ZM199.9 176V138.344h7.632l-.144 12.96h1.296c.432-3.072 1.104-5.616 2.016-7.632.912-2.064 2.184-3.6 3.816-4.608 1.632-1.056 3.648-1.584 6.048-1.584.48 0 .984.024 1.512.072.576.048 1.2.168 1.872.36l-.36 9.576c-.768-.288-1.56-.48-2.376-.576a11.754 11.754 0 0 0-2.16-.216c-1.872 0-3.504.48-4.896 1.44-1.344.96-2.448 2.328-3.312 4.104-.816 1.728-1.44 3.792-1.872 6.192V176H199.9Zm26.055 0v-37.656h9.072V176h-9.072Zm4.536-43.56c-1.824 0-3.24-.384-4.248-1.152-.96-.816-1.44-1.968-1.44-3.456s.48-2.616 1.44-3.384c1.008-.816 2.424-1.224 4.248-1.224 1.92 0 3.36.384 4.32 1.152.96.768 1.44 1.92 1.44 3.456 0 1.488-.504 2.64-1.512 3.456-.96.768-2.376 1.152-4.248 1.152Zm27.33 44.496c-3.264 0-6.096-.48-8.496-1.44-2.352-.96-4.32-2.304-5.904-4.032-1.536-1.776-2.688-3.84-3.456-6.192-.768-2.352-1.152-4.896-1.152-7.632 0-2.928.384-5.616 1.152-8.064.816-2.448 2.016-4.584 3.6-6.408 1.584-1.824 3.528-3.24 5.832-4.248 2.352-1.008 5.04-1.512 8.064-1.512s5.64.504 7.848 1.512c2.256 1.008 4.08 2.424 5.472 4.248 1.392 1.776 2.328 3.864 2.808 6.264l-8.496 2.664c-.096-1.44-.48-2.712-1.152-3.816a6.95 6.95 0 0 0-2.736-2.664c-1.152-.624-2.52-.936-4.104-.936-1.536 0-2.88.312-4.032.936-1.104.576-2.04 1.416-2.808 2.52-.72 1.104-1.296 2.448-1.728 4.032-.384 1.536-.576 3.264-.576 5.184 0 2.64.36 4.896 1.08 6.768.72 1.872 1.824 3.336 3.312 4.392 1.488 1.008 3.336 1.512 5.544 1.512 1.968 0 3.552-.36 4.752-1.08 1.248-.768 2.184-1.752 2.808-2.952.672-1.2 1.08-2.52 1.224-3.96l8.064 1.8c-.288 1.968-.84 3.744-1.656 5.328s-1.944 2.976-3.384 4.176c-1.392 1.152-3.072 2.04-5.04 2.664-1.968.624-4.248.936-6.84.936Zm35.753 0c-3.696 0-6.96-.744-9.792-2.232-2.832-1.536-5.064-3.768-6.696-6.696-1.584-2.976-2.376-6.624-2.376-10.944 0-4.416.816-8.064 2.448-10.944 1.68-2.928 3.936-5.112 6.768-6.552 2.832-1.44 6.024-2.16 9.576-2.16 3.696 0 6.96.744 9.792 2.232 2.832 1.488 5.064 3.72 6.696 6.696 1.632 2.928 2.448 6.576 2.448 10.944 0 4.416-.816 8.088-2.448 11.016-1.632 2.928-3.888 5.112-6.768 6.552-2.832 1.392-6.048 2.088-9.648 2.088Zm.36-6.912c2.016 0 3.72-.456 5.112-1.368 1.392-.96 2.448-2.376 3.168-4.248.768-1.872 1.152-4.104 1.152-6.696 0-2.736-.408-5.064-1.224-6.984-.768-1.968-1.896-3.48-3.384-4.536-1.44-1.056-3.264-1.584-5.472-1.584-1.92 0-3.6.48-5.04 1.44-1.44.912-2.544 2.28-3.312 4.104-.72 1.824-1.08 4.08-1.08 6.768 0 4.224.888 7.464 2.664 9.72 1.824 2.256 4.296 3.384 7.416 3.384Zm22.35 5.976v-51.12h8.928V176h-8.928Zm23.517.936c-2.064 0-3.912-.384-5.544-1.152-1.632-.816-2.928-2.016-3.888-3.6-.912-1.584-1.368-3.552-1.368-5.904 0-1.968.36-3.648 1.08-5.04.768-1.392 1.896-2.52 3.384-3.384 1.488-.912 3.336-1.656 5.544-2.232 2.208-.624 4.8-1.152 7.776-1.584 1.632-.24 2.952-.48 3.96-.72 1.056-.24 1.824-.6 2.304-1.08.48-.528.72-1.296.72-2.304 0-1.488-.528-2.76-1.584-3.816-1.008-1.104-2.664-1.656-4.968-1.656-1.392 0-2.736.24-4.032.72-1.248.48-2.328 1.248-3.24 2.304-.912 1.008-1.536 2.352-1.872 4.032l-8.136-2.52c.528-1.92 1.296-3.576 2.304-4.968a14.343 14.343 0 0 1 3.744-3.672c1.488-1.008 3.192-1.752 5.112-2.232 1.92-.48 4.032-.72 6.336-.72 3.504 0 6.384.576 8.64 1.728 2.256 1.104 3.936 2.856 5.04 5.256 1.104 2.352 1.656 5.4 1.656 9.144v7.056c0 1.632.024 3.336.072 5.112.096 1.728.192 3.48.288 5.256.144 1.728.312 3.408.504 5.04h-8.136a90.095 90.095 0 0 1-.504-4.32 142.494 142.494 0 0 1-.36-4.68h-1.152a17.588 17.588 0 0 1-2.88 5.04c-1.248 1.488-2.784 2.688-4.608 3.6-1.776.864-3.84 1.296-6.192 1.296Zm3.6-6.696c.96 0 1.92-.168 2.88-.504a11.478 11.478 0 0 0 2.952-1.512 14.151 14.151 0 0 0 2.664-2.448c.816-1.008 1.512-2.184 2.088-3.528l-.144-6.408 1.728.288c-.816.672-1.824 1.2-3.024 1.584-1.2.384-2.472.672-3.816.864a62.896 62.896 0 0 0-3.96.72c-1.296.24-2.472.576-3.528 1.008-1.056.384-1.896.96-2.52 1.728-.624.72-.936 1.728-.936 3.024 0 1.632.528 2.904 1.584 3.816 1.056.912 2.4 1.368 4.032 1.368Zm39.468 18.72c-4.08 0-7.44-.312-10.08-.936-2.592-.624-4.512-1.56-5.76-2.808-1.248-1.248-1.872-2.784-1.872-4.608 0-2.208.864-4.008 2.592-5.4 1.776-1.44 4.392-2.328 7.848-2.664v-1.44c-2.592.048-4.56-.216-5.904-.792-1.344-.624-2.016-1.608-2.016-2.952 0-1.296.648-2.448 1.944-3.456 1.344-1.008 3.552-1.848 6.624-2.52v-1.44c-2.928-.144-5.208-1.056-6.84-2.736-1.632-1.728-2.448-3.96-2.448-6.696 0-2.448.672-4.608 2.016-6.48 1.344-1.872 3.312-3.336 5.904-4.392 2.64-1.104 5.832-1.656 9.576-1.656h18.648v7.2l-11.808-1.728v1.584c2.976.48 5.16 1.32 6.552 2.52 1.44 1.2 2.16 2.832 2.16 4.896 0 1.968-.624 3.72-1.872 5.256-1.248 1.488-3.072 2.664-5.472 3.528-2.352.816-5.208 1.224-8.568 1.224-.624 0-1.296-.024-2.016-.072-.72-.048-1.848-.168-3.384-.36-1.008.72-1.824 1.368-2.448 1.944-.624.528-.936 1.032-.936 1.512 0 .384.24.72.72 1.008.48.24 1.104.408 1.872.504.768.096 1.512.144 2.232.144h10.008c.96 0 2.184.072 3.672.216 1.536.144 3.048.528 4.536 1.152a8.86 8.86 0 0 1 3.816 2.952c1.056 1.344 1.584 3.24 1.584 5.688 0 2.736-.792 4.968-2.376 6.696-1.536 1.776-3.864 3.072-6.984 3.888-3.072.816-6.912 1.224-11.52 1.224Zm.792-7.344c2.976 0 5.352-.168 7.128-.504 1.776-.336 3.048-.888 3.816-1.656.768-.72 1.152-1.656 1.152-2.808 0-1.056-.24-1.872-.72-2.448a3.692 3.692 0 0 0-1.872-1.296 8.755 8.755 0 0 0-2.232-.432 32.002 32.002 0 0 0-1.944-.072h-8.856c-2.304.336-3.936.984-4.896 1.944-.912.96-1.368 2.016-1.368 3.168 0 1.152.384 2.016 1.152 2.592.768.624 1.872 1.032 3.312 1.224 1.488.192 3.264.288 5.328.288Zm.216-24.12c2.496 0 4.392-.576 5.688-1.728 1.296-1.2 1.944-2.76 1.944-4.68 0-2.064-.672-3.744-2.016-5.04-1.296-1.344-3.192-2.016-5.688-2.016-2.496 0-4.44.648-5.832 1.944-1.344 1.296-2.016 2.952-2.016 4.968 0 1.296.288 2.448.864 3.456.624.96 1.512 1.728 2.664 2.304 1.2.528 2.664.792 4.392.792Zm39.166 19.44c-3.024 0-5.736-.432-8.136-1.296-2.352-.864-4.344-2.112-5.976-3.744-1.632-1.68-2.88-3.696-3.744-6.048-.864-2.352-1.296-5.016-1.296-7.992s.408-5.712 1.224-8.208c.864-2.496 2.088-4.656 3.672-6.48 1.584-1.824 3.504-3.24 5.76-4.248 2.304-1.008 4.92-1.512 7.848-1.512 2.736 0 5.184.456 7.344 1.368a13.98 13.98 0 0 1 5.472 4.104c1.488 1.776 2.592 4.008 3.312 6.696.72 2.64.96 5.712.72 9.216l-29.448.216v-5.256l24.192-.216-3.168 2.952c.288-2.736.072-4.968-.648-6.696-.72-1.776-1.752-3.072-3.096-3.888-1.344-.864-2.88-1.296-4.608-1.296-1.968 0-3.696.528-5.184 1.584-1.488 1.008-2.64 2.496-3.456 4.464-.768 1.92-1.152 4.272-1.152 7.056 0 4.176.912 7.296 2.736 9.36 1.872 2.064 4.416 3.096 7.632 3.096 1.44 0 2.64-.168 3.6-.504 1.008-.384 1.848-.864 2.52-1.44a7.292 7.292 0 0 0 1.584-2.088c.432-.768.768-1.584 1.008-2.448l7.92 1.8c-.384 1.776-1.008 3.36-1.872 4.752-.864 1.392-1.992 2.592-3.384 3.6-1.344 1.008-2.952 1.776-4.824 2.304-1.872.528-4.056.792-6.552.792ZM154.906 251.96c-4.08 0-7.44-.312-10.08-.936-2.592-.624-4.512-1.56-5.76-2.808-1.248-1.248-1.872-2.784-1.872-4.608 0-2.208.864-4.008 2.592-5.4 1.776-1.44 4.392-2.328 7.848-2.664v-1.44c-2.592.048-4.56-.216-5.904-.792-1.344-.624-2.016-1.608-2.016-2.952 0-1.296.648-2.448 1.944-3.456 1.344-1.008 3.552-1.848 6.624-2.52v-1.44c-2.928-.144-5.208-1.056-6.84-2.736-1.632-1.728-2.448-3.96-2.448-6.696 0-2.448.672-4.608 2.016-6.48 1.344-1.872 3.312-3.336 5.904-4.392 2.64-1.104 5.832-1.656 9.576-1.656h18.648v7.2l-11.808-1.728v1.584c2.976.48 5.16 1.32 6.552 2.52 1.44 1.2 2.16 2.832 2.16 4.896 0 1.968-.624 3.72-1.872 5.256-1.248 1.488-3.072 2.664-5.472 3.528-2.352.816-5.208 1.224-8.568 1.224-.624 0-1.296-.024-2.016-.072-.72-.048-1.848-.168-3.384-.36-1.008.72-1.824 1.368-2.448 1.944-.624.528-.936 1.032-.936 1.512 0 .384.24.72.72 1.008.48.24 1.104.408 1.872.504.768.096 1.512.144 2.232.144h10.008c.96 0 2.184.072 3.672.216 1.536.144 3.048.528 4.536 1.152a8.86 8.86 0 0 1 3.816 2.952c1.056 1.344 1.584 3.24 1.584 5.688 0 2.736-.792 4.968-2.376 6.696-1.536 1.776-3.864 3.072-6.984 3.888-3.072.816-6.912 1.224-11.52 1.224Zm.792-7.344c2.976 0 5.352-.168 7.128-.504 1.776-.336 3.048-.888 3.816-1.656.768-.72 1.152-1.656 1.152-2.808 0-1.056-.24-1.872-.72-2.448a3.692 3.692 0 0 0-1.872-1.296 8.755 8.755 0 0 0-2.232-.432 32.002 32.002 0 0 0-1.944-.072h-8.856c-2.304.336-3.936.984-4.896 1.944-.912.96-1.368 2.016-1.368 3.168 0 1.152.384 2.016 1.152 2.592.768.624 1.872 1.032 3.312 1.224 1.488.192 3.264.288 5.328.288Zm.216-24.12c2.496 0 4.392-.576 5.688-1.728 1.296-1.2 1.944-2.76 1.944-4.68 0-2.064-.672-3.744-2.016-5.04-1.296-1.344-3.192-2.016-5.688-2.016-2.496 0-4.44.648-5.832 1.944-1.344 1.296-2.016 2.952-2.016 4.968 0 1.296.288 2.448.864 3.456.624.96 1.512 1.728 2.664 2.304 1.2.528 2.664.792 4.392.792ZM178.791 239V201.344h7.632l-.144 12.96h1.296c.432-3.072 1.104-5.616 2.016-7.632.912-2.064 2.184-3.6 3.816-4.608 1.632-1.056 3.648-1.584 6.048-1.584.48 0 .984.024 1.512.072.576.048 1.2.168 1.872.36l-.36 9.576c-.768-.288-1.56-.48-2.376-.576a11.754 11.754 0 0 0-2.16-.216c-1.872 0-3.504.48-4.896 1.44-1.344.96-2.448 2.328-3.312 4.104-.816 1.728-1.44 3.792-1.872 6.192V239h-9.072Zm42.477.936c-3.696 0-6.959-.744-9.791-2.232-2.833-1.536-5.065-3.768-6.697-6.696-1.584-2.976-2.376-6.624-2.376-10.944 0-4.416.816-8.064 2.448-10.944 1.68-2.928 3.937-5.112 6.769-6.552 2.832-1.44 6.024-2.16 9.576-2.16 3.696 0 6.96.744 9.792 2.232 2.832 1.488 5.064 3.72 6.696 6.696 1.631 2.928 2.447 6.576 2.447 10.944 0 4.416-.816 8.088-2.447 11.016-1.632 2.928-3.889 5.112-6.769 6.552-2.831 1.392-6.047 2.088-9.648 2.088Zm.361-6.912c2.016 0 3.72-.456 5.111-1.368 1.393-.96 2.449-2.376 3.168-4.248.769-1.872 1.153-4.104 1.153-6.696 0-2.736-.408-5.064-1.224-6.984-.768-1.968-1.896-3.48-3.384-4.536-1.44-1.056-3.264-1.584-5.472-1.584-1.92 0-3.601.48-5.04 1.44-1.44.912-2.544 2.28-3.312 4.104-.72 1.824-1.08 4.08-1.08 6.768 0 4.224.888 7.464 2.664 9.72 1.824 2.256 4.296 3.384 7.416 3.384Zm35.526 6.84c-3.984 0-6.912-1.056-8.784-3.168-1.872-2.16-2.808-5.496-2.808-10.008v-18.072h-5.544l.144-7.2h3.672c1.392 0 2.424-.216 3.096-.648.672-.432 1.08-1.2 1.224-2.304l.864-5.472h5.256v8.352h9.936v7.56h-9.936v17.424c0 1.776.408 3.072 1.224 3.888.864.816 2.136 1.224 3.816 1.224.912 0 1.8-.096 2.664-.288a8.013 8.013 0 0 0 2.52-1.152v8.64c-1.488.48-2.856.792-4.104.936-1.2.192-2.28.288-3.24.288Zm27.199.072c-3.024 0-5.736-.432-8.136-1.296-2.352-.864-4.344-2.112-5.976-3.744-1.632-1.68-2.88-3.696-3.744-6.048-.864-2.352-1.296-5.016-1.296-7.992s.408-5.712 1.224-8.208c.864-2.496 2.088-4.656 3.672-6.48 1.584-1.824 3.504-3.24 5.76-4.248 2.304-1.008 4.92-1.512 7.848-1.512 2.736 0 5.184.456 7.344 1.368a13.98 13.98 0 0 1 5.472 4.104c1.488 1.776 2.592 4.008 3.312 6.696.72 2.64.96 5.712.72 9.216l-29.448.216v-5.256l24.192-.216-3.168 2.952c.288-2.736.072-4.968-.648-6.696-.72-1.776-1.752-3.072-3.096-3.888-1.344-.864-2.88-1.296-4.608-1.296-1.968 0-3.696.528-5.184 1.584-1.488 1.008-2.64 2.496-3.456 4.464-.768 1.92-1.152 4.272-1.152 7.056 0 4.176.912 7.296 2.736 9.36 1.872 2.064 4.416 3.096 7.632 3.096 1.44 0 2.64-.168 3.6-.504 1.008-.384 1.848-.864 2.52-1.44a7.292 7.292 0 0 0 1.584-2.088c.432-.768.768-1.584 1.008-2.448l7.92 1.8c-.384 1.776-1.008 3.36-1.872 4.752-.864 1.392-1.992 2.592-3.384 3.6-1.344 1.008-2.952 1.776-4.824 2.304-1.872.528-4.056.792-6.552.792Zm35.21 0c-2.544 0-4.848-.264-6.912-.792-2.016-.48-3.744-1.176-5.184-2.088-1.44-.96-2.592-2.088-3.456-3.384a10.386 10.386 0 0 1-1.584-4.464l7.128-2.664c.096 1.248.576 2.376 1.44 3.384.864.96 2.064 1.728 3.6 2.304 1.536.576 3.384.864 5.544.864 2.4 0 4.248-.36 5.544-1.08 1.344-.768 2.016-1.848 2.016-3.24 0-1.008-.36-1.8-1.08-2.376-.72-.624-1.776-1.128-3.168-1.512-1.344-.432-2.976-.84-4.896-1.224a125.144 125.144 0 0 1-5.4-1.296 26.892 26.892 0 0 1-4.968-2.016c-1.488-.864-2.712-1.968-3.672-3.312-.912-1.392-1.368-3.144-1.368-5.256 0-2.304.6-4.296 1.8-5.976 1.248-1.68 3.024-3 5.328-3.96 2.352-.96 5.184-1.44 8.496-1.44 3.12 0 5.808.432 8.064 1.296 2.304.864 4.176 2.112 5.616 3.744 1.44 1.584 2.352 3.48 2.736 5.688l-7.488 2.376c-.144-1.344-.6-2.472-1.368-3.384-.768-.96-1.8-1.68-3.096-2.16-1.296-.48-2.808-.72-4.536-.72-2.208 0-3.936.384-5.184 1.152-1.248.768-1.872 1.8-1.872 3.096 0 1.056.384 1.896 1.152 2.52.816.624 1.92 1.128 3.312 1.512 1.44.384 3.072.768 4.896 1.152 1.92.384 3.768.84 5.544 1.368 1.824.48 3.456 1.128 4.896 1.944 1.44.816 2.592 1.896 3.456 3.24.864 1.296 1.296 2.976 1.296 5.04 0 2.496-.672 4.632-2.016 6.408-1.344 1.728-3.264 3.048-5.76 3.96-2.448.864-5.4 1.296-8.856 1.296Zm46.147 11.016v-10.44c0-1.2.072-2.448.216-3.744.192-1.296.408-2.616.648-3.96.24-1.392.48-2.76.72-4.104h-1.296c-.672 2.208-1.56 4.176-2.664 5.904-1.056 1.68-2.424 3-4.104 3.96-1.632.912-3.72 1.368-6.264 1.368-3.312 0-6.096-.84-8.352-2.52-2.208-1.728-3.888-4.056-5.04-6.984-1.152-2.976-1.728-6.336-1.728-10.08 0-3.984.6-7.464 1.8-10.44 1.248-2.976 3.048-5.304 5.4-6.984 2.352-1.68 5.208-2.52 8.568-2.52 2.352 0 4.368.456 6.048 1.368 1.68.864 3.048 2.136 4.104 3.816 1.104 1.632 1.872 3.624 2.304 5.976h1.296l-.216-10.152h7.704v49.536h-9.144Zm-9.576-18.432c1.248 0 2.376-.24 3.384-.72a8.602 8.602 0 0 0 2.736-1.944c.768-.864 1.416-1.8 1.944-2.808a12.74 12.74 0 0 0 1.152-3.096c.288-1.056.432-2.064.432-3.024v-1.224c0-1.296-.216-2.616-.648-3.96a12.126 12.126 0 0 0-1.8-3.816 9.174 9.174 0 0 0-2.952-2.808c-1.2-.72-2.592-1.08-4.176-1.08-1.824 0-3.408.504-4.752 1.512-1.296 1.008-2.304 2.424-3.024 4.248-.72 1.824-1.08 4.008-1.08 6.552 0 2.352.336 4.44 1.008 6.264.72 1.824 1.728 3.264 3.024 4.32 1.296 1.056 2.88 1.584 4.752 1.584Zm37.075 7.416c-4.32 0-7.584-1.464-9.792-4.392-2.16-2.976-3.24-7.464-3.24-13.464v-20.736h9.144v19.728c0 3.792.576 6.624 1.728 8.496 1.152 1.872 2.928 2.808 5.328 2.808 1.392 0 2.616-.336 3.672-1.008 1.056-.72 1.968-1.704 2.736-2.952.768-1.296 1.368-2.784 1.8-4.464.48-1.68.768-3.528.864-5.544v-17.064h9.072V239h-7.488l.144-11.88h-1.296c-.624 3.024-1.512 5.472-2.664 7.344-1.104 1.872-2.472 3.264-4.104 4.176-1.632.864-3.6 1.296-5.904 1.296Zm44.231 0c-3.024 0-5.736-.432-8.136-1.296-2.352-.864-4.344-2.112-5.976-3.744-1.632-1.68-2.88-3.696-3.744-6.048-.864-2.352-1.296-5.016-1.296-7.992s.408-5.712 1.224-8.208c.864-2.496 2.088-4.656 3.672-6.48 1.584-1.824 3.504-3.24 5.76-4.248 2.304-1.008 4.92-1.512 7.848-1.512 2.736 0 5.184.456 7.344 1.368a13.98 13.98 0 0 1 5.472 4.104c1.488 1.776 2.592 4.008 3.312 6.696.72 2.64.96 5.712.72 9.216l-29.448.216v-5.256l24.192-.216-3.168 2.952c.288-2.736.072-4.968-.648-6.696-.72-1.776-1.752-3.072-3.096-3.888-1.344-.864-2.88-1.296-4.608-1.296-1.968 0-3.696.528-5.184 1.584-1.488 1.008-2.64 2.496-3.456 4.464-.768 1.92-1.152 4.272-1.152 7.056 0 4.176.912 7.296 2.736 9.36 1.872 2.064 4.416 3.096 7.632 3.096 1.44 0 2.64-.168 3.6-.504 1.008-.384 1.848-.864 2.52-1.44a7.292 7.292 0 0 0 1.584-2.088c.432-.768.768-1.584 1.008-2.448l7.92 1.8c-.384 1.776-1.008 3.36-1.872 4.752-.864 1.392-1.992 2.592-3.384 3.6-1.344 1.008-2.952 1.776-4.824 2.304-1.872.528-4.056.792-6.552.792Z"/></svg>