<svg xmlns="http://www.w3.org/2000/svg" width="592" height="368" fill="none"><path fill="#F7C1A3" d="M0 0h592v368H0z"/><path fill="#4B2159" d="M169.789 181.72c-3.936 0-7.368-.768-10.296-2.304-2.928-1.584-5.208-3.792-6.84-6.624-1.632-2.88-2.448-6.264-2.448-10.152v-2.448c0-3.84.816-7.152 2.448-9.936 1.68-2.832 4.008-5.016 6.984-6.552 2.976-1.536 6.456-2.304 10.44-2.304 5.472 0 9.696 1.584 12.672 4.752 3.024 3.12 4.536 7.584 4.536 13.392v4.032c0 5.808-1.536 10.296-4.608 13.464-3.024 3.12-7.32 4.68-12.888 4.68Zm-26.208-39.6h7.272l4.032 11.88v39.96h-11.304v-51.84Zm22.968 31.536c2.928 0 5.232-.912 6.912-2.736 1.68-1.872 2.52-4.416 2.52-7.632v-3.312c0-3.264-.84-5.808-2.52-7.632-1.68-1.824-3.984-2.736-6.912-2.736-3.6 0-6.456 1.008-8.568 3.024-2.064 1.968-3.096 4.728-3.096 8.28v1.224c0 3.6 1.032 6.432 3.096 8.496 2.064 2.016 4.92 3.024 8.568 3.024Zm51.226-6.552v-9.36c0-2.88-.912-4.992-2.736-6.336-1.824-1.392-4.656-2.088-8.496-2.088-2.304 0-4.632.312-6.984.936a29.592 29.592 0 0 0-6.696 2.52l-1.512-7.632c1.584-.72 3.408-1.368 5.472-1.944a45.89 45.89 0 0 1 6.408-1.296c2.256-.336 4.368-.504 6.336-.504 6.624 0 11.592 1.368 14.904 4.104 3.312 2.688 4.968 6.768 4.968 12.24V181h-9.144l-2.52-13.896Zm-12.672 14.616c-4.704 0-8.376-1.008-11.016-3.024-2.64-2.064-3.96-4.896-3.96-8.496v-1.152c0-3.648 1.32-6.48 3.96-8.496 2.688-2.064 6.456-3.096 11.304-3.096 5.04 0 9 1.008 11.88 3.024 2.928 1.968 4.392 4.752 4.392 8.352v1.224c0 3.648-1.464 6.504-4.392 8.568-2.928 2.064-6.984 3.096-12.168 3.096Zm3.168-5.616c2.832 0 5.064-.576 6.696-1.728 1.632-1.152 2.448-2.712 2.448-4.68v-.792c0-1.872-.792-3.336-2.376-4.392-1.536-1.056-3.696-1.584-6.48-1.584-2.544 0-4.536.528-5.976 1.584-1.44 1.056-2.16 2.592-2.16 4.608v.792c0 1.92.696 3.432 2.088 4.536 1.392 1.104 3.312 1.656 5.76 1.656Zm41.06 5.616c-4.176 0-7.248-1.032-9.216-3.096-1.92-2.112-2.88-5.376-2.88-9.792v-24.984l3.24-11.016h8.064v33.696c0 2.4.456 4.128 1.368 5.184.96 1.056 2.544 1.584 4.752 1.584.864 0 1.752-.072 2.664-.216.912-.192 1.776-.48 2.592-.864l1.296 7.056c-1.056.48-2.232.912-3.528 1.296a26.983 26.983 0 0 1-4.104.864 32.12 32.12 0 0 1-4.248.288Zm-18.792-39.6h28.296v7.776h-28.296v-7.776Zm62.794 18.36c0-3.648-.696-6.312-2.088-7.992-1.344-1.728-3.504-2.592-6.48-2.592-3.36 0-5.952 1.176-7.776 3.528-1.824 2.352-2.736 5.76-2.736 10.224l-3.888 5.688v-4.752c0-7.44 1.632-13.152 4.896-17.136 3.312-4.032 7.992-6.048 14.04-6.048 5.28 0 9.168 1.392 11.664 4.176 2.496 2.784 3.744 7.176 3.744 13.176V181h-11.376v-20.52Zm-30.384-32.76h11.304V181h-11.304v-53.28Zm42.886 14.4h11.16l7.92 31.392h.216l9.072-31.392h12.384l9.072 31.392h.144l7.992-31.392h11.16L365.523 181h-17.136l-7.848-26.352h-.216L332.331 181h-17.064l-9.432-38.88Zm96.457 24.984v-9.36c0-2.88-.912-4.992-2.736-6.336-1.824-1.392-4.656-2.088-8.496-2.088-2.304 0-4.632.312-6.984.936a29.592 29.592 0 0 0-6.696 2.52l-1.512-7.632c1.584-.72 3.408-1.368 5.472-1.944a45.89 45.89 0 0 1 6.408-1.296c2.256-.336 4.368-.504 6.336-.504 6.624 0 11.592 1.368 14.904 4.104 3.312 2.688 4.968 6.768 4.968 12.24V181h-9.144l-2.52-13.896ZM389.62 181.72c-4.704 0-8.376-1.008-11.016-3.024-2.64-2.064-3.96-4.896-3.96-8.496v-1.152c0-3.648 1.32-6.48 3.96-8.496 2.688-2.064 6.456-3.096 11.304-3.096 5.04 0 9 1.008 11.88 3.024 2.928 1.968 4.392 4.752 4.392 8.352v1.224c0 3.648-1.464 6.504-4.392 8.568-2.928 2.064-6.984 3.096-12.168 3.096Zm3.168-5.616c2.832 0 5.064-.576 6.696-1.728 1.632-1.152 2.448-2.712 2.448-4.68v-.792c0-1.872-.792-3.336-2.376-4.392-1.536-1.056-3.696-1.584-6.48-1.584-2.544 0-4.536.528-5.976 1.584-1.44 1.056-2.16 2.592-2.16 4.608v.792c0 1.92.696 3.432 2.088 4.536 1.392 1.104 3.312 1.656 5.76 1.656Zm32.301 16.56 6.264-14.904-1.008 5.76-16.848-41.4h11.376l10.8 27.864h.216l10.224-27.864h11.304l-20.808 52.704-11.52-2.16ZM163.346 244.72c-4.272 0-7.944-.696-11.016-2.088-3.024-1.44-5.352-3.528-6.984-6.264-1.584-2.736-2.376-6-2.376-9.792v-4.032c0-3.792.84-7.032 2.52-9.72 1.728-2.736 4.2-4.824 7.416-6.264 3.216-1.44 7.032-2.16 11.448-2.16 6.768 0 11.976 1.752 15.624 5.256 3.696 3.456 5.544 8.4 5.544 14.832v2.592h-33.336v-4.896h24.408l-1.584 1.8v-2.16c0-3.072-.936-5.496-2.808-7.272-1.824-1.776-4.344-2.664-7.56-2.664-3.216 0-5.76.888-7.632 2.664-1.824 1.776-2.736 4.248-2.736 7.416v5.904c0 3.168.888 5.616 2.664 7.344 1.776 1.68 4.224 2.52 7.344 2.52 2.736 0 4.944-.576 6.624-1.728 1.728-1.152 2.832-2.712 3.312-4.68l10.728.792c-1.152 4.032-3.624 7.152-7.416 9.36-3.744 2.16-8.472 3.24-14.184 3.24Zm20.166-39.6h14.04l31.32 38.88h-14.04l-31.32-38.88Zm17.496 16.416 10.368 3.096L196.04 244h-12.888l17.856-22.464Zm-.576 2.736 15.192-19.152h12.888L210.8 227.368l-10.368-3.096Zm44.454 20.448c-4.176 0-7.248-1.032-9.216-3.096-1.92-2.112-2.88-5.376-2.88-9.792v-24.984l3.24-11.016h8.064v33.696c0 2.4.456 4.128 1.368 5.184.96 1.056 2.544 1.584 4.752 1.584.864 0 1.752-.072 2.664-.216.912-.192 1.776-.48 2.592-.864l1.296 7.056c-1.056.48-2.232.912-3.528 1.296a26.983 26.983 0 0 1-4.104.864 32.12 32.12 0 0 1-4.248.288Zm-18.792-39.6h28.296v7.776h-28.296v-7.776Zm32.34 0h9.144l2.16 15.336V244h-11.304v-38.88Zm8.784 19.224c0-6.576 1.152-11.544 3.456-14.904 2.352-3.36 5.784-5.04 10.296-5.04.816 0 1.632.072 2.448.216.864.096 1.704.24 2.52.432l-.648 9.504a18.799 18.799 0 0 0-4.968-.648c-3.504 0-6.144 1.104-7.92 3.312-1.776 2.208-2.664 5.544-2.664 10.008l-2.52-2.88Zm37.965 20.376c-4.272 0-7.944-.696-11.016-2.088-3.024-1.44-5.352-3.528-6.984-6.264-1.584-2.736-2.376-6-2.376-9.792v-4.032c0-3.792.84-7.032 2.52-9.72 1.728-2.736 4.2-4.824 7.416-6.264 3.216-1.44 7.032-2.16 11.448-2.16 6.768 0 11.976 1.752 15.624 5.256 3.696 3.456 5.544 8.4 5.544 14.832v2.592h-33.336v-4.896h24.408l-1.584 1.8v-2.16c0-3.072-.936-5.496-2.808-7.272-1.824-1.776-4.344-2.664-7.56-2.664-3.216 0-5.76.888-7.632 2.664-1.824 1.776-2.736 4.248-2.736 7.416v5.904c0 3.168.888 5.616 2.664 7.344 1.776 1.68 4.224 2.52 7.344 2.52 2.736 0 4.944-.576 6.624-1.728 1.728-1.152 2.832-2.712 3.312-4.68l10.728.792c-1.152 4.032-3.624 7.152-7.416 9.36-3.744 2.16-8.472 3.24-14.184 3.24Zm85.934-21.24c0-3.648-.672-6.312-2.016-7.992-1.344-1.728-3.432-2.592-6.264-2.592-3.312 0-5.856 1.176-7.632 3.528-1.776 2.352-2.664 5.76-2.664 10.224l-3.888 5.688v-4.752c0-7.44 1.608-13.152 4.824-17.136 3.264-4.032 7.896-6.048 13.896-6.048 5.184 0 8.976 1.392 11.376 4.176 2.448 2.784 3.672 7.152 3.672 13.104V244h-11.304v-20.52Zm-59.76-18.36h9.144l2.16 12.024V244h-11.304v-38.88Zm29.88 18.36c0-3.648-.672-6.312-2.016-7.992-1.344-1.728-3.432-2.592-6.264-2.592-3.312 0-5.856 1.176-7.632 3.528-1.776 2.352-2.664 5.76-2.664 10.224l-3.888 5.688v-4.752c0-7.44 1.608-13.152 4.824-17.136 3.264-4.032 7.896-6.048 13.896-6.048 5.184 0 8.976 1.416 11.376 4.248 2.448 2.784 3.672 7.128 3.672 13.032V244h-11.304v-20.52Zm65.665 21.24c-4.272 0-7.944-.696-11.016-2.088-3.024-1.44-5.352-3.528-6.984-6.264-1.584-2.736-2.376-6-2.376-9.792v-4.032c0-3.792.84-7.032 2.52-9.72 1.728-2.736 4.2-4.824 7.416-6.264 3.216-1.44 7.032-2.16 11.448-2.16 6.768 0 11.976 1.752 15.624 5.256 3.696 3.456 5.544 8.4 5.544 14.832v2.592h-33.336v-4.896h24.408l-1.584 1.8v-2.16c0-3.072-.936-5.496-2.808-7.272-1.824-1.776-4.344-2.664-7.56-2.664-3.216 0-5.76.888-7.632 2.664-1.824 1.776-2.736 4.248-2.736 7.416v5.904c0 3.168.888 5.616 2.664 7.344 1.776 1.68 4.224 2.52 7.344 2.52 2.736 0 4.944-.576 6.624-1.728 1.728-1.152 2.832-2.712 3.312-4.68l10.728.792c-1.152 4.032-3.624 7.152-7.416 9.36-3.744 2.16-8.472 3.24-14.184 3.24Z"/></svg>