<svg width="384" height="240" viewBox="0 0 384 240" fill="none" xmlns="http://www.w3.org/2000/svg">
<g opacity="0.08">
<path d="M215 96C215 93.7909 216.791 92 219 92H313C315.209 92 317 93.7909 317 96V218C317 219.105 316.105 220 315 220H217C215.895 220 215 219.105 215 218V96Z" fill="#251B1B" stroke="#251B1B" stroke-width="2"/>
<path d="M114 96C114 93.7909 115.791 92 118 92H211C213.209 92 215 93.7909 215 96V218C215 219.105 214.105 220 213 220H116C114.895 220 114 219.105 114 218V96Z" fill="#251B1B" stroke="#251B1B" stroke-width="2"/>
<path d="M67 96C67 93.7909 68.7909 92 71 92H110C112.209 92 114 93.7909 114 96V218C114 219.105 113.105 220 112 220H69C67.8954 220 67 219.105 67 218V96Z" fill="#251B1B" stroke="#251B1B" stroke-width="2"/>
</g>
<g opacity="0.15">
<path d="M215 72C215 69.7909 216.791 68 219 68H313C315.209 68 317 69.7909 317 72V194C317 195.105 316.105 196 315 196H217C215.895 196 215 195.105 215 194V72Z" fill="#251B1B" stroke="#251B1B" stroke-width="2"/>
<path d="M114 72C114 69.7909 115.791 68 118 68H211C213.209 68 215 69.7909 215 72V194C215 195.105 214.105 196 213 196H116C114.895 196 114 195.105 114 194V72Z" fill="#251B1B" stroke="#251B1B" stroke-width="2"/>
<path d="M67 72C67 69.7909 68.7909 68 71 68H110C112.209 68 114 69.7909 114 72V194C114 195.105 113.105 196 112 196H69C67.8954 196 67 195.105 67 194V72Z" fill="#251B1B" stroke="#251B1B" stroke-width="2"/>
</g>
<path d="M215 73C215 70.7909 216.791 69 219 69H313C315.209 69 317 70.7909 317 73V185C317 186.105 316.105 187 315 187H217C215.895 187 215 186.105 215 185V73Z" fill="#092E24" stroke="#092E24" stroke-width="2"/>
<path d="M114 72C114 69.7909 115.791 68 118 68H211C213.209 68 215 69.7909 215 72V185C215 186.105 214.105 187 213 187H116C114.895 187 114 186.105 114 185V72Z" fill="#092E24" stroke="#092E24" stroke-width="2"/>
<path d="M67 78C67 75.7909 68.7909 74 71 74H110C112.209 74 114 75.7909 114 78V185C114 186.105 113.105 187 112 187H69C67.8955 187 67 186.105 67 185V78Z" fill="#092E24" stroke="#092E24" stroke-width="2"/>
<path d="M215 72C215 69.7909 216.791 68 219 68H313C315.209 68 317 69.7909 317 72V179C317 180.105 316.105 181 315 181H217C215.895 181 215 180.105 215 179V72Z" fill="#1C5344" stroke="#092E24" stroke-width="2"/>
<path d="M114 72C114 69.7909 115.791 68 118 68H211C213.209 68 215 69.7909 215 72V179C215 180.105 214.105 181 213 181H116C114.895 181 114 180.105 114 179V72Z" fill="#1C5344" stroke="#092E24" stroke-width="2"/>
<path d="M67 72C67 69.7909 68.7909 68 71 68H110C112.209 68 114 69.7909 114 72V179C114 180.105 113.105 181 112 181H69C67.8955 181 67 180.105 67 179V72Z" fill="#1C5344" stroke="#092E24" stroke-width="2"/>
<g filter="url(#filter0_ii_202_168)">
<path d="M111.61 109.576C111.61 106.552 109.378 105.256 90.6583 105.256C71.9383 105.256 69.5623 106.552 69.5623 109.576C69.5623 112.6 71.7223 114.256 90.6583 114.256C109.594 114.256 111.61 112.6 111.61 109.576ZM109.882 163C109.522 155.944 109.45 149.752 109.45 139.744C109.45 130.096 109.378 123.904 109.882 116.776H71.4343C71.6503 124.048 71.7223 130.6 71.7223 138.88C71.7223 147.664 71.8663 155.872 71.4343 163H109.882ZM210.578 163C210.146 158.248 210.146 153.568 210.146 147.808C210.146 143.344 210.362 139.744 210.362 133.408C210.362 120.232 200.066 115.192 183.794 115.192C168.17 115.192 159.602 119.296 155.93 128.368L155.426 128.296C155.57 124.192 155.642 121.024 155.642 116.776H117.698C117.914 123.4 118.058 130.024 118.058 139.744C118.058 150.184 117.914 156.304 117.698 163H156.434C156.29 159.112 156.218 155.08 156.218 144.856C156.218 138.232 160.034 136.072 164.786 136.072C169.97 136.072 171.986 137.872 171.986 142.912C171.986 151.192 171.914 158.248 171.626 163H210.578ZM270.661 116.776C269.005 119.728 266.557 124.048 262.741 128.8C261.157 130.744 259.213 133.696 257.269 136.504H256.261V135.352C256.261 123.4 256.117 115.84 256.549 107.272H218.101C218.389 115.696 218.317 123.688 218.317 133.12C218.317 143.992 218.389 154.216 218.101 163H256.549C256.261 157.816 256.261 152.992 256.261 147.376H257.269C261.301 150.688 264.757 155.944 267.637 160.12C268.789 162.352 270.229 163 274.189 163H312.061C303.853 151.696 304.357 142.264 284.917 139.888C301.261 137.944 305.941 125.056 311.413 116.776H270.661Z" fill="#296655"/>
</g>
<path d="M109.882 163V164H110.935L110.881 162.949L109.882 163ZM109.882 116.776L110.88 116.847L110.956 115.776H109.882V116.776ZM71.4343 116.776V115.776H70.4042L70.4348 116.806L71.4343 116.776ZM71.4343 163L70.4362 162.94L70.3719 164H71.4343V163ZM112.61 109.576C112.61 108.695 112.446 107.755 111.706 106.949C111.004 106.185 109.908 105.678 108.39 105.31C105.356 104.575 99.9979 104.256 90.6583 104.256V106.256C100.039 106.256 105.156 106.585 107.919 107.254C109.298 107.588 109.93 107.972 110.232 108.301C110.496 108.589 110.61 108.945 110.61 109.576H112.61ZM90.6583 104.256C81.3177 104.256 75.9252 104.575 72.8576 105.309C71.323 105.677 70.2128 106.181 69.4983 106.939C68.7415 107.742 68.5623 108.683 68.5623 109.576H70.5623C70.5623 108.957 70.6802 108.602 70.9539 108.311C71.2698 107.976 71.9237 107.589 73.323 107.255C76.1235 106.585 81.279 106.256 90.6583 106.256V104.256ZM68.5623 109.576C68.5623 110.453 68.7204 111.4 69.437 112.234C70.1249 113.036 71.2121 113.597 72.7465 114.015C75.8012 114.847 81.2051 115.256 90.6583 115.256V113.256C81.1756 113.256 76.0315 112.837 73.2722 112.085C71.8996 111.711 71.2633 111.291 70.9545 110.932C70.6743 110.605 70.5623 110.211 70.5623 109.576H68.5623ZM90.6583 115.256C100.11 115.256 105.481 114.847 108.501 114.014C110.02 113.595 111.093 113.031 111.767 112.224C112.466 111.387 112.61 110.442 112.61 109.576H110.61C110.61 110.222 110.502 110.618 110.232 110.942C109.937 111.296 109.322 111.713 107.969 112.086C105.248 112.837 100.142 113.256 90.6583 113.256V115.256ZM110.881 162.949C110.522 155.919 110.45 149.748 110.45 139.744H108.45C108.45 149.756 108.522 155.969 108.884 163.051L110.881 162.949ZM110.45 139.744C110.45 130.079 110.379 123.93 110.88 116.847L108.885 116.705C108.378 123.878 108.45 130.113 108.45 139.744H110.45ZM109.882 115.776H71.4343V117.776H109.882V115.776ZM70.4348 116.806C70.6504 124.065 70.7223 130.607 70.7223 138.88H72.7223C72.7223 130.593 72.6503 124.031 72.4339 116.746L70.4348 116.806ZM70.7223 138.88C70.7223 147.693 70.8658 155.851 70.4362 162.94L72.4325 163.06C72.8669 155.893 72.7223 147.635 72.7223 138.88H70.7223ZM71.4343 164H109.882V162H71.4343V164ZM210.578 163V164H211.673L211.574 162.909L210.578 163ZM155.93 128.368L155.789 129.358L156.564 129.469L156.857 128.743L155.93 128.368ZM155.426 128.296L154.427 128.261L154.395 129.159L155.285 129.286L155.426 128.296ZM155.642 116.776H156.642V115.776H155.642V116.776ZM117.698 116.776V115.776H116.665L116.699 116.809L117.698 116.776ZM117.698 163L116.699 162.968L116.666 164H117.698V163ZM156.434 163V164H157.472L157.434 162.963L156.434 163ZM171.626 163L170.628 162.94L170.564 164H171.626V163ZM211.574 162.909C211.147 158.211 211.146 153.577 211.146 147.808H209.146C209.146 153.559 209.146 158.285 209.582 163.091L211.574 162.909ZM211.146 147.808C211.146 145.591 211.2 143.588 211.254 141.334C211.308 139.082 211.362 136.588 211.362 133.408H209.362C209.362 136.564 209.309 139.038 209.255 141.286C209.201 143.532 209.146 145.561 209.146 147.808H211.146ZM211.362 133.408C211.362 126.509 208.639 121.62 203.714 118.513C198.869 115.457 192 114.192 183.794 114.192V116.192C191.86 116.192 198.276 117.447 202.647 120.205C206.938 122.912 209.362 127.131 209.362 133.408H211.362ZM183.794 114.192C175.911 114.192 169.695 115.225 164.952 117.474C160.17 119.742 156.933 123.226 155.003 127.993L156.857 128.743C158.6 124.438 161.482 121.334 165.809 119.282C170.173 117.211 176.053 116.192 183.794 116.192V114.192ZM156.072 127.378L155.568 127.306L155.285 129.286L155.789 129.358L156.072 127.378ZM156.426 128.331C156.57 124.218 156.642 121.038 156.642 116.776H154.642C154.642 121.01 154.571 124.166 154.427 128.261L156.426 128.331ZM155.642 115.776H117.698V117.776H155.642V115.776ZM116.699 116.809C116.914 123.423 117.058 130.036 117.058 139.744H119.058C119.058 130.012 118.914 123.377 118.698 116.743L116.699 116.809ZM117.058 139.744C117.058 150.172 116.915 156.281 116.699 162.968L118.698 163.032C118.914 156.327 119.058 150.196 119.058 139.744H117.058ZM117.698 164H156.434V162H117.698V164ZM157.434 162.963C157.29 159.094 157.218 155.076 157.218 144.856H155.218C155.218 155.084 155.29 159.13 155.435 163.037L157.434 162.963ZM157.218 144.856C157.218 141.738 158.11 139.854 159.382 138.729C160.678 137.584 162.542 137.072 164.786 137.072V135.072C162.279 135.072 159.858 135.64 158.058 137.231C156.234 138.842 155.218 141.35 155.218 144.856H157.218ZM164.786 137.072C167.309 137.072 168.781 137.52 169.646 138.332C170.495 139.127 170.986 140.488 170.986 142.912H172.986C172.986 140.296 172.47 138.237 171.014 136.872C169.576 135.524 167.447 135.072 164.786 135.072V137.072ZM170.986 142.912C170.986 151.196 170.914 158.222 170.628 162.94L172.624 163.06C172.915 158.274 172.986 151.188 172.986 142.912H170.986ZM171.626 164H210.578V162H171.626V164ZM270.661 116.776V115.776H270.076L269.789 116.287L270.661 116.776ZM262.741 128.8L263.516 129.432L263.521 129.426L262.741 128.8ZM257.269 136.504V137.504H257.793L258.091 137.073L257.269 136.504ZM256.261 136.504H255.261V137.504H256.261V136.504ZM256.549 107.272L257.548 107.322L257.601 106.272H256.549V107.272ZM218.101 107.272V106.272H217.066L217.102 107.306L218.101 107.272ZM218.101 163L217.102 162.967L217.068 164H218.101V163ZM256.549 163V164H257.606L257.548 162.945L256.549 163ZM256.261 147.376V146.376H255.261V147.376H256.261ZM257.269 147.376L257.904 146.603L257.627 146.376H257.269V147.376ZM267.637 160.12L268.526 159.661L268.497 159.605L268.46 159.552L267.637 160.12ZM312.061 163V164H314.023L312.87 162.412L312.061 163ZM284.917 139.888L284.799 138.895L284.796 140.881L284.917 139.888ZM311.413 116.776L312.247 117.327L313.273 115.776H311.413V116.776ZM269.789 116.287C268.138 119.23 265.723 123.49 261.961 128.174L263.521 129.426C267.391 124.606 269.872 120.226 271.533 117.265L269.789 116.287ZM261.966 128.168C260.349 130.153 258.365 133.164 256.447 135.935L258.091 137.073C260.061 134.228 261.965 131.335 263.516 129.432L261.966 128.168ZM257.269 135.504H256.261V137.504H257.269V135.504ZM257.261 136.504V135.352H255.261V136.504H257.261ZM257.261 135.352C257.261 123.377 257.118 115.857 257.548 107.322L255.55 107.222C255.117 115.823 255.261 123.423 255.261 135.352H257.261ZM256.549 106.272H218.101V108.272H256.549V106.272ZM217.102 107.306C217.389 115.708 217.317 123.676 217.317 133.12H219.317C219.317 123.7 219.389 115.684 219.101 107.238L217.102 107.306ZM217.317 133.12C217.317 144.005 217.389 154.205 217.102 162.967L219.101 163.033C219.389 154.227 219.317 143.979 219.317 133.12H217.317ZM218.101 164H256.549V162H218.101V164ZM257.548 162.945C257.261 157.793 257.261 152.996 257.261 147.376H255.261C255.261 152.988 255.261 157.839 255.551 163.055L257.548 162.945ZM256.261 148.376H257.269V146.376H256.261V148.376ZM256.634 148.149C260.531 151.35 263.898 156.46 266.814 160.688L268.46 159.552C265.616 155.428 262.071 150.026 257.904 146.603L256.634 148.149ZM266.749 160.579C267.393 161.828 268.186 162.751 269.456 163.312C270.658 163.843 272.188 164 274.189 164V162C272.23 162 271.06 161.833 270.264 161.482C269.536 161.161 269.033 160.644 268.526 159.661L266.749 160.579ZM274.189 164H312.061V162H274.189V164ZM312.87 162.412C310.858 159.641 309.377 156.982 307.963 154.464C306.558 151.964 305.204 149.575 303.475 147.463C299.945 143.15 294.949 140.107 285.038 138.895L284.796 140.881C294.325 142.045 298.798 144.906 301.927 148.729C303.528 150.685 304.802 152.922 306.219 155.444C307.626 157.948 309.161 160.707 311.252 163.588L312.87 162.412ZM285.035 140.881C301.964 138.867 306.937 125.363 312.247 117.327L310.579 116.225C304.946 124.749 300.558 137.021 284.799 138.895L285.035 140.881ZM311.413 115.776H270.661V117.776H311.413V115.776Z" fill="#092E24"/>
<path opacity="0.5" d="M67 172L72.6855 176.5L77.9919 178L103.766 176.5L114 173V180H67V172Z" fill="#092E24"/>
<path opacity="0.5" d="M114 172L126.218 176.5L137.621 178L159.224 174.5H170.907L181.836 172L198.418 174.5L215 172V180H114V172Z" fill="#092E24"/>
<path opacity="0.5" d="M215 172L227.339 176.5L238.855 178L294.79 176.5L317 173V180H215V172Z" fill="#092E24"/>
<path opacity="0.2" d="M67 77L72.6855 72.5L77.9919 71L103.766 72.5L114 76V69H67V77Z" fill="#6FA6AD"/>
<path opacity="0.2" d="M114 81L126.813 76L143.396 72.5L175.052 74L204.004 75.5L215 78.5V69H114L114 81Z" fill="#6FA6AD"/>
<path opacity="0.2" d="M215 77L227.339 72.5L238.855 71L294.79 72.5L317 76V69H215V77Z" fill="#6FA6AD"/>
<rect x="215" y="68" width="102" height="113" rx="4" stroke="#092E24" stroke-width="2"/>
<rect x="114" y="68" width="101" height="113" rx="4" stroke="#092E24" stroke-width="2"/>
<rect x="67" y="68" width="47" height="113" rx="4" stroke="#092E24" stroke-width="2"/>
<path opacity="0.2" d="M187 99L187 115C187 119.418 190.582 123 195 123L275 123C279.418 123 283 119.418 283 115L283 99C283 94.5817 279.418 91 275 91L195 91C190.582 91 187 94.5817 187 99Z" fill="#092E24" stroke="#092E24" stroke-width="2" stroke-linecap="round" stroke-linejoin="round"/>
<path d="M275.41 79L275.41 111L195.41 111L195.41 79L275.41 79Z" fill="#114034"/>
<path opacity="0.2" d="M195.41 107L161.41 107C159.818 107 158.292 106.368 157.167 105.243C156.042 104.117 155.41 102.591 155.41 101L155.41 33C155.41 31.4087 154.777 29.8826 153.652 28.7574C152.527 27.6321 151.001 27 149.41 27L121.41 27C119.818 27 118.292 27.6321 117.167 28.7574C116.042 29.8826 115.41 31.4087 115.41 33L115.41 72" stroke="#251B1B" stroke-width="6" stroke-linecap="round" stroke-linejoin="round"/>
<path opacity="0.2" d="M90 57L90 177C90 180.314 92.3985 183 95.3571 183L134.643 183C137.602 183 140 180.314 140 177L140 57C140 53.6863 137.602 51 134.643 51L95.3571 51C92.3985 51 90 53.6863 90 57Z" fill="#092E24"/>
<path d="M187.41 95L161.41 95C159.818 95 158.292 94.3679 157.167 93.2426C156.042 92.1174 155.41 90.5913 155.41 89L155.41 21C155.41 19.4087 154.777 17.8826 153.652 16.7574C152.527 15.6321 151.001 15 149.41 15L121.41 15C119.818 15 118.292 15.6321 117.167 16.7574C116.042 17.8826 115.41 19.4087 115.41 21L115.41 60" stroke="#092E24" stroke-width="6" stroke-linecap="round" stroke-linejoin="round"/>
<path d="M99 43L99 37C99 36.4696 99.2107 35.9609 99.5858 35.5858C99.9609 35.2107 100.47 35 101 35L129 35C129.53 35 130.039 35.2107 130.414 35.5858C130.789 35.9609 131 36.4696 131 37L131 43L99 43Z" fill="#FAEFE8" stroke="#092E24" stroke-width="2" stroke-linecap="round" stroke-linejoin="round"/>
<path d="M131 167L131 173C131 173.53 130.789 174.039 130.414 174.414C130.039 174.789 129.53 175 129 175L101 175C100.47 175 99.9609 174.789 99.5858 174.414C99.2107 174.039 99 173.53 99 173L99 167L131 167Z" fill="#FAEFE8" stroke="#092E24" stroke-width="2" stroke-linecap="round" stroke-linejoin="round"/>
<path d="M91.4096 45L91.4096 165C91.4096 168.314 94.0959 171 97.4096 171L133.41 171C136.723 171 139.41 168.314 139.41 165L139.41 45C139.41 41.6863 136.723 39 133.41 39L97.4096 39C94.0959 39 91.4096 41.6863 91.4096 45Z" fill="#F6AC87"/>
<path d="M195.41 79L195.41 111C193.288 111 191.253 110.157 189.753 108.657C188.252 107.157 187.41 105.122 187.41 103L187.41 87C187.41 84.8783 188.252 82.8434 189.753 81.3431C191.253 79.8428 193.288 79 195.41 79Z" fill="#4A8B79"/>
<path d="M275.41 79C277.531 79 279.566 79.8428 281.066 81.3431C282.567 82.8434 283.41 84.8783 283.41 87L283.41 103C283.41 105.122 282.567 107.157 281.066 108.657C279.566 110.157 277.531 111 275.41 111L275.41 79Z" fill="#4A8B79"/>
<path opacity="0.2" d="M91.4096 45L91.4096 165C91.4096 166.591 92.0417 168.117 93.167 169.243C94.2922 170.368 95.8183 171 97.4096 171L107.41 171C105.818 171 104.292 170.368 103.167 169.243C102.042 168.117 101.41 166.591 101.41 165L101.41 45C101.41 43.4087 102.042 41.8826 103.167 40.7574C104.292 39.6321 105.818 39 107.41 39L97.4096 39C95.8183 39 94.2922 39.6321 93.167 40.7574C92.0417 41.8826 91.4096 43.4087 91.4096 45V45Z" fill="#BE270F"/>
<path d="M91 45L91 165C91 168.314 93.6863 171 97 171L133 171C136.314 171 139 168.314 139 165L139 45C139 41.6863 136.314 39 133 39L97 39C93.6863 39 91 41.6863 91 45Z" stroke="#092E24" stroke-width="2" stroke-linecap="round" stroke-linejoin="round"/>
<path opacity="0.6" d="M195.41 102L195.41 111L275.41 111L275.41 102L195.41 102Z" fill="#092E24"/>
<path opacity="0.2" d="M187.41 94L187.41 103C187.41 105.122 188.252 107.157 189.753 108.657C191.253 110.157 193.288 111 195.41 111L195.41 102C193.288 102 191.253 101.157 189.753 99.6568C188.252 98.1566 187.41 96.1217 187.41 94V94Z" fill="#114034"/>
<path opacity="0.2" d="M275.41 102L275.41 111C277.531 111 279.566 110.157 281.066 108.657C282.567 107.157 283.41 105.122 283.41 103L283.41 94C283.41 96.1217 282.567 98.1565 281.066 99.6568C279.566 101.157 277.531 102 275.41 102Z" fill="#114034"/>
<path opacity="0.6" d="M195.41 88L195.41 79L275.41 79L275.41 88L195.41 88Z" fill="#092E24"/>
<path opacity="0.2" d="M187.41 96L187.41 87C187.41 84.8783 188.252 82.8434 189.753 81.3431C191.253 79.8428 193.288 79 195.41 79L195.41 88C193.288 88 191.253 88.8428 189.753 90.3431C188.252 91.8434 187.41 93.8783 187.41 96Z" fill="#114034"/>
<path opacity="0.2" d="M275.41 88L275.41 79C277.509 79.0703 279.503 79.9357 280.989 81.421C282.474 82.9064 283.339 84.9006 283.41 87L283.41 96C283.339 93.9006 282.474 91.9064 280.989 90.421C279.503 88.9357 277.509 88.0703 275.41 88V88Z" fill="#114034"/>
<path d="M195.41 79C193.288 79 191.253 79.8428 189.753 81.3431C188.252 82.8434 187.41 84.8783 187.41 87L187.41 103C187.41 105.122 188.252 107.157 189.753 108.657C191.253 110.157 193.288 111 195.41 111L275.41 111C277.531 111 279.566 110.157 281.066 108.657C282.567 107.157 283.41 105.122 283.41 103L283.41 87C283.41 84.8783 282.567 82.8434 281.066 81.3431C279.566 79.8428 277.531 79 275.41 79" stroke="#092E24" stroke-width="2" stroke-linecap="round" stroke-linejoin="round"/>
<path opacity="0.2" d="M129.41 45L129.41 165C129.41 166.591 128.777 168.117 127.652 169.243C126.527 170.368 125.001 171 123.41 171L133.41 171C135.001 171 136.527 170.368 137.652 169.243C138.777 168.117 139.41 166.591 139.41 165L139.41 45C139.41 43.4087 138.777 41.8826 137.652 40.7574C136.527 39.6321 135.001 39 133.41 39L123.41 39C125.001 39 126.527 39.6321 127.652 40.7574C128.777 41.8826 129.41 43.4087 129.41 45Z" fill="#BE270F"/>
<path d="M275.41 79L195.41 79" stroke="#092E24" stroke-width="2" stroke-linecap="round" stroke-linejoin="round"/>
<defs>
<filter id="filter0_ii_202_168" x="69.5623" y="105.256" width="242.499" height="57.744" filterUnits="userSpaceOnUse" color-interpolation-filters="sRGB">
<feFlood flood-opacity="0" result="BackgroundImageFix"/>
<feBlend mode="normal" in="SourceGraphic" in2="BackgroundImageFix" result="shape"/>
<feColorMatrix in="SourceAlpha" type="matrix" values="0 0 0 0 0 0 0 0 0 0 0 0 0 0 0 0 0 0 127 0" result="hardAlpha"/>
<feOffset dy="4"/>
<feComposite in2="hardAlpha" operator="arithmetic" k2="-1" k3="1"/>
<feColorMatrix type="matrix" values="0 0 0 0 0.435294 0 0 0 0 0.65098 0 0 0 0 0.678431 0 0 0 0.3 0"/>
<feBlend mode="normal" in2="shape" result="effect1_innerShadow_202_168"/>
<feColorMatrix in="SourceAlpha" type="matrix" values="0 0 0 0 0 0 0 0 0 0 0 0 0 0 0 0 0 0 127 0" result="hardAlpha"/>
<feOffset dy="-4"/>
<feComposite in2="hardAlpha" operator="arithmetic" k2="-1" k3="1"/>
<feColorMatrix type="matrix" values="0 0 0 0 0.054902 0 0 0 0 0.27451 0 0 0 0 0.356863 0 0 0 0.3 0"/>
<feBlend mode="normal" in2="effect1_innerShadow_202_168" result="effect2_innerShadow_202_168"/>
</filter>
</defs>
</svg>
