<svg width="592" height="368" viewBox="0 0 592 368" fill="none" xmlns="http://www.w3.org/2000/svg">
<rect width="592" height="368" fill="#CDB9F5"/>
<path d="M159.331 215.056C155.224 215.056 151.558 214.059 148.331 212.064C145.104 210.069 142.552 207.341 140.675 203.88C138.798 200.419 137.859 196.488 137.859 192.088C137.859 187.688 138.798 183.787 140.675 180.384C142.552 176.923 145.104 174.224 148.331 172.288C151.558 170.293 155.224 169.296 159.331 169.296C162.616 169.296 165.491 169.912 167.955 171.144C170.419 172.376 172.414 174.107 173.939 176.336V150.64H185.203V214H175.171L173.939 207.752C172.531 209.688 170.654 211.389 168.307 212.856C166.019 214.323 163.027 215.056 159.331 215.056ZM161.707 205.2C165.344 205.2 168.307 203.997 170.595 201.592C172.942 199.128 174.115 195.989 174.115 192.176C174.115 188.363 172.942 185.253 170.595 182.848C168.307 180.384 165.344 179.152 161.707 179.152C158.128 179.152 155.166 180.355 152.819 182.76C150.472 185.165 149.299 188.275 149.299 192.088C149.299 195.901 150.472 199.04 152.819 201.504C155.166 203.968 158.128 205.2 161.707 205.2ZM191.393 214V170.352H201.337L202.305 176.248C203.713 174.136 205.561 172.464 207.849 171.232C210.196 169.941 212.895 169.296 215.945 169.296C222.692 169.296 227.473 171.907 230.289 177.128C231.873 174.723 233.985 172.816 236.625 171.408C239.324 170 242.257 169.296 245.425 169.296C251.116 169.296 255.487 170.997 258.537 174.4C261.588 177.803 263.113 182.789 263.113 189.36V214H251.849V190.416C251.849 186.661 251.116 183.787 249.649 181.792C248.241 179.797 246.041 178.8 243.049 178.8C239.999 178.8 237.535 179.915 235.657 182.144C233.839 184.373 232.929 187.483 232.929 191.472V214H221.665V190.416C221.665 186.661 220.932 183.787 219.465 181.792C217.999 179.797 215.74 178.8 212.689 178.8C209.697 178.8 207.263 179.915 205.385 182.144C203.567 184.373 202.657 187.483 202.657 191.472V214H191.393ZM302.256 215.056C298.384 215.056 294.981 214.44 292.048 213.208C289.115 211.917 286.768 210.157 285.008 207.928C283.248 205.699 282.192 203.117 281.84 200.184H293.192C293.544 201.885 294.483 203.352 296.008 204.584C297.592 205.757 299.616 206.344 302.08 206.344C304.544 206.344 306.333 205.845 307.448 204.848C308.621 203.851 309.208 202.707 309.208 201.416C309.208 199.539 308.387 198.277 306.744 197.632C305.101 196.928 302.813 196.253 299.88 195.608C298.003 195.197 296.096 194.699 294.16 194.112C292.224 193.525 290.435 192.792 288.792 191.912C287.208 190.973 285.917 189.8 284.92 188.392C283.923 186.925 283.424 185.136 283.424 183.024C283.424 179.152 284.949 175.896 288 173.256C291.109 170.616 295.451 169.296 301.024 169.296C306.187 169.296 310.293 170.499 313.344 172.904C316.453 175.309 318.301 178.624 318.888 182.848H308.24C307.595 179.621 305.16 178.008 300.936 178.008C298.824 178.008 297.181 178.419 296.008 179.24C294.893 180.061 294.336 181.088 294.336 182.32C294.336 183.611 295.187 184.637 296.888 185.4C298.589 186.163 300.848 186.867 303.664 187.512C306.715 188.216 309.501 189.008 312.024 189.888C314.605 190.709 316.659 191.971 318.184 193.672C319.709 195.315 320.472 197.691 320.472 200.8C320.531 203.499 319.827 205.933 318.36 208.104C316.893 210.275 314.781 211.976 312.024 213.208C309.267 214.44 306.011 215.056 302.256 215.056ZM340.218 215.056C336.464 215.056 333.384 214.469 330.978 213.296C328.573 212.064 326.784 210.451 325.61 208.456C324.437 206.461 323.85 204.261 323.85 201.856C323.85 197.808 325.434 194.523 328.602 192C331.77 189.477 336.522 188.216 342.858 188.216H353.946V187.16C353.946 184.168 353.096 181.968 351.394 180.56C349.693 179.152 347.581 178.448 345.058 178.448C342.77 178.448 340.776 179.005 339.074 180.12C337.373 181.176 336.317 182.76 335.906 184.872H324.906C325.2 181.704 326.256 178.947 328.074 176.6C329.952 174.253 332.357 172.464 335.29 171.232C338.224 169.941 341.509 169.296 345.146 169.296C351.365 169.296 356.264 170.851 359.842 173.96C363.421 177.069 365.21 181.469 365.21 187.16V214H355.618L354.562 206.96C353.272 209.307 351.453 211.243 349.106 212.768C346.818 214.293 343.856 215.056 340.218 215.056ZM342.77 206.256C345.997 206.256 348.49 205.2 350.25 203.088C352.069 200.976 353.213 198.365 353.682 195.256H344.09C341.098 195.256 338.957 195.813 337.666 196.928C336.376 197.984 335.73 199.304 335.73 200.888C335.73 202.589 336.376 203.909 337.666 204.848C338.957 205.787 340.658 206.256 342.77 206.256ZM370.68 214V170.352H380.624L381.504 177.744C382.853 175.163 384.789 173.109 387.312 171.584C389.893 170.059 392.914 169.296 396.376 169.296C401.773 169.296 405.968 170.997 408.96 174.4C411.952 177.803 413.448 182.789 413.448 189.36V214H402.184V190.416C402.184 186.661 401.421 183.787 399.896 181.792C398.37 179.797 395.994 178.8 392.768 178.8C389.6 178.8 386.989 179.915 384.936 182.144C382.941 184.373 381.944 187.483 381.944 191.472V214H370.68ZM436.979 215.056C433.107 215.056 429.704 214.44 426.771 213.208C423.837 211.917 421.491 210.157 419.731 207.928C417.971 205.699 416.915 203.117 416.563 200.184H427.915C428.267 201.885 429.205 203.352 430.731 204.584C432.315 205.757 434.339 206.344 436.803 206.344C439.267 206.344 441.056 205.845 442.171 204.848C443.344 203.851 443.931 202.707 443.931 201.416C443.931 199.539 443.109 198.277 441.467 197.632C439.824 196.928 437.536 196.253 434.603 195.608C432.725 195.197 430.819 194.699 428.883 194.112C426.947 193.525 425.157 192.792 423.515 191.912C421.931 190.973 420.64 189.8 419.643 188.392C418.645 186.925 418.147 185.136 418.147 183.024C418.147 179.152 419.672 175.896 422.723 173.256C425.832 170.616 430.173 169.296 435.747 169.296C440.909 169.296 445.016 170.499 448.067 172.904C451.176 175.309 453.024 178.624 453.611 182.848H442.963C442.317 179.621 439.883 178.008 435.659 178.008C433.547 178.008 431.904 178.419 430.731 179.24C429.616 180.061 429.059 181.088 429.059 182.32C429.059 183.611 429.909 184.637 431.611 185.4C433.312 186.163 435.571 186.867 438.387 187.512C441.437 188.216 444.224 189.008 446.747 189.888C449.328 190.709 451.381 191.971 452.907 193.672C454.432 195.315 455.195 197.691 455.195 200.8C455.253 203.499 454.549 205.933 453.083 208.104C451.616 210.275 449.504 211.976 446.747 213.208C443.989 214.44 440.733 215.056 436.979 215.056Z" fill="#B15A00"/>
</svg>
