<svg xmlns="http://www.w3.org/2000/svg" width="592" height="368" fill="none"><path fill="#ABD5C8" d="M0 0h592v368H0z"/><path fill="#37368D" d="M164.314 208.432c-2.592 0-4.908-.204-6.948-.612-2.016-.432-3.732-1.152-5.148-2.16-1.416-1.008-2.496-2.364-3.24-4.068-.744-1.704-1.116-3.828-1.116-6.372 0-2.424.348-4.452 1.044-6.084.72-1.632 1.764-2.94 3.132-3.924 1.392-1.008 3.108-1.728 5.148-2.16 2.04-.456 4.392-.684 7.056-.684h13.464v-1.62c0-1.92-.348-3.432-1.044-4.536-.672-1.128-1.656-1.944-2.952-2.448s-2.832-.756-4.608-.756c-1.416 0-2.736.228-3.96.684-1.2.432-2.232 1.164-3.096 2.196-.864 1.032-1.476 2.424-1.836 4.176l-11.844-3.276c.504-2.208 1.392-4.068 2.664-5.58a14.477 14.477 0 0 1 4.716-3.672c1.848-.912 3.9-1.572 6.156-1.98a38.224 38.224 0 0 1 7.128-.648c4.536 0 8.352.54 11.448 1.62s5.436 2.832 7.02 5.256c1.584 2.4 2.376 5.592 2.376 9.576V208h-10.08l-1.044-4.896c-.384.648-1.008 1.284-1.872 1.908-.864.624-1.92 1.2-3.168 1.728-1.248.504-2.664.912-4.248 1.224-1.584.312-3.3.468-5.148.468Zm2.736-7.74c1.656 0 3.192-.192 4.608-.576 1.416-.384 2.628-.888 3.636-1.512 1.032-.648 1.776-1.332 2.232-2.052v-7.632h-10.404c-1.056 0-2.016.084-2.88.252-.864.144-1.608.42-2.232.828-.6.408-1.068.996-1.404 1.764-.312.768-.468 1.764-.468 2.988s.168 2.22.504 2.988c.336.768.816 1.368 1.44 1.8.624.408 1.356.708 2.196.9.84.168 1.764.252 2.772.252ZM192.397 208v-42.66h9.324l2.736 7.164V208h-12.06Zm27.792 0v-22.608c0-4.728-.576-7.932-1.728-9.612-1.152-1.68-2.928-2.52-5.328-2.52-2.496 0-4.632 1.02-6.408 3.06-1.752 2.04-2.628 4.692-2.628 7.956l-5.904-2.7c0-3.768 1.8-7.476 5.4-11.124 3.624-3.672 8.328-5.508 14.112-5.508 5.496 0 9.3 1.86 11.412 5.58 2.112 3.72 3.168 8.616 3.168 14.688V208h-12.096Zm23.666 0-12.096-42.66h12.636l8.64 34.704h.072l8.532-34.704h12.672L262.323 208h-18.468Zm-8.964 16.776v-8.208c4.944 0 8.628-.528 11.052-1.584 2.448-1.056 4.176-3.396 5.184-7.02l11.196.036c-1.968 6.888-5.196 11.4-9.684 13.536-4.488 2.16-10.404 3.24-17.748 3.24ZM274.741 208v-56.52h12.096v50.22l-1.044 6.3h-11.052Zm25.632.252c-5.088 0-9.516-1.176-13.284-3.528-3.744-2.352-5.616-4.956-5.616-7.812l5.328-5.328c0 2.4.924 4.404 2.772 6.012 1.872 1.608 4.056 2.412 6.552 2.412 2.712 0 4.8-.888 6.264-2.664 1.488-1.776 2.232-5.352 2.232-10.728 0-5.304-.744-8.856-2.232-10.656-1.464-1.8-3.552-2.7-6.264-2.7-2.496 0-4.68.804-6.552 2.412-1.848 1.608-2.772 3.588-2.772 5.94l-5.328-5.22c0-2.88 1.872-5.508 5.616-7.884 3.768-2.376 8.196-3.564 13.284-3.564 5.784 0 9.972 1.92 12.564 5.76 2.592 3.84 3.888 9.132 3.888 15.876 0 6.72-1.296 12.012-3.888 15.876-2.592 3.864-6.78 5.796-12.564 5.796Zm38.558.072c-7.824 0-13.404-1.884-16.74-5.652-3.312-3.768-4.968-9.156-4.968-16.164 0-7.032 1.656-12.396 4.968-16.092 3.336-3.72 8.916-5.58 16.74-5.58 7.824 0 13.392 1.86 16.704 5.58 3.312 3.696 4.968 9.06 4.968 16.092 0 7.008-1.656 12.396-4.968 16.164-3.312 3.768-8.88 5.652-16.704 5.652Zm0-8.208c2.808 0 5.1-.876 6.876-2.628 1.8-1.776 2.7-5.424 2.7-10.944 0-5.52-.9-9.144-2.7-10.872-1.776-1.752-4.068-2.628-6.876-2.628-2.808 0-5.112.876-6.912 2.628-1.8 1.728-2.7 5.352-2.7 10.872s.9 9.168 2.7 10.944c1.8 1.752 4.104 2.628 6.912 2.628ZM391.883 208l-.828-6.372V151.48h12.096V208h-11.268Zm-14.292.252c-5.784 0-9.984-1.92-12.6-5.76-2.616-3.864-3.924-9.168-3.924-15.912 0-6.768 1.308-12.06 3.924-15.876 2.616-3.84 6.816-5.76 12.6-5.76 5.088 0 9.492 1.188 13.212 3.564 3.744 2.376 5.616 5.004 5.616 7.884l-5.364 5.22c0-2.352-.912-4.332-2.736-5.94-1.824-1.608-3.996-2.412-6.516-2.412-2.688 0-4.776.9-6.264 2.7-1.488 1.776-2.232 5.328-2.232 10.656 0 5.352.744 8.928 2.232 10.728 1.488 1.776 3.576 2.664 6.264 2.664 2.52 0 4.692-.804 6.516-2.412 1.824-1.632 2.736-3.636 2.736-6.012l5.364 5.328c0 2.856-1.872 5.46-5.616 7.812-3.72 2.352-8.124 3.528-13.212 3.528Zm37.632-.252-12.096-42.66h12.636l8.64 34.704h.072l8.532-34.704h12.672L433.691 208h-18.468Zm-8.964 16.776v-8.208c4.944 0 8.628-.528 11.052-1.584 2.448-1.056 4.176-3.396 5.184-7.02l11.196.036c-1.968 6.888-5.196 11.4-9.684 13.536-4.488 2.16-10.404 3.24-17.748 3.24Z"/></svg>