<svg xmlns="http://www.w3.org/2000/svg" width="592" height="368" fill="none"><path fill="#ACCBF6" d="M0 0h592v368H0z"/><path fill="#1C4526" d="M201.652 179.612c-2.592 0-4.932-.276-7.02-.828-2.064-.552-3.84-1.38-5.328-2.484-1.464-1.128-2.616-2.544-3.456-4.248-.816-1.728-1.272-3.744-1.368-6.048h10.8c.216 1.872.96 3.276 2.232 4.212a7.208 7.208 0 0 0 4.32 1.404c1.656 0 3.036-.24 4.14-.72 1.128-.48 1.692-1.416 1.692-2.808 0-1.032-.348-1.812-1.044-2.34-.672-.528-1.656-.972-2.952-1.332-1.272-.36-2.808-.816-4.608-1.368a69.275 69.275 0 0 1-5.076-1.764c-1.584-.648-2.988-1.416-4.212-2.304a9.881 9.881 0 0 1-2.88-3.348c-.672-1.32-1.008-2.928-1.008-4.824 0-2.808.66-5.076 1.98-6.804 1.344-1.752 3.18-3.024 5.508-3.816 2.352-.792 5.052-1.188 8.1-1.188 2.832 0 5.388.372 7.668 1.116 2.28.744 4.164 2.064 5.652 3.96 1.488 1.896 2.436 4.572 2.844 8.028l-10.836-.072c-.264-1.536-.684-2.676-1.26-3.42-.576-.768-1.248-1.272-2.016-1.512a6.84 6.84 0 0 0-2.304-.396c-1.032 0-1.908.132-2.628.396-.696.264-1.224.648-1.584 1.152-.36.504-.54 1.14-.54 1.908 0 .792.288 1.488.864 2.088.6.576 1.524 1.104 2.772 1.584 1.248.48 2.832.996 4.752 1.548 1.584.432 3.18.9 4.788 1.404 1.632.48 3.12 1.116 4.464 1.908a9.113 9.113 0 0 1 3.276 3.204c.84 1.32 1.26 3.06 1.26 5.22 0 4.2-1.536 7.332-4.608 9.396-3.048 2.064-7.176 3.096-12.384 3.096Zm22.4 13.896v-53.784h10.836l.216 6.228v22.68l-.432 3.42.432 6.984v14.472h-11.052Zm22.212-54.54c2.376 0 4.572.756 6.588 2.268 2.016 1.512 3.636 3.756 4.86 6.732 1.248 2.952 1.872 6.612 1.872 10.98 0 4.2-.684 7.836-2.052 10.908-1.344 3.072-3.168 5.448-5.472 7.128-2.304 1.656-4.896 2.484-7.776 2.484-1.752 0-3.276-.336-4.572-1.008-1.296-.672-2.364-1.644-3.204-2.916-.816-1.272-1.404-2.796-1.764-4.572l-1.26-3.312 1.62-2.124a8.15 8.15 0 0 0 1.152 2.484 5.627 5.627 0 0 0 1.872 1.656c.744.384 1.608.576 2.592.576 1.488 0 2.808-.432 3.96-1.296 1.176-.864 2.1-2.136 2.772-3.816.696-1.68 1.044-3.732 1.044-6.156 0-4.008-.66-6.816-1.98-8.424-1.296-1.608-2.928-2.412-4.896-2.412-.96 0-1.908.24-2.844.72a7.795 7.795 0 0 0-2.412 1.908c-.648.792-1.068 1.644-1.26 2.556l-.396-1.584.396-2.664c.552-2.136 1.272-3.948 2.16-5.436.912-1.512 2.088-2.664 3.528-3.456 1.464-.816 3.288-1.224 5.472-1.224Zm38.816 40.608c-3.192 0-5.772-.444-7.74-1.332-1.968-.912-3.396-2.244-4.284-3.996-.888-1.752-1.332-3.876-1.332-6.372v-32.004c0-.912.264-1.68.792-2.304.552-.624 1.296-1.02 2.232-1.188h-13.104v-9.576h20.88l-.072 41.256c0 2.4.396 4.008 1.188 4.824.792.816 2.376 1.224 4.752 1.224 1.08 0 2.46-.096 4.14-.288 1.68-.216 3.252-.54 4.716-.972v9.036c-1.752.528-3.732.936-5.94 1.224-2.208.312-4.284.468-6.228.468Zm28.988-1.656v-23.364c0-2.256.324-3.744.972-4.464.648-.744 1.632-1.224 2.952-1.44l-3.924-2.808V143.9l10.872-4.176-.072 38.196h-10.8ZM302.512 179v-7.848H336.1V179h-33.588Zm-1.224-30.348v-8.928h23.652l-1.62 8.928h-22.032Zm18.252-15.732c-1.968 0-3.648-.648-5.04-1.944-1.368-1.296-2.052-3.048-2.052-5.256 0-2.232.696-3.996 2.088-5.292 1.392-1.32 3.06-1.98 5.004-1.98 1.968 0 3.636.648 5.004 1.944 1.392 1.272 2.088 3.048 2.088 5.328 0 2.208-.708 3.96-2.124 5.256-1.392 1.296-3.048 1.944-4.968 1.944ZM340.932 179v-39.312h9.936l.9 14.832-.432-2.988c.48-4.2 1.644-7.356 3.492-9.468 1.872-2.112 4.512-3.168 7.92-3.168 3.744 0 6.552 1.236 8.424 3.708 1.872 2.448 2.808 5.904 2.808 10.368V179h-11.088v-22.572c0-2.88-.36-4.956-1.08-6.228-.72-1.296-1.908-1.944-3.564-1.944-1.368 0-2.58.408-3.636 1.224-1.032.816-1.896 1.968-2.592 3.456V179h-11.088Zm56.06.54c-3.936 0-7.284-.792-10.044-2.376-2.76-1.584-4.872-3.876-6.336-6.876-1.44-3-2.16-6.624-2.16-10.872 0-4.44.768-8.184 2.304-11.232 1.536-3.048 3.696-5.352 6.48-6.912 2.784-1.56 6.036-2.34 9.756-2.34 5.376 0 9.432 1.596 12.168 4.788 2.76 3.168 4.14 7.656 4.14 13.464 0 .648-.024 1.32-.072 2.016a78.81 78.81 0 0 1-.108 2.196h-23.616c.168 2.208.492 4.02.972 5.436.504 1.392 1.248 2.424 2.232 3.096 1.008.648 2.34.972 3.996.972 1.488 0 2.712-.42 3.672-1.26.96-.84 1.524-1.992 1.692-3.456h10.8c-.192 2.688-.996 5.04-2.412 7.056-1.392 1.992-3.24 3.54-5.544 4.644-2.304 1.104-4.944 1.656-7.92 1.656Zm-7.704-20.736c.192-1.416.672-2.364 1.44-2.844.792-.504 1.8-.756 3.024-.756h8.712c-.024-2.52-.492-4.404-1.404-5.652-.888-1.248-2.376-1.872-4.464-1.872-2.544 0-4.416.876-5.616 2.628-1.176 1.728-1.74 4.56-1.692 8.496Zm-248.073 83.808c-2.592 0-4.932-.276-7.02-.828-2.064-.552-3.84-1.38-5.328-2.484-1.464-1.128-2.616-2.544-3.456-4.248-.816-1.728-1.272-3.744-1.368-6.048h10.8c.216 1.872.96 3.276 2.232 4.212a7.208 7.208 0 0 0 4.32 1.404c1.656 0 3.036-.24 4.14-.72 1.128-.48 1.692-1.416 1.692-2.808 0-1.032-.348-1.812-1.044-2.34-.672-.528-1.656-.972-2.952-1.332-1.272-.36-2.808-.816-4.608-1.368a69.275 69.275 0 0 1-5.076-1.764c-1.584-.648-2.988-1.416-4.212-2.304a9.881 9.881 0 0 1-2.88-3.348c-.672-1.32-1.008-2.928-1.008-4.824 0-2.808.66-5.076 1.98-6.804 1.344-1.752 3.18-3.024 5.508-3.816 2.352-.792 5.052-1.188 8.1-1.188 2.832 0 5.388.372 7.668 1.116 2.28.744 4.164 2.064 5.652 3.96 1.488 1.896 2.436 4.572 2.844 8.028l-10.836-.072c-.264-1.536-.684-2.676-1.26-3.42-.576-.768-1.248-1.272-2.016-1.512a6.84 6.84 0 0 0-2.304-.396c-1.032 0-1.908.132-2.628.396-.696.264-1.224.648-1.584 1.152-.36.504-.54 1.14-.54 1.908 0 .792.288 1.488.864 2.088.6.576 1.524 1.104 2.772 1.584 1.248.48 2.832.996 4.752 1.548 1.584.432 3.18.9 4.788 1.404 1.632.48 3.12 1.116 4.464 1.908a9.113 9.113 0 0 1 3.276 3.204c.84 1.32 1.26 3.06 1.26 5.22 0 4.2-1.536 7.332-4.608 9.396-3.048 2.064-7.176 3.096-12.384 3.096Zm33.307-.18c-3.6 0-6.42-1.02-8.46-3.06-2.04-2.04-3.06-4.788-3.06-8.244 0-3 .888-5.364 2.664-7.092 1.8-1.752 4.8-3.084 9-3.996a60.56 60.56 0 0 1 2.952-.54 50.985 50.985 0 0 1 3.564-.504c1.344-.168 2.856-.324 4.536-.468v-2.016c0-2.136-.384-3.648-1.152-4.536-.768-.912-2.172-1.368-4.212-1.368-1.968 0-3.444.492-4.428 1.476-.984.96-1.416 2.484-1.296 4.572h-10.584c-.264-3.024.204-5.628 1.404-7.812 1.224-2.208 3.108-3.9 5.652-5.076 2.568-1.2 5.736-1.8 9.504-1.8 5.352 0 9.384 1.224 12.096 3.672 2.712 2.424 4.068 5.976 4.068 10.656V242h-11.124l.072-9.18c-.312 2.088-.972 3.852-1.98 5.292a9.875 9.875 0 0 1-3.852 3.24c-1.56.72-3.348 1.08-5.364 1.08Zm4.248-7.416c1.032 0 2.052-.228 3.06-.684 1.008-.48 1.86-1.104 2.556-1.872.72-.768 1.164-1.62 1.332-2.556v-6.192c-.6.12-1.224.24-1.872.36-.648.12-1.248.24-1.8.36a16.31 16.31 0 0 0-1.368.288c-2.064.504-3.648 1.2-4.752 2.088-1.08.888-1.62 2.124-1.62 3.708 0 1.44.432 2.556 1.296 3.348.864.768 1.92 1.152 3.168 1.152ZM202.79 242v-39.312h9.936l.9 14.832-.432-2.988c.48-4.2 1.644-7.356 3.492-9.468 1.872-2.112 4.512-3.168 7.92-3.168 3.744 0 6.552 1.236 8.424 3.708 1.872 2.448 2.808 5.904 2.808 10.368V242H224.75v-22.572c0-2.88-.36-4.956-1.08-6.228-.72-1.296-1.908-1.944-3.564-1.944-1.368 0-2.58.408-3.636 1.224-1.032.816-1.896 1.968-2.592 3.456V242H202.79Zm54.98.612c-2.592 0-4.932-.276-7.02-.828-2.064-.552-3.84-1.38-5.328-2.484-1.464-1.128-2.616-2.544-3.456-4.248-.816-1.728-1.272-3.744-1.368-6.048h10.8c.216 1.872.96 3.276 2.232 4.212a7.208 7.208 0 0 0 4.32 1.404c1.656 0 3.036-.24 4.14-.72 1.128-.48 1.692-1.416 1.692-2.808 0-1.032-.348-1.812-1.044-2.34-.672-.528-1.656-.972-2.952-1.332-1.272-.36-2.808-.816-4.608-1.368a69.275 69.275 0 0 1-5.076-1.764c-1.584-.648-2.988-1.416-4.212-2.304a9.881 9.881 0 0 1-2.88-3.348c-.672-1.32-1.008-2.928-1.008-4.824 0-2.808.66-5.076 1.98-6.804 1.344-1.752 3.18-3.024 5.508-3.816 2.352-.792 5.052-1.188 8.1-1.188 2.832 0 5.388.372 7.668 1.116 2.28.744 4.164 2.064 5.652 3.96 1.488 1.896 2.436 4.572 2.844 8.028l-10.836-.072c-.264-1.536-.684-2.676-1.26-3.42-.576-.768-1.248-1.272-2.016-1.512a6.84 6.84 0 0 0-2.304-.396c-1.032 0-1.908.132-2.628.396-.696.264-1.224.648-1.584 1.152-.36.504-.54 1.14-.54 1.908 0 .792.288 1.488.864 2.088.6.576 1.524 1.104 2.772 1.584 1.248.48 2.832.996 4.752 1.548 1.584.432 3.18.9 4.788 1.404 1.632.48 3.12 1.116 4.464 1.908a9.113 9.113 0 0 1 3.276 3.204c.84 1.32 1.26 3.06 1.26 5.22 0 4.2-1.536 7.332-4.608 9.396-3.048 2.064-7.176 3.096-12.384 3.096Zm57.976-.612v-39.312h8.64l.648 11.592-.216-1.908c.288-3.24 1.296-5.796 3.024-7.668 1.752-1.872 3.804-2.808 6.156-2.808 1.2 0 2.244.3 3.132.9.888.6 1.56 1.584 2.016 2.952.48 1.368.648 3.204.504 5.508l-.18 3.744v27h-7.74v-26.532c0-1.416-.18-2.508-.54-3.276-.36-.768-.984-1.152-1.872-1.152-1.176 0-2.112.432-2.808 1.296-.696.84-1.128 2.04-1.296 3.6V242h-9.468Zm30.204 0v-26.532c0-1.416-.168-2.508-.504-3.276-.312-.768-.912-1.152-1.8-1.152-.984 0-1.86.384-2.628 1.152-.768.744-1.284 1.992-1.548 3.744l-1.512.504 1.332-2.808c.288-3.576 1.296-6.42 3.024-8.532 1.752-2.136 4.044-3.204 6.876-3.204 2.016 0 3.552.804 4.608 2.412 1.08 1.608 1.62 3.84 1.62 6.696V242h-9.468Zm28.016.54c-3.6 0-6.744-.816-9.432-2.448-2.664-1.632-4.74-3.948-6.228-6.948-1.464-3.024-2.196-6.588-2.196-10.692 0-4.296.78-7.968 2.34-11.016 1.584-3.072 3.756-5.424 6.516-7.056 2.784-1.632 5.964-2.448 9.54-2.448 3.648 0 6.804.84 9.468 2.52 2.664 1.656 4.716 3.996 6.156 7.02 1.464 3.024 2.196 6.576 2.196 10.656 0 4.32-.792 8.004-2.376 11.052-1.584 3.024-3.756 5.34-6.516 6.948-2.76 1.608-5.916 2.412-9.468 2.412Zm.324-9.252c1.872 0 3.468-.828 4.788-2.484 1.32-1.656 1.98-4.524 1.98-8.604 0-4.152-.684-7.02-2.052-8.604-1.344-1.608-2.964-2.412-4.86-2.412-1.896 0-3.492.804-4.788 2.412-1.296 1.584-1.944 4.392-1.944 8.424 0 4.2.684 7.128 2.052 8.784 1.392 1.656 3 2.484 4.824 2.484ZM397.05 242v-39.312h9.936l.9 14.832-.432-2.988c.48-4.2 1.644-7.356 3.492-9.468 1.872-2.112 4.512-3.168 7.92-3.168 3.744 0 6.552 1.236 8.424 3.708 1.872 2.448 2.808 5.904 2.808 10.368V242H419.01v-22.572c0-2.88-.36-4.956-1.08-6.228-.72-1.296-1.908-1.944-3.564-1.944-1.368 0-2.58.408-3.636 1.224-1.032.816-1.896 1.968-2.592 3.456V242H397.05Zm54.62.54c-3.6 0-6.744-.816-9.432-2.448-2.664-1.632-4.74-3.948-6.228-6.948-1.464-3.024-2.196-6.588-2.196-10.692 0-4.296.78-7.968 2.34-11.016 1.584-3.072 3.756-5.424 6.516-7.056 2.784-1.632 5.964-2.448 9.54-2.448 3.648 0 6.804.84 9.468 2.52 2.664 1.656 4.716 3.996 6.156 7.02 1.464 3.024 2.196 6.576 2.196 10.656 0 4.32-.792 8.004-2.376 11.052-1.584 3.024-3.756 5.34-6.516 6.948-2.76 1.608-5.916 2.412-9.468 2.412Zm.324-9.252c1.872 0 3.468-.828 4.788-2.484 1.32-1.656 1.98-4.524 1.98-8.604 0-4.152-.684-7.02-2.052-8.604-1.344-1.608-2.964-2.412-4.86-2.412-1.896 0-3.492.804-4.788 2.412-1.296 1.584-1.944 4.392-1.944 8.424 0 4.2.684 7.128 2.052 8.784 1.392 1.656 3 2.484 4.824 2.484Z"/></svg>