<svg xmlns="http://www.w3.org/2000/svg" width="592" height="368" fill="none"><path fill="#D4E394" d="M0 0h592v368H0z"/><path fill="#8D4400" d="m238.289 208 .396-10.824-.308-.66v-13.508l-.088-1.76c0-2.405-.704-4.18-2.112-5.324-1.408-1.144-3.769-1.716-7.084-1.716-2.904 0-5.661.367-8.272 1.1a70.33 70.33 0 0 0-7.392 2.508l1.144-10.428a41.155 41.155 0 0 1 4.62-1.804c1.731-.587 3.638-1.056 5.72-1.408 2.083-.352 4.312-.528 6.688-.528 3.784 0 6.952.44 9.504 1.32 2.552.88 4.591 2.127 6.116 3.74 1.526 1.613 2.626 3.549 3.3 5.808.675 2.229 1.012 4.693 1.012 7.392V208h-13.244Zm-13.772 1.012c-4.312 0-7.582-1.085-9.812-3.256-2.229-2.171-3.344-5.265-3.344-9.284v-1.188c0-4.253 1.306-7.392 3.916-9.416 2.64-2.053 6.82-3.447 12.54-4.18l11.616-1.54.792 8.096-10.296 1.496c-2.082.264-3.549.748-4.4 1.452-.85.704-1.276 1.745-1.276 3.124v.308c0 1.32.426 2.376 1.276 3.168.851.763 2.215 1.144 4.092 1.144 1.643 0 3.051-.249 4.224-.748 1.203-.499 2.186-1.144 2.948-1.936a8.378 8.378 0 0 0 1.716-2.728l1.892 5.456h-2.2c-.469 1.877-1.202 3.579-2.2 5.104-.968 1.525-2.376 2.728-4.224 3.608-1.848.88-4.268 1.32-7.26 1.32ZM282.452 208v-25.432c0-1.584-.206-2.948-.616-4.092-.411-1.173-1.1-2.068-2.068-2.684-.968-.616-2.288-.924-3.96-.924-1.379 0-2.596.249-3.652.748a7.522 7.522 0 0 0-2.684 1.98 8.324 8.324 0 0 0-1.584 2.816l-2.068-6.292h2.288c.469-1.965 1.232-3.725 2.288-5.28 1.085-1.555 2.566-2.787 4.444-3.696 1.877-.939 4.253-1.408 7.128-1.408 3.226 0 5.866.631 7.92 1.892 2.053 1.232 3.564 3.08 4.532 5.544.997 2.464 1.496 5.544 1.496 9.24V208h-13.464Zm-27.808 0v-43.252h13.376l-.44 10.824.528 1.276V208h-13.464Zm66.035 1.1c-7.861 0-13.669-1.745-17.424-5.236-3.754-3.52-5.632-8.639-5.632-15.356v-4.488c0-6.629 1.76-11.704 5.28-15.224 3.52-3.549 8.639-5.324 15.356-5.324 4.518 0 8.272.777 11.264 2.332 3.022 1.525 5.28 3.711 6.776 6.556 1.526 2.845 2.288 6.263 2.288 10.252v1.452c0 1.115-.058 2.259-.176 3.432a33.134 33.134 0 0 1-.396 3.212h-12.144c.118-1.701.191-3.3.22-4.796.03-1.525.044-2.904.044-4.136 0-1.789-.278-3.285-.836-4.488a5.902 5.902 0 0 0-2.596-2.816c-1.144-.645-2.625-.968-4.444-.968-2.698 0-4.678.733-5.94 2.2-1.232 1.437-1.848 3.491-1.848 6.16v3.96l.088 1.452v3.08c0 1.115.176 2.171.528 3.168.382.997 1.027 1.877 1.936 2.64.939.733 2.215 1.32 3.828 1.76 1.643.411 3.726.616 6.248.616 2.67 0 5.236-.249 7.7-.748a46.045 46.045 0 0 0 7.084-2.112l-1.1 10.12c-1.994 1.027-4.356 1.833-7.084 2.42-2.728.587-5.734.88-9.02.88Zm-15.928-18.392v-8.316h30.536v8.316h-30.536ZM368.135 208l-12.76-18.656h-3.52v-7.92h3.52l12.408-16.676h15.444l-16.456 21.472v-2.552L383.843 208h-15.708Zm-27.544 0v-58.124h13.376V208h-13.376Z"/></svg>