<svg width="592" height="368" viewBox="0 0 592 368" fill="none" xmlns="http://www.w3.org/2000/svg">
<rect width="592" height="368" fill="#F9F3F1"/>
<g opacity="0.15">
<path d="M326 143C326 140.791 327.791 139 330 139H454C456.209 139 458 140.791 458 143V277C458 278.105 457.105 279 456 279H328C326.895 279 326 278.105 326 277V143Z" fill="#251B1B" stroke="#251B1B" stroke-width="2"/>
<path d="M195 143C195 140.791 196.791 139 199 139H322C324.209 139 326 140.791 326 143V277C326 278.105 325.105 279 324 279H197C195.895 279 195 278.105 195 277V143Z" fill="#251B1B" stroke="#251B1B" stroke-width="2"/>
<path d="M134 143C134 140.791 135.791 139 138 139H191C193.209 139 195 140.791 195 143V277C195 278.105 194.105 279 193 279H136C134.895 279 134 278.105 134 277V143Z" fill="#251B1B" stroke="#251B1B" stroke-width="2"/>
</g>
<g opacity="0.08">
<path d="M326 175C326 172.791 327.791 171 330 171H454C456.209 171 458 172.791 458 175V309C458 310.105 457.105 311 456 311H328C326.895 311 326 310.105 326 309V175Z" fill="#251B1B" stroke="#251B1B"/>
<path d="M195 175C195 172.791 196.791 171 199 171H322C324.209 171 326 172.791 326 175V309C326 310.105 325.105 311 324 311H197C195.895 311 195 310.105 195 309V175Z" fill="#251B1B" stroke="#251B1B"/>
<path d="M134 175C134 172.791 135.791 171 138 171H191C193.209 171 195 172.791 195 175V309C195 310.105 194.105 311 193 311H136C134.895 311 134 310.105 134 309V175Z" fill="#251B1B" stroke="#251B1B"/>
</g>
<path d="M327 121C327 118.791 328.791 117 331 117H457C459.209 117 461 118.791 461 121V267C461 268.105 460.105 269 459 269H329C327.895 269 327 268.105 327 267V121Z" fill="#092E24" stroke="#092E24" stroke-width="2"/>
<path d="M193 121C193 118.791 194.791 117 197 117H323C325.209 117 327 118.791 327 121V267C327 268.105 326.105 269 325 269H195C193.895 269 193 268.105 193 267V121Z" fill="#092E24" stroke="#092E24" stroke-width="2"/>
<path d="M131 121C131 118.791 132.791 117 135 117H189C191.209 117 193 118.791 193 121V267C193 268.105 192.105 269 191 269H133C131.895 269 131 268.105 131 267V121Z" fill="#092E24" stroke="#092E24" stroke-width="2"/>
<path d="M327 113C327 110.791 328.791 109 331 109H457C459.209 109 461 110.791 461 113V259C461 260.105 460.105 261 459 261H329C327.895 261 327 260.105 327 259V113Z" fill="#1C5344" stroke="#092E24" stroke-width="2"/>
<path d="M193 113C193 110.791 194.791 109 197 109H323C325.209 109 327 110.791 327 113V259C327 260.105 326.105 261 325 261H195C193.895 261 193 260.105 193 259V113Z" fill="#1C5344" stroke="#092E24" stroke-width="2"/>
<path d="M131 113C131 110.791 132.791 109 135 109H189C191.209 109 193 110.791 193 113V259C193 260.105 192.105 261 191 261H133C131.895 261 131 260.105 131 259V113Z" fill="#1C5344" stroke="#092E24" stroke-width="2"/>
<path d="M402.215 173.368C400.007 177.304 396.743 183.064 391.655 189.4C389.543 191.992 386.951 195.928 384.359 199.672H383.015V198.136C383.015 182.2 382.823 172.12 383.399 160.696H332.135C332.519 171.928 332.423 182.584 332.423 195.16C332.423 209.656 332.519 223.288 332.135 235H383.399C383.015 228.088 383.015 221.656 383.015 214.168H384.359C389.735 218.584 394.343 225.592 398.183 231.16C399.719 234.136 401.639 235 406.919 235H457.415C446.471 219.928 447.143 207.352 421.223 204.184C443.015 201.592 449.255 184.408 456.551 173.368H402.215Z" fill="#296655"/>
<path d="M322.104 235C321.528 228.664 321.528 222.424 321.528 214.744C321.528 208.792 321.816 203.992 321.816 195.544C321.816 177.976 308.088 171.256 286.392 171.256C265.56 171.256 254.136 176.728 249.24 188.824L248.568 188.728C248.76 183.256 248.856 179.032 248.856 173.368H198.264C198.552 182.2 198.744 191.032 198.744 203.992C198.744 217.912 198.552 226.072 198.264 235H249.912C249.72 229.816 249.624 224.44 249.624 210.808C249.624 201.976 254.712 199.096 261.048 199.096C267.96 199.096 270.648 201.496 270.648 208.216C270.648 219.256 270.552 228.664 270.168 235H322.104Z" fill="#296655"/>
<path d="M190.147 163.768C190.147 159.736 187.171 158.008 162.211 158.008C137.251 158.008 134.083 159.736 134.083 163.768C134.083 167.8 136.963 170.008 162.211 170.008C187.459 170.008 190.147 167.8 190.147 163.768ZM187.843 235C187.363 225.592 187.267 217.336 187.267 203.992C187.267 191.128 187.171 182.872 187.843 173.368H136.579C136.867 183.064 136.963 191.8 136.963 202.84C136.963 214.552 137.155 225.496 136.579 235H187.843Z" fill="#296655"/>
<path opacity="0.2" fill-rule="evenodd" clip-rule="evenodd" d="M391.655 189.4C396.743 183.064 400.007 177.304 402.215 173.368H456.551C455.918 174.326 455.292 175.331 454.664 176.368H402.215C400.007 180.304 396.743 186.064 391.655 192.4C390.029 194.396 388.118 197.188 386.142 200.076C385.552 200.939 384.955 201.811 384.359 202.672H383.015V201.136C383.015 197.749 383.006 194.627 382.998 191.701C382.989 188.583 382.981 185.686 382.985 182.928C382.987 184.775 382.993 186.692 382.998 188.701C383.006 191.627 383.015 194.749 383.015 198.136V199.672H384.359C384.955 198.811 385.552 197.939 386.142 197.076C388.118 194.188 390.029 191.396 391.655 189.4ZM428.781 205.541C426.488 206.295 423.98 206.856 421.223 207.184C440.853 209.583 445.231 217.378 450.954 227.567C452.28 229.929 453.679 232.419 455.356 235H457.415C454.759 231.342 452.787 227.832 450.954 224.567C446.052 215.841 442.137 208.87 428.781 205.541ZM383.016 217.168H383.015C383.015 223.563 383.015 229.188 383.254 235H383.399C383.067 229.028 383.022 223.414 383.016 217.168ZM332.222 235C332.413 227.543 332.437 219.382 332.433 210.769C332.429 219.435 332.377 227.601 332.135 235H332.222ZM332.423 196.769C332.424 195.114 332.426 193.492 332.428 191.896C332.432 189.443 332.435 187.053 332.433 184.704C332.432 186.083 332.43 187.479 332.428 188.896C332.426 190.937 332.423 193.021 332.423 195.16C332.423 195.698 332.423 196.234 332.423 196.769ZM383.399 160.696C383.348 161.705 383.303 162.703 383.264 163.696H332.227C332.2 162.699 332.169 161.7 332.135 160.696H383.399Z" fill="#76B09F"/>
<path opacity="0.2" fill-rule="evenodd" clip-rule="evenodd" d="M382.985 179.928C382.977 172.921 383.016 166.917 383.264 160.696H383.399C383.076 167.106 382.994 173.093 382.985 179.928ZM332.227 160.696C332.415 167.635 332.438 174.437 332.433 181.704C332.427 174.519 332.375 167.72 332.135 160.696H332.227ZM332.423 193.769C332.423 194.23 332.423 194.694 332.423 195.16C332.423 197.605 332.426 200.026 332.428 202.417C332.43 204.219 332.432 206.003 332.433 207.769C332.435 205.032 332.432 202.245 332.428 199.417C332.426 197.552 332.424 195.668 332.423 193.769ZM332.222 232C332.196 233.013 332.167 234.013 332.135 235H383.399C383.343 233.991 383.295 232.993 383.254 232H332.222ZM383.016 214.168H384.359C389.307 218.232 393.604 224.492 397.25 229.804C397.566 230.264 397.877 230.716 398.183 231.16C399.719 234.136 401.639 235 406.919 235H457.415C456.68 233.988 455.998 232.987 455.356 232H406.919C401.639 232 399.719 231.136 398.183 228.16C397.877 227.716 397.566 227.264 397.25 226.804C393.604 221.492 389.307 215.232 384.359 211.168H383.015C383.015 212.186 383.015 213.185 383.016 214.168ZM428.781 202.541C426.543 201.984 424.04 201.528 421.223 201.184C439.474 199.013 446.817 186.607 453.007 176.147C453.566 175.202 454.116 174.272 454.664 173.368H456.551C455.366 175.162 454.208 177.118 453.007 179.147C447.752 188.027 441.666 198.309 428.781 202.541Z" fill="#092E24"/>
<path opacity="0.2" fill-rule="evenodd" clip-rule="evenodd" d="M271.32 235C271.579 228.853 271.648 220.627 271.648 211.216C271.648 208.713 271.276 206.81 270.451 205.407C270.584 206.245 270.648 207.179 270.648 208.216C270.648 219.256 270.552 228.664 270.168 235H271.32ZM321.033 188.825C317.839 176.235 305.067 171.256 286.392 171.256C266.182 171.256 254.826 176.406 249.696 187.759C249.66 189.031 249.617 190.339 249.568 191.728L250.24 191.824C255.136 179.728 266.56 174.256 287.392 174.256C304.506 174.256 316.662 178.437 321.033 188.825ZM248.847 176.368H199.264C199.552 185.2 199.744 194.032 199.744 206.992C199.744 219.343 199.593 227.159 199.358 235H198.264C198.552 226.072 198.744 217.912 198.744 203.992C198.744 191.032 198.552 182.2 198.264 173.368H248.856C248.856 174.411 248.853 175.406 248.847 176.368Z" fill="#76B09F"/>
<path opacity="0.2" fill-rule="evenodd" clip-rule="evenodd" d="M199.358 173.368C199.593 181.249 199.744 189.496 199.744 200.992C199.744 214.912 199.552 223.072 199.264 232H249.814C249.844 233.043 249.876 234.025 249.912 235H198.264C198.552 226.072 198.744 217.912 198.744 203.992C198.744 191.032 198.552 182.2 198.264 173.368H199.358ZM321.872 232C321.937 233.002 322.013 234 322.104 235H270.168C270.552 228.664 270.648 219.256 270.648 208.216C270.648 201.496 267.96 199.096 261.048 199.096C256.65 199.096 252.854 200.484 250.943 204.286C252.149 198.191 256.645 196.096 262.048 196.096C268.96 196.096 271.648 198.496 271.648 205.216C271.648 216.256 271.552 225.664 271.168 232H321.872Z" fill="#092E24"/>
<path opacity="0.3" fill-rule="evenodd" clip-rule="evenodd" d="M162.211 158.008C187.171 158.008 190.147 159.736 190.147 163.768C190.147 164.312 190.098 164.824 189.951 165.301C188.99 162.313 183.901 161.008 162.211 161.008C140.523 161.008 135.288 162.313 134.288 165.3C134.136 164.823 134.083 164.312 134.083 163.768C134.083 159.736 137.251 158.008 162.211 158.008ZM187.267 203.992C187.267 217.336 187.363 225.592 187.843 235H187.701C187.344 226.759 187.267 218.902 187.267 206.992C187.267 205.51 187.266 204.089 187.265 202.721C187.263 200.952 187.262 199.27 187.263 197.657C187.263 198.332 187.264 199.019 187.265 199.721C187.266 201.089 187.267 202.51 187.267 203.992ZM187.654 176.368C187.709 175.377 187.772 174.38 187.843 173.368H136.579C136.609 174.377 136.637 175.376 136.663 176.368H187.654ZM136.993 217.919C137.001 223.946 136.967 229.675 136.735 235H136.579C136.9 229.713 136.982 223.981 136.993 217.919Z" fill="#76B09F"/>
<path opacity="0.3" fill-rule="evenodd" clip-rule="evenodd" d="M134.288 162.3C135.268 165.356 140.371 167.008 162.211 167.008C184.05 167.008 189.01 165.356 189.951 162.301C190.096 162.751 190.147 163.24 190.147 163.768C190.147 167.8 187.459 170.008 162.211 170.008C136.963 170.008 134.083 167.8 134.083 163.768C134.083 163.239 134.138 162.751 134.288 162.3ZM187.263 194.657C187.27 186.68 187.349 180.362 187.843 173.368H187.654C187.281 180.061 187.258 186.431 187.263 194.657ZM136.663 173.368H136.579C136.867 183.064 136.963 191.8 136.963 202.84C136.963 205.22 136.971 207.568 136.979 209.878C136.985 211.58 136.99 213.261 136.993 214.919C136.997 212.298 136.988 209.614 136.979 206.878C136.971 204.568 136.963 202.22 136.963 199.84C136.963 189.949 136.886 181.907 136.663 173.368ZM187.701 232H136.735C136.69 233.015 136.639 234.015 136.579 235H187.843C187.792 233.989 187.744 232.992 187.701 232Z" fill="#092E24"/>
<path d="M187.843 235V236H188.895L188.842 234.949L187.843 235ZM187.843 173.368L188.841 173.439L188.916 172.368H187.843V173.368ZM136.579 173.368V172.368H135.549L135.58 173.398L136.579 173.368ZM136.579 235L135.581 234.94L135.517 236H136.579V235ZM191.147 163.768C191.147 162.635 190.936 161.479 190.029 160.491C189.16 159.544 187.776 158.889 185.775 158.404C181.775 157.435 174.671 157.008 162.211 157.008V159.008C174.712 159.008 181.575 159.445 185.304 160.348C187.166 160.799 188.086 161.332 188.555 161.843C188.986 162.313 189.147 162.885 189.147 163.768H191.147ZM162.211 157.008C149.75 157.008 142.6 157.435 138.554 158.403C136.531 158.888 135.127 159.541 134.24 160.481C133.312 161.466 133.083 162.623 133.083 163.768H135.083C135.083 162.897 135.25 162.326 135.696 161.853C136.184 161.335 137.131 160.8 139.02 160.349C142.798 159.445 149.712 159.008 162.211 159.008V157.008ZM133.083 163.768C133.083 164.897 133.286 166.067 134.169 167.095C135.023 168.09 136.397 168.815 138.416 169.365C142.44 170.461 149.602 171.008 162.211 171.008V169.008C149.572 169.008 142.67 168.451 138.942 167.435C137.085 166.929 136.161 166.346 135.686 165.793C135.24 165.273 135.083 164.655 135.083 163.768H133.083ZM162.211 171.008C174.819 171.008 181.935 170.461 185.913 169.364C187.91 168.813 189.264 168.086 190.1 167.085C190.961 166.054 191.147 164.886 191.147 163.768H189.147C189.147 164.666 188.997 165.286 188.565 165.803C188.108 166.35 187.212 166.931 185.381 167.436C181.703 168.451 174.851 169.008 162.211 169.008V171.008ZM188.842 234.949C188.363 225.567 188.267 217.332 188.267 203.992H186.267C186.267 217.34 186.363 225.617 186.844 235.051L188.842 234.949ZM188.267 203.992C188.267 191.111 188.172 182.898 188.841 173.439L186.846 173.297C186.17 182.846 186.267 191.145 186.267 203.992H188.267ZM187.843 172.368H136.579V174.368H187.843V172.368ZM135.58 173.398C135.867 183.081 135.963 191.807 135.963 202.84H137.963C137.963 191.793 137.867 183.047 137.579 173.338L135.58 173.398ZM135.963 202.84C135.963 214.581 136.155 225.475 135.581 234.94L137.577 235.061C138.156 225.517 137.963 214.523 137.963 202.84H135.963ZM136.579 236H187.843V234H136.579V236ZM322.104 235V236H323.199L323.1 234.909L322.104 235ZM249.24 188.824L249.099 189.814L249.874 189.925L250.167 189.199L249.24 188.824ZM248.568 188.728L247.569 188.693L247.537 189.591L248.427 189.718L248.568 188.728ZM248.856 173.368H249.856V172.368H248.856V173.368ZM198.264 173.368V172.368H197.231L197.265 173.401L198.264 173.368ZM198.264 235L197.265 234.968L197.232 236H198.264V235ZM249.912 235V236H250.95L250.912 234.963L249.912 235ZM270.168 235L269.17 234.94L269.106 236H270.168V235ZM323.1 234.909C322.529 228.627 322.528 222.433 322.528 214.744H320.528C320.528 222.415 320.528 228.701 321.108 235.091L323.1 234.909ZM322.528 214.744C322.528 211.783 322.6 209.108 322.672 206.104C322.744 203.102 322.816 199.78 322.816 195.544H320.816C320.816 199.756 320.745 203.058 320.673 206.056C320.601 209.052 320.528 211.753 320.528 214.744H322.528ZM322.816 195.544C322.816 186.449 319.235 180.042 312.774 175.966C306.393 171.941 297.31 170.256 286.392 170.256V172.256C297.17 172.256 305.8 173.931 311.707 177.658C317.534 181.334 320.816 187.071 320.816 195.544H322.816ZM286.392 170.256C275.906 170.256 267.674 171.631 261.412 174.6C255.112 177.588 250.855 182.17 248.313 188.449L250.167 189.199C252.522 183.382 256.425 179.18 262.269 176.408C268.151 173.617 276.047 172.256 286.392 172.256V170.256ZM249.382 187.834L248.71 187.738L248.427 189.718L249.099 189.814L249.382 187.834ZM249.568 188.763C249.76 183.282 249.856 179.046 249.856 173.368H247.856C247.856 179.018 247.761 183.23 247.569 188.693L249.568 188.763ZM248.856 172.368H198.264V174.368H248.856V172.368ZM197.265 173.401C197.553 182.223 197.744 191.044 197.744 203.992H199.744C199.744 191.02 199.552 182.177 199.264 173.335L197.265 173.401ZM197.744 203.992C197.744 217.9 197.553 226.049 197.265 234.968L199.264 235.032C199.552 226.095 199.744 217.924 199.744 203.992H197.744ZM198.264 236H249.912V234H198.264V236ZM250.912 234.963C250.72 229.798 250.624 224.436 250.624 210.808H248.624C248.624 224.444 248.72 229.834 248.913 235.037L250.912 234.963ZM250.624 210.808C250.624 206.586 251.834 203.97 253.623 202.389C255.434 200.788 258.012 200.096 261.048 200.096V198.096C257.749 198.096 254.615 198.844 252.298 200.891C249.958 202.958 248.624 206.198 248.624 210.808H250.624ZM261.048 200.096C264.436 200.096 266.507 200.694 267.756 201.866C268.989 203.021 269.648 204.952 269.648 208.216H271.648C271.648 204.76 270.964 202.131 269.124 200.406C267.302 198.698 264.573 198.096 261.048 198.096V200.096ZM269.648 208.216C269.648 219.26 269.552 228.638 269.17 234.94L271.167 235.061C271.553 228.69 271.648 219.253 271.648 208.216H269.648ZM270.168 236H322.104V234H270.168V236ZM402.215 173.368V172.368H401.629L401.343 172.879L402.215 173.368ZM391.655 189.4L392.43 190.032L392.435 190.026L391.655 189.4ZM384.359 199.672V200.672H384.883L385.181 200.241L384.359 199.672ZM383.015 199.672H382.015V200.672H383.015V199.672ZM383.399 160.696L384.398 160.746L384.451 159.696H383.399V160.696ZM332.135 160.696V159.696H331.1L331.135 160.73L332.135 160.696ZM332.135 235L331.135 234.967L331.102 236H332.135V235ZM383.399 235V236H384.456L384.397 234.945L383.399 235ZM383.015 214.168V213.168H382.015V214.168H383.015ZM384.359 214.168L384.994 213.395L384.717 213.168H384.359V214.168ZM398.183 231.16L399.072 230.701L399.042 230.645L399.006 230.592L398.183 231.16ZM457.415 235V236H459.377L458.224 234.412L457.415 235ZM421.223 204.184L421.105 203.191L421.102 205.177L421.223 204.184ZM456.551 173.368L457.385 173.919L458.41 172.368H456.551V173.368ZM401.343 172.879C399.14 176.806 395.909 182.506 390.875 188.774L392.435 190.026C397.577 183.622 400.874 177.802 403.087 173.857L401.343 172.879ZM390.88 188.768C388.735 191.401 386.103 195.396 383.537 199.103L385.181 200.241C387.799 196.46 390.351 192.583 392.43 190.032L390.88 188.768ZM384.359 198.672H383.015V200.672H384.359V198.672ZM384.015 199.672V198.136H382.015V199.672H384.015ZM384.015 198.136C384.015 182.177 383.823 172.137 384.398 160.746L382.4 160.646C381.822 172.103 382.015 182.223 382.015 198.136H384.015ZM383.399 159.696H332.135V161.696H383.399V159.696ZM331.135 160.73C331.519 171.94 331.423 182.572 331.423 195.16H333.423C333.423 182.596 333.519 171.916 333.134 160.662L331.135 160.73ZM331.423 195.16C331.423 209.669 331.519 223.277 331.135 234.967L333.134 235.033C333.519 223.299 333.423 209.643 333.423 195.16H331.423ZM332.135 236H383.399V234H332.135V236ZM384.397 234.945C384.015 228.065 384.015 221.66 384.015 214.168H382.015C382.015 221.652 382.015 228.111 382.4 235.055L384.397 234.945ZM383.015 215.168H384.359V213.168H383.015V215.168ZM383.724 214.941C388.965 219.246 393.484 226.108 397.36 231.728L399.006 230.592C395.202 225.076 390.505 217.922 384.994 213.395L383.724 214.941ZM397.294 231.619C398.131 233.24 399.14 234.403 400.743 235.111C402.278 235.789 404.258 236 406.919 236V234C404.3 234 402.68 233.779 401.551 233.281C400.49 232.813 399.771 232.056 399.072 230.701L397.294 231.619ZM406.919 236H457.415V234H406.919V236ZM458.224 234.412C455.527 230.699 453.544 227.137 451.66 223.782C449.785 220.445 447.993 217.285 445.709 214.495C441.068 208.826 434.495 204.799 421.344 203.191L421.102 205.177C433.871 206.737 439.921 210.582 444.161 215.761C446.317 218.395 448.029 221.403 449.916 224.762C451.793 228.103 453.83 231.765 456.606 235.588L458.224 234.412ZM421.341 205.177C443.718 202.515 450.25 184.715 457.385 173.919L455.717 172.817C448.259 184.101 442.312 200.669 421.105 203.191L421.341 205.177ZM456.551 172.368H402.215V174.368H456.551V172.368Z" fill="#092E24"/>
<path opacity="0.5" d="M131 252L138.5 256.5L145.5 258L179.5 256.5L193 253V260H131V252Z" fill="#092E24"/>
<path opacity="0.5" d="M193 252L209.21 256.5L224.339 258L253 254.5H268.5L283 252L305 254.5L327 252V260H193V252Z" fill="#092E24"/>
<path opacity="0.5" d="M327 252L343.21 256.5L358.339 258L431.823 256.5L461 253V260H327V252Z" fill="#092E24"/>
<path opacity="0.2" d="M131 118L138.5 113.5L145.5 112L179.5 113.5L193 117V110H131V118Z" fill="#76B09F"/>
<path opacity="0.2" d="M193 122L210 117L232 113.5L274 115L312.411 116.5L327 119.5V110H193V122Z" fill="#76B09F"/>
<path opacity="0.2" d="M327 118L343.21 113.5L358.339 112L431.823 113.5L461 117V110H327V118Z" fill="#76B09F"/>
<g opacity="0.2">
<path d="M345 169L322 169C315.373 169 310 163.633 310 157.006C310 130.011 310 95.9887 310 68.994C310 62.3666 304.627 57 298 57L261 57C254.373 57 249 62.3726 249 69L249 123.5" stroke="#251B1B" stroke-width="6" stroke-linecap="round" stroke-linejoin="round"/>
<rect x="228" y="261" width="8" height="42" rx="2" transform="rotate(-90 228 261)" fill="#092E24" stroke="#092E24" stroke-width="2" stroke-linecap="round" stroke-linejoin="round"/>
<rect x="228" y="85" width="8" height="42" rx="2" transform="rotate(-90 228 85)" fill="#092E24" stroke="#092E24" stroke-width="2" stroke-linecap="round" stroke-linejoin="round"/>
<rect x="217" y="257" width="176" height="64" rx="8" transform="rotate(-90 217 257)" fill="#092E24"/>
<path opacity="0.2" fill-rule="evenodd" clip-rule="evenodd" d="M217 249C217 253.418 220.582 257 225 257L273 257C277.418 257 281 253.418 281 249L281 89C281 84.5817 277.418 81 273 81L225 81C220.582 81 217 84.5817 217 89L217 249ZM229 248C229 252.418 232.582 256 237 256L261 256C265.418 256 269 252.418 269 248L269 90C269 85.5817 265.418 82 261 82L237 82C232.582 82 229 85.5817 229 90L229 248Z" fill="#092E24"/>
<rect x="217" y="257" width="176" height="64" rx="8" transform="rotate(-90 217 257)" stroke="#092E24" stroke-width="2" stroke-linecap="round" stroke-linejoin="round"/>
<rect x="346" y="190" width="42" height="128" rx="8" transform="rotate(-90 346 190)" fill="#092E24"/>
<path opacity="0.2" fill-rule="evenodd" clip-rule="evenodd" d="M346 182C346 186.418 349.582 190 354 190L466 190C470.418 190 474 186.418 474 182L474 174C474 178.418 470.418 182 466 182L354 182C349.582 182 346 178.418 346 174L346 182ZM346 164C346 159.582 349.582 156 354 156L466 156C470.418 156 474 159.582 474 164L474 156C474 151.582 470.418 148 466 148L354 148C349.582 148 346 151.582 346 156L346 164Z" fill="#092E24"/>
<rect x="346" y="190" width="42" height="128" rx="8" transform="rotate(-90 346 190)" stroke="#092E24" stroke-width="2" stroke-linecap="round" stroke-linejoin="round"/>
<rect x="362" y="190" width="42" height="96" transform="rotate(-90 362 190)" fill="#092E24"/>
<path opacity="0.2" fill-rule="evenodd" clip-rule="evenodd" d="M362 182L362 190L458 190L458 182L362 182ZM362 156L458 156L458 148L362 148L362 156Z" fill="#092E24"/>
<rect x="362" y="190" width="42" height="96" transform="rotate(-90 362 190)" stroke="#092E24" stroke-width="2" stroke-linecap="round" stroke-linejoin="round"/>
</g>
<path d="M345 156L322 156C315.373 156 310 150.633 310 144.006C310 117.011 310 82.9887 310 55.994C310 49.3666 304.627 44 298 44L261 44C254.373 44 249 49.3726 249 56L249 110.5" stroke="#092E24" stroke-width="6" stroke-linecap="round" stroke-linejoin="round"/>
<rect x="228" y="248" width="8" height="42" rx="2" transform="rotate(-90 228 248)" fill="#FAEFE8" stroke="#092E24" stroke-width="2" stroke-linecap="round" stroke-linejoin="round"/>
<rect x="228" y="72" width="8" height="42" rx="2" transform="rotate(-90 228 72)" fill="#FAEFE8" stroke="#092E24" stroke-width="2" stroke-linecap="round" stroke-linejoin="round"/>
<rect x="217" y="244" width="176" height="64" rx="8" transform="rotate(-90 217 244)" fill="#F6AC87"/>
<path opacity="0.2" fill-rule="evenodd" clip-rule="evenodd" d="M217 236C217 240.418 220.582 244 225 244L273 244C277.418 244 281 240.418 281 236L281 76C281 71.5817 277.418 68 273 68L225 68C220.582 68 217 71.5817 217 76L217 236ZM229 235C229 239.418 232.582 243 237 243L261 243C265.418 243 269 239.418 269 235L269 77C269 72.5817 265.418 69 261 69L237 69C232.582 69 229 72.5817 229 77L229 235Z" fill="#BE270F"/>
<rect x="217" y="244" width="176" height="64" rx="8" transform="rotate(-90 217 244)" stroke="#092E24" stroke-width="2" stroke-linecap="round" stroke-linejoin="round"/>
<rect x="346" y="177" width="42" height="128" rx="8" transform="rotate(-90 346 177)" fill="#4A8B79"/>
<path opacity="0.2" fill-rule="evenodd" clip-rule="evenodd" d="M346 169C346 173.418 349.582 177 354 177L466 177C470.418 177 474 173.418 474 169L474 161C474 165.418 470.418 169 466 169L354 169C349.582 169 346 165.418 346 161L346 169ZM346 151C346 146.582 349.582 143 354 143L466 143C470.418 143 474 146.582 474 151L474 143C474 138.582 470.418 135 466 135L354 135C349.582 135 346 138.582 346 143L346 151Z" fill="#114034"/>
<rect x="346" y="177" width="42" height="128" rx="8" transform="rotate(-90 346 177)" stroke="#092E24" stroke-width="2" stroke-linecap="round" stroke-linejoin="round"/>
<rect x="362" y="177" width="42" height="96" transform="rotate(-90 362 177)" fill="#114034"/>
<path opacity="0.6" fill-rule="evenodd" clip-rule="evenodd" d="M362 169L362 177L458 177L458 169L362 169ZM362 143L458 143L458 135L362 135L362 143Z" fill="#092E24"/>
<rect x="362" y="177" width="42" height="96" transform="rotate(-90 362 177)" stroke="#092E24" stroke-width="2" stroke-linecap="round" stroke-linejoin="round"/>
</svg>
