<svg xmlns="http://www.w3.org/2000/svg" width="592" height="368" fill="none"><path fill="#F8E58E" d="M0 0h592v368H0z"/><path fill="#1C5344" d="M147.387 210.612c-3.384 0-6.3-.492-8.748-1.476-2.424-.984-4.308-2.472-5.652-4.464-1.344-2.016-2.088-4.572-2.232-7.668h10.908c.216 1.92.828 3.336 1.836 4.248 1.032.912 2.412 1.368 4.14 1.368.864 0 1.692-.096 2.484-.288.792-.216 1.44-.576 1.944-1.08.504-.528.756-1.248.756-2.16 0-.744-.192-1.344-.576-1.8-.36-.48-.9-.876-1.62-1.188-.696-.336-1.548-.636-2.556-.9a242.03 242.03 0 0 1-3.42-1.008 41.35 41.35 0 0 1-6.336-2.448c-1.944-.96-3.516-2.244-4.716-3.852-1.2-1.608-1.8-3.72-1.8-6.336 0-3.912 1.428-6.816 4.284-8.712 2.88-1.896 6.648-2.844 11.304-2.844 2.736 0 5.196.372 7.38 1.116 2.184.744 3.984 2.064 5.4 3.96 1.44 1.896 2.364 4.572 2.772 8.028l-10.836-.072c-.216-1.536-.588-2.676-1.116-3.42-.528-.768-1.128-1.272-1.8-1.512a5.661 5.661 0 0 0-2.088-.396c-.816 0-1.56.132-2.232.396-.648.264-1.164.648-1.548 1.152-.384.504-.576 1.14-.576 1.908 0 .912.288 1.692.864 2.34.576.648 1.452 1.224 2.628 1.728 1.176.48 2.676.972 4.5 1.476 1.2.312 2.544.696 4.032 1.152a19.258 19.258 0 0 1 4.32 1.908 10.027 10.027 0 0 1 3.42 3.312c.912 1.392 1.368 3.192 1.368 5.4 0 3.84-1.476 6.828-4.428 8.964-2.952 2.112-6.972 3.168-12.06 3.168Zm40.147-.144c-1.944 0-3.648-.336-5.112-1.008-1.44-.672-2.604-1.572-3.492-2.7-.888-1.128-1.476-2.364-1.764-3.708h-4.392l4.86-6.048c.24.912.636 1.704 1.188 2.376.576.648 1.308 1.152 2.196 1.512.888.336 1.932.504 3.132.504 2.4 0 4.248-.924 5.544-2.772 1.32-1.848 1.98-4.692 1.98-8.532 0-3.624-.636-6.336-1.908-8.136-1.272-1.824-3.12-2.736-5.544-2.736-1.176 0-2.244.168-3.204.504-.936.312-1.704.708-2.304 1.188-.6.48-.96.984-1.08 1.512v-2.916c.336-1.44.78-2.748 1.332-3.924.576-1.176 1.296-2.172 2.16-2.988a9.006 9.006 0 0 1 3.06-1.944c1.2-.456 2.58-.684 4.14-.684 3.048 0 5.652.828 7.812 2.484 2.16 1.656 3.816 3.996 4.968 7.02 1.176 3 1.764 6.54 1.764 10.62 0 3.24-.372 6.12-1.116 8.64-.744 2.52-1.8 4.656-3.168 6.408-1.344 1.728-2.952 3.048-4.824 3.96-1.872.912-3.948 1.368-6.228 1.368Zm-21.06 14.04v-53.784h10.944l.216 6.228v22.68l-.468 3.42.468 6.984v14.472h-11.16ZM205.82 210v-56.232h11.232V210H205.82Zm16.206 0v-39.312h11.16V210h-11.16Zm5.616-43.776c-1.872 0-3.468-.648-4.788-1.944-1.32-1.32-1.98-3-1.98-5.04s.66-3.696 1.98-4.968c1.32-1.296 2.916-1.944 4.788-1.944 1.848 0 3.432.648 4.752 1.944 1.32 1.272 1.98 2.928 1.98 4.968s-.66 3.72-1.98 5.04c-1.32 1.296-2.904 1.944-4.752 1.944ZM238.064 210v-39.312h10.008l.936 14.832-.432-2.988c.288-2.16.852-4.2 1.692-6.12.84-1.944 2.088-3.516 3.744-4.716 1.68-1.2 3.9-1.8 6.66-1.8 3.576 0 6.444 1.164 8.604 3.492 2.184 2.304 3.276 5.832 3.276 10.584V210h-11.196v-21.852c0-2.496-.216-4.392-.648-5.688-.432-1.32-1.044-2.22-1.836-2.7s-1.728-.72-2.808-.72a6.154 6.154 0 0 0-4.068 1.476 9.765 9.765 0 0 0-2.7 3.42V210h-11.232Zm55.791.54c-3.984 0-7.38-.792-10.188-2.376-2.808-1.584-4.956-3.876-6.444-6.876-1.488-3.024-2.232-6.672-2.232-10.944 0-4.416.792-8.136 2.376-11.16 1.584-3.048 3.816-5.352 6.696-6.912 2.88-1.56 6.252-2.34 10.116-2.34 3.744 0 6.888.708 9.432 2.124 2.568 1.416 4.512 3.504 5.832 6.264 1.32 2.76 1.98 6.156 1.98 10.188 0 .504-.024 1.092-.072 1.764-.024.648-.06 1.392-.108 2.232h-25.272c.264 3.264 1.056 5.652 2.376 7.164 1.32 1.488 3.168 2.232 5.544 2.232 1.968 0 3.456-.432 4.464-1.296 1.032-.864 1.644-2.004 1.836-3.42h10.728c-.216 2.712-1.044 5.076-2.484 7.092-1.416 1.992-3.36 3.54-5.832 4.644-2.472 1.08-5.388 1.62-8.748 1.62Zm-3.312-24.336h10.116c-.096-2.52-.708-4.404-1.836-5.652-1.104-1.248-2.808-1.872-5.112-1.872-2.712 0-4.692.972-5.94 2.916-1.248 1.92-1.884 4.656-1.908 8.208.192-1.368.66-2.304 1.404-2.808.744-.528 1.836-.792 3.276-.792Zm44.854 24.408c-3.384 0-6.3-.492-8.748-1.476-2.424-.984-4.308-2.472-5.652-4.464-1.344-2.016-2.088-4.572-2.232-7.668h10.908c.216 1.92.828 3.336 1.836 4.248 1.032.912 2.412 1.368 4.14 1.368.864 0 1.692-.096 2.484-.288.792-.216 1.44-.576 1.944-1.08.504-.528.756-1.248.756-2.16 0-.744-.192-1.344-.576-1.8-.36-.48-.9-.876-1.62-1.188-.696-.336-1.548-.636-2.556-.9a242.03 242.03 0 0 1-3.42-1.008 41.35 41.35 0 0 1-6.336-2.448c-1.944-.96-3.516-2.244-4.716-3.852-1.2-1.608-1.8-3.72-1.8-6.336 0-3.912 1.428-6.816 4.284-8.712 2.88-1.896 6.648-2.844 11.304-2.844 2.736 0 5.196.372 7.38 1.116 2.184.744 3.984 2.064 5.4 3.96 1.44 1.896 2.364 4.572 2.772 8.028l-10.836-.072c-.216-1.536-.588-2.676-1.116-3.42-.528-.768-1.128-1.272-1.8-1.512a5.661 5.661 0 0 0-2.088-.396c-.816 0-1.56.132-2.232.396-.648.264-1.164.648-1.548 1.152-.384.504-.576 1.14-.576 1.908 0 .912.288 1.692.864 2.34.576.648 1.452 1.224 2.628 1.728 1.176.48 2.676.972 4.5 1.476 1.2.312 2.544.696 4.032 1.152a19.258 19.258 0 0 1 4.32 1.908 10.027 10.027 0 0 1 3.42 3.312c.912 1.392 1.368 3.192 1.368 5.4 0 3.84-1.476 6.828-4.428 8.964-2.952 2.112-6.972 3.168-12.06 3.168Zm28.984-.18c-2.232 0-4.26-.42-6.084-1.26-1.8-.84-3.228-2.076-4.284-3.708-1.056-1.632-1.584-3.636-1.584-6.012 0-2.376.48-4.332 1.44-5.868.984-1.536 2.316-2.736 3.996-3.6 1.68-.888 3.576-1.548 5.688-1.98a61.05 61.05 0 0 1 4.356-.72c1.512-.192 2.928-.348 4.248-.468 1.344-.12 2.484-.216 3.42-.288v-1.08c0-2.496-.42-4.248-1.26-5.256-.816-1.008-2.256-1.512-4.32-1.512-1.32 0-2.436.18-3.348.54-.888.36-1.56 1.008-2.016 1.944-.432.936-.636 2.268-.612 3.996h-10.584c-.288-3.456.252-6.3 1.62-8.532 1.368-2.256 3.372-3.924 6.012-5.004 2.64-1.104 5.736-1.656 9.288-1.656 2.064 0 4.068.228 6.012.684 1.944.432 3.684 1.188 5.22 2.268 1.536 1.056 2.748 2.508 3.636 4.356.912 1.848 1.368 4.188 1.368 7.02V210h-11.088l.072-9.18c-.432 2.64-1.512 4.908-3.24 6.804-1.704 1.872-4.356 2.808-7.956 2.808Zm3.708-7.416a8.756 8.756 0 0 0 3.348-.648c1.08-.456 1.992-1.068 2.736-1.836.744-.792 1.212-1.668 1.404-2.628v-6.192c-.96.144-1.932.3-2.916.468-.984.168-1.848.348-2.592.54-2.4.528-4.044 1.26-4.932 2.196-.888.912-1.332 2.112-1.332 3.6 0 .936.156 1.74.468 2.412a3.54 3.54 0 0 0 1.476 1.548c.648.36 1.428.54 2.34.54ZM391.261 210v-39.312h10.008l.936 14.832-.432-2.988c.288-2.16.852-4.2 1.692-6.12.84-1.944 2.088-3.516 3.744-4.716 1.68-1.2 3.9-1.8 6.66-1.8 3.576 0 6.444 1.164 8.604 3.492 2.184 2.304 3.276 5.832 3.276 10.584V210h-11.196v-21.852c0-2.496-.216-4.392-.648-5.688-.432-1.32-1.044-2.22-1.836-2.7s-1.728-.72-2.808-.72a6.154 6.154 0 0 0-4.068 1.476 9.765 9.765 0 0 0-2.7 3.42V210h-11.232Zm53.168.612c-3.384 0-6.3-.492-8.748-1.476-2.424-.984-4.308-2.472-5.652-4.464-1.344-2.016-2.088-4.572-2.232-7.668h10.908c.216 1.92.828 3.336 1.836 4.248 1.032.912 2.412 1.368 4.14 1.368.864 0 1.692-.096 2.484-.288.792-.216 1.44-.576 1.944-1.08.504-.528.756-1.248.756-2.16 0-.744-.192-1.344-.576-1.8-.36-.48-.9-.876-1.62-1.188-.696-.336-1.548-.636-2.556-.9a242.03 242.03 0 0 1-3.42-1.008 41.35 41.35 0 0 1-6.336-2.448c-1.944-.96-3.516-2.244-4.716-3.852-1.2-1.608-1.8-3.72-1.8-6.336 0-3.912 1.428-6.816 4.284-8.712 2.88-1.896 6.648-2.844 11.304-2.844 2.736 0 5.196.372 7.38 1.116 2.184.744 3.984 2.064 5.4 3.96 1.44 1.896 2.364 4.572 2.772 8.028l-10.836-.072c-.216-1.536-.588-2.676-1.116-3.42-.528-.768-1.128-1.272-1.8-1.512a5.661 5.661 0 0 0-2.088-.396c-.816 0-1.56.132-2.232.396-.648.264-1.164.648-1.548 1.152-.384.504-.576 1.14-.576 1.908 0 .912.288 1.692.864 2.34.576.648 1.452 1.224 2.628 1.728 1.176.48 2.676.972 4.5 1.476 1.2.312 2.544.696 4.032 1.152a19.258 19.258 0 0 1 4.32 1.908 10.027 10.027 0 0 1 3.42 3.312c.912 1.392 1.368 3.192 1.368 5.4 0 3.84-1.476 6.828-4.428 8.964-2.952 2.112-6.972 3.168-12.06 3.168Z"/></svg>