<svg xmlns="http://www.w3.org/2000/svg" width="384" height="240" fill="none"><g clip-path="url(#a)"><g clip-path="url(#b)"><path fill="#FCF9F8" d="M32 40a8 8 0 0 1 8-8h544v392H32V40Z"/><g clip-path="url(#c)"><path fill="#F1F4F9" d="M32 32h765v32H32V32Z"/><circle cx="53" cy="48" r="5" fill="#EE7244"/><circle cx="66" cy="48" r="5" fill="#F4D340"/><circle cx="79" cy="48" r="5" fill="#7EB52F"/><path stroke="#D9DFE8" stroke-width="2" d="m92 64 12-32"/><path fill="#fff" stroke="#8C94A2" stroke-linecap="round" stroke-linejoin="round" stroke-miterlimit="10" stroke-width="2" d="M126 42.5a.5.5 0 0 1 .5-.5h8.889a.5.5 0 0 1 .5.5v2.645c0 .383.424.642.793.544.922-.245 2.318-.2 2.318 2.311 0 2.512-1.396 2.556-2.318 2.311-.369-.098-.793.161-.793.544V53.5a.5.5 0 0 1-.5.5H126.5a.5.5 0 0 1-.5-.5v-2.732c0-.362.379-.618.734-.55.92.177 2.377.092 2.377-2.218s-1.457-2.395-2.377-2.218c-.355.068-.734-.188-.734-.55V42.5Z"/><path stroke="#8C94A2" stroke-linecap="round" stroke-linejoin="round" stroke-miterlimit="10" stroke-width="2" d="M148 48h54"/><path stroke="#D9DFE8" stroke-width="2" d="m222 64 12-32"/></g><path fill="#D9DFE8" d="M797 63H32v2h765v-2Z"/><g clip-path="url(#d)"><path fill="#F1F4F9" d="M32 64h765v24H32V64Z"/><path fill="#F1F4F9" d="M32 64h208v24H32V64Z"/><path fill="#D9DFE8" d="M240 64h1v-1h-1v1Zm0 24v1h1v-1h-1ZM32 65h208v-2H32v2Zm207-1v24h2V64h-2Zm1 23H32v2h208v-2Z"/><path fill="#76A3ED" stroke="#406DC8" stroke-linecap="round" stroke-miterlimit="10" stroke-width="2" d="M55 74H41v-3c0-.55.45-1 1-1h5l.67 1H54c.55 0 1 .45 1 1v2Z"/><path fill="#CBDFF8" stroke="#406DC8" stroke-linecap="round" stroke-linejoin="round" stroke-miterlimit="10" stroke-width="2" d="M41 74h14v7a1 1 0 0 1-1 1H42a1 1 0 0 1-1-1v-7Z"/><circle cx="80.2" cy="72" r="2" fill="#fff" stroke="#8C94A2" stroke-width="2"/><circle cx="86.2" cy="80" r="2" fill="#fff" stroke="#8C94A2" stroke-width="2"/><path stroke="#8C94A2" stroke-width="2" d="M80.2 74v9M86.2 69v9"/><path fill="#fff" stroke="#8C94A2" stroke-linecap="round" stroke-linejoin="round" stroke-miterlimit="10" stroke-width="2" d="M118.4 82.5a5.5 5.5 0 1 0 0-11 5.5 5.5 0 0 0 0 11Z"/><path stroke="#8C94A2" stroke-linecap="round" stroke-linejoin="round" stroke-miterlimit="10" stroke-width="2" d="m112.4 71.5 2-2M124.4 71.5l-2-2"/><path fill="#F1F4F9" d="M118.4 75v2h2"/><path stroke="#8C94A2" stroke-linecap="round" stroke-linejoin="round" stroke-miterlimit="10" stroke-width="2" d="M118.4 75v2h2"/><path stroke="#8C94A2" stroke-linecap="round" stroke-miterlimit="10" stroke-width="4" d="m156.6 79 2 2"/><circle cx="152.6" cy="75" r="5" fill="#fff" stroke="#8C94A2" stroke-width="2"/><rect width="10" height="10" x="183.8" y="71" stroke="#8C94A2" stroke-linecap="round" stroke-linejoin="round" stroke-miterlimit="10" stroke-width="2" rx="1"/><path fill="#fff" stroke="#8C94A2" stroke-linecap="round" stroke-linejoin="round" stroke-miterlimit="10" stroke-width="2" d="M219 70.741a1 1 0 0 1 1.504-.864l9.015 5.26a1 1 0 0 1 0 1.727l-9.015 5.259a1 1 0 0 1-1.504-.864V70.741Z"/><path fill="#F1F4F9" d="M240 64h456v24H240z"/><path stroke="#D9DFE8" stroke-width="2" d="M240 64h456v24H240z"/><path fill="#EE7244" stroke="#BE270F" stroke-linecap="round" stroke-miterlimit="10" stroke-width="2" d="M263 74h-14v-3c0-.55.45-1 1-1h5l.67 1H262c.55 0 1 .45 1 1v2Z"/><path fill="#F7C1A3" stroke="#BE270F" stroke-linecap="round" stroke-linejoin="round" stroke-miterlimit="10" stroke-width="2" d="M249 74h14v7a1 1 0 0 1-1 1h-12a1 1 0 0 1-1-1v-7Z"/><path stroke="#8C94A2" stroke-linecap="round" stroke-linejoin="round" stroke-miterlimit="10" stroke-width="2" d="M272 76h32"/><path fill="#E8AA00" stroke="#B15A00" stroke-linecap="round" stroke-miterlimit="10" stroke-width="2" d="M335 74h-14v-3c0-.55.45-1 1-1h5l.67 1H334c.55 0 1 .45 1 1v2Z"/><path fill="#F8E58E" stroke="#B15A00" stroke-linecap="round" stroke-linejoin="round" stroke-miterlimit="10" stroke-width="2" d="M321 74h14v7a1 1 0 0 1-1 1h-12a1 1 0 0 1-1-1v-7Z"/><path stroke="#8C94A2" stroke-linecap="round" stroke-linejoin="round" stroke-miterlimit="10" stroke-width="2" d="M344 76h32"/></g><path fill="#D9DFE8" d="M797 87H32v2h765v-2Z"/><mask id="e" width="210" height="594" x="32" y="88" fill="#000" maskUnits="userSpaceOnUse"><path fill="#fff" d="M32 88h210v594H32z"/><path d="M32 88h208v594H32V88Z"/></mask><path fill="#FCF9F8" d="M32 88h208v594H32V88Z"/><path fill="#E8DCD9" d="M238 88v594h4V88h-4Z" mask="url(#e)"/><path fill="#E8DCD9" d="M240 118H32v4h208v-4Z" mask="url(#path-40-inside-2_705_2362)"/><path fill="#FCF9F8" stroke="#76A3ED" stroke-linecap="round" stroke-miterlimit="10" stroke-width="2" d="M55 102H41v-3c0-.55.45-1 1-1h5l.67 1H54c.55 0 1 .45 1 1v2Z"/><path fill="#FCF9F8" stroke="#76A3ED" stroke-linecap="round" stroke-linejoin="round" stroke-miterlimit="10" stroke-width="2" d="M41 102h14v7a1 1 0 0 1-1 1H42a1 1 0 0 1-1-1v-7Z"/><path stroke="#092E24" stroke-linecap="round" stroke-linejoin="round" stroke-miterlimit="10" stroke-width="2" d="M64 104h32"/><path stroke="#F1F4F9" stroke-linecap="round" stroke-linejoin="round" stroke-miterlimit="10" stroke-width="2" d="m107 102 5 4 5-4M210 99l-4 5 4 5M222 99l4 5-4 5M54 131l4 5-4 5"/><path fill="#FCF9F8" stroke="#76A3ED" stroke-linecap="round" stroke-miterlimit="10" stroke-width="2" d="M87 134H73v-3c0-.55.45-1 1-1h5l.67 1H86c.55 0 1 .45 1 1v2Z"/><path fill="#FCF9F8" stroke="#76A3ED" stroke-linecap="round" stroke-linejoin="round" stroke-miterlimit="10" stroke-width="2" d="M73 134h14v7a1 1 0 0 1-1 1H74a1 1 0 0 1-1-1v-7Z"/><path stroke="#092E24" stroke-linecap="round" stroke-linejoin="round" stroke-miterlimit="10" stroke-width="2" d="M96 136h32"/><path stroke="#F1F4F9" stroke-linecap="round" stroke-linejoin="round" stroke-miterlimit="10" stroke-width="2" d="m54 155 4 5-4 5"/><path fill="#FCF9F8" stroke="#76A3ED" stroke-linecap="round" stroke-miterlimit="10" stroke-width="2" d="M87 158H73v-3c0-.55.45-1 1-1h5l.67 1H86c.55 0 1 .45 1 1v2Z"/><path fill="#FCF9F8" stroke="#76A3ED" stroke-linecap="round" stroke-linejoin="round" stroke-miterlimit="10" stroke-width="2" d="M73 158h14v7a1 1 0 0 1-1 1H74a1 1 0 0 1-1-1v-7Z"/><path stroke="#092E24" stroke-linecap="round" stroke-linejoin="round" stroke-miterlimit="10" stroke-width="2" d="M96 160h32"/><path stroke="#F1F4F9" stroke-linecap="round" stroke-linejoin="round" stroke-miterlimit="10" stroke-width="2" d="m54 179 4 5-4 5"/><path fill="#FCF9F8" stroke="#76A3ED" stroke-linecap="round" stroke-miterlimit="10" stroke-width="2" d="M87 182H73v-3c0-.55.45-1 1-1h5l.67 1H86c.55 0 1 .45 1 1v2Z"/><path fill="#FCF9F8" stroke="#76A3ED" stroke-linecap="round" stroke-linejoin="round" stroke-miterlimit="10" stroke-width="2" d="M73 182h14v7a1 1 0 0 1-1 1H74a1 1 0 0 1-1-1v-7Z"/><path stroke="#092E24" stroke-linecap="round" stroke-linejoin="round" stroke-miterlimit="10" stroke-width="2" d="M96 184h32"/><path stroke="#F1F4F9" stroke-linecap="round" stroke-linejoin="round" stroke-miterlimit="10" stroke-width="2" d="m51 206 5 4 5-4"/><path fill="#FCF9F8" stroke="#76A3ED" stroke-linecap="round" stroke-miterlimit="10" stroke-width="2" d="M87 206H73v-3c0-.55.45-1 1-1h5l.67 1H86c.55 0 1 .45 1 1v2Z"/><path fill="#FCF9F8" stroke="#76A3ED" stroke-linecap="round" stroke-linejoin="round" stroke-miterlimit="10" stroke-width="2" d="M73 206h14v7a1 1 0 0 1-1 1H74a1 1 0 0 1-1-1v-7Z"/><path stroke="#092E24" stroke-linecap="round" stroke-linejoin="round" stroke-miterlimit="10" stroke-width="2" d="M96 208h32"/><path stroke="#F1F4F9" stroke-linecap="round" stroke-linejoin="round" stroke-miterlimit="10" stroke-width="2" d="m78 227 4 5-4 5"/><path fill="#FCF9F8" stroke="#76A3ED" stroke-linecap="round" stroke-miterlimit="10" stroke-width="2" d="M111 230H97v-3c0-.55.45-1 1-1h5l.67 1H110c.55 0 1 .45 1 1v2Z"/><path fill="#FCF9F8" stroke="#76A3ED" stroke-linecap="round" stroke-linejoin="round" stroke-miterlimit="10" stroke-width="2" d="M97 230h14v7a1 1 0 0 1-1 1H98a1 1 0 0 1-1-1v-7Z"/><path stroke="#092E24" stroke-linecap="round" stroke-linejoin="round" stroke-miterlimit="10" stroke-width="2" d="M120 232h32"/><g clip-path="url(#f)"><path fill="#F8FAFC" d="M240 88h344v594H240V88Z"/><path stroke="#D9DFE8" stroke-width="2" d="M240 88h344v32H240z"/><path fill="#76A3ED" stroke="#406DC8" stroke-linecap="round" stroke-miterlimit="10" stroke-width="2" d="M263 102h-14v-3c0-.55.45-1 1-1h5l.67 1H262c.55 0 1 .45 1 1v2Z"/><path fill="#CBDFF8" stroke="#406DC8" stroke-linecap="round" stroke-linejoin="round" stroke-miterlimit="10" stroke-width="2" d="M249 102h14v7a1 1 0 0 1-1 1h-12a1 1 0 0 1-1-1v-7Z"/><path stroke="#8C94A2" stroke-linecap="round" stroke-linejoin="round" stroke-miterlimit="10" stroke-width="2" d="M272 104h32"/><path stroke="#8C94A2" stroke-linecap="round" stroke-width="2" d="m312 110 6-12"/><path fill="#76A3ED" stroke="#406DC8" stroke-linecap="round" stroke-miterlimit="10" stroke-width="2" d="M341 102h-14v-3c0-.55.45-1 1-1h5l.67 1H340c.55 0 1 .45 1 1v2Z"/><path fill="#CBDFF8" stroke="#406DC8" stroke-linecap="round" stroke-linejoin="round" stroke-miterlimit="10" stroke-width="2" d="M327 102h14v7a1 1 0 0 1-1 1h-12a1 1 0 0 1-1-1v-7Z"/><path stroke="#8C94A2" stroke-linecap="round" stroke-linejoin="round" stroke-miterlimit="10" stroke-width="2" d="M350 104h32"/><path fill="#B7BECB" d="M261.358 137v-1.176h2.556v-3.78h-1.776v-.96l1.032-.024c.768-.024.924-.336.948-2.016h1.2v6.78h2.088V137h-6.048Z"/><path stroke="#EB88E7" stroke-linecap="round" stroke-linejoin="round" stroke-miterlimit="10" stroke-width="2" d="M284 134h32"/><path stroke="#E8AA00" stroke-linecap="round" stroke-linejoin="round" stroke-miterlimit="10" stroke-width="2" d="M332 134h24"/><path stroke="#8C94A2" stroke-linecap="round" stroke-linejoin="round" stroke-miterlimit="10" stroke-width="2" d="M372 134h32"/><path fill="#B7BECB" d="M261.382 157c0-1.752.228-2.292 2.292-3.252 1.776-.84 2.136-1.296 2.136-2.196 0-.828-.552-1.38-1.476-1.38-1.056 0-1.644.648-1.644 1.764 0 .264.024.564.06.792h-1.26a5.276 5.276 0 0 1-.06-.888c0-1.704.996-2.844 2.94-2.844 1.8 0 2.844 1.044 2.844 2.484 0 1.224-.54 2.04-2.676 3.036-1.488.684-1.632.912-1.632 1.308h4.452V157h-5.976Z"/><path stroke="#EB88E7" stroke-linecap="round" stroke-linejoin="round" stroke-miterlimit="10" stroke-width="2" d="M284 154h32"/><path stroke="#E8AA00" stroke-linecap="round" stroke-linejoin="round" stroke-miterlimit="10" stroke-width="2" d="M332 154h24"/><path stroke="#8C94A2" stroke-linecap="round" stroke-linejoin="round" stroke-miterlimit="10" stroke-width="2" d="M372 154h12"/><path fill="#B7BECB" d="M264.286 177.108c-1.92 0-3.084-.936-3.084-2.484 0-.204.024-.456.036-.588h1.272c-.012.18-.012.312-.012.384 0 .972.648 1.512 1.788 1.512 1.188 0 1.872-.552 1.872-1.464 0-.66-.444-1.008-1.272-1.008h-1.212v-.924h1.02c.78 0 1.188-.42 1.188-1.104 0-.792-.588-1.26-1.536-1.26-1.104 0-1.692.552-1.692 1.452 0 .192.012.36.024.468h-1.236c-.036-.132-.06-.396-.06-.684 0-1.488 1.116-2.412 3-2.412 1.68 0 2.808.828 2.808 2.232 0 .768-.408 1.38-1.08 1.536v.036c.9.144 1.44.816 1.44 1.752 0 1.584-1.224 2.556-3.264 2.556Z"/><path stroke="#EB88E7" stroke-linecap="round" stroke-linejoin="round" stroke-miterlimit="10" stroke-width="2" d="M284 174h32"/><path stroke="#E8AA00" stroke-linecap="round" stroke-linejoin="round" stroke-miterlimit="10" stroke-width="2" d="M332 174h24"/><path stroke="#8C94A2" stroke-linecap="round" stroke-linejoin="round" stroke-miterlimit="10" stroke-width="2" d="M372 174h18"/><path fill="#B7BECB" d="M265.234 197v-1.716h-4.128v-1.176l4.008-5.004h1.524v5.004h1.224v1.176h-1.224V197h-1.404Zm-2.76-2.892h2.76v-3.432h-.012l-2.748 3.42v.012ZM264.466 217.108c-1.908 0-3.096-.84-3.096-2.184 0-.12.012-.24.024-.312h1.296c-.012.096-.012.168-.012.216 0 .672.696 1.104 1.764 1.104 1.008 0 1.632-.66 1.632-1.62 0-.9-.636-1.452-1.668-1.452-.792 0-1.416.348-1.62.912l-1.308-.132.324-4.536h5.196v1.176h-4.032l-.204 2.616.024.012c.24-.636.972-1.032 2.016-1.032 1.704 0 2.676.948 2.676 2.436 0 1.68-1.164 2.796-3.012 2.796Z"/><path stroke="#8C94A2" stroke-linecap="round" stroke-linejoin="round" stroke-miterlimit="10" stroke-width="2" d="M284 214h64"/><path fill="#B7BECB" d="M264.514 237.108c-2.328 0-3.312-1.452-3.312-4.008 0-2.544 1.14-4.104 3.312-4.104 1.8 0 2.784.924 2.784 2.424 0 .144-.012.312-.024.42h-1.272c.012-.12.024-.24.024-.372 0-.78-.516-1.296-1.488-1.296-1.32 0-1.932 1.068-1.932 2.844v.636h.024c.156-.792.936-1.272 2.196-1.272 1.8 0 2.736.816 2.736 2.16 0 1.584-1.164 2.568-3.048 2.568Zm.012-1.152c1.02 0 1.668-.552 1.668-1.416 0-.732-.588-1.164-1.656-1.164-1.128 0-1.824.528-1.824 1.236.096.792.792 1.344 1.812 1.344Z"/><path stroke="#EB88E7" stroke-linecap="round" stroke-linejoin="round" stroke-miterlimit="10" stroke-width="2" d="M284 234h32"/><path stroke="#E8AA00" stroke-linecap="round" stroke-linejoin="round" stroke-miterlimit="10" stroke-width="2" d="M332 234h24"/><path stroke="#8C94A2" stroke-linecap="round" stroke-linejoin="round" stroke-miterlimit="10" stroke-width="2" d="M372 234h32"/></g><path fill="#D9DFE8" d="M583 88v594h2V88h-2Z"/><g clip-path="url(#g)"><path fill="#F1F4F9" d="M32 88h208v594H32V88Z"/><path fill="#F1F4F9" d="M32 88h208v32H32V88Z"/><path fill="#D9DFE8" d="M240 88h1v-1h-1v1Zm0 32v1h1v-1h-1ZM32 89h208v-2H32v2Zm207-1v32h2V88h-2Zm1 31H32v2h208v-2Z"/><path fill="#76A3ED" stroke="#406DC8" stroke-linecap="round" stroke-miterlimit="10" stroke-width="2" d="M55 102H41v-3c0-.55.45-1 1-1h5l.67 1H54c.55 0 1 .45 1 1v2Z"/><path fill="#CBDFF8" stroke="#406DC8" stroke-linecap="round" stroke-linejoin="round" stroke-miterlimit="10" stroke-width="2" d="M41 102h14v7a1 1 0 0 1-1 1H42a1 1 0 0 1-1-1v-7Z"/><path stroke="#8C94A2" stroke-linecap="round" stroke-linejoin="round" stroke-miterlimit="10" stroke-width="2" d="M64 104h32M107 102l5 4 5-4M210 99l-4 5 4 5M222 99l4 5-4 5M54 131l4 5-4 5"/><path fill="#76A3ED" stroke="#406DC8" stroke-linecap="round" stroke-miterlimit="10" stroke-width="2" d="M87 134H73v-3c0-.55.45-1 1-1h5l.67 1H86c.55 0 1 .45 1 1v2Z"/><path fill="#CBDFF8" stroke="#406DC8" stroke-linecap="round" stroke-linejoin="round" stroke-miterlimit="10" stroke-width="2" d="M73 134h14v7a1 1 0 0 1-1 1H74a1 1 0 0 1-1-1v-7Z"/><path stroke="#8C94A2" stroke-linecap="round" stroke-linejoin="round" stroke-miterlimit="10" stroke-width="2" d="M96 136h32M54 155l4 5-4 5"/><path fill="#76A3ED" stroke="#406DC8" stroke-linecap="round" stroke-miterlimit="10" stroke-width="2" d="M87 158H73v-3c0-.55.45-1 1-1h5l.67 1H86c.55 0 1 .45 1 1v2Z"/><path fill="#CBDFF8" stroke="#406DC8" stroke-linecap="round" stroke-linejoin="round" stroke-miterlimit="10" stroke-width="2" d="M73 158h14v7a1 1 0 0 1-1 1H74a1 1 0 0 1-1-1v-7Z"/><path stroke="#8C94A2" stroke-linecap="round" stroke-linejoin="round" stroke-miterlimit="10" stroke-width="2" d="M96 160h32M54 179l4 5-4 5"/><path fill="#76A3ED" stroke="#406DC8" stroke-linecap="round" stroke-miterlimit="10" stroke-width="2" d="M87 182H73v-3c0-.55.45-1 1-1h5l.67 1H86c.55 0 1 .45 1 1v2Z"/><path fill="#CBDFF8" stroke="#406DC8" stroke-linecap="round" stroke-linejoin="round" stroke-miterlimit="10" stroke-width="2" d="M73 182h14v7a1 1 0 0 1-1 1H74a1 1 0 0 1-1-1v-7Z"/><path stroke="#8C94A2" stroke-linecap="round" stroke-linejoin="round" stroke-miterlimit="10" stroke-width="2" d="M96 184h32M54 203l4 5-4 5"/><path fill="#76A3ED" stroke="#406DC8" stroke-linecap="round" stroke-miterlimit="10" stroke-width="2" d="M87 206H73v-3c0-.55.45-1 1-1h5l.67 1H86c.55 0 1 .45 1 1v2Z"/><path fill="#CBDFF8" stroke="#406DC8" stroke-linecap="round" stroke-linejoin="round" stroke-miterlimit="10" stroke-width="2" d="M73 206h14v7a1 1 0 0 1-1 1H74a1 1 0 0 1-1-1v-7Z"/><path stroke="#8C94A2" stroke-linecap="round" stroke-linejoin="round" stroke-miterlimit="10" stroke-width="2" d="M96 208h32M78 227l4 5-4 5"/><path fill="#76A3ED" stroke="#406DC8" stroke-linecap="round" stroke-miterlimit="10" stroke-width="2" d="M111 230H97v-3c0-.55.45-1 1-1h5l.67 1H110c.55 0 1 .45 1 1v2Z"/><path fill="#CBDFF8" stroke="#406DC8" stroke-linecap="round" stroke-linejoin="round" stroke-miterlimit="10" stroke-width="2" d="M97 230h14v7a1 1 0 0 1-1 1H98a1 1 0 0 1-1-1v-7Z"/><path stroke="#8C94A2" stroke-linecap="round" stroke-linejoin="round" stroke-miterlimit="10" stroke-width="2" d="M120 232h32"/></g><path fill="#D9DFE8" d="M239 88v594h2V88h-2Z"/></g><path stroke="#22468E" stroke-opacity=".1" stroke-width="2" d="M585 32v-1H40a9 9 0 0 0-9 9v385h554V32Z"/></g><defs><clipPath id="a"><path fill="#fff" d="M0 0h384v240H0z"/></clipPath><clipPath id="b"><path fill="#fff" d="M32 40a8 8 0 0 1 8-8h544v392H32V40Z"/></clipPath><clipPath id="c"><path fill="#fff" d="M32 32h765v32H32V32Z"/></clipPath><clipPath id="d"><path fill="#fff" d="M32 64h765v24H32V64Z"/></clipPath><clipPath id="f"><path fill="#fff" d="M240 88h344v594H240V88Z"/></clipPath><clipPath id="g"><path fill="#fff" d="M32 88h208v594H32V88Z"/></clipPath></defs></svg>
