<svg width="384" height="240" viewBox="0 0 384 240" fill="none" xmlns="http://www.w3.org/2000/svg">
<g clip-path="url(#clip0_625_2437)">
<g clip-path="url(#clip1_625_2437)">
<path d="M32 40C32 35.5817 35.5817 32 40 32H584V424H32V40Z" fill="#092E24"/>
<g clip-path="url(#clip2_625_2437)">
<mask id="path-3-inside-1_625_2437" fill="white">
<path d="M32 32H797V64H32V32Z"/>
</mask>
<path d="M32 32H797V64H32V32Z" fill="#092E24"/>
<circle cx="68.5" cy="43" r="6" fill="#8FB6F2" stroke="#092E24" stroke-width="2" stroke-miterlimit="10" stroke-linecap="round" stroke-linejoin="round"/>
<path d="M78.5 50C78.5 53.3137 75.8137 56 72.5 56C69.1863 56 66.5 53.3137 66.5 50C66.5 46.6863 69.1863 44 72.5 44C75.8137 44 78.5 46.6863 78.5 50Z" fill="#A18AEC" stroke="#092E24" stroke-width="2" stroke-miterlimit="10" stroke-linecap="round" stroke-linejoin="round"/>
<circle cx="63.5" cy="50" r="6" fill="#F4966B" stroke="#092E24" stroke-width="2" stroke-miterlimit="10" stroke-linecap="round" stroke-linejoin="round"/>
<circle cx="68.5" cy="48" r="5" fill="#F4D340" stroke="#092E24" stroke-width="2" stroke-miterlimit="10" stroke-linecap="round" stroke-linejoin="round"/>
<path d="M88 64L100 32" stroke="#114034" stroke-width="2"/>
<rect x="112" y="40" width="16" height="16" rx="2" fill="#4A8B79"/>
<rect x="115" y="44" width="10" height="8" fill="#114034" stroke="#114034" stroke-miterlimit="10" stroke-linecap="round" stroke-linejoin="round"/>
<path d="M117 48L118 49L117 50" stroke="#ABD5C8" stroke-miterlimit="10" stroke-linecap="round" stroke-linejoin="round"/>
<path d="M120 50H121" stroke="#ABD5C8" stroke-miterlimit="10" stroke-linecap="round" stroke-linejoin="round"/>
<path d="M136 48H190" stroke="#EBFAF5" stroke-width="2" stroke-miterlimit="10" stroke-linecap="round" stroke-linejoin="round"/>
<path d="M202 64L214 32" stroke="#114034" stroke-width="2"/>
</g>
<path d="M797 62H32V66H797V62Z" fill="#114034" mask="url(#path-3-inside-1_625_2437)"/>
<g clip-path="url(#clip3_625_2437)">
<mask id="path-16-inside-2_625_2437" fill="white">
<path d="M32 64H797V88H32V64Z"/>
</mask>
<path d="M32 64H797V88H32V64Z" fill="#092E24"/>
<path d="M80.5 74H66.5V71C66.5 70.45 66.95 70 67.5 70H72.5L73.17 71H79.5C80.05 71 80.5 71.45 80.5 72V74Z" fill="#406DC8" stroke="#406DC8" stroke-width="2" stroke-miterlimit="10" stroke-linecap="round"/>
<path d="M66.5 74H80.5V81C80.5 81.5523 80.0523 82 79.5 82H67.5C66.9477 82 66.5 81.5523 66.5 81V74Z" fill="#8FB6F2" stroke="#8FB6F2" stroke-width="2" stroke-miterlimit="10" stroke-linecap="round" stroke-linejoin="round"/>
<circle cx="95.5" cy="72" r="2" fill="#092E24" stroke="#5F9D8B" stroke-width="2"/>
<circle cx="101.5" cy="80" r="2" fill="#092E24" stroke="#5F9D8B" stroke-width="2"/>
<path d="M95.5 74V83" stroke="#5F9D8B" stroke-width="2"/>
<path d="M101.5 69V78" stroke="#5F9D8B" stroke-width="2"/>
<g filter="url(#filter0_d_625_2437)">
<path d="M123.5 82.5C126.538 82.5 129 80.0376 129 77C129 73.9624 126.538 71.5 123.5 71.5C120.462 71.5 118 73.9624 118 77C118 80.0376 120.462 82.5 123.5 82.5Z" fill="#092E24" stroke="#5F9D8B" stroke-width="2" stroke-miterlimit="10" stroke-linecap="round" stroke-linejoin="round"/>
<path d="M117.5 71.5L119.5 69.5" stroke="#5F9D8B" stroke-width="2" stroke-miterlimit="10" stroke-linecap="round" stroke-linejoin="round"/>
<path d="M129.5 71.5L127.5 69.5" stroke="#5F9D8B" stroke-width="2" stroke-miterlimit="10" stroke-linecap="round" stroke-linejoin="round"/>
<path d="M123.5 75V77H125.5" fill="#092E24"/>
<path d="M123.5 75V77H125.5" stroke="#5F9D8B" stroke-width="2" stroke-miterlimit="10" stroke-linecap="round" stroke-linejoin="round"/>
</g>
<g filter="url(#filter1_d_625_2437)">
<path d="M151.5 79L153.5 81" stroke="#5F9D8B" stroke-width="4" stroke-miterlimit="10" stroke-linecap="round"/>
<circle cx="147.5" cy="75" r="5" fill="#092E24" stroke="#5F9D8B" stroke-width="2"/>
</g>
<g filter="url(#filter2_d_625_2437)">
<rect x="168.5" y="71" width="10" height="10" rx="1" stroke="#5F9D8B" stroke-width="2" stroke-miterlimit="10" stroke-linecap="round" stroke-linejoin="round"/>
</g>
<path d="M193.5 70.741C193.5 69.9692 194.337 69.4884 195.004 69.8773L204.019 75.1362C204.681 75.5221 204.681 76.4779 204.019 76.8638L195.004 82.1227C194.337 82.5116 193.5 82.0308 193.5 81.259L193.5 70.741Z" fill="#092E24" stroke="#5F9D8B" stroke-width="2" stroke-miterlimit="10" stroke-linecap="round" stroke-linejoin="round"/>
<path d="M238 64V88H242V64H238Z" fill="#114034" mask="url(#path-18-outside-3_625_2437)"/>
<path d="M263 74H249V71C249 70.45 249.45 70 250 70H255L255.67 71H262C262.55 71 263 71.45 263 72V74Z" fill="#D63C1A" stroke="#D63C1A" stroke-width="2" stroke-miterlimit="10" stroke-linecap="round"/>
<path d="M249 74H263V81C263 81.5523 262.552 82 262 82H250C249.448 82 249 81.5523 249 81V74Z" fill="#F6AC87" stroke="#F6AC87" stroke-width="2" stroke-miterlimit="10" stroke-linecap="round" stroke-linejoin="round"/>
<path d="M272 76L304 76" stroke="#EBFAF5" stroke-width="2" stroke-miterlimit="10" stroke-linecap="round" stroke-linejoin="round"/>
<path d="M335 74H321V71C321 70.45 321.45 70 322 70H327L327.67 71H334C334.55 71 335 71.45 335 72V74Z" fill="#D63C1A" stroke="#D63C1A" stroke-width="2" stroke-miterlimit="10" stroke-linecap="round"/>
<path d="M321 74H335V81C335 81.5523 334.552 82 334 82H322C321.448 82 321 81.5523 321 81V74Z" fill="#F6AC87" stroke="#F6AC87" stroke-width="2" stroke-miterlimit="10" stroke-linecap="round" stroke-linejoin="round"/>
<path d="M344 76L376 76" stroke="#EBFAF5" stroke-width="2" stroke-miterlimit="10" stroke-linecap="round" stroke-linejoin="round"/>
</g>
<path d="M797 86H32V90H797V86Z" fill="#114034" mask="url(#path-16-inside-2_625_2437)"/>
<mask id="path-41-outside-4_625_2437" maskUnits="userSpaceOnUse" x="32" y="88" width="210" height="594" fill="black">
<rect fill="white" x="32" y="88" width="210" height="594"/>
<path d="M32 88H240V682H32V88Z"/>
</mask>
<path d="M32 88H240V682H32V88Z" fill="#092E24"/>
<path d="M55 102H41V99C41 98.45 41.45 98 42 98H47L47.67 99H54C54.55 99 55 99.45 55 100V102Z" fill="#092E24" stroke="#76A3ED" stroke-width="2" stroke-miterlimit="10" stroke-linecap="round"/>
<path d="M41 102H55V109C55 109.552 54.5523 110 54 110H42C41.4477 110 41 109.552 41 109V102Z" fill="#092E24" stroke="#76A3ED" stroke-width="2" stroke-miterlimit="10" stroke-linecap="round" stroke-linejoin="round"/>
<path d="M64 104L96 104" stroke="#EBFAF5" stroke-width="2" stroke-miterlimit="10" stroke-linecap="round" stroke-linejoin="round"/>
<path d="M107 102L112 106L117 102" stroke="#CAE7DE" stroke-width="2" stroke-miterlimit="10" stroke-linecap="round" stroke-linejoin="round"/>
<path d="M210 99L206 104L210 109" stroke="#CAE7DE" stroke-width="2" stroke-miterlimit="10" stroke-linecap="round" stroke-linejoin="round"/>
<path d="M222 99L226 104L222 109" stroke="#CAE7DE" stroke-width="2" stroke-miterlimit="10" stroke-linecap="round" stroke-linejoin="round"/>
<path d="M240 118H32V122H240V118Z" fill="#114034" mask="url(#path-43-inside-5_625_2437)"/>
<path d="M54 131L58 136L54 141" stroke="#CAE7DE" stroke-width="2" stroke-miterlimit="10" stroke-linecap="round" stroke-linejoin="round"/>
<path d="M87 134H73V131C73 130.45 73.45 130 74 130H79L79.67 131H86C86.55 131 87 131.45 87 132V134Z" fill="#092E24" stroke="#76A3ED" stroke-width="2" stroke-miterlimit="10" stroke-linecap="round"/>
<path d="M73 134H87V141C87 141.552 86.5523 142 86 142H74C73.4477 142 73 141.552 73 141V134Z" fill="#092E24" stroke="#76A3ED" stroke-width="2" stroke-miterlimit="10" stroke-linecap="round" stroke-linejoin="round"/>
<path d="M96 136L128 136" stroke="#EBFAF5" stroke-width="2" stroke-miterlimit="10" stroke-linecap="round" stroke-linejoin="round"/>
<path d="M54 155L58 160L54 165" stroke="#CAE7DE" stroke-width="2" stroke-miterlimit="10" stroke-linecap="round" stroke-linejoin="round"/>
<path d="M87 158H73V155C73 154.45 73.45 154 74 154H79L79.67 155H86C86.55 155 87 155.45 87 156V158Z" fill="#092E24" stroke="#76A3ED" stroke-width="2" stroke-miterlimit="10" stroke-linecap="round"/>
<path d="M73 158H87V165C87 165.552 86.5523 166 86 166H74C73.4477 166 73 165.552 73 165V158Z" fill="#092E24" stroke="#76A3ED" stroke-width="2" stroke-miterlimit="10" stroke-linecap="round" stroke-linejoin="round"/>
<path d="M96 160L128 160" stroke="#EBFAF5" stroke-width="2" stroke-miterlimit="10" stroke-linecap="round" stroke-linejoin="round"/>
<path d="M54 179L58 184L54 189" stroke="#CAE7DE" stroke-width="2" stroke-miterlimit="10" stroke-linecap="round" stroke-linejoin="round"/>
<path d="M87 182H73V179C73 178.45 73.45 178 74 178H79L79.67 179H86C86.55 179 87 179.45 87 180V182Z" fill="#092E24" stroke="#76A3ED" stroke-width="2" stroke-miterlimit="10" stroke-linecap="round"/>
<path d="M73 182H87V189C87 189.552 86.5523 190 86 190H74C73.4477 190 73 189.552 73 189V182Z" fill="#092E24" stroke="#76A3ED" stroke-width="2" stroke-miterlimit="10" stroke-linecap="round" stroke-linejoin="round"/>
<path d="M96 184L128 184" stroke="#EBFAF5" stroke-width="2" stroke-miterlimit="10" stroke-linecap="round" stroke-linejoin="round"/>
<path d="M51 206L56 210L61 206" stroke="#CAE7DE" stroke-width="2" stroke-miterlimit="10" stroke-linecap="round" stroke-linejoin="round"/>
<path d="M87 206H73V203C73 202.45 73.45 202 74 202H79L79.67 203H86C86.55 203 87 203.45 87 204V206Z" fill="#092E24" stroke="#76A3ED" stroke-width="2" stroke-miterlimit="10" stroke-linecap="round"/>
<path d="M73 206H87V213C87 213.552 86.5523 214 86 214H74C73.4477 214 73 213.552 73 213V206Z" fill="#092E24" stroke="#76A3ED" stroke-width="2" stroke-miterlimit="10" stroke-linecap="round" stroke-linejoin="round"/>
<path d="M96 208L128 208" stroke="#EBFAF5" stroke-width="2" stroke-miterlimit="10" stroke-linecap="round" stroke-linejoin="round"/>
<path d="M78 227L82 232L78 237" stroke="#CAE7DE" stroke-width="2" stroke-miterlimit="10" stroke-linecap="round" stroke-linejoin="round"/>
<path d="M111 230H97V227C97 226.45 97.45 226 98 226H103L103.67 227H110C110.55 227 111 227.45 111 228V230Z" fill="#092E24" stroke="#76A3ED" stroke-width="2" stroke-miterlimit="10" stroke-linecap="round"/>
<path d="M97 230H111V237C111 237.552 110.552 238 110 238H98C97.4477 238 97 237.552 97 237V230Z" fill="#092E24" stroke="#76A3ED" stroke-width="2" stroke-miterlimit="10" stroke-linecap="round" stroke-linejoin="round"/>
<path d="M120 232L152 232" stroke="#EBFAF5" stroke-width="2" stroke-miterlimit="10" stroke-linecap="round" stroke-linejoin="round"/>
<path d="M238 88V682H242V88H238Z" fill="#114034" mask="url(#path-41-outside-4_625_2437)"/>
<mask id="path-71-outside-6_625_2437" maskUnits="userSpaceOnUse" x="240" y="88" width="210" height="594" fill="black">
<rect fill="white" x="240" y="88" width="210" height="594"/>
<path d="M240 88H448V682H240V88Z"/>
</mask>
<path d="M240 88H448V682H240V88Z" fill="#092E24"/>
<path d="M263 102H249V99C249 98.45 249.45 98 250 98H255L255.67 99H262C262.55 99 263 99.45 263 100V102Z" fill="#406DC8" stroke="#406DC8" stroke-width="2" stroke-miterlimit="10" stroke-linecap="round"/>
<path d="M249 102H263V109C263 109.552 262.552 110 262 110H250C249.448 110 249 109.552 249 109V102Z" fill="#8FB6F2" stroke="#8FB6F2" stroke-width="2" stroke-miterlimit="10" stroke-linecap="round" stroke-linejoin="round"/>
<path d="M272 104L304 104" stroke="#296655" stroke-width="2" stroke-miterlimit="10" stroke-linecap="round" stroke-linejoin="round"/>
<path d="M312 110L318 98" stroke="#296655" stroke-width="2" stroke-linecap="round"/>
<path d="M341 102H327V99C327 98.45 327.45 98 328 98H333L333.67 99H340C340.55 99 341 99.45 341 100V102Z" fill="#406DC8" stroke="#406DC8" stroke-width="2" stroke-miterlimit="10" stroke-linecap="round"/>
<path d="M327 102H341V109C341 109.552 340.552 110 340 110H328C327.448 110 327 109.552 327 109V102Z" fill="#8FB6F2" stroke="#8FB6F2" stroke-width="2" stroke-miterlimit="10" stroke-linecap="round" stroke-linejoin="round"/>
<path d="M350 104L382 104" stroke="#296655" stroke-width="2" stroke-miterlimit="10" stroke-linecap="round" stroke-linejoin="round"/>
<path d="M448 118H240V122H448V118Z" fill="#114034" mask="url(#path-73-inside-7_625_2437)"/>
<path d="M267.225 138H261.537V136.992C262.533 136.992 263.229 137.076 263.985 137.268V131.628C263.385 132.156 262.593 132.576 261.789 132.864L261.405 131.82L264.345 130.8H265.161V136.992H267.225V138Z" fill="#627570"/>
<path d="M284 134L316 134" stroke="#F4966B" stroke-width="2" stroke-miterlimit="10" stroke-linecap="round" stroke-linejoin="round"/>
<path d="M332 134L356 134" stroke="#F5B7E4" stroke-width="2" stroke-miterlimit="10" stroke-linecap="round" stroke-linejoin="round"/>
<path d="M372 134L404 134" stroke="#EBFAF5" stroke-width="2" stroke-miterlimit="10" stroke-linecap="round" stroke-linejoin="round"/>
<path d="M265.857 152.984C265.857 152.12 265.461 151.652 264.357 151.652C263.817 151.652 263.385 151.712 263.013 151.868C262.929 152.192 262.905 152.516 262.905 152.852C262.905 153.092 262.917 153.32 262.917 153.584H261.753C261.729 153.368 261.717 153.176 261.717 152.984C261.717 151.208 262.773 150.668 264.489 150.668C266.145 150.668 267.033 151.34 267.033 152.984C267.033 154.532 265.821 155.12 264.597 155.552C263.145 156.068 262.557 156.296 262.461 157.1C263.217 156.992 264.465 156.896 265.389 156.896H267.105V158H261.477C261.477 157.928 261.465 157.376 261.465 157.304C261.465 155.84 262.185 155.372 263.829 154.76C265.317 154.22 265.857 153.86 265.857 152.984Z" fill="#627570"/>
<path d="M284 154L316 154" stroke="#F4966B" stroke-width="2" stroke-miterlimit="10" stroke-linecap="round" stroke-linejoin="round"/>
<path d="M332 154L356 154" stroke="#F5B7E4" stroke-width="2" stroke-miterlimit="10" stroke-linecap="round" stroke-linejoin="round"/>
<path d="M372 154L404 154" stroke="#EBFAF5" stroke-width="2" stroke-miterlimit="10" stroke-linecap="round" stroke-linejoin="round"/>
<path d="M264.285 178.12C262.509 178.12 261.429 177.544 261.429 175.684H262.629C262.629 176.62 262.881 177.16 264.417 177.16C264.909 177.16 265.449 177.1 265.833 176.932C265.917 176.68 265.953 176.44 265.953 176.152C265.953 175.132 265.509 174.64 263.409 174.784V173.896C264.009 173.848 264.537 173.848 264.981 173.908C265.509 173.464 265.689 172.96 265.689 172.54C265.689 171.976 265.329 171.628 264.261 171.628C263.745 171.628 263.349 171.688 262.977 171.856C262.905 172.204 262.893 172.576 262.917 172.996H261.729C261.609 171.364 262.521 170.668 264.333 170.668C265.977 170.668 266.853 171.16 266.853 172.468C266.853 173.332 266.349 173.776 265.653 174.052C266.661 174.352 267.129 175.024 267.129 175.936C267.129 177.472 266.193 178.12 264.285 178.12Z" fill="#627570"/>
<path d="M284 174L316 174" stroke="#F4966B" stroke-width="2" stroke-miterlimit="10" stroke-linecap="round" stroke-linejoin="round"/>
<path d="M332 174L356 174" stroke="#F5B7E4" stroke-width="2" stroke-miterlimit="10" stroke-linecap="round" stroke-linejoin="round"/>
<path d="M372 174L404 174" stroke="#EBFAF5" stroke-width="2" stroke-miterlimit="10" stroke-linecap="round" stroke-linejoin="round"/>
<path d="M266.385 198H265.209V196.332H261.405V195.372C261.969 193.932 262.257 192.516 262.233 190.8H263.445C263.481 192.648 262.977 194.256 262.233 195.54C263.193 195.408 264.177 195.336 265.209 195.312V190.8H266.385V195.3H267.561V196.332C267.141 196.332 266.745 196.272 266.385 196.164V198Z" fill="#627570"/>
<path d="M264.333 218.12C262.545 218.12 261.501 217.628 261.501 216.008H262.713C262.713 216.572 262.929 217.16 264.405 217.16C264.813 217.16 265.317 217.1 265.785 216.944C265.869 216.62 265.905 216.308 265.905 216.08C265.905 215.108 265.581 214.4 264.441 214.4C263.733 214.4 263.145 214.604 262.797 214.904L261.873 214.568V210.8H266.697V211.976C265.077 211.976 263.661 211.904 262.881 211.676V214.016C263.313 213.752 263.985 213.488 264.921 213.488C266.445 213.488 267.093 214.376 267.093 215.66C267.093 217.424 266.133 218.12 264.333 218.12Z" fill="#627570"/>
<path d="M284 214L348 214" stroke="#8CA29C" stroke-width="2" stroke-miterlimit="10" stroke-linecap="round" stroke-linejoin="round"/>
<path d="M264.513 234.76C264.021 234.76 263.457 234.892 262.989 235.084C262.929 235.324 262.917 235.552 262.917 235.732C262.917 236.548 263.157 237.148 264.705 237.148C265.053 237.148 265.473 237.124 265.917 236.968C266.001 236.668 266.049 236.356 266.049 235.96C266.049 235.168 265.869 234.76 264.513 234.76ZM267.249 235.948C267.249 237.364 266.337 238.12 264.525 238.12C262.785 238.12 261.609 237.364 261.609 234.748C261.609 232.372 262.449 230.68 264.897 230.68C266.409 230.68 267.021 231.472 267.021 232.828H265.821C265.821 231.976 265.449 231.664 264.597 231.664C264.237 231.664 263.853 231.724 263.373 231.844C262.941 232.648 262.797 233.668 262.809 234.628C263.373 234.148 264.261 233.884 265.113 233.884C266.301 233.884 267.249 234.388 267.249 235.948Z" fill="#627570"/>
<path d="M284 234L316 234" stroke="#F4966B" stroke-width="2" stroke-miterlimit="10" stroke-linecap="round" stroke-linejoin="round"/>
<path d="M332 234L356 234" stroke="#F5B7E4" stroke-width="2" stroke-miterlimit="10" stroke-linecap="round" stroke-linejoin="round"/>
<path d="M372 234L404 234" stroke="#EBFAF5" stroke-width="2" stroke-miterlimit="10" stroke-linecap="round" stroke-linejoin="round"/>
<path d="M446 88V682H450V88H446Z" fill="#114034" mask="url(#path-71-outside-6_625_2437)"/>
<mask id="path-101-outside-8_625_2437" maskUnits="userSpaceOnUse" x="32" y="88" width="210" height="594" fill="black">
<rect fill="white" x="32" y="88" width="210" height="594"/>
<path d="M32 88H240V682H32V88Z"/>
</mask>
<path d="M32 88H240V682H32V88Z" fill="#092E24"/>
<path d="M55 102H41V99C41 98.45 41.45 98 42 98H47L47.67 99H54C54.55 99 55 99.45 55 100V102Z" fill="#406DC8" stroke="#406DC8" stroke-width="2" stroke-miterlimit="10" stroke-linecap="round"/>
<path d="M41 102H55V109C55 109.552 54.5523 110 54 110H42C41.4477 110 41 109.552 41 109V102Z" fill="#8FB6F2" stroke="#8FB6F2" stroke-width="2" stroke-miterlimit="10" stroke-linecap="round" stroke-linejoin="round"/>
<path d="M64 104L96 104" stroke="#B7CBC5" stroke-width="2" stroke-miterlimit="10" stroke-linecap="round" stroke-linejoin="round"/>
<path d="M107 102L112 106L117 102" stroke="#B7CBC5" stroke-width="2" stroke-miterlimit="10" stroke-linecap="round" stroke-linejoin="round"/>
<path d="M210 99L206 104L210 109" stroke="#B7CBC5" stroke-width="2" stroke-miterlimit="10" stroke-linecap="round" stroke-linejoin="round"/>
<path d="M222 99L226 104L222 109" stroke="#B7CBC5" stroke-width="2" stroke-miterlimit="10" stroke-linecap="round" stroke-linejoin="round"/>
<path d="M240 118H32V122H240V118Z" fill="#114034" mask="url(#path-103-inside-9_625_2437)"/>
<path d="M54 131L58 136L54 141" stroke="#8CA29C" stroke-width="2" stroke-miterlimit="10" stroke-linecap="round" stroke-linejoin="round"/>
<path d="M87 134H73V131C73 130.45 73.45 130 74 130H79L79.67 131H86C86.55 131 87 131.45 87 132V134Z" fill="#406DC8" stroke="#406DC8" stroke-width="2" stroke-miterlimit="10" stroke-linecap="round"/>
<path d="M73 134H87V141C87 141.552 86.5523 142 86 142H74C73.4477 142 73 141.552 73 141V134Z" fill="#8FB6F2" stroke="#8FB6F2" stroke-width="2" stroke-miterlimit="10" stroke-linecap="round" stroke-linejoin="round"/>
<path d="M96 136L128 136" stroke="#B7CBC5" stroke-width="2" stroke-miterlimit="10" stroke-linecap="round" stroke-linejoin="round"/>
<path d="M54 155L58 160L54 165" stroke="#8CA29C" stroke-width="2" stroke-miterlimit="10" stroke-linecap="round" stroke-linejoin="round"/>
<path d="M87 158H73V155C73 154.45 73.45 154 74 154H79L79.67 155H86C86.55 155 87 155.45 87 156V158Z" fill="#406DC8" stroke="#406DC8" stroke-width="2" stroke-miterlimit="10" stroke-linecap="round"/>
<path d="M73 158H87V165C87 165.552 86.5523 166 86 166H74C73.4477 166 73 165.552 73 165V158Z" fill="#8FB6F2" stroke="#8FB6F2" stroke-width="2" stroke-miterlimit="10" stroke-linecap="round" stroke-linejoin="round"/>
<path d="M96 160L128 160" stroke="#B7CBC5" stroke-width="2" stroke-miterlimit="10" stroke-linecap="round" stroke-linejoin="round"/>
<path d="M54 179L58 184L54 189" stroke="#8CA29C" stroke-width="2" stroke-miterlimit="10" stroke-linecap="round" stroke-linejoin="round"/>
<path d="M87 182H73V179C73 178.45 73.45 178 74 178H79L79.67 179H86C86.55 179 87 179.45 87 180V182Z" fill="#406DC8" stroke="#406DC8" stroke-width="2" stroke-miterlimit="10" stroke-linecap="round"/>
<path d="M73 182H87V189C87 189.552 86.5523 190 86 190H74C73.4477 190 73 189.552 73 189V182Z" fill="#8FB6F2" stroke="#8FB6F2" stroke-width="2" stroke-miterlimit="10" stroke-linecap="round" stroke-linejoin="round"/>
<path d="M96 184L128 184" stroke="#B7CBC5" stroke-width="2" stroke-miterlimit="10" stroke-linecap="round" stroke-linejoin="round"/>
<path d="M54 203L58 208L54 213" stroke="#8CA29C" stroke-width="2" stroke-miterlimit="10" stroke-linecap="round" stroke-linejoin="round"/>
<path d="M87 206H73V203C73 202.45 73.45 202 74 202H79L79.67 203H86C86.55 203 87 203.45 87 204V206Z" fill="#406DC8" stroke="#406DC8" stroke-width="2" stroke-miterlimit="10" stroke-linecap="round"/>
<path d="M73 206H87V213C87 213.552 86.5523 214 86 214H74C73.4477 214 73 213.552 73 213V206Z" fill="#8FB6F2" stroke="#8FB6F2" stroke-width="2" stroke-miterlimit="10" stroke-linecap="round" stroke-linejoin="round"/>
<path d="M96 208L128 208" stroke="#B7CBC5" stroke-width="2" stroke-miterlimit="10" stroke-linecap="round" stroke-linejoin="round"/>
<path d="M78 227L82 232L78 237" stroke="#8CA29C" stroke-width="2" stroke-miterlimit="10" stroke-linecap="round" stroke-linejoin="round"/>
<path d="M111 230H97V227C97 226.45 97.45 226 98 226H103L103.67 227H110C110.55 227 111 227.45 111 228V230Z" fill="#406DC8" stroke="#406DC8" stroke-width="2" stroke-miterlimit="10" stroke-linecap="round"/>
<path d="M97 230H111V237C111 237.552 110.552 238 110 238H98C97.4477 238 97 237.552 97 237V230Z" fill="#8FB6F2" stroke="#8FB6F2" stroke-width="2" stroke-miterlimit="10" stroke-linecap="round" stroke-linejoin="round"/>
<path d="M120 232L152 232" stroke="#B7CBC5" stroke-width="2" stroke-miterlimit="10" stroke-linecap="round" stroke-linejoin="round"/>
<path d="M238 88V682H242V88H238Z" fill="#114034" mask="url(#path-101-outside-8_625_2437)"/>
</g>
<path d="M585 32V31H584H40C35.0294 31 31 35.0294 31 40V424V425H32H584H585V424V32Z" stroke="#15181F" stroke-width="2"/>
</g>
<defs>
<filter id="filter0_d_625_2437" x="111.5" y="68" width="24" height="24" filterUnits="userSpaceOnUse" color-interpolation-filters="sRGB">
<feFlood flood-opacity="0" result="BackgroundImageFix"/>
<feColorMatrix in="SourceAlpha" type="matrix" values="0 0 0 0 0 0 0 0 0 0 0 0 0 0 0 0 0 0 127 0" result="hardAlpha"/>
<feOffset dy="4"/>
<feGaussianBlur stdDeviation="2"/>
<feComposite in2="hardAlpha" operator="out"/>
<feColorMatrix type="matrix" values="0 0 0 0 0 0 0 0 0 0 0 0 0 0 0 0 0 0 0.25 0"/>
<feBlend mode="normal" in2="BackgroundImageFix" result="effect1_dropShadow_625_2437"/>
<feBlend mode="normal" in="SourceGraphic" in2="effect1_dropShadow_625_2437" result="shape"/>
</filter>
<filter id="filter1_d_625_2437" x="136.5" y="68" width="24" height="24" filterUnits="userSpaceOnUse" color-interpolation-filters="sRGB">
<feFlood flood-opacity="0" result="BackgroundImageFix"/>
<feColorMatrix in="SourceAlpha" type="matrix" values="0 0 0 0 0 0 0 0 0 0 0 0 0 0 0 0 0 0 127 0" result="hardAlpha"/>
<feOffset dy="4"/>
<feGaussianBlur stdDeviation="2"/>
<feComposite in2="hardAlpha" operator="out"/>
<feColorMatrix type="matrix" values="0 0 0 0 0 0 0 0 0 0 0 0 0 0 0 0 0 0 0.25 0"/>
<feBlend mode="normal" in2="BackgroundImageFix" result="effect1_dropShadow_625_2437"/>
<feBlend mode="normal" in="SourceGraphic" in2="effect1_dropShadow_625_2437" result="shape"/>
</filter>
<filter id="filter2_d_625_2437" x="161.5" y="68" width="24" height="24" filterUnits="userSpaceOnUse" color-interpolation-filters="sRGB">
<feFlood flood-opacity="0" result="BackgroundImageFix"/>
<feColorMatrix in="SourceAlpha" type="matrix" values="0 0 0 0 0 0 0 0 0 0 0 0 0 0 0 0 0 0 127 0" result="hardAlpha"/>
<feOffset dy="4"/>
<feGaussianBlur stdDeviation="2"/>
<feComposite in2="hardAlpha" operator="out"/>
<feColorMatrix type="matrix" values="0 0 0 0 0 0 0 0 0 0 0 0 0 0 0 0 0 0 0.25 0"/>
<feBlend mode="normal" in2="BackgroundImageFix" result="effect1_dropShadow_625_2437"/>
<feBlend mode="normal" in="SourceGraphic" in2="effect1_dropShadow_625_2437" result="shape"/>
</filter>
<clipPath id="clip0_625_2437">
<rect width="384" height="240" fill="white"/>
</clipPath>
<clipPath id="clip1_625_2437">
<path d="M32 40C32 35.5817 35.5817 32 40 32H584V424H32V40Z" fill="white"/>
</clipPath>
<clipPath id="clip2_625_2437">
<path d="M32 32H797V64H32V32Z" fill="white"/>
</clipPath>
<clipPath id="clip3_625_2437">
<path d="M32 64H797V88H32V64Z" fill="white"/>
</clipPath>
</defs>
</svg>
