<svg xmlns="http://www.w3.org/2000/svg" width="594" height="364" fill="none"><g clip-path="url(#a)"><g clip-path="url(#b)"><path fill="#FCF9F8" d="M72 80a8 8 0 0 1 8-8h544v392H72V80Z"/><g clip-path="url(#c)"><path fill="#F1F4F9" d="M72 72h765v32H72V72Z"/><circle cx="93" cy="88" r="5" fill="#EE7244"/><circle cx="106" cy="88" r="5" fill="#F4D340"/><circle cx="119" cy="88" r="5" fill="#7EB52F"/><path stroke="#D9DFE8" stroke-width="2" d="m132 104 12-32"/><path fill="#fff" stroke="#8C94A2" stroke-linecap="round" stroke-linejoin="round" stroke-miterlimit="10" stroke-width="2" d="M166 82.5a.5.5 0 0 1 .5-.5h8.889a.5.5 0 0 1 .5.5v2.645c0 .383.424.642.793.544.922-.245 2.318-.2 2.318 2.311 0 2.512-1.396 2.556-2.318 2.311-.369-.098-.793.161-.793.544V93.5a.5.5 0 0 1-.5.5H166.5a.5.5 0 0 1-.5-.5v-2.732c0-.362.379-.618.734-.55.92.177 2.377.092 2.377-2.218s-1.457-2.395-2.377-2.218c-.355.068-.734-.188-.734-.55V82.5Z"/><path stroke="#8C94A2" stroke-linecap="round" stroke-linejoin="round" stroke-miterlimit="10" stroke-width="2" d="M188 88h54"/><path stroke="#D9DFE8" stroke-width="2" d="m262 104 12-32"/></g><path fill="#D9DFE8" d="M837 103H72v2h765v-2Z"/><g clip-path="url(#d)"><path fill="#F1F4F9" d="M72 104h765v24H72v-24Z"/><path fill="#F1F4F9" d="M72 104h208v24H72v-24Z"/><path fill="#D9DFE8" d="M280 104h1v-1h-1v1Zm0 24v1h1v-1h-1ZM72 105h208v-2H72v2Zm207-1v24h2v-24h-2Zm1 23H72v2h208v-2Z"/><path fill="#76A3ED" stroke="#406DC8" stroke-linecap="round" stroke-miterlimit="10" stroke-width="2" d="M95 114H81v-3c0-.55.45-1 1-1h5l.67 1H94c.55 0 1 .45 1 1v2Z"/><path fill="#CBDFF8" stroke="#406DC8" stroke-linecap="round" stroke-linejoin="round" stroke-miterlimit="10" stroke-width="2" d="M81 114h14v7a1 1 0 0 1-1 1H82a1 1 0 0 1-1-1v-7Z"/><circle cx="120.2" cy="112" r="2" fill="#fff" stroke="#8C94A2" stroke-width="2"/><circle cx="126.2" cy="120" r="2" fill="#fff" stroke="#8C94A2" stroke-width="2"/><path stroke="#8C94A2" stroke-width="2" d="M120.2 114v9M126.2 109v9"/><path fill="#fff" stroke="#8C94A2" stroke-linecap="round" stroke-linejoin="round" stroke-miterlimit="10" stroke-width="2" d="M158.4 122.5a5.5 5.5 0 1 0 0-11 5.5 5.5 0 0 0 0 11Z"/><path stroke="#8C94A2" stroke-linecap="round" stroke-linejoin="round" stroke-miterlimit="10" stroke-width="2" d="m152.4 111.5 2-2M164.4 111.5l-2-2"/><path fill="#F1F4F9" d="M158.4 115v2h2"/><path stroke="#8C94A2" stroke-linecap="round" stroke-linejoin="round" stroke-miterlimit="10" stroke-width="2" d="M158.4 115v2h2"/><path stroke="#8C94A2" stroke-linecap="round" stroke-miterlimit="10" stroke-width="4" d="m196.6 119 2 2"/><circle cx="192.6" cy="115" r="5" fill="#fff" stroke="#8C94A2" stroke-width="2"/><rect width="10" height="10" x="223.8" y="111" stroke="#8C94A2" stroke-linecap="round" stroke-linejoin="round" stroke-miterlimit="10" stroke-width="2" rx="1"/><path fill="#fff" stroke="#8C94A2" stroke-linecap="round" stroke-linejoin="round" stroke-miterlimit="10" stroke-width="2" d="M259 110.741a1 1 0 0 1 1.504-.864l9.015 5.259a1 1 0 0 1 0 1.728l-9.015 5.259a1 1 0 0 1-1.504-.864v-10.518Z"/><path fill="#F1F4F9" d="M280 104h456v24H280z"/><path stroke="#D9DFE8" stroke-width="2" d="M280 104h456v24H280z"/><path fill="#EE7244" stroke="#BE270F" stroke-linecap="round" stroke-miterlimit="10" stroke-width="2" d="M303 114h-14v-3c0-.55.45-1 1-1h5l.67 1H302c.55 0 1 .45 1 1v2Z"/><path fill="#F7C1A3" stroke="#BE270F" stroke-linecap="round" stroke-linejoin="round" stroke-miterlimit="10" stroke-width="2" d="M289 114h14v7a1 1 0 0 1-1 1h-12a1 1 0 0 1-1-1v-7Z"/><path stroke="#8C94A2" stroke-linecap="round" stroke-linejoin="round" stroke-miterlimit="10" stroke-width="2" d="M312 116h32"/><path fill="#E8AA00" stroke="#B15A00" stroke-linecap="round" stroke-miterlimit="10" stroke-width="2" d="M375 114h-14v-3c0-.55.45-1 1-1h5l.67 1H374c.55 0 1 .45 1 1v2Z"/><path fill="#F8E58E" stroke="#B15A00" stroke-linecap="round" stroke-linejoin="round" stroke-miterlimit="10" stroke-width="2" d="M361 114h14v7a1 1 0 0 1-1 1h-12a1 1 0 0 1-1-1v-7Z"/><path stroke="#8C94A2" stroke-linecap="round" stroke-linejoin="round" stroke-miterlimit="10" stroke-width="2" d="M384 116h32"/><path fill="#E8AA00" stroke="#B15A00" stroke-linecap="round" stroke-miterlimit="10" stroke-width="2" d="M447 114h-14v-3c0-.55.45-1 1-1h5l.67 1H446c.55 0 1 .45 1 1v2Z"/><path fill="#F8E58E" stroke="#B15A00" stroke-linecap="round" stroke-linejoin="round" stroke-miterlimit="10" stroke-width="2" d="M433 114h14v7a1 1 0 0 1-1 1h-12a1 1 0 0 1-1-1v-7Z"/><path stroke="#8C94A2" stroke-linecap="round" stroke-linejoin="round" stroke-miterlimit="10" stroke-width="2" d="M456 116h32"/><path fill="#76A3ED" stroke="#406DC8" stroke-linecap="round" stroke-miterlimit="10" stroke-width="2" d="M519 114h-14v-3c0-.55.45-1 1-1h5l.67 1H518c.55 0 1 .45 1 1v2Z"/><path fill="#CBDFF8" stroke="#406DC8" stroke-linecap="round" stroke-linejoin="round" stroke-miterlimit="10" stroke-width="2" d="M505 114h14v7a1 1 0 0 1-1 1h-12a1 1 0 0 1-1-1v-7Z"/><path stroke="#8C94A2" stroke-linecap="round" stroke-linejoin="round" stroke-miterlimit="10" stroke-width="2" d="M528 116h32"/><path fill="#EE7244" stroke="#BE270F" stroke-linecap="round" stroke-miterlimit="10" stroke-width="2" d="M591 114h-14v-3c0-.55.45-1 1-1h5l.67 1H590c.55 0 1 .45 1 1v2Z"/><path fill="#F7C1A3" stroke="#BE270F" stroke-linecap="round" stroke-linejoin="round" stroke-miterlimit="10" stroke-width="2" d="M577 114h14v7a1 1 0 0 1-1 1h-12a1 1 0 0 1-1-1v-7Z"/></g><path fill="#D9DFE8" d="M837 127H72v2h765v-2Z"/><mask id="e" width="210" height="594" x="72" y="128" fill="#000" maskUnits="userSpaceOnUse"><path fill="#fff" d="M72 128h210v594H72z"/><path d="M72 128h208v594H72V128Z"/></mask><path fill="#FCF9F8" d="M72 128h208v594H72V128Z"/><path fill="#E8DCD9" d="M278 128v594h4V128h-4Z" mask="url(#e)"/><path fill="#E8DCD9" d="M280 158H72v4h208v-4Z" mask="url(#path-48-inside-2_705_1865)"/><path fill="#FCF9F8" stroke="#76A3ED" stroke-linecap="round" stroke-miterlimit="10" stroke-width="2" d="M95 142H81v-3c0-.55.45-1 1-1h5l.67 1H94c.55 0 1 .45 1 1v2Z"/><path fill="#FCF9F8" stroke="#76A3ED" stroke-linecap="round" stroke-linejoin="round" stroke-miterlimit="10" stroke-width="2" d="M81 142h14v7a1 1 0 0 1-1 1H82a1 1 0 0 1-1-1v-7Z"/><path stroke="#092E24" stroke-linecap="round" stroke-linejoin="round" stroke-miterlimit="10" stroke-width="2" d="M104 144h32"/><path stroke="#F1F4F9" stroke-linecap="round" stroke-linejoin="round" stroke-miterlimit="10" stroke-width="2" d="m147 142 5 4 5-4M250 139l-4 5 4 5M262 139l4 5-4 5M94 171l4 5-4 5"/><path fill="#FCF9F8" stroke="#76A3ED" stroke-linecap="round" stroke-miterlimit="10" stroke-width="2" d="M127 174h-14v-3c0-.55.45-1 1-1h5l.67 1H126c.55 0 1 .45 1 1v2Z"/><path fill="#FCF9F8" stroke="#76A3ED" stroke-linecap="round" stroke-linejoin="round" stroke-miterlimit="10" stroke-width="2" d="M113 174h14v7a1 1 0 0 1-1 1h-12a1 1 0 0 1-1-1v-7Z"/><path stroke="#092E24" stroke-linecap="round" stroke-linejoin="round" stroke-miterlimit="10" stroke-width="2" d="M136 176h32"/><path stroke="#F1F4F9" stroke-linecap="round" stroke-linejoin="round" stroke-miterlimit="10" stroke-width="2" d="m94 195 4 5-4 5"/><path fill="#FCF9F8" stroke="#76A3ED" stroke-linecap="round" stroke-miterlimit="10" stroke-width="2" d="M127 198h-14v-3c0-.55.45-1 1-1h5l.67 1H126c.55 0 1 .45 1 1v2Z"/><path fill="#FCF9F8" stroke="#76A3ED" stroke-linecap="round" stroke-linejoin="round" stroke-miterlimit="10" stroke-width="2" d="M113 198h14v7a1 1 0 0 1-1 1h-12a1 1 0 0 1-1-1v-7Z"/><path stroke="#092E24" stroke-linecap="round" stroke-linejoin="round" stroke-miterlimit="10" stroke-width="2" d="M136 200h32"/><path stroke="#F1F4F9" stroke-linecap="round" stroke-linejoin="round" stroke-miterlimit="10" stroke-width="2" d="m94 219 4 5-4 5"/><path fill="#FCF9F8" stroke="#76A3ED" stroke-linecap="round" stroke-miterlimit="10" stroke-width="2" d="M127 222h-14v-3c0-.55.45-1 1-1h5l.67 1H126c.55 0 1 .45 1 1v2Z"/><path fill="#FCF9F8" stroke="#76A3ED" stroke-linecap="round" stroke-linejoin="round" stroke-miterlimit="10" stroke-width="2" d="M113 222h14v7a1 1 0 0 1-1 1h-12a1 1 0 0 1-1-1v-7Z"/><path stroke="#092E24" stroke-linecap="round" stroke-linejoin="round" stroke-miterlimit="10" stroke-width="2" d="M136 224h32"/><path stroke="#F1F4F9" stroke-linecap="round" stroke-linejoin="round" stroke-miterlimit="10" stroke-width="2" d="m91 246 5 4 5-4"/><path fill="#FCF9F8" stroke="#76A3ED" stroke-linecap="round" stroke-miterlimit="10" stroke-width="2" d="M127 246h-14v-3c0-.55.45-1 1-1h5l.67 1H126c.55 0 1 .45 1 1v2Z"/><path fill="#FCF9F8" stroke="#76A3ED" stroke-linecap="round" stroke-linejoin="round" stroke-miterlimit="10" stroke-width="2" d="M113 246h14v7a1 1 0 0 1-1 1h-12a1 1 0 0 1-1-1v-7Z"/><path stroke="#092E24" stroke-linecap="round" stroke-linejoin="round" stroke-miterlimit="10" stroke-width="2" d="M136 248h32"/><path stroke="#F1F4F9" stroke-linecap="round" stroke-linejoin="round" stroke-miterlimit="10" stroke-width="2" d="m118 267 4 5-4 5"/><path fill="#FCF9F8" stroke="#76A3ED" stroke-linecap="round" stroke-miterlimit="10" stroke-width="2" d="M151 270h-14v-3c0-.55.45-1 1-1h5l.67 1H150c.55 0 1 .45 1 1v2Z"/><path fill="#FCF9F8" stroke="#76A3ED" stroke-linecap="round" stroke-linejoin="round" stroke-miterlimit="10" stroke-width="2" d="M137 270h14v7a1 1 0 0 1-1 1h-12a1 1 0 0 1-1-1v-7Z"/><path stroke="#092E24" stroke-linecap="round" stroke-linejoin="round" stroke-miterlimit="10" stroke-width="2" d="M160 272h32"/><path stroke="#F1F4F9" stroke-linecap="round" stroke-linejoin="round" stroke-miterlimit="10" stroke-width="2" d="m118 291 4 5-4 5"/><path fill="#FCF9F8" stroke="#76A3ED" stroke-linecap="round" stroke-miterlimit="10" stroke-width="2" d="M151 294h-14v-3c0-.55.45-1 1-1h5l.67 1H150c.55 0 1 .45 1 1v2Z"/><path fill="#FCF9F8" stroke="#76A3ED" stroke-linecap="round" stroke-linejoin="round" stroke-miterlimit="10" stroke-width="2" d="M137 294h14v7a1 1 0 0 1-1 1h-12a1 1 0 0 1-1-1v-7Z"/><path stroke="#092E24" stroke-linecap="round" stroke-linejoin="round" stroke-miterlimit="10" stroke-width="2" d="M160 296h32"/><path stroke="#F1F4F9" stroke-linecap="round" stroke-linejoin="round" stroke-miterlimit="10" stroke-width="2" d="m118 315 4 5-4 5"/><path fill="#FCF9F8" stroke="#76A3ED" stroke-linecap="round" stroke-miterlimit="10" stroke-width="2" d="M151 318h-14v-3c0-.55.45-1 1-1h5l.67 1H150c.55 0 1 .45 1 1v2Z"/><path fill="#FCF9F8" stroke="#76A3ED" stroke-linecap="round" stroke-linejoin="round" stroke-miterlimit="10" stroke-width="2" d="M137 318h14v7a1 1 0 0 1-1 1h-12a1 1 0 0 1-1-1v-7Z"/><path stroke="#092E24" stroke-linecap="round" stroke-linejoin="round" stroke-miterlimit="10" stroke-width="2" d="M160 320h32"/><path fill="#FCF9F8" stroke="#E8AA00" stroke-linecap="round" stroke-miterlimit="10" stroke-width="2" d="M127 342h-14v-3c0-.55.45-1 1-1h5l.67 1H126c.55 0 1 .45 1 1v2Z"/><path fill="#FCF9F8" stroke="#E8AA00" stroke-linecap="round" stroke-linejoin="round" stroke-miterlimit="10" stroke-width="2" d="M113 342h14v7a1 1 0 0 1-1 1h-12a1 1 0 0 1-1-1v-7Z"/><path stroke="#092E24" stroke-linecap="round" stroke-linejoin="round" stroke-miterlimit="10" stroke-width="2" d="M136 344h32"/><path fill="#FCF9F8" stroke="#E8AA00" stroke-linecap="round" stroke-miterlimit="10" stroke-width="2" d="M127 366h-14v-3c0-.55.45-1 1-1h5l.67 1H126c.55 0 1 .45 1 1v2Z"/><g clip-path="url(#f)"><path fill="#F8FAFC" d="M280 128h344v594H280V128Z"/><path stroke="#D9DFE8" stroke-width="2" d="M280 128h344v32H280z"/><path fill="#76A3ED" stroke="#406DC8" stroke-linecap="round" stroke-miterlimit="10" stroke-width="2" d="M303 142h-14v-3c0-.55.45-1 1-1h5l.67 1H302c.55 0 1 .45 1 1v2Z"/><path fill="#CBDFF8" stroke="#406DC8" stroke-linecap="round" stroke-linejoin="round" stroke-miterlimit="10" stroke-width="2" d="M289 142h14v7a1 1 0 0 1-1 1h-12a1 1 0 0 1-1-1v-7Z"/><path stroke="#8C94A2" stroke-linecap="round" stroke-linejoin="round" stroke-miterlimit="10" stroke-width="2" d="M312 144h32"/><path stroke="#8C94A2" stroke-linecap="round" stroke-width="2" d="m352 150 6-12"/><path fill="#76A3ED" stroke="#406DC8" stroke-linecap="round" stroke-miterlimit="10" stroke-width="2" d="M381 142h-14v-3c0-.55.45-1 1-1h5l.67 1H380c.55 0 1 .45 1 1v2Z"/><path fill="#CBDFF8" stroke="#406DC8" stroke-linecap="round" stroke-linejoin="round" stroke-miterlimit="10" stroke-width="2" d="M367 142h14v7a1 1 0 0 1-1 1h-12a1 1 0 0 1-1-1v-7Z"/><path stroke="#8C94A2" stroke-linecap="round" stroke-linejoin="round" stroke-miterlimit="10" stroke-width="2" d="M390 144h32"/><path stroke="#8C94A2" stroke-linecap="round" stroke-width="2" d="m430 150 6-12"/><path fill="#fff" d="M448 138h8v4l2 2-2 2v4h-8v-4l-2-2 2-2v-4Z"/><path stroke="#406DC8" stroke-width="2" d="M450 138h-.5a1.5 1.5 0 0 0-1.5 1.5v2.293a.5.5 0 0 1-.146.353l-1.5 1.5a.5.5 0 0 0 0 .708l1.5 1.5a.5.5 0 0 1 .146.353v2.293a1.5 1.5 0 0 0 1.5 1.5h.5M454 138h.5a1.5 1.5 0 0 1 1.5 1.5v2.293a.5.5 0 0 0 .146.353l1.5 1.5a.5.5 0 0 1 0 .708l-1.5 1.5a.5.5 0 0 0-.146.353v2.293a1.5 1.5 0 0 1-1.5 1.5h-.5"/><path stroke="#8C94A2" stroke-linecap="round" stroke-linejoin="round" stroke-miterlimit="10" stroke-width="2" d="M468 144h20"/><path fill="#B7BECB" d="M301.358 177v-1.176h2.556v-3.78h-1.776v-.96l1.032-.024c.768-.024.924-.336.948-2.016h1.2v6.78h2.088V177h-6.048Z"/><path stroke="#EB88E7" stroke-linecap="round" stroke-linejoin="round" stroke-miterlimit="10" stroke-width="2" d="M324 174h32"/><path stroke="#E8AA00" stroke-linecap="round" stroke-linejoin="round" stroke-miterlimit="10" stroke-width="2" d="M372 174h24"/><path stroke="#8C94A2" stroke-linecap="round" stroke-linejoin="round" stroke-miterlimit="10" stroke-width="2" d="M412 174h32"/><path fill="#B7BECB" d="M301.382 197c0-1.752.228-2.292 2.292-3.252 1.776-.84 2.136-1.296 2.136-2.196 0-.828-.552-1.38-1.476-1.38-1.056 0-1.644.648-1.644 1.764 0 .264.024.564.06.792h-1.26a5.276 5.276 0 0 1-.06-.888c0-1.704.996-2.844 2.94-2.844 1.8 0 2.844 1.044 2.844 2.484 0 1.224-.54 2.04-2.676 3.036-1.488.684-1.632.912-1.632 1.308h4.452V197h-5.976Z"/><path stroke="#EB88E7" stroke-linecap="round" stroke-linejoin="round" stroke-miterlimit="10" stroke-width="2" d="M324 194h32"/><path stroke="#E8AA00" stroke-linecap="round" stroke-linejoin="round" stroke-miterlimit="10" stroke-width="2" d="M372 194h24"/><path stroke="#8C94A2" stroke-linecap="round" stroke-linejoin="round" stroke-miterlimit="10" stroke-width="2" d="M412 194h12"/><path fill="#B7BECB" d="M304.286 217.108c-1.92 0-3.084-.936-3.084-2.484 0-.204.024-.456.036-.588h1.272c-.012.18-.012.312-.012.384 0 .972.648 1.512 1.788 1.512 1.188 0 1.872-.552 1.872-1.464 0-.66-.444-1.008-1.272-1.008h-1.212v-.924h1.02c.78 0 1.188-.42 1.188-1.104 0-.792-.588-1.26-1.536-1.26-1.104 0-1.692.552-1.692 1.452 0 .192.012.36.024.468h-1.236c-.036-.132-.06-.396-.06-.684 0-1.488 1.116-2.412 3-2.412 1.68 0 2.808.828 2.808 2.232 0 .768-.408 1.38-1.08 1.536v.036c.9.144 1.44.816 1.44 1.752 0 1.584-1.224 2.556-3.264 2.556Z"/><path stroke="#EB88E7" stroke-linecap="round" stroke-linejoin="round" stroke-miterlimit="10" stroke-width="2" d="M324 214h32"/><path stroke="#E8AA00" stroke-linecap="round" stroke-linejoin="round" stroke-miterlimit="10" stroke-width="2" d="M372 214h24"/><path stroke="#8C94A2" stroke-linecap="round" stroke-linejoin="round" stroke-miterlimit="10" stroke-width="2" d="M412 214h18"/><path fill="#B7BECB" d="M305.234 237v-1.716h-4.128v-1.176l4.008-5.004h1.524v5.004h1.224v1.176h-1.224V237h-1.404Zm-2.76-2.892h2.76v-3.432h-.012l-2.748 3.42v.012ZM304.466 257.108c-1.908 0-3.096-.84-3.096-2.184 0-.12.012-.24.024-.312h1.296c-.012.096-.012.168-.012.216 0 .672.696 1.104 1.764 1.104 1.008 0 1.632-.66 1.632-1.62 0-.9-.636-1.452-1.668-1.452-.792 0-1.416.348-1.62.912l-1.308-.132.324-4.536h5.196v1.176h-4.032l-.204 2.616.024.012c.24-.636.972-1.032 2.016-1.032 1.704 0 2.676.948 2.676 2.436 0 1.68-1.164 2.796-3.012 2.796Z"/><path stroke="#8C94A2" stroke-linecap="round" stroke-linejoin="round" stroke-miterlimit="10" stroke-width="2" d="M324 254h64"/><path fill="#B7BECB" d="M304.514 277.108c-2.328 0-3.312-1.452-3.312-4.008 0-2.544 1.14-4.104 3.312-4.104 1.8 0 2.784.924 2.784 2.424 0 .144-.012.312-.024.42h-1.272c.012-.12.024-.24.024-.372 0-.78-.516-1.296-1.488-1.296-1.32 0-1.932 1.068-1.932 2.844v.636h.024c.156-.792.936-1.272 2.196-1.272 1.8 0 2.736.816 2.736 2.16 0 1.584-1.164 2.568-3.048 2.568Zm.012-1.152c1.02 0 1.668-.552 1.668-1.416 0-.732-.588-1.164-1.656-1.164-1.128 0-1.824.528-1.824 1.236.096.792.792 1.344 1.812 1.344Z"/><path stroke="#EB88E7" stroke-linecap="round" stroke-linejoin="round" stroke-miterlimit="10" stroke-width="2" d="M324 274h32"/><path stroke="#E8AA00" stroke-linecap="round" stroke-linejoin="round" stroke-miterlimit="10" stroke-width="2" d="M372 274h24"/><path stroke="#8C94A2" stroke-linecap="round" stroke-linejoin="round" stroke-miterlimit="10" stroke-width="2" d="M412 274h32"/><path fill="#B7BECB" d="M302.366 297c.564-2.784 1.872-4.956 3.744-6.648v-.012h-4.968v-1.236h6.468v1.152c-2.172 2.088-3.084 4.032-3.6 6.744h-1.644Z"/><path stroke="#EB88E7" stroke-linecap="round" stroke-linejoin="round" stroke-miterlimit="10" stroke-width="2" d="M324 294h32"/><path stroke="#E8AA00" stroke-linecap="round" stroke-linejoin="round" stroke-miterlimit="10" stroke-width="2" d="M372 294h24"/><path stroke="#8C94A2" stroke-linecap="round" stroke-linejoin="round" stroke-miterlimit="10" stroke-width="2" d="M412 294h32"/><path fill="#B7BECB" d="M304.382 317.108c-1.98 0-3.192-.888-3.192-2.352 0-.984.612-1.692 1.572-1.872v-.012c-.78-.168-1.224-.828-1.224-1.644 0-1.404 1.08-2.232 2.844-2.232 1.764 0 2.844.828 2.844 2.232 0 .816-.444 1.476-1.224 1.644v.012c.948.18 1.572.888 1.572 1.872 0 1.464-1.212 2.352-3.192 2.352Zm0-4.608c.972 0 1.572-.444 1.572-1.164 0-.756-.6-1.224-1.572-1.224-.972 0-1.572.468-1.572 1.224 0 .72.6 1.164 1.572 1.164Zm0 3.492c1.104 0 1.8-.504 1.8-1.308 0-.768-.696-1.236-1.8-1.236s-1.8.468-1.8 1.236c0 .804.696 1.308 1.8 1.308ZM304.298 337.108c-1.836 0-2.916-.888-2.916-2.22 0-.084 0-.264.012-.396h1.272c-.012.132-.012.24-.012.288 0 .684.588 1.152 1.632 1.152 1.272 0 1.872-.912 1.872-2.832 0-.192-.012-.444-.024-.612h-.024c-.12.864-.852 1.452-2.124 1.452-1.788 0-2.784-.9-2.784-2.28 0-1.632 1.2-2.664 3.084-2.664 2.028 0 3.276 1.152 3.276 3.972 0 2.76-1.176 4.14-3.264 4.14Zm-.12-4.164c1.14 0 1.836-.612 1.836-1.488-.072-.744-.684-1.296-1.728-1.296-1.08 0-1.716.588-1.716 1.452 0 .828.624 1.332 1.608 1.332Z"/><path stroke="#EB88E7" stroke-linecap="round" stroke-linejoin="round" stroke-miterlimit="10" stroke-width="2" d="M324 334h18"/><path stroke="#E8AA00" stroke-linecap="round" stroke-linejoin="round" stroke-miterlimit="10" stroke-width="2" d="M358 334h24"/><path stroke="#8C94A2" stroke-linecap="round" stroke-linejoin="round" stroke-miterlimit="10" stroke-width="2" d="M398 334h32"/><path fill="#B7BECB" d="M294.116 357v-1.176h2.556v-3.78h-1.776v-.96l1.032-.024c.768-.024.924-.336.948-2.016h1.2v6.78h2.088V357h-6.048Zm10.266.108c-2.112 0-3.18-1.608-3.18-4.092 0-2.484 1.116-4.02 3.18-4.02s3.18 1.536 3.18 4.02c0 2.484-1.068 4.092-3.18 4.092Zm0-1.176c1.176 0 1.788-1.092 1.788-2.916 0-1.788-.624-2.844-1.788-2.844-1.164 0-1.788 1.056-1.788 2.844 0 1.824.6 2.916 1.788 2.916Z"/><path stroke="#EB88E7" stroke-linecap="round" stroke-linejoin="round" stroke-miterlimit="10" stroke-width="2" d="M340 354h18"/><path stroke="#8C94A2" stroke-linecap="round" stroke-linejoin="round" stroke-miterlimit="10" stroke-width="2" d="M374 354h48"/></g><path fill="#D9DFE8" d="M623 128v594h2V128h-2Z"/><g clip-path="url(#g)"><path fill="#F1F4F9" d="M72 128h208v594H72V128Z"/><path fill="#F1F4F9" d="M72 128h208v32H72v-32Z"/><path fill="#D9DFE8" d="M280 128h1v-1h-1v1Zm0 32v1h1v-1h-1ZM72 129h208v-2H72v2Zm207-1v32h2v-32h-2Zm1 31H72v2h208v-2Z"/><path fill="#76A3ED" stroke="#406DC8" stroke-linecap="round" stroke-miterlimit="10" stroke-width="2" d="M95 142H81v-3c0-.55.45-1 1-1h5l.67 1H94c.55 0 1 .45 1 1v2Z"/><path fill="#CBDFF8" stroke="#406DC8" stroke-linecap="round" stroke-linejoin="round" stroke-miterlimit="10" stroke-width="2" d="M81 142h14v7a1 1 0 0 1-1 1H82a1 1 0 0 1-1-1v-7Z"/><path stroke="#8C94A2" stroke-linecap="round" stroke-linejoin="round" stroke-miterlimit="10" stroke-width="2" d="M104 144h32M147 142l5 4 5-4M250 139l-4 5 4 5M262 139l4 5-4 5M94 171l4 5-4 5"/><path fill="#76A3ED" stroke="#406DC8" stroke-linecap="round" stroke-miterlimit="10" stroke-width="2" d="M127 174h-14v-3c0-.55.45-1 1-1h5l.67 1H126c.55 0 1 .45 1 1v2Z"/><path fill="#CBDFF8" stroke="#406DC8" stroke-linecap="round" stroke-linejoin="round" stroke-miterlimit="10" stroke-width="2" d="M113 174h14v7a1 1 0 0 1-1 1h-12a1 1 0 0 1-1-1v-7Z"/><path stroke="#8C94A2" stroke-linecap="round" stroke-linejoin="round" stroke-miterlimit="10" stroke-width="2" d="M136 176h32M94 195l4 5-4 5"/><path fill="#76A3ED" stroke="#406DC8" stroke-linecap="round" stroke-miterlimit="10" stroke-width="2" d="M127 198h-14v-3c0-.55.45-1 1-1h5l.67 1H126c.55 0 1 .45 1 1v2Z"/><path fill="#CBDFF8" stroke="#406DC8" stroke-linecap="round" stroke-linejoin="round" stroke-miterlimit="10" stroke-width="2" d="M113 198h14v7a1 1 0 0 1-1 1h-12a1 1 0 0 1-1-1v-7Z"/><path stroke="#8C94A2" stroke-linecap="round" stroke-linejoin="round" stroke-miterlimit="10" stroke-width="2" d="M136 200h32M94 219l4 5-4 5"/><path fill="#76A3ED" stroke="#406DC8" stroke-linecap="round" stroke-miterlimit="10" stroke-width="2" d="M127 222h-14v-3c0-.55.45-1 1-1h5l.67 1H126c.55 0 1 .45 1 1v2Z"/><path fill="#CBDFF8" stroke="#406DC8" stroke-linecap="round" stroke-linejoin="round" stroke-miterlimit="10" stroke-width="2" d="M113 222h14v7a1 1 0 0 1-1 1h-12a1 1 0 0 1-1-1v-7Z"/><path stroke="#8C94A2" stroke-linecap="round" stroke-linejoin="round" stroke-miterlimit="10" stroke-width="2" d="M136 224h32M94 243l4 5-4 5"/><path fill="#76A3ED" stroke="#406DC8" stroke-linecap="round" stroke-miterlimit="10" stroke-width="2" d="M127 246h-14v-3c0-.55.45-1 1-1h5l.67 1H126c.55 0 1 .45 1 1v2Z"/><path fill="#CBDFF8" stroke="#406DC8" stroke-linecap="round" stroke-linejoin="round" stroke-miterlimit="10" stroke-width="2" d="M113 246h14v7a1 1 0 0 1-1 1h-12a1 1 0 0 1-1-1v-7Z"/><path stroke="#8C94A2" stroke-linecap="round" stroke-linejoin="round" stroke-miterlimit="10" stroke-width="2" d="M136 248h32M118 267l4 5-4 5"/><path fill="#76A3ED" stroke="#406DC8" stroke-linecap="round" stroke-miterlimit="10" stroke-width="2" d="M151 270h-14v-3c0-.55.45-1 1-1h5l.67 1H150c.55 0 1 .45 1 1v2Z"/><path fill="#CBDFF8" stroke="#406DC8" stroke-linecap="round" stroke-linejoin="round" stroke-miterlimit="10" stroke-width="2" d="M137 270h14v7a1 1 0 0 1-1 1h-12a1 1 0 0 1-1-1v-7Z"/><path stroke="#8C94A2" stroke-linecap="round" stroke-linejoin="round" stroke-miterlimit="10" stroke-width="2" d="M160 272h32M118 291l4 5-4 5"/><path fill="#76A3ED" stroke="#406DC8" stroke-linecap="round" stroke-miterlimit="10" stroke-width="2" d="M151 294h-14v-3c0-.55.45-1 1-1h5l.67 1H150c.55 0 1 .45 1 1v2Z"/><path fill="#CBDFF8" stroke="#406DC8" stroke-linecap="round" stroke-linejoin="round" stroke-miterlimit="10" stroke-width="2" d="M137 294h14v7a1 1 0 0 1-1 1h-12a1 1 0 0 1-1-1v-7Z"/><path stroke="#8C94A2" stroke-linecap="round" stroke-linejoin="round" stroke-miterlimit="10" stroke-width="2" d="M160 296h32M118 315l4 5-4 5"/><path fill="#76A3ED" stroke="#406DC8" stroke-linecap="round" stroke-miterlimit="10" stroke-width="2" d="M151 318h-14v-3c0-.55.45-1 1-1h5l.67 1H150c.55 0 1 .45 1 1v2Z"/><path fill="#CBDFF8" stroke="#406DC8" stroke-linecap="round" stroke-linejoin="round" stroke-miterlimit="10" stroke-width="2" d="M137 318h14v7a1 1 0 0 1-1 1h-12a1 1 0 0 1-1-1v-7Z"/><path stroke="#8C94A2" stroke-linecap="round" stroke-linejoin="round" stroke-miterlimit="10" stroke-width="2" d="M160 320h32"/><path fill="#E8AA00" stroke="#B15A00" stroke-linecap="round" stroke-miterlimit="10" stroke-width="2" d="M127 342h-14v-3c0-.55.45-1 1-1h5l.67 1H126c.55 0 1 .45 1 1v2Z"/><path fill="#F8E58E" stroke="#B15A00" stroke-linecap="round" stroke-linejoin="round" stroke-miterlimit="10" stroke-width="2" d="M113 342h14v7a1 1 0 0 1-1 1h-12a1 1 0 0 1-1-1v-7Z"/><path stroke="#8C94A2" stroke-linecap="round" stroke-linejoin="round" stroke-miterlimit="10" stroke-width="2" d="M136 344h32"/><path fill="#E8AA00" stroke="#B15A00" stroke-linecap="round" stroke-miterlimit="10" stroke-width="2" d="M127 366h-14v-3c0-.55.45-1 1-1h5l.67 1H126c.55 0 1 .45 1 1v2Z"/></g><path fill="#D9DFE8" d="M279 128v594h2V128h-2Z"/></g><path stroke="#22468E" stroke-opacity=".1" stroke-width="2" d="M625 72v-1H80a9 9 0 0 0-9 9v385h554V72Z"/></g><defs><clipPath id="a"><path fill="#fff" d="M0 0h594v364H0z"/></clipPath><clipPath id="b"><path fill="#fff" d="M72 80a8 8 0 0 1 8-8h544v392H72V80Z"/></clipPath><clipPath id="c"><path fill="#fff" d="M72 72h765v32H72V72Z"/></clipPath><clipPath id="d"><path fill="#fff" d="M72 104h765v24H72v-24Z"/></clipPath><clipPath id="f"><path fill="#fff" d="M280 128h344v594H280V128Z"/></clipPath><clipPath id="g"><path fill="#fff" d="M72 128h208v594H72V128Z"/></clipPath></defs></svg>
