<svg width="384" height="316" viewBox="0 0 384 316" fill="none" xmlns="http://www.w3.org/2000/svg">
<g clip-path="url(#clip0_625_2437)">
<g clip-path="url(#clip1_625_2437)">
<path d="M40 48C40 43.5817 43.5817 40 48 40H592V432H40V48Z" fill="#092E24"/>
<g clip-path="url(#clip2_625_2437)">
<mask id="path-3-inside-1_625_2437" fill="white">
<path d="M40 40H805V72H40V40Z"/>
</mask>
<path d="M40 40H805V72H40V40Z" fill="#092E24"/>
<circle cx="76.5" cy="51" r="6" fill="#8FB6F2" stroke="#092E24" stroke-width="2" stroke-miterlimit="10" stroke-linecap="round" stroke-linejoin="round"/>
<path d="M86.5 58C86.5 61.3137 83.8137 64 80.5 64C77.1863 64 74.5 61.3137 74.5 58C74.5 54.6863 77.1863 52 80.5 52C83.8137 52 86.5 54.6863 86.5 58Z" fill="#A18AEC" stroke="#092E24" stroke-width="2" stroke-miterlimit="10" stroke-linecap="round" stroke-linejoin="round"/>
<circle cx="71.5" cy="58" r="6" fill="#F4966B" stroke="#092E24" stroke-width="2" stroke-miterlimit="10" stroke-linecap="round" stroke-linejoin="round"/>
<circle cx="76.5" cy="56" r="5" fill="#F4D340" stroke="#092E24" stroke-width="2" stroke-miterlimit="10" stroke-linecap="round" stroke-linejoin="round"/>
<path d="M96 72L108 40" stroke="#114034" stroke-width="2"/>
<rect x="120" y="48" width="16" height="16" rx="2" fill="#4A8B79"/>
<rect x="123" y="52" width="10" height="8" fill="#114034" stroke="#114034" stroke-miterlimit="10" stroke-linecap="round" stroke-linejoin="round"/>
<path d="M125 56L126 57L125 58" stroke="#ABD5C8" stroke-miterlimit="10" stroke-linecap="round" stroke-linejoin="round"/>
<path d="M128 58H129" stroke="#ABD5C8" stroke-miterlimit="10" stroke-linecap="round" stroke-linejoin="round"/>
<path d="M144 56H198" stroke="#EBFAF5" stroke-width="2" stroke-miterlimit="10" stroke-linecap="round" stroke-linejoin="round"/>
<path d="M210 72L222 40" stroke="#114034" stroke-width="2"/>
</g>
<path d="M805 70H40V74H805V70Z" fill="#114034" mask="url(#path-3-inside-1_625_2437)"/>
<g clip-path="url(#clip3_625_2437)">
<mask id="path-16-inside-2_625_2437" fill="white">
<path d="M40 72H805V96H40V72Z"/>
</mask>
<path d="M40 72H805V96H40V72Z" fill="#092E24"/>
<path d="M88.5 82H74.5V79C74.5 78.45 74.95 78 75.5 78H80.5L81.17 79H87.5C88.05 79 88.5 79.45 88.5 80V82Z" fill="#406DC8" stroke="#406DC8" stroke-width="2" stroke-miterlimit="10" stroke-linecap="round"/>
<path d="M74.5 82H88.5V89C88.5 89.5523 88.0523 90 87.5 90H75.5C74.9477 90 74.5 89.5523 74.5 89V82Z" fill="#8FB6F2" stroke="#8FB6F2" stroke-width="2" stroke-miterlimit="10" stroke-linecap="round" stroke-linejoin="round"/>
<circle cx="103.5" cy="80" r="2" fill="#092E24" stroke="#5F9D8B" stroke-width="2"/>
<circle cx="109.5" cy="88" r="2" fill="#092E24" stroke="#5F9D8B" stroke-width="2"/>
<path d="M103.5 82V91" stroke="#5F9D8B" stroke-width="2"/>
<path d="M109.5 77V86" stroke="#5F9D8B" stroke-width="2"/>
<g filter="url(#filter0_d_625_2437)">
<path d="M131.5 90.5C134.538 90.5 137 88.0376 137 85C137 81.9624 134.538 79.5 131.5 79.5C128.462 79.5 126 81.9624 126 85C126 88.0376 128.462 90.5 131.5 90.5Z" fill="#092E24" stroke="#5F9D8B" stroke-width="2" stroke-miterlimit="10" stroke-linecap="round" stroke-linejoin="round"/>
<path d="M125.5 79.5L127.5 77.5" stroke="#5F9D8B" stroke-width="2" stroke-miterlimit="10" stroke-linecap="round" stroke-linejoin="round"/>
<path d="M137.5 79.5L135.5 77.5" stroke="#5F9D8B" stroke-width="2" stroke-miterlimit="10" stroke-linecap="round" stroke-linejoin="round"/>
<path d="M131.5 83V85H133.5" fill="#092E24"/>
<path d="M131.5 83V85H133.5" stroke="#5F9D8B" stroke-width="2" stroke-miterlimit="10" stroke-linecap="round" stroke-linejoin="round"/>
</g>
<g filter="url(#filter1_d_625_2437)">
<path d="M159.5 87L161.5 89" stroke="#5F9D8B" stroke-width="4" stroke-miterlimit="10" stroke-linecap="round"/>
<circle cx="155.5" cy="83" r="5" fill="#092E24" stroke="#5F9D8B" stroke-width="2"/>
</g>
<g filter="url(#filter2_d_625_2437)">
<rect x="176.5" y="79" width="10" height="10" rx="1" stroke="#5F9D8B" stroke-width="2" stroke-miterlimit="10" stroke-linecap="round" stroke-linejoin="round"/>
</g>
<path d="M202.5 79.7662C202.5 78.9889 203.348 78.5088 204.014 78.9087L211.071 83.1425C211.718 83.5309 211.718 84.4691 211.071 84.8575L204.014 89.0913C203.348 89.4912 202.5 89.0111 202.5 88.2338L202.5 79.7662Z" fill="#092E24" stroke="#5F9D8B" stroke-width="2" stroke-miterlimit="10" stroke-linecap="round" stroke-linejoin="round"/>
<path d="M246 72V96H250V72H246Z" fill="#114034" mask="url(#path-18-outside-3_625_2437)"/>
<path d="M271 82H257V79C257 78.45 257.45 78 258 78H263L263.67 79H270C270.55 79 271 79.45 271 80V82Z" fill="#D63C1A" stroke="#D63C1A" stroke-width="2" stroke-miterlimit="10" stroke-linecap="round"/>
<path d="M257 82H271V89C271 89.5523 270.552 90 270 90H258C257.448 90 257 89.5523 257 89V82Z" fill="#F6AC87" stroke="#F6AC87" stroke-width="2" stroke-miterlimit="10" stroke-linecap="round" stroke-linejoin="round"/>
<path d="M280 84L312 84" stroke="#EBFAF5" stroke-width="2" stroke-miterlimit="10" stroke-linecap="round" stroke-linejoin="round"/>
<path d="M343 82H329V79C329 78.45 329.45 78 330 78H335L335.67 79H342C342.55 79 343 79.45 343 80V82Z" fill="#D63C1A" stroke="#D63C1A" stroke-width="2" stroke-miterlimit="10" stroke-linecap="round"/>
<path d="M329 82H343V89C343 89.5523 342.552 90 342 90H330C329.448 90 329 89.5523 329 89V82Z" fill="#F6AC87" stroke="#F6AC87" stroke-width="2" stroke-miterlimit="10" stroke-linecap="round" stroke-linejoin="round"/>
<path d="M352 84L384 84" stroke="#EBFAF5" stroke-width="2" stroke-miterlimit="10" stroke-linecap="round" stroke-linejoin="round"/>
</g>
<path d="M805 94H40V98H805V94Z" fill="#114034" mask="url(#path-16-inside-2_625_2437)"/>
<mask id="path-41-outside-4_625_2437" maskUnits="userSpaceOnUse" x="40" y="96" width="210" height="594" fill="black">
<rect fill="white" x="40" y="96" width="210" height="594"/>
<path d="M40 96H248V690H40V96Z"/>
</mask>
<path d="M40 96H248V690H40V96Z" fill="#092E24"/>
<path d="M63 110H49V107C49 106.45 49.45 106 50 106H55L55.67 107H62C62.55 107 63 107.45 63 108V110Z" fill="#092E24" stroke="#76A3ED" stroke-width="2" stroke-miterlimit="10" stroke-linecap="round"/>
<path d="M49 110H63V117C63 117.552 62.5523 118 62 118H50C49.4477 118 49 117.552 49 117V110Z" fill="#092E24" stroke="#76A3ED" stroke-width="2" stroke-miterlimit="10" stroke-linecap="round" stroke-linejoin="round"/>
<path d="M72 112L104 112" stroke="#EBFAF5" stroke-width="2" stroke-miterlimit="10" stroke-linecap="round" stroke-linejoin="round"/>
<path d="M115 110L120 114L125 110" stroke="#CAE7DE" stroke-width="2" stroke-miterlimit="10" stroke-linecap="round" stroke-linejoin="round"/>
<path d="M218 107L214 112L218 117" stroke="#CAE7DE" stroke-width="2" stroke-miterlimit="10" stroke-linecap="round" stroke-linejoin="round"/>
<path d="M230 107L234 112L230 117" stroke="#CAE7DE" stroke-width="2" stroke-miterlimit="10" stroke-linecap="round" stroke-linejoin="round"/>
<path d="M248 126H40V130H248V126Z" fill="#114034" mask="url(#path-43-inside-5_625_2437)"/>
<path d="M62 139L66 144L62 149" stroke="#CAE7DE" stroke-width="2" stroke-miterlimit="10" stroke-linecap="round" stroke-linejoin="round"/>
<path d="M95 142H81V139C81 138.45 81.45 138 82 138H87L87.67 139H94C94.55 139 95 139.45 95 140V142Z" fill="#092E24" stroke="#76A3ED" stroke-width="2" stroke-miterlimit="10" stroke-linecap="round"/>
<path d="M81 142H95V149C95 149.552 94.5523 150 94 150H82C81.4477 150 81 149.552 81 149V142Z" fill="#092E24" stroke="#76A3ED" stroke-width="2" stroke-miterlimit="10" stroke-linecap="round" stroke-linejoin="round"/>
<path d="M104 144L136 144" stroke="#EBFAF5" stroke-width="2" stroke-miterlimit="10" stroke-linecap="round" stroke-linejoin="round"/>
<path d="M62 163L66 168L62 173" stroke="#CAE7DE" stroke-width="2" stroke-miterlimit="10" stroke-linecap="round" stroke-linejoin="round"/>
<path d="M95 166H81V163C81 162.45 81.45 162 82 162H87L87.67 163H94C94.55 163 95 163.45 95 164V166Z" fill="#092E24" stroke="#76A3ED" stroke-width="2" stroke-miterlimit="10" stroke-linecap="round"/>
<path d="M81 166H95V173C95 173.552 94.5523 174 94 174H82C81.4477 174 81 173.552 81 173V166Z" fill="#092E24" stroke="#76A3ED" stroke-width="2" stroke-miterlimit="10" stroke-linecap="round" stroke-linejoin="round"/>
<path d="M104 168L136 168" stroke="#EBFAF5" stroke-width="2" stroke-miterlimit="10" stroke-linecap="round" stroke-linejoin="round"/>
<path d="M62 187L66 192L62 197" stroke="#CAE7DE" stroke-width="2" stroke-miterlimit="10" stroke-linecap="round" stroke-linejoin="round"/>
<path d="M95 190H81V187C81 186.45 81.45 186 82 186H87L87.67 187H94C94.55 187 95 187.45 95 188V190Z" fill="#092E24" stroke="#76A3ED" stroke-width="2" stroke-miterlimit="10" stroke-linecap="round"/>
<path d="M81 190H95V197C95 197.552 94.5523 198 94 198H82C81.4477 198 81 197.552 81 197V190Z" fill="#092E24" stroke="#76A3ED" stroke-width="2" stroke-miterlimit="10" stroke-linecap="round" stroke-linejoin="round"/>
<path d="M104 192L136 192" stroke="#EBFAF5" stroke-width="2" stroke-miterlimit="10" stroke-linecap="round" stroke-linejoin="round"/>
<path d="M59 214L64 218L69 214" stroke="#CAE7DE" stroke-width="2" stroke-miterlimit="10" stroke-linecap="round" stroke-linejoin="round"/>
<path d="M95 214H81V211C81 210.45 81.45 210 82 210H87L87.67 211H94C94.55 211 95 211.45 95 212V214Z" fill="#092E24" stroke="#76A3ED" stroke-width="2" stroke-miterlimit="10" stroke-linecap="round"/>
<path d="M81 214H95V221C95 221.552 94.5523 222 94 222H82C81.4477 222 81 221.552 81 221V214Z" fill="#092E24" stroke="#76A3ED" stroke-width="2" stroke-miterlimit="10" stroke-linecap="round" stroke-linejoin="round"/>
<path d="M104 216L136 216" stroke="#EBFAF5" stroke-width="2" stroke-miterlimit="10" stroke-linecap="round" stroke-linejoin="round"/>
<path d="M86 235L90 240L86 245" stroke="#CAE7DE" stroke-width="2" stroke-miterlimit="10" stroke-linecap="round" stroke-linejoin="round"/>
<path d="M119 238H105V235C105 234.45 105.45 234 106 234H111L111.67 235H118C118.55 235 119 235.45 119 236V238Z" fill="#092E24" stroke="#76A3ED" stroke-width="2" stroke-miterlimit="10" stroke-linecap="round"/>
<path d="M105 238H119V245C119 245.552 118.552 246 118 246H106C105.448 246 105 245.552 105 245V238Z" fill="#092E24" stroke="#76A3ED" stroke-width="2" stroke-miterlimit="10" stroke-linecap="round" stroke-linejoin="round"/>
<path d="M128 240L160 240" stroke="#EBFAF5" stroke-width="2" stroke-miterlimit="10" stroke-linecap="round" stroke-linejoin="round"/>
<path d="M86 259L90 264L86 269" stroke="#CAE7DE" stroke-width="2" stroke-miterlimit="10" stroke-linecap="round" stroke-linejoin="round"/>
<path d="M119 262H105V259C105 258.45 105.45 258 106 258H111L111.67 259H118C118.55 259 119 259.45 119 260V262Z" fill="#092E24" stroke="#76A3ED" stroke-width="2" stroke-miterlimit="10" stroke-linecap="round"/>
<path d="M105 262H119V269C119 269.552 118.552 270 118 270H106C105.448 270 105 269.552 105 269V262Z" fill="#092E24" stroke="#76A3ED" stroke-width="2" stroke-miterlimit="10" stroke-linecap="round" stroke-linejoin="round"/>
<path d="M128 264L160 264" stroke="#EBFAF5" stroke-width="2" stroke-miterlimit="10" stroke-linecap="round" stroke-linejoin="round"/>
<path d="M86 283L90 288L86 293" stroke="#CAE7DE" stroke-width="2" stroke-miterlimit="10" stroke-linecap="round" stroke-linejoin="round"/>
<path d="M119 286H105V283C105 282.45 105.45 282 106 282H111L111.67 283H118C118.55 283 119 283.45 119 284V286Z" fill="#092E24" stroke="#76A3ED" stroke-width="2" stroke-miterlimit="10" stroke-linecap="round"/>
<path d="M105 286H119V293C119 293.552 118.552 294 118 294H106C105.448 294 105 293.552 105 293V286Z" fill="#092E24" stroke="#76A3ED" stroke-width="2" stroke-miterlimit="10" stroke-linecap="round" stroke-linejoin="round"/>
<path d="M128 288L160 288" stroke="#EBFAF5" stroke-width="2" stroke-miterlimit="10" stroke-linecap="round" stroke-linejoin="round"/>
<path d="M95 310H81V307C81 306.45 81.45 306 82 306H87L87.67 307H94C94.55 307 95 307.45 95 308V310Z" fill="#092E24" stroke="#E8AA00" stroke-width="2" stroke-miterlimit="10" stroke-linecap="round"/>
<path d="M81 310H95V317C95 317.552 94.5523 318 94 318H82C81.4477 318 81 317.552 81 317V310Z" fill="#092E24" stroke="#E8AA00" stroke-width="2" stroke-miterlimit="10" stroke-linecap="round" stroke-linejoin="round"/>
<path d="M104 312L136 312" stroke="#EBFAF5" stroke-width="2" stroke-miterlimit="10" stroke-linecap="round" stroke-linejoin="round"/>
<path d="M246 96V690H250V96H246Z" fill="#114034" mask="url(#path-41-outside-4_625_2437)"/>
<mask id="path-82-outside-6_625_2437" maskUnits="userSpaceOnUse" x="248" y="96" width="210" height="594" fill="black">
<rect fill="white" x="248" y="96" width="210" height="594"/>
<path d="M248 96H456V690H248V96Z"/>
</mask>
<path d="M248 96H456V690H248V96Z" fill="#092E24"/>
<path d="M271 110H257V107C257 106.45 257.45 106 258 106H263L263.67 107H270C270.55 107 271 107.45 271 108V110Z" fill="#406DC8" stroke="#406DC8" stroke-width="2" stroke-miterlimit="10" stroke-linecap="round"/>
<path d="M257 110H271V117C271 117.552 270.552 118 270 118H258C257.448 118 257 117.552 257 117V110Z" fill="#8FB6F2" stroke="#8FB6F2" stroke-width="2" stroke-miterlimit="10" stroke-linecap="round" stroke-linejoin="round"/>
<path d="M280 112L312 112" stroke="#296655" stroke-width="2" stroke-miterlimit="10" stroke-linecap="round" stroke-linejoin="round"/>
<path d="M320 118L326 106" stroke="#296655" stroke-width="2" stroke-linecap="round"/>
<path d="M349 110H335V107C335 106.45 335.45 106 336 106H341L341.67 107H348C348.55 107 349 107.45 349 108V110Z" fill="#406DC8" stroke="#406DC8" stroke-width="2" stroke-miterlimit="10" stroke-linecap="round"/>
<path d="M335 110H349V117C349 117.552 348.552 118 348 118H336C335.448 118 335 117.552 335 117V110Z" fill="#8FB6F2" stroke="#8FB6F2" stroke-width="2" stroke-miterlimit="10" stroke-linecap="round" stroke-linejoin="round"/>
<path d="M358 112L390 112" stroke="#296655" stroke-width="2" stroke-miterlimit="10" stroke-linecap="round" stroke-linejoin="round"/>
<path d="M456 126H248V130H456V126Z" fill="#114034" mask="url(#path-84-inside-7_625_2437)"/>
<path d="M275.225 146H269.537V144.992C270.533 144.992 271.229 145.076 271.985 145.268V139.628C271.385 140.156 270.593 140.576 269.789 140.864L269.405 139.82L272.345 138.8H273.161V144.992H275.225V146Z" fill="#627570"/>
<path d="M292 142L324 142" stroke="#F4966B" stroke-width="2" stroke-miterlimit="10" stroke-linecap="round" stroke-linejoin="round"/>
<path d="M340 142L364 142" stroke="#F5B7E4" stroke-width="2" stroke-miterlimit="10" stroke-linecap="round" stroke-linejoin="round"/>
<path d="M380 142L412 142" stroke="#EBFAF5" stroke-width="2" stroke-miterlimit="10" stroke-linecap="round" stroke-linejoin="round"/>
<path d="M273.857 160.984C273.857 160.12 273.461 159.652 272.357 159.652C271.817 159.652 271.385 159.712 271.013 159.868C270.929 160.192 270.905 160.516 270.905 160.852C270.905 161.092 270.917 161.32 270.917 161.584H269.753C269.729 161.368 269.717 161.176 269.717 160.984C269.717 159.208 270.773 158.668 272.489 158.668C274.145 158.668 275.033 159.34 275.033 160.984C275.033 162.532 273.821 163.12 272.597 163.552C271.145 164.068 270.557 164.296 270.461 165.1C271.217 164.992 272.465 164.896 273.389 164.896H275.105V166H269.477C269.477 165.928 269.465 165.376 269.465 165.304C269.465 163.84 270.185 163.372 271.829 162.76C273.317 162.22 273.857 161.86 273.857 160.984Z" fill="#627570"/>
<path d="M292 162L324 162" stroke="#F4966B" stroke-width="2" stroke-miterlimit="10" stroke-linecap="round" stroke-linejoin="round"/>
<path d="M340 162L364 162" stroke="#F5B7E4" stroke-width="2" stroke-miterlimit="10" stroke-linecap="round" stroke-linejoin="round"/>
<path d="M380 162L412 162" stroke="#EBFAF5" stroke-width="2" stroke-miterlimit="10" stroke-linecap="round" stroke-linejoin="round"/>
<path d="M272.285 186.12C270.509 186.12 269.429 185.544 269.429 183.684H270.629C270.629 184.62 270.881 185.16 272.417 185.16C272.909 185.16 273.449 185.1 273.833 184.932C273.917 184.68 273.953 184.44 273.953 184.152C273.953 183.132 273.509 182.64 271.409 182.784V181.896C272.009 181.848 272.537 181.848 272.981 181.908C273.509 181.464 273.689 180.96 273.689 180.54C273.689 179.976 273.329 179.628 272.261 179.628C271.745 179.628 271.349 179.688 270.977 179.856C270.905 180.204 270.893 180.576 270.917 180.996H269.729C269.609 179.364 270.521 178.668 272.333 178.668C273.977 178.668 274.853 179.16 274.853 180.468C274.853 181.332 274.349 181.776 273.653 182.052C274.661 182.352 275.129 183.024 275.129 183.936C275.129 185.472 274.193 186.12 272.285 186.12Z" fill="#627570"/>
<path d="M292 182L324 182" stroke="#F4966B" stroke-width="2" stroke-miterlimit="10" stroke-linecap="round" stroke-linejoin="round"/>
<path d="M340 182L364 182" stroke="#F5B7E4" stroke-width="2" stroke-miterlimit="10" stroke-linecap="round" stroke-linejoin="round"/>
<path d="M380 182L412 182" stroke="#EBFAF5" stroke-width="2" stroke-miterlimit="10" stroke-linecap="round" stroke-linejoin="round"/>
<path d="M274.385 206H273.209V204.332H269.405V203.372C269.969 201.932 270.257 200.516 270.233 198.8H271.445C271.481 200.648 270.977 202.256 270.233 203.54C271.193 203.408 272.177 203.336 273.209 203.312V198.8H274.385V203.3H275.561V204.332C275.141 204.332 274.745 204.272 274.385 204.164V206Z" fill="#627570"/>
<path d="M272.333 226.12C270.545 226.12 269.501 225.628 269.501 224.008H270.713C270.713 224.572 270.929 225.16 272.405 225.16C272.813 225.16 273.317 225.1 273.785 224.944C273.869 224.62 273.905 224.308 273.905 224.08C273.905 223.108 273.581 222.4 272.441 222.4C271.733 222.4 271.145 222.604 270.797 222.904L269.873 222.568V218.8H274.697V219.976C273.077 219.976 271.661 219.904 270.881 219.676V222.016C271.313 221.752 271.985 221.488 272.921 221.488C274.445 221.488 275.093 222.376 275.093 223.66C275.093 225.424 274.133 226.12 272.333 226.12Z" fill="#627570"/>
<path d="M292 222L356 222" stroke="#8CA29C" stroke-width="2" stroke-miterlimit="10" stroke-linecap="round" stroke-linejoin="round"/>
<path d="M272.513 242.76C272.021 242.76 271.457 242.892 270.989 243.084C270.929 243.324 270.917 243.552 270.917 243.732C270.917 244.548 271.157 245.148 272.705 245.148C273.053 245.148 273.473 245.124 273.917 244.968C274.001 244.668 274.049 244.356 274.049 243.96C274.049 243.168 273.869 242.76 272.513 242.76ZM275.249 243.948C275.249 245.364 274.337 246.12 272.525 246.12C270.785 246.12 269.609 245.364 269.609 242.748C269.609 240.372 270.449 238.68 272.897 238.68C274.409 238.68 275.021 239.472 275.021 240.828H273.821C273.821 239.976 273.449 239.664 272.597 239.664C272.237 239.664 271.853 239.724 271.373 239.844C270.941 240.648 270.797 241.668 270.809 242.628C271.373 242.148 272.261 241.884 273.113 241.884C274.301 241.884 275.249 242.388 275.249 243.948Z" fill="#627570"/>
<path d="M292 242L324 242" stroke="#F4966B" stroke-width="2" stroke-miterlimit="10" stroke-linecap="round" stroke-linejoin="round"/>
<path d="M340 242L364 242" stroke="#F5B7E4" stroke-width="2" stroke-miterlimit="10" stroke-linecap="round" stroke-linejoin="round"/>
<path d="M380 242L412 242" stroke="#EBFAF5" stroke-width="2" stroke-miterlimit="10" stroke-linecap="round" stroke-linejoin="round"/>
<path d="M269.573 258.788H275.249V259.952C273.605 261.584 272.945 263.792 272.765 266H271.493C271.673 263.684 272.477 261.572 274.181 259.856H273.833C272.585 259.856 271.433 259.784 270.713 259.592V261.392H269.573V258.788Z" fill="#627570"/>
<path d="M292 262L324 262" stroke="#F4966B" stroke-width="2" stroke-miterlimit="10" stroke-linecap="round" stroke-linejoin="round"/>
<path d="M340 262L364 262" stroke="#F5B7E4" stroke-width="2" stroke-miterlimit="10" stroke-linecap="round" stroke-linejoin="round"/>
<path d="M380 262L412 262" stroke="#EBFAF5" stroke-width="2" stroke-miterlimit="10" stroke-linecap="round" stroke-linejoin="round"/>
<path d="M272.705 281.92C272.849 281.968 272.981 282.004 273.101 282.052C273.593 281.632 273.845 281.224 273.845 280.72C273.845 280.072 273.377 279.628 272.357 279.628C271.937 279.628 271.445 279.676 271.025 279.82C270.989 279.976 270.989 280.132 270.989 280.36C270.989 281.092 271.349 281.5 272.705 281.92ZM272.429 286.12C270.377 286.12 269.441 285.316 269.489 284.2C269.489 283.312 270.161 282.76 270.965 282.448C270.137 282.028 269.801 281.5 269.801 280.636C269.801 279.328 270.773 278.68 272.465 278.68C274.217 278.68 275.021 279.352 275.021 280.504C275.021 281.248 274.565 281.836 273.665 282.244C274.913 282.736 275.321 283.228 275.321 284.152C275.321 285.412 274.313 286.12 272.429 286.12ZM272.537 285.184C273.077 285.184 273.605 285.136 274.061 284.98C274.085 284.86 274.097 284.704 274.097 284.56C274.097 283.816 273.881 283.432 272.333 282.964C272.009 282.868 271.721 282.772 271.469 282.676C270.965 283.084 270.713 283.468 270.713 284.008C270.713 284.812 271.325 285.184 272.537 285.184Z" fill="#627570"/>
<path d="M272.309 302.424C272.789 302.424 273.377 302.292 273.857 302.112C273.905 301.848 273.917 301.536 273.917 301.32C273.917 300.324 273.653 299.652 272.117 299.652C271.781 299.652 271.373 299.688 270.953 299.832C270.857 300.192 270.797 300.54 270.797 301.02C270.797 301.944 271.073 302.424 272.309 302.424ZM272.009 306.12C270.389 306.12 269.741 305.34 269.741 304.008H270.953C270.953 304.836 271.337 305.136 272.225 305.136C272.561 305.136 272.945 305.076 273.389 304.956C273.749 304.296 273.989 303.528 274.025 302.568C273.473 303.048 272.561 303.3 271.685 303.3C270.533 303.3 269.609 302.82 269.609 301.284C269.609 299.592 270.509 298.68 272.297 298.68C274.037 298.68 275.213 299.436 275.213 302.076C275.213 304.44 274.373 306.12 272.009 306.12Z" fill="#627570"/>
<path d="M292 302L310 302" stroke="#F4966B" stroke-width="2" stroke-miterlimit="10" stroke-linecap="round" stroke-linejoin="round"/>
<path d="M326 302L350 302" stroke="#F5B7E4" stroke-width="2" stroke-miterlimit="10" stroke-linecap="round" stroke-linejoin="round"/>
<path d="M366 302L398 302" stroke="#EBFAF5" stroke-width="2" stroke-miterlimit="10" stroke-linecap="round" stroke-linejoin="round"/>
<path d="M454 96V690H458V96H454Z" fill="#114034" mask="url(#path-82-outside-6_625_2437)"/>
<mask id="path-121-outside-8_625_2437" maskUnits="userSpaceOnUse" x="40" y="96" width="210" height="594" fill="black">
<rect fill="white" x="40" y="96" width="210" height="594"/>
<path d="M40 96H248V690H40V96Z"/>
</mask>
<path d="M40 96H248V690H40V96Z" fill="#092E24"/>
<path d="M63 110H49V107C49 106.45 49.45 106 50 106H55L55.67 107H62C62.55 107 63 107.45 63 108V110Z" fill="#406DC8" stroke="#406DC8" stroke-width="2" stroke-miterlimit="10" stroke-linecap="round"/>
<path d="M49 110H63V117C63 117.552 62.5523 118 62 118H50C49.4477 118 49 117.552 49 117V110Z" fill="#8FB6F2" stroke="#8FB6F2" stroke-width="2" stroke-miterlimit="10" stroke-linecap="round" stroke-linejoin="round"/>
<path d="M72 112L104 112" stroke="#B7CBC5" stroke-width="2" stroke-miterlimit="10" stroke-linecap="round" stroke-linejoin="round"/>
<path d="M115 110L120 114L125 110" stroke="#B7CBC5" stroke-width="2" stroke-miterlimit="10" stroke-linecap="round" stroke-linejoin="round"/>
<path d="M218 107L214 112L218 117" stroke="#B7CBC5" stroke-width="2" stroke-miterlimit="10" stroke-linecap="round" stroke-linejoin="round"/>
<path d="M230 107L234 112L230 117" stroke="#B7CBC5" stroke-width="2" stroke-miterlimit="10" stroke-linecap="round" stroke-linejoin="round"/>
<path d="M248 126H40V130H248V126Z" fill="#114034" mask="url(#path-123-inside-9_625_2437)"/>
<path d="M62 139L66 144L62 149" stroke="#8CA29C" stroke-width="2" stroke-miterlimit="10" stroke-linecap="round" stroke-linejoin="round"/>
<path d="M95 142H81V139C81 138.45 81.45 138 82 138H87L87.67 139H94C94.55 139 95 139.45 95 140V142Z" fill="#406DC8" stroke="#406DC8" stroke-width="2" stroke-miterlimit="10" stroke-linecap="round"/>
<path d="M81 142H95V149C95 149.552 94.5523 150 94 150H82C81.4477 150 81 149.552 81 149V142Z" fill="#8FB6F2" stroke="#8FB6F2" stroke-width="2" stroke-miterlimit="10" stroke-linecap="round" stroke-linejoin="round"/>
<path d="M104 144L136 144" stroke="#B7CBC5" stroke-width="2" stroke-miterlimit="10" stroke-linecap="round" stroke-linejoin="round"/>
<path d="M62 163L66 168L62 173" stroke="#8CA29C" stroke-width="2" stroke-miterlimit="10" stroke-linecap="round" stroke-linejoin="round"/>
<path d="M95 166H81V163C81 162.45 81.45 162 82 162H87L87.67 163H94C94.55 163 95 163.45 95 164V166Z" fill="#406DC8" stroke="#406DC8" stroke-width="2" stroke-miterlimit="10" stroke-linecap="round"/>
<path d="M81 166H95V173C95 173.552 94.5523 174 94 174H82C81.4477 174 81 173.552 81 173V166Z" fill="#8FB6F2" stroke="#8FB6F2" stroke-width="2" stroke-miterlimit="10" stroke-linecap="round" stroke-linejoin="round"/>
<path d="M104 168L136 168" stroke="#B7CBC5" stroke-width="2" stroke-miterlimit="10" stroke-linecap="round" stroke-linejoin="round"/>
<path d="M62 187L66 192L62 197" stroke="#8CA29C" stroke-width="2" stroke-miterlimit="10" stroke-linecap="round" stroke-linejoin="round"/>
<path d="M95 190H81V187C81 186.45 81.45 186 82 186H87L87.67 187H94C94.55 187 95 187.45 95 188V190Z" fill="#406DC8" stroke="#406DC8" stroke-width="2" stroke-miterlimit="10" stroke-linecap="round"/>
<path d="M81 190H95V197C95 197.552 94.5523 198 94 198H82C81.4477 198 81 197.552 81 197V190Z" fill="#8FB6F2" stroke="#8FB6F2" stroke-width="2" stroke-miterlimit="10" stroke-linecap="round" stroke-linejoin="round"/>
<path d="M104 192L136 192" stroke="#B7CBC5" stroke-width="2" stroke-miterlimit="10" stroke-linecap="round" stroke-linejoin="round"/>
<path d="M62 211L66 216L62 221" stroke="#8CA29C" stroke-width="2" stroke-miterlimit="10" stroke-linecap="round" stroke-linejoin="round"/>
<path d="M95 214H81V211C81 210.45 81.45 210 82 210H87L87.67 211H94C94.55 211 95 211.45 95 212V214Z" fill="#406DC8" stroke="#406DC8" stroke-width="2" stroke-miterlimit="10" stroke-linecap="round"/>
<path d="M81 214H95V221C95 221.552 94.5523 222 94 222H82C81.4477 222 81 221.552 81 221V214Z" fill="#8FB6F2" stroke="#8FB6F2" stroke-width="2" stroke-miterlimit="10" stroke-linecap="round" stroke-linejoin="round"/>
<path d="M104 216L136 216" stroke="#B7CBC5" stroke-width="2" stroke-miterlimit="10" stroke-linecap="round" stroke-linejoin="round"/>
<path d="M86 235L90 240L86 245" stroke="#8CA29C" stroke-width="2" stroke-miterlimit="10" stroke-linecap="round" stroke-linejoin="round"/>
<path d="M119 238H105V235C105 234.45 105.45 234 106 234H111L111.67 235H118C118.55 235 119 235.45 119 236V238Z" fill="#406DC8" stroke="#406DC8" stroke-width="2" stroke-miterlimit="10" stroke-linecap="round"/>
<path d="M105 238H119V245C119 245.552 118.552 246 118 246H106C105.448 246 105 245.552 105 245V238Z" fill="#8FB6F2" stroke="#8FB6F2" stroke-width="2" stroke-miterlimit="10" stroke-linecap="round" stroke-linejoin="round"/>
<path d="M128 240L160 240" stroke="#B7CBC5" stroke-width="2" stroke-miterlimit="10" stroke-linecap="round" stroke-linejoin="round"/>
<path d="M86 259L90 264L86 269" stroke="#8CA29C" stroke-width="2" stroke-miterlimit="10" stroke-linecap="round" stroke-linejoin="round"/>
<path d="M119 262H105V259C105 258.45 105.45 258 106 258H111L111.67 259H118C118.55 259 119 259.45 119 260V262Z" fill="#406DC8" stroke="#406DC8" stroke-width="2" stroke-miterlimit="10" stroke-linecap="round"/>
<path d="M105 262H119V269C119 269.552 118.552 270 118 270H106C105.448 270 105 269.552 105 269V262Z" fill="#8FB6F2" stroke="#8FB6F2" stroke-width="2" stroke-miterlimit="10" stroke-linecap="round" stroke-linejoin="round"/>
<path d="M128 264L160 264" stroke="#B7CBC5" stroke-width="2" stroke-miterlimit="10" stroke-linecap="round" stroke-linejoin="round"/>
<path d="M86 283L90 288L86 293" stroke="#8CA29C" stroke-width="2" stroke-miterlimit="10" stroke-linecap="round" stroke-linejoin="round"/>
<path d="M119 286H105V283C105 282.45 105.45 282 106 282H111L111.67 283H118C118.55 283 119 283.45 119 284V286Z" fill="#406DC8" stroke="#406DC8" stroke-width="2" stroke-miterlimit="10" stroke-linecap="round"/>
<path d="M105 286H119V293C119 293.552 118.552 294 118 294H106C105.448 294 105 293.552 105 293V286Z" fill="#8FB6F2" stroke="#8FB6F2" stroke-width="2" stroke-miterlimit="10" stroke-linecap="round" stroke-linejoin="round"/>
<path d="M128 288L160 288" stroke="#B7CBC5" stroke-width="2" stroke-miterlimit="10" stroke-linecap="round" stroke-linejoin="round"/>
<path d="M95 310H81V307C81 306.45 81.45 306 82 306H87L87.67 307H94C94.55 307 95 307.45 95 308V310Z" fill="#B15A00" stroke="#B15A00" stroke-width="2" stroke-miterlimit="10" stroke-linecap="round"/>
<path d="M81 310H95V317C95 317.552 94.5523 318 94 318H82C81.4477 318 81 317.552 81 317V310Z" fill="#EFBE08" stroke="#EFBE08" stroke-width="2" stroke-miterlimit="10" stroke-linecap="round" stroke-linejoin="round"/>
<path d="M104 312L136 312" stroke="#B7CBC5" stroke-width="2" stroke-miterlimit="10" stroke-linecap="round" stroke-linejoin="round"/>
<path d="M246 96V690H250V96H246Z" fill="#114034" mask="url(#path-121-outside-8_625_2437)"/>
</g>
<path d="M593 40V39H592H48C43.0294 39 39 43.0294 39 48V432V433H40H592H593V432V40Z" stroke="#15181F" stroke-width="2"/>
</g>
<defs>
<filter id="filter0_d_625_2437" x="119.5" y="76" width="24" height="24" filterUnits="userSpaceOnUse" color-interpolation-filters="sRGB">
<feFlood flood-opacity="0" result="BackgroundImageFix"/>
<feColorMatrix in="SourceAlpha" type="matrix" values="0 0 0 0 0 0 0 0 0 0 0 0 0 0 0 0 0 0 127 0" result="hardAlpha"/>
<feOffset dy="4"/>
<feGaussianBlur stdDeviation="2"/>
<feComposite in2="hardAlpha" operator="out"/>
<feColorMatrix type="matrix" values="0 0 0 0 0 0 0 0 0 0 0 0 0 0 0 0 0 0 0.25 0"/>
<feBlend mode="normal" in2="BackgroundImageFix" result="effect1_dropShadow_625_2437"/>
<feBlend mode="normal" in="SourceGraphic" in2="effect1_dropShadow_625_2437" result="shape"/>
</filter>
<filter id="filter1_d_625_2437" x="144.5" y="76" width="24" height="24" filterUnits="userSpaceOnUse" color-interpolation-filters="sRGB">
<feFlood flood-opacity="0" result="BackgroundImageFix"/>
<feColorMatrix in="SourceAlpha" type="matrix" values="0 0 0 0 0 0 0 0 0 0 0 0 0 0 0 0 0 0 127 0" result="hardAlpha"/>
<feOffset dy="4"/>
<feGaussianBlur stdDeviation="2"/>
<feComposite in2="hardAlpha" operator="out"/>
<feColorMatrix type="matrix" values="0 0 0 0 0 0 0 0 0 0 0 0 0 0 0 0 0 0 0.25 0"/>
<feBlend mode="normal" in2="BackgroundImageFix" result="effect1_dropShadow_625_2437"/>
<feBlend mode="normal" in="SourceGraphic" in2="effect1_dropShadow_625_2437" result="shape"/>
</filter>
<filter id="filter2_d_625_2437" x="169.5" y="76" width="24" height="24" filterUnits="userSpaceOnUse" color-interpolation-filters="sRGB">
<feFlood flood-opacity="0" result="BackgroundImageFix"/>
<feColorMatrix in="SourceAlpha" type="matrix" values="0 0 0 0 0 0 0 0 0 0 0 0 0 0 0 0 0 0 127 0" result="hardAlpha"/>
<feOffset dy="4"/>
<feGaussianBlur stdDeviation="2"/>
<feComposite in2="hardAlpha" operator="out"/>
<feColorMatrix type="matrix" values="0 0 0 0 0 0 0 0 0 0 0 0 0 0 0 0 0 0 0.25 0"/>
<feBlend mode="normal" in2="BackgroundImageFix" result="effect1_dropShadow_625_2437"/>
<feBlend mode="normal" in="SourceGraphic" in2="effect1_dropShadow_625_2437" result="shape"/>
</filter>
<clipPath id="clip0_625_2437">
<rect width="384" height="316" fill="white"/>
</clipPath>
<clipPath id="clip1_625_2437">
<path d="M40 48C40 43.5817 43.5817 40 48 40H592V432H40V48Z" fill="white"/>
</clipPath>
<clipPath id="clip2_625_2437">
<path d="M40 40H805V72H40V40Z" fill="white"/>
</clipPath>
<clipPath id="clip3_625_2437">
<path d="M40 72H805V96H40V72Z" fill="white"/>
</clipPath>
</defs>
</svg>
