<svg width="594" height="364" viewBox="0 0 594 364" fill="none" xmlns="http://www.w3.org/2000/svg">
<g clip-path="url(#clip0_705_1865)">
<g clip-path="url(#clip1_705_1865)">
<path d="M72 80C72 75.5817 75.5817 72 80 72H624V464H72V80Z" fill="#FCF9F8"/>
<g clip-path="url(#clip2_705_1865)">
<path d="M72 72H837V104H72V72Z" fill="#F1F4F9"/>
<circle cx="93" cy="88" r="5" fill="#EE7244"/>
<circle cx="106" cy="88" r="5" fill="#F4D340"/>
<circle cx="119" cy="88" r="5" fill="#7EB52F"/>
<path d="M132 104L144 72" stroke="#D9DFE8" stroke-width="2"/>
<path d="M166 82.5C166 82.2239 166.224 82 166.5 82H175.389C175.665 82 175.889 82.2239 175.889 82.5V85.1451C175.889 85.5275 176.313 85.7867 176.682 85.6886C177.604 85.444 179 85.4882 179 88C179 90.5118 177.604 90.556 176.682 90.3114C176.313 90.2133 175.889 90.4725 175.889 90.8549V93.5C175.889 93.7761 175.665 94 175.389 94H166.5C166.224 94 166 93.7761 166 93.5V90.7676C166 90.4063 166.379 90.1503 166.734 90.2184C167.654 90.3948 169.111 90.3096 169.111 88C169.111 85.6904 167.654 85.6052 166.734 85.7816C166.379 85.8497 166 85.5937 166 85.2324V82.5Z" fill="white" stroke="#8C94A2" stroke-width="2" stroke-miterlimit="10" stroke-linecap="round" stroke-linejoin="round"/>
<path d="M188 88H242" stroke="#8C94A2" stroke-width="2" stroke-miterlimit="10" stroke-linecap="round" stroke-linejoin="round"/>
<path d="M262 104L274 72" stroke="#D9DFE8" stroke-width="2"/>
</g>
<path d="M837 103H72V105H837V103Z" fill="#D9DFE8"/>
<g clip-path="url(#clip3_705_1865)">
<path d="M72 104H837V128H72V104Z" fill="#F1F4F9"/>
<rect x="72" y="104" width="208" height="24" fill="#F1F4F9"/>
<rect x="72" y="104" width="208" height="24" stroke="#D9DFE8" stroke-width="2"/>
<path d="M95 114H81V111C81 110.45 81.45 110 82 110H87L87.67 111H94C94.55 111 95 111.45 95 112V114Z" fill="#76A3ED" stroke="#406DC8" stroke-width="2" stroke-miterlimit="10" stroke-linecap="round"/>
<path d="M81 114H95V121C95 121.552 94.5523 122 94 122H82C81.4477 122 81 121.552 81 121V114Z" fill="#CBDFF8" stroke="#406DC8" stroke-width="2" stroke-miterlimit="10" stroke-linecap="round" stroke-linejoin="round"/>
<circle cx="120.2" cy="112" r="2" fill="white" stroke="#8C94A2" stroke-width="2"/>
<circle cx="126.2" cy="120" r="2" fill="white" stroke="#8C94A2" stroke-width="2"/>
<path d="M120.2 114V123" stroke="#8C94A2" stroke-width="2"/>
<path d="M126.2 109V118" stroke="#8C94A2" stroke-width="2"/>
<path d="M158.4 122.5C161.437 122.5 163.9 120.038 163.9 117C163.9 113.962 161.437 111.5 158.4 111.5C155.362 111.5 152.9 113.962 152.9 117C152.9 120.038 155.362 122.5 158.4 122.5Z" fill="white" stroke="#8C94A2" stroke-width="2" stroke-miterlimit="10" stroke-linecap="round" stroke-linejoin="round"/>
<path d="M152.4 111.5L154.4 109.5" stroke="#8C94A2" stroke-width="2" stroke-miterlimit="10" stroke-linecap="round" stroke-linejoin="round"/>
<path d="M164.4 111.5L162.4 109.5" stroke="#8C94A2" stroke-width="2" stroke-miterlimit="10" stroke-linecap="round" stroke-linejoin="round"/>
<path d="M158.4 115V117H160.4" fill="#F1F4F9"/>
<path d="M158.4 115V117H160.4" stroke="#8C94A2" stroke-width="2" stroke-miterlimit="10" stroke-linecap="round" stroke-linejoin="round"/>
<path d="M196.6 119L198.6 121" stroke="#8C94A2" stroke-width="4" stroke-miterlimit="10" stroke-linecap="round"/>
<circle cx="192.6" cy="115" r="5" fill="white" stroke="#8C94A2" stroke-width="2"/>
<rect x="223.8" y="111" width="10" height="10" rx="1" stroke="#8C94A2" stroke-width="2" stroke-miterlimit="10" stroke-linecap="round" stroke-linejoin="round"/>
<path d="M259 110.741C259 109.969 259.837 109.488 260.504 109.877L269.519 115.136C270.181 115.522 270.181 116.478 269.519 116.864L260.504 122.123C259.837 122.512 259 122.031 259 121.259L259 110.741Z" fill="white" stroke="#8C94A2" stroke-width="2" stroke-miterlimit="10" stroke-linecap="round" stroke-linejoin="round"/>
<rect x="280" y="104" width="456" height="24" fill="#F1F4F9"/>
<rect x="280" y="104" width="456" height="24" stroke="#D9DFE8" stroke-width="2"/>
<path d="M303 114H289V111C289 110.45 289.45 110 290 110H295L295.67 111H302C302.55 111 303 111.45 303 112V114Z" fill="#EE7244" stroke="#BE270F" stroke-width="2" stroke-miterlimit="10" stroke-linecap="round"/>
<path d="M289 114H303V121C303 121.552 302.552 122 302 122H290C289.448 122 289 121.552 289 121V114Z" fill="#F7C1A3" stroke="#BE270F" stroke-width="2" stroke-miterlimit="10" stroke-linecap="round" stroke-linejoin="round"/>
<path d="M312 116L344 116" stroke="#8C94A2" stroke-width="2" stroke-miterlimit="10" stroke-linecap="round" stroke-linejoin="round"/>
<path d="M375 114H361V111C361 110.45 361.45 110 362 110H367L367.67 111H374C374.55 111 375 111.45 375 112V114Z" fill="#E8AA00" stroke="#B15A00" stroke-width="2" stroke-miterlimit="10" stroke-linecap="round"/>
<path d="M361 114H375V121C375 121.552 374.552 122 374 122H362C361.448 122 361 121.552 361 121V114Z" fill="#F8E58E" stroke="#B15A00" stroke-width="2" stroke-miterlimit="10" stroke-linecap="round" stroke-linejoin="round"/>
<path d="M384 116L416 116" stroke="#8C94A2" stroke-width="2" stroke-miterlimit="10" stroke-linecap="round" stroke-linejoin="round"/>
<path d="M447 114H433V111C433 110.45 433.45 110 434 110H439L439.67 111H446C446.55 111 447 111.45 447 112V114Z" fill="#E8AA00" stroke="#B15A00" stroke-width="2" stroke-miterlimit="10" stroke-linecap="round"/>
<path d="M433 114H447V121C447 121.552 446.552 122 446 122H434C433.448 122 433 121.552 433 121V114Z" fill="#F8E58E" stroke="#B15A00" stroke-width="2" stroke-miterlimit="10" stroke-linecap="round" stroke-linejoin="round"/>
<path d="M456 116L488 116" stroke="#8C94A2" stroke-width="2" stroke-miterlimit="10" stroke-linecap="round" stroke-linejoin="round"/>
<path d="M519 114H505V111C505 110.45 505.45 110 506 110H511L511.67 111H518C518.55 111 519 111.45 519 112V114Z" fill="#76A3ED" stroke="#406DC8" stroke-width="2" stroke-miterlimit="10" stroke-linecap="round"/>
<path d="M505 114H519V121C519 121.552 518.552 122 518 122H506C505.448 122 505 121.552 505 121V114Z" fill="#CBDFF8" stroke="#406DC8" stroke-width="2" stroke-miterlimit="10" stroke-linecap="round" stroke-linejoin="round"/>
<path d="M528 116L560 116" stroke="#8C94A2" stroke-width="2" stroke-miterlimit="10" stroke-linecap="round" stroke-linejoin="round"/>
<path d="M591 114H577V111C577 110.45 577.45 110 578 110H583L583.67 111H590C590.55 111 591 111.45 591 112V114Z" fill="#EE7244" stroke="#BE270F" stroke-width="2" stroke-miterlimit="10" stroke-linecap="round"/>
<path d="M577 114H591V121C591 121.552 590.552 122 590 122H578C577.448 122 577 121.552 577 121V114Z" fill="#F7C1A3" stroke="#BE270F" stroke-width="2" stroke-miterlimit="10" stroke-linecap="round" stroke-linejoin="round"/>
</g>
<path d="M837 127H72V129H837V127Z" fill="#D9DFE8"/>
<mask id="path-44-outside-1_705_1865" maskUnits="userSpaceOnUse" x="72" y="128" width="210" height="594" fill="black">
<rect fill="white" x="72" y="128" width="210" height="594"/>
<path d="M72 128H280V722H72V128Z"/>
</mask>
<path d="M72 128H280V722H72V128Z" fill="#FCF9F8"/>
<path d="M278 128V722H282V128H278Z" fill="#E8DCD9" mask="url(#path-44-outside-1_705_1865)"/>
<path d="M280 158H72V162H280V158Z" fill="#E8DCD9" mask="url(#path-46-inside-2_705_1865)"/>
<path d="M95 142H81V139C81 138.45 81.45 138 82 138H87L87.67 139H94C94.55 139 95 139.45 95 140V142Z" fill="#FCF9F8" stroke="#76A3ED" stroke-width="2" stroke-miterlimit="10" stroke-linecap="round"/>
<path d="M81 142H95V149C95 149.552 94.5523 150 94 150H82C81.4477 150 81 149.552 81 149V142Z" fill="#FCF9F8" stroke="#76A3ED" stroke-width="2" stroke-miterlimit="10" stroke-linecap="round" stroke-linejoin="round"/>
<path d="M104 144L136 144" stroke="#092E24" stroke-width="2" stroke-miterlimit="10" stroke-linecap="round" stroke-linejoin="round"/>
<path d="M147 142L152 146L157 142" stroke="#F1F4F9" stroke-width="2" stroke-miterlimit="10" stroke-linecap="round" stroke-linejoin="round"/>
<path d="M250 139L246 144L250 149" stroke="#F1F4F9" stroke-width="2" stroke-miterlimit="10" stroke-linecap="round" stroke-linejoin="round"/>
<path d="M262 139L266 144L262 149" stroke="#F1F4F9" stroke-width="2" stroke-miterlimit="10" stroke-linecap="round" stroke-linejoin="round"/>
<path d="M94 171L98 176L94 181" stroke="#F1F4F9" stroke-width="2" stroke-miterlimit="10" stroke-linecap="round" stroke-linejoin="round"/>
<path d="M127 174H113V171C113 170.45 113.45 170 114 170H119L119.67 171H126C126.55 171 127 171.45 127 172V174Z" fill="#FCF9F8" stroke="#76A3ED" stroke-width="2" stroke-miterlimit="10" stroke-linecap="round"/>
<path d="M113 174H127V181C127 181.552 126.552 182 126 182H114C113.448 182 113 181.552 113 181V174Z" fill="#FCF9F8" stroke="#76A3ED" stroke-width="2" stroke-miterlimit="10" stroke-linecap="round" stroke-linejoin="round"/>
<path d="M136 176L168 176" stroke="#092E24" stroke-width="2" stroke-miterlimit="10" stroke-linecap="round" stroke-linejoin="round"/>
<path d="M94 195L98 200L94 205" stroke="#F1F4F9" stroke-width="2" stroke-miterlimit="10" stroke-linecap="round" stroke-linejoin="round"/>
<path d="M127 198H113V195C113 194.45 113.45 194 114 194H119L119.67 195H126C126.55 195 127 195.45 127 196V198Z" fill="#FCF9F8" stroke="#76A3ED" stroke-width="2" stroke-miterlimit="10" stroke-linecap="round"/>
<path d="M113 198H127V205C127 205.552 126.552 206 126 206H114C113.448 206 113 205.552 113 205V198Z" fill="#FCF9F8" stroke="#76A3ED" stroke-width="2" stroke-miterlimit="10" stroke-linecap="round" stroke-linejoin="round"/>
<path d="M136 200L168 200" stroke="#092E24" stroke-width="2" stroke-miterlimit="10" stroke-linecap="round" stroke-linejoin="round"/>
<path d="M94 219L98 224L94 229" stroke="#F1F4F9" stroke-width="2" stroke-miterlimit="10" stroke-linecap="round" stroke-linejoin="round"/>
<path d="M127 222H113V219C113 218.45 113.45 218 114 218H119L119.67 219H126C126.55 219 127 219.45 127 220V222Z" fill="#FCF9F8" stroke="#76A3ED" stroke-width="2" stroke-miterlimit="10" stroke-linecap="round"/>
<path d="M113 222H127V229C127 229.552 126.552 230 126 230H114C113.448 230 113 229.552 113 229V222Z" fill="#FCF9F8" stroke="#76A3ED" stroke-width="2" stroke-miterlimit="10" stroke-linecap="round" stroke-linejoin="round"/>
<path d="M136 224L168 224" stroke="#092E24" stroke-width="2" stroke-miterlimit="10" stroke-linecap="round" stroke-linejoin="round"/>
<path d="M91 246L96 250L101 246" stroke="#F1F4F9" stroke-width="2" stroke-miterlimit="10" stroke-linecap="round" stroke-linejoin="round"/>
<path d="M127 246H113V243C113 242.45 113.45 242 114 242H119L119.67 243H126C126.55 243 127 243.45 127 244V246Z" fill="#FCF9F8" stroke="#76A3ED" stroke-width="2" stroke-miterlimit="10" stroke-linecap="round"/>
<path d="M113 246H127V253C127 253.552 126.552 254 126 254H114C113.448 254 113 253.552 113 253V246Z" fill="#FCF9F8" stroke="#76A3ED" stroke-width="2" stroke-miterlimit="10" stroke-linecap="round" stroke-linejoin="round"/>
<path d="M136 248L168 248" stroke="#092E24" stroke-width="2" stroke-miterlimit="10" stroke-linecap="round" stroke-linejoin="round"/>
<path d="M118 267L122 272L118 277" stroke="#F1F4F9" stroke-width="2" stroke-miterlimit="10" stroke-linecap="round" stroke-linejoin="round"/>
<path d="M151 270H137V267C137 266.45 137.45 266 138 266H143L143.67 267H150C150.55 267 151 267.45 151 268V270Z" fill="#FCF9F8" stroke="#76A3ED" stroke-width="2" stroke-miterlimit="10" stroke-linecap="round"/>
<path d="M137 270H151V277C151 277.552 150.552 278 150 278H138C137.448 278 137 277.552 137 277V270Z" fill="#FCF9F8" stroke="#76A3ED" stroke-width="2" stroke-miterlimit="10" stroke-linecap="round" stroke-linejoin="round"/>
<path d="M160 272L192 272" stroke="#092E24" stroke-width="2" stroke-miterlimit="10" stroke-linecap="round" stroke-linejoin="round"/>
<path d="M118 291L122 296L118 301" stroke="#F1F4F9" stroke-width="2" stroke-miterlimit="10" stroke-linecap="round" stroke-linejoin="round"/>
<path d="M151 294H137V291C137 290.45 137.45 290 138 290H143L143.67 291H150C150.55 291 151 291.45 151 292V294Z" fill="#FCF9F8" stroke="#76A3ED" stroke-width="2" stroke-miterlimit="10" stroke-linecap="round"/>
<path d="M137 294H151V301C151 301.552 150.552 302 150 302H138C137.448 302 137 301.552 137 301V294Z" fill="#FCF9F8" stroke="#76A3ED" stroke-width="2" stroke-miterlimit="10" stroke-linecap="round" stroke-linejoin="round"/>
<path d="M160 296L192 296" stroke="#092E24" stroke-width="2" stroke-miterlimit="10" stroke-linecap="round" stroke-linejoin="round"/>
<path d="M118 315L122 320L118 325" stroke="#F1F4F9" stroke-width="2" stroke-miterlimit="10" stroke-linecap="round" stroke-linejoin="round"/>
<path d="M151 318H137V315C137 314.45 137.45 314 138 314H143L143.67 315H150C150.55 315 151 315.45 151 316V318Z" fill="#FCF9F8" stroke="#76A3ED" stroke-width="2" stroke-miterlimit="10" stroke-linecap="round"/>
<path d="M137 318H151V325C151 325.552 150.552 326 150 326H138C137.448 326 137 325.552 137 325V318Z" fill="#FCF9F8" stroke="#76A3ED" stroke-width="2" stroke-miterlimit="10" stroke-linecap="round" stroke-linejoin="round"/>
<path d="M160 320L192 320" stroke="#092E24" stroke-width="2" stroke-miterlimit="10" stroke-linecap="round" stroke-linejoin="round"/>
<path d="M127 342H113V339C113 338.45 113.45 338 114 338H119L119.67 339H126C126.55 339 127 339.45 127 340V342Z" fill="#FCF9F8" stroke="#E8AA00" stroke-width="2" stroke-miterlimit="10" stroke-linecap="round"/>
<path d="M113 342H127V349C127 349.552 126.552 350 126 350H114C113.448 350 113 349.552 113 349V342Z" fill="#FCF9F8" stroke="#E8AA00" stroke-width="2" stroke-miterlimit="10" stroke-linecap="round" stroke-linejoin="round"/>
<path d="M136 344L168 344" stroke="#092E24" stroke-width="2" stroke-miterlimit="10" stroke-linecap="round" stroke-linejoin="round"/>
<path d="M127 366H113V363C113 362.45 113.45 362 114 362H119L119.67 363H126C126.55 363 127 363.45 127 364V366Z" fill="#FCF9F8" stroke="#E8AA00" stroke-width="2" stroke-miterlimit="10" stroke-linecap="round"/>
<g clip-path="url(#clip4_705_1865)">
<path d="M280 128H624V722H280V128Z" fill="#F8FAFC"/>
<rect x="280" y="128" width="344" height="32" stroke="#D9DFE8" stroke-width="2"/>
<path d="M303 142H289V139C289 138.45 289.45 138 290 138H295L295.67 139H302C302.55 139 303 139.45 303 140V142Z" fill="#76A3ED" stroke="#406DC8" stroke-width="2" stroke-miterlimit="10" stroke-linecap="round"/>
<path d="M289 142H303V149C303 149.552 302.552 150 302 150H290C289.448 150 289 149.552 289 149V142Z" fill="#CBDFF8" stroke="#406DC8" stroke-width="2" stroke-miterlimit="10" stroke-linecap="round" stroke-linejoin="round"/>
<path d="M312 144L344 144" stroke="#8C94A2" stroke-width="2" stroke-miterlimit="10" stroke-linecap="round" stroke-linejoin="round"/>
<path d="M352 150L358 138" stroke="#8C94A2" stroke-width="2" stroke-linecap="round"/>
<path d="M381 142H367V139C367 138.45 367.45 138 368 138H373L373.67 139H380C380.55 139 381 139.45 381 140V142Z" fill="#76A3ED" stroke="#406DC8" stroke-width="2" stroke-miterlimit="10" stroke-linecap="round"/>
<path d="M367 142H381V149C381 149.552 380.552 150 380 150H368C367.448 150 367 149.552 367 149V142Z" fill="#CBDFF8" stroke="#406DC8" stroke-width="2" stroke-miterlimit="10" stroke-linecap="round" stroke-linejoin="round"/>
<path d="M390 144L422 144" stroke="#8C94A2" stroke-width="2" stroke-miterlimit="10" stroke-linecap="round" stroke-linejoin="round"/>
<path d="M430 150L436 138" stroke="#8C94A2" stroke-width="2" stroke-linecap="round"/>
<path d="M448 138H456V142L458 144L456 146V150H448V146L446 144L448 142V138Z" fill="white"/>
<path d="M450 138H449.5C448.672 138 448 138.672 448 139.5V141.793C448 141.926 447.947 142.053 447.854 142.146L446.354 143.646C446.158 143.842 446.158 144.158 446.354 144.354L447.854 145.854C447.947 145.947 448 146.074 448 146.207V148.5C448 149.328 448.672 150 449.5 150H450" stroke="#406DC8" stroke-width="2"/>
<path d="M454 138H454.5C455.328 138 456 138.672 456 139.5V141.793C456 141.926 456.053 142.053 456.146 142.146L457.646 143.646C457.842 143.842 457.842 144.158 457.646 144.354L456.146 145.854C456.053 145.947 456 146.074 456 146.207V148.5C456 149.328 455.328 150 454.5 150H454" stroke="#406DC8" stroke-width="2"/>
<path d="M468 144L488 144" stroke="#8C94A2" stroke-width="2" stroke-miterlimit="10" stroke-linecap="round" stroke-linejoin="round"/>
<path d="M301.358 177V175.824H303.914V172.044H302.138V171.084L303.17 171.06C303.938 171.036 304.094 170.724 304.118 169.044H305.318V175.824H307.406V177H301.358Z" fill="#B7BECB"/>
<path d="M324 174L356 174" stroke="#EB88E7" stroke-width="2" stroke-miterlimit="10" stroke-linecap="round" stroke-linejoin="round"/>
<path d="M372 174L396 174" stroke="#E8AA00" stroke-width="2" stroke-miterlimit="10" stroke-linecap="round" stroke-linejoin="round"/>
<path d="M412 174L444 174" stroke="#8C94A2" stroke-width="2" stroke-miterlimit="10" stroke-linecap="round" stroke-linejoin="round"/>
<path d="M301.382 197C301.382 195.248 301.61 194.708 303.674 193.748C305.45 192.908 305.81 192.452 305.81 191.552C305.81 190.724 305.258 190.172 304.334 190.172C303.278 190.172 302.69 190.82 302.69 191.936C302.69 192.2 302.714 192.5 302.75 192.728H301.49C301.454 192.548 301.43 192.212 301.43 191.84C301.43 190.136 302.426 188.996 304.37 188.996C306.17 188.996 307.214 190.04 307.214 191.48C307.214 192.704 306.674 193.52 304.538 194.516C303.05 195.2 302.906 195.428 302.906 195.824H307.358V197H301.382Z" fill="#B7BECB"/>
<path d="M324 194L356 194" stroke="#EB88E7" stroke-width="2" stroke-miterlimit="10" stroke-linecap="round" stroke-linejoin="round"/>
<path d="M372 194L396 194" stroke="#E8AA00" stroke-width="2" stroke-miterlimit="10" stroke-linecap="round" stroke-linejoin="round"/>
<path d="M412 194L424 194" stroke="#8C94A2" stroke-width="2" stroke-miterlimit="10" stroke-linecap="round" stroke-linejoin="round"/>
<path d="M304.286 217.108C302.366 217.108 301.202 216.172 301.202 214.624C301.202 214.42 301.226 214.168 301.238 214.036H302.51C302.498 214.216 302.498 214.348 302.498 214.42C302.498 215.392 303.146 215.932 304.286 215.932C305.474 215.932 306.158 215.38 306.158 214.468C306.158 213.808 305.714 213.46 304.886 213.46H303.674V212.536H304.694C305.474 212.536 305.882 212.116 305.882 211.432C305.882 210.64 305.294 210.172 304.346 210.172C303.242 210.172 302.654 210.724 302.654 211.624C302.654 211.816 302.666 211.984 302.678 212.092H301.442C301.406 211.96 301.382 211.696 301.382 211.408C301.382 209.92 302.498 208.996 304.382 208.996C306.062 208.996 307.19 209.824 307.19 211.228C307.19 211.996 306.782 212.608 306.11 212.764V212.8C307.01 212.944 307.55 213.616 307.55 214.552C307.55 216.136 306.326 217.108 304.286 217.108Z" fill="#B7BECB"/>
<path d="M324 214L356 214" stroke="#EB88E7" stroke-width="2" stroke-miterlimit="10" stroke-linecap="round" stroke-linejoin="round"/>
<path d="M372 214L396 214" stroke="#E8AA00" stroke-width="2" stroke-miterlimit="10" stroke-linecap="round" stroke-linejoin="round"/>
<path d="M412 214L430 214" stroke="#8C94A2" stroke-width="2" stroke-miterlimit="10" stroke-linecap="round" stroke-linejoin="round"/>
<path d="M305.234 237V235.284H301.106V234.108L305.114 229.104H306.638V234.108H307.862V235.284H306.638V237H305.234ZM302.474 234.108H305.234V230.676H305.222L302.474 234.096V234.108Z" fill="#B7BECB"/>
<path d="M304.466 257.108C302.558 257.108 301.37 256.268 301.37 254.924C301.37 254.804 301.382 254.684 301.394 254.612H302.69C302.678 254.708 302.678 254.78 302.678 254.828C302.678 255.5 303.374 255.932 304.442 255.932C305.45 255.932 306.074 255.272 306.074 254.312C306.074 253.412 305.438 252.86 304.406 252.86C303.614 252.86 302.99 253.208 302.786 253.772L301.478 253.64L301.802 249.104H306.998V250.28H302.966L302.762 252.896L302.786 252.908C303.026 252.272 303.758 251.876 304.802 251.876C306.506 251.876 307.478 252.824 307.478 254.312C307.478 255.992 306.314 257.108 304.466 257.108Z" fill="#B7BECB"/>
<path d="M324 254L388 254" stroke="#8C94A2" stroke-width="2" stroke-miterlimit="10" stroke-linecap="round" stroke-linejoin="round"/>
<path d="M304.514 277.108C302.186 277.108 301.202 275.656 301.202 273.1C301.202 270.556 302.342 268.996 304.514 268.996C306.314 268.996 307.298 269.92 307.298 271.42C307.298 271.564 307.286 271.732 307.274 271.84H306.002C306.014 271.72 306.026 271.6 306.026 271.468C306.026 270.688 305.51 270.172 304.538 270.172C303.218 270.172 302.606 271.24 302.606 273.016V273.652H302.63C302.786 272.86 303.566 272.38 304.826 272.38C306.626 272.38 307.562 273.196 307.562 274.54C307.562 276.124 306.398 277.108 304.514 277.108ZM304.526 275.956C305.546 275.956 306.194 275.404 306.194 274.54C306.194 273.808 305.606 273.376 304.538 273.376C303.41 273.376 302.714 273.904 302.714 274.612C302.81 275.404 303.506 275.956 304.526 275.956Z" fill="#B7BECB"/>
<path d="M324 274L356 274" stroke="#EB88E7" stroke-width="2" stroke-miterlimit="10" stroke-linecap="round" stroke-linejoin="round"/>
<path d="M372 274L396 274" stroke="#E8AA00" stroke-width="2" stroke-miterlimit="10" stroke-linecap="round" stroke-linejoin="round"/>
<path d="M412 274L444 274" stroke="#8C94A2" stroke-width="2" stroke-miterlimit="10" stroke-linecap="round" stroke-linejoin="round"/>
<path d="M302.366 297C302.93 294.216 304.238 292.044 306.11 290.352V290.34H301.142V289.104H307.61V290.256C305.438 292.344 304.526 294.288 304.01 297H302.366Z" fill="#B7BECB"/>
<path d="M324 294L356 294" stroke="#EB88E7" stroke-width="2" stroke-miterlimit="10" stroke-linecap="round" stroke-linejoin="round"/>
<path d="M372 294L396 294" stroke="#E8AA00" stroke-width="2" stroke-miterlimit="10" stroke-linecap="round" stroke-linejoin="round"/>
<path d="M412 294L444 294" stroke="#8C94A2" stroke-width="2" stroke-miterlimit="10" stroke-linecap="round" stroke-linejoin="round"/>
<path d="M304.382 317.108C302.402 317.108 301.19 316.22 301.19 314.756C301.19 313.772 301.802 313.064 302.762 312.884V312.872C301.982 312.704 301.538 312.044 301.538 311.228C301.538 309.824 302.618 308.996 304.382 308.996C306.146 308.996 307.226 309.824 307.226 311.228C307.226 312.044 306.782 312.704 306.002 312.872V312.884C306.95 313.064 307.574 313.772 307.574 314.756C307.574 316.22 306.362 317.108 304.382 317.108ZM304.382 312.5C305.354 312.5 305.954 312.056 305.954 311.336C305.954 310.58 305.354 310.112 304.382 310.112C303.41 310.112 302.81 310.58 302.81 311.336C302.81 312.056 303.41 312.5 304.382 312.5ZM304.382 315.992C305.486 315.992 306.182 315.488 306.182 314.684C306.182 313.916 305.486 313.448 304.382 313.448C303.278 313.448 302.582 313.916 302.582 314.684C302.582 315.488 303.278 315.992 304.382 315.992Z" fill="#B7BECB"/>
<path d="M304.298 337.108C302.462 337.108 301.382 336.22 301.382 334.888C301.382 334.804 301.382 334.624 301.394 334.492H302.666C302.654 334.624 302.654 334.732 302.654 334.78C302.654 335.464 303.242 335.932 304.286 335.932C305.558 335.932 306.158 335.02 306.158 333.1C306.158 332.908 306.146 332.656 306.134 332.488H306.11C305.99 333.352 305.258 333.94 303.986 333.94C302.198 333.94 301.202 333.04 301.202 331.66C301.202 330.028 302.402 328.996 304.286 328.996C306.314 328.996 307.562 330.148 307.562 332.968C307.562 335.728 306.386 337.108 304.298 337.108ZM304.178 332.944C305.318 332.944 306.014 332.332 306.014 331.456C305.942 330.712 305.33 330.16 304.286 330.16C303.206 330.16 302.57 330.748 302.57 331.612C302.57 332.44 303.194 332.944 304.178 332.944Z" fill="#B7BECB"/>
<path d="M324 334L342 334" stroke="#EB88E7" stroke-width="2" stroke-miterlimit="10" stroke-linecap="round" stroke-linejoin="round"/>
<path d="M358 334L382 334" stroke="#E8AA00" stroke-width="2" stroke-miterlimit="10" stroke-linecap="round" stroke-linejoin="round"/>
<path d="M398 334L430 334" stroke="#8C94A2" stroke-width="2" stroke-miterlimit="10" stroke-linecap="round" stroke-linejoin="round"/>
<path d="M294.116 357V355.824H296.672V352.044H294.896V351.084L295.928 351.06C296.696 351.036 296.852 350.724 296.876 349.044H298.076V355.824H300.164V357H294.116ZM304.382 357.108C302.27 357.108 301.202 355.5 301.202 353.016C301.202 350.532 302.318 348.996 304.382 348.996C306.446 348.996 307.562 350.532 307.562 353.016C307.562 355.5 306.494 357.108 304.382 357.108ZM304.382 355.932C305.558 355.932 306.17 354.84 306.17 353.016C306.17 351.228 305.546 350.172 304.382 350.172C303.218 350.172 302.594 351.228 302.594 353.016C302.594 354.84 303.194 355.932 304.382 355.932Z" fill="#B7BECB"/>
<path d="M340 354L358 354" stroke="#EB88E7" stroke-width="2" stroke-miterlimit="10" stroke-linecap="round" stroke-linejoin="round"/>
<path d="M374 354L422 354" stroke="#8C94A2" stroke-width="2" stroke-miterlimit="10" stroke-linecap="round" stroke-linejoin="round"/>
</g>
<path d="M623 128V722H625V128H623Z" fill="#D9DFE8"/>
<g clip-path="url(#clip5_705_1865)">
<path d="M72 128H280V722H72V128Z" fill="#F1F4F9"/>
<rect x="72" y="128" width="208" height="32" fill="#F1F4F9"/>
<rect x="72" y="128" width="208" height="32" stroke="#D9DFE8" stroke-width="2"/>
<path d="M95 142H81V139C81 138.45 81.45 138 82 138H87L87.67 139H94C94.55 139 95 139.45 95 140V142Z" fill="#76A3ED" stroke="#406DC8" stroke-width="2" stroke-miterlimit="10" stroke-linecap="round"/>
<path d="M81 142H95V149C95 149.552 94.5523 150 94 150H82C81.4477 150 81 149.552 81 149V142Z" fill="#CBDFF8" stroke="#406DC8" stroke-width="2" stroke-miterlimit="10" stroke-linecap="round" stroke-linejoin="round"/>
<path d="M104 144L136 144" stroke="#8C94A2" stroke-width="2" stroke-miterlimit="10" stroke-linecap="round" stroke-linejoin="round"/>
<path d="M147 142L152 146L157 142" stroke="#8C94A2" stroke-width="2" stroke-miterlimit="10" stroke-linecap="round" stroke-linejoin="round"/>
<path d="M250 139L246 144L250 149" stroke="#8C94A2" stroke-width="2" stroke-miterlimit="10" stroke-linecap="round" stroke-linejoin="round"/>
<path d="M262 139L266 144L262 149" stroke="#8C94A2" stroke-width="2" stroke-miterlimit="10" stroke-linecap="round" stroke-linejoin="round"/>
<path d="M94 171L98 176L94 181" stroke="#8C94A2" stroke-width="2" stroke-miterlimit="10" stroke-linecap="round" stroke-linejoin="round"/>
<path d="M127 174H113V171C113 170.45 113.45 170 114 170H119L119.67 171H126C126.55 171 127 171.45 127 172V174Z" fill="#76A3ED" stroke="#406DC8" stroke-width="2" stroke-miterlimit="10" stroke-linecap="round"/>
<path d="M113 174H127V181C127 181.552 126.552 182 126 182H114C113.448 182 113 181.552 113 181V174Z" fill="#CBDFF8" stroke="#406DC8" stroke-width="2" stroke-miterlimit="10" stroke-linecap="round" stroke-linejoin="round"/>
<path d="M136 176L168 176" stroke="#8C94A2" stroke-width="2" stroke-miterlimit="10" stroke-linecap="round" stroke-linejoin="round"/>
<path d="M94 195L98 200L94 205" stroke="#8C94A2" stroke-width="2" stroke-miterlimit="10" stroke-linecap="round" stroke-linejoin="round"/>
<path d="M127 198H113V195C113 194.45 113.45 194 114 194H119L119.67 195H126C126.55 195 127 195.45 127 196V198Z" fill="#76A3ED" stroke="#406DC8" stroke-width="2" stroke-miterlimit="10" stroke-linecap="round"/>
<path d="M113 198H127V205C127 205.552 126.552 206 126 206H114C113.448 206 113 205.552 113 205V198Z" fill="#CBDFF8" stroke="#406DC8" stroke-width="2" stroke-miterlimit="10" stroke-linecap="round" stroke-linejoin="round"/>
<path d="M136 200L168 200" stroke="#8C94A2" stroke-width="2" stroke-miterlimit="10" stroke-linecap="round" stroke-linejoin="round"/>
<path d="M94 219L98 224L94 229" stroke="#8C94A2" stroke-width="2" stroke-miterlimit="10" stroke-linecap="round" stroke-linejoin="round"/>
<path d="M127 222H113V219C113 218.45 113.45 218 114 218H119L119.67 219H126C126.55 219 127 219.45 127 220V222Z" fill="#76A3ED" stroke="#406DC8" stroke-width="2" stroke-miterlimit="10" stroke-linecap="round"/>
<path d="M113 222H127V229C127 229.552 126.552 230 126 230H114C113.448 230 113 229.552 113 229V222Z" fill="#CBDFF8" stroke="#406DC8" stroke-width="2" stroke-miterlimit="10" stroke-linecap="round" stroke-linejoin="round"/>
<path d="M136 224L168 224" stroke="#8C94A2" stroke-width="2" stroke-miterlimit="10" stroke-linecap="round" stroke-linejoin="round"/>
<path d="M94 243L98 248L94 253" stroke="#8C94A2" stroke-width="2" stroke-miterlimit="10" stroke-linecap="round" stroke-linejoin="round"/>
<path d="M127 246H113V243C113 242.45 113.45 242 114 242H119L119.67 243H126C126.55 243 127 243.45 127 244V246Z" fill="#76A3ED" stroke="#406DC8" stroke-width="2" stroke-miterlimit="10" stroke-linecap="round"/>
<path d="M113 246H127V253C127 253.552 126.552 254 126 254H114C113.448 254 113 253.552 113 253V246Z" fill="#CBDFF8" stroke="#406DC8" stroke-width="2" stroke-miterlimit="10" stroke-linecap="round" stroke-linejoin="round"/>
<path d="M136 248L168 248" stroke="#8C94A2" stroke-width="2" stroke-miterlimit="10" stroke-linecap="round" stroke-linejoin="round"/>
<path d="M118 267L122 272L118 277" stroke="#8C94A2" stroke-width="2" stroke-miterlimit="10" stroke-linecap="round" stroke-linejoin="round"/>
<path d="M151 270H137V267C137 266.45 137.45 266 138 266H143L143.67 267H150C150.55 267 151 267.45 151 268V270Z" fill="#76A3ED" stroke="#406DC8" stroke-width="2" stroke-miterlimit="10" stroke-linecap="round"/>
<path d="M137 270H151V277C151 277.552 150.552 278 150 278H138C137.448 278 137 277.552 137 277V270Z" fill="#CBDFF8" stroke="#406DC8" stroke-width="2" stroke-miterlimit="10" stroke-linecap="round" stroke-linejoin="round"/>
<path d="M160 272L192 272" stroke="#8C94A2" stroke-width="2" stroke-miterlimit="10" stroke-linecap="round" stroke-linejoin="round"/>
<path d="M118 291L122 296L118 301" stroke="#8C94A2" stroke-width="2" stroke-miterlimit="10" stroke-linecap="round" stroke-linejoin="round"/>
<path d="M151 294H137V291C137 290.45 137.45 290 138 290H143L143.67 291H150C150.55 291 151 291.45 151 292V294Z" fill="#76A3ED" stroke="#406DC8" stroke-width="2" stroke-miterlimit="10" stroke-linecap="round"/>
<path d="M137 294H151V301C151 301.552 150.552 302 150 302H138C137.448 302 137 301.552 137 301V294Z" fill="#CBDFF8" stroke="#406DC8" stroke-width="2" stroke-miterlimit="10" stroke-linecap="round" stroke-linejoin="round"/>
<path d="M160 296L192 296" stroke="#8C94A2" stroke-width="2" stroke-miterlimit="10" stroke-linecap="round" stroke-linejoin="round"/>
<path d="M118 315L122 320L118 325" stroke="#8C94A2" stroke-width="2" stroke-miterlimit="10" stroke-linecap="round" stroke-linejoin="round"/>
<path d="M151 318H137V315C137 314.45 137.45 314 138 314H143L143.67 315H150C150.55 315 151 315.45 151 316V318Z" fill="#76A3ED" stroke="#406DC8" stroke-width="2" stroke-miterlimit="10" stroke-linecap="round"/>
<path d="M137 318H151V325C151 325.552 150.552 326 150 326H138C137.448 326 137 325.552 137 325V318Z" fill="#CBDFF8" stroke="#406DC8" stroke-width="2" stroke-miterlimit="10" stroke-linecap="round" stroke-linejoin="round"/>
<path d="M160 320L192 320" stroke="#8C94A2" stroke-width="2" stroke-miterlimit="10" stroke-linecap="round" stroke-linejoin="round"/>
<path d="M127 342H113V339C113 338.45 113.45 338 114 338H119L119.67 339H126C126.55 339 127 339.45 127 340V342Z" fill="#E8AA00" stroke="#B15A00" stroke-width="2" stroke-miterlimit="10" stroke-linecap="round"/>
<path d="M113 342H127V349C127 349.552 126.552 350 126 350H114C113.448 350 113 349.552 113 349V342Z" fill="#F8E58E" stroke="#B15A00" stroke-width="2" stroke-miterlimit="10" stroke-linecap="round" stroke-linejoin="round"/>
<path d="M136 344L168 344" stroke="#8C94A2" stroke-width="2" stroke-miterlimit="10" stroke-linecap="round" stroke-linejoin="round"/>
<path d="M127 366H113V363C113 362.45 113.45 362 114 362H119L119.67 363H126C126.55 363 127 363.45 127 364V366Z" fill="#E8AA00" stroke="#B15A00" stroke-width="2" stroke-miterlimit="10" stroke-linecap="round"/>
</g>
<path d="M279 128V722H281V128H279Z" fill="#D9DFE8"/>
</g>
<path d="M72 80C72 75.5817 75.5817 72 80 72H624V464H72V80Z" stroke="#CBBAB7" stroke-width="2"/>
</g>
<defs>
<clipPath id="clip0_705_1865">
<rect width="594" height="364" fill="white"/>
</clipPath>
<clipPath id="clip1_705_1865">
<path d="M72 80C72 75.5817 75.5817 72 80 72H624V464H72V80Z" fill="white"/>
</clipPath>
<clipPath id="clip2_705_1865">
<path d="M72 72H837V104H72V72Z" fill="white"/>
</clipPath>
<clipPath id="clip3_705_1865">
<path d="M72 104H837V128H72V104Z" fill="white"/>
</clipPath>
<clipPath id="clip4_705_1865">
<path d="M280 128H624V722H280V128Z" fill="white"/>
</clipPath>
<clipPath id="clip5_705_1865">
<path d="M72 128H280V722H72V128Z" fill="white"/>
</clipPath>
</defs>
</svg>
