<svg xmlns="http://www.w3.org/2000/svg" xmlns:xlink="http://www.w3.org/1999/xlink" width="378" height="252" viewBox="0 0 378 252">
  <defs>
    <style>
      .a, .n {
        fill: none;
      }

      .b {
        fill: #fff8e2;
      }

      .c {
        fill: #fff;
      }

      .d {
        fill: #ff7e6d;
      }

      .e {
        fill: #ffdb6d;
      }

      .f {
        fill: #27cba4;
      }

      .g {
        clip-path: url(#a);
      }

      .h {
        fill: #1a626e;
      }

      .i {
        fill: #f7fbfb;
      }

      .j {
        fill: #c0d8d8;
      }

      .k {
        fill: #dba758;
      }

      .l {
        fill: #ffe38d;
      }

      .m {
        fill: #919aa5;
      }

      .n {
        stroke: #6fa6ad;
        stroke-miterlimit: 10;
        stroke-width: 2px;
      }
    </style>
    <clipPath id="a">
      <path class="a" d="M99,78H225a0,0,0,0,1,0,0V198a0,0,0,0,1,0,0H103a4,4,0,0,1-4-4V78A0,0,0,0,1,99,78Z"/>
    </clipPath>
  </defs>
  <title>code-default-2</title>
  <g>
    <rect class="b" width="378" height="252"/>
    <g>
      <path class="c" d="M103,54H275a4,4,0,0,1,4,4V78a0,0,0,0,1,0,0H99a0,0,0,0,1,0,0V58A4,4,0,0,1,103,54Z"/>
      <circle class="d" cx="111" cy="66" r="4.5"/>
      <circle class="e" cx="124.5" cy="66" r="4.5"/>
      <circle class="f" cx="138" cy="66" r="4.5"/>
      <g class="g">
        <path class="h" d="M99,78H225a0,0,0,0,1,0,0V198a0,0,0,0,1,0,0H103a4,4,0,0,1-4-4V78A0,0,0,0,1,99,78Z"/>
        <g>
          <rect class="i" x="114" y="91.5" width="45" height="3"/>
          <rect class="i" x="142.5" y="115.5" width="45" height="3"/>
          <rect class="i" x="202.5" y="157.5" width="45" height="3"/>
          <rect class="i" x="217.5" y="163.5" width="45" height="3"/>
          <rect class="i" x="223.5" y="169.5" width="27" height="3"/>
          <rect class="d" x="114" y="97.5" width="15" height="3"/>
          <rect class="d" x="114" y="103.5" width="18" height="3"/>
          <rect class="d" x="114" y="133.5" width="21" height="3"/>
          <rect class="d" x="114" y="139.5" width="19.5" height="3"/>
          <rect class="d" x="114" y="205.5" width="21" height="3"/>
          <rect class="d" x="114" y="211.5" width="21" height="3"/>
          <rect class="d" x="120" y="109.5" width="15" height="3" transform="translate(255 222) rotate(180)"/>
          <rect class="d" x="120" y="145.5" width="12" height="3" transform="translate(252 294) rotate(180)"/>
          <rect class="d" x="126" y="151.5" width="12" height="3" transform="translate(264 306) rotate(180)"/>
          <rect class="d" x="126" y="181.5" width="12" height="3" transform="translate(264 366) rotate(180)"/>
          <rect class="d" x="126" y="175.5" width="18" height="3" transform="translate(270 354) rotate(180)"/>
          <rect class="d" x="126" y="193.5" width="18" height="3" transform="translate(270 390) rotate(180)"/>
          <rect class="d" x="120" y="199.5" width="18" height="3" transform="translate(258 402) rotate(180)"/>
          <rect class="d" x="132" y="157.5" width="9" height="3" transform="translate(273 318) rotate(180)"/>
          <rect class="d" x="132" y="187.5" width="9" height="3" transform="translate(273 378) rotate(180)"/>
          <rect class="d" x="132" y="163.5" width="9" height="3" transform="translate(273 330) rotate(180)"/>
          <rect class="d" x="132" y="169.5" width="15" height="3" transform="translate(279 342) rotate(180)"/>
          <rect class="f" x="133.5" y="97.5" width="10.5" height="3"/>
          <rect class="f" x="139.5" y="121.5" width="10.5" height="3" transform="translate(289.5 246) rotate(180)"/>
          <rect class="f" x="139.5" y="127.5" width="10.5" height="3" transform="translate(289.5 258) rotate(180)"/>
          <rect class="f" x="136.5" y="145.5" width="13.5" height="3" transform="translate(286.5 294) rotate(180)"/>
          <rect class="f" x="142.5" y="151.5" width="13.5" height="3" transform="translate(298.5 306) rotate(180)"/>
          <rect class="f" x="145.5" y="157.5" width="13.5" height="3" transform="translate(304.5 318) rotate(180)"/>
          <rect class="f" x="145.5" y="163.5" width="13.5" height="3" transform="translate(304.5 330) rotate(180)"/>
          <rect class="f" x="150" y="169.5" width="12" height="3" transform="translate(312 342) rotate(180)"/>
          <rect class="f" x="138" y="109.5" width="21" height="3"/>
          <rect class="e" x="148.5" y="97.5" width="10.5" height="3"/>
          <rect class="e" x="156" y="121.5" width="27" height="3"/>
          <rect class="d" x="120" y="115.5" width="19.5" height="3" transform="translate(259.5 234) rotate(180)"/>
          <rect class="d" x="192" y="115.5" width="22.5" height="3" transform="translate(406.5 234) rotate(180)"/>
          <rect class="d" x="120" y="121.5" width="15" height="3" transform="translate(255 246) rotate(180)"/>
          <rect class="d" x="120" y="127.5" width="15" height="3" transform="translate(255 258) rotate(180)"/>
          <rect class="e" x="154.5" y="127.5" width="30" height="3"/>
          <rect class="e" x="163.5" y="151.5" width="36" height="3"/>
          <rect class="e" x="163.5" y="157.5" width="34.5" height="3"/>
          <rect class="e" x="163.5" y="163.5" width="48" height="3"/>
          <rect class="e" x="213" y="121.5" width="58.5" height="3"/>
          <rect class="f" x="189" y="121.5" width="18" height="3" transform="translate(396 246) rotate(180)"/>
          <rect class="f" x="189" y="127.5" width="10.5" height="3" transform="translate(388.5 258) rotate(180)"/>
          <rect class="j" x="166.5" y="169.5" width="7.5" height="3" transform="translate(340.5 342) rotate(180)"/>
          <rect class="j" x="162" y="187.5" width="63" height="3" transform="translate(387 378) rotate(180)"/>
          <rect class="f" x="178.5" y="169.5" width="12" height="3" transform="translate(369 342) rotate(180)"/>
          <rect class="e" x="157.5" y="145.5" width="10.5" height="3"/>
          <rect class="e" x="199.5" y="169.5" width="19.5" height="3"/>
          <rect class="e" x="162" y="181.5" width="31.5" height="3"/>
          <rect class="f" x="142.5" y="181.5" width="13.5" height="3" transform="translate(298.5 366) rotate(180)"/>
          <rect class="f" x="145.5" y="187.5" width="10.5" height="3" transform="translate(301.5 378) rotate(180)"/>
        </g>
      </g>
      <path class="i" d="M225,78h54a0,0,0,0,1,0,0V194a4,4,0,0,1-4,4H225a0,0,0,0,1,0,0V78A0,0,0,0,1,225,78Z"/>
      <g>
        <path class="k" d="M238.313,88.5h-5.625a.187.187,0,0,1-.187-.187V84.188a.187.187,0,0,1,.188-.187h1.875a.187.187,0,0,1,.188.188v.563h3.474a.276.276,0,0,1,.276.276v3.286A.187.187,0,0,1,238.313,88.5Z"/>
        <path class="l" d="M238.313,88.5h-5.625a.187.187,0,0,1-.187-.187V85.5h6v2.813A.187.187,0,0,1,238.313,88.5Z"/>
      </g>
      <g>
        <path class="k" d="M242.813,99h-5.625a.187.187,0,0,1-.187-.187V94.688a.187.187,0,0,1,.188-.187h1.875a.187.187,0,0,1,.188.188v.563h3.474a.276.276,0,0,1,.276.276v3.286A.187.187,0,0,1,242.813,99Z"/>
        <path class="l" d="M242.813,99h-5.625a.187.187,0,0,1-.187-.187V96h6v2.813A.187.187,0,0,1,242.813,99Z"/>
      </g>
      <polygon class="m" points="228 85.5 229.5 87 228 88.5 228 85.5"/>
      <polygon class="m" points="232 96 233.5 97.5 232 99 232 96"/>
      <line class="n" x1="241.5" y1="87" x2="259.5" y2="87"/>
      <line class="n" x1="246" y1="97.5" x2="258" y2="97.5"/>
      <g>
        <path class="k" d="M242.813,109.5h-5.625a.187.187,0,0,1-.187-.187v-4.125a.187.187,0,0,1,.188-.187h1.875a.187.187,0,0,1,.188.188v.563h3.474a.276.276,0,0,1,.276.276v3.286A.187.187,0,0,1,242.813,109.5Z"/>
        <path class="l" d="M242.813,109.5h-5.625a.187.187,0,0,1-.187-.187V106.5h6v2.813A.187.187,0,0,1,242.813,109.5Z"/>
      </g>
      <polygon class="m" points="232 106.5 233.5 108 232 109.5 232 106.5"/>
      <line class="n" x1="246" y1="108" x2="262.5" y2="108"/>
      <g>
        <path class="k" d="M242.813,120h-5.625a.187.187,0,0,1-.187-.187v-4.125a.187.187,0,0,1,.188-.187h1.875a.187.187,0,0,1,.188.188v.563h3.474a.276.276,0,0,1,.276.276v3.286A.187.187,0,0,1,242.813,120Z"/>
        <path class="l" d="M242.813,120h-5.625a.187.187,0,0,1-.187-.187V117h6v2.813A.187.187,0,0,1,242.813,120Z"/>
      </g>
      <polygon class="m" points="232 117 233.5 118.5 232 120 232 117"/>
      <line class="n" x1="246" y1="118.5" x2="255" y2="118.5"/>
    </g>
  </g>
</svg>
