<svg width="594" height="364" viewBox="0 0 594 364" fill="none" xmlns="http://www.w3.org/2000/svg">
<g clip-path="url(#clip0_705_3096)">
<path d="M72 80C72 75.5817 75.5817 72 80 72H636V464H72V80Z" fill="#E4EAF1"/>
<rect x="71" y="135" width="210" height="596" fill="#F8FAFC"/>
<rect x="71" y="135" width="210" height="596" stroke="#8C94A2" stroke-width="2"/>
<path d="M280 166H72V170H280V166Z" fill="#E4EAF1" mask="url(#path-3-inside-1_705_3096)"/>
<path d="M99 155L101 157" stroke="#B7BECB" stroke-width="4" stroke-miterlimit="10" stroke-linecap="round"/>
<circle cx="95" cy="151" r="5" fill="white" stroke="#B7BECB" stroke-width="2"/>
<path d="M112 152L144 152" stroke="#282C34" stroke-width="2" stroke-miterlimit="10" stroke-linecap="round" stroke-linejoin="round"/>
<path d="M156 152L192 152" stroke="#8C94A2" stroke-width="2" stroke-miterlimit="10" stroke-linecap="round" stroke-linejoin="round"/>
<path d="M226 152L252 152" stroke="#8C94A2" stroke-width="2" stroke-miterlimit="10" stroke-linecap="round" stroke-linejoin="round"/>
<path d="M257.5 153L260 151L262.5 153" stroke="#B7BECB" stroke-width="2" stroke-miterlimit="10" stroke-linecap="round" stroke-linejoin="round"/>
<path d="M88 184L124 184" stroke="#282C34" stroke-width="2" stroke-miterlimit="10" stroke-linecap="round" stroke-linejoin="round"/>
<path d="M251 184H261" stroke="#282C34" stroke-width="2" stroke-miterlimit="10" stroke-linecap="round" stroke-linejoin="round"/>
<path d="M256 179L256 189" stroke="#282C34" stroke-width="2" stroke-miterlimit="10" stroke-linecap="round" stroke-linejoin="round"/>
<path d="M280 274H72V278H280V274Z" fill="#E4EAF1" mask="url(#path-14-inside-2_705_3096)"/>
<path d="M91 208L94 211L101 204" stroke="#282C34" stroke-width="2" stroke-miterlimit="10" stroke-linecap="round" stroke-linejoin="round"/>
<path d="M112 208L144 208" stroke="#282C34" stroke-width="2" stroke-miterlimit="10" stroke-linecap="round" stroke-linejoin="round"/>
<path d="M112 232L156 232" stroke="#8C94A2" stroke-width="2" stroke-miterlimit="10" stroke-linecap="round" stroke-linejoin="round"/>
<path d="M112 256L140 256" stroke="#8C94A2" stroke-width="2" stroke-miterlimit="10" stroke-linecap="round" stroke-linejoin="round"/>
<path d="M280 498H72V502H280V498Z" fill="#E4EAF1" mask="url(#path-20-inside-3_705_3096)"/>
<path d="M90 288H102" stroke="#282C34" stroke-width="2" stroke-miterlimit="10" stroke-linecap="round" stroke-linejoin="round"/>
<path d="M92 286V298" stroke="#282C34" stroke-width="2" stroke-miterlimit="10" stroke-linecap="round" stroke-linejoin="round"/>
<path d="M100 286V298" stroke="#282C34" stroke-width="2" stroke-miterlimit="10" stroke-linecap="round" stroke-linejoin="round"/>
<path d="M90 296H102" stroke="#282C34" stroke-width="2" stroke-miterlimit="10" stroke-linecap="round" stroke-linejoin="round"/>
<path d="M112 292L136 292" stroke="#282C34" stroke-width="2" stroke-miterlimit="10" stroke-linecap="round" stroke-linejoin="round"/>
<path d="M112 310H124" stroke="#8C94A2" stroke-width="2" stroke-miterlimit="10" stroke-linecap="round" stroke-linejoin="round"/>
<path d="M112 314H120" stroke="#8C94A2" stroke-width="2" stroke-miterlimit="10" stroke-linecap="round" stroke-linejoin="round"/>
<path d="M112 318H118" stroke="#8C94A2" stroke-width="2" stroke-miterlimit="10" stroke-linecap="round" stroke-linejoin="round"/>
<path d="M112 322H122" stroke="#8C94A2" stroke-width="2" stroke-miterlimit="10" stroke-linecap="round" stroke-linejoin="round"/>
<path d="M134 316L178 316" stroke="#626975" stroke-width="2" stroke-miterlimit="10" stroke-linecap="round" stroke-linejoin="round"/>
<path d="M139.293 333.636C139.683 333.246 140.317 333.246 140.707 333.636L146.364 339.293C146.754 339.683 146.754 340.317 146.364 340.707L140.707 346.364C140.317 346.755 139.683 346.755 139.293 346.364L133.636 340.707C133.246 340.317 133.246 339.683 133.636 339.293L139.293 333.636Z" stroke="#B7A0F2" stroke-width="2" stroke-miterlimit="10" stroke-linecap="round" stroke-linejoin="round"/>
<path d="M156 340L200 340" stroke="#8E77E4" stroke-width="2" stroke-miterlimit="10" stroke-linecap="round" stroke-linejoin="round"/>
<path d="M139.293 357.636C139.683 357.246 140.317 357.246 140.707 357.636L146.364 363.293C146.754 363.683 146.754 364.317 146.364 364.707L140.707 370.364C140.317 370.755 139.683 370.755 139.293 370.364L133.636 364.707C133.246 364.317 133.246 363.683 133.636 363.293L139.293 357.636Z" stroke="#B7A0F2" stroke-width="2" stroke-miterlimit="10" stroke-linecap="round" stroke-linejoin="round"/>
<path d="M156 364L200 364" stroke="#8E77E4" stroke-width="2" stroke-miterlimit="10" stroke-linecap="round" stroke-linejoin="round"/>
<g clip-path="url(#clip1_705_3096)">
<rect width="765" height="32" transform="translate(72 72)" fill="#282C34"/>
<path d="M396 72V104H400V72H396Z" fill="#3F454F" mask="url(#path-38-inside-4_705_3096)"/>
<path d="M89 104V72H87V104H89Z" fill="#3F454F"/>
<path d="M101 87L108 81L115 87" stroke="#D9DFE8" stroke-width="2" stroke-miterlimit="10" stroke-linecap="round" stroke-linejoin="round"/>
<path d="M110 89H106V94H110V89Z" fill="#15181F"/>
<path d="M102 86.3301V95.0001H106V89.0001H110V95.0001H114V86.3301" stroke="#D9DFE8" stroke-width="2" stroke-miterlimit="10" stroke-linecap="round" stroke-linejoin="round"/>
<path d="M106 94H110" stroke="#D9DFE8" stroke-width="2" stroke-miterlimit="10" stroke-linecap="round" stroke-linejoin="round"/>
<path d="M129 104V72H127V104H129Z" fill="#3F454F"/>
<rect x="140" y="80" width="16" height="16" rx="2" fill="#4F7FDA"/>
<path d="M150.25 93.25H145.75C145.75 91 143.5 88.75 143.5 88.75L148 82.75L152.5 88.75C152.5 88.75 150.25 91 150.25 93.25Z" stroke="#EBF2FA" stroke-width="2" stroke-miterlimit="10" stroke-linecap="round" stroke-linejoin="round"/>
<path d="M148 83.5L148 88.75" stroke="#EBF2FA" stroke-width="2" stroke-miterlimit="10" stroke-linecap="round" stroke-linejoin="round"/>
<circle cx="148" cy="88.75" r="0.75" fill="#EBF2FA" stroke="#EBF2FA"/>
<path d="M145 93.25H151" stroke="#EBF2FA" stroke-width="2" stroke-miterlimit="10" stroke-linecap="square" stroke-linejoin="round"/>
<path d="M164 88H204" stroke="#D9DFE8" stroke-width="2" stroke-miterlimit="10" stroke-linecap="round" stroke-linejoin="round"/>
<path d="M217 104V72H215V104H217Z" fill="#3F454F"/>
<rect x="228" y="80" width="16" height="16" rx="8" fill="#3F454F"/>
<path d="M232.25 84.491C232.25 83.7192 233.087 83.2384 233.754 83.6273L239.769 87.1362C240.431 87.5221 240.431 88.4779 239.769 88.8638L233.754 92.3727C233.087 92.7616 232.25 92.2808 232.25 91.509L232.25 84.491Z" stroke="#8C94A2" stroke-width="2" stroke-miterlimit="10" stroke-linecap="round" stroke-linejoin="round"/>
<path d="M252 88H306" stroke="#D9DFE8" stroke-width="2" stroke-miterlimit="10" stroke-linecap="round" stroke-linejoin="round"/>
<path d="M313 88H325" stroke="#B7BECB" stroke-width="2" stroke-miterlimit="10" stroke-linecap="round" stroke-linejoin="round"/>
<path d="M332 88H386" stroke="#D9DFE8" stroke-width="2" stroke-miterlimit="10" stroke-linecap="round" stroke-linejoin="round"/>
<g clip-path="url(#clip2_705_3096)">
<rect width="765" height="32" transform="translate(72 104)" fill="#3F454F"/>
<path d="M100 116C100 114.895 100.895 114 102 114H104V118H102C100.895 118 100 117.105 100 116V116Z" stroke="#B7BECB" stroke-width="2" stroke-miterlimit="10" stroke-linecap="round" stroke-linejoin="round"/>
<path d="M100 120C100 118.895 100.895 118 102 118H104V122H102C100.895 122 100 121.105 100 120V120Z" stroke="#B7BECB" stroke-width="2" stroke-miterlimit="10" stroke-linecap="round" stroke-linejoin="round"/>
<path d="M100 124C100 122.895 100.895 122 102 122H104V124C104 125.105 103.105 126 102 126V126C100.895 126 100 125.105 100 124V124Z" stroke="#B7BECB" stroke-width="2" stroke-miterlimit="10" stroke-linecap="round" stroke-linejoin="round"/>
<path d="M104 114H106C107.105 114 108 114.895 108 116V116C108 117.105 107.105 118 106 118H104V114Z" stroke="#B7BECB" stroke-width="2" stroke-miterlimit="10" stroke-linecap="round" stroke-linejoin="round"/>
<rect x="104" y="118" width="4" height="4" rx="2" stroke="#B7BECB" stroke-width="2" stroke-miterlimit="10" stroke-linecap="round" stroke-linejoin="round"/>
<path d="M115.5 119L118 121L120.5 119" stroke="#B7BECB" stroke-width="2" stroke-miterlimit="10" stroke-linecap="round" stroke-linejoin="round"/>
<path d="M128 104H168V136H128V104Z" fill="#4F7FDA"/>
<path d="M128 104V103H127V104H128ZM128 105H168V103H128V105ZM129 136V104H127V136H129Z" fill="#4F7FDA"/>
<path d="M139.606 113.988L150.01 120.057L143.941 120.924L140.473 126.127L139.606 113.988Z" stroke="white" stroke-width="2" stroke-miterlimit="10" stroke-linecap="round" stroke-linejoin="round"/>
<path d="M155.5 119L158 121L160.5 119" stroke="white" stroke-width="2" stroke-miterlimit="10" stroke-linecap="round" stroke-linejoin="round"/>
<path d="M178 116H190" stroke="#B7BECB" stroke-width="2" stroke-miterlimit="10" stroke-linecap="round" stroke-linejoin="round"/>
<path d="M180 114V126" stroke="#B7BECB" stroke-width="2" stroke-miterlimit="10" stroke-linecap="round" stroke-linejoin="round"/>
<path d="M188 114V126" stroke="#B7BECB" stroke-width="2" stroke-miterlimit="10" stroke-linecap="round" stroke-linejoin="round"/>
<path d="M178 124H190" stroke="#B7BECB" stroke-width="2" stroke-miterlimit="10" stroke-linecap="round" stroke-linejoin="round"/>
<path d="M195.5 119L198 121L200.5 119" stroke="#B7BECB" stroke-width="2" stroke-miterlimit="10" stroke-linecap="round" stroke-linejoin="round"/>
<rect x="219" y="115" width="10" height="10" rx="1" stroke="#B7BECB" stroke-width="2" stroke-miterlimit="10" stroke-linecap="round" stroke-linejoin="round"/>
<path d="M235.5 119L238 121L240.5 119" stroke="#B7BECB" stroke-width="2" stroke-miterlimit="10" stroke-linecap="round" stroke-linejoin="round"/>
<path d="M267 127H261C261 124 258 121 258 121L264 113L270 121C270 121 267 124 267 127Z" fill="#3F454F" stroke="#B7BECB" stroke-width="2" stroke-miterlimit="10" stroke-linecap="round" stroke-linejoin="round"/>
<path d="M264 114L264 121" stroke="#B7BECB" stroke-width="2" stroke-miterlimit="10" stroke-linecap="round" stroke-linejoin="round"/>
<circle cx="264" cy="121" r="1" fill="#B7BECB" stroke="#B7BECB"/>
<path d="M260 127H268" stroke="#B7BECB" stroke-width="2" stroke-miterlimit="10" stroke-linecap="square" stroke-linejoin="round"/>
<path d="M275.5 119L278 121L280.5 119" stroke="#B7BECB" stroke-width="2" stroke-miterlimit="10" stroke-linecap="round" stroke-linejoin="round"/>
<path d="M300 115H308" stroke="#B7BECB" stroke-width="2" stroke-miterlimit="10" stroke-linecap="round" stroke-linejoin="round"/>
<path d="M304 115V124" stroke="#B7BECB" stroke-width="2" stroke-miterlimit="10" stroke-linecap="round" stroke-linejoin="round"/>
<path d="M299 116H301" stroke="#B7BECB" stroke-width="2" stroke-miterlimit="10" stroke-linejoin="round"/>
<path d="M309 116H307" stroke="#B7BECB" stroke-width="2" stroke-miterlimit="10" stroke-linejoin="round"/>
<path d="M303 125H305" stroke="#B7BECB" stroke-width="2" stroke-miterlimit="10" stroke-linecap="square" stroke-linejoin="round"/>
<rect x="333" y="117" width="4.24264" height="4.24264" transform="rotate(-45 333 117)" stroke="#B7BECB" stroke-width="2" stroke-miterlimit="10" stroke-linecap="round" stroke-linejoin="round"/>
<rect x="330" y="120" width="4.24264" height="4.24264" transform="rotate(-45 330 120)" stroke="#B7BECB" stroke-width="2" stroke-miterlimit="10" stroke-linecap="round" stroke-linejoin="round"/>
<rect x="333" y="123" width="4.24265" height="4.24265" transform="rotate(-45 333 123)" stroke="#B7BECB" stroke-width="2" stroke-miterlimit="10" stroke-linecap="round" stroke-linejoin="round"/>
<rect x="336" y="120" width="4.24264" height="4.24264" transform="rotate(-45 336 120)" stroke="#B7BECB" stroke-width="2" stroke-miterlimit="10" stroke-linecap="round" stroke-linejoin="round"/>
<path d="M366 124L368 126L370 124" stroke="#B7BECB" stroke-width="2" stroke-miterlimit="10" stroke-linecap="round" stroke-linejoin="round"/>
<path d="M370 116L368 114L366 116" stroke="#B7BECB" stroke-width="2" stroke-miterlimit="10" stroke-linecap="round" stroke-linejoin="round"/>
<path d="M364 118L362 120L364 122" stroke="#B7BECB" stroke-width="2" stroke-miterlimit="10" stroke-linecap="round" stroke-linejoin="round"/>
<path d="M370 120L373 120" stroke="#B7BECB" stroke-width="2" stroke-miterlimit="10" stroke-linecap="round" stroke-linejoin="round"/>
<path d="M363 120L366 120" stroke="#B7BECB" stroke-width="2" stroke-miterlimit="10" stroke-linecap="round" stroke-linejoin="round"/>
<path d="M368 115L368 118" stroke="#B7BECB" stroke-width="2" stroke-miterlimit="10" stroke-linecap="round" stroke-linejoin="round"/>
<path d="M368 122L368 125" stroke="#B7BECB" stroke-width="2" stroke-miterlimit="10" stroke-linecap="round" stroke-linejoin="round"/>
<path d="M372 122L374 120L372 118" stroke="#B7BECB" stroke-width="2" stroke-miterlimit="10" stroke-linecap="round" stroke-linejoin="round"/>
<path d="M403 114H397C395.343 114 394 115.343 394 117V122.167V125C394 125.824 394.941 126.294 395.6 125.8L396.933 124.8C397.626 124.281 398.468 124 399.333 124H403C404.657 124 406 122.657 406 121V117C406 115.343 404.657 114 403 114Z" stroke="#B7BECB" stroke-width="2" stroke-miterlimit="10" stroke-linecap="round" stroke-linejoin="round"/>
</g>
</g>
<path d="M838 72V71H837H80C75.0294 71 71 75.0294 71 80V136V137H72H837H838V136V72Z" stroke="#15181F" stroke-width="2"/>
<rect x="319" y="175" width="324" height="290" fill="white" stroke="#6190E5" stroke-width="2"/>
<path d="M324 165H364" stroke="#6190E5" stroke-width="2" stroke-miterlimit="10" stroke-linecap="round" stroke-linejoin="round"/>
<rect x="316.5" y="173" width="6" height="6" fill="white" stroke="#6190E5" stroke-width="2"/>
</g>
<defs>
<clipPath id="clip0_705_3096">
<rect width="594" height="364" fill="white"/>
</clipPath>
<clipPath id="clip1_705_3096">
<path d="M72 80C72 75.5817 75.5817 72 80 72H837V136H72V80Z" fill="white"/>
</clipPath>
<clipPath id="clip2_705_3096">
<rect width="765" height="32" fill="white" transform="translate(72 104)"/>
</clipPath>
</defs>
</svg>
