<svg width="384" height="316" viewBox="0 0 384 316" fill="none" xmlns="http://www.w3.org/2000/svg">
<g clip-path="url(#clip0_625_1888)">
<path d="M64 72C64 67.5817 67.5817 64 72 64H628V456H64V72Z" fill="#E4EAF1"/>
<rect x="63" y="127" width="210" height="596" fill="#F8FAFC"/>
<path d="M91 147L93 149" stroke="#B7BECB" stroke-width="4" stroke-miterlimit="10" stroke-linecap="round"/>
<circle cx="87" cy="143" r="5" fill="white" stroke="#B7BECB" stroke-width="2"/>
<path d="M104 144L136 144" stroke="#282C34" stroke-width="2" stroke-miterlimit="10" stroke-linecap="round" stroke-linejoin="round"/>
<path d="M148 144L184 144" stroke="#8C94A2" stroke-width="2" stroke-miterlimit="10" stroke-linecap="round" stroke-linejoin="round"/>
<path d="M218 144L244 144" stroke="#8C94A2" stroke-width="2" stroke-miterlimit="10" stroke-linecap="round" stroke-linejoin="round"/>
<path d="M249.5 145L252 143L254.5 145" stroke="#B7BECB" stroke-width="2" stroke-miterlimit="10" stroke-linecap="round" stroke-linejoin="round"/>
<path d="M272 158H64V162H272V158Z" fill="#E4EAF1" mask="url(#path-3-inside-1_625_1888)"/>
<path d="M80 176L116 176" stroke="#282C34" stroke-width="2" stroke-miterlimit="10" stroke-linecap="round" stroke-linejoin="round"/>
<path d="M243 176H253" stroke="#282C34" stroke-width="2" stroke-miterlimit="10" stroke-linecap="round" stroke-linejoin="round"/>
<path d="M248 171L248 181" stroke="#282C34" stroke-width="2" stroke-miterlimit="10" stroke-linecap="round" stroke-linejoin="round"/>
<path d="M83 200L86 203L93 196" stroke="#282C34" stroke-width="2" stroke-miterlimit="10" stroke-linecap="round" stroke-linejoin="round"/>
<path d="M104 200L136 200" stroke="#282C34" stroke-width="2" stroke-miterlimit="10" stroke-linecap="round" stroke-linejoin="round"/>
<path d="M104 224L148 224" stroke="#8C94A2" stroke-width="2" stroke-miterlimit="10" stroke-linecap="round" stroke-linejoin="round"/>
<path d="M104 248L132 248" stroke="#8C94A2" stroke-width="2" stroke-miterlimit="10" stroke-linecap="round" stroke-linejoin="round"/>
<path d="M272 266H64V270H272V266Z" fill="#E4EAF1" mask="url(#path-14-inside-2_625_1888)"/>
<path d="M82 280H94" stroke="#282C34" stroke-width="2" stroke-miterlimit="10" stroke-linecap="round" stroke-linejoin="round"/>
<path d="M84 278V290" stroke="#282C34" stroke-width="2" stroke-miterlimit="10" stroke-linecap="round" stroke-linejoin="round"/>
<path d="M92 278V290" stroke="#282C34" stroke-width="2" stroke-miterlimit="10" stroke-linecap="round" stroke-linejoin="round"/>
<path d="M82 288H94" stroke="#282C34" stroke-width="2" stroke-miterlimit="10" stroke-linecap="round" stroke-linejoin="round"/>
<path d="M104 284L128 284" stroke="#282C34" stroke-width="2" stroke-miterlimit="10" stroke-linecap="round" stroke-linejoin="round"/>
<path d="M104 302H116" stroke="#8C94A2" stroke-width="2" stroke-miterlimit="10" stroke-linecap="round" stroke-linejoin="round"/>
<path d="M104 306H112" stroke="#8C94A2" stroke-width="2" stroke-miterlimit="10" stroke-linecap="round" stroke-linejoin="round"/>
<path d="M104 310H110" stroke="#8C94A2" stroke-width="2" stroke-miterlimit="10" stroke-linecap="round" stroke-linejoin="round"/>
<path d="M104 314H114" stroke="#8C94A2" stroke-width="2" stroke-miterlimit="10" stroke-linecap="round" stroke-linejoin="round"/>
<path d="M126 308L170 308" stroke="#626975" stroke-width="2" stroke-miterlimit="10" stroke-linecap="round" stroke-linejoin="round"/>
<path d="M272 490H64V494H272V490Z" fill="#E4EAF1" mask="url(#path-20-inside-3_625_1888)"/>
<rect x="63" y="127" width="210" height="596" stroke="#8C94A2" stroke-width="2"/>
<g clip-path="url(#clip1_625_1888)">
<rect width="765" height="32" transform="translate(64 64)" fill="#282C34"/>
<path d="M93 79L100 73L107 79" stroke="#D9DFE8" stroke-width="2" stroke-miterlimit="10" stroke-linecap="round" stroke-linejoin="round"/>
<path d="M102 81H98V86H102V81Z" fill="#15181F"/>
<path d="M94 78.3301V87.0001H98V81.0001H102V87.0001H106V78.3301" stroke="#D9DFE8" stroke-width="2" stroke-miterlimit="10" stroke-linecap="round" stroke-linejoin="round"/>
<path d="M98 86H102" stroke="#D9DFE8" stroke-width="2" stroke-miterlimit="10" stroke-linecap="round" stroke-linejoin="round"/>
<path d="M81 96V64H79V96H81Z" fill="#3F454F"/>
<rect x="132" y="72" width="16" height="16" rx="2" fill="#4F7FDA"/>
<path d="M142.25 85.25H137.75C137.75 83 135.5 80.75 135.5 80.75L140 74.75L144.5 80.75C144.5 80.75 142.25 83 142.25 85.25Z" stroke="#EBF2FA" stroke-width="2" stroke-miterlimit="10" stroke-linecap="round" stroke-linejoin="round"/>
<path d="M140 75.5L140 80.75" stroke="#EBF2FA" stroke-width="2" stroke-miterlimit="10" stroke-linecap="round" stroke-linejoin="round"/>
<circle cx="140" cy="80.75" r="0.75" fill="#EBF2FA" stroke="#EBF2FA"/>
<path d="M137 85.25H143" stroke="#EBF2FA" stroke-width="2" stroke-miterlimit="10" stroke-linecap="round" stroke-linejoin="round"/>
<path d="M156 80H196" stroke="#D9DFE8" stroke-width="2" stroke-miterlimit="10" stroke-linecap="round" stroke-linejoin="round"/>
<path d="M121 96V64H119V96H121Z" fill="#3F454F"/>
<rect x="220" y="72" width="16" height="16" rx="8" fill="#3F454F"/>
<path d="M225 77.2662C225 76.4889 225.848 76.0088 226.514 76.4087L231.071 79.1425C231.718 79.5309 231.718 80.4691 231.071 80.8575L226.514 83.5913C225.848 83.9912 225 83.5111 225 82.7338L225 77.2662Z" stroke="#8C94A2" stroke-width="2" stroke-miterlimit="10" stroke-linecap="round" stroke-linejoin="round"/>
<path d="M244 80H298" stroke="#D9DFE8" stroke-width="2" stroke-miterlimit="10" stroke-linecap="round" stroke-linejoin="round"/>
<path d="M305 80H317" stroke="#B7BECB" stroke-width="2" stroke-miterlimit="10" stroke-linecap="round" stroke-linejoin="round"/>
<path d="M324 80H378" stroke="#D9DFE8" stroke-width="2" stroke-miterlimit="10" stroke-linecap="round" stroke-linejoin="round"/>
<path d="M209 96V64H207V96H209Z" fill="#3F454F"/>
<path d="M388 64V96H392V64H388Z" fill="#3F454F" mask="url(#path-34-inside-4_625_1888)"/>
<g clip-path="url(#clip2_625_1888)">
<rect width="765" height="32" transform="translate(64 96)" fill="#3F454F"/>
<path d="M92 108C92 106.895 92.8954 106 94 106H96V110H94C92.8954 110 92 109.105 92 108V108Z" stroke="#B7BECB" stroke-width="2" stroke-miterlimit="10" stroke-linecap="round" stroke-linejoin="round"/>
<path d="M92 112C92 110.895 92.8954 110 94 110H96V114H94C92.8954 114 92 113.105 92 112V112Z" stroke="#B7BECB" stroke-width="2" stroke-miterlimit="10" stroke-linecap="round" stroke-linejoin="round"/>
<path d="M92 116C92 114.895 92.8954 114 94 114H96V116C96 117.105 95.1046 118 94 118V118C92.8954 118 92 117.105 92 116V116Z" stroke="#B7BECB" stroke-width="2" stroke-miterlimit="10" stroke-linecap="round" stroke-linejoin="round"/>
<path d="M96 106H98C99.1046 106 100 106.895 100 108V108C100 109.105 99.1046 110 98 110H96V106Z" stroke="#B7BECB" stroke-width="2" stroke-miterlimit="10" stroke-linecap="round" stroke-linejoin="round"/>
<rect x="96" y="110" width="4" height="4" rx="2" stroke="#B7BECB" stroke-width="2" stroke-miterlimit="10" stroke-linecap="round" stroke-linejoin="round"/>
<path d="M107.5 111L110 113L112.5 111" stroke="#B7BECB" stroke-width="2" stroke-miterlimit="10" stroke-linecap="round" stroke-linejoin="round"/>
<path d="M120 96H160V128H120V96Z" fill="#4F7FDA"/>
<path d="M131.606 105.988L142.01 112.057L135.941 112.924L132.473 118.127L131.606 105.988Z" stroke="white" stroke-width="2" stroke-miterlimit="10" stroke-linecap="round" stroke-linejoin="round"/>
<path d="M147.5 111L150 113L152.5 111" stroke="white" stroke-width="2" stroke-miterlimit="10" stroke-linecap="round" stroke-linejoin="round"/>
<path d="M120 96V95H119V96H120ZM120 97H160V95H120V97ZM121 128V96H119V128H121Z" fill="#4F7FDA"/>
<path d="M170 108H182" stroke="#B7BECB" stroke-width="2" stroke-miterlimit="10" stroke-linecap="round" stroke-linejoin="round"/>
<path d="M172 106V118" stroke="#B7BECB" stroke-width="2" stroke-miterlimit="10" stroke-linecap="round" stroke-linejoin="round"/>
<path d="M180 106V118" stroke="#B7BECB" stroke-width="2" stroke-miterlimit="10" stroke-linecap="round" stroke-linejoin="round"/>
<path d="M170 116H182" stroke="#B7BECB" stroke-width="2" stroke-miterlimit="10" stroke-linecap="round" stroke-linejoin="round"/>
<path d="M187.5 111L190 113L192.5 111" stroke="#B7BECB" stroke-width="2" stroke-miterlimit="10" stroke-linecap="round" stroke-linejoin="round"/>
<rect x="211" y="107" width="10" height="10" rx="1" stroke="#B7BECB" stroke-width="2" stroke-miterlimit="10" stroke-linecap="round" stroke-linejoin="round"/>
<path d="M227.5 111L230 113L232.5 111" stroke="#B7BECB" stroke-width="2" stroke-miterlimit="10" stroke-linecap="round" stroke-linejoin="round"/>
<path d="M259 119H253C253 116 250 113 250 113L256 105L262 113C262 113 259 116 259 119Z" fill="#3F454F" stroke="#B7BECB" stroke-width="2" stroke-miterlimit="10" stroke-linecap="round" stroke-linejoin="round"/>
<path d="M256 106L256 113" stroke="#B7BECB" stroke-width="2" stroke-miterlimit="10" stroke-linecap="round" stroke-linejoin="round"/>
<circle cx="256" cy="113" r="1" fill="#B7BECB" stroke="#B7BECB"/>
<path d="M252 119H260" stroke="#B7BECB" stroke-width="2" stroke-miterlimit="10" stroke-linecap="round" stroke-linejoin="round"/>
<path d="M267.5 111L270 113L272.5 111" stroke="#B7BECB" stroke-width="2" stroke-miterlimit="10" stroke-linecap="round" stroke-linejoin="round"/>
<path d="M292 107H300" stroke="#B7BECB" stroke-width="2" stroke-miterlimit="10" stroke-linecap="round" stroke-linejoin="round"/>
<path d="M296 107V116" stroke="#B7BECB" stroke-width="2" stroke-miterlimit="10" stroke-linecap="round" stroke-linejoin="round"/>
<path d="M291 108H293" stroke="#B7BECB" stroke-width="2" stroke-miterlimit="10" stroke-linejoin="round"/>
<path d="M301 108H299" stroke="#B7BECB" stroke-width="2" stroke-miterlimit="10" stroke-linejoin="round"/>
<path d="M295 117H297" stroke="#B7BECB" stroke-width="2" stroke-miterlimit="10" stroke-linecap="square" stroke-linejoin="round"/>
<rect x="322" y="106" width="4" height="4" stroke="#B7BECB" stroke-width="2" stroke-miterlimit="10" stroke-linecap="round" stroke-linejoin="round"/>
<rect x="330" y="106" width="4" height="4" rx="2" stroke="#B7BECB" stroke-width="2" stroke-miterlimit="10" stroke-linecap="round" stroke-linejoin="round"/>
<rect x="322" y="114" width="4" height="4" rx="2" stroke="#B7BECB" stroke-width="2" stroke-miterlimit="10" stroke-linecap="round" stroke-linejoin="round"/>
<rect x="330" y="114" width="4" height="4" stroke="#B7BECB" stroke-width="2" stroke-miterlimit="10" stroke-linecap="round" stroke-linejoin="round"/>
<path d="M358 117L360 118L362 117" stroke="#B7BECB" stroke-width="2" stroke-miterlimit="10" stroke-linecap="round" stroke-linejoin="round"/>
<path d="M362 107L360 106L358 107" stroke="#B7BECB" stroke-width="2" stroke-miterlimit="10" stroke-linecap="round" stroke-linejoin="round"/>
<path d="M355 110L354 112L355 114" stroke="#B7BECB" stroke-width="2" stroke-miterlimit="10" stroke-linecap="round" stroke-linejoin="round"/>
<path d="M363 112L365 112" stroke="#B7BECB" stroke-width="2" stroke-miterlimit="10" stroke-linecap="round" stroke-linejoin="round"/>
<path d="M355 112L357 112" stroke="#B7BECB" stroke-width="2" stroke-miterlimit="10" stroke-linecap="round" stroke-linejoin="round"/>
<path d="M360 107L360 109" stroke="#B7BECB" stroke-width="2" stroke-miterlimit="10" stroke-linecap="round" stroke-linejoin="round"/>
<path d="M360 115L360 117" stroke="#B7BECB" stroke-width="2" stroke-miterlimit="10" stroke-linecap="round" stroke-linejoin="round"/>
<path d="M365 114L366 112L365 110" stroke="#B7BECB" stroke-width="2" stroke-miterlimit="10" stroke-linecap="round" stroke-linejoin="round"/>
</g>
</g>
<path d="M830 64V63H829H72C67.0294 63 63 67.0294 63 72V128V129H64H829H830V128V64Z" stroke="#15181F" stroke-width="2"/>
<rect x="311" y="167" width="324" height="290" fill="white" stroke="#6190E5" stroke-width="2"/>
<path d="M316 157H356" stroke="#6190E5" stroke-width="2" stroke-miterlimit="10" stroke-linecap="round" stroke-linejoin="round"/>
<rect x="308.5" y="165" width="6" height="6" fill="white" stroke="#6190E5" stroke-width="2"/>
</g>
<defs>
<clipPath id="clip0_625_1888">
<rect width="384" height="316" fill="white"/>
</clipPath>
<clipPath id="clip1_625_1888">
<path d="M64 72C64 67.5817 67.5817 64 72 64H829V128H64V72Z" fill="white"/>
</clipPath>
<clipPath id="clip2_625_1888">
<rect width="765" height="32" fill="white" transform="translate(64 96)"/>
</clipPath>
</defs>
</svg>
